<?xml version="1.0" encoding="UTF-8" standalone="no"?>
<!DOCTYPE svg PUBLIC "-//W3C//DTD SVG 1.1//EN" "http://www.w3.org/Graphics/SVG/1.1/DTD/svg11.dtd">
<svg width="100%" height="100%" viewBox="0 0 403 541" version="1.1" xmlns="http://www.w3.org/2000/svg" xmlns:xlink="http://www.w3.org/1999/xlink" xml:space="preserve" xmlns:serif="http://www.serif.com/" style="fill-rule:evenodd;clip-rule:evenodd;stroke-linejoin:round;stroke-miterlimit:2;">
    <g transform="matrix(1,0,0,1,-1738,-95)">
        <g id="Artboard1" transform="matrix(1.62412,0,0,1,0,0)">
            <rect x="0" y="0" width="1982" height="768" style="fill:none;"/>
            <g transform="matrix(1,0,0,1,992.539,0)">
                <g transform="matrix(0.615719,0,0,1,0,0)">
                    <g transform="matrix(1.59493,0,0,1.56803,-302.91,-224.078)">
                        <path d="M521.079,252.493L521.079,499.507L520.1,509.358L517.28,518.591L512.832,526.922L506.966,534.154L499.856,540.121L491.666,544.645L482.589,547.513L472.903,548.51L317.097,548.51L307.411,547.513L298.334,544.645L290.144,540.121L283.034,534.154L277.168,526.922L272.72,518.591L269.9,509.358L268.921,499.507L268.921,252.493L269.9,242.642L272.72,233.409L277.168,225.078L283.034,217.846L290.144,211.879L298.334,207.355L307.411,204.487L317.097,203.49L472.903,203.49L482.589,204.487L491.666,207.355L499.856,211.879L506.966,217.846L512.832,225.078L517.28,233.409L520.1,242.642L521.079,252.493ZM496,252.493C496,239.527 485.651,229 472.903,229L317.097,229C304.349,229 294,239.527 294,252.493L294,499.507C294,512.473 304.349,523 317.097,523L472.903,523C485.651,523 496,512.473 496,499.507L496,252.493Z"/>
                    </g>
                    <g transform="matrix(1.19324,0,0,1.22051,-88.1612,-97.2615)">
                        <path d="M348,204.227C443.371,204.227 516.522,265.621 516.522,334.5C516.522,403.379 443.371,464.773 348,464.773C252.629,464.773 179.478,403.379 179.478,334.5C179.478,265.621 252.629,204.227 348,204.227ZM348,237C273.491,237 213,280.688 213,334.5C213,388.312 273.491,432 348,432C422.509,432 483,388.312 483,334.5C483,280.688 422.509,237 348,237Z"/>
                    </g>
                </g>
            </g>
        </g>
    </g>
</svg>
