<!-- Generated by IcoMoon.io -->
<svg version="1.1" xmlns="http://www.w3.org/2000/svg" width="32" height="32" viewBox="0 0 32 32">
<path d="M10.983 30.7c-2.373-0.607-5.166-2.447-6.57-4.329-1.084-1.453-2.217-3.637-2.791-5.381-0.673-2.048-0.831-5.338-0.368-7.673 0.424-2.136 2.037-5.459 3.514-7.239 3.443-4.148 9.293-6.003 14.605-4.631 3.095 0.799 6.475 2.904 7.918 4.931 0.467 0.656 0.277 0.594-0.84-0.275-0.39-0.303-0.762-0.551-0.827-0.551s-0.118 1.621-0.118 3.602-0.073 3.602-0.162 3.602c-0.146 0-1.212-5.364-1.518-7.636-0.085-0.635-0.251-1-0.536-1.181-0.549-0.349-2.646-1.183-2.738-1.089-0.040 0.041-0.214 1.739-0.386 3.773-0.398 4.699-0.699 6.988-0.891 6.782-0.272-0.292-0.744-2.824-1.156-6.198-0.222-1.82-0.455-3.726-0.517-4.234l-0.113-0.925-1.004 0.002c-1.828 0.005-1.825 0.002-1.96 1.913-0.065 0.927-0.253 3.613-0.416 5.969-0.31 4.458-0.624 7.513-0.79 7.679-0.188 0.189-0.421-0.44-0.921-2.491-0.489-2.006-1.686-9.638-1.686-10.75 0-0.741-0.156-0.789-1.107-0.339-0.927 0.438-0.837 0.069-1.232 5.026-0.26 3.262-0.564 5.65-0.764 6.008-0.175 0.313-0.606-1.43-1.188-4.807-0.529-3.072-0.556-3.096-1.546-1.4-1.907 3.265-2.484 6.21-1.93 9.852l0.264 1.737 0.122-2.336c0.067-1.285 0.241-2.73 0.386-3.212l0.264-0.876 0.131 2.142c0.103 1.684 0.648 4.964 0.825 4.964 0.018 0 0.033-1.161 0.033-2.58 0-2.673 0.33-4.285 0.99-4.832 0.248-0.206 0.26-0.166 0.087 0.29-0.294 0.772-0.245 3.798 0.078 4.871 0.47 1.561 1.239 2.076 1.941 1.3 0.54-0.596 1.112-2.343 1.23-3.756 0.112-1.333-0.216-4.044-0.569-4.709-0.386-0.728 0.322-0.208 0.749 0.55 0.663 1.175 0.877 2.804 0.862 6.547-0.011 2.872 0.043 3.595 0.313 4.161 0.463 0.971 0.981 1.077 1.643 0.337 0.911-1.020 0.936-2.433 0.085-4.807-0.078-0.219 0.235 0.007 0.716 0.514l0.856 0.904 0.214-1.248c0.117-0.686 0.472-1.799 0.787-2.473 0.561-1.198 2.071-3.037 2.304-2.804 0.064 0.064-0.109 0.583-0.385 1.152-1.374 2.832-1.077 5.849 0.545 5.524 0.319-0.064 0.791-0.312 1.050-0.551 0.903-0.835 2.164-2.983 2.493-4.246 0.35-1.344 0.465-4.2 0.207-5.129-0.231-0.831 0.244-0.382 0.85 0.805 0.428 0.839 0.476 1.169 0.472 3.269-0.005 2.244-0.349 4.018-1.175 6.035-0.142 0.348-0.124 0.36 0.172 0.12 0.182-0.148 0.614-0.849 0.961-1.557l0.63-1.288 0.059 0.699c0.052 0.618-0.139 1.381-0.649 2.592-0.153 0.365-0.146 0.365 0.473 0 1.691-0.997 2.603-2.543 2.631-4.459 0.014-1-0.066-1.287-0.567-1.993-0.321-0.454-0.737-0.876-0.925-0.938-0.51-0.17-0.417-0.526 0.097-0.37 2.604 0.791 3.698 4.811 2.568 9.433l-0.119 0.487 0.42-0.487c0.825-0.957 1.215-2.136 1.345-4.074l0.126-1.864 0.418 0.779c0.289 0.538 0.451 0.688 0.523 0.487 0.263-0.732 0.706-2.734 0.706-3.192 0-0.908 0.332-0.534 0.457 0.515 0.145 1.218-0.162 3.979-0.631 5.669-0.923 3.329-3.79 6.918-6.737 8.433-2.686 1.381-3.827 1.642-7.593 1.732-2.747 0.066-3.545 0.018-4.692-0.274zM15.899 29.384l0.227-0.763 0.142 0.645c0.233 1.060 0.573 0.384 0.574-1.14 0-0.744 0.021-1.354 0.043-1.354s0.164 0.231 0.312 0.514l0.27 0.514 0.503-1.321 0.16 1.126c0.195 1.369 0.542 2.115 0.564 1.211l0.014-0.584 0.351 0.658c0.31 0.582 1.016 1.165 1.434 1.184 0.324 0.016 0.925-0.802 0.925-1.259 0-0.619 0.257-0.619 0.744-0 0.304 0.387 0.406 0.427 0.495 0.195 0.062-0.16 0.062-0.423-0-0.584-0.167-0.436 0.187-0.353 0.478 0.112 0.202 0.323 0.308 0.358 0.532 0.172 0.236-0.196 0.201-0.293-0.229-0.632-0.473-0.372-0.502-0.484-0.413-1.593 0.053-0.656 0.241-1.473 0.418-1.817s0.278-0.624 0.224-0.624c-0.316 0-1.16 2.197-1.272 3.31l-0.127 1.265-0.319-0.681c-0.176-0.375-0.323-0.54-0.327-0.367-0.014 0.599-0.782 1.34-1.387 1.34-0.436 0-0.666-0.151-0.963-0.633-0.607-0.983-0.664-1.489-0.316-2.795 0.425-1.596 0.418-2.117-0.018-1.244-0.187 0.375-0.591 0.8-0.898 0.946-0.497 0.236-0.613 0.224-1.066-0.115-0.28-0.209-0.567-0.591-0.64-0.849-0.075-0.267-0.141 0.243-0.154 1.186-0.023 1.685-0.244 2.428-0.833 2.796-0.407 0.254-1.002-0.229-1.525-1.238-0.296-0.572-0.375-0.625-0.49-0.334-0.178 0.454-1.090 0.918-1.803 0.918-0.931 0-2.105-0.999-2.448-2.084l-0.295-0.934 0.086 0.973c0.086 0.969 0.085 0.971-0.197 0.389-0.156-0.321-0.293-0.847-0.305-1.168s-0.093-0.759-0.179-0.973c-0.119-0.295-0.191-0.122-0.299 0.714-0.172 1.334 0.111 2.331 0.819 2.887 0.276 0.217 0.448 0.45 0.382 0.516-0.23 0.23-1.327-0.381-2.189-1.218-0.476-0.462-0.865-0.803-0.865-0.758 0 0.403 0.875 2.264 1.2 2.553 0.41 0.364 0.412 0.364 0.184-0.071-0.304-0.58-0.127-0.552 0.729 0.113 1.014 0.788 1.368 0.963 0.923 0.455-0.532-0.606-0.144-0.522 0.521 0.112l0.561 0.535-0.135-0.584c-0.075-0.321-0.263-0.789-0.42-1.039s-0.247-0.492-0.201-0.538c0.149-0.149 1.066 0.891 1.316 1.492l0.243 0.587 0.36-0.592c0.47-0.773 0.708-0.747 0.865 0.092 0.134 0.717 0.473 1.128 0.473 0.574 0-0.439 0.587-1.647 0.801-1.647 0.095 0 0.174 0.285 0.175 0.633s0.084 0.761 0.184 0.918c0.144 0.228 0.224 0.172 0.394-0.277l0.214-0.562 0.406 0.82c0.223 0.451 0.504 0.788 0.623 0.748s0.319-0.416 0.445-0.836zM7.796 17.208c-0.005-0.174 0.050-0.597 0.119-0.94 0.088-0.439 0.173-0.547 0.289-0.365 0.245 0.386 0.205 0.821-0.116 1.244-0.24 0.317-0.287 0.327-0.292 0.062zM17.784 16.867c0.072-0.361 0.13-0.831 0.13-1.043 0-0.263 0.093-0.35 0.292-0.274 0.22 0.084 0.292-0.033 0.292-0.477 0-0.343 0.081-0.539 0.195-0.469 0.501 0.31 0.045 2.028-0.701 2.642-0.312 0.257-0.328 0.227-0.207-0.379zM28.261 14.834c-0.357-0.431-0.387-2.664-0.035-2.664 0.104 0 0.139 0.128 0.079 0.285s0.030 0.564 0.201 0.906c0.532 1.066 0.346 2.185-0.245 1.473zM16.362 11.599c-0.005-0.154-0.192-0.477-0.419-0.719-0.356-0.379-0.395-0.582-0.284-1.474 0.194-1.555 0.496-1.854 0.499-0.496 0.002 0.688 0.086 1.119 0.219 1.119s0.169-0.187 0.094-0.487c-0.067-0.268-0.044-0.487 0.052-0.487 0.183 0 0.417 0.921 0.417 1.642 0 0.483-0.567 1.369-0.578 0.902z"></path>
</svg>
