<!-- Generated by IcoMoon.io -->
<svg version="1.1" xmlns="http://www.w3.org/2000/svg" width="32" height="32" viewBox="0 0 32 32">
<path d="M29.473 0.637c-0.17 0.093-0.348 0.113-0.52 0.188-0.080 0.035-0.14 0.090-0.223 0.12-0.067 0.022-0.14 0.040-0.207 0.060-0.108 0.032-0.215 0.063-0.32 0.095-0.863 0.255-1.725 0.51-2.587 0.765-0.13 0.038-0.258 0.075-0.385 0.115-0.15 0.045-0.293 0.052-0.442 0.082-0.225 0.045-0.477 0.022-0.707 0.025-0.238 0-0.477-0.025-0.715-0.013-0.288 0.018-0.57 0.067-0.86 0.045-0.128-0.013-0.233-0.035-0.36-0.015-0.095 0.015-0.205 0.055-0.305 0.047-0.105-0.010-0.148-0.053-0.238-0.118-0.105-0.073-0.238-0.085-0.335-0.157-0.117-0.090-0.212-0.25-0.163-0.395 0.047-0.143 0.212-0.23 0.31-0.34-0.087 0.045-0.165 0.105-0.25 0.155-0.075 0.045-0.155 0.063-0.233 0.103-0.1 0.052-0.172 0.117-0.265 0.177-0.308 0.198-0.468 0.5-0.375 0.862 0.040 0.147 0.065 0.292 0.168 0.402 0.038 0.040 0.157 0.095 0.11 0.172-0.030 0.050-0.163 0.050-0.21 0.047-0.117-0.010-0.308-0.098-0.413-0.163-0.135-0.083-0.093-0.257-0.175-0.368-0.128 0.155-0.078 0.388-0.058 0.572 0.020 0.192 0.093 0.428 0.163 0.61 0.085 0.22 0.317 0.188 0.465 0.335 0.098 0.1 0.1 0.272 0.18 0.39 0.090 0.14 0.135 0.223 0.183 0.388 0.093 0.32 0.188 0.638 0.282 0.958 0.050 0.17 0.11 0.335 0.155 0.508 0.027 0.103 0.027 0.162 0.015 0.263-0.025 0.178-0.023 0.305-0.020 0.48 0.008 0.253-0.032 0.508-0.027 0.76 0 0.088 0.038 0.15 0.043 0.232 0 0.070-0.032 0.135-0.043 0.205-0.032 0.195 0.020 0.367 0.017 0.56-0.008 0.287-0.108 0.585-0.148 0.873-0.027 0.21-0.055 0.41-0.113 0.613-0.065 0.225-0.030 0.46-0.087 0.688-0.023 0.085-0.078 0.145-0.108 0.225-0.043 0.113-0.045 0.255-0.063 0.373-0.035 0.238-0.087 0.485-0.17 0.713-0.065 0.18-0.087 0.328-0.102 0.518-0.020 0.22-0.090 0.44-0.093 0.66-0.003 0.175-0.032 0.34-0.067 0.505-0.168 0.148-0.288 0.352-0.315 0.623-0.080 0.803-0.41 1.503-0.858 2.135-0.515 0.043-1.017-0.185-1.378-0.555h-0.008c-0.11-0.047-0.233-0.080-0.345-0.117-0.093-0.030-0.183-0.055-0.275-0.075-0.128-0.027-0.23-0.090-0.35-0.127-0.14-0.043-0.277-0.068-0.418-0.113-0.050-0.018-0.195-0.075-0.345-0.117 0.32 0.38 0.41 0.945-0.043 1.397s-0.97 0.372-1.348 0.087c0.055 0.165 0.14 0.34 0.162 0.395 0.057 0.137 0.092 0.273 0.148 0.407 0.045 0.117 0.115 0.215 0.152 0.34 0.020 0.065 0.045 0.133 0.070 0.198 0.005 0.085 0.018 0.175 0.050 0.273 0.010 0.030 0.020 0.067 0.030 0.11 0.342 0.345 0.557 0.815 0.535 1.3-0.245 0.218-0.49 0.43-0.745 0.635-0.34 0.27-0.707 0.465-1.082 0.648-0.385 0.090-0.74 0.26-1.143 0.297-0.22 0.020-0.43 0.108-0.65 0.142-0.188 0.030-0.332 0.065-0.508 0.142-0.22 0.098-0.463 0.172-0.697 0.225-0.117 0.027-0.26 0.040-0.367 0.090-0.075 0.038-0.133 0.095-0.215 0.125-0.22 0.075-0.457 0.060-0.68 0.142-0.197 0.073-0.393 0.115-0.6 0.16-0.283 0.060-0.572 0.185-0.857 0.212-0.19 0.020-0.367-0.023-0.56 0.027-0.070 0.017-0.13 0.055-0.202 0.058-0.082 0.005-0.147-0.030-0.235-0.025-0.253 0.017-0.502 0.075-0.755 0.087-0.178 0.010-0.305 0.020-0.478 0.055-0.098 0.020-0.157 0.025-0.263 0.005-0.173-0.032-0.345-0.078-0.518-0.115-0.325-0.070-0.65-0.142-0.975-0.207-0.167-0.035-0.252-0.073-0.397-0.155-0.125-0.067-0.295-0.058-0.405-0.148-0.16-0.135-0.145-0.37-0.37-0.438-0.188-0.055-0.428-0.11-0.623-0.115-0.188-0.005-0.422-0.035-0.567 0.1 0.117 0.075 0.29 0.017 0.382 0.148 0.070 0.1 0.175 0.282 0.192 0.4 0.007 0.047 0.015 0.18-0.033 0.212-0.075 0.055-0.138-0.063-0.18-0.095-0.117-0.095-0.265-0.108-0.415-0.137-0.367-0.067-0.657 0.117-0.83 0.44-0.050 0.095-0.113 0.172-0.157 0.277-0.032 0.082-0.045 0.163-0.083 0.24-0.042 0.087-0.098 0.168-0.135 0.26 0.103-0.105 0.177-0.277 0.315-0.335 0.142-0.060 0.31 0.023 0.407 0.133 0.080 0.090 0.103 0.223 0.185 0.323 0.070 0.085 0.117 0.125 0.135 0.227 0.015 0.098-0.018 0.21-0.025 0.308-0.010 0.128 0.022 0.233 0.042 0.358 0.045 0.288 0.018 0.575 0.022 0.863 0.005 0.238 0.050 0.475 0.065 0.712 0.018 0.23 0.058 0.48 0.030 0.707-0.018 0.155-0.012 0.295-0.048 0.45-0.030 0.13-0.058 0.26-0.085 0.392-0.188 0.88-0.377 1.758-0.565 2.637-0.025 0.108-0.047 0.218-0.070 0.328-0.015 0.070-0.025 0.142-0.045 0.21-0.022 0.085-0.073 0.15-0.1 0.23-0.060 0.18-0.068 0.358-0.147 0.535-0.075 0.168-0.203 0.262-0.2 0.455 0.115-0.028 0.14-0.19 0.235-0.248 0.052-0.015 0.103-0.028 0.152-0.042 0.075-0.042 0.15-0.082 0.223-0.128 0.123-0.065 0.275-0.137 0.412-0.168 0.083-0.017 0.15-0.005 0.228-0.052 0.127-0.075 0.21-0.137 0.36-0.18 0.235-0.070 0.465-0.157 0.703-0.215 0.417-0.102 0.835-0.188 1.268-0.175 0.307 0.010 0.637 0.128 0.937 0.192 0.173 0.038 0.343 0.075 0.515 0.11 0.388 0.080 0.702 0.205 1.040 0.413 0.275 0.167 0.508 0.403 0.79 0.56 0.135 0.075 0.195 0.11 0.305 0.215 0.050 0.047 0.192 0.235 0.272 0.235 0.022-0.068 0.067-0.127 0.1-0.188 0.065-0.112 0.1-0.237 0.168-0.35 0.11-0.188 0.273-0.325 0.415-0.485 0.185-0.207 0.373-0.438 0.605-0.593 0.057-0.038 0.12-0.060 0.178-0.098 0.080-0.055 0.15-0.145 0.22-0.212 0.2-0.192 0.42-0.358 0.672-0.477 0.58-0.275 1.15-0.688 1.803-0.762 0.682-0.080 1.418-0.22 2.1-0.063 0.262 0.060 0.525 0.113 0.787 0.17 0.238 0.050 0.51 0.070 0.732 0.163 0.125 0.050 0.235 0.142 0.352 0.205 0.080 0.045 0.172 0.075 0.253 0.125 0.098 0.060 0.21 0.125 0.3 0.195 0.188 0.145 0.375 0.297 0.558 0.442 0.075-0.012 0.098-0.188 0.128-0.25 0.055-0.113 0.12-0.218 0.188-0.325 0.15-0.233 0.235-0.488 0.405-0.712 0.115-0.155 0.175-0.335 0.285-0.49 0.078-0.11 0.188-0.21 0.273-0.317 0.188-0.235 0.37-0.477 0.608-0.665 0.148-0.113 0.317-0.198 0.465-0.31 0.18-0.135 0.387-0.195 0.57-0.325 0.31-0.223 0.7-0.405 1.070-0.5 0.12-0.030 0.242-0.043 0.363-0.073 0.11-0.030 0.238-0.1 0.352-0.102 0.255-0.008 0.532 0.1 0.777 0.152 0.425 0.090 0.825 0.175 1.227 0.34 0.265 0.108 0.52 0.218 0.777 0.337 0.145 0.067 0.27 0.172 0.398 0.265 0.115 0.082 0.225 0.137 0.302 0.26 0.15 0.227 0.352 0.413 0.52 0.63 0.122 0.16 0.207 0.332 0.325 0.49 0.137 0.183 0.14 0.39 0.233 0.59 0.052 0.115 0.275 0.152 0.4 0.117 0.095-0.025 0.155-0.078 0.258-0.093 0.098-0.015 0.215-0.052 0.315-0.045 0.183 0.015 0.378 0.085 0.555 0.122 0.615 0.133 1.23 0.227 1.81 0.485 0.34 0.152 0.698 0.265 1.040 0.42 0.225 0.102 0.39 0.297 0.582 0.448l0.205 0.188c-0.012-0.027-0.027-0.052-0.043-0.078 0.040 0.023 0.080 0.040 0.122 0.055l-0.27-0.253c-0.165-0.18-0.37-0.328-0.488-0.543-0.183-0.33-0.323-0.675-0.5-1.005-0.3-0.555-0.445-1.163-0.622-1.767-0.052-0.175-0.137-0.363-0.165-0.543-0.017-0.1 0.012-0.218 0.020-0.317 0.010-0.102 0.055-0.165 0.073-0.265 0.023-0.125-0.030-0.345-0.148-0.387-0.207-0.078-0.415-0.063-0.608-0.188-0.168-0.105-0.345-0.177-0.515-0.288-0.227-0.15-0.425-0.337-0.665-0.47-0.128-0.070-0.192-0.175-0.282-0.282-0.102-0.122-0.215-0.238-0.295-0.378-0.137-0.245-0.267-0.495-0.395-0.75-0.198-0.39-0.313-0.782-0.435-1.2-0.070-0.24-0.2-0.51-0.21-0.765-0.005-0.113 0.055-0.247 0.075-0.36 0.023-0.12 0.025-0.245 0.045-0.367 0.065-0.375 0.215-0.777 0.415-1.102 0.115-0.192 0.16-0.402 0.28-0.593 0.1-0.157 0.172-0.332 0.275-0.488 0.168-0.253 0.398-0.453 0.615-0.657 0.1-0.093 0.19-0.207 0.295-0.295 0.145-0.12 0.323-0.195 0.468-0.323 0.21-0.185 0.457-0.293 0.677-0.457 0.1-0.075 0.2-0.148 0.31-0.21 0.058-0.035 0.23-0.070 0.238-0.145-0.16-0.172-0.325-0.345-0.483-0.523-0.075-0.085-0.15-0.19-0.215-0.285-0.055-0.075-0.093-0.165-0.145-0.24-0.073-0.113-0.172-0.215-0.233-0.335-0.108-0.217-0.15-0.488-0.218-0.72-0.078-0.258-0.15-0.518-0.23-0.775-0.207-0.668-0.125-1.41-0.098-2.098 0.025-0.658 0.392-1.255 0.622-1.855 0.1-0.26 0.247-0.492 0.425-0.707 0.063-0.075 0.148-0.15 0.192-0.235 0.035-0.060 0.052-0.123 0.085-0.185 0.137-0.242 0.35-0.447 0.545-0.65 0.15-0.155 0.275-0.325 0.453-0.447 0.108-0.075 0.227-0.12 0.335-0.192 0.060-0.040 0.115-0.088 0.18-0.117-0.008-0.077-0.205-0.205-0.258-0.253-0.113-0.1-0.152-0.162-0.238-0.29-0.18-0.268-0.433-0.482-0.62-0.745-0.233-0.32-0.383-0.625-0.49-1.005-0.050-0.17-0.1-0.338-0.15-0.505-0.087-0.295-0.23-0.612-0.265-0.92-0.047-0.43 0.005-0.853 0.078-1.275 0.040-0.243 0.11-0.478 0.16-0.717 0.032-0.153 0.087-0.24 0.152-0.373 0.040-0.083 0.025-0.147 0.035-0.232 0.017-0.137 0.078-0.297 0.135-0.422 0.038-0.075 0.075-0.152 0.11-0.23 0.010-0.052 0.020-0.103 0.030-0.157 0.050-0.1 0.21-0.135 0.227-0.253-0.192 0.013-0.275 0.148-0.438 0.232z"></path>
</svg>
