<!-- Generated by IcoMoon.io -->
<svg version="1.1" xmlns="http://www.w3.org/2000/svg" width="31" height="32" viewBox="0 0 31 32">
<path d="M15.358 30.594c-0.532-0.588-0.314-0.96 0.254-0.432 0.475 0.443 0.613 0.838 0.291 0.838-0.097 0-0.343-0.183-0.545-0.407zM16.724 30.669c0.010-0.244 0.060-0.294 0.127-0.127 0.061 0.151 0.053 0.332-0.017 0.401s-0.119-0.054-0.11-0.275zM10.217 30.579c-0.173-0.113-0.597-0.149-0.942-0.080-0.598 0.119-0.611 0.107-0.269-0.247 0.306-0.318 0.47-0.338 1.116-0.14 0.66 0.203 0.741 0.19 0.631-0.097-0.103-0.27-0.070-0.283 0.182-0.073 0.17 0.141 0.525 0.205 0.79 0.142 0.347-0.082 0.32-0.047-0.095 0.128-0.317 0.133-0.576 0.318-0.576 0.411 0 0.231-0.455 0.207-0.838-0.043zM17.376 30.562c0.12-0.366 1.187-0.513 1.493-0.207 0.161 0.161 0.070 0.226-0.322 0.226-0.302 0-0.71 0.062-0.908 0.138-0.252 0.097-0.331 0.050-0.263-0.157zM19.403 30.424c-0.25-0.319-0.247-0.335 0.027-0.123 0.173 0.134 0.597 0.285 0.942 0.335l0.628 0.092-0.655 0.031c-0.404 0.019-0.765-0.109-0.942-0.335zM12.729 30.372c0-0.115 0.259-0.211 0.576-0.213 0.762-0.004 1.037-0.203 1.154-0.834 0.074-0.4 0.104-0.343 0.126 0.237 0.023 0.624-0.056 0.783-0.443 0.887-0.722 0.193-1.413 0.156-1.413-0.077zM22.285 30.266c-0.33-0.172-1.049-0.313-1.597-0.313-0.596 0-1.095-0.117-1.239-0.291-0.331-0.398-1.478-0.564-1.336-0.193 0.158 0.412-0.314 0.331-0.533-0.092-0.105-0.202-0.255-0.816-0.335-1.365-0.199-1.372-0.63-1.073-0.464 0.322 0.068 0.576 0.063 0.986-0.011 0.912-0.196-0.196-0.235-6.131-0.043-6.443 0.089-0.144 0.115 0.11 0.058 0.564s-0.014 1.204 0.097 1.664c0.164 0.678 0.202 0.34 0.202-1.78-0-1.963 0.081-2.771 0.325-3.23 0.179-0.337 0.277-0.691 0.219-0.785s-0.005-0.172 0.12-0.172c0.124 0 0.337-0.244 0.473-0.542 0.142-0.311 0.579-0.675 1.028-0.854 0.546-0.219 0.848-0.505 1.005-0.955 0.355-1.017 0.296-1.002-1.032 0.274-0.691 0.664-1.256 1.324-1.256 1.468s-0.061 0.2-0.135 0.126c-0.181-0.181 0.803-1.607 1.111-1.609 0.334-0.002 1.323-1.21 1.344-1.64 0.011-0.241 0.051-0.264 0.127-0.073 0.073 0.181 0.284 0.023 0.612-0.46 0.275-0.405 0.501-0.787 0.501-0.849 0-0.323-1.872 1.269-1.976 1.68-0.069 0.274-0.423 0.628-0.816 0.814-0.447 0.212-0.797 0.59-0.981 1.060-0.158 0.402-0.457 0.885-0.665 1.073-0.466 0.422-0.505 0.165-0.044-0.296 0.226-0.226 0.294-0.532 0.209-0.953-0.068-0.341-0.125-0.914-0.127-1.274-0.002-0.438-0.062-0.562-0.18-0.375-0.133 0.209-0.208 0.16-0.302-0.198-0.118-0.452-0.145-0.458-0.517-0.122-0.53 0.479-1.092 0.454-1.092-0.049 0-0.222-0.232-0.586-0.515-0.809-0.456-0.359-0.482-0.45-0.227-0.8 0.344-0.47 0.072-0.919-0.557-0.919-0.743 0-0.257-0.617 0.724-0.921 0.266-0.082 0.366-0.334 0.366-0.915 0-0.441 0.104-0.907 0.232-1.034s0.296-0.547 0.375-0.932c0.084-0.408 0.27-0.7 0.449-0.7 0.294 0 0.517-0.55 0.765-1.884 0.166-0.897 0.438-1.152 1.229-1.152 0.793 0 0.837-0.047 0.996-1.047l0.116-0.733-0.233 0.785c-0.151 0.508-0.359 0.785-0.59 0.785-0.508 0-0.829-0.468-0.688-1.005 0.067-0.256 0.024-0.46-0.098-0.46-0.123 0-0.188 0.322-0.15 0.736 0.052 0.555-0.030 0.789-0.33 0.95-0.252 0.135-0.398 0.438-0.398 0.824 0 0.765-0.402 1.697-0.887 2.056-0.203 0.15-0.37 0.498-0.37 0.773 0 0.97-0.916 0.829-1.111-0.172-0.088-0.453-0.089-0.453-0.117-0.010-0.016 0.245 0.113 0.563 0.286 0.706 0.357 0.297 0.437 1.993 0.103 2.199-0.116 0.072-0.352-0.011-0.525-0.183s-0.512-0.377-0.755-0.454c-0.4-0.127-0.428-0.241-0.299-1.218 0.079-0.593 0.254-1.271 0.39-1.507 0.772-1.338 1.113-1.759 1.352-1.669 0.404 0.152 1.137-0.683 0.994-1.133-0.067-0.211-0.014-0.62 0.117-0.909 0.18-0.395 0.179-0.621-0.004-0.914-0.219-0.351-0.229-0.341-0.111 0.092 0.073 0.265 0.019 0.617-0.119 0.784s-0.197 0.511-0.131 0.764c0.24 0.918-0.523 1.269-1.445 0.665-0.489-0.321-0.502-0.372-0.202-0.83 0.362-0.552 0.427-1.34 0.111-1.34-0.115 0-0.209-0.147-0.209-0.326s-0.1-0.264-0.223-0.189c-0.148 0.091-0.113 0.26 0.105 0.5 0.414 0.457 0.412 0.738-0.006 1.377-0.312 0.476-0.305 0.547 0.098 1.059l0.432 0.549-0.564 0.707c-0.672 0.842-0.864 0.722-1.25-0.787-0.243-0.951-0.238-1.11 0.042-1.267 0.533-0.298 0.375-1.122-0.329-1.714-0.407-0.343-0.603-0.666-0.526-0.867 0.070-0.183 0.034-0.266-0.084-0.193-0.351 0.217-0.233 0.539 0.421 1.15 0.656 0.613 0.846 1.466 0.326 1.466-0.412 0-0.616 0.382-0.369 0.69 0.112 0.139 0.272 0.582 0.355 0.985s0.283 0.882 0.443 1.064c0.198 0.225 0.274 0.76 0.238 1.667-0.050 1.272-0.025 1.349 0.523 1.617 0.659 0.322 0.726 0.572 0.229 0.85-0.442 0.247-0.223 0.874 0.305 0.874 0.6 0 0.707 0.24 0.305 0.684-0.351 0.388-0.342 0.423 0.209 0.862 0.62 0.494 0.771 1.175 0.261 1.175-0.173 0-0.314 0.094-0.314 0.209 0 0.307-0.343 0.256-0.703-0.105-0.173-0.173-0.409-0.314-0.524-0.314s-0.414-0.286-0.663-0.636c-0.341-0.479-0.558-0.603-0.878-0.501-0.65 0.206-0.82-0.307-0.323-0.979 0.38-0.514 0.399-0.657 0.165-1.222-0.146-0.352-0.372-0.642-0.502-0.643-0.152-0.002-0.161-0.058-0.026-0.157 0.116-0.085 0.242-0.431 0.282-0.769s0.157-0.839 0.261-1.113c0.306-0.804 0.224-1.092-0.387-1.365-0.646-0.288-1.321-1.009-1.172-1.251 0.054-0.087 0.271-0.158 0.482-0.158 0.433 0 0.638-0.395 0.638-1.232 0-0.313 0.113-0.682 0.251-0.82 0.191-0.191 0.192-0.251 0.004-0.251-0.243 0-0.394 0.433-0.511 1.459-0.043 0.383-0.237 0.567-0.748 0.713-0.991 0.283-1.247-0.068-0.608-0.833 0.375-0.449 0.461-0.714 0.329-1.025-0.175-0.414-0.177-0.414-0.13 0.007 0.026 0.234-0.15 0.638-0.391 0.896-0.367 0.394-0.528 0.436-0.992 0.26-0.356-0.135-0.554-0.138-0.554-0.007 0 0.112 0.137 0.204 0.305 0.204s0.537 0.212 0.821 0.471c0.284 0.259 0.788 0.718 1.12 1.020s0.81 0.614 1.063 0.695c0.54 0.171 0.568 0.435 0.154 1.426-0.168 0.402-0.239 0.804-0.157 0.892 0.167 0.179-0.003 0.118-0.859-0.31-0.483-0.241-0.566-0.391-0.465-0.831 0.094-0.405 0.072-0.46-0.089-0.222-0.353 0.522-0.25 0.811 0.409 1.152 0.345 0.179 0.628 0.468 0.628 0.642s0.205 0.594 0.455 0.932c0.391 0.529 0.42 0.692 0.204 1.164-0.208 0.457-0.303 0.506-0.564 0.289s-0.291-0.202-0.182 0.083c0.073 0.189 0.032 0.344-0.090 0.344-0.333 0-1.288-1.021-1.288-1.377 0-0.171-0.141-0.365-0.314-0.432-0.176-0.068-0.314-0.379-0.314-0.711 0-0.391-0.19-0.74-0.562-1.033-0.53-0.417-0.547-0.485-0.301-1.166 0.291-0.804 0.216-1.031-0.457-1.381-0.45-0.234-0.45-0.228 0.030 0.293 0.407 0.442 0.449 0.606 0.253 0.973-0.17 0.317-0.367 0.408-0.704 0.323-0.334-0.084-0.6 0.035-0.932 0.417-0.353 0.406-0.39 0.534-0.152 0.534 0.172 0 0.313-0.136 0.313-0.302 0-0.581 0.423-0.553 1.359 0.091 0.761 0.524 0.944 0.77 0.944 1.272 0 0.559-0.053 0.609-0.523 0.491-0.33-0.083-0.523-0.043-0.523 0.108 0 0.175-0.113 0.179-0.419 0.015-0.23-0.123-0.419-0.368-0.419-0.543s-0.090-0.263-0.2-0.195c-0.279 0.173-0.081 0.593 0.43 0.912 0.298 0.186 0.511 0.203 0.689 0.055 0.153-0.127 0.509-0.147 0.873-0.050 0.804 0.214 0.965 0.994 0.264 1.275-0.267 0.107-0.367 0.201-0.221 0.208s0.451-0.103 0.679-0.245c0.355-0.222 0.461-0.191 0.742 0.209 0.18 0.257 0.501 0.468 0.712 0.468s0.439 0.141 0.505 0.314c0.066 0.173 0.313 0.314 0.548 0.314s0.938 0.4 1.561 0.89c0.823 0.646 1.138 1.036 1.149 1.424 0.009 0.294 0.133 0.66 0.277 0.814 0.216 0.23 0.169 0.252-0.262 0.123-0.288-0.086-0.884-0.204-1.324-0.261-0.492-0.064-0.855-0.243-0.942-0.464-0.169-0.429-2.261-2.315-2.569-2.315-0.24 0-0.153 0.17 0.674 1.321 0.315 0.439 0.634 1.075 0.709 1.415 0.154 0.703 0.639 1.033 1.517 1.033 0.374 0 0.792 0.199 1.093 0.519 0.481 0.512 0.486 0.567 0.358 3.821-0.071 1.816-0.223 3.616-0.337 4-0.187 0.631-0.175 0.671 0.131 0.419s0.313-0.231 0.067 0.231c-0.15 0.281-0.357 0.61-0.46 0.733s-0.319 0.411-0.479 0.641c-0.255 0.367-0.492 0.412-1.905 0.364-0.908-0.031-1.731 0.042-1.88 0.166-0.146 0.121-0.557 0.304-0.914 0.406-0.509 0.146-0.648 0.122-0.648-0.113 0-0.165 0.168-0.299 0.372-0.299s0.592-0.154 0.861-0.342c0.38-0.266 0.778-0.315 1.795-0.22 2.375 0.222 2.846-0.688 2.993-5.783 0.085-2.948 0.055-3.353-0.273-3.716-0.203-0.224-0.624-0.407-0.936-0.407-0.725 0-1.584-0.673-1.761-1.379-0.076-0.302-0.283-0.77-0.46-1.041-0.276-0.422-0.382-0.456-0.74-0.24-0.367 0.221-0.502 0.156-1.104-0.533-0.379-0.434-0.88-0.785-1.12-0.785-0.581 0-1.092-0.543-1.092-1.16 0-0.299-0.389-0.939-0.964-1.587-0.903-1.017-0.955-1.14-0.828-1.944 0.075-0.472 0.414-1.431 0.755-2.131s0.619-1.369 0.619-1.487c0-0.118 0.259-0.505 0.576-0.861s0.795-0.935 1.063-1.287c0.325-0.428 0.673-0.643 1.047-0.647 0.431-0.005 0.684-0.211 1.098-0.895 0.44-0.726 0.795-0.998 1.95-1.488l1.412-0.6 1.024 0.479c0.776 0.363 1.469 0.493 2.865 0.536 3.428 0.105 4.821 0.411 5.613 1.232 0.57 0.591 1.737 1.255 2.393 1.362 0.916 0.149 1.687 1.196 1.689 2.291 0 0.415 0.236 1.218 0.523 1.784 0.59 1.162 0.669 2.043 0.217 2.418-0.168 0.14-0.365 0.457-0.438 0.706-0.375 1.283-1.008 2.259-1.636 2.521-0.364 0.152-0.944 0.598-1.289 0.99s-1.025 0.845-1.512 1.006c-0.487 0.161-1.032 0.517-1.212 0.791s-0.636 0.646-1.013 0.826c-0.463 0.221-0.895 0.712-1.327 1.51-0.62 1.143-0.645 1.292-0.739 4.428-0.098 3.245 0.035 4.276 0.611 4.741 0.163 0.132 0.461 0.197 0.662 0.144s0.54 0.098 0.756 0.336c0.279 0.309 0.648 0.432 1.293 0.432 0.894 0 2.383 0.547 2.383 0.876 0 0.247-0.235 0.21-0.914-0.145zM13.567 16.762c0-0.317-0.141-0.419-0.576-0.422-0.317-0.002-0.811-0.055-1.099-0.119-0.447-0.099-0.47-0.082-0.157 0.118 0.202 0.129 0.366 0.371 0.366 0.538 0 0.207 0.232 0.304 0.733 0.304 0.593 0 0.733-0.080 0.733-0.419zM18.173 16.217c0-0.045-0.141-0.082-0.314-0.082s-0.314 0.091-0.314 0.203c0 0.112 0.141 0.149 0.314 0.082s0.314-0.158 0.314-0.203zM17.713 14.836c0.138-0.138 0.251-0.515 0.251-0.838s0.071-0.575 0.157-0.561c0.576 0.091 0.846-0.112 1.055-0.792 0.13-0.422 0.186-0.847 0.127-0.944s0.332-0.599 0.871-1.116c0.715-0.685 0.951-1.053 0.87-1.359-0.154-0.591 0.378-0.543 1.145 0.103 0.833 0.701 1.131 0.654 1.609-0.254 0.162-0.308 0.359-0.419 0.589-0.331 0.231 0.089 0.295 0.052 0.194-0.113-0.257-0.415-0.634-0.271-1.007 0.384-0.438 0.77-0.67 0.783-1.328 0.073-0.807-0.871-0.626-1.371 0.512-1.414 0.427-0.016 0.558-0.141 0.609-0.575 0.039-0.339 0.222-0.596 0.471-0.661 0.224-0.059 0.407-0.212 0.407-0.34 0-0.421-1.019 0.414-1.087 0.891-0.081 0.571-0.452 0.595-0.555 0.036-0.042-0.23-0.217-0.577-0.388-0.77-0.195-0.22-0.26-0.533-0.174-0.838 0.107-0.377 0.088-0.416-0.083-0.172-0.317 0.453-0.276 0.983 0.088 1.123 0.451 0.173 0.387 0.922-0.105 1.229-0.23 0.144-0.419 0.37-0.419 0.503 0 0.256-0.464 0.495-0.959 0.495-0.163 0-0.297-0.183-0.297-0.406s-0.1-0.468-0.223-0.544c-0.147-0.091-0.11-0.263 0.112-0.508 0.202-0.223 0.322-0.693 0.303-1.183-0.017-0.447 0.028-1.049 0.1-1.337 0.109-0.433 0.079-0.415-0.172 0.105-0.181 0.375-0.258 0.928-0.192 1.371 0.182 1.204-0.562 1.538-1.143 0.513-0.195-0.344-0.239-0.356-0.244-0.070-0.004 0.192 0.276 0.615 0.622 0.942s0.628 0.681 0.628 0.789c0 0.108 0.191 0.4 0.425 0.649 0.518 0.551 0.392 0.952-0.519 1.646-0.854 0.651-1.861 0.624-1.962-0.052-0.053-0.358 0.040-0.449 0.464-0.449 0.524 0 0.981-0.524 0.948-1.085-0.009-0.152-0.111-0.016-0.227 0.3-0.24 0.657-1.013 0.812-1.013 0.204 0-0.205-0.196-0.54-0.435-0.745-0.412-0.352-0.416-0.401-0.091-0.897 0.189-0.288 0.313-0.615 0.276-0.726s-0.252 0.141-0.478 0.56l-0.41 0.762 0.465 0.376c0.516 0.418 0.591 0.832 0.218 1.205-0.37 0.37 0.196 1.347 0.69 1.19 0.244-0.078 0.453 0.040 0.618 0.347 0.206 0.386 0.187 0.509-0.113 0.729-0.201 0.147-0.294 0.374-0.209 0.511 0.277 0.449-0.363 0.579-1.291 0.262-0.933-0.318-1.17-0.769-0.667-1.272 0.189-0.189 0.158-0.343-0.13-0.662-0.208-0.23-0.319-0.565-0.249-0.749 0.074-0.192 0.040-0.279-0.079-0.205-0.283 0.175-0.262 0.941 0.026 0.941 0.153 0 0.185 0.255 0.092 0.749-0.155 0.828 0.123 1.345 0.725 1.345 0.738 0 0.865 1.382 0.154 1.669-0.289 0.116-0.346 0.194-0.147 0.203 0.178 0.007 0.438-0.1 0.576-0.238zM22.89 13.388c0.11-0.5 0.194-0.576 0.425-0.384 0.159 0.132 0.409 0.191 0.557 0.131 0.167-0.067 0.128-0.114-0.103-0.124-0.204-0.009-0.461-0.252-0.571-0.54-0.146-0.383-0.353-0.523-0.774-0.523h-0.575l0.456-0.456c0.399-0.399 0.526-0.424 1.012-0.203 0.615 0.28 1.137 0.032 1.137-0.54 0-0.195 0.121-0.264 0.325-0.186 0.186 0.072 0.27 0.036 0.197-0.082-0.237-0.384-0.685-0.211-0.817 0.316-0.136 0.541-0.421 0.679-0.647 0.314-0.251-0.406-1.136-0.219-1.485 0.314-0.189 0.288-0.518 0.523-0.732 0.523-0.219 0-0.528 0.269-0.707 0.614-0.207 0.4-0.519 0.644-0.895 0.701-0.549 0.083-0.545 0.089 0.091 0.119 0.535 0.025 0.724-0.082 0.942-0.532 0.226-0.467 0.426-0.571 1.163-0.608 0.489-0.025 0.951 0.055 1.027 0.177 0.076 0.123 0.039 0.161-0.085 0.085-0.14-0.086-0.181 0.018-0.113 0.281 0.060 0.23-0.043 0.651-0.229 0.935-0.419 0.639-0.435 0.872-0.038 0.542 0.165-0.137 0.362-0.53 0.438-0.873zM13.1 29.162c0.055-0.313 0.337-0.823 0.626-1.134 0.425-0.456 0.5-0.697 0.393-1.256-0.094-0.49-0.073-0.6 0.073-0.378 0.349 0.532 0.236 1.169-0.311 1.76-0.288 0.311-0.523 0.743-0.523 0.96s-0.081 0.445-0.179 0.506c-0.099 0.061-0.134-0.146-0.079-0.459zM15.668 29.133c-0.192-0.464-0.2-0.774-0.031-1.211l0.228-0.586-0.116 0.668c-0.064 0.367-0.008 0.87 0.124 1.117s0.198 0.491 0.147 0.542-0.21-0.187-0.352-0.531zM15.111 25.661c0-1.267 0.035-1.758 0.077-1.092s0.041 1.703-0.001 2.303c-0.042 0.6-0.076 0.055-0.076-1.212zM15.98 26.313c0.055-0.563-0.009-1.386-0.143-1.83-0.2-0.669-0.183-0.942 0.105-1.594 0.191-0.433 0.439-1.164 0.552-1.624l0.206-0.837-0.107 0.912c-0.059 0.502-0.258 1.204-0.443 1.562-0.281 0.543-0.297 0.807-0.097 1.601 0.167 0.661 0.177 1.237 0.034 1.893l-0.206 0.942zM14.055 24.195c0.001-0.806 0.039-1.11 0.084-0.676s0.045 1.094-0.002 1.466c-0.046 0.372-0.083 0.016-0.082-0.79zM14.326 22.512c-0.072-0.187-0.125-0.45-0.117-0.585s0.104-0.019 0.214 0.257c0.11 0.276 0.163 0.539 0.117 0.585s-0.142-0.070-0.214-0.257zM15.066 22.416c0-0.288 0.048-0.406 0.106-0.262s0.058 0.38 0 0.523-0.106 0.026-0.106-0.262zM14.741 21.456c-0.070-0.182-0.13-0.63-0.134-0.995l-0.007-0.663-0.321 0.523c-0.198 0.322-0.261 0.362-0.164 0.105 0.086-0.23 0.154-0.677 0.149-0.993-0.007-0.518 0.019-0.538 0.262-0.209 0.245 0.332 0.299 0.298 0.59-0.368 0.176-0.403 0.324-0.589 0.328-0.413s-0.144 0.538-0.331 0.804c-0.243 0.347-0.311 0.776-0.24 1.512 0.104 1.086 0.076 1.237-0.131 0.697zM14.002 21.247c0.010-0.244 0.060-0.294 0.127-0.127 0.060 0.151 0.053 0.332-0.017 0.401s-0.119-0.054-0.11-0.275zM15.382 21.439c-0.077-0.077-0.14-0.501-0.14-0.942 0-0.553 0.092-0.803 0.297-0.803 0.163 0 0.353-0.118 0.421-0.262s0.078-0.026 0.020 0.262c-0.057 0.288-0.105 0.83-0.107 1.204-0.003 0.647-0.185 0.847-0.491 0.541zM16.010 18.3c-0.068-0.421-0.057-0.885 0.025-1.032s0.169 0.198 0.193 0.765c0.052 1.219-0.044 1.337-0.218 0.266zM13.235 18.558c-0.234-0.164-0.747-0.329-1.141-0.366-0.462-0.044-0.792-0.219-0.93-0.492-0.118-0.233-0.434-0.751-0.703-1.152l-0.488-0.729 0.554 0.628c0.305 0.345 0.64 0.84 0.745 1.099 0.142 0.352 0.364 0.472 0.876 0.476 0.377 0.002 0.921 0.189 1.209 0.414 0.604 0.472 0.51 0.564-0.123 0.121zM14.662 16.762c0-0.403 0.043-0.568 0.096-0.366s0.053 0.531 0 0.733c-0.053 0.202-0.096 0.037-0.096-0.366zM15.283 16.658c0.004-0.345 0.051-0.461 0.104-0.258s0.050 0.486-0.008 0.628c-0.057 0.142-0.101-0.025-0.097-0.37z"></path>
</svg>
