<!-- Generated by IcoMoon.io -->
<svg version="1.1" xmlns="http://www.w3.org/2000/svg" width="32" height="32" viewBox="0 0 32 32">
<path d="M23.702 16.707c0.002-0.112-0.090-0.096-0.155-0.119-0.291-0.012 0.1 0.418 0.155 0.119zM30.008 17.246c-0.12 0.125-0.435 0.211-0.393 0.422 0.012 0.091 0.044 0.133-0.028 0.164-0.18 0.065-0.471 0.125-0.694 0.263-0.147 0.094-0.344 0.194-0.507 0.204-0.359 0.052-0.581 0.346-0.983 0.377-0.509 0.086-1.006 0.161-1.508 0.036-0.332-0.075-0.697-0.048-0.95-0.311-0.423-0.38-0.965-0.617-1.22-1.172-0.135-0.279-0.032-0.602-0.016-0.941 0.014-0.104 0.037-0.202 0.088-0.295 0.263-0.449 0.955-0.73 1.457-0.939 0.251-0.102 0.531-0.247 0.593-0.536 0.038-0.38 0.090-0.769 0.43-1.005 0.616-0.503 1.436-1.055 2.183-1.035 0.339 0.003 0.616 0.208 0.91 0.384 0.542 0.308 0.886 0.902 0.9 1.558 0.023 0.424 0.191 0.791 0.208 1.237-0.018 0.562-0.141 1.132-0.451 1.571zM2.195 17.757c1.376 1.091 3.26 1.201 4.698 0.3 0.296-0.195 0.586-0.494 0.916-0.651 0.168-0.079 0.31-0.106 0.452-0.308 0.324-0.506 0.262-1.2 0.23-1.766-0.004-0.241 0.093-0.484-0.009-0.73-0.478-1.375-2.515-2.786-3.82-1.664-0.391 0.331-0.543 0.968-0.759 1.328-0.393 0.595-1.236 0.857-1.823 1.286-0.887 0.537-0.569 1.562 0.083 2.177zM16.238 2.89c0.075-0.029 0.15-0.073 0.171-0.154-0.039-0.199-0.484 0.106-0.171 0.154zM18.543 8.174c-0.093 0.026-0.191 0.128-0.27 0.209-0.9 0.978-2.451 0.977-3.667 0.592-1.882-0.591-3.338-2.173-1.786-3.547 0.341-0.312 0.851-0.503 1.164-0.818 0.358-0.363 0.524-0.836 0.861-1.227 0.984-1.188 2.469-1.114 3.574-0.132 0.521 0.39 0.732 0.989 0.922 1.607 0.333 1.065 0.166 1.928-0.294 2.92-0.093 0.162-0.202 0.373-0.403 0.375-0.027 0.004-0.023 0.001-0.080 0.014zM14.615 29.148c-0.402-0.278-1.040-0.396-1.253-0.835-0.079-0.216-0.145-0.351-0.245-0.554-0.096-0.204-0.21-0.335-0.238-0.55-0.013-0.26 0.154-0.543 0.28-0.779 0.145-0.171 0.109-0.32 0.241-0.529 0.366-0.484 1.080-0.694 1.587-0.997 0.204-0.178 0.22-0.512 0.319-0.756 0.135-0.402 0.44-0.627 0.794-0.893 0.431-0.327 0.951-0.675 1.318-0.548 0.184 0.054 0.358 0.128 0.553 0.138 0.234 0.017 0.504-0.040 0.732 0.060 0.597 0.252 0.941 0.88 1.265 1.446 0.275 0.425 0.383 0.892 0.416 1.369 0.041 0.265 0.122 0.544 0.083 0.862-0.022 0.242-0.135 0.467-0.177 0.701-0.043 0.275-0.047 0.628-0.293 0.863-0.488 0.5-1.010 0.784-1.586 1.072-0.313 0.187-0.632 0.305-1.008 0.337-0.888 0.072-2.012 0.18-2.759-0.389zM10.343 16.723c0.091-0.153-0.048-0.189-0.158-0.099-0.065 0.044-0.067 0.148-0.015 0.224 0.112 0.151 0.252 0.052 0.176-0.099zM14.060 16.517c0.093 0.094 0.247 0.174 0.382 0.236 1.173 0.567 2.619 1.754 3.912 0.865 0.249-0.256-0.203-0.405-0.049-0.666 0.034-0.078 0.090-0.161 0.098-0.246 0.023-0.17-0.208-0.281-0.063-0.385 0.082-0.075 0.246-0.169 0.254-0.28-0.060-0.117-0.296-0.036-0.338-0.232-0.063-0.394 0.105-0.829-0.196-1.164-0.775-1.040-3.325-1.388-4.22-0.086-0.819 0.916-0.32 1.118 0.198 1.937zM20.014 11.248c0.007-0.216 0.299-0.313 0.534-0.163 0.763 0.546 1.218 1.85 1.558 2.607 0.111 0.231 0.143 0.407 0.092 0.617-0.012 0.13-0.060 0.261-0.064 0.394 0.011 0.36 0.105 0.496 0.088 0.95 0.013 0.476 0.003 0.984-0.144 1.433-0.053 0.164-0.126 0.253-0.253 0.343-0.538 0.41-0.693 1.234-1.18 1.683-0.187 0.219-0.363 0.352-0.649 0.416-0.1 0.033-0.188 0.080-0.274 0.152-0.772 0.872-1.946 1.366-3.021 1.72-0.626 0.104-1.311 0.316-1.95 0.044-0.471-0.179-0.944-0.172-1.387-0.33-0.469-0.197-1.068-0.421-1.404-0.85-0.091-0.11-0.218-0.339-0.349-0.398-0.054-0.016-0.052-0.011-0.077-0.015-0.174 0.015-0.313-0.177-0.414-0.296-0.118-0.128-0.189-0.3-0.269-0.466-0.125-0.249-0.433-0.546-0.489-0.762-0.050-0.14-0.006-0.288-0.005-0.427-0.001-0.107-0.072-0.227-0.121-0.336-0.124-0.29-0.386-0.684-0.217-1.001 0.026-0.060 0.061-0.123 0.083-0.18 0.084-0.207-0.027-0.252 0.031-0.527 0.231-0.864 0.64-1.807 1.379-2.331 0.378-0.23 0.755-0.44 1.039-0.795 0.771-0.919 1.362-2.011 2.531-2.19 1.055-0.428 2.202-0.036 3.31 0.274 0.198 0.059 0.37 0.133 0.552 0.24 0.32 0.175 0.706 0.513 1.056 0.56 0.123-0.009-0.011-0.243 0.014-0.342z"></path>
</svg>
