<!-- Generated by IcoMoon.io -->
<svg version="1.1" xmlns="http://www.w3.org/2000/svg" width="31" height="32" viewBox="0 0 31 32">
<path d="M13.783 1.476c-0.432 0.181-0.563 0.263-0.592 0.377-0.022 0.084-0.362 0.29-0.384 0.233-0.016-0.041-0.078-0.036-0.334 0.022-0.155 0.036-0.251 0.048-0.318 0.039-0.073-0.009-0.287 0.026-0.926 0.153-0.457 0.091-0.896 0.169-0.975 0.172-0.244 0.013-0.805 0.213-0.75 0.269 0.042-0.003 0.080-0.012 0.116-0.027l-0.002 0.001q0.292-0.095-0.094 0.171c-0.195 0.134-0.242 0.16-0.256 0.134-0.057-0.102-0.114-0.073-0.898 0.458-0.267 0.181-0.349 0.221-0.588 0.289-0.547 0.167-1.004 0.494-1.33 0.925l-0.005 0.007c-0.223 0.312-0.266 0.356-0.302 0.307-0.060-0.080-0.225 0.127-0.477 0.598-0.347 0.644-0.618 0.978-1.105 1.358-0.705 0.55-0.711 0.557-0.904 1.345-0.043 0.189-0.081 0.328-0.122 0.464l0.013-0.051c-0.021 0.022-0.053-0.021-0.042-0.057 0.027-0.087-0.026-0.027-0.118 0.129-0.087 0.144-0.165 0.261-0.248 0.375l0.011-0.016c-0.607 0.831-0.657 0.926-0.78 1.459-0.142 0.622-0.333 1.198-0.381 1.158-0.050-0.042-0.096 0.261-0.117 0.768-0.027 0.655-0.039 0.737-0.134 0.936-0.091 0.188-0.104 0.24-0.178 0.672-0.094 0.556-0.2 0.889-0.387 1.239-0.252 0.468-0.243 0.87 0.045 2.118 0.137 0.595 0.23 0.833 0.46 1.179 0.172 0.257 0.177 0.27 0.111 0.254-0.051-0.014-0.051-0.014-0.001 0.087 0.073 0.147 0.081 0.318 0.024 0.504-0.054 0.18-0.020 0.621 0.036 0.454 0.024-0.073 0.041 0.005 0.064 0.284 0.047 0.602 0.14 0.958 0.49 1.898 0.299 0.801 0.363 0.927 0.878 1.73 0.138 0.214 0.299 0.466 0.358 0.561 0.158 0.249 0.425 0.517 0.788 0.792 0.419 0.318 0.593 0.483 0.76 0.721 0.245 0.345 1.236 1.275 2.239 2.096 0.603 0.494 1.135 0.758 1.636 0.809 0.527 0.054 0.61 0.083 0.947 0.327 0.134 0.095 0.181 0.118 0.274 0.13 0.091 0.011 0.151 0.039 0.314 0.145 0.254 0.164 0.556 0.312 0.78 0.381 0.372 0.114 0.847 0.281 0.962 0.339 0.081 0.040 0.174 0.068 0.273 0.078h0.003c0.085 0.009 0.263 0.050 0.396 0.089 0.898 0.269 1.346 0.296 1.742 0.109 0.138-0.065 0.138-0.065 0.29-0.034s0.162 0.030 0.842-0.057c-0.666 0.058-0.114-0.012 0.438-0.081l1.173-0.119c0.995-0.121 1.229-0.156 1.719-0.263 0.175-0.037 0.409-0.078 0.521-0.091 0.142-0.009 0.274-0.049 0.389-0.114l-0.005 0.002c0.179-0.088 0.917-0.518 1.075-0.626 0.087-0.058 0.142-0.066 0.221-0.030 0.045 0.020 0.074 0.013 0.23-0.059 0.241-0.112 0.461-0.179 0.852-0.259 0.2-0.042 0.357-0.085 0.399-0.112 0.174-0.107 0.472-0.509 0.315-0.427-0.020 0.011-0.037 0.025-0.052 0.041v0c-0.006 0.012-0.025 0.021-0.042 0.021-0.103 0 0.077-0.204 0.482-0.549 0.227-0.193 0.566-0.502 0.756-0.687 0.368-0.361 0.435-0.417 0.637-0.538 0.073-0.043 0.214-0.154 0.317-0.247 0.157-0.142 0.218-0.181 0.39-0.257 0.49-0.212 0.57-0.295 0.813-0.834 0.346-0.764 0.389-0.826 0.934-1.334 0.514-0.479 0.749-0.762 0.983-1.186 0.064-0.116 0.172-0.299 0.242-0.406 0.148-0.228 0.2-0.327 0.268-0.506 0.019-0.059 0.045-0.109 0.078-0.155l-0.001 0.002c0.028-0.022 0.176-0.417 0.25-0.67 0.067-0.226 0.161-0.655 0.227-1.039 0.043-0.253 0.093-0.451 0.172-0.694 0.083-0.253 0.122-0.413 0.152-0.621 0.045-0.315 0.099-0.576 0.173-0.853 0.051-0.187 0.051-0.187-0.011-0.417-0.040-0.126-0.063-0.272-0.063-0.423 0-0.020 0-0.041 0.001-0.061v0.003c-0.001-0.283-0.024-0.363-0.173-0.608-0.080-0.13-0.080-0.131-0.086-0.064-0.008 0.084-0.055 0.086-0.073 0.003-0.029-0.147-0.008-0.349 0.088-0.836 0.172-0.868 0.175-0.749-0.049-1.586-0.289-1.080-0.523-1.751-0.612-1.751-0.015 0-0.027-0.007-0.027-0.016s-0.045-0.078-0.103-0.151c-0.12-0.154-0.136-0.22-0.102-0.427 0.020-0.127 0.018-0.162-0.009-0.239-0.064-0.177-0.073-0.216-0.11-0.559-0.044-0.392-0.034-0.367-0.248-0.66-0.11-0.15-0.159-0.235-0.159-0.275q0-0.056-0.064-0.117c-0.084-0.101-0.167-0.214-0.243-0.332l-0.009-0.014c-0.112-0.169-0.222-0.314-0.34-0.453l0.005 0.006c-0.163-0.178-0.408-0.535-0.416-0.607-0.005-0.053-0.458-0.728-0.647-0.966q-0.172-0.216-0.172-0.348c0-0.123-0.168-0.307-0.633-0.693-0.305-0.253-0.309-0.256-0.319-0.2-0.015 0.091-0.049 0.080-0.131-0.045-0.15-0.222-0.253-0.369-0.359-0.515l0.044 0.064-0.337-0.479c-0.416-0.608-0.521-0.708-0.748-0.723-0.213-0.013-1.095-0.281-1.28-0.39-0.081-0.053-0.151-0.107-0.217-0.166l0.002 0.002c-0.119-0.102-0.255-0.212-0.394-0.318l-0.024-0.018c-0.185-0.142-0.347-0.279-0.502-0.422l0.005 0.005c-0.236-0.223-0.41-0.322-1.204-0.681-0.511-0.232-0.47-0.223-1.245-0.277-0.694-0.047-0.819-0.068-1.042-0.172-0.301-0.14-0.953-0.21-1.079-0.116-0.068 0.048-0.152 0.076-0.243 0.076-0.034 0-0.066-0.004-0.098-0.011l0.003 0.001c-0.029-0.006-0.075-0.013-0.122-0.019l-0.013-0.001c-0.008 0-0.028-0.027-0.045-0.059-0.047-0.091-0.057-0.093-0.913-0.093-0.81 0-0.81 0-1.064-0.059-0.37-0.086-0.443-0.086-0.639-0.005zM7.023 6.347c0.2 0.195 0.799 0.821 0.964 1.007 0.077 0.087 0.25 0.254 0.385 0.37 0.134 0.118 0.327 0.289 0.427 0.381 0.263 0.242 0.599 0.535 0.998 0.873 0.193 0.162 0.439 0.392 0.548 0.511 0.364 0.397 0.742 0.763 1.142 1.104l0.018 0.015c0.49 0.418 2.124 2.025 2.341 2.3 0.161 0.205 0.243 0.283 0.338 0.323 0.042 0.018 0.076 0.042 0.076 0.054s0.023 0.051 0.051 0.087c0.027 0.036 0.051 0.089 0.052 0.115q0.002 0.142 0.141 0.209c0.253 0.121-0.083 0.349-0.365 0.249-0.117-0.042-0.468-0.306-0.64-0.481-0.399-0.401-0.821-0.777-1.266-1.126l-0.030-0.022c-0.393-0.298-0.519-0.415-1.089-1.010-0.298-0.311-0.763-0.795-1.035-1.074-0.216-0.218-0.424-0.446-0.621-0.682l-0.014-0.017c-0.135-0.169-0.277-0.32-0.432-0.458l-0.004-0.003c-0.119-0.106-0.229-0.212-0.334-0.322l-0.002-0.002c-0.097-0.113-0.189-0.214-0.284-0.313l0.002 0.002c-0.105-0.107-0.201-0.222-0.287-0.345l-0.006-0.009c-0.131-0.249-0.222-0.399-0.299-0.49q-0.139-0.167-0.113-0.253c0.018-0.056-0.036-0.125-0.169-0.216-0.2-0.136-0.349-0.309-0.349-0.405 0-0.074-0.015-0.097-0.192-0.283-0.212-0.223-0.215-0.227-0.142-0.227 0.036 0 0.093 0.041 0.191 0.136zM8.692 6.431c0.052 0.036 0.144 0.076 0.219 0.093 0.24 0.056 0.735 0.383 1.245 0.821 0.145 0.124 0.399 0.341 0.567 0.481s0.304 0.26 0.304 0.27c0 0.024 0.513 0.413 0.891 0.675 0.191 0.132 0.408 0.29 0.486 0.355s0.225 0.169 0.325 0.233c0.201 0.129 0.276 0.189 0.681 0.547 0.966 0.857 1.467 1.27 1.732 1.428 0.22 0.132 0.42 0.285 0.861 0.66 0.383 0.325 0.829 0.685 0.956 0.771 0.048 0.033 0.178 0.124 0.29 0.204s0.352 0.229 0.536 0.332c0.363 0.202 0.374 0.209 0.628 0.396 0.095 0.070 0.245 0.172 0.335 0.226s0.208 0.134 0.263 0.177 0.17 0.109 0.254 0.147c0.102 0.046 0.189 0.106 0.263 0.179v0c0.096 0.095 0.161 0.132 0.486 0.279 0.534 0.241 0.612 0.299 0.793 0.576 0.13 0.2 0.131 0.448 0.001 0.363-0.308-0.2-0.563-0.232-0.723-0.091q-0.197 0.172-0.54-0.034c-0.061-0.040-0.13-0.073-0.204-0.098l-0.006-0.002c-0.451-0.068-0.517-0.061-0.83 0.094-0.197 0.098-0.457 0.030-0.755-0.196-0.050-0.044-0.108-0.082-0.171-0.111l-0.004-0.002c-0.015 0-0.121-0.086-0.233-0.191-0.086-0.082-0.178-0.163-0.272-0.241l-0.009-0.007c-0.117-0.086-0.449-0.372-0.785-0.674-0.174-0.157-0.399-0.356-0.625-0.553l-0.065-0.055c-0.39-0.332-0.74-0.65-1.079-0.979l0.005 0.005c-0.331-0.321-0.677-0.639-1.032-0.947l-0.031-0.027c-0.24-0.212-0.444-0.397-0.646-0.584l0.019 0.018c-0.184-0.171-0.388-0.356-0.596-0.538l-0.033-0.029c-0.458-0.4-0.666-0.603-0.862-0.842-0.106-0.127-0.215-0.242-0.331-0.349l-0.002-0.002c-0.091-0.082-0.253-0.254-0.362-0.383s-0.28-0.323-0.379-0.43c-0.084-0.086-0.16-0.18-0.226-0.282l-0.004-0.007c-0.078-0.152-0.224-0.315-0.428-0.479-0.112-0.083-0.207-0.182-0.285-0.293l-0.003-0.004q-0.095-0.142-0.552-0.584c-0.494-0.477-0.53-0.651-0.067-0.318zM6.441 7.999c0.275 0.298 0.572 0.65 0.704 0.835 0.108 0.152 0.23 0.289 0.378 0.427 0.121 0.112 0.407 0.39 0.635 0.62 0.304 0.303 0.478 0.46 0.641 0.575 0.388 0.276 0.937 0.795 1.405 1.328 0.152 0.172 0.345 0.387 0.429 0.476 0.145 0.153 0.469 0.609 0.564 0.794 0.073 0.145 0.138 0.859 0.067 0.757-0.127-0.187-1.035-1.107-1.652-1.679-0.183-0.166-0.35-0.341-0.506-0.525l-0.007-0.008c-0.122-0.148-0.247-0.281-0.379-0.406l-0.002-0.002c-0.253-0.229-0.307-0.29-0.465-0.535-0.098-0.149-0.193-0.276-0.294-0.398l0.006 0.008c-0.085-0.103-0.175-0.219-0.261-0.339l-0.013-0.019c-0.082-0.117-0.156-0.214-0.234-0.308l0.008 0.010c-0.141-0.169-0.231-0.313-0.258-0.412-0.015-0.059-0.053-0.108-0.102-0.138l-0.001-0.001c-0.136-0.094-0.218-0.203-0.332-0.441-0.061-0.139-0.139-0.258-0.233-0.363l0.001 0.001c-0.045-0.045-0.086-0.093-0.122-0.145l-0.002-0.003c-0.011-0.025-0.024-0.046-0.040-0.066v0c-0.087-0.111-0.032-0.145 0.064-0.041zM6.875 9.588c0.097 0.046 0.223 0.194 0.342 0.401 0.254 0.445 0.782 1.15 1.364 1.82 0.1 0.114 0.272 0.331 0.383 0.481s0.29 0.375 0.399 0.497c0.13 0.146 0.25 0.31 0.349 0.478 0.084 0.141 0.278 0.425 0.431 0.631s0.381 0.545 0.508 0.753c0.412 0.683 0.976 1.401 1.643 2.090 0.14 0.145 0.442 0.482 0.672 0.75 0.693 0.808 0.886 0.993 1.192 1.145 0.445 0.222 0.627 0.368 0.716 0.57 0.027 0.063 0.060 0.12 0.073 0.127q0.071 0.045-0.087 0.134-0.168 0.095-0.115 0.148c0.013 0.013 0.066-0.025 0.152-0.109 0.136-0.131 0.181-0.147 0.126-0.046-0.034 0.058-0.068 0.128-0.097 0.2l-0.004 0.012c-0.054 0.139-0.094 0.15-0.505 0.142-0.488-0.008-0.584-0.066-0.901-0.551-0.085-0.13-0.17-0.242-0.262-0.349l0.003 0.004c-0.056-0.060-0.107-0.126-0.149-0.198l-0.003-0.005c-0.061-0.095-0.128-0.177-0.202-0.252v0c-0.086-0.090-0.298-0.336-0.471-0.547-0.294-0.354-0.551-0.65-0.813-0.943l0.027 0.030c-0.73-0.815-1.112-1.282-1.561-1.912-0.146-0.206-0.29-0.385-0.442-0.555l0.005 0.006c-0.154-0.163-0.192-0.218-0.219-0.309-0.024-0.084-0.067-0.148-0.185-0.281-0.174-0.19-0.323-0.406-0.441-0.642l-0.007-0.016c-0.14-0.289-0.313-0.538-0.52-0.754l0.001 0.001c-0.121-0.114-0.155-0.16-0.167-0.222-0.018-0.097-0.067-0.18-0.215-0.362-0.134-0.169-0.258-0.358-0.364-0.558l-0.010-0.020c-0.159-0.296-0.337-0.552-0.539-0.786l0.005 0.005c-0.171-0.178-0.379-0.444-0.446-0.567-0.131-0.243 0.103-0.553 0.335-0.443zM16.089 10.044c0.024 0.013 0.094 0.074 0.156 0.136 0.099 0.103 0.732 0.611 0.76 0.611 0.006 0 0.172 0.123 0.367 0.272 0.196 0.152 0.427 0.318 0.512 0.371s0.283 0.181 0.439 0.287c0.964 0.649 1.257 0.843 1.793 1.188 0.387 0.248 0.684 0.456 0.841 0.587 0.133 0.113 0.324 0.261 0.423 0.331 0.354 0.251 1.037 0.884 1.523 1.409 0.137 0.149 0.33 0.33 0.445 0.418 0.671 0.517 1.499 1.661 1.724 2.378 0.095 0.307 0.213 1.067 0.164 1.067-0.024 0-0.12-0.189-0.216-0.427-0.201-0.497-0.474-0.864-0.969-1.301-0.369-0.327-0.445-0.399-0.601-0.576-0.1-0.11-0.203-0.212-0.312-0.307l-0.004-0.004c-0.154-0.121-0.286-0.262-0.395-0.419l-0.004-0.006c-0.096-0.123-0.19-0.232-0.289-0.336l0.002 0.002c-0.205-0.211-0.304-0.343-0.304-0.404 0-0.191-0.635-0.741-1.197-1.035-0.166-0.079-0.309-0.178-0.434-0.296l0.001 0.001c-0.102-0.095-0.211-0.188-0.324-0.275l-0.011-0.008c-0.181-0.141-0.331-0.264-0.478-0.391l0.017 0.014c-0.16-0.137-0.337-0.276-0.52-0.408l-0.024-0.017c-0.154-0.107-0.284-0.206-0.41-0.31l0.011 0.009c-0.096-0.081-0.21-0.172-0.326-0.261l-0.024-0.018c-0.105-0.077-0.197-0.156-0.284-0.24l0.001 0.001c-0.045-0.047-0.29-0.28-0.547-0.517s-0.585-0.543-0.73-0.679c-0.145-0.135-0.318-0.288-0.386-0.338-0.281-0.218-0.374-0.298-0.433-0.381-0.095-0.132-0.074-0.191 0.045-0.128zM6.385 11.475c0.045 0.053 0.247 0.26 0.448 0.461 0.265 0.263 0.436 0.455 0.614 0.69 0.136 0.178 0.333 0.417 0.437 0.531s0.22 0.258 0.255 0.32 0.111 0.165 0.166 0.229c0.056 0.064 0.184 0.238 0.285 0.388 0.137 0.205 0.239 0.327 0.401 0.486 0.12 0.118 0.236 0.25 0.259 0.294 0.071 0.142 0.459 0.601 0.684 0.81 0.12 0.111 0.301 0.302 0.404 0.426 0.203 0.243 0.652 0.688 1.035 1.025 0.14 0.123 0.322 0.311 0.432 0.445 0.103 0.128 0.236 0.282 0.294 0.344 0.145 0.154 0.255 0.31 0.279 0.395 0.028 0.103 0.169 0.257 0.281 0.308 0.116 0.052 0.142 0.093 0.142 0.225 0 0.319-0.524 0.254-0.939-0.114-0.514-0.456-0.57-0.531-0.832-1.095-0.236-0.51-0.339-0.659-0.711-1.025-0.309-0.303-0.345-0.349-0.815-1.013-0.393-0.555-0.46-0.637-0.869-1.064-0.46-0.481-0.555-0.602-0.696-0.88-0.083-0.164-0.182-0.304-0.299-0.428l0.001 0.001c-0.106-0.123-0.207-0.259-0.299-0.401l-0.009-0.014c-0.077-0.126-0.158-0.235-0.249-0.336l0.002 0.002c-0.069-0.070-0.132-0.146-0.189-0.227l-0.004-0.006c-0.050-0.076-0.101-0.142-0.156-0.204l0.002 0.002c-0.066-0.082-0.134-0.175-0.198-0.271l-0.008-0.014c-0.055-0.088-0.118-0.164-0.19-0.231l-0.001-0.001c-0.129-0.095-0.165-0.154-0.095-0.154 0.041 0 0.076 0.025 0.136 0.097zM12.291 14.002c0.030 0.016 0.091 0.073 0.135 0.127s0.13 0.152 0.191 0.22c0.063 0.067 0.226 0.272 0.363 0.456 0.317 0.423 0.481 0.62 0.762 0.913 0.123 0.129 0.299 0.327 0.389 0.439s0.245 0.295 0.343 0.406 0.232 0.279 0.299 0.372c0.334 0.475 0.472 0.633 0.756 0.875 0.078 0.066 0.080 0.082 0.018 0.122-0.044 0.029-0.048 0.045-0.047 0.2 0.003 0.417-0.236 0.499-0.73 0.257-0.305-0.15-0.481-0.386-0.788-1.053-0.091-0.201-0.177-0.365-0.271-0.523l0.014 0.025c-0.062-0.099-0.163-0.266-0.225-0.372-0.163-0.244-0.318-0.452-0.482-0.652l0.011 0.014c-0.646-0.808-0.868-1.155-0.932-1.46-0.073-0.342-0.007-0.467 0.191-0.366zM15.13 14.596q0.070 0.036 0.132 0.146c0.113 0.204 0.673 0.67 0.806 0.67 0.139 0 0.217 0.13 0.218 0.359 0 0.106 0 0.106 0.197 0.107 0.26 0 0.363 0.166 0.224 0.362-0.291 0.411-0.493 0.528-0.885 0.512-0.094-0.005-0.348-0.253-0.52-0.509-0.137-0.193-0.267-0.358-0.404-0.517l0.008 0.010c-0.438-0.515-0.572-0.8-0.43-0.922 0.301-0.261 0.461-0.315 0.653-0.218zM6.815 15.214c0.023 0.025 0.069 0.087 0.103 0.136 0.034 0.051 0.187 0.233 0.339 0.406s0.388 0.46 0.522 0.639c0.34 0.45 0.436 0.564 0.765 0.923 0.158 0.172 0.384 0.432 0.501 0.577 0.321 0.397 0.732 0.839 1.479 1.591 0.817 0.825 1.604 1.613 2.394 2.398l0.021 0.021c0.227 0.224 0.509 0.517 0.627 0.651s0.283 0.316 0.368 0.406c0.085 0.089 0.222 0.253 0.304 0.365 0.223 0.306 0.32 0.413 0.982 1.086 0.335 0.341 0.677 0.692 0.761 0.78 0.281 0.296 0.528 0.424 0.8 0.417 0.153-0.004 0.254 0.004 0.323 0.024 0.079 0.024 0.106 0.024 0.13 0.005 0.059-0.049 0.457-0.032 0.515 0.023 0.119 0.112 0.236 0.497 0.171 0.563-0.009 0.009-0.073-0.005-0.142-0.031 0.122 0.028-0.098-0.049-0.319-0.125l-0.344-0.103c-1.016-0.345-1.246-0.45-1.501-0.692-0.089-0.087-0.189-0.164-0.297-0.229l-0.007-0.004c-0.258-0.137-0.477-0.276-0.685-0.43l0.015 0.011c-0.297-0.236-0.703-0.607-0.805-0.735-0.113-0.133-0.222-0.253-0.336-0.368l0.001 0.001c-0.116-0.115-0.221-0.241-0.312-0.376l-0.006-0.009c-0.184-0.311-0.671-0.844-1.055-1.159-0.1-0.082-0.236-0.22-0.303-0.306-0.098-0.12-0.202-0.227-0.314-0.325l-0.003-0.003c-0.134-0.123-0.258-0.25-0.375-0.384l-0.005-0.006c-0.1-0.119-0.292-0.34-0.427-0.492s-0.269-0.309-0.299-0.35c-0.065-0.071-0.135-0.136-0.21-0.193l-0.004-0.003c-0.276-0.229-0.516-0.488-0.719-0.775l-0.008-0.012c-0.128-0.181-0.25-0.337-0.379-0.487l0.007 0.008c-0.284-0.325-0.358-0.419-0.372-0.48-0.048-0.103-0.099-0.192-0.157-0.275l0.004 0.006c-0.059-0.089-0.124-0.198-0.185-0.31l-0.012-0.024c-0.166-0.293-0.34-0.545-0.534-0.781l0.008 0.009c-0.183-0.231-0.362-0.491-0.523-0.762l-0.018-0.033c-0.044-0.073-0.163-0.218-0.265-0.324-0.236-0.243-0.292-0.327-0.292-0.428 0-0.090 0.016-0.097 0.074-0.033zM20.922 16.123c0.275 0.048 0.338 0.070 0.521 0.178 0.078 0.045 0.201 0.103 0.274 0.126 0.264 0.086 0.397 0.172 0.551 0.356 0.172 0.207 0.312 0.315 0.489 0.379 0.172 0.064 0.435 0.248 0.556 0.394 0.174 0.209 0.559 0.592 0.788 0.786 0.26 0.22 0.322 0.299 0.354 0.454 0.034 0.177 0.075 0.292 0.222 0.639 0.188 0.444 0.195 0.503 0.067 0.603-0.122 0.096-0.127 0.415-0.011 0.687 0.1 0.232 0.097 0.221 0.126 0.817 0.012 0.257 0.034 0.583 0.051 0.724 0.041 0.356 0.036 0.49-0.019 0.741-0.027 0.119-0.054 0.267-0.064 0.328-0.057 0.436-0.49 1.142-0.861 1.4-0.050 0.034-0.163 0.134-0.253 0.221-0.124 0.113-0.259 0.22-0.401 0.317l-0.013 0.008c-0.372 0.248-0.517 0.396-0.66 0.666-0.127 0.245-0.158 0.272-0.403 0.376-0.105 0.046-0.194 0.096-0.278 0.152l0.007-0.004c-0.27 0.185-0.218 0.176-1.1 0.183s-0.878 0.008-1.045-0.138c-0.077-0.066-0.166-0.121-0.263-0.161l-0.007-0.002c-0.315-0.13-0.512-0.268-0.854-0.597-0.444-0.427-0.735-0.559-1.308-0.593-0.412-0.024-0.525-0.086-0.877-0.476-0.176-0.185-0.318-0.403-0.417-0.644l-0.005-0.014c-0.146-0.371-0.28-0.601-0.432-0.744-0.054-0.053-0.063-0.073-0.064-0.172 0-0.001 0-0.002 0-0.004 0-0.057-0.011-0.112-0.030-0.163l0.001 0.003q-0.030-0.051-0.030-0.25c0-0.175-0.009-0.218-0.069-0.375-0.035-0.087-0.064-0.19-0.081-0.296l-0.001-0.008c-0.013-0.141-0.024-0.168-0.13-0.324-0.082-0.12-0.116-0.368-0.114-0.816 0-0.277 0.024-0.319 0.346-0.656 0.329-0.342 0.348-0.381 0.372-0.763 0.022-0.334 0.030-0.37 0.234-0.994 0.082-0.252 0.16-0.52 0.172-0.594 0.029-0.186 0.099-0.275 0.212-0.275 0.1 0 0.252-0.055 0.369-0.134 0.073-0.049 0.136-0.089 0.139-0.089s0.073-0.045 0.156-0.1c0.24-0.158 0.474-0.275 0.729-0.365 0.131-0.045 0.311-0.115 0.401-0.154 0.254-0.109 0.383-0.134 0.75-0.15 0.396-0.016 0.418-0.024 0.738-0.263 0.387-0.29 0.572-0.327 1.162-0.222zM10.363 17.641c0.059 0.073 0.181 0.234 0.271 0.36 0.378 0.527 1.192 1.3 1.913 1.815 0.472 0.338 1.25 1.036 1.381 1.243 0.082 0.127 0.121 0.142 0.251 0.095 0.127-0.045 0.182-0.014 0.268 0.154 0.332 0.66-0.193 1.183-0.59 0.588-0.167-0.251-0.308-0.421-0.613-0.741-0.241-0.253-0.479-0.521-0.706-0.798l-0.020-0.025c-0.045-0.065-0.089-0.139-0.128-0.216l-0.005-0.011c-0.073-0.142-0.109-0.188-0.259-0.318-0.123-0.111-0.236-0.225-0.343-0.345l-0.004-0.004c-0.274-0.311-0.537-0.594-0.81-0.868l0.001 0.001c-0.113-0.109-0.144-0.154-0.18-0.259-0.036-0.107-0.073-0.16-0.248-0.348-0.221-0.237-0.388-0.477-0.325-0.465 0.056 0.038 0.104 0.083 0.142 0.136l0.001 0.002z"></path>
</svg>
