<!-- Generated by IcoMoon.io -->
<svg version="1.1" xmlns="http://www.w3.org/2000/svg" width="32" height="32" viewBox="0 0 32 32">
<path d="M14.335 1.457c-0.179 0.063-0.388 0.159-0.428 0.198-0.013 0.013-0.031 0.022-0.050 0.025h-0.001c-0.048 0-0.152 0.111-0.169 0.181-0.024 0.097-0.309 0.251-0.381 0.205-0.037-0.025-0.077-0.021-0.309 0.026-0.17 0.034-0.295 0.049-0.343 0.041-0.076-0.012-0.358 0.024-0.378 0.048-0.087 0.026-0.195 0.050-0.306 0.067l-0.015 0.002c-0.767 0.139-1.055 0.196-1.074 0.214-0.035 0.013-0.076 0.020-0.118 0.020-0.012 0-0.024-0.001-0.035-0.002h0.001c-0.13 0-0.197 0.014-0.506 0.107q-0.236 0.071-0.236 0.15c0 0.033 0.069 0.022 0.165-0.025 0.064-0.032 0.091-0.009 0.040 0.034-0.162 0.14-0.419 0.285-0.434 0.245-0.021-0.053-0.137-0.033-0.248 0.042-0.034 0.024-0.072 0.047-0.113 0.067l-0.005 0.002c-0.007 0-0.1 0.061-0.206 0.135-0.61 0.424-0.627 0.434-0.932 0.519-0.334 0.094-0.883 0.415-1.101 0.644-0.094 0.1-0.42 0.52-0.42 0.543 0 0.056-0.066 0.083-0.101 0.041-0.059-0.073-0.274 0.171-0.421 0.477-0.321 0.672-0.786 1.245-1.276 1.575-0.054 0.036-0.122 0.091-0.151 0.119-0.033 0.033-0.070 0.063-0.108 0.091l-0.003 0.002c-0.054 0.036-0.18 0.16-0.26 0.254-0.061 0.073-0.151 0.314-0.212 0.574-0.027 0.125-0.054 0.225-0.085 0.322l0.007-0.026c-0.009 0.022-0.033 0.105-0.052 0.186s-0.043 0.145-0.054 0.145-0.014-0.025-0.006-0.060c0.022-0.095-0.023-0.073-0.082 0.043-0.056 0.102-0.109 0.187-0.166 0.269l0.006-0.009c-0.060 0.087-0.109 0.165-0.109 0.174-0.030 0.052-0.062 0.096-0.097 0.137l0.001-0.001c-0.053 0.065-0.127 0.164-0.163 0.22-0.038 0.054-0.074 0.104-0.082 0.111-0.076 0.099-0.149 0.21-0.213 0.326l-0.007 0.014c0 0.011-0.009 0.021-0.020 0.021s-0.020 0.014-0.020 0.031c0 0.016-0.013 0.035-0.028 0.041-0.044 0.017-0.083 0.147-0.174 0.571-0.037 0.189-0.075 0.341-0.119 0.49l0.010-0.039c-0.014 0.033-0.064 0.186-0.112 0.341-0.116 0.386-0.114 0.381-0.149 0.351-0.068-0.056-0.124 0.298-0.142 0.893-0.016 0.559-0.032 0.66-0.129 0.851s-0.091 0.163-0.162 0.603c-0.1 0.604-0.216 0.986-0.396 1.291-0.207 0.354-0.233 0.735-0.097 1.441 0.11 0.575 0.261 1.2 0.323 1.336 0.015 0.033 0.046 0.109 0.069 0.167s0.103 0.2 0.179 0.312c0.189 0.281 0.2 0.302 0.145 0.289-0.044-0.012-0.058 0.021-0.024 0.056 0.080 0.084 0.099 0.349 0.039 0.564-0.056 0.207-0.024 0.49 0.054 0.461 0.017-0.007 0.027 0.041 0.036 0.164 0.025 0.319 0.054 0.57 0.073 0.604 0.009 0.018 0.036 0.123 0.061 0.233 0.048 0.221 0.167 0.628 0.211 0.723 0.042 0.088 0.27 0.726 0.27 0.751 0 0.012 0.008 0.022 0.017 0.022s0.028 0.038 0.042 0.084c0.040 0.133 0.204 0.497 0.224 0.497 0.010 0 0.018 0.009 0.018 0.019 0 0.023 0.202 0.36 0.27 0.452 0.025 0.034 0.068 0.102 0.095 0.152s0.113 0.185 0.191 0.301c0.076 0.116 0.157 0.242 0.178 0.281 0.018 0.031 0.035 0.057 0.053 0.083l-0.002-0.003c0.006 0.005 0.060 0.082 0.119 0.171 0.106 0.159 0.357 0.427 0.469 0.503 0.037 0.026 0.070 0.053 0.1 0.084v0c0.022 0.025 0.053 0.045 0.067 0.045s0.026 0.009 0.026 0.021 0.020 0.028 0.045 0.038c0.143 0.057 0.609 0.495 0.739 0.694 0.129 0.198 0.318 0.403 0.625 0.68 0.132 0.122 0.326 0.3 0.521 0.477l0.076 0.068 0.212 0.192c0.054 0.051 0.245 0.218 0.422 0.369s0.341 0.298 0.366 0.323c0.054 0.055 0.378 0.31 0.395 0.31 0.013 0 0.214 0.139 0.233 0.161 0.021 0.023 0.385 0.201 0.411 0.201 0.015 0 0.031 0.008 0.034 0.018 0.016 0.043 0.363 0.127 0.676 0.163 0.501 0.060 0.535 0.074 1.005 0.412q0.069 0.049 0.148 0.049c0.084 0 0.201 0.057 0.417 0.201 0.118 0.079 0.388 0.221 0.42 0.221 0.011 0 0.068 0.021 0.127 0.048 0.057 0.026 0.172 0.067 0.256 0.091 0.242 0.071 0.526 0.163 0.593 0.191l0.2 0.093c0.103 0.047 0.197 0.073 0.345 0.091 0.112 0.015 0.284 0.054 0.381 0.087 0.751 0.256 1.365 0.298 1.762 0.119 0.138-0.062 0.138-0.062 0.29-0.032 0.156 0.030 0.821-0.025 1.027-0.084 0.068-0.020 0.832-0.113 1.647-0.202 0.215-0.024 0.409-0.050 0.431-0.059 0.049-0.015 0.108-0.025 0.167-0.031h0.003c0.164-0.015 0.492-0.073 0.942-0.162 0.192-0.038 0.388-0.069 0.436-0.069s0.092-0.009 0.099-0.020 0.039-0.020 0.073-0.020c0.086 0 0.31-0.103 0.576-0.265 0.126-0.076 0.27-0.16 0.321-0.186 0.054-0.028 0.1-0.057 0.144-0.091l-0.002 0.002c0.018-0.018 0.040-0.033 0.064-0.042h0.001c0.009 0 0.082-0.041 0.162-0.091 0.157-0.097 0.172-0.101 0.266-0.067 0.054 0.020 0.078 0.015 0.207-0.051 0.208-0.104 0.477-0.185 0.878-0.263 0.236-0.045 0.318-0.070 0.412-0.124 0.103-0.059 0.2-0.144 0.201-0.175 0-0.012 0.041-0.064 0.091-0.118 0.124-0.132 0.113-0.243-0.012-0.123-0.032 0.031-0.064 0.051-0.070 0.045-0.018-0.018 0.095-0.232 0.133-0.25 0.019-0.009 0.088-0.064 0.152-0.122s0.225-0.198 0.358-0.31 0.408-0.368 0.613-0.568c0.34-0.335 0.718-0.633 0.8-0.633 0.050-0.036 0.093-0.078 0.13-0.125l0.001-0.001c0.114-0.13 0.139-0.145 0.506-0.318s0.511-0.309 0.63-0.594c0.258-0.617 0.523-1.068 0.756-1.282 0.156-0.143 0.807-0.79 0.842-0.837 0.204-0.268 0.266-0.356 0.354-0.508 0.057-0.1 0.119-0.209 0.136-0.241 0.013-0.025 0.029-0.047 0.047-0.066v0q0.015-0.008 0.015-0.027c0-0.009 0.054-0.1 0.12-0.198 0.145-0.218 0.168-0.26 0.234-0.446 0.029-0.081 0.070-0.185 0.091-0.232 0.152-0.338 0.329-1.004 0.439-1.661 0.031-0.201 0.072-0.377 0.126-0.548l-0.007 0.026c0.103-0.263 0.18-0.563 0.212-0.833 0.018-0.15 0.040-0.28 0.049-0.291 0.014-0.029 0.024-0.063 0.029-0.098v-0.002c0.008-0.045 0.043-0.201 0.077-0.347 0.063-0.266 0.063-0.266 0.005-0.492-0.035-0.111-0.056-0.239-0.056-0.372 0-0.019 0-0.038 0.001-0.057v0.003c0.005-0.198-0.026-0.432-0.056-0.432-0.009 0-0.025-0.029-0.038-0.064-0.062-0.179-0.202-0.342-0.202-0.236 0 0.118-0.049 0.051-0.062-0.084-0.011-0.125 0.016-0.399 0.042-0.42 0.007-0.005 0.034-0.123 0.059-0.261 0.132-0.713 0.143-0.794 0.131-0.903-0.016-0.149-0.172-0.792-0.192-0.8-0.009-0.004-0.017-0.019-0.017-0.035 0-0.042-0.236-0.904-0.26-0.946-0.020-0.045-0.042-0.104-0.060-0.164l-0.003-0.013c-0.052-0.168-0.196-0.499-0.221-0.508-0.009-0.004-0.018-0.018-0.018-0.033-0.028-0.061-0.061-0.114-0.101-0.162l0.001 0.001c-0.118-0.161-0.132-0.218-0.103-0.429 0.023-0.166 0.011-0.249-0.046-0.336-0.034-0.053-0.057-0.192-0.093-0.572-0.027-0.29-0.016-0.264-0.233-0.554-0.122-0.163-0.167-0.238-0.167-0.282-0.002-0.044-0.022-0.082-0.052-0.109v0c-0.057-0.065-0.111-0.136-0.16-0.212l-0.004-0.007c-0.201-0.304-0.338-0.49-0.443-0.604-0.037-0.037-0.071-0.078-0.101-0.121l-0.002-0.003c-0.027-0.050-0.056-0.092-0.088-0.132l0.001 0.002c-0.047-0.062-0.097-0.136-0.145-0.212l-0.009-0.015c-0.14-0.224-0.408-0.633-0.43-0.652-0.038-0.047-0.075-0.1-0.11-0.154l-0.004-0.007c-0.060-0.090-0.118-0.168-0.18-0.242l0.004 0.004c-0.086-0.088-0.147-0.201-0.17-0.327l-0.001-0.004c-0.027-0.174-0.142-0.303-0.645-0.725-0.322-0.27-0.305-0.26-0.331-0.191-0.028 0.074-0.038 0.067-0.201-0.172-0.083-0.122-0.215-0.309-0.293-0.417-0.048-0.062-0.135-0.185-0.221-0.308l-0.045-0.067c-0.197-0.286-0.282-0.401-0.304-0.408-0.012-0.004-0.021-0.018-0.021-0.034s-0.006-0.030-0.015-0.034c-0.032-0.033-0.062-0.069-0.089-0.107l-0.002-0.003c-0.088-0.122-0.1-0.128-0.295-0.141-0.15-0.017-0.286-0.048-0.416-0.091l0.014 0.004-0.52-0.162c-0.324-0.1-0.459-0.18-0.714-0.419-0.050-0.043-0.106-0.086-0.164-0.125l-0.006-0.004c-0.067-0.044-0.125-0.088-0.179-0.135l0.002 0.002c-0.022-0.023-0.048-0.043-0.076-0.060l-0.002-0.001c-0.021 0-0.318-0.26-0.436-0.38-0.105-0.107-0.163-0.143-0.543-0.33-1.057-0.523-0.996-0.503-1.664-0.544-0.279-0.017-0.552-0.040-0.607-0.050-0.044-0.009-0.132-0.023-0.22-0.035l-0.038-0.004c-0.109-0.018-0.207-0.045-0.299-0.083l0.009 0.003c-0.062-0.028-0.143-0.059-0.227-0.086l-0.019-0.005c-0.057-0.015-0.105-0.033-0.152-0.055l0.006 0.002c-0.1-0.054-0.691-0.047-0.756 0.009-0.075 0.063-0.17 0.083-0.312 0.066-0.141-0.017-0.162-0.026-0.188-0.084-0.043-0.093-0.082-0.097-0.947-0.099-0.862-0.002-0.847 0-1.296-0.11-0.118-0.030-0.163-0.024-0.341 0.037zM14.769 5.014c0.283 0.057 0.318 0.077 0.318 0.189 0 0.071 0.016 0.113 0.086 0.216 0.049 0.070 0.124 0.205 0.17 0.3s0.095 0.186 0.113 0.203 0.063 0.106 0.1 0.199c0.136 0.335 0.153 0.363 0.28 0.484 0.069 0.065 0.145 0.133 0.172 0.151 0.172 0.116 0.377 0.593 0.463 1.079 0.044 0.246 0.084 0.404 0.13 0.502 0.025 0.054 0.082 0.2 0.122 0.321 0.043 0.122 0.084 0.23 0.094 0.24s0.017 0.036 0.017 0.055c0 0.020 0.007 0.036 0.017 0.036s0.033 0.041 0.052 0.091c0.109 0.283 0.532 0.209 0.534-0.096 0-0.046 0.009-0.122 0.020-0.165s0.029-0.189 0.040-0.321c0.022-0.259 0.103-0.637 0.139-0.649 0.012-0.004 0.022-0.020 0.022-0.035 0-0.055 0.123-0.23 0.172-0.241 0.224-0.056 0.407 0.49 0.299 0.896-0.029 0.111-0.033 0.181-0.020 0.481 0.018 0.463 0.018 0.461 0.255 0.535 0.363 0.113 0.447 0.249 0.451 0.73 0.006 0.647 0.193 0.957 0.529 0.877 0.074-0.018 0.147-0.033 0.162-0.033 0.067 0 0.541-0.544 0.541-0.622 0-0.010 0.023-0.036 0.050-0.058s0.050-0.048 0.050-0.060c0-0.011 0.007-0.024 0.015-0.027 0.026-0.033 0.048-0.071 0.064-0.112l0.001-0.003c0.073-0.156 0.243-0.333 0.304-0.315 0.026 0.008 0.081 0.019 0.122 0.025 0.157 0.024 0.215 0.301 0.091 0.433-0.020 0.025-0.038 0.052-0.053 0.082l-0.001 0.003c-0.048 0.070-0.098 0.131-0.154 0.187v0c-0.128 0.146-0.243 0.309-0.339 0.483l-0.007 0.014c-0.007 0.014-0.017 0.026-0.030 0.034v0c-0.043 0.027-0.041 0.361 0.003 0.459l0.096 0.225c0.055 0.134 0.125 0.215 0.186 0.215 0.061 0.019 0.113 0.044 0.162 0.073l-0.003-0.002c0.171 0.095 0.21 0.092 0.663-0.061 0.113-0.037 0.244-0.096 0.29-0.131l0.187-0.133c0.055-0.039 0.187-0.136 0.291-0.214l0.274-0.205c0.125-0.093 0.63-0.645 0.721-0.789 0.027-0.048 0.058-0.089 0.094-0.125v0c0.009 0 0.015-0.014 0.015-0.030s0.016-0.038 0.036-0.048c0.031-0.024 0.056-0.055 0.074-0.089l0.001-0.002c0.022-0.040 0.045-0.073 0.054-0.073s0.015-0.012 0.015-0.025 0.095-0.143 0.211-0.287c0.132-0.161 0.286-0.357 0.437-0.557l0.034-0.047c0.042-0.053 0.26 0.016 0.334 0.106 0.069 0.084 0.069 0.084-0.034 0.281-0.075 0.152-0.148 0.279-0.229 0.401l0.008-0.014c-0.037 0.056-0.083 0.132-0.126 0.209l-0.012 0.023c-0.036 0.066-0.109 0.183-0.16 0.26-0.034 0.050-0.074 0.114-0.112 0.18l-0.009 0.017c-0.041 0.064-0.084 0.12-0.132 0.171l0.001-0.001c-0.484 0.538-0.558 0.719-0.471 1.143 0.052 0.25 0.384 0.589 0.578 0.589 0.022 0 0.091 0.027 0.154 0.060 0.181 0.095 0.631 0.068 0.802-0.049 0.044-0.029 0.14-0.071 0.215-0.094 0.085-0.027 0.159-0.064 0.225-0.111l-0.003 0.002c0.031-0.028 0.067-0.052 0.107-0.068l0.002-0.001c0.046-0.019 0.087-0.042 0.123-0.069l-0.001 0.001c0.054-0.037 0.145-0.092 0.202-0.121 0.040-0.018 0.075-0.040 0.105-0.068v0c0.002-0.077 0.283-0.103 0.454-0.041 0.261 0.093 0.181 1.037-0.114 1.372-0.254 0.287-0.612 0.604-0.841 0.744-0.164 0.101-0.307 0.21-0.437 0.334l0.001-0.001c-0.094 0.088-0.476 0.298-0.543 0.298-0.077 0.021-0.145 0.053-0.204 0.096l0.002-0.001c-0.025 0.020-0.052 0.040-0.081 0.058l-0.004 0.002c-0.054 0.031-0.301 0.485-0.301 0.55 0 0.010-0.008 0.018-0.018 0.018v0c-0.009 0-0.040 0.057-0.068 0.126s-0.106 0.242-0.175 0.385c-0.066 0.134-0.134 0.299-0.193 0.47l-0.010 0.032c-0.041 0.133-0.074 0.227-0.109 0.32l0.012-0.037c-0.017 0.037-0.161 0.492-0.206 0.653-0.020 0.073-0.031 0.1-0.084 0.221-0.016 0.039-0.040 0.127-0.051 0.195-0.007 0.054-0.018 0.103-0.033 0.15l0.002-0.006c-0.006 0.009-0.044 0.13-0.083 0.266s-0.089 0.299-0.111 0.363c-0.034 0.103-0.039 0.172-0.039 0.626 0 0.564-0.010 0.53 0.179 0.584 0.027 0.008 0.067 0.034 0.091 0.058 0.039 0.035 0.082 0.067 0.128 0.095l0.004 0.002c0.397 0.231 0.708 0.932 0.472 1.064-0.134 0.075-0.211 0.475-0.142 0.741 0.028 0.109 0.125 0.338 0.152 0.358 0.103 0.183 0.199 0.335 0.303 0.481l-0.011-0.016c0.103 0.151 0.188 0.282 0.188 0.292s0.018 0.036 0.039 0.060c0.103 0.11 0.242 0.481 0.242 0.644 0 0.289-0.218 0.421-0.762 0.466-0.747 0.060-1.026 0.172-1.225 0.494-0.097 0.155-0.167 0.718-0.11 0.876 0.047 0.128 0.045 0.139-0.025 0.18-0.218 0.123-0.739 0.129-0.999 0.011-0.249-0.113-0.509-0.248-0.546-0.283-0.029-0.028-0.062-0.052-0.097-0.071l-0.002-0.001c-0.109-0.063-0.195-0.118-0.279-0.175l0.016 0.010c-0.666-0.441-1.178-0.617-1.454-0.499-0.091 0.039-0.237 0.182-0.237 0.234 0 0.016-0.008 0.030-0.017 0.030-0.149 0-0.145 0.869 0.005 1.111 0.015 0.024 0.053 0.109 0.082 0.191 0.031 0.080 0.107 0.225 0.17 0.321 0.363 0.553 0.398 0.676 0.237 0.842-0.131 0.136-0.532 0.177-0.935 0.096-0.214-0.043-0.175-0.014-0.657-0.481-0.125-0.124-0.259-0.238-0.401-0.343l-0.010-0.007c-0.172-0.132-0.324-0.262-0.468-0.401l0.002 0.002c-0.165-0.158-0.312-0.287-0.327-0.287-0.015-0.002-0.028-0.011-0.034-0.024v0c-0.036-0.038-0.078-0.069-0.124-0.093l-0.003-0.001c-0.188-0.112-0.307-0.187-0.425-0.263l0.060 0.037c-0.086-0.060-0.187-0.119-0.29-0.173l-0.015-0.007c-0.033-0.011-0.060-0.027-0.060-0.035 0-0.121-1.214-0.115-1.568 0.007-0.194 0.070-0.438 0.14-0.688 0.195l-0.042 0.008c-0.12 0.026-0.214 0.051-0.307 0.079l0.026-0.007c-0.084 0.034-0.294 0.058-0.672 0.076-0.331 0.016-0.42 0.027-0.572 0.073l-0.261 0.075c-0.035 0.007-0.065 0.020-0.093 0.038l0.001-0.001c-0.006 0.009-0.105 0.027-0.221 0.038s-0.297 0.031-0.404 0.044c-0.388 0.044-0.872-0.014-1.186-0.142-0.080-0.035-0.192-0.076-0.306-0.113l-0.032-0.009c-0.535-0.163-0.492-0.895 0.064-1.083 0.735-0.249 0.98-1.006 0.381-1.18-0.064-0.018-0.115-0.034-0.165-0.053l0.012 0.004c-0.107-0.025-0.247-0.049-0.389-0.066l-0.022-0.002c-1.005-0.138-1.071-0.166-1.369-0.574-0.17-0.234-0.163-0.312 0.043-0.512 0.256-0.248 0.323-0.306 0.385-0.336 0.372-0.176 0.417-0.78 0.069-0.898-0.067-0.022-0.126-0.052-0.179-0.089l0.002 0.001c-0.077-0.071-0.182-0.113-0.361-0.142-0.091-0.015-0.19-0.036-0.218-0.047-0.118-0.023-0.256-0.038-0.396-0.043h-0.005c-0.14-0.005-0.272-0.020-0.402-0.044l0.017 0.003c-0.027-0.011-0.059-0.017-0.092-0.018v0c-0.074-0.018-0.14-0.050-0.197-0.092l0.001 0.001c-0.060-0.041-0.129-0.076-0.203-0.1l-0.006-0.002c-0.135-0.023-0.195-0.050-0.262-0.119-0.037-0.037-0.081-0.068-0.13-0.090l-0.003-0.001c-0.141-0.046-0.227-0.272-0.149-0.39 0.050-0.068 0.093-0.146 0.126-0.23l0.003-0.007c0.060-0.137 0.097-0.158 0.351-0.194 0.093-0.014 0.191-0.033 0.219-0.044s0.174-0.027 0.324-0.036c0.358-0.024 0.332-0.005 0.336-0.227 0-0.103 0.015-0.241 0.034-0.307 0.253-0.958 0.271-1.287 0.125-2.249-0.027-0.176-0.057-0.402-0.068-0.502-0.024-0.233-0.069-0.388-0.228-0.793-0.073-0.181-0.156-0.403-0.187-0.49-0.057-0.161-0.057-0.161-0.522-0.623-0.447-0.447-0.549-0.563-0.62-0.713-0.029-0.054-0.061-0.1-0.099-0.142l0.001 0.001c-0.078-0.084-0.105-0.141-0.166-0.342-0.031-0.102-0.065-0.188-0.105-0.27l0.005 0.011c-0.069-0.136-0.073-0.254-0.009-0.307 0.051-0.041 0.098-0.036 0.36 0.036 0.093 0.025 0.247 0.061 0.341 0.078q0.171 0.032 0.301 0.103c0.072 0.039 0.198 0.103 0.281 0.142s0.279 0.135 0.437 0.214c0.791 0.396 0.88 0.014 0.175-0.758l-0.236-0.263c-0.2-0.227-0.263-0.295-0.337-0.359-0.122-0.114-0.232-0.237-0.331-0.369l-0.005-0.007c-0.064-0.080-0.133-0.151-0.208-0.215l-0.002-0.002c-0.225-0.183-0.291-0.365-0.176-0.481 0.098-0.097 0.595 0.156 0.819 0.417 0.218 0.253 0.499 0.456 0.717 0.516 0.12 0.033 0.193 0.060 0.25 0.092l0.189 0.1c0.087 0.046 0.218 0.124 0.29 0.174 0.193 0.133 0.454 0.257 0.656 0.314 0.218 0.061 0.593 0.191 0.626 0.219 0.17 0.134 0.53-0.027 0.626-0.281 0.084-0.218 0.018-0.945-0.099-1.098-0.022-0.050-0.042-0.111-0.057-0.173l-0.002-0.008c-0.065-0.238-0.137-0.438-0.222-0.631l0.011 0.029c-0.030-0.059-0.063-0.135-0.094-0.213l-0.006-0.019c-0.072-0.186-0.156-0.345-0.255-0.494l0.006 0.009c-0.031-0.049-0.072-0.119-0.111-0.19l-0.012-0.024c-0.020-0.041-0.042-0.076-0.067-0.109l0.001 0.002c-0.031-0.040-0.064-0.085-0.094-0.131l-0.004-0.007c-0.069-0.099-0.133-0.183-0.201-0.264l0.005 0.006c-0.25-0.3-0.493-0.726-0.536-0.943-0.007-0.034-0.022-0.064-0.032-0.064s-0.015-0.038-0.013-0.085c0.014-0.192 0.359-0.103 0.639 0.166 0.061 0.058 0.182 0.169 0.271 0.246s0.168 0.154 0.178 0.171c0.010 0.017 0.045 0.059 0.078 0.093s0.082 0.091 0.109 0.127c0.092 0.118 0.275 0.133 0.378 0.031 0.047-0.048 0.068-0.134 0.035-0.149-0.009-0.005-0.064-0.064-0.122-0.132s-0.123-0.123-0.196-0.169l-0.004-0.002q-0.203-0.103-0.319-0.412c-0.14-0.372-0.103-0.486 0.13-0.399 0.042 0.016 0.099 0.034 0.127 0.040 0.084 0.020 0.434 0.296 0.554 0.439 0.129 0.152 0.107 0.144 0.449 0.173 1.065 0.092 1.786 0.010 2.383-0.27 0.058-0.027 0.193-0.076 0.301-0.11s0.224-0.073 0.258-0.088c0.034-0.015 0.076-0.029 0.119-0.039l0.006-0.001c0.036-0.007 0.065-0.021 0.065-0.029s0.043-0.036 0.095-0.062c0.218-0.107 0.2-0.044 0.212-0.698 0.006-0.318 0.021-0.618 0.033-0.668 0.014-0.062 0.028-0.144 0.039-0.227l0.001-0.013c0.056-0.452 0.088-0.518 0.303-0.632 0.252-0.133 0.617-0.166 0.987-0.091zM18.554 5.836c0.224 0.109 0.362 0.605 0.231 0.834-0.017 0.034-0.031 0.073-0.042 0.114l-0.001 0.004c-0.041 0.16-0.224 0.351-0.336 0.351-0.025 0-0.045 0.009-0.045 0.020 0 0.072-0.268-0.024-0.352-0.124-0.419-0.497 0.016-1.456 0.544-1.2zM25.377 6.559c-0.276-0.242-0.745 0.846-0.493 1.143 0.093 0.109 0.401-0.096 0.497-0.331 0.021-0.050 0.044-0.091 0.051-0.091 0.024 0 0.063-0.229 0.063-0.374-0.002-0.183-0.031-0.271-0.118-0.348zM21.473 7.544c-0.331-0.076-0.624 0.135-0.744 0.535-0.014 0.046-0.032 0.085-0.040 0.085s-0.019 0.024-0.024 0.055l-0.073 0.336c-0.098 0.437-0.076 0.574 0.107 0.681 0.255 0.15 0.57 0.041 0.624-0.216v-0.002c0.008-0.035 0.023-0.067 0.043-0.094 0.071-0.082 0.279-0.503 0.368-0.744 0.124-0.342 0.031-0.57-0.261-0.637zM6.444 8.107c0.011 0 0.083-0.006 0.161-0.014 0.3-0.027 0.584 0.156 0.776 0.496 0.024 0.043 0.052 0.078 0.061 0.078s0.016 0.013 0.016 0.028 0.067 0.145 0.149 0.289c0.143 0.25 0.373 0.722 0.373 0.766 0 0.012 0.009 0.022 0.020 0.022s0.025 0.024 0.034 0.054c0.007 0.031 0.039 0.113 0.070 0.181 0.1 0.222 0.129 0.411 0.079 0.505-0.015 0.032-0.025 0.069-0.030 0.107v0.002c-0.014 0.111-0.107 0.169-0.139 0.086-0.006-0.018-0.054-0.031-0.131-0.036-0.167-0.012-0.24-0.071-0.311-0.252-0.038-0.098-0.069-0.146-0.104-0.162-0.181-0.082-0.35-0.29-0.35-0.43 0-0.084-0.46-0.502-0.707-0.643-0.594-0.339-0.735-0.641-0.453-0.963 0.094-0.108 0.179-0.139 0.336-0.125zM10.389 8.673c-0.001-0.020 0.007-0.025 0.035-0.014l-0.011-0.001c0.098 0.014 0.198 0.021 0.3 0.021 0.009 0 0.019 0 0.027 0h0.005c0.162 0.003 0.322 0.013 0.456 0.028l-0.008-0.001c0.065 0.009 0.132 0.014 0.2 0.014 0.031 0 0.063-0.001 0.089-0.003 0.234-0.029 0.507 0.206 0.352 0.302-0.012 0.007-0.021 0.028-0.021 0.046 0 0.061-0.133 0.369-0.245 0.572-0.116 0.208-0.264 0.103-0.921-0.659-0.095-0.11-0.192-0.217-0.216-0.239s-0.043-0.051-0.043-0.067zM13.232 9.219c0.27-0.263 0.276-0.263 0.293 0.012 0.059 0.981 0.050 1.116-0.102 1.405-0.075 0.143-0.819 0.241-0.912 0.121v0c-0.022-0.023-0.048-0.043-0.078-0.058-0.219-0.113-0.327-0.275-0.251-0.378 0.042-0.055 0.075-0.108 0.075-0.116 0-0.057 0.638-0.736 0.714-0.761 0.024-0.006 0.141-0.108 0.26-0.224zM14.816 12.381c-0.365 0.061-0.81 0.331-0.917 0.557-0.022 0.054-0.052 0.101-0.089 0.141v0c-0.016 0.007-0.027 0.021-0.028 0.039v0c-0.005 0.028-0.015 0.053-0.029 0.074v-0.001c-0.043 0.066-0.052 0.916-0.010 1.028 0.043 0.118 0.040 0.726-0.004 0.864-0.064 0.198-0.162 0.431-0.18 0.431-0.010 0-0.018 0.008-0.018 0.017s-0.048 0.067-0.106 0.128l-0.266 0.283c-0.088 0.095-0.172 0.172-0.184 0.172-0.014 0.002-0.032 0.014-0.041 0.029-0.084 0.142-0.417 0.479-0.598 0.605-0.379 0.263-0.605 0.481-0.702 0.672-0.014 0.031-0.031 0.057-0.050 0.081l0.001-0.001c-0.163 0.121-0.233 1.443-0.096 1.812 0.146 0.392 0.229 0.445 0.659 0.422 0.181-0.009 0.254-0.005 0.331 0.020 0.054 0.017 0.14 0.038 0.191 0.045 0.243 0.036 0.442 0.279 0.517 0.628 0.018 0.084 0.040 0.157 0.048 0.161s0.016 0.024 0.016 0.044c0 0.020 0.021 0.099 0.048 0.173s0.076 0.227 0.112 0.338c0.172 0.54 0.604 0.433 1.012-0.25 0.145-0.244 0.214-0.281 0.523-0.281 0.263 0 0.3 0.012 0.383 0.12 0.022 0.027 0.069 0.080 0.105 0.114s0.066 0.073 0.066 0.084 0.007 0.024 0.016 0.027c0.064 0.024 0.163 0.419 0.163 0.639 0 0.157 0.034 0.354 0.067 0.395 0.125 0.152 0.199 0.187 0.396 0.187 0.11 0 0.18-0.029 0.236-0.1 0.045-0.056 0.175-0.341 0.197-0.433 0.027-0.113 0.090-0.21 0.167-0.259 0.053-0.038 0.1-0.080 0.14-0.128l0.001-0.001c0.041-0.051 0.094-0.091 0.155-0.114l0.003-0.001c0.144-0.053 0.322-0.126 0.457-0.188 0.067-0.031 0.162-0.064 0.211-0.071 0.12-0.020 0.139-0.040 0.139-0.145 0-0.098 0.036-0.266 0.064-0.296 0.012-0.039 0.019-0.083 0.019-0.129 0-0.008 0-0.015-0.001-0.023v0.001c0.001-0.451 0.047-0.62 0.18-0.658 0.050-0.015 0.131-0.045 0.181-0.070 0.073-0.036 0.14-0.046 0.343-0.054 0.332-0.015 0.335-0.018 0.459-0.441 0.109-0.368 0.040-0.685-0.148-0.685-0.044-0.014-0.082-0.034-0.115-0.060l0.001 0.001c-0.078-0.054-0.105-0.060-0.24-0.060-0.094 0-0.162-0.010-0.177-0.025-0.018-0.018-0.17-0.028-0.558-0.036-0.88-0.015-1.388-0.795-0.723-1.111 0.142-0.067 0.726-0.060 0.768 0.009 0.015 0.025 0.731 0.024 0.731-0.002 0-0.011 0.019-0.020 0.043-0.020 0.151 0 0.319-0.293 0.319-0.555 0-0.036 0.009-0.070 0.021-0.077 0.024-0.015 0.027-0.505 0.002-0.52-0.009-0.006-0.023-0.048-0.030-0.094-0.035-0.216-0.348-0.52-0.535-0.52-0.048 0-0.367-0.098-0.379-0.116-0.029-0.021-0.063-0.038-0.099-0.050l-0.003-0.001c-0.408-0.156-0.492-0.401-0.456-1.349 0.028-0.768 0.011-0.85-0.198-0.955-0.066-0.032-0.114-0.058-0.162-0.085l0.013 0.007c-0.135-0.086-0.15-0.088-0.823-0.102-0.614-0.012-0.658-0.015-0.743-0.056-0.037-0.020-0.079-0.035-0.124-0.044h-0.003c-0.031 0-0.035-0.010-0.024-0.054l0.017-0.074c0.012-0.064-0.399-0.097-0.66-0.054zM14.045 16.205c0.117 0.024 0.218 0.083 0.294 0.166v0c0.074 0.076 0.082 0.1 0.092 0.318 0.012 0.243 0.054 0.29 0.283 0.305 0.195 0.013 0.24-0.013 0.256-0.144 0.007-0.063 0.020-0.121 0.037-0.176l-0.002 0.006c0.012-0.037 0.020-0.079 0.023-0.124v-0.002c0-0.054 0.045-0.096 0.106-0.096 0.041 0 0.089 0.112 0.116 0.271q0.077 0.45 0.308-0.057c0.1-0.22 0.143-0.212 0.143 0.027 0 0.185 0.022 0.334 0.051 0.352 0.010 0.006 0.018 0.036 0.018 0.065 0 0.101 0.139 0.281 0.314 0.41 0.408 0.299 0.554 0.862 0.175 0.679-0.495-0.24-0.552-0.25-0.779-0.139-0.13 0.064-0.144 0.076-0.206 0.197-0.036 0.071-0.086 0.152-0.113 0.181-0.041 0.048-0.084 0.101-0.125 0.156l-0.005 0.007c-0.307 0.408-0.517 0.324-0.365-0.145 0.207-0.635-0.030-1.085-0.49-0.928-0.143 0.048-0.675 0.034-0.786-0.022-0.159-0.080-0.19-0.159-0.191-0.487 0-0.251-0.005-0.286-0.034-0.286-0.087 0 0.039-0.392 0.145-0.451 0.018-0.009 0.034-0.020 0.048-0.034v0c0.053-0.068 0.478-0.099 0.685-0.050zM22.146 16.454v0c0.032-0.036 0.070-0.068 0.113-0.096 0.036 0 0.018 0.585-0.024 0.783-0.023 0.105-0.064 0.312-0.091 0.461-0.102 0.554-0.231 0.847-0.49 1.107-0.277 0.279-0.315 0.289-0.349 0.082v-0.003c-0.006-0.055-0.020-0.108-0.038-0.153-0.024-0.023-0.018-0.398 0.007-0.505l0.006-0.031c0.069-0.283 0.165-0.556 0.272-0.788l0.087-0.193 0.002-0.006c0.031-0.067 0.071-0.13 0.116-0.185l-0.006 0.007c0.061-0.073 0.12-0.147 0.185-0.236 0.061-0.082 0.154-0.193 0.208-0.245zM8.75 16.704c-0.017-0.073 0.043-0.055 0.113 0.034 0.154 0.194 0.463 0.678 0.463 0.725 0 0.010 0.009 0.019 0.018 0.019s0.035 0.044 0.058 0.096c0.175 0.412 0.204 0.79 0.073 0.947-0.089 0.105-0.127 0.067-0.24-0.229-0.024-0.067-0.091-0.212-0.145-0.323-0.123-0.244-0.149-0.321-0.205-0.592-0.024-0.116-0.052-0.23-0.061-0.251s-0.027-0.116-0.040-0.211c-0.013-0.094-0.027-0.191-0.034-0.216zM7.516 16.918c0.096-0.077 0.3-0.020 0.305 0.086l0.001 0.009c0.006 0.043 0.013 0.086 0.020 0.117 0.021 0.104 0.061 0.817 0.067 1.205v0.003c0.002 0.121 0.009 0.241 0.021 0.342 0.016 0.124 0.016 0.124-0.062 0.137-0.043 0.007-0.132 0.026-0.197 0.042-0.14 0.034-0.125 0.043-0.163-0.103-0.016-0.064-0.044-0.145-0.061-0.18-0.072-0.152-0.013-1.593 0.069-1.659zM24.123 20.857c-0.397-0.092-0.613 0.278-0.336 0.571v0c0.030 0.027 0.055 0.060 0.076 0.098 0 0.278 1.024 0.766 1.325 0.631 0.55-0.246 0.249-0.914-0.489-1.084-0.191-0.044-0.294-0.079-0.376-0.128l0.004 0.002c-0.062-0.037-0.128-0.067-0.205-0.090z"></path>
</svg>
