<!-- Generated by IcoMoon.io -->
<svg version="1.1" xmlns="http://www.w3.org/2000/svg" width="32" height="32" viewBox="0 0 32 32">
<path d="M14.444 18.663c-0.016-0.1-0.135-0.192-0.133-0.292z"></path>
<path d="M11.287 9.191c-0.063-0-0.11-0.013-0.171-0.024-0.092-0.016-0.197-0.002-0.291-0.002-0.11 0-0.221-0.006-0.331-0.002-0.071 0.002-0.136 0.024-0.204 0.038-0.094 0.019-0.191 0.030-0.286 0.048-0.406 0.075-0.757 0.347-1.057 0.617-0.16 0.144-0.314 0.29-0.483 0.424-0.237 0.187-0.439 0.394-0.644 0.614-0.139 0.149-0.287 0.298-0.407 0.463s-0.275 0.29-0.399 0.449c-0.058 0.074-0.103 0.158-0.156 0.236-0.078 0.114-0.176 0.218-0.268 0.32-0.063 0.070-0.133 0.132-0.195 0.202-0.092 0.103-0.169 0.219-0.255 0.326-0.236 0.293-0.402 0.634-0.503 0.995-0.098 0.347-0.204 0.696-0.344 1.028-0.065 0.154-0.156 0.297-0.213 0.454-0.065 0.181-0.109 0.364-0.159 0.549-0.047 0.17-0.104 0.318-0.18 0.478-0.085 0.179-0.145 0.347-0.192 0.54-0.045 0.186-0.045 0.372-0.078 0.559-0.038 0.213-0.084 0.43-0.108 0.645-0.034 0.306-0.080 0.621-0.031 0.926 0.018 0.112 0.007 0.222 0.026 0.334 0.016 0.088 0.008 0.174 0.027 0.263 0.024 0.118-0 0.246 0.004 0.366 0.004 0.089 0.026 0.175 0.029 0.264 0.003 0.098-0.001 0.198-0.001 0.295-0.001 0.257 0.055 0.508 0.053 0.764-0.001 0.109-0.012 0.226 0.005 0.334 0.019 0.127 0.068 0.246 0.094 0.372 0.078 0.382 0.151 0.774 0.299 1.136 0.058 0.143 0.131 0.289 0.206 0.423s0.166 0.261 0.247 0.393c0.058 0.096 0.132 0.19 0.21 0.271 0.095 0.099 0.158 0.208 0.239 0.318 0.037 0.050 0.079 0.097 0.118 0.146 0.017 0.021 0.021 0.048 0.041 0.068 0.023 0.023 0.052 0.026 0.075 0.050 0.013 0.014 0.016 0.041 0.031 0.056 0.024 0.024 0.058 0.026 0.082 0.050 0.020 0.020 0.022 0.048 0.041 0.069 0.026 0.028 0.059 0.037 0.084 0.064 0.032 0.033 0.059 0.095 0.086 0.135 0.031 0.046 0.069 0.092 0.106 0.133 0.091 0.101 0.19 0.199 0.276 0.305 0.070 0.087 0.158 0.164 0.229 0.252 0.068 0.085 0.156 0.152 0.217 0.238 0.121 0.166 0.22 0.368 0.377 0.495 0.086 0.069 0.189 0.114 0.28 0.176 0.086 0.058 0.156 0.127 0.238 0.186 0.036 0.026 0.091 0.048 0.133 0.066 0.034 0.015 0.076 0.020 0.108 0.038 0.028 0.016 0.048 0.043 0.078 0.059 0.14 0.073 0.283 0.14 0.427 0.209 0.21 0.1 0.426 0.171 0.637 0.265 0.193 0.086 0.389 0.156 0.582 0.24 0.181 0.078 0.369 0.153 0.557 0.212 0.048 0.015 0.098 0.032 0.146 0.050 0.051 0.018 0.095 0.016 0.146 0.029 0.095 0.024 0.19 0.021 0.291 0.021 0.063-0 0.102 0.007 0.161 0.021 0.053 0.012 0.106-0.001 0.159 0.012 0.119 0.029 0.251 0.025 0.377 0.021 0.078-0.002 0.146-0.028 0.226-0.027 0.062 0.001 0.124-0 0.186-0 0.154 0 0.298 0.026 0.452 0.027 0.094 0 0.206-0.018 0.298-0.001 0.054 0.010 0.088 0.029 0.146 0.028 0.061-0.001 0.102 0.019 0.159 0.028 0.046 0.007 0.1-0.001 0.146-0.001 0.052-0 0.084 0.008 0.133 0.020 0.074 0.020 0.226 0.027 0.293-0.013 0.027-0.016 0.050-0.044 0.072-0.067 0.028-0.029 0.048-0.034 0.080-0.052 0.093-0.055 0.186-0.075 0.298-0.074 0.052 0.001 0.084-0.019 0.133-0.028 0.018-0.003 0.036 0.004 0.054 0.002 0.027-0.003 0.039-0.017 0.058-0.021 0.088-0.020 0.194-0.006 0.286-0.006 0.042 0 0.092-0.009 0.133-0.001 0.054 0.010 0.088 0.028 0.146 0.028 0.116-0.001 0.215-0.027 0.332-0.026 0.044 0 0.088-0 0.132 0 0.067 0 0.1-0.017 0.16-0.028 0.094-0.017 0.192-0.011 0.286-0.031 0.018-0.004 0.033-0.018 0.058-0.021 0.016-0.002 0.037 0 0.054 0.001 0.051 0 0.11 0.009 0.159-0.005 0.089-0.026 0.158-0.1 0.244-0.122 0.091-0.023 0.121-0.054 0.159-0.138 0.041-0.092 0.111-0.117 0.2-0.138 0.011-0.003 0.045-0.017 0.059-0.021 0.012-0.003 0.041-0.010 0.053-0.013 0.043-0.011 0.084-0.014 0.133-0.013 0.017 0 0.038 0.003 0.054 0.001 0.025-0.004 0.040-0.017 0.058-0.021 0.048-0.010 0.099 0.001 0.147-0.012 0.082-0.022 0.172-0.074 0.246-0.12 0.037-0.022 0.072-0.054 0.106-0.080 0.042-0.032 0.082-0.041 0.125-0.065 0.097-0.053 0.16-0.156 0.186-0.259 0.012-0.046 0.003-0.092 0.012-0.138 0.012-0.060 0.033-0.116 0.022-0.18-0.014-0.079-0.041-0.198-0.086-0.266-0.098-0.145-0.192-0.291-0.3-0.434-0.058-0.078-0.127-0.203-0.208-0.256-0.145-0.094-0.203 0.088-0.284 0.16-0.058 0.051-0.132 0.086-0.195 0.133-0.060 0.044-0.115 0.093-0.179 0.133-0.092 0.057-0.19 0.103-0.282 0.16-0.088 0.054-0.168 0.11-0.27 0.136-0.096 0.024-0.194 0.019-0.288 0.054-0.055 0.020-0.109 0.053-0.158 0.083-0.138 0.085-0.268 0.12-0.43 0.107-0.202-0.016-0.414-0.019-0.612-0.061-0.192-0.041-0.389-0.042-0.582-0.080-0.161-0.031-0.323-0.063-0.485-0.088-0.159-0.024-0.304 0.017-0.464 0.010-0.17-0.007-0.335-0.043-0.5-0.082-0.187-0.044-0.381-0.064-0.57-0.098-0.167-0.030-0.32-0.082-0.477-0.141-0.148-0.055-0.287-0.061-0.425-0.144-0.123-0.074-0.235-0.125-0.371-0.173-0.046-0.016-0.090-0.039-0.136-0.055-0.113-0.040-0.225-0.011-0.34-0.028-0.284-0.042-0.56-0.179-0.823-0.287-0.301-0.124-0.581-0.294-0.85-0.477-0.231-0.157-0.434-0.341-0.636-0.533-0.148-0.141-0.332-0.247-0.432-0.43-0.050-0.091-0.075-0.187-0.106-0.285-0.036-0.112-0.040-0.232-0.072-0.344-0.037-0.127-0.052-0.253-0.1-0.379-0.023-0.061-0.050-0.114-0.080-0.173-0.046-0.090-0.101-0.136-0.167-0.212-0.052-0.061-0.104-0.114-0.158-0.172-0.052-0.055-0.104-0.1-0.159-0.153-0.051-0.049-0.086-0.105-0.13-0.159-0.086-0.103-0.196-0.184-0.278-0.29-0.082-0.105-0.142-0.22-0.149-0.353-0.003-0.058 0.005-0.116 0.001-0.174-0.004-0.068-0.028-0.12-0.027-0.192 0.001-0.069-0.008-0.113-0.021-0.18-0.011-0.055 0.003-0.11-0.005-0.165-0.010-0.071-0.028-0.125-0.028-0.199 0-0.086-0.008-0.154-0.024-0.236-0.013-0.066 0.004-0.135-0.008-0.202-0.012-0.063-0.030-0.128-0.041-0.193-0.022-0.13 0.011-0.248 0.047-0.37 0.028-0.095 0.076-0.189 0.1-0.286 0.026-0.106 0.032-0.207 0.032-0.318v-0.298c0-0.050-0.004-0.103-0-0.153 0.004-0.057 0.030-0.105 0.047-0.159 0.030-0.098 0.087-0.194 0.11-0.292 0.024-0.108 0.074-0.22 0.128-0.318 0.056-0.1 0.132-0.188 0.192-0.285 0.067-0.108 0.157-0.186 0.207-0.306 0.043-0.101 0.060-0.21 0.105-0.311 0.040-0.090 0.080-0.173 0.114-0.265 0.035-0.097 0.068-0.193 0.099-0.292 0.014-0.045 0.022-0.089 0.032-0.133 0.007-0.029 0.024-0.051 0.029-0.080 0.004-0.026-0.007-0.054-0.003-0.080 0.015-0.090 0.048-0.196 0.1-0.271 0.027-0.039 0.060-0.068 0.093-0.1 0.045-0.042 0.082-0.086 0.125-0.128 0.042-0.040 0.088-0.066 0.129-0.113 0.021-0.025 0.041-0.054 0.064-0.078 0.075-0.081 0.148-0.134 0.247-0.186 0.086-0.045 0.163-0.096 0.252-0.139 0.081-0.040 0.168-0.075 0.237-0.132 0.074-0.060 0.124-0.135 0.192-0.2 0.076-0.072 0.222-0.109 0.324-0.114 0.107-0.006 0.209-0.002 0.307-0.045 0.090-0.040 0.165-0.108 0.265-0.114 0.043-0.002 0.091-0.004 0.133 0.007 0.052 0.014 0.091 0.013 0.146 0.020 0.060 0.007 0.11 0.028 0.173 0.027 0.053-0.001 0.106 0.001 0.158 0 0.082-0.001 0.142 0.032 0.212 0.072 0.054 0.032 0.086 0.065 0.127 0.114 0.045 0.054 0.111 0.079 0.166 0.133 0.155 0.153 0.395 0.149 0.578 0.244 0.042 0.022 0.057 0.044 0.112 0.048 0.056 0.004 0.081-0.019 0.133-0.028 0.044-0.008 0.088 0.007 0.133-0.004 0.057-0.015 0.1-0.017 0.159-0.020 0.098-0.005 0.175-0.046 0.265-0.074 0.095-0.029 0.176-0.052 0.265-0.092 0.041-0.018 0.088-0.057 0.127-0.081 0.036-0.022 0.074-0.046 0.106-0.073 0.073-0.062 0.139-0.143 0.198-0.213 0.064-0.076 0.116-0.14 0.152-0.238 0.017-0.045 0.021-0.087 0.032-0.133 0.006-0.024 0.018-0.041 0.022-0.066 0.004-0.030-0.006-0.062-0.002-0.092 0.008-0.061 0.026-0.104 0.027-0.166 0.001-0.049 0.013-0.109 0.026-0.155 0.026-0.088 0.086-0.179 0.174-0.222 0.094-0.046 0.124-0.084 0.172-0.175 0.050-0.096 0.027-0.228 0.027-0.339 0-0.095-0.002-0.182 0.021-0.271 0.030-0.122 0.059-0.249 0.088-0.372 0.027-0.114 0.071-0.239 0.123-0.346 0.049-0.101 0.074-0.213 0.113-0.318 0.089-0.241 0.221-0.449 0.418-0.61 0.209-0.17 0.468-0.218 0.716-0.312 0.118-0.045 0.241-0.093 0.362-0.127 0.111-0.031 0.223-0.038 0.335-0.064 0.088-0.021 0.18-0.055 0.264-0.080 0.094-0.027 0.216-0.109 0.273-0.186 0.137-0.182-0.067-0.348-0.172-0.478-0.118-0.146-0.377-0.219-0.551-0.272-0.097-0.029-0.197-0.063-0.292-0.1-0.097-0.037-0.199-0.038-0.298-0.072-0.244-0.084-0.475-0.22-0.701-0.341-0.070-0.038-0.121-0.080-0.196-0.11-0.053-0.021-0.105-0.044-0.158-0.066-0.138-0.057-0.28-0.084-0.425-0.106-0.29-0.043-0.576-0.154-0.87-0.153-0.057 0-0.115 0.005-0.171-0.006-0.072-0.015-0.133-0.011-0.206-0.019-0.076-0.008-0.132-0.029-0.211-0.028-0.102 0.001-0.194-0.029-0.294-0.027-0.148 0.003-0.288-0.035-0.44-0.024-0.144 0.011-0.282 0.073-0.424 0.080-0.092 0.004-0.184-0.004-0.276-0.003-0.097 0.002-0.196 0.016-0.292 0.033-0.115 0.020-0.252 0.038-0.363 0.075-0.211 0.070-0.404 0.256-0.573 0.397-0.209 0.174-0.426 0.311-0.684 0.398z"></path>
<path d="M23.235 8.961c-0.008-0.009-0.022-0.022-0.038-0.036 0.045 0.009 0.086 0.014 0.1 0.015l-0.039 0.046c-0.008-0.008-0.016-0.016-0.024-0.025zM25.639 10.041c-0.062-0.156-0.108-0.317-0.192-0.464-0.077-0.135-0.15-0.273-0.236-0.402-0.078-0.118-0.166-0.233-0.268-0.33-0.050-0.048-0.094-0.101-0.152-0.138s-0.119-0.075-0.179-0.113c-0.167-0.105-0.342-0.205-0.519-0.294-0.089-0.045-0.168-0.104-0.26-0.144-0.068-0.030-0.139-0.047-0.206-0.079-0.088-0.043-0.182-0.062-0.269-0.11-0.072-0.041-0.145-0.082-0.212-0.13-0.137-0.098-0.291-0.169-0.428-0.267-0.112-0.079-0.224-0.142-0.33-0.23-0.058-0.048-0.123-0.073-0.178-0.123-0.050-0.046-0.107-0.078-0.161-0.12-0.102-0.079-0.212-0.15-0.316-0.227-0.042-0.032-0.082-0.066-0.124-0.098-0.048-0.036-0.101-0.056-0.151-0.088-0.059-0.039-0.106-0.086-0.176-0.109-0.058-0.019-0.12-0.031-0.179-0.050-0.056-0.018-0.099-0.029-0.146-0.061s-0.091-0.046-0.142-0.064c-0.119-0.042-0.22-0.1-0.323-0.17-0.048-0.032-0.107-0.051-0.162-0.063-0.067-0.015-0.124-0.042-0.189-0.062-1.96 0.071-3.93 0.442-5.852 0.954-0.592 0.197-1.183 0.404-1.741 0.661-0.403 0.186-0.774 0.419-1.144 0.654 0.020 0.001 0.041 0.002 0.060 0.004 0.070 0.006 0.152 0.042 0.218 0.066 0.083 0.031 0.168 0.065 0.255 0.082 0.128 0.025 0.244 0.083 0.363 0.141 0.066 0.032 0.124 0.062 0.193 0.073 0.047 0.008 0.092 0.001 0.138 0.009 0.041 0.007 0.078 0.024 0.121 0.029 0.097 0.013 0.182 0.039 0.275 0.067 0.086 0.026 0.166 0.072 0.255 0.088 0.1 0.018 0.203 0.015 0.304 0.028 0.108 0.014 0.196 0.053 0.297 0.088 0.204 0.070 0.408 0.154 0.618 0.216 0.092 0.027 0.194 0.049 0.29 0.061 0.054 0.007 0.099 0.021 0.152 0.033 0.047 0.011 0.102 0.004 0.148 0.018 0.080 0.024 0.152 0.072 0.231 0.105 0.076 0.031 0.165 0.036 0.244 0.056 0.097 0.024 0.178 0.077 0.246 0.146 0.020 0.020 0.035 0.053 0.057 0.076 0.026 0.027 0.052 0.059 0.082 0.085 0.037 0.033 0.081 0.056 0.116 0.090s0.033 0.046 0.057 0.091c0.025 0.046 0.052 0.064 0.069 0.116 0.013 0.039 0.022 0.090 0.042 0.126 0.025 0.045 0.070 0.072 0.075 0.13 0.003 0.035-0.004 0.059 0.003 0.095 0.017 0.084 0.031 0.15 0.054 0.235 0.027 0.1-0.011 0.205 0.063 0.288 0.042 0.047 0.085 0.087 0.129 0.13 0.053 0.053 0.117 0.064 0.178 0.107 0.026 0.018 0.043 0.056 0.067 0.076 0.028 0.024 0.066 0.042 0.094 0.066 0.12 0.101 0.177 0.275 0.264 0.407 0.052 0.079 0.078 0.165 0.11 0.257 0.012 0.035 0.037 0.077 0.040 0.114 0.004 0.035-0.015 0.076-0.012 0.115 0.008 0.092 0.060 0.19 0.089 0.278 0.028 0.085 0.078 0.146 0.108 0.232 0.038 0.11 0.076 0.22 0.114 0.331 0.032 0.094 0.058 0.196 0.066 0.292 0.017 0.215 0.13 0.446 0.202 0.653 0.026 0.076 0.027 0.134 0.042 0.21 0.012 0.058 0.045 0.102 0.074 0.149 0.054 0.086 0.062 0.194 0.117 0.281s0.067 0.176 0.074 0.268l-0.137 0.162c0.084 0.084 0.168 0.168 0.251 0.253 0.020 0.030 0.040 0.060 0.063 0.089 0.021 0.026 0.036 0.066 0.063 0.089 0.034 0.029 0.076 0.047 0.111 0.074 0.004 0.003 0.008 0.005 0.012 0.008 0.052 0.055 0.105 0.108 0.155 0.164 0.102 0.114 0.201 0.232 0.31 0.339 0.058 0.057 0.121 0.105 0.176 0.164 0.039 0.042 0.077 0.073 0.135 0.087 0.093 0.022 0.187 0.004 0.279-0.005 0.087-0.008 0.17-0.018 0.26-0.020 0.393-0.010 0.79 0.071 1.183 0.036 0.069-0.006 0.128-0.004 0.197 0.002 0.057 0.005 0.114 0.027 0.17 0.027 0.054 0 0.099-0.012 0.154-0.005 0.054 0.007 0.094 0.002 0.148-0.002 0.32-0.021 0.633-0.159 0.923-0.289 0.184-0.082 0.37-0.162 0.561-0.228 0.186-0.064 0.356-0.164 0.526-0.265 0.124-0.074 0.245-0.142 0.349-0.242 0.095-0.091 0.196-0.166 0.306-0.237 0.076-0.048 0.147-0.113 0.226-0.155 0.052-0.027 0.103-0.051 0.15-0.084 0.129-0.092 0.282-0.174 0.398-0.286 0.132-0.126 0.279-0.222 0.372-0.393 0.043-0.078 0.088-0.152 0.115-0.237s0.055-0.167 0.107-0.239c0.060-0.083 0.126-0.159 0.184-0.242 0.050-0.071 0.073-0.139 0.099-0.221 0.066-0.205 0.147-0.417 0.172-0.63 0.030-0.248 0.021-0.491-0.013-0.74-0.007-0.049-0-0.098-0.006-0.146-0.005-0.044-0.026-0.081-0.034-0.123-0.014-0.072-0.027-0.136-0.047-0.207-0.015-0.053-0.009-0.106-0.024-0.159-0.012-0.042-0.030-0.079-0.037-0.123-0.014-0.084-0.032-0.157-0.059-0.237-0.061-0.176-0.121-0.353-0.182-0.529-0.023-0.067-0.046-0.133-0.068-0.2-0.024-0.073-0.068-0.125-0.096-0.195z"></path>
<path d="M21.393 18.86c0.007-0.034 0.025-0.040 0.026-0.079 0.003-0.064-0.045-0.112-0.092-0.149-0.024-0.019-0.052-0.037-0.081-0.052-0.008-0.019-0.016-0.038-0.024-0.057-0.034-0.088-0.076-0.154-0.122-0.236-0.024-0.041-0.057-0.064-0.084-0.101-0.031-0.042-0.047-0.091-0.083-0.13-0.061-0.066-0.142-0.099-0.207-0.159-0.127-0.119-0.264-0.228-0.398-0.344-0.071-0.060-0.146-0.119-0.219-0.177-0.029-0.023-0.058-0.039-0.091-0.056-0.019-0.010-0.039-0.024-0.059-0.032s-0.042-0.009-0.060-0.016c-0.048-0.018-0.092-0.044-0.147-0.049-0.046-0.005-0.099 0.005-0.146 0.006-0.059 0.002-0.101 0.028-0.158 0.033-0.046 0.005-0.075-0.005-0.113-0.016-0.111-0.033-0.211-0.072-0.317-0.121-0.083-0.038-0.162-0.049-0.242-0.083-0.105-0.045-0.183-0.094-0.296-0.089-0.105 0.005-0.18 0.006-0.273-0.036-0.080-0.036-0.163-0.041-0.242-0.071-0.073-0.028-0.139-0.053-0.208-0.079-0.032-0.012-0.047-0.012-0.080-0.029-0.026-0.014-0.055-0.024-0.082-0.037-0.045-0.021-0.089-0.032-0.135-0.048-0.082-0.029-0.147-0.099-0.219-0.152-0.077-0.057-0.164-0.098-0.244-0.149-0.064-0.041-0.109-0.104-0.165-0.154-0.046-0.041-0.106-0.075-0.163-0.099-0.050-0.022-0.067-0.049-0.108-0.076-0.048-0.032-0.112-0.046-0.163-0.072-0.050-0.025-0.086-0.064-0.136-0.089-0.158-0.079-0.317-0.152-0.45-0.267-0.088-0.076-0.144-0.174-0.208-0.272-0.030-0.047-0.053-0.099-0.077-0.149-0.029-0.060-0.071-0.107-0.103-0.165-0.078-0.143-0.139-0.285-0.193-0.442-0.030-0.085-0.049-0.17-0.070-0.257-0.006-0.025-0.016-0.052-0.025-0.078l0.172-0.425c-0.009-0.052-0.038-0.076-0.026-0.132 0.009-0.040 0.023-0.079 0.036-0.114 0.026-0.069 0.053-0.136 0.086-0.203 0.075-0.153 0.122-0.316 0.186-0.478 0.076-0.189 0.25-0.287 0.348-0.452 0.051-0.085 0.083-0.138 0.077-0.241-0.003-0.051 0.016-0.064 0.024-0.106 0.009-0.047 0.004-0.087 0.020-0.135 0.033-0.098 0.063-0.189 0.075-0.289 0.002-0.014 0.022-0.009 0.022-0.032 0.001-0.028-0.028-0.053-0.034-0.080-0.008-0.037-0.002-0.082-0.003-0.12-0.003-0.084 0.008-0.186-0.029-0.257-0.038-0.072-0.097-0.132-0.14-0.201-0.083-0.131-0.222-0.249-0.363-0.313-0.227-0.102-0.467-0.178-0.7-0.265-0.184-0.068-0.388-0.067-0.565-0.15-0.094-0.044-0.18-0.038-0.278-0.052-0.018-0.002-0.021-0.020-0.042-0.024s-0.045 0.005-0.066 0.002c-0.033-0.004-0.055-0.022-0.096-0.020-0.16 0.006-0.23 0.226-0.273 0.355-0.031 0.094-0.056 0.169-0.049 0.268 0.006 0.090 0.039 0.176 0.070 0.262 0.031 0.089 0.098 0.183 0.004 0.259-0.069 0.056-0.16 0.008-0.211 0.082-0.052 0.075-0.003 0.18-0.036 0.257-0.030 0.070-0.095 0.135-0.107 0.211-0.012 0.081 0.008 0.182 0.011 0.265 0.002 0.044 0.003 0.088 0.005 0.133 0.003 0.052-0.022 0.087-0.023 0.134-0.001 0.048 0.032 0.076 0.033 0.131 0.001 0.044 0.004 0.088 0.005 0.133 0.003 0.080-0.006 0.173 0.009 0.252 0.018 0.101 0.060 0.198 0.066 0.303 0.005 0.085 0.012 0.17-0.011 0.245-0.052 0.172-0.019 0.372-0.012 0.553 0.004 0.097 0.009 0.194 0.011 0.291 0.002 0.088 0.048 0.157 0.062 0.236 0.015 0.081-0.022 0.17-0.044 0.241-0.016 0.050-0.015 0.085-0.021 0.134s-0.037 0.080-0.024 0.134c0.021 0.093 0.049 0.17 0.104 0.25 0.048 0.070 0.097 0.129 0.152 0.192 0.076 0.087 0.173 0.143 0.242 0.231 0.010 0.012 0.028 0.020 0.036 0.030 0.017 0.024 0.019 0.043 0.034 0.067 0.022 0.036 0.056 0.072 0.079 0.109 0.089 0.144 0.174 0.303 0.236 0.463 0.018 0.047 0.033 0.078 0.019 0.138-0.010 0.045-0.040 0.073 0.002 0.114 0.024 0.023 0.070 0.030 0.1 0.042 0.036 0.014 0.072 0.033 0.11 0.049 0.095 0.038 0.19 0.074 0.283 0.116 0.041 0.019 0.070 0.039 0.108 0.062 0.029 0.018 0.060 0.050 0.088 0.065 0.036 0.019 0.098 0.014 0.14 0.030 0.028 0.011 0.057 0.036 0.086 0.044 0.075 0.019 0.154 0.025 0.224 0.046 0.164 0.050 0.288 0.152 0.434 0.236 0.083 0.048 0.153 0.053 0.242 0.077 0.083 0.023 0.169 0.080 0.248 0.097 0.087 0.019 0.162-0.010 0.244 0.027 0.071 0.031 0.136 0.076 0.207 0.116 0.149 0.084 0.311 0.128 0.459 0.208 0.067 0.036 0.112 0.086 0.19 0.093 0.094 0.008 0.177 0.010 0.268 0.042 0.080 0.028 0.081 0.010 0.159-0.007 0.041-0.009 0.091-0.001 0.133-0.004 0.062-0.003 0.126 0.022 0.181 0.052 0.139 0.075 0.282 0.134 0.419 0.209 0.042 0.023 0.077 0.062 0.119 0.083 0.040 0.021 0.072 0.016 0.112 0.028 0.022 0.006 0.066 0.028 0.082 0.049 0.013 0.017 0.008 0.048 0.014 0.068 0.003 0.011 0.019 0.012 0.023 0.030 0.014 0.053 0.010 0.082 0.036 0.132 0.021 0.040 0.047 0.074 0.071 0.11 0.042 0.062 0.085 0.117 0.132 0.174 0.034 0.042 0.039 0.077 0.050 0.126 0.008 0.031 0.021 0.013 0.018 0.058-0.001 0.017-0.018 0.036-0.021 0.055-0.012 0.088 0.003 0.18-0.014 0.267-0.008 0.045-0.025 0.064-0.023 0.119 0.001 0.035 0.009 0.061 0.017 0.088-0.095-0.002-0.197-0.005-0.281 0.014-0.092 0.021-0.191 0.063-0.287 0.090-0.058 0.016-0.095 0.032-0.158 0.033-0.059 0.001-0.101 0.027-0.158 0.033s-0.092 0.002-0.138 0.025c-0.046 0.023-0.071 0.036-0.125 0.038-0.112 0.003-0.208-0.042-0.316-0.074-0.036-0.011-0.091-0.038-0.134-0.010-0.049 0.033-0.028 0.062 0.004 0.093 0.072 0.069 0.159 0.121 0.235 0.184 0.067 0.055 0.087 0.14 0.17 0.18 0.076 0.036 0.16 0.081 0.244 0.098 0.034 0.006 0.072 0.018 0.107 0.023 0.026 0.003 0.055-0.011 0.081-0.006 0.043 0.008 0.087 0.034 0.133 0.044 0.045 0.010 0.088-0.003 0.133 0.007 0.032 0.007 0.045 0.023 0.081 0.019 0.030-0.003 0.037-0.019 0.057-0.024 0.1-0.026 0.213 0.005 0.312-0.024 0.075-0.022 0.165-0.064 0.234-0.117 0.005 0.002 0.008 0.004 0.014 0.006 0.114 0.024 0.19-0.026 0.256-0.109 0.037-0.047 0.106-0.111 0.121-0.168 0.006-0.024-0.004-0.050 0.002-0.075 0.003-0.011 0.020-0.040 0.025-0.054 0.014-0.036 0.018-0.056 0.016-0.1-0.005-0.099 0.012-0.148 0.064-0.229 0.032-0.049 0.040-0.053 0.055-0.107 0.006-0.023 0.019-0.045 0.022-0.068 0.003-0.021-0.007-0.048-0.002-0.068 0.009-0.034 0.041-0.049 0.059-0.079 0.028-0.050 0.012-0.059-0.007-0.101 0.089-0.085 0.032-0.196 0.010-0.299-0.007-0.031 0.012-0.072-0.008-0.101-0.014-0.019-0.037-0.017-0.049-0.029-0.048-0.046-0.018-0.056 0.032-0.036 0.164 0.067 0.306 0.222 0.4 0.37 0.025 0.039 0.046 0.082 0.070 0.122 0.024 0.039 0.060 0.097 0.072 0.137 0.015 0.050 0.018 0.091 0.038 0.138 0.020 0.048 0.020 0.095 0.027 0.143-0 0.001-0.001 0.002-0.001 0.003-0.011 0.054-0.024 0.107-0.035 0.16-0.006 0.030 0.002 0.050-0.001 0.080s-0.022 0.051-0.026 0.081c-0.006 0.046 0.002 0.112 0.007 0.159 0.006 0.061 0.044 0.107 0.035 0.172-0.007 0.048-0.036 0.074-0.057 0.113-0.021 0.038-0.037 0.079-0.061 0.116-0.028 0.043-0.052 0.054-0.056 0.107-0.004 0.052 0.005 0.108 0.007 0.16 0.003 0.102 0.064 0.187 0.013 0.285 0.028 0.018 0.073 0.043 0.106 0.050 0.026 0.006 0.066 0.019 0.086 0.023 0.034 0.006 0.060 0.007 0.094-0.004 0.023-0.007 0.057-0.045 0.085-0.046 0.033-0.001 0.040 0.026 0.080 0.021 0.008-0.001 0.065-0.030 0.071-0.036 0.051-0.047 0.067-0.126 0.113-0.179 0.090-0.104 0.15-0.197 0.186-0.332 0.020-0.073 0.028-0.144 0.052-0.214 0.023-0.068 0.052-0.145 0.066-0.215 0.014-0.072 0.030-0.143 0.045-0.214 0.008-0.036 0-0.070 0.008-0.106 0.009-0.041 0.019-0.062 0.016-0.107-0.004-0.071-0.005-0.141-0.008-0.212-0.004-0.077 0.022-0.138 0.018-0.213-0.004-0.071-0.005-0.142-0.008-0.212-0.001-0.032-0.012-0.077-0.006-0.107z"></path>
<path d="M16.789 20.524c-0.018-0.023 0-0.040-0.004-0.066-0.003-0.018-0.015-0.029-0.022-0.047-0.013-0.037-0.019-0.074-0.031-0.109-0.024-0.068-0.045-0.137-0.060-0.207-0.010-0.047-0.010-0.087-0.026-0.131-0.016-0.041-0.039-0.081-0.055-0.12-0.028-0.075-0.047-0.161-0.063-0.238-0.019-0.092-0.062-0.163-0.095-0.25-0.026-0.069-0.037-0.14-0.072-0.204-0.050-0.090-0.122-0.157-0.179-0.24-0.046-0.067-0.092-0.134-0.142-0.199-0.098-0.126-0.238-0.22-0.343-0.34-0.133-0.153-0.298-0.262-0.468-0.366-0.086-0.053-0.17-0.104-0.25-0.167-0.064-0.050-0.128-0.115-0.197-0.156-0.177-0.106-0.366-0.184-0.533-0.311-0.081-0.062-0.167-0.116-0.248-0.179-0.034-0.026-0.066-0.056-0.099-0.082-0.025-0.019-0.048-0.025-0.079-0.041-0.044-0.023-0.089-0.070-0.129-0.099-0.036-0.026-0.074-0.050-0.104-0.085-0.037-0.042-0.116-0.172-0.183-0.167l-0.628-0.507c0.006-0.066-0.027-0.071-0.058-0.119-0.025-0.039-0.030-0.066-0.060-0.101-0.053-0.064-0.075-0.149-0.117-0.222-0.073-0.128-0.165-0.247-0.283-0.341-0.058-0.047-0.113-0.066-0.182-0.093-0.033-0.013-0.045-0.031-0.088-0.042-0.040-0.010-0.062-0.035-0.098-0.049-0.149-0.059-0.32-0.046-0.464-0.114-0.039-0.019-0.083-0.044-0.123-0.060-0.016-0.006-0.038-0.001-0.054-0.008-0.012-0.005-0.019-0.024-0.026-0.028-0.069-0.032-0.137-0.069-0.201-0.114-0.048-0.033-0.074-0.082-0.127-0.109-0.054-0.028-0.086-0.053-0.137-0.089-0.048-0.034-0.103-0.055-0.151-0.090-0.059-0.042-0.102-0.101-0.16-0.144-0.073-0.055-0.164-0.105-0.243-0.151-0.060-0.035-0.123-0.056-0.185-0.084-0.095-0.043-0.179-0.044-0.279-0.024-0.347 0.073-0.686 0.36-1.059 0.279-0.17-0.037-0.393-0.132-0.546-0.011-0.062 0.049-0.12 0.124-0.174 0.182-0.046 0.050-0.090 0.078-0.103 0.148-0.029 0.151-0.049 0.315-0.116 0.45-0.072 0.142-0.137 0.284-0.127 0.448 0.012 0.189 0.025 0.401 0.165 0.548 0.054 0.057 0.095 0.119 0.153 0.173 0.064 0.061 0.124 0.124 0.186 0.187 0.078 0.079 0.167 0.126 0.253 0.193 0.041 0.032 0.080 0.070 0.119 0.105 0.077 0.070 0.12 0.095 0.228 0.113 0.249 0.041 0.476 0.087 0.708 0.194 0.164 0.076 0.32 0.171 0.498 0.203 0.256 0.046 0.503 0.149 0.756 0.208 0.117 0.027 0.194 0.086 0.278 0.166 0.121 0.114 0.195 0.266 0.33 0.372 0.116 0.091 0.237 0.179 0.378 0.228 0.131 0.045 0.264 0.063 0.376 0.133 0.102 0.064 0.294 0.244 0.149 0.352-0.011 0.008-0.024 0.016-0.035 0.025-0.138 0.033-0.267 0.090-0.397 0.144-0.061-0.012-0.122-0.041-0.184-0.038-0.077 0.004-0.153-0.003-0.23-0.001-0.086 0.002-0.19-0.035-0.273-0.054-0.072-0.016-0.146-0.005-0.218 0.003-0.101 0.011-0.199 0.005-0.298 0.002-0.050-0.001-0.086 0.006-0.135-0.003-0.036-0.007-0.069-0.017-0.105-0.015-0.073 0.004-0.145 0.009-0.22 0.016-0.061-0.017-0.123-0.033-0.182-0.052-0.069-0.022-0.126-0.068-0.194-0.092-0.076-0.027-0.145-0.066-0.218-0.098-0.122-0.055-0.23-0.081-0.363-0.080-0.059 0-0.117-0.017-0.175-0.030-0.060-0.013-0.092-0.001-0.15-0.002-0.042-0-0.090-0.019-0.132-0.028-0.054-0.011-0.080-0.008-0.132-0.006-0.046 0.002-0.087-0.016-0.133-0.015-0.065 0.001-0.131 0.004-0.197 0.002-0.061-0.002-0.116-0.026-0.176-0.031-0.046-0.004-0.090 0.008-0.137 0.001-0.102-0.016-0.174-0.011-0.261 0.053-0.128 0.094-0.176 0.275-0.182 0.426-0.007 0.173 0.044 0.339 0.093 0.505 0.089 0.299 0.252 0.569 0.48 0.775 0.145 0.131 0.274 0.278 0.4 0.428 0.099 0.117 0.208 0.241 0.338 0.326 0.138 0.090 0.263 0.198 0.411 0.273 0.042 0.021 0.074 0.053 0.112 0.078 0.052 0.035 0.113 0.053 0.166 0.088 0.093 0.060 0.165 0.126 0.252 0.194 0.066 0.052 0.137 0.101 0.2 0.156 0.058 0.051 0.129 0.096 0.184 0.153 0.098 0.101 0.189 0.2 0.293 0.291 0.097 0.084 0.191 0.153 0.264 0.263 0.036 0.054 0.064 0.11 0.080 0.171 0.024 0.092 0.004 0.177 0.006 0.267 0 0.027 0.011 0.052 0.003 0.088-0.009 0.043-0.018 0.086-0.026 0.13-0.013 0.066-0.053 0.111-0.094 0.164-0.020 0.026-0.047 0.043-0.068 0.066-0.017 0.019-0.029 0.045-0.051 0.060-0.028 0.019-0.059 0.015-0.090 0.035s-0.042 0.045-0.068 0.068c-0.046 0.042-0.103 0.053-0.157 0.075-0.070 0.029-0.133 0.052-0.196 0.089-0.056 0.032-0.155 0.048-0.112 0.141 0.021 0.043 0.112 0.098 0.154 0.112 0.068 0.023 0.164 0.042 0.235 0.048s0.121-0.024 0.182-0.065c0.106-0.071 0.227-0.084 0.344-0.132 0.085-0.035 0.123-0.085 0.187-0.146 0.045-0.043 0.126-0.094 0.188-0.098 0.074-0.005 0.15 0.048 0.174 0.117 0.026 0.074-0.016 0.177-0.032 0.252-0.016 0.078-0.026 0.129-0.078 0.187s-0.093 0.143-0.082 0.228c0.008 0.070 0.070 0.115 0.129 0.135 0.090 0.030 0.157 0.005 0.244 0.001 0.076-0.004 0.132 0.030 0.204 0.009 0.061-0.018 0.152-0.058 0.194-0.096 0.022-0.021 0.040-0.052 0.061-0.075 0.031-0.034 0.073-0.051 0.107-0.080 0.064-0.054 0.103-0.122 0.151-0.186 0.018-0.024 0.041-0.049 0.062-0.068 0.018-0.018 0.057-0.043 0.069-0.066 0.008-0.015 0.002-0.040 0.008-0.055 0.009-0.020 0.020-0.013 0.027-0.026 0.026-0.045 0.048-0.080 0.061-0.13 0.018-0.072-0.019-0.126 0.018-0.193 0.008-0.014 0.024-0.019 0.031-0.039 0.009-0.027-0.007-0.046-0.009-0.070-0.002-0.047 0.003-0.089 0.001-0.135-0.003-0.047 0.012-0.074 0.031-0.116 0.025-0.056 0.019-0.061 0.017-0.118-0.004-0.085-0.012-0.16-0.038-0.24s-0.071-0.154-0.098-0.234c-0.026-0.075-0.042-0.149-0.079-0.218-0.044-0.083-0.117-0.15-0.172-0.226-0.048-0.066-0.092-0.139-0.15-0.193-0.047-0.044-0.112-0.079-0.164-0.115-0.071-0.049-0.122-0.109-0.176-0.179-0.11-0.14-0.184-0.298-0.266-0.454-0.065-0.124-0.133-0.256-0.241-0.344-0.127-0.102-0.285-0.188-0.404-0.309s-0.224-0.262-0.327-0.392c-0.031-0.039-0.065-0.090-0.086-0.134-0.038-0.079-0.048-0.147 0.060-0.161l0.232-0.084c0.344 0.288 0.637 0.61 0.851 1.027 0.027-0.004 0.054-0.006 0.079-0.002 0.023 0.003 0.057 0.008 0.079 0.016s0.035 0.026 0.048 0.032c0.093 0.042 0.211 0.040 0.31 0.045s0.172-0.039 0.26-0.065c0.055-0.017 0.106 0.001 0.162 0.013 0.079 0.017 0.145 0.001 0.228 0.020 0.23 0.051 0.465 0.040 0.696 0.088 0.144 0.030 0.293 0.030 0.436 0.060 0.073 0.015 0.14 0.074 0.216 0.074 0.068 0 0.115-0.005 0.184 0.009 0.134 0.027 0.259 0.080 0.393 0.108 0.049 0.010 0.077 0.024 0.121 0.045 0.047 0.023 0.104 0.027 0.155 0.038 0.202 0.041 0.403 0.046 0.573-0.097 0.099-0.083 0.184-0.19 0.292-0.261 0.082-0.054 0.19-0.085 0.282-0.118 0.018-0.007 0.050-0.018 0.066-0.027 0.024-0.011 0.033-0.033 0.057-0.043 0.070-0.029 0.177-0.018 0.251-0.009 0.114 0.014 0.169-0.074 0.266-0.109 0.030-0.011 0.091-0.009 0.111-0.038 0.024-0.035-0.036-0.080 0.013-0.1z"></path>
<path d="M18.027 12.959c0.003-0.017 0.012-0.032 0.026-0.042 0.058 0.042 0.029 0.184 0.007 0.234-0.036 0.082-0.089 0.135-0.133 0.212-0.038 0.066-0.064 0.106-0.138 0.133-0.112 0.041-0.194 0.089-0.287 0.159-0.059 0.044-0.086 0.090-0.164 0.1-0.095 0.012-0.21 0.008-0.292-0.028-0.028-0.012-0.072-0.010-0.101-0.032s-0.062-0.055-0.086-0.080c-0.048-0.050-0.11-0.103-0.153-0.159-0.053-0.069-0.068-0.144-0.105-0.213-0.016-0.031-0.052-0.090-0.080-0.108-0.031-0.020-0.087-0.020-0.090 0.034-0.001 0.022 0.026 0.030 0.031 0.052 0.006 0.027-0.003 0.053 0.004 0.081 0.011 0.044 0.015 0.088 0.026 0.133 0.026 0.101 0.015 0.199 0.020 0.306 0.004 0.084 0.055 0.142 0.074 0.225 0.022 0.095 0.060 0.154 0.113 0.238 0.023 0.036 0.028 0.069 0.059 0.1 0.026 0.026 0.052 0.032 0.080 0.053 0.040 0.030 0.050 0.048 0.098 0.067 0.053 0.021 0.106 0.030 0.16 0.047 0.090 0.029 0.194 0.048 0.291 0.073 0.049 0.012 0.122 0.014 0.172 0.007 0.025-0.004 0.043-0.016 0.066-0.022 0.030-0.008 0.075 0.005 0.101-0.011 0.031-0.020 0.044-0.070 0.064-0.1 0.037-0.053 0.065-0.102 0.094-0.16 0.024-0.050 0.050-0.116 0.092-0.154 0.036-0.033 0.132-0.052 0.18-0.058z"></path>
<path d="M18.557 14.391c0.065 0.052 0.066 0.19 0.047 0.265-0.026 0.103-0.071 0.2-0.12 0.291-0.034 0.063-0.053 0.094-0.107 0.14-0.028 0.024-0.048 0.033-0.078 0.052-0.087 0.054-0.152 0.142-0.245 0.188-0.177 0.087-0.389-0.026-0.531-0.114-0.113-0.070-0.389-0.142-0.505-0.041-0.074 0.064-0.052 0.165-0.052 0.253-0.001 0.11 0.047 0.151 0.099 0.24 0.021 0.036 0.040 0.068 0.066 0.099 0.024 0.027 0.033 0.053 0.052 0.080 0.046 0.064 0.12 0.097 0.18 0.138 0.074 0.052 0.162 0.065 0.239 0.112 0.091 0.056 0.175 0.123 0.266 0.18 0.045 0.028 0.086 0.061 0.133 0.087 0.034 0.019 0.096 0.068 0.132 0.074 0.059 0.010 0.062-0.032 0.054-0.082-0.009-0.054-0.028-0.085-0.027-0.145 0.001-0.111 0.004-0.2 0.032-0.299 0.026-0.091 0.116-0.183 0.186-0.244 0.085-0.075 0.141-0.134 0.259-0.133 0.052 0 0.107 0.004 0.159 0.001 0.026-0.002 0.054-0.016 0.080-0.016 0.035 0 0.068 0.016 0.106 0.015z"></path>
<path d="M20.68 15.294c0 0.040-0.011 0.095-0.001 0.134s0.031 0.076 0.041 0.118c0.011 0.047 0.039 0.087 0.054 0.132 0.018 0.056 0.033 0.128 0.040 0.186 0.011 0.088 0.004 0.176 0.052 0.252 0.044 0.069 0.086 0.141 0.133 0.213s0.136 0.098 0.205 0.14c0.066 0.040 0.128 0.079 0.193 0.125 0.072 0.052 0.138 0.111 0.211 0.165 0.090 0.067 0.184 0.131 0.267 0.206 0.054 0.050 0.125 0.093 0.159 0.158 0.044 0.084 0.076 0.161 0.133 0.24 0.055 0.077 0.099 0.15 0.132 0.239 0.018 0.048 0.028 0.082 0.027 0.133-0.001 0.066 0.018 0.099 0.028 0.159 0.004 0.026-0.009 0.055-0.003 0.081 0.003 0.012 0.021 0.025 0.022 0.031 0.008 0.037 0.012 0.088 0.007 0.127-0.006 0.041-0.022 0.064-0.028 0.105s-0.011 0.119-0.001 0.161c0.010 0.040 0.028 0.057 0.028 0.105 0 0.052 0.020 0.084 0.028 0.133 0.008 0.047 0.007 0.086 0.019 0.133 0.013 0.051 0.005 0.106 0.006 0.159 0.001 0.088-0.036 0.172-0.056 0.252-0.020 0.081-0.044 0.167-0.077 0.239-0.030 0.066-0.054 0.174-0.053 0.252 0.001 0.044 0 0.089 0 0.133-0 0.056 0.014 0.093 0.024 0.146 0.015 0.079 0.022 0.152 0.055 0.224 0.022 0.047 0.017 0.086 0.025 0.134 0.010 0.060 0.040 0.093 0.022 0.159-0.024 0.089-0.015 0.172-0.020 0.265-0.006 0.102-0.051 0.193-0.074 0.292-0.021 0.088-0.055 0.175-0.058 0.265s-0.044 0.164-0.087 0.238c-0.044 0.075-0.104 0.14-0.152 0.214-0.028 0.042-0.056 0.063-0.1 0.086-0.034 0.018-0.059 0.050-0.091 0.067-0.067 0.036-0.162-0.006-0.234 0.032-0.075 0.039-0.131 0.096-0.206 0.141-0.053 0.032-0.115 0.068-0.171 0.092-0.095 0.040-0.184 0.033-0.286 0.033-0.093 0-0.186-0.001-0.279 0-0.053 0-0.083-0.012-0.133-0.024-0.043-0.011-0.102-0.034-0.146-0.030-0.047 0.004-0.069 0.026-0.118 0.028-0.041 0.002-0.092 0.006-0.133 0.001-0.053-0.008-0.090-0.028-0.146-0.028-0.052 0.001-0.096 0.002-0.146 0.013-0.077 0.017-0.152-0.014-0.226-0.040-0.033-0.012-0.070-0.023-0.105-0.027-0.051-0.006-0.084-0.020-0.133-0.026-0.094-0.013-0.15 0.016-0.22 0.074-0.077 0.062-0.045 0.164-0.025 0.245 0.017 0.070 0.035 0.134 0.078 0.193 0.040 0.056 0.163 0.102 0.226 0.12 0.043 0.012 0.084 0.019 0.127 0.033 0.033 0.011 0.070 0.022 0.105 0.026 0.044 0.005 0.090-0.007 0.134-0.001 0.052 0.007 0.074 0.028 0.132 0.027 0.056-0.001 0.081 0.007 0.133 0.021 0.044 0.012 0.091-0.006 0.134 0.005s0.054 0.028 0.105 0.028c0.053-0.001 0.106 0 0.159 0 0.041 0 0.092 0.009 0.133 0.002 0.049-0.009 0.081-0.029 0.133-0.028 0.044 0.001 0.088 0.001 0.133 0 0.059-0.001 0.102 0.024 0.159 0.027 0.044 0.002 0.091 0.014 0.133 0.014 0.044 0 0.086-0.025 0.133-0.016 0.054 0.010 0.088 0.028 0.146 0.028 0.054 0 0.073-0.017 0.118-0.028 0.053-0.012 0.094 0.001 0.148-0.022 0.040-0.017 0.064-0.019 0.106-0.029 0.087-0.020 0.202-0.075 0.263-0.147 0.055-0.066 0.072-0.121 0.147-0.172 0.091-0.061 0.181-0.116 0.247-0.206 0.118-0.162 0.296-0.248 0.424-0.397 0.054-0.063 0.1-0.142 0.133-0.22 0.043-0.099 0.042-0.184 0.045-0.29 0.002-0.057 0.023-0.105 0.028-0.161 0.005-0.058 0.008-0.103 0.020-0.161 0.022-0.106 0.038-0.213 0.057-0.316 0.011-0.059 0.029-0.097 0.028-0.159s0-0.125 0-0.187c0-0.121 0.014-0.23 0.053-0.343 0.066-0.194 0.18-0.428 0.127-0.638-0.023-0.091-0.053-0.167-0.048-0.265s0.054-0.175 0.086-0.265c0.032-0.091 0.092-0.184 0.141-0.266 0.018-0.029 0.031-0.060 0.040-0.092 0.005-0.018 0.001-0.041 0.005-0.061 0.006-0.025 0.025-0.036 0.022-0.072-0.004-0.050-0.034-0.081-0.026-0.133 0.007-0.047 0.030-0.1 0.044-0.146 0.029-0.091 0.082-0.198 0.087-0.292 0.005-0.092 0.001-0.18-0.021-0.265-0.024-0.090-0.002-0.181-0.032-0.265-0.063-0.176-0.134-0.37-0.133-0.558 0-0.091-0.019-0.18-0.047-0.265-0.014-0.043-0.022-0.091-0.039-0.133-0.018-0.046-0.057-0.086-0.080-0.132-0.081-0.161-0.141-0.31-0.252-0.457-0.052-0.069-0.102-0.133-0.146-0.206-0.056-0.093-0.12-0.124-0.208-0.179-0.189-0.118-0.39-0.154-0.609-0.192z"></path>
<path d="M23.36 14.206c0.059-0.029 0.117-0.041 0.18-0.059 0.025-0.008 0.056-0.034 0.086-0.041 0.056-0.014 0.061 0.002 0.105 0.027 0.076 0.044 0.129 0.102 0.2 0.153 0.072 0.051 0.142 0.099 0.206 0.159 0.125 0.118 0.202 0.244 0.279 0.398 0.039 0.079 0.079 0.156 0.107 0.24 0.023 0.071 0.062 0.139 0.080 0.211 0.017 0.070 0.020 0.142 0.031 0.212 0.014 0.087 0.052 0.172 0.074 0.259 0.018 0.072 0.056 0.145 0.060 0.218 0.005 0.083-0.008 0.148-0.025 0.226-0.012 0.056-0.011 0.144 0.004 0.199 0.010 0.041 0.018 0.062 0.020 0.106 0.002 0.048 0.025 0.084 0.028 0.133 0.004 0.070-0.001 0.142-0.001 0.212 0 0.035-0.003 0.071-0.001 0.106 0.002 0.044 0.023 0.077 0.028 0.119 0.008 0.075 0.011 0.14 0.028 0.212 0.008 0.033 0.018 0.072 0.026 0.104 0.004 0.015 0.019 0.016 0.022 0.031 0.004 0.021-0.003 0.043 0.001 0.064 0.023 0.137 0.101 0.291 0.177 0.411 0.081 0.128 0.143 0.262 0.143 0.411-0 0.146-0.001 0.292 0 0.438 0.001 0.071-0.016 0.141-0.029 0.21-0.006 0.031-0.023 0.041-0.025 0.082-0.002 0.040 0 0.080 0 0.12 0 0.072 0.002 0.122-0.026 0.184-0.016 0.035-0.022 0.077-0.046 0.109-0.028 0.038-0.073 0.055-0.108 0.086-0.089 0.076-0.149 0.169-0.223 0.257-0.052 0.061-0.11 0.115-0.148 0.186-0.041 0.076-0.062 0.154-0.093 0.234-0.021 0.055-0.047 0.1-0.046 0.165 0 0.031-0 0.062 0 0.093 0 0.046-0.010 0.063-0.021 0.099-0.010 0.034 0.001 0.066-0.004 0.1-0.007 0.039-0.026 0.066-0.029 0.106-0.004 0.079 0.001 0.16 0.001 0.239 0 0.076-0.002 0.141 0.020 0.212 0.024 0.075 0.054 0.135 0.099 0.199 0.036 0.050 0.077 0.096 0.114 0.148 0.045 0.065 0.032 0.131 0.032 0.211 0 0.032 0.009 0.077 0.001 0.108-0.008 0.033-0.024 0.040-0.028 0.078-0.009 0.070-0.016 0.106-0.066 0.16-0.043 0.047-0.106 0.081-0.162 0.103-0.082 0.032-0.121 0.033-0.196-0.002-0.107-0.050-0.198-0.131-0.253-0.233s-0.154-0.197-0.174-0.318c-0.011-0.071-0.008-0.144-0.024-0.214-0.013-0.057-0.050-0.11-0.068-0.171-0.011-0.037-0.009-0.067-0.015-0.104-0.005-0.030-0.022-0.042-0.024-0.082-0.005-0.071-0.028-0.144-0.047-0.205-0.021-0.067-0.032-0.134-0.032-0.206-0.001-0.080 0.030-0.15 0.050-0.226 0.016-0.059 0.028-0.115 0.042-0.172 0.008-0.033 0.014-0.054 0.013-0.093-0.001-0.047 0.010-0.063 0.021-0.099 0.009-0.033 0.007-0.066 0.006-0.1-0.001-0.042 0.010-0.053 0.021-0.086 0.025-0.080 0.044-0.153 0.092-0.227 0.041-0.062 0.058-0.108 0.076-0.178 0.018-0.072 0.057-0.115 0.103-0.172 0.022-0.028 0.057-0.055 0.074-0.086 0.017-0.029 0.019-0.070 0.033-0.102 0.022-0.050 0.069-0.104 0.081-0.156 0.008-0.034-0.011-0.075-0.003-0.109s0.024-0.040 0.028-0.078c0.009-0.077 0.020-0.152 0.039-0.226s-0.014-0.122-0.013-0.199c0.001-0.080 0-0.159 0-0.239 0-0.071-0.001-0.142-0-0.212 0.001-0.039-0.014-0.057-0.020-0.086-0.008-0.039-0.009-0.075-0.019-0.114-0.017-0.065-0.018-0.124-0.040-0.185-0.026-0.073-0.059-0.133-0.099-0.201-0.066-0.11-0.084-0.22-0.153-0.332-0.065-0.106-0.092-0.226-0.146-0.331-0.024-0.048-0.052-0.088-0.079-0.133-0.034-0.055-0.056-0.118-0.095-0.172-0.078-0.106-0.186-0.184-0.27-0.284-0.115-0.137-0.228-0.212-0.379-0.3-0.149-0.088-0.296-0.157-0.398-0.304z"></path>
<path d="M13.012 7.97c-0.083-0.014-0.159-0.061-0.239-0.079-0.040-0.009-0.068-0.034-0.106-0.048-0.040-0.015-0.088-0.019-0.127-0.038-0.172-0.088-0.322-0.193-0.452-0.34-0.036-0.040-0.069-0.083-0.092-0.13-0.019-0.038-0.028-0.080-0.046-0.119-0.016-0.036-0.043-0.065-0.051-0.108-0.026-0.142 0-0.296 0.070-0.417 0.035-0.061 0.101-0.097 0.14-0.154 0.041-0.059 0.103-0.087 0.165-0.126 0.147-0.093 0.29-0.107 0.458-0.112 0.158-0.006 0.31-0.109 0.464-0.134 0.131-0.021 0.261-0.056 0.37-0.136 0.075-0.056 0.13-0.093 0.106-0.194-0.012-0.052-0.066-0.133-0.109-0.166-0.122-0.091-0.252-0.178-0.381-0.258-0.126-0.079-0.257-0.066-0.41-0.066-0.040 0-0.080 0-0.119 0-0.048-0-0.061 0.010-0.099 0.021-0.070 0.020-0.159 0.005-0.233 0.006-0.078 0.001-0.145-0.027-0.226-0.026-0.076 0-0.18-0.019-0.254-0.001-0.033 0.008-0.040 0.024-0.078 0.028-0.035 0.004-0.072-0.003-0.107-0.001-0.089 0.005-0.169 0.047-0.252 0.077-0.072 0.026-0.152 0.054-0.22 0.088-0.030 0.015-0.051 0.035-0.085 0.047-0.053 0.018-0.108 0.025-0.16 0.046s-0.096 0.021-0.147 0.036c-0.042 0.012-0.078 0.041-0.118 0.058-0.074 0.032-0.14 0.068-0.212 0.1-0.071 0.031-0.152 0.052-0.226 0.076-0.079 0.026-0.16 0.066-0.231 0.102-0.050 0.026-0.099 0.076-0.152 0.088-0.037 0.008-0.081-0.006-0.118 0.001-0.015 0.003-0.016 0.018-0.031 0.022-0.027 0.006-0.051 0.005-0.077 0.015-0.077 0.027-0.148 0.072-0.226 0.1-0.081 0.029-0.161 0.082-0.239 0.12-0.072 0.035-0.129 0.089-0.199 0.126-0.068 0.036-0.132 0.063-0.198 0.099-0.148 0.083-0.298 0.168-0.442 0.259-0.061 0.038-0.11 0.085-0.17 0.126-0.076 0.052-0.161 0.090-0.239 0.139-0.080 0.051-0.162 0.096-0.24 0.153-0.034 0.025-0.048 0.051-0.078 0.080-0.035 0.034-0.094 0.053-0.135 0.079-0.125 0.076-0.237 0.172-0.351 0.265-0.051 0.042-0.101 0.079-0.158 0.106-0.062 0.029-0.135 0.049-0.19 0.089-0.051 0.038-0.106 0.081-0.156 0.123-0.064 0.053-0.136 0.092-0.2 0.147-0.048 0.040-0.087 0.090-0.131 0.133-0.049 0.048-0.113 0.086-0.165 0.13-0.124 0.105-0.255 0.201-0.373 0.312-0.229 0.216-0.52 0.361-0.736 0.592-0.093 0.099-0.204 0.191-0.279 0.304-0.034 0.052-0.054 0.112-0.086 0.167-0.031 0.053-0.066 0.109-0.105 0.16-0.023 0.029-0.040 0.047-0.060 0.079-0.018 0.030-0.020 0.051-0.032 0.080-0.026 0.062-0.071 0.122-0.094 0.185-0.011 0.031-0.005 0.059-0.015 0.091-0.008 0.026-0.042 0.064-0.058 0.089-0.034 0.056-0.068 0.109-0.1 0.165-0.030 0.053-0.065 0.1-0.105 0.148-0.025 0.029-0.054 0.065-0.074 0.097-0.017 0.027-0.020 0.069-0.038 0.094-0.033 0.044-0.063 0.083-0.075 0.137-0.009 0.040 0.003 0.070-0.012 0.108-0.012 0.031-0.031 0.060-0.043 0.092-0.029 0.071-0.034 0.135-0.076 0.2-0.041 0.063-0.080 0.137-0.113 0.206-0.018 0.038-0.020 0.052-0.019 0.099 0.001 0.044-0.014 0.066-0.020 0.099-0.009 0.044 0.008 0.048 0.015 0.080 0.009 0.042 0.006 0.084 0.006 0.127 0 0.077-0.028 0.124-0.026 0.199 0.002 0.083-0.026 0.146-0.060 0.219-0.056 0.119-0.032 0.265-0.073 0.39-0.022 0.066-0.057 0.133-0.074 0.2-0.018 0.073-0.003 0.154-0.007 0.229 0.029-0.021 0.038-0.067 0.054-0.097 0.018-0.033 0.039-0.067 0.060-0.1 0.022-0.036 0.052-0.070 0.067-0.112 0.010-0.028 0.011-0.053 0.024-0.080 0.014-0.029 0.043-0.051 0.056-0.080 0.091-0.203 0.188-0.402 0.324-0.578 0.059-0.077 0.097-0.172 0.165-0.243 0.077-0.081 0.161-0.154 0.231-0.24 0.038-0.046 0.079-0.081 0.107-0.132 0.023-0.041 0.041-0.085 0.060-0.128 0.036-0.080 0.079-0.162 0.12-0.245 0.041-0.084 0.1-0.155 0.139-0.238 0.024-0.049 0.047-0.087 0.074-0.135 0.012-0.021 0.009-0.039 0.024-0.060 0.012-0.016 0.041-0.032 0.055-0.046 0.030-0.029 0.051-0.075 0.084-0.1 0.040-0.030 0.092-0.050 0.134-0.079 0.089-0.061 0.178-0.104 0.26-0.173 0.133-0.113 0.251-0.243 0.382-0.357 0.148-0.128 0.284-0.232 0.386-0.405 0.062-0.105 0.135-0.181 0.212-0.271 0.065-0.076 0.12-0.161 0.194-0.228 0.064-0.058 0.128-0.107 0.205-0.144 0.070-0.034 0.186-0.159 0.27-0.12-0.006 0.025-0.043 0.025-0.065 0.046s-0.044 0.063-0.060 0.087c-0.039 0.061-0.069 0.12-0.106 0.181-0.031 0.051-0.059 0.11-0.080 0.164-0.031 0.080-0.078 0.143-0.116 0.216-0.064 0.121-0.128 0.244-0.216 0.356-0.083 0.106-0.158 0.221-0.246 0.324-0.095 0.112-0.18 0.231-0.272 0.345-0.042 0.052-0.082 0.095-0.119 0.152-0.019 0.029-0.039 0.052-0.054 0.086-0.019 0.044-0.013 0.083-0.025 0.127-0.015 0.051-0.068 0.104-0.1 0.144-0.025 0.031-0.045 0.066-0.066 0.1-0.025 0.040-0.031 0.079-0.052 0.12-0.066 0.128-0.159 0.271-0.259 0.377-0.104 0.111-0.2 0.24-0.265 0.372-0.037 0.074-0.050 0.117-0.047 0.206 0.002 0.046 0.017 0.065 0.028 0.105 0.012 0.044-0.006 0.067 0.042 0.094-0.059-0.016-0.059 0.091-0.097 0.121-0.005-0.006-0.010-0.011-0.016-0.016 0.042 0.008 0.088-0.041 0.119-0.020 0.003 0.010 0 0.018-0.009 0.023-0.028-0.037 0.029-0.045 0.053-0.055 0.008-0.004 0.048-0.025 0.055-0.025 0.035-0.003 0.057 0.028 0.091 0.028s0.064-0.033 0.093-0.043c0.024-0.009 0.057-0.004 0.078-0.015 0.054-0.027 0.050-0.094 0.106-0.132 0.033-0.022 0.069-0.046 0.108-0.053 0.064-0.011 0.106 0.017 0.159 0.029 0.026 0.005 0.055-0.005 0.081-0.002 0.030 0.003 0.051 0.019 0.080 0.025 0.057 0.012 0.127 0.002 0.186 0.002 0.058 0 0.115-0.001 0.172-0 0.056 0.001 0.093-0.016 0.146-0.026 0.122-0.021 0.237-0.067 0.357-0.1 0.307-0.085 0.61-0.201 0.923-0.272 0.193-0.044 0.375-0.102 0.571-0.060 0.118 0.025 0.204 0.059 0.311 0.113 0.073 0.036 0.149 0.068 0.219 0.11 0.1 0.061 0.178 0.152 0.259 0.235z"></path>
<path d="M24.74 12.667c0.056-0.073 0.088-0.11 0.109-0.199 0.004-0.018 0.019-0.032 0.019-0.050s-0.020-0.022-0.024-0.041c-0.003-0.018 0.006-0.037 0.003-0.055-0.005-0.029-0.023-0.050-0.028-0.079z"></path>
<path d="M25.642 11.791c-0.019 0.058-0.084 0.097-0.119 0.146-0.039 0.055-0.088 0.114-0.119 0.171-0.036 0.066-0.027 0.141-0.027 0.214 0 0.041-0.004 0.071-0.013 0.106-0.015 0.054-0 0.044 0.011 0.095 0.007 0.030 0.009 0.063 0.016 0.090 0.006 0.025 0.029 0.063 0.034 0.086 0.016 0.073 0.007 0.158 0.006 0.233-0.001 0.068 0.027 0.116 0.050 0.175 0.027 0.072 0.047 0.146 0.080 0.213 0.060 0.124 0.134 0.26 0.236 0.362 0.047 0.047 0.105 0.080 0.153 0.126s0.077 0.104 0.126 0.153c0.075 0.074 0.145 0.157 0.225 0.225 0.108 0.092 0.245 0.16 0.333 0.278 0.029 0.039 0.055 0.103 0.066 0.146 0.020 0.078 0.033 0.164 0.032 0.246-0 0.073 0.010 0.154 0 0.226-0.004 0.034-0.021 0.047-0.028 0.078-0.010 0.040 0.018 0.090-0.004 0.129-0.014 0.024-0.043 0.026-0.050 0.058-0.005 0.026 0.019 0.072 0.028 0.094 0.023 0.052 0.064 0.132 0.077 0.188 0.018 0.078-0.025 0.124-0.024 0.197 0.001 0.079 0.005 0.16 0 0.239-0.004 0.083-0.044 0.151-0.021 0.239 0.020 0.074 0.035 0.139 0.053 0.212 0.037 0.15-0.006 0.318 0.044 0.464 0.012 0.034 0.026 0.071 0.031 0.106 0.003 0.022-0.008 0.046-0.002 0.068 0.003 0.011 0.021 0.025 0.022 0.031 0.016 0.076 0.029 0.134 0.059 0.205 0.059 0.138 0.16 0.228 0.265 0.333 0.075 0.074 0.184 0.167 0.18 0.272-0 0.013-0.029 0.071-0.034 0.086-0.009 0.029-0.029 0.062-0.037 0.093-0.009 0.033-0.024 0.061-0.031 0.091-0.004 0.018 0.007 0.038 0.003 0.056-0.005 0.022-0.024 0.028-0.029 0.050-0.017 0.071 0.005 0.141-0.019 0.214s-0.061 0.139-0.060 0.212c0.001 0.078-0 0.131-0.046 0.193-0.036 0.049-0.078 0.078-0.106 0.131-0.062 0.118-0.177 0.163-0.272 0.246-0.052 0.046-0.094 0.092-0.134 0.146-0.037 0.051-0.066 0.088-0.126 0.113-0.054 0.022-0.11 0.040-0.166 0.060-0.069 0.025-0.094 0.085-0.139 0.139-0.037 0.044-0.079 0.079-0.119 0.12-0.019 0.019-0.038 0.035-0.058 0.052-0.058 0.049-0.068 0.054-0.135 0.027-0.058-0.024-0.13-0.052-0.166-0.111-0.024-0.040-0.008-0.068-0.018-0.107-0.010-0.044-0.021-0.090-0.033-0.133-0.021-0.074-0.080-0.136-0.096-0.212-0.020-0.097 0.070-0.14 0.138-0.186 0.233-0.155 0.498-0.374 0.493-0.676-0.001-0.080 0.032-0.148 0.027-0.226-0.005-0.074-0.035-0.144-0.060-0.212s-0.043-0.122-0.060-0.186c-0.019-0.074 0.004-0.163-0.018-0.239-0.038-0.128-0.194-0.212-0.208-0.344-0.008-0.079 0.015-0.163-0.005-0.24-0.024-0.093-0.015-0.11 0.032-0.186 0.029-0.047 0.051-0.117 0.054-0.172 0.001-0.035-0.001-0.071-0-0.106 0-0.056-0.013-0.082-0.024-0.133-0.008-0.040 0.002-0.079-0.008-0.119-0.009-0.036-0.018-0.070-0.026-0.106-0.014-0.061-0.051-0.151-0.080-0.206s-0.084-0.119-0.098-0.181c-0.008-0.036-0.003-0.080-0.002-0.117 0.001-0.052-0.017-0.062-0.028-0.105-0.008-0.032 0.004-0.074 0.002-0.108-0.003-0.040-0.022-0.068-0.028-0.106s0.008-0.080-0.001-0.119c-0.009-0.040-0.021-0.079-0.030-0.119-0.041-0.172-0.168-0.281-0.312-0.372-0.036-0.022-0.068-0.052-0.105-0.073-0.042-0.025-0.096-0.036-0.135-0.066-0.037-0.028-0.054-0.061-0.091-0.087-0.042-0.029-0.088-0.052-0.134-0.070-0.088-0.035-0.182-0.052-0.271-0.081-0.054-0.017-0.108-0.057-0.16-0.081-0.070-0.033-0.118-0.079-0.172-0.133-0.093-0.094-0.159-0.181-0.194-0.313-0.033-0.121-0.039-0.233-0.039-0.358 0-0.119 0.001-0.237 0-0.356-0.001-0.253 0.056-0.487 0.159-0.718z"></path>
</svg>
