<!-- Generated by IcoMoon.io -->
<svg version="1.1" xmlns="http://www.w3.org/2000/svg" width="32" height="32" viewBox="0 0 32 32">
<path d="M15.335 30.97c-0.146-0.028-0.287-0.213-0.287-0.376 0-0.15-0.061-0.195-0.469-0.344l-0.333-0.122-0.035-0.446c-0.019-0.245-0.034-0.593-0.034-0.773l0-0.327 0.276-0.152c0.265-0.146 0.274-0.159 0.232-0.327-0.024-0.096-0.035-1.64-0.025-3.43l0.019-3.254-0.121-0.196c-0.22-0.356-0.221-0.356-0.946-0.357l-0.664-0-0.15-0.267c-0.161-0.287-0.196-0.699-0.099-1.198 0.055-0.284 0.085-0.306 0.536-0.391 0.282-0.053 0.343-0.083 0.32-0.154-0.016-0.049-0.079-0.236-0.14-0.416s-0.124-0.393-0.139-0.473c-0.025-0.13-0.067-0.154-0.396-0.226-0.215-0.047-0.496-0.069-0.677-0.053l-0.309 0.028-0.1-0.288c-0.058-0.167-0.205-0.404-0.35-0.565-0.247-0.274-0.704-0.928-0.704-1.008 0-0.023 0.162-0.236 0.36-0.473 0.483-0.58 0.673-0.862 0.793-1.177 0.15-0.394 0.134-0.522-0.077-0.623l-0.178-0.085-0.106-0.719c-0.058-0.395-0.115-0.866-0.127-1.046l-0.022-0.327 0.558 0.845c0.51 0.773 0.672 1.068 0.951 1.728 0.053 0.126 0.152 0.281 0.22 0.345 0.107 0.101 0.15 0.109 0.334 0.061 0.116-0.030 0.376-0.071 0.578-0.092 0.336-0.034 0.389-0.057 0.625-0.277l0.258-0.24-0.75-0.756 0.136-0.207c0.075-0.114 0.198-0.305 0.274-0.425s0.353-0.476 0.616-0.791c0.263-0.315 0.482-0.577 0.487-0.583 0.032-0.044 0.576 0.467 0.853 0.801 0.186 0.225 0.446 0.524 0.577 0.666s0.238 0.272 0.238 0.291c0 0.019-0.125 0.173-0.278 0.343-0.411 0.456-0.418 0.485-0.235 0.905 0.14 0.321 0.175 0.361 0.342 0.392 0.103 0.019 0.422 0.013 0.71-0.013l0.524-0.048 0.13-0.273c0.071-0.15 0.275-0.604 0.453-1.009 0.575-1.311 0.738-1.614 0.973-1.8l0.218-0.172 0.006 0.182c0.010 0.286-0.006 0.381-0.117 0.682-0.106 0.29-0.217 1.011-0.217 1.414 0 0.194-0.033 0.26-0.23 0.457l-0.23 0.23 0.23 0.199c0.171 0.148 0.252 0.272 0.314 0.484 0.068 0.232 0.165 0.369 0.517 0.728l0.433 0.442-0.244 0.244c-0.383 0.383-0.615 0.687-0.659 0.864-0.022 0.090-0.137 0.291-0.255 0.448-0.225 0.298-0.287 0.326-0.795 0.356-0.224 0.013-0.247 0.030-0.429 0.325-0.116 0.187-0.203 0.408-0.22 0.556-0.030 0.27-0.050 0.254 0.429 0.331 0.178 0.028 0.201 0.052 0.231 0.235 0.086 0.522 0 1.258-0.18 1.537-0.039 0.061-0.206 0.083-0.713 0.095-0.622 0.015-0.675 0.025-0.869 0.164-0.207 0.149-0.207 0.149-0.245 0.641-0.021 0.271-0.047 1.695-0.058 3.164s-0.035 2.844-0.052 3.055l-0.032 0.383 0.466 0.161 0.015 0.741c0.018 0.871-0.013 0.941-0.504 1.14-0.299 0.121-0.301 0.124-0.301 0.354v0.231l-0.286 0.034c-0.305 0.037-0.645 0.035-0.845-0.003zM8.252 19.054c-0.574-0.596-0.846-1.044-1.296-2.131-0.247-0.597-0.556-1.216-0.631-1.262-0.031-0.019-0.341-0.043-0.689-0.053-0.815-0.023-0.856-0.056-0.885-0.689-0.018-0.397-0.008-0.451 0.105-0.571 0.136-0.145 0.269-0.175 0.269-0.060 0 0.040 0.065 0.132 0.144 0.204 0.117 0.107 0.149 0.117 0.172 0.050 0.041-0.119 0.394-0.449 0.59-0.552 0.147-0.077 0.172-0.125 0.203-0.382 0.019-0.162 0.035-0.461 0.036-0.665 0.001-0.415 0.063-0.583 0.218-0.583 0.098 0 0.103-0.035 0.074-0.593-0.028-0.553-0.019-0.628 0.135-1.112 0.091-0.285 0.277-0.803 0.414-1.15s0.25-0.646 0.25-0.664c0-0.018 0.064-0.163 0.142-0.322 0.136-0.277 0.138-0.296 0.053-0.46-0.065-0.125-0.186-0.215-0.454-0.337-0.433-0.196-0.637-0.366-0.557-0.463 0.030-0.036 0.113-0.236 0.183-0.444 0.228-0.669 0.414-0.94 0.65-0.943 0.055-0.001 0.214 0.094 0.354 0.211 0.26 0.217 0.766 0.497 0.897 0.497 0.040 0 0.207-0.129 0.372-0.286s0.882-0.675 1.594-1.15c1.033-0.689 1.341-0.87 1.525-0.891 0.127-0.015 0.393-0.11 0.592-0.212s0.579-0.236 0.845-0.297c0.628-0.146 0.875-0.244 1.091-0.433 0.097-0.085 0.229-0.172 0.294-0.192 0.115-0.037 0.117-0.054 0.099-1.027l-0.018-0.99 0.234 0.019c0.145 0.011 0.282-0.013 0.359-0.063 0.172-0.113 0.759-0.045 0.909 0.105 0.101 0.101 0.103 0.14 0.046 0.728-0.067 0.685-0.012 1.119 0.161 1.276 0.171 0.154 0.586 0.305 1.298 0.472 0.385 0.090 0.762 0.198 0.837 0.24s0.246 0.105 0.38 0.141c0.134 0.036 0.303 0.112 0.375 0.169 0.1 0.079 0.221 0.104 0.503 0.104h0.371l0.247 0.32c0.236 0.307 0.534 0.497 0.776 0.497 0.147 0 0.567 0.345 1.155 0.949 0.523 0.537 0.577 0.578 0.773 0.578 0.156 0 0.274-0.049 0.456-0.187 0.282-0.216 0.491-0.328 0.704-0.379 0.124-0.030 0.15-0.018 0.15 0.070 0 0.058 0.092 0.179 0.204 0.269s0.272 0.287 0.356 0.437l0.151 0.273-0.178 0.132c-0.098 0.073-0.318 0.233-0.488 0.357s-0.324 0.27-0.342 0.326c-0.044 0.139 0.202 0.773 0.429 1.102 0.174 0.252 0.185 0.294 0.157 0.585-0.032 0.335-0.141 0.502-0.444 0.681l-0.16 0.095-0.038-0.204c-0.037-0.202-0.167-0.464-0.525-1.057-0.102-0.169-0.229-0.387-0.282-0.483l-0.096-0.175-0.36 0.039c-0.198 0.021-0.521 0.099-0.718 0.173-0.639 0.24-1.134 0.273-1.199 0.079-0.013-0.039 0.212-0.301 0.5-0.583s0.536-0.568 0.552-0.635c0.068-0.292-0.090-0.542-0.742-1.168-0.629-0.605-0.64-0.612-1.636-1.108-1.129-0.563-1.322-0.613-1.774-0.459l-0.301 0.102-0.206-0.22c-0.191-0.205-0.237-0.225-0.655-0.289-0.247-0.038-0.465-0.054-0.484-0.035s-0.076 0.198-0.128 0.399c-0.213 0.83-0.448 1.537-0.511 1.537-0.076 0-0.145-0.158-0.274-0.627-0.050-0.18-0.134-0.401-0.188-0.491s-0.127-0.274-0.163-0.409c-0.096-0.364-0.14-0.399-0.461-0.357-0.6 0.078-1.176 0.266-1.911 0.624-0.42 0.204-0.834 0.389-0.921 0.41s-0.238 0.1-0.337 0.175c-0.099 0.075-0.27 0.162-0.38 0.192s-0.339 0.166-0.509 0.3c-0.877 0.699-0.937 0.77-1.044 1.249l-0.058 0.259 0.218 0.21c0.211 0.203 0.626 0.769 0.695 0.95 0.029 0.077-0.005 0.085-0.26 0.062-0.162-0.014-0.429-0.076-0.594-0.138s-0.451-0.128-0.636-0.149l-0.336-0.038-0.256 0.347c-0.721 0.979-1.138 2.454-1.207 4.273l-0.031 0.818 0.238 0.228c0.194 0.186 0.297 0.238 0.562 0.286 0.198 0.036 0.463 0.142 0.682 0.272 0.197 0.117 0.462 0.23 0.589 0.25 0.278 0.044 0.318 0.091 0.181 0.215-0.074 0.067-0.293 0.114-0.776 0.165-0.818 0.087-1.342 0.192-1.375 0.277-0.041 0.107 0.114 0.788 0.31 1.361 0.278 0.811 0.459 1.214 0.728 1.615 0.218 0.326 0.389 0.732 0.332 0.789-0.012 0.012-0.193-0.156-0.403-0.373zM23.245 19.164c0.11-0.134 0.2-0.295 0.2-0.356s0.101-0.24 0.225-0.397c0.261-0.33 0.531-0.892 0.704-1.462 0.128-0.424 0.131-0.96 0.006-1.276-0.057-0.143-0.076-0.15-0.432-0.15-0.517 0-1.538-0.182-1.538-0.274 0-0.1 0.402-0.28 1.277-0.571 0.507-0.169 0.988-0.341 1.070-0.383l0.148-0.076 0.039-1.079c0.058-1.596 0.062-1.517-0.1-1.729-0.232-0.304-0.16-0.74 0.161-0.985 0.106-0.081 0.198-0.139 0.205-0.128 0.135 0.232 0.267 0.621 0.308 0.908 0.102 0.715 0.165 1.58 0.165 2.258v0.688l0.177 0.042c0.161 0.038 0.837 0.043 1.104 0.008 0.125-0.016 0.128 0.052 0.020 0.467-0.068 0.263-0.068 0.263 0.106 0.399 0.194 0.152 0.212 0.258 0.091 0.547l-0.082 0.197-0.625-0.036c-0.62-0.035-0.627-0.034-0.844 0.114-0.178 0.122-0.234 0.205-0.303 0.45-0.102 0.36-0.41 1.036-0.473 1.036-0.025 0-0.086-0.086-0.136-0.191-0.108-0.227-0.209-0.254-0.154-0.041 0.077 0.302 0.095 0.613 0.035 0.613-0.033 0-0.097 0.091-0.144 0.202-0.131 0.312-0.488 0.753-0.689 0.85-0.1 0.048-0.25 0.174-0.333 0.28s-0.204 0.221-0.268 0.255c-0.086 0.046-0.064-0.003 0.083-0.182zM17.993 13.587c0-0.015 0.049-0.205 0.109-0.421 0.125-0.451 0.143-0.805 0.041-0.805-0.037 0-0.22-0.103-0.405-0.229l-0.337-0.229 0.107-0.151c0.239-0.335 0.334-0.643 0.296-0.953-0.020-0.161-0.048-0.293-0.063-0.293s-0.084 0.067-0.155 0.15c-0.071 0.082-0.141 0.138-0.157 0.123s-0.001-0.144 0.032-0.286c0.033-0.142 0.046-0.272 0.029-0.289s-0.155 0.1-0.308 0.259l-0.278 0.289-0.002-1.234 0.275-0.576c0.151-0.317 0.268-0.597 0.259-0.623-0.018-0.053-0.753 0.779-0.984 1.114-0.12 0.173-0.15 0.194-0.15 0.103 0-0.063 0.061-0.23 0.136-0.371 0.092-0.173 0.136-0.343 0.136-0.522 0-0.187 0.048-0.362 0.164-0.59 0.090-0.178 0.164-0.337 0.164-0.353 0-0.179-0.866 0.665-1.175 1.144-0.144 0.224-0.28 0.408-0.3 0.408s-0.069-0.111-0.107-0.247c-0.086-0.306-0.158-0.356-0.268-0.185-0.047 0.073-0.239 0.308-0.425 0.524-0.323 0.372-0.669 0.864-0.669 0.951 0 0.022 0.137 0.057 0.304 0.078s0.316 0.068 0.33 0.105c0.014 0.037-0.203 0.408-0.482 0.825s-0.601 0.947-0.716 1.179c-0.189 0.385-0.204 0.447-0.171 0.716 0.053 0.427-0.046 0.424-0.224-0.006-0.166-0.4-0.215-1.033-0.096-1.236 0.057-0.098 0.067-0.094 0.151 0.068 0.105 0.204 0.174 0.219 0.226 0.050 0.020-0.067 0.129-0.245 0.241-0.396 0.252-0.338 0.384-0.588 0.384-0.729 0-0.083-0.077-0.133-0.348-0.223-0.62-0.206-0.621-0.192 0.078-1.127 0.75-1.002 1.747-2.118 1.807-2.023 0.023 0.037 0.043 0.182 0.043 0.323s0.023 0.269 0.049 0.286c0.027 0.016 0.183-0.148 0.347-0.365 0.318-0.42 1.763-1.949 1.842-1.949 0.068 0-0.098 0.522-0.281 0.885-0.165 0.326-0.191 0.451-0.107 0.503 0.078 0.048 0.646-0.579 0.975-1.076 0.163-0.246 0.364-0.522 0.447-0.612s0.166-0.2 0.184-0.245c0.019-0.045 0.021 0.199 0.005 0.541-0.027 0.581-0.044 0.656-0.252 1.118-0.222 0.493-0.427 1.080-0.428 1.225-0 0.042 0.133-0.050 0.296-0.204 0.303-0.287 0.454-0.359 0.387-0.185-0.020 0.052-0.071 0.29-0.112 0.527-0.071 0.408-0.091 0.447-0.362 0.722-0.278 0.281-0.287 0.301-0.309 0.645-0.012 0.195-0.008 0.355 0.009 0.355s0.184-0.098 0.369-0.218c0.186-0.12 0.362-0.218 0.391-0.218 0.034 0 0.039 0.117 0.014 0.314-0.022 0.172-0.056 0.51-0.077 0.75-0.043 0.49-0.099 0.623-0.335 0.791-0.134 0.095-0.164 0.155-0.164 0.329 0 0.151 0.029 0.228 0.102 0.267 0.056 0.030 0.133 0.13 0.171 0.223 0.065 0.156 0.053 0.203-0.161 0.643-0.127 0.261-0.269 0.518-0.316 0.57-0.081 0.091-0.177 0.127-0.177 0.067z"></path>
</svg>
