<!-- Generated by IcoMoon.io -->
<svg version="1.1" xmlns="http://www.w3.org/2000/svg" width="32" height="32" viewBox="0 0 32 32">
<path d="M8.542 20.127c0.023-0.086 0.037-0.173 0.049-0.26-0.037 0.071-0.059 0.155-0.049 0.26z"></path>
<path d="M19.228 7.576c0.102 0.028 0.187 0.116 0.3 0.149 0.414 0.125 0.816 0.322 1.242 0.433 0.436 0.113 0.941 0.014 1.395 0.037 0.218 0.010 0.376 0.169 0.563 0.233 0.109 0.037 0.229 0.104 0.343 0.139 0.095 0.028 0.219-0.013 0.303 0.039-0.081-0.113-0.068-0.371-0.112-0.486-0.095-0.251-0.192-0.411-0.191-0.692 0.001-0.3-0.009-0.41 0.267-0.535 0.238-0.108 0.499-0.085 0.751-0.086 0.119 0 0.256-0.022 0.371 0.006 0.121 0.028 0.156 0.106 0.25 0.169 0.14 0.098 0.272 0.187 0.397 0.326 0.064 0.070 0.091 0.152 0.149 0.224 0.082 0.106 0.211 0.152 0.287 0.276 0.124 0.206 0.213 0.446 0.414 0.594 0.153-0.099 0.049-0.394-0.021-0.514-0.098-0.173-0.258-0.295-0.362-0.463-0.040-0.066-0.050-0.16-0.104-0.217-0.072-0.075-0.204-0.095-0.29-0.149-0.204-0.126-0.397-0.267-0.604-0.393-0.052-0.032-0.115-0.035-0.168-0.070-0.053-0.034-0.119-0.097-0.169-0.137-0.144-0.113-0.256-0.24-0.416-0.348-0.135-0.090-0.244-0.2-0.378-0.289-0.063-0.042-0.124-0.091-0.184-0.135-0.076-0.053-0.14-0.129-0.21-0.178-0.207-0.151-0.67-0.131-0.924-0.095-0.263 0.037-0.417 0.191-0.621 0.338-0.073 0.054-0.157 0.077-0.249 0.070-0.084 0.026-0.16 0.066-0.229 0.121-0.061 0.026-0.16 0.054-0.222 0.072-0.354 0.112-0.746 0.174-1.071 0.326-0.432 0.205-0.862 0.22-1.493 1.005 0.29 0 0.417 0.055 0.679 0.175 0.113 0.053 0.197 0.023 0.305 0.053z"></path>
<path d="M23.95 8.649c-0.013-0.019-0.028-0.031-0.045-0.041 0.013 0.017 0.027 0.032 0.045 0.041z"></path>
<path d="M5.513 7.058c0.149-0.109 0.296-0.253 0.451-0.344 0.071-0.042 0.107-0.034 0.179-0.059 0.080-0.027 0.162-0.061 0.245-0.084 0.192-0.054 0.452 0.014 0.655 0-0.193 0.035-0.372 0.301-0.447 0.465-0.113 0.251-0.3 0.531-0.201 0.819 0.576-0.312 1.341-0.46 1.986-0.227 0.119 0.042 0.22 0.134 0.357 0.174 0.211 0.061 0.41 0.062 0.634 0.061 0.183 0 0.366-0.001 0.549 0 0.276 0.003 0.514-0.086 0.79-0.080l1.26-0.323c-0.227 0.057-0.441-0.238-0.609-0.345-0.034-0.022-0.133-0.049-0.158-0.071-0.080-0.068-0.13-0.205-0.196-0.29-0.094-0.122-0.178-0.228-0.277-0.356-0.108-0.142-0.144-0.308-0.332-0.371-0.229-0.079-0.419 0.030-0.631 0.068-0.17 0.031-0.379-0.004-0.551-0.004-0.182 0-0.461 0.052-0.634 0.005-0.184-0.048-0.284-0.217-0.425-0.327-0.086-0.067-0.207-0.081-0.286-0.157-0.081-0.081-0.104-0.209-0.166-0.304-0.153-0.233-0.276-0.265-0.536-0.264-0.245 0.001-0.42-0.021-0.629 0.101-0.148 0.086-0.311 0.18-0.434 0.3-0.219 0.211-0.515 0.38-0.688 0.643-0.103 0.155-0.178 0.386-0.219 0.567-0.052 0.224-0.125 0.481-0.061 0.716 0.14-0.036 0.253-0.222 0.378-0.313z"></path>
<path d="M17.044 8.173c0.135 0.050 0.313 0.129 0.432 0.211 0.090 0.062 0.124 0.201 0.125 0.316 0.001 0.166 0.045 0.323 0.143 0.459 0.085 0.119 0.169 0.286 0.29 0.359 0.143 0.088 0.233 0.067 0.387 0.084 0.308 0.035 0.519 0.292 0.729 0.487 0.070 0.064 0.133 0.115 0.197 0.183 0.035 0.036 0.068 0.072 0.109 0.102 0.049 0.036 0.126 0.050 0.169 0.082 0.061 0.046 0.066 0.121 0.116 0.177 0.086 0.094 0.232 0.13 0.34 0.182 0.201 0.094 0.398 0.129 0.621 0.127 0.214-0.001 0.5 0.057 0.698-0.008-0.111-0.075-0.197-0.17-0.29-0.265-0.084-0.088-0.18-0.137-0.267-0.22-0.059-0.061-0.207-0.168-0.236-0.251-0.052-0.153 0.147-0.101 0.235-0.091 0.215 0.023 0.399 0.090 0.598 0.171 0.049 0.021 0.104 0.057 0.156 0.067 0.044 0.009 0.090-0.008 0.133 0.001 0.059 0.010 0.077 0.040 0.13 0.053 0.205 0.050 0.439 0.070 0.655 0.050 0.097-0.009 0.2-0.042 0.291-0.075 0.113-0.041 0.2-0.053 0.313-0.073 0.106-0.018 0.187-0.050 0.294-0.052 0.12-0.003 0.24 0 0.359 0 0.233 0 0.475-0.021 0.709-0.001 0.104 0.008 0.455 0.061 0.51 0.152 0.009-0.001 0.053-0.001 0.214-0.003-0.022-0.214-0.223-0.322-0.39-0.396-0.062-0.028-0.117-0.035-0.18-0.059-0.070-0.028-0.137-0.111-0.202-0.152-0.088-0.055-0.158-0.059-0.247-0.085-0.071-0.021-0.134-0.073-0.211-0.094-0.116-0.031-0.245-0.034-0.356-0.067-0.082-0.026-0.156-0.084-0.254-0.089-0.16-0.009-0.323 0.001-0.484 0.001-0.080 0-0.161 0-0.242 0-0.119-0.001-0.202 0.034-0.314 0.050-0.093 0.014-0.184-0.009-0.277 0.010-0.099 0.019-0.177 0.039-0.28 0.037-0.201-0.001-0.424 0.034-0.62-0.010-0.081-0.018-0.162-0.061-0.24-0.088-0.091-0.035-0.189-0.055-0.281-0.094-0.079-0.032-0.134-0.041-0.217-0.066-0.024-0.006-0.072-0.034-0.097-0.050-0.093-0.061-0.122-0.072-0.232-0.101-0.086-0.022-0.18-0.057-0.262-0.097-0.112-0.055-0.247-0.103-0.345-0.175-0.149-0.111-0.258-0.245-0.374-0.389-0.053-0.067-0.080-0.157-0.143-0.219-0.019-0.021-0.068-0.037-0.088-0.059-0.032-0.037-0.036-0.090-0.068-0.127-0.061-0.070-0.164-0.116-0.235-0.16-0.072-0.045-0.161-0.106-0.232-0.161-0.143-0.113-0.204-0.198-0.202-0.384 0.001-0.082 0.001-0.165 0.001-0.247-0.003-0.112 0.045-0.189 0.049-0.298s0.041-0.191 0.048-0.296c0.008-0.112 0.005-0.234 0-0.347-0.008-0.218-0.129-0.341-0.301-0.433-0.166-0.088-0.33-0.155-0.486-0.25-0.198-0.122-0.426-0.106-0.653-0.112 0.129-0.009 0.227 0.107 0.323 0.174 0.13 0.091 0.311 0.156 0.415 0.278 0.094 0.111 0.055 0.223 0.082 0.353 0.028 0.138 0.068 0.274 0.088 0.41 0.028 0.196 0.153 0.643-0.048 0.781-0.121 0.082-0.265 0.135-0.398 0.196-0.113 0.052-0.189 0.101-0.28 0.187-0.067 0.063-0.165 0.12-0.213 0.198-0.108 0.18 0.179 0.166 0.285 0.205z"></path>
<path d="M11.124 9.305c-0.143 0.010-0.291-0.001-0.435-0.001h-1.066c-0.189 0-0.394 0.026-0.581 0.001-0.098-0.012-0.088-0.030-0.156-0.088-0.080-0.070-0.192-0.079-0.284-0.125 0.084-0.137 0.402 0.014 0.536 0.013 0.106-0.001 0.423 0.052 0.451-0.063-0.158-0.066-0.339-0.022-0.502-0.072-0.103-0.031-0.189-0.040-0.287-0.059-0.076-0.017-0.142-0.059-0.206-0.090-0.097-0.045-0.166-0.040-0.269-0.061-0.17-0.034-0.307-0.148-0.47-0.195-0.093-0.027-0.107-0.022-0.191-0.079-0.093-0.063-0.198-0.115-0.294-0.174-0.162-0.103-0.278-0.143-0.46-0.187-0.057-0.014-0.189-0.036-0.244-0.017-0.063 0.023-0.098 0.139-0.156 0.192-0.116 0.106-0.318 0.144-0.472 0.161-0.164 0.018-0.367-0.046-0.524 0.006-0.003 0.117-0.101 0.171-0.106 0.29-0.006 0.117 0.024 0.188 0.050 0.298 0.019 0.081 0.024 0.179 0.057 0.26 0.023 0.059 0.072 0.117 0.101 0.174 0.021 0.041 0.042 0.131 0.094 0.151 0.119 0.046 0.103-0.091 0.138-0.164 0.044-0.090 0.126-0.186 0.191-0.262 0.164-0.195 0.463-0.102 0.679-0.050 0.224 0.054 0.398 0.245 0.59 0.372 0.232 0.153 0.415 0.202 0.679 0.25 0.122 0.022 0.242-0.001 0.363 0.022 0.148 0.030 0.299 0.073 0.45 0.091 0.169 0.018 0.294 0.010 0.461 0.061 0.142 0.041 0.281 0.042 0.423 0.073 0.148 0.034 0.455-0.061 0.561 0.058 0.004 0.005 0.036 0.099 0.044 0.113 0.023 0.049 0.042 0.086 0.061 0.139 0.017 0.045 0.031 0.089 0.049 0.133 0.034 0.093 0.072 0.137 0.137 0.215 0.055 0.067 0.106 0.104 0.155 0.12-0.079 0.129-0.138 0.284-0.182 0.423-0.059 0.186-0.072 0.375-0.106 0.566-0.030 0.173-0.012 0.389-0.004 0.564 0.004 0.103 0.054 0.169 0.098 0.258 0.040 0.084 0.089 0.164 0.142 0.245 0.116 0.178 0.268 0.331 0.379 0.51 0.035 0.055 0.053 0.125 0.088 0.184 0.066 0.109 0.156 0.177 0.24 0.271 0.093 0.103 0.107 0.231 0.164 0.353 0.024 0.054 0.090 0.113 0.295 0.22 0.014-0.004 0.030-0.008 0.042-0.012-0.009-0.079-0.164-0.197-0.201-0.286-0.053-0.129-0.131-0.262-0.17-0.396-0.019-0.067 0.003-0.134-0.019-0.2-0.023-0.072-0.076-0.098-0.089-0.17-0.014-0.076 0.009-0.149-0.009-0.225-0.019-0.077-0.066-0.152-0.082-0.232-0.021-0.102 0.004-0.209-0.003-0.313-0.005-0.073-0.040-0.126-0.053-0.198-0.024-0.148 0.003-0.332 0.003-0.483 0-0.187 0.010-0.375 0.045-0.554 0.022-0.109 0.102-0.158 0.14-0.251 0.039-0.091 0.041-0.113 0.116-0.183 0.030-0.026 0.053-0.054 0.075-0.082 0.088-0.039 0.18-0.066 0.263-0.115 0.183-0.106 0.378-0.196 0.496-0.374 0.050-0.075 0.115-0.155 0.175-0.225 0.059-0.067 0.097-0.14 0.148-0.213 0.032-0.045 0.068-0.088 0.099-0.133 0.036-0.050 0.050-0.115 0.084-0.162 0.028-0.040 0.063-0.066 0.091-0.109 0.027-0.042 0.067-0.076 0.093-0.12 0.039-0.066 0.122-0.16 0.142-0.231 0.010-0.036 0.005-0.127-0.019-0.149-0.023-0.022-0.117-0.036-0.148-0.044-0.095-0.024-0.151 0.008-0.22-0.048 0.010-0.028 0.021-0.055 0.032-0.082 0.032-0.077 0.070-0.151 0.085-0.242 0.022-0.133 0.061-0.263 0.085-0.397 0.018-0.102 0.014-0.186 0.048-0.272 0.052-0.138 0.139-0.206 0.231-0.323 0.089-0.115 0.177-0.249 0.263-0.358 0.097-0.124 0.153-0.188 0.206-0.345 0.028-0.084 0.057-0.175 0.088-0.256 0.023-0.062 0.032-0.129 0.057-0.193 0.041-0.104 0.146-0.214 0.209-0.308 0.13-0.197 0.313-0.341 0.461-0.519 0.079-0.094 0.148-0.186 0.229-0.276 0.055-0.062 0.191-0.111 0.496-0.284-0.151 0-0.28-0.001-0.425 0.037-0.157 0.042-0.295 0.106-0.446 0.162-0.152 0.057-0.255 0.046-0.37 0.166-0.052 0.053-0.091 0.090-0.134 0.153-0.048 0.073-0.13 0.148-0.168 0.224-0.026 0.053-0.024 0.117-0.054 0.174-0.037 0.068-0.088 0.126-0.124 0.197-0.028 0.057-0.059 0.116-0.085 0.174-0.039 0.089-0.032 0.162-0.081 0.245-0.079 0.131-0.115 0.251-0.16 0.399-0.040 0.13-0.085 0.238-0.127 0.371-0.050 0.157-0.112 0.269-0.211 0.398-0.080 0.103-0.177 0.184-0.249 0.295-0.16 0.245-0.336 0.479-0.504 0.719-0.166 0.236-0.43 0.366-0.692 0.445-0.108 0.034-0.213 0.093-0.336 0.102z"></path>
<path d="M19.571 20.648c-0.086 0.012-0.192-0.049-0.285-0.049-0.050 0.001-0.098 0.001-0.144-0.003 0.097 0.037 0.202 0.061 0.287 0.076z"></path>
<path d="M30.258 12.516c-0.068-0.059-0.135-0.119-0.197-0.182 0.186-0.085-0.057-0.294-0.13-0.424-0.080-0.139-0.099-0.301-0.197-0.434-0.037-0.050-0.091-0.079-0.13-0.134-0.085-0.119-0.104-0.271-0.191-0.386-0.061-0.080-0.115-0.193-0.175-0.265-0.080-0.098-0.237-0.111-0.347-0.162-0.152-0.071-0.218-0.142-0.392-0.174-0.16-0.030-0.28-0.058-0.441-0.057-0.272 0.001-0.5 0.018-0.763 0.081-0.25 0.062-0.581 0.115-0.786 0.281-0.186 0.151-0.448 0.204-0.575 0.428-0.111 0.197-0.052 0.43-0.124 0.626-0.082 0.225-0.229 0.405-0.323 0.626-0.119 0.273-0.125 0.579-0.322 0.814-0.122 0.146-0.258 0.28-0.421 0.381-0.251 0.157-0.455 0.378-0.764 0.397-0.133 0.009-0.321-0.042-0.451 0.008-0.14 0.054-0.129 0.122-0.124 0.255 0.019 0.482-0.001 0.971-0.001 1.455 0 0.289 0.013 0.536-0.082 0.807-0.040 0.116-0.066 0.231-0.109 0.345-0.073 0.192-0.085 0.211-0.232 0.338-0.207 0.179-0.448 0.352-0.705 0.451-0.12 0.048-0.263 0.030-0.359 0.134-0.068 0.073-0.101 0.207-0.142 0.3-0.081 0.182-0.084 0.26-0.294 0.268-0.095 0.004-0.245 0.010-0.326-0.049-0.137-0.099-0.084-0.419-0.070-0.593-0.115 0.142-0.247 0.225-0.344 0.376-0.146 0.227-0.219 0.336-0.501 0.329-0.165-0.005-0.354-0.024-0.517 0.006-0.242 0.045-0.28 0.099-0.385 0.307-0.093 0.183-0.179 0.326-0.135 0.546 0.030 0.153 0.178 0.276 0.264 0.397 0.126 0.174 0.268 0.352 0.389 0.528 0.104 0.151 0.264 0.469 0.249 0.653-0.247 0.061-0.545-0.072-0.789-0.108-0.022-0.004-0.046-0.008-0.073-0.013-0.086-0.014-0.191-0.039-0.289-0.076-0.039-0.003-0.076-0.008-0.112-0.021-0.079-0.027-0.166-0.053-0.231-0.103-0.059-0.045-0.116-0.088-0.174-0.13-0.037-0.026-0.062-0.061-0.098-0.089-0.030-0.023-0.046-0.040-0.067-0.067-0.048-0.063-0.050-0.138-0.089-0.205-0.045-0.077-0.077-0.134-0.182-0.158-0.086-0.021-0.201-0.063-0.294-0.045-0.001 0.039-0.035 0.052-0.049 0.081-0.013 0.030-0.010 0.057-0.023 0.086-0.009 0.023-0.039 0.034-0.048 0.053-0.012 0.022-0.004 0.045-0.012 0.067-0.019 0.055-0.082 0.101-0.107 0.152-0.028 0.058-0.048 0.117-0.068 0.177-0.015 0.050-0.052 0.106-0.062 0.157-0.005 0.026 0.008 0.042-0.004 0.067-0.009 0.022-0.042 0.039-0.052 0.066-0.008 0.024-0.012 0.050-0.013 0.077 0 0.015 0 0.030 0 0.045 0 0.088 0 0.177-0.003 0.264-0.005 0.197-0.084 0.357-0.13 0.549-0.050 0.211-0.153 0.206-0.361 0.124-0.138-0.055-0.312-0.17-0.406-0.287-0.14-0.174-0.042-0.495-0.314-0.584-0.030 0.073-0.093 0.089-0.131 0.142-0.030 0.041-0.048 0.138-0.076 0.186-0.027 0.045-0.072 0.082-0.099 0.128-0.031 0.052-0.044 0.142-0.079 0.188-0.062 0.086-0.040 0.077-0.138 0.082-0.107 0.006-0.263-0.064-0.37-0.072-0.219-0.017-0.138-0.067-0.281-0.201-0.068-0.064-0.121-0.030-0.184-0.076-0.032-0.023-0.048-0.067-0.080-0.091-0.058-0.044-0.142-0.072-0.195-0.121-0.075-0.071-0.089-0.155-0.142-0.237-0.111-0.174-0.152-0.323-0.21-0.526-0.059-0.21-0.196-0.417-0.231-0.628 0.018 0.206 0.026 0.359 0.085 0.559 0.067 0.225 0.070 0.468 0.017 0.698-0.032 0.134-0.027 0.259-0.032 0.397-0.005 0.156 0.012 0.142-0.129 0.162-0.2 0.031-0.432 0.040-0.55-0.133-0.095-0.138-0.209-0.362-0.229-0.532-0.009-0.084 0.003-0.178 0.004-0.26 0-0.095-0.036-0.146-0.050-0.214-0.042-0.202-0.052-0.41-0.127-0.595-0.064-0.155-0.144-0.28-0.259-0.397-0.099-0.103-0.088-0.115-0.241-0.116-0.076-0.001-0.151 0-0.227 0-0.169 0.001-0.272 0.001-0.405-0.116-0.247-0.219-0.456-0.459-0.572-0.77-0.050-0.138-0.076-0.284-0.122-0.437-0.042-0.138-0.073-0.205-0.16-0.326-0.112-0.155-0.182-0.344-0.289-0.5-0.044-0.064-0.111-0.095-0.151-0.16-0.039-0.062-0.041-0.139-0.075-0.202-0.067-0.12-0.206-0.213-0.318-0.272-0.175-0.091-0.258-0.005-0.3 0.206-0.046 0.236-0.117 0.268-0.353 0.264-0.146-0.001-0.3 0.044-0.403-0.079-0.196-0.231-0.384-0.563-0.484-0.844-0.028-0.079-0.055-0.149-0.095-0.218-0.014-0.024-0.057-0.035-0.070-0.061-0.021-0.039 0.004-0.089-0.012-0.121-0.045-0.101-0.13-0.175-0.179-0.28-0.153-0.327-0.464-0.465-0.715-0.709-0.109-0.106-0.084-0.251-0.178-0.361-0.058-0.070-0.151-0.082-0.207-0.168-0.103-0.151-0.202-0.386-0.21-0.567-0.008-0.158-0.034-0.405 0.014-0.554 0.042-0.135 0.112-0.187 0.119-0.335 0.004-0.073 0.009-0.161-0.005-0.231-0.036-0.171-0.173-0.341-0.272-0.481-0.086-0.12-0.111-0.254-0.178-0.376-0.084-0.149-0.38-0.264-0.546-0.334-0.153-0.063-0.289-0.099-0.452-0.097-0.173 0.001-0.345 0-0.517 0-0.158 0-0.368-0.039-0.517 0.003-0.149 0.041-0.357 0.147-0.533 0.278-0.112 0-0.227 0.010-0.317 0.070-0.126 0.082-0.187 0.267-0.277 0.37-0.063 0.071-0.116 0.129-0.16 0.219-0.037 0.076-0.082 0.095-0.135 0.161-0.085 0.104-0.137 0.246-0.184 0.366-0.071 0.173-0.196 0.38-0.215 0.562-0.025 0.223 0.068 0.3 0.149 0.493 0.057 0.138 0.183 0.314 0.173 0.473-0.004-0.169 0.045-0.312 0.054-0.475 0.001-0.053-0.013-0.111-0.005-0.162 0.014-0.082 0.071-0.142 0.098-0.218 0.049-0.138 0.086-0.227 0.173-0.34 0.052-0.068 0.089-0.153 0.134-0.232-0.008 0.026-0.015 0.053-0.019 0.084 0.39-0.347 0.423-0.465 0.658-0.461 0.192 0.003 0.327 0.004 0.505 0.067 0.122 0.044 0.217 0.076 0.325 0.18 0.107 0.102 0.137 0.228 0.204 0.362 0.055 0.111 0.137 0.197 0.183 0.313 0.039 0.095 0.053 0.2 0.094 0.294 0.059 0.138 0.151 0.3 0.236 0.412 0.21 0.277 0.438 0.555 0.698 0.763 0.156 0.124 0.323 0.285 0.441 0.448 0.101 0.142 0.143 0.286 0.219 0.434 0.075 0.146 0.153 0.223 0.197 0.389 0.041 0.157 0.138 0.276 0.215 0.416 0.14 0.251 0.13 0.546 0.223 0.809 0.149 0.428 0.332 0.832 0.517 1.249 0.084 0.188 0.14 0.385 0.228 0.573 0.054 0.113 0.094 0.197 0.097 0.325 0.006 0.188 0.004 0.371-0.021 0.553 0.099-0.182 0.33-0.255 0.548-0.255 0.178-0.001 0.314-0.010 0.455 0.115 0.116 0.101 0.249 0.317 0.295 0.479 0.018 0.066 0.009 0.129 0.026 0.195 0.034 0.144 0.121 0.236 0.182 0.363 0.095 0.197 0.151 0.416 0.24 0.616 0.054 0.122 0.168 0.375 0.272 0.465 0.124 0.104 0.247 0.138 0.361 0.277 0.189 0.232 0.487 0.448 0.752 0.595 0.345 0.191 0.684 0.381 1.015 0.606 0.247 0.168 0.401 0.313 0.586 0.535 0.106 0.128 0.242 0.224 0.326 0.374 0.077 0.135 0.106 0.269 0.192 0.401 0.067 0.103 0.113 0.169 0.148 0.295 0.106 0.384 0.085 0.769 0.312 1.126-0.019-0.299 0.027-0.611-0.021-0.907-0.030-0.182-0.080-0.313-0.179-0.464-0.072-0.109-0.153-0.191-0.186-0.323-0.039-0.157-0.046-0.466-0.013-0.628 0.026-0.124 0.015-0.072 0.098-0.139 0.127-0.102 0.366-0.174 0.522-0.153 0.214 0.027 0.224 0.169 0.365 0.284 0.17 0.137 0.34 0.232 0.501 0.383 0.082 0.075 0.151 0.119 0.214 0.209 0.095 0.137 0.124 0.305 0.192 0.452 0.062 0.135 0.111 0.171 0.117 0.335 0.006 0.192-0.064 0.553 0.111 0.685 0.095-0.269 0.219-0.526 0.272-0.804 0.094-0.487 0.119-0.988 0.196-1.479 0.036-0.224 0.215-0.416 0.411-0.527 0.116-0.066 0.494-0.143 0.606-0.052 0.071 0.058 0.005 0.192-0.022 0.254-0.039 0.089-0.093 0.179-0.139 0.264-0.046 0.086-0.138 0.166-0.153 0.264-0.027 0.195 0.186 0.385 0.265 0.544 0.149 0.299 0.129 0.561 0.129 0.892 0 0.197 0.084 0.728-0.037 0.892 0.082-0.103 0.124-0.235 0.197-0.344 0.115-0.173 0.271-0.305 0.379-0.484 0.059-0.098 0.067-0.211 0.116-0.305 0.053-0.099 0.137-0.17 0.188-0.271 0.021-0.040 0.039-0.085 0.059-0.128 0.135-0.272 0.387-0.513 0.615-0.714 0.081-0.071 0.16-0.135 0.249-0.195 0.104-0.071 0.353-0.267 0.495-0.237 0.174 0.036 0.267 0.57 0.339 0.705 0.22-0.048 0.178-0.503 0.178-0.684 0-0.201 0.064-0.361 0.124-0.553 0.075-0.245 0.385-0.437 0.59-0.59 0.597-0.446 1.27-0.816 1.79-1.352 0.131-0.135 0.296-0.263 0.407-0.414 0.073-0.098 0.129-0.227 0.204-0.314 0.093-0.108 0.161-0.187 0.242-0.312 0.073-0.113 0.12-0.119 0.134-0.26 0.009-0.090-0.005-0.164 0.012-0.256s0.026-0.311 0.109-0.365c0.073-0.048 0.242-0.012 0.329-0.010 0.152 0.003 0.2 0.012 0.259-0.13 0.064-0.151 0.042-0.296 0.077-0.451 0.015-0.066 0.046-0.115 0.053-0.186 0.008-0.073-0.015-0.151-0.005-0.224 0.014-0.116 0.063-0.214 0.070-0.332 0.005-0.094-0.001-0.192-0.004-0.287-0.004-0.249 0.070-0.408 0.134-0.644 0.077-0.287 0.095-0.572 0.158-0.856 0.059-0.268 0.139-0.526 0.21-0.791 0.066-0.246 0.155-0.49 0.289-0.709 0.192-0.316 0.381-0.643 0.631-0.924 0.366-0.412 0.77-0.768 1.297-0.939 0.131-0.042 0.276-0.112 0.41-0.135 0.144-0.024 0.326 0.003 0.473 0.003h0.034c0.035 0.003 0.070 0.006 0.109 0.015 0.079 0.017 0.13 0.044 0.214 0.049 0.128 0.009 0.343 0.079 0.459 0.151 0.255 0.158 0.451 0.407 0.689 0.58 0.152 0.111 0.258 0.157 0.307 0.361 0.034 0.144 0.012 0.316 0.012 0.464 0 0.155 0 0.309 0 0.464 0 0.067 0.018 0.157 0.003 0.222-0.018 0.079-0.067 0.098-0.058 0.196 0.050-0.040 0.059-0.107 0.093-0.158 0.042-0.066 0.125-0.094 0.164-0.158 0.026-0.042 0.014-0.106 0.037-0.152 0.017-0.030 0.057-0.039 0.071-0.068 0.017-0.032-0.003-0.071 0.009-0.099 0.017-0.039 0.049-0.064 0.058-0.106 0.008-0.035-0.012-0.076-0.006-0.112 0.009-0.052 0.042-0.086 0.053-0.135 0.017-0.088-0.012-0.183 0.009-0.268 0.019-0.088 0.049-0.113 0.049-0.224-0.001-0.090-0.001-0.18 0-0.271 0.001-0.215-0.042-0.429-0.214-0.577z"></path>
<path d="M18.931 10.699c0.028 0.022 0.049 0.034 0.067 0.041-0.017-0.022-0.035-0.044-0.067-0.041z"></path>
<path d="M15.992 14.733c0.042-0.037 0.089-0.061 0.13-0.098 0.027-0.026 0.049-0.057 0.077-0.084 0.072-0.064 0.148-0.133 0.223-0.198 0.059-0.050 0.125-0.084 0.188-0.124-0.019 0.031-0.039 0.063-0.066 0.095-0.090 0.106-0.217 0.149-0.305 0.26-0.039 0.049-0.067 0.046-0.099 0.108-0.036 0.070-0.028 0.127-0.045 0.2-0.026 0.112-0.102 0.21-0.088 0.332 0.035-0.124 0.156-0.206 0.225-0.308 0.075-0.107 0.148-0.153 0.247-0.233 0.173-0.14 0.336-0.267 0.521-0.384 0.089-0.057 0.174-0.104 0.254-0.162 0.061-0.044 0.121-0.077 0.186-0.106 0.009 0.032 0.015 0.064 0.017 0.095 0.49 0.294 0.679 0.173 0.772 0.131 0.189-0.082 0.349-0.169 0.488-0.331 0.012-0.013 0.021-0.027 0.032-0.041 0.124-0.085 0.24-0.182 0.349-0.282 0.098-0.090 0.202-0.184 0.291-0.282 0.042-0.048 0.094-0.076 0.139-0.119 0.073-0.068 0.149-0.155 0.217-0.229 0.097-0.107 0.193-0.228 0.232-0.366 0.041-0.144 0.018-0.331 0.017-0.483-0.003-0.142-0.115-0.273-0.184-0.397-0.057-0.103-0.104-0.213-0.144-0.318-0.027-0.073-0.088-0.135-0.104-0.213-0.019-0.090-0.068-0.187-0.148-0.246-0.077-0.057-0.156-0.089-0.241-0.126-0.039-0.018-0.068-0.045-0.108-0.061-0.022-0.008-0.040-0.012-0.066-0.023 0.010 0.013 0.019 0.024 0.032 0.034 0.040 0.030 0.063 0.048 0.101 0.084 0.054 0.052 0.112 0.099 0.165 0.153 0.085 0.090 0.109 0.202 0.166 0.304 0.024 0.044 0.055 0.058 0.068 0.113 0.010 0.048 0.015 0.088 0.032 0.134 0.053 0.144 0.059 0.31 0.066 0.473 0.005 0.164 0.107 0.303 0.059 0.482-0.045 0.169-0.18 0.303-0.282 0.447-0.086 0.124-0.192 0.229-0.284 0.348-0.052 0.068-0.102 0.138-0.155 0.204 0.085-0.18 0.171-0.278 0.169-0.484-0.001-0.093 0.004-0.192 0.009-0.294 0.006-0.012 0.013-0.024 0.019-0.036 0.073-0.149 0.066-0.273 0.066-0.435 0-0.057 0.010-0.131-0.003-0.187-0.012-0.046-0.027-0.063-0.030-0.119-0.004-0.103-0.082-0.188-0.125-0.273-0.059-0.117-0.188-0.202-0.3-0.268-0.102-0.061-0.183-0.148-0.299-0.198-0.109-0.046-0.193-0.115-0.307-0.149-0.111-0.034-0.207-0.094-0.316-0.137-0.054-0.022-0.125-0.050-0.182-0.063-0.036-0.009-0.079-0.027-0.106-0.034-0.064-0.013-0.131 0.006-0.193-0.005-0.055-0.012-0.091-0.034-0.149-0.036-0.061-0.003-0.122 0.003-0.183 0.001-0.014 0-0.059-0.008-0.070-0.003-0.039 0.018-0.010 0.023-0.034 0.048-0.054 0.059-0.135 0.109-0.196 0.17-0.064 0.064-0.133 0.125-0.187 0.198-0.035 0.049-0.054 0.102-0.085 0.151-0.041 0.063-0.084 0.091-0.111 0.166-0.039 0.109-0.084 0.201-0.082 0.316 0.001 0.111-0.021 0.242 0.008 0.349 0.001 0.005 0.003 0.010 0.004 0.015-0.024 0.202-0.019 0.43 0.072 0.558 0.005 0.006 0.012 0.012 0.017 0.017-0.001 0.013-0.001 0.027-0.001 0.040l0.099 0.041c0 0.135 0 0.272 0.001 0.407 0 0.089-0.022 0.148-0.058 0.224s-0.098 0.131-0.143 0.207c-0.040 0.070-0.080 0.143-0.107 0.215-0.035 0.095-0.086 0.174-0.124 0.268-0.031 0.077-0.050 0.149-0.073 0.231-0.024 0.089-0.089 0.182-0.125 0.265-0.015 0.037-0.12 0.18-0.097 0.215 0.046 0.070 0.213-0.138 0.245-0.166z"></path>
<path d="M14.795 12.99c0.005-0.018 0.010-0.041 0.014-0.066h0.004c0-0.021 0.001-0.041 0.004-0.061 0-0.006 0.001-0.013 0.003-0.019 0.021-0.16 0.095-0.298 0.094-0.469-0.003-0.165 0.008-0.332 0-0.497-0.008-0.135-0.115-0.214-0.207-0.307-0.091-0.091-0.164-0.189-0.249-0.282-0.104-0.111-0.217-0.217-0.339-0.308-0.039-0.028-0.088-0.034-0.13-0.058-0.039-0.023-0.054-0.050-0.106-0.059-0.036-0.008-0.079 0.006-0.116 0.003-0.055-0.006-0.093-0.044-0.149-0.028-0.072 0.019-0.117 0.119-0.165 0.168-0.032 0.034-0.068 0.066-0.099 0.099-0.036 0.039-0.063 0.081-0.099 0.119-0.064 0.063-0.12 0.109-0.168 0.193-0.034 0.058-0.071 0.113-0.107 0.17-0.211 0.18-0.402 0.396-0.561 0.533-0.253 0.222-0.334 0.496-0.39 0.818-0.023 0.137-0.004 0.322 0.003 0.463 0.008 0.183 0.113 0.258 0.211 0.394 0.104 0.147 0.21 0.247 0.331 0.372 0.049 0.052 0.095 0.106 0.144 0.156 0.059 0.062 0.121 0.094 0.179 0.143 0.109 0.090 0.192 0.189 0.317 0.262 0.142 0.080 0.31 0.152 0.655 0.089 0.006 0.008 0.012 0.015 0.018 0.023 0.015 0.049 0.030 0.099 0.054 0.144 0.034 0.061 0.075 0.117 0.109 0.179 0.030 0.054 0.070 0.102 0.109 0.152 0 0.001 0 0.001 0 0.001 0.032 0.103 0.045 0.21 0.066 0.32 0.245 0.015 0.184-0.671 0.186-0.822 0-0.005 0-0.009 0-0.014 0.001-0.005 0.001-0.012 0.003-0.017 0.015-0.062 0.035-0.099 0.035-0.166 0-0.075 0.017-0.144 0.032-0.217 0.015-0.068 0.045-0.137 0.059-0.207 0.005-0.026 0.006-0.053 0.006-0.079 0.049-0.072 0.098-0.144 0.137-0.219 0.079-0.151 0.062-0.294 0.062-0.461 0-0.077 0.001-0.155 0-0.232-0.001-0.097 0.028-0.137 0.050-0.213z"></path>
</svg>
