<!-- Generated by IcoMoon.io -->
<svg version="1.1" xmlns="http://www.w3.org/2000/svg" width="32" height="32" viewBox="0 0 32 32">
<path d="M11.131 17.694c-0.208-0.34-1.041 0.547-1.213 0.771-0.513 0.665-0.527 1.481-0.527 2.276 0 0.596 0.122 1.352-0.027 1.925-0.168 0.64-0.060 1.315-0.094 1.986-0.043 0.806-0.593 1.025-1.309 0.998-0.299-0.011-0.499-0.134-0.712-0.344-0.299-0.29-0.628-0.36-1.063-0.284-0.463 0.080-0.502 0.357-0.719 0.705-0.095 0.152-0.227 0.262-0.303 0.415-0.084 0.172-0.166 0.381-0.232 0.563-0.109 0.299-0.219 0.65-0.418 0.907-0.139 0.181-0.372 0.301-0.5 0.489-0.202 0.299-0.104 0.606 0.283 0.661 0.138 0.020 0.247 0.026 0.372 0.055 0.179 0.045 0.397 0.118 0.594 0.159 0.647 0.134 1.412 0.028 2.073 0.028 0.726 0 1.454-0.010 2.179-0.001 0.343 0.004 0.645-0.107 0.995-0.121 0.179-0.007 0.26-0.043 0.424-0.127 0.141-0.074 0.311-0.132 0.452-0.215 0.217-0.128 0.363-0.375 0.549-0.53 0.38-0.316 0.525-0.62 0.741-1.062 0.148-0.301 0.129-0.739 0.223-1.082 0.055-0.205 0.192-0.385 0.227-0.591 0.028-0.161-0.041-0.337-0.013-0.498 0.034-0.186 0.124-0.301 0.134-0.498 0.009-0.144-0.003-0.29-0.003-0.434 0-0.343-0.045-0.722-0.003-1.061 0.036-0.283 0.101-0.452 0.374-0.496 0.32-0.051 0.651 0.11 0.871 0.313 0.317 0.293 0.58 0.451 1.001 0.189 0.385-0.24 0.604-0.556 0.401-0.997-0.178-0.384-0.365-0.715-0.566-1.090-0.136-0.257-0.378-0.53-0.454-0.832-0.058-0.236-0.030-0.452-0.102-0.691-0.050-0.161-0.135-0.33-0.162-0.493-0.036-0.218-0.001-0.255-0.117-0.436-0.095-0.151-0.245-0.311-0.371-0.438-0.782-0.789-2.215-0.493-2.985-0.121z"></path>
<path d="M18.873 19.931c-0.324-0.057-0.741 0.253-0.984 0.435-0.266 0.2-0.529 0.455-0.725 0.718-0.49 0.658-0.529 1.457-0.529 2.265 0 0.183-0.023 0.381-0.003 0.563 0.023 0.195 0.108 0.294 0.131 0.49 0.038 0.337 0.064 0.889-0.074 1.184-0.094 0.199-0.239 0.341-0.306 0.562-0.051 0.173-0.082 0.313-0.151 0.492-0.081 0.208-0.121 0.412-0.188 0.624-0.058 0.183-0.195 0.421-0.146 0.603 0.188 0.057 0.38-0.030 0.56 0.014 0.101 0.024 0.161 0.097 0.25 0.118 0.236 0.057 0.542 0.009 0.789 0.010 0.569 0.006 1.061-0.257 1.254-0.829-0.040 0.182 0.227 0.482 0.338 0.614 0.162 0.195 0.397 0.328 0.603 0.463 0.453 0.301 0.822 0.674 1.137 1.122 0.134 0.189 0.264 0.323 0.37 0.522 0.169 0.32 0.272 0.347 0.535 0.529 0.462 0.318 0.924 0.694 1.481 0.817 0.125 0.028 0.266 0.027 0.38 0.055 0.117 0.030 0.242 0.034 0.374 0.055 0.316 0.053 0.62 0.183 0.931 0.244 0.596 0.119 1.315 0.011 1.926 0.011 0.624 0 1.311 0.080 1.928 0.006 0.725-0.088 0.78-0.887 0.654-1.47-0.044-0.206-0.181-0.451-0.31-0.65-0.19-0.291-0.299-0.566-0.53-0.808-0.199-0.205-0.425-0.388-0.627-0.606-0.237-0.257-0.395-0.641-0.769-0.708-0.762-0.134-1.53 0.135-2.273 0.134-0.385-0.001-1.678 0.185-1.564-0.498 0.085-0.516 0.822-1.026 1.248-1.211 0.294-0.129 0.699-0.19 0.765-0.556 0.060-0.34-0.215-0.566-0.508-0.597-0.247-0.026-0.564-0.031-0.81-0.001-0.388 0.047-0.736 0.244-1.073 0.377-0.237 0.094-0.441 0.122-0.672 0.253-0.138 0.077-0.287 0.154-0.432 0.218-0.236 0.104-0.523 0.23-0.795 0.142-0.631-0.205-1.018-0.931-1.187-1.48-0.219-0.705-0.401-1.386-0.128-2.115 0.114-0.304 0.257-0.637 0.493-0.873 0.27-0.269 0.654-0.314 0.382-0.745-0.427-0.68-1.281-0.618-1.746-0.495z"></path>
<path d="M14.233 16.327c0.199-0.024 0.172-0.27 0.245-0.424 0.078-0.163 0.225-0.264 0.262-0.446 0.061-0.297-0.010-0.688-0.009-0.994 0.001-0.442-0.055-0.556-0.374-0.87-0.284-0.283-0.57-0.564-0.931-0.735-0.26-0.124-0.409-0.192-0.631-0.381-0.289-0.247-0.62-0.471-0.951-0.653-0.387-0.213-0.741-0.489-1.090-0.745s-0.516-0.473-0.745-0.819c-0.161-0.24-0.326-0.49-0.466-0.769-0.135-0.267-0.331-0.644-0.395-0.933-0.065-0.297-0.009-0.68-0.009-0.984 0-0.34-0.040-0.621 0.155-0.915 0.314-0.472 0.67-0.917 0.962-1.397 0.134-0.216 0.23-0.372 0.338-0.618 0.134-0.303 0.21-0.61 0.273-0.931 0.061-0.306 0.088-0.879-0.014-1.184-0.043-0.128-0.439-0.638-0.597-0.633-0.229 0.007-0.306 0.611-0.483 0.766-0.172 0.148-0.481 0.152-0.698 0.122-0.192-0.027-0.355-0.175-0.549-0.112-0.014 0.247 0.34 0.503 0.368 0.792 0.013 0.127-0.021 0.246 0.006 0.372 0.036 0.161 0.108 0.263 0.117 0.435 0.036 0.651-0.091 1.071-0.438 1.615-0.311 0.493-0.678 0.997-0.796 1.554-0.058 0.272-0.053 0.532-0.121 0.809-0.082 0.336-0.141 0.583-0.139 0.931 0.001 0.272-0.054 0.573 0.091 0.815 0.097 0.161 0.272 0.297 0.407 0.428 0.338 0.328 0.775 0.658 1.171 0.901 0.25 0.155 0.569 0.216 0.823 0.374 0.212 0.131 0.399 0.301 0.608 0.434 0.59 0.372 1.258 0.731 1.653 1.331 0.040 0.058 0.048 0.138 0.090 0.196 0.063 0.087 0.169 0.135 0.227 0.213 0.036 0.047 0.124 0.237 0.138 0.291 0.071 0.27 0.011 0.64 0.011 0.921 0 0.283-0.094 0.749-0.009 1.007 0.091 0.274 0.721 0.519 1.5 0.236z"></path>
<path d="M18.992 19.061c-0.037-0.354-0.307-0.691-0.5-0.96-0.21-0.293-0.303-0.689-0.375-1.029-0.050-0.226-0.061-0.765 0.024-0.991 0.077-0.094 0.155-0.188 0.235-0.279 0.064-0.112 0.112-0.23 0.148-0.355 0.132-0.189 0.283-0.226 0.475-0.331 0.523-0.287 1.146-0.648 1.734-0.782 0.623-0.141 1.332-0.398 1.788-0.869 0.176-0.183 0.409-0.354 0.6-0.495 0.176-0.131 0.262-0.178 0.348-0.37 0.071-0.156 0.090-0.338 0.149-0.5 0.127-0.344 0.229-0.496 0.22-0.87-0.009-0.382-0.146-0.674-0.402-0.962-0.381-0.427-0.813-0.616-1.336-0.749-0.368-0.094-0.785-0.058-1.156-0.149-0.178-0.043-0.277-0.111-0.456-0.131-0.138-0.014-0.337 0.081-0.367-0.090 0.171-0.034 0.317-0.082 0.459-0.183 0.148-0.104 0.142-0.247 0.382-0.242 0.173-0.405-0.348-0.621-0.436-0.951 0.185-0.102 0.485 0.090 0.65 0.172 0.29 0.142 0.54 0.317 0.825 0.397 0.539 0.155 0.989 0.465 1.402 0.835 0.233 0.208 0.466 0.442 0.55 0.751 0.043 0.154 0.024 0.209 0.101 0.344 0.058 0.101 0.121 0.159 0.173 0.272 0.134 0.284 0.095 0.567 0.172 0.864 0.074 0.294 0.063 0.574 0.063 0.881-0.001 0.658-0.199 1.179-0.569 1.734-0.148 0.222-0.422 0.716-0.668 0.819-0.105 0.044-0.256 0.031-0.38 0.084-0.145 0.064-0.267 0.195-0.398 0.255-0.255 0.119-0.579 0.188-0.847 0.28-0.233 0.081-0.488 0.172-0.746 0.249-0.255 0.077-0.466 0.159-0.687 0.37-0.2 0.19-0.458 0.364-0.587 0.591-0.151 0.266-0.232 0.522-0.215 0.839 0.014 0.293 0.148 0.517 0.222 0.808 0.060 0.24 0.121 0.689-0.122 0.843-0.203 0.129-0.786 0.026-1.028 0.026 0.061 0 0.122 0 0.556-0.124z"></path>
</svg>
