<!-- Generated by IcoMoon.io -->
<svg version="1.1" xmlns="http://www.w3.org/2000/svg" width="33" height="32" viewBox="0 0 33 32">
<path d="M16.286 31.691c-0.065-0.17 0.158-0.759 0.497-1.31 0.5-0.812 0.576-1.090 0.405-1.473-0.116-0.26-0.437-0.529-0.714-0.598-0.454-0.114-0.49-0.204-0.368-0.923 0.129-0.766 0.096-0.825-0.875-1.537-0.996-0.731-1.78-0.919-2.344-0.561-0.242 0.154-0.234 0.262 0.052 0.671 0.188 0.268 0.341 0.796 0.341 1.173 0 0.592 0.072 0.685 0.523 0.685 0.288 0 0.523 0.094 0.523 0.209 0 0.255-1.041 0.272-1.434 0.023-0.178-0.113-0.231-0.345-0.143-0.624 0.35-1.103-0.439-1.643-1.338-0.915-0.553 0.448-0.858 2.57-0.442 3.072 0.422 0.509-0.116 2.151-0.56 1.707-0.069-0.069-0.016-0.364 0.118-0.657 0.196-0.431 0.178-0.63-0.094-1.045-0.231-0.353-0.298-0.759-0.214-1.299 0.153-0.987 0.268-1.561 0.368-1.841 0.043-0.12-0.174-0.52-0.483-0.889-0.43-0.513-0.729-0.67-1.275-0.67-0.793 0-1.244 0.395-1.55 1.359-0.133 0.42-0.458 0.751-0.982 1.001-0.506 0.242-0.859 0.593-0.999 0.993-0.296 0.848-0.682 0.803-0.511-0.060 0.142-0.716 0.788-1.351 1.48-1.454 0.278-0.042 0.486-0.324 0.639-0.871 0.124-0.445 0.386-0.926 0.581-1.069s0.355-0.358 0.355-0.478c0-0.314-0.887-1.931-1.059-1.931-0.080 0-0.258 0.306-0.397 0.68-0.373 1.008-0.523 1.257-0.901 1.495-0.558 0.352-0.672-0.039-0.138-0.472 0.451-0.365 0.469-0.449 0.216-0.999l-0.277-0.6-0.343 0.523c-0.189 0.288-0.689 0.865-1.112 1.284s-0.878 1.124-1.012 1.568c-0.253 0.84-1.15 2.129-1.346 1.934-0.193-0.193 1.792-3.928 2.154-4.053 0.189-0.065 0.602-0.492 0.918-0.948 0.612-0.885 0.932-1.028 1.133-0.505 0.105 0.275 0.205 0.25 0.641-0.157l0.516-0.482 0.584 0.696c0.513 0.611 0.634 0.665 0.999 0.437 0.339-0.212 0.6-0.191 1.435 0.116 0.561 0.206 1.302 0.378 1.647 0.381 0.811 0.009 3.6-0.755 3.917-1.072 0.341-0.341 1.464-0.305 1.951 0.062 0.467 0.353 1.47 0.42 1.661 0.111 0.219-0.354 0.778-0.234 1.613 0.345 0.629 0.436 1.077 0.563 2.102 0.596 0.717 0.023 1.422-0.050 1.567-0.163 0.267-0.208 1.509-0.11 2.215 0.174 0.367 0.147 0.37 0.122 0.061-0.476-0.386-0.747-0.288-0.893 0.6-0.893 0.53 0 0.925 0.255 1.952 1.256 0.708 0.691 1.287 1.415 1.287 1.609s0.246 0.61 0.546 0.923c0.668 0.697 0.606 1.178-0.089 0.691-0.265-0.186-0.722-0.845-1.015-1.464-0.335-0.708-0.789-1.285-1.221-1.552-0.378-0.234-0.741-0.564-0.807-0.735-0.108-0.281-0.759-0.455-0.759-0.203 0 0.058 0.282 0.496 0.627 0.972 0.672 0.928 0.774 1.41 0.381 1.803-0.354 0.354 0.146 1.208 0.887 1.515 0.321 0.133 0.737 0.41 0.923 0.616 0.442 0.489 1.178 1.936 1.049 2.064-0.176 0.176-0.939-0.646-0.939-1.013 0-0.41-0.469-0.862-1.367-1.316-0.889-0.45-1.289-1.257-1.002-2.019 0.297-0.786 0.099-1.046-0.975-1.288-1.076-0.242-1.202-0.153-0.846 0.598 0.546 1.154 0.628 1.419 0.56 1.829-0.101 0.609-0.431 0.49-0.552-0.199-0.143-0.811-0.65-1.103-1.357-0.782-0.418 0.191-0.521 0.353-0.42 0.668 0.135 0.426-0.186 0.585-0.419 0.207-0.071-0.115-0.451-0.209-0.844-0.209-0.694 0-0.71 0.020-0.583 0.68 0.073 0.374 0.304 0.903 0.515 1.175 0.246 0.319 0.339 0.674 0.259 0.993-0.107 0.427-0.049 0.498 0.408 0.498 0.293 0 0.592 0.095 0.664 0.211 0.205 0.331-0.101 1.044-0.448 1.044-0.218 0-0.273-0.127-0.181-0.418 0.109-0.344 0.038-0.418-0.404-0.418-0.484 0-0.537-0.080-0.537-0.811 0-0.446-0.131-0.92-0.292-1.053s-0.354-0.574-0.43-0.98c-0.115-0.615-0.284-0.801-1.015-1.116-0.996-0.43-1.288-0.307-1.474 0.619-0.068 0.342-0.229 0.623-0.355 0.623-0.146 0-0.182-0.223-0.098-0.608 0.096-0.436 0.035-0.687-0.217-0.889-0.193-0.155-0.595-0.54-0.895-0.856s-0.642-0.575-0.761-0.575c-0.338 0-0.803 1.69-0.538 1.955 0.121 0.121 0.22 0.567 0.22 0.99 0 0.59 0.122 0.85 0.519 1.111 0.792 0.519 0.859 1.199 0.227 2.278-0.31 0.53-0.489 1.077-0.414 1.271 0.088 0.23 0.019 0.341-0.212 0.341-0.188 0-0.396-0.139-0.461-0.309zM14.327 17.346c-1.352-0.61-2.646-1.962-3.139-3.279-1.829-4.889 3.095-9.683 7.749-7.543 1.593 0.732 2.386 1.468 3.053 2.83 1.521 3.108-0.036 7.013-3.229 8.101-1.346 0.459-3.282 0.411-4.434-0.109zM15.373 17.153c0-0.115-0.101-0.209-0.225-0.209-0.486 0-2.708-1.936-3.051-2.657-0.198-0.418-0.393-0.662-0.433-0.542-0.241 0.722 2.222 3.147 3.656 3.6 0.029 0.009 0.052-0.078 0.052-0.193zM18.84 16.946c0.481-0.003 1.888-1.222 2.537-2.199 0.458-0.689 0.821-1.884 0.514-1.695-0.105 0.065-0.247 0.401-0.317 0.748-0.191 0.953-2.194 2.932-2.972 2.936-0.339 0.002-0.757 0.104-0.929 0.227-0.246 0.176-0.201 0.198 0.209 0.104 0.288-0.066 0.719-0.121 0.958-0.123zM14.9 15.611c-1.173-0.721-2.037-1.552-2.040-1.963-0.002-0.2-0.102-0.506-0.222-0.678-0.161-0.231-0.181-0.12-0.077 0.418 0.078 0.403 0.248 0.865 0.379 1.028 0.409 0.51 2.105 1.68 2.433 1.679 0.172-0.001-0.040-0.219-0.472-0.485zM18.851 15.702c0.841-0.406 1.972-1.759 1.944-2.325-0.012-0.252-0.038-0.25-0.157 0.014-0.368 0.819-1.274 1.757-2.129 2.204-1.132 0.592-0.847 0.681 0.341 0.107zM18.165 13.503c0.453-0.419 0.553-0.699 0.553-1.532 0-1.287-0.597-1.929-1.931-2.080-0.776-0.088-1.015-0.016-1.606 0.482-0.658 0.554-0.688 0.639-0.571 1.623 0.171 1.445 0.747 2.020 2.023 2.020 0.749 0 1.108-0.12 1.532-0.513zM15.381 13.349c-0.624-0.67-0.592-2.242 0.058-2.852 0.753-0.707 2.117-0.53 2.803 0.364 0.472 0.614 0.325 1.868-0.285 2.433-0.731 0.677-1.971 0.704-2.575 0.055zM12.295 9.079c0.186-0.358 0.626-0.769 0.976-0.914s0.637-0.327 0.637-0.404c0-0.077 0.53-0.321 1.177-0.541s1.066-0.437 0.93-0.482c-0.33-0.11-1.348 0.306-2.671 1.092-0.87 0.516-1.172 0.849-1.516 1.667-0.236 0.562-0.423 1.22-0.416 1.464 0.008 0.268 0.118 0.113 0.278-0.394 0.146-0.46 0.417-1.129 0.604-1.487zM13.672 9.21c0.431-0.462 0.966-0.842 1.189-0.843s0.547-0.105 0.72-0.229c0.261-0.188 0.249-0.205-0.069-0.101-0.211 0.068-0.545 0.124-0.742 0.124s-0.754 0.38-1.238 0.844c-0.746 0.717-0.874 0.961-0.845 1.621 0.033 0.767 0.034 0.768 0.118 0.1 0.051-0.412 0.39-1.004 0.867-1.516zM21.768 10.144c-0.182-0.278-0.331-0.63-0.331-0.783 0-0.333-1.573-1.884-2.277-2.245-0.79-0.406-1.696-0.622-1.696-0.405 0 0.107 0.152 0.194 0.338 0.194 1.031 0 3.427 1.946 3.427 2.784 0 0.166 0.141 0.419 0.314 0.562s0.325 0.46 0.338 0.705c0.020 0.368 0.041 0.38 0.122 0.069 0.054-0.207-0.051-0.604-0.233-0.881zM20.375 9.784c-0.257-0.376-0.664-0.871-0.905-1.101-0.491-0.469-1.797-1-1.797-0.73 0 0.096 0.278 0.235 0.619 0.31 0.642 0.141 1.748 1.238 2.161 2.143 0.131 0.286 0.272 0.417 0.314 0.291s-0.134-0.537-0.391-0.912z"></path>
</svg>
