<!-- Generated by IcoMoon.io -->
<svg version="1.1" xmlns="http://www.w3.org/2000/svg" width="32" height="32" viewBox="0 0 32 32">
<path d="M23.239 22.018v-0.032z"></path>
<path d="M22.826 23.86c0.006-0.028 0.027-0.051 0.052-0.065-0.058 0.003-0.116-0.003-0.172 0.009-0.007 0.002-0.023 0.023-0.037 0.026-0.032 0.007-0.063-0.006-0.097 0.005-0.051 0.015-0.1 0.047-0.152 0.065-0.064 0.022-0.122 0.024-0.198 0.024-0.053 0-0.106-0.004-0.159-0.001-0.058 0.003-0.101 0.030-0.159 0.033-0.063 0.003-0.128-0-0.19-0.001-0.074-0.001-0.121 0.021-0.19 0.033-0.103 0.018-0.229-0.002-0.333-0.002-0.061 0-0.122-0.004-0.182 0.007-0.086 0.017-0.17 0.015-0.256 0.032-0.154 0.030-0.302 0.014-0.46 0.024-0.068 0.004-0.12 0.032-0.19 0.033-0.080 0.001-0.143 0.026-0.222 0.031-0.131 0.009-0.261 0.066-0.395 0.064-0.080-0.002-0.132 0.025-0.208 0.033-0.090 0.010-0.173-0.010-0.261 0.014-0.074 0.020-0.155 0.027-0.231 0.040-0.072 0.013-0.144-0.002-0.214 0.014s-0.129 0.025-0.206 0.025c-0.067-0-0.142-0.010-0.206 0.007-0.023 0.006-0.039 0.022-0.063 0.026-0.031 0.005-0.066-0.010-0.097-0.003-0.048 0.012-0.068 0.034-0.126 0.033-0.12-0.002-0.263 0.022-0.381 0.002-0.060-0.010-0.096-0.034-0.159-0.033s-0.127-0.001-0.19-0c-0.058 0.001-0.077-0.017-0.126-0.032-0.063-0.020-0.127-0.019-0.192-0.029-0.036-0.006-0.060-0.029-0.095-0.035-0.026-0.004-0.055 0.009-0.080 0.003-0.015-0.004-0.048-0.026-0.054-0.027-0.044-0.006-0.027 0.003-0.064 0.018-0.063 0.025-0.232 0.092-0.177 0.192 0.048 0.088 0.198 0.070 0.28 0.070 0.132 0 0.233 0.015 0.348 0.064 0.085 0.037 0.192 0.031 0.287 0.056 0.063 0.016 0.127-0.006 0.19 0.005 0.024 0.004 0.040 0.020 0.063 0.026 0.044 0.011 0.084-0.002 0.127 0.005 0.062 0.011 0.092 0.034 0.159 0.033 0.058-0.001 0.116 0 0.175 0h0.365c0.231 0 0.467-0.013 0.698-0.001 0.068 0.004 0.12 0.033 0.191 0.032 0.064-0.001 0.128 0.001 0.191 0 0.078-0.001 0.14 0.026 0.215 0.033 0.078 0.008 0.168 0.003 0.246-0.001 0.063-0.003 0.112-0.029 0.174-0.033 0.052-0.003 0.108 0.008 0.159 0.001 0.056-0.007 0.083-0.030 0.142-0.033 0.068-0.004 0.138 0 0.207 0 0.053 0 0.106 0.004 0.159 0.001 0.057-0.003 0.101-0.030 0.159-0.033 0.141-0.008 0.252-0.014 0.381-0.072 0.14-0.062 0.296-0.092 0.444-0.126 0.166-0.038 0.346-0.044 0.507-0.094 0.138-0.042 0.279-0.102 0.414-0.153s0.276-0.087 0.412-0.12c0.107-0.026 0.214-0.048 0.31-0.109 0.177-0.113-0.025-0.176-0.118-0.216-0.089-0.038-0.235-0.053-0.325-0.008-0.068 0.034-0.108 0.041-0.184 0.040-0.091-0-0.16-0.016 0.095 0.064z"></path>
<path d="M25.207 22.431c0.040 0 0.088 0.006 0.128 0.001 0.037-0.005 0.050-0.022 0.081-0.030 0.071-0.017 0.162-0.003 0.235-0.003 0.040 0 0.088 0.006 0.128 0.001 0.037-0.005 0.050-0.022 0.081-0.030 0.080-0.019 0.186-0.003 0.269-0.003 0.176 0.001 0.332-0.047 0.49-0.127s0.333-0.127 0.477-0.235c0.052-0.039 0.087-0.080 0.128-0.129 0.047-0.057 0.177-0.142 0.174-0.223-0.002-0.061-0.078-0.121-0.128-0.151-0.079-0.047-0.157-0.094-0.24-0.135-0.065-0.032-0.148-0.087-0.213-0.104-0.075-0.019-0.154-0.021-0.228-0.042-0.033-0.010-0.042-0.025-0.081-0.030-0.052-0.006-0.078-0.011-0.128-0.024-0.039-0.010-0.072-0.006-0.112-0.007-0.058-0.002-0.062-0.023-0.109-0.034-0.016-0.004-0.035 0.007-0.050 0.003-0.019-0.005-0.039-0.022-0.054-0.026-0.039-0.011-0.079-0.008-0.12-0.007-0.091 0.001-0.183-0.016-0.27-0.034-0.094-0.020-0.174-0.050-0.27-0.060-0.042-0.004-0.056-0.026-0.093-0.034-0.041-0.010-0.114 0.028-0.126-0.023 0.085-0.027 0.135 0.026 0.218 0.024 0.085-0.001 0.169 0 0.254 0 0.151 0 0.33-0.028 0.478-0.002 0.047 0.008 0.078 0.032 0.127 0.034 0.030 0.001 0.065-0.008 0.095-0.002 0.047 0.008 0.078 0.032 0.127 0.034 0.042 0.002 0.085-0.001 0.127-0.001 0.082 0 0.145 0.005 0.222 0.025 0.034 0.009 0.063 0 0.095 0.005 0.047 0.008 0.077 0.032 0.127 0.034 0.142 0.006 0.278 0.045 0.413 0.062 0.063 0.008 0.129 0.033 0.19 0.048 0.065 0.016 0.124 0.029 0.19 0.056 0.138 0.056 0.256 0.078 0.381 0.159 0.078 0.050 0.064 0.079 0.095 0.152 0.026 0.061 0.036 0.122 0.059 0.181-0.042 0.027-0.012 0.061-0.032 0.098-0.012 0.020-0.048 0.045-0.065 0.062-0.054 0.050-0.118 0.092-0.182 0.127-0.072 0.040-0.144 0.044-0.215 0.079-0.060 0.030-0.103 0.070-0.166 0.095-0.081 0.033-0.169 0.037-0.255 0.064-0.060 0.019-0.113 0.049-0.166 0.079-0.045 0.025-0.067 0.039-0.12 0.041-0.045 0.002-0.069 0.017-0.102 0.024-0.035 0.007-0.082-0.004-0.114 0.013-0.021 0.011-0.050 0.043-0.070 0.057-0.129 0.090-0.283 0.073-0.42 0.119-0.153 0.052-0.277 0.14-0.437 0.168-0.041 0.007-0.086-0.008-0.128-0.002-0.044 0.006-0.054 0.025-0.093 0.034s-0.082-0.003-0.122 0.005c-0.034 0.007-0.055 0.025-0.102 0.025-0.084-0.001-0.158 0.008-0.23-0.024-0.028-0.012-0.065-0.020-0.088-0.039-0.028-0.023-0.026-0.037-0.049-0.068 0.013 0.028 0.046 0.040 0.076 0.042 0.002 0.009 0.004 0.017-0.089-0.324z"></path>
<path d="M23.328 21.839c0-0.001 0.002-0.002 0.002-0.003-0.003-0.001-0.004-0-0.002 0.003z"></path>
<path d="M8.012 21.836c0 0.001 0.002 0.002 0.002 0.003 0.002-0.003 0-0.004-0.002-0.003z"></path>
<path d="M24.159 19.891c0.090 0.002 0.17-0.034 0.254-0.056 0.088-0.023 0.137 0.026 0.222 0.025 0.084-0.001 0.17-0.005 0.254-0.001 0.050 0.003 0.079 0.026 0.127 0.034 0.047 0.008 0.096-0.009 0.143 0.001 0.087 0.019 0.185 0.031 0.272 0.061 0.1 0.034 0.198 0.024 0.299 0.048 0.193 0.045 0.385 0.112 0.581 0.144 0.082 0.013 0.163 0.055 0.245 0.064 0.097 0.010 0.177 0.032 0.27 0.055 0.043 0.011 0.084 0.004 0.127 0.014 0.037 0.009 0.074 0.030 0.111 0.041 0.084 0.023 0.156 0.032 0.238 0.046 0.048 0.008 0.077 0.032 0.127 0.034 0.041 0.002 0.087-0.009 0.127-0.002s0.071 0.030 0.111 0.035c0.047 0.006 0.097-0.008 0.144-0.002 0.072 0.010 0.147 0.036 0.214 0.073 0.065 0.035 0.142 0.058 0.21 0.090 0.144 0.069 0.291 0.129 0.432 0.202 0.068 0.035 0.139 0.069 0.187 0.131 0.030 0.038 0.104 0.169 0.081 0.206 0.026-0.047 0.045-0.027 0.081-0.019 0.026 0.005 0.088 0.015 0.104 0.042 0.049-0.007 0.051-0.067 0.084-0.090 0.054-0.039 0.124-0.036 0.17-0.094 0.077-0.098 0.066-0.197 0-0.295-0.127-0.189-0.349-0.283-0.55-0.372-0.209-0.092-0.407-0.192-0.617-0.285-0.12-0.053-0.237-0.122-0.365-0.152-0.12-0.028-0.231-0.059-0.349-0.111-0.123-0.054-0.258-0.071-0.381-0.118-0.070-0.027-0.12-0.018-0.19-0.030-0.067-0.011-0.131-0.044-0.198-0.058-0.133-0.029-0.273-0.040-0.405-0.077-0.123-0.035-0.268-0.083-0.397-0.089-0.121-0.005-0.244 0-0.365 0-0.046 0-0.116 0.012-0.16 0.002-0.068-0.016-0.1-0.044-0.182-0.026-0.022 0.005-0.039 0.021-0.070 0.026-0.019 0.002-0.044-0.001-0.064-0.001-0.073-0-0.122-0.007-0.19-0.025-0.034-0.008-0.065 0.002-0.097-0.005-0.029-0.006-0.031-0.028-0.060-0.035-0.026-0.006-0.055 0.006-0.081 0.003-0.041-0.005-0.071-0.027-0.111-0.034-0.032-0.006-0.061 0.011-0.088 0.010-0.030-0-0.067-0.007-0.102-0.010-0.073-0.005-0.099 0.008-0.158 0.034-0.022 0.009-0.048 0.011-0.072 0.022-0.042 0.020-0.074 0.035-0.12 0.048-0.022 0.007-0.139 0.041-0.153 0.061-0.064 0.093 0.13 0.176 0.177 0.225 0.073 0.076 0.168 0.113 0.248 0.182-0.022 0.018-0.018 0.044-0.113 0.032z"></path>
<path d="M26.826 23.447c0.006-0.034 0.098-0.141 0.126-0.154 0.069-0.031 0.139 0.020 0.156 0.083-0.026 0.002-0.099 0.028-0.124 0.038-0.035 0.015-0.068 0.038-0.101 0.056-0.086 0.046-0.158 0.104-0.246 0.143-0.046 0.020-0.098 0.038-0.141 0.060-0.041 0.021-0.064 0.052-0.114 0.062-0.047 0.008-0.111-0.001-0.159-0.002-0.058-0.001-0.106 0.030-0.159 0.026-0.020-0.001-0.055-0.024-0.080-0.028s-0.054 0.001-0.079 0.001c-0.052 0-0.109-0.008-0.159-0.001-0.040 0.005-0.057 0.026-0.093 0.034-0.056 0.013-0.108 0.009-0.161 0.029-0.159 0.060-0.31 0.132-0.475 0.184-0.197 0.061-0.367 0.207-0.571 0.23-0.212 0.024-0.395 0.154-0.604 0.191-0.048 0.008-0.076 0.027-0.125 0.032-0.052 0.006-0.070 0.015-0.115 0.028-0.051 0.014-0.085 0.017-0.133 0.044-0.042 0.023-0.087 0.060-0.134 0.079-0.091 0.037-0.192 0.050-0.286 0.072-0.028 0.007-0.052-0-0.080 0.014-0.020 0.010-0.036 0.035-0.054 0.043-0.044 0.019-0.104 0.006-0.152 0.006-0.058-0-0.259-0.033-0.301 0.002-0.106 0.088 0.175 0.125 0.205 0.132 0.2 0.051 0.37-0.008 0.571-0.007 0.067 0 0.097-0.009 0.159-0.025 0.049-0.013 0.094 0.001 0.143-0.006 0.051-0.007 0.090-0.032 0.143-0.034 0.068-0.003 0.096-0.023 0.158-0.032 0.042-0.006 0.087 0.010 0.128 0.002 0.060-0.010 0.096-0.034 0.159-0.033 0.111 0.002 0.214-0.031 0.318-0.057 0.21-0.052 0.414-0.072 0.635-0.070 0.214 0.002 0.401-0.1 0.603-0.152 0.053-0.014 0.109 0.007 0.16-0.005 0.017-0.004 0.026-0.024 0.037-0.026 0.025-0.005 0.048-0.002 0.072-0.006 0.109-0.021 0.205-0.070 0.295-0.135 0.035-0.026 0.058-0.058 0.102-0.080 0.060-0.030 0.094-0.040 0.158-0.040 0.060-0 0.074-0.021 0.125-0.033 0.020-0.005 0.047 0.004 0.066 0.002 0.037-0.004 0.043-0.016 0.070-0.025 0.059-0.020 0.12-0.028 0.176-0.047 0.032-0.011 0.068-0.042 0.101-0.056 0.096-0.042 0.231-0.043 0.312-0.102 0.064-0.047 0.115-0.121 0.174-0.176 0.070-0.066 0.161-0.117 0.246-0.16 0.086-0.043 0.146-0.065 0.214-0.142 0.094-0.106-0.058-0.137-0.151-0.152-0.021-0.004-0.044 0.008-0.065 0.004-0.029-0.007-0.031-0.029-0.060-0.035-0.025-0.006-0.053 0.005-0.078-0.001-0.022-0.005-0.039-0.024-0.065-0.030-0.121-0.030-0.256 0-0.747 0.255z"></path>
<path d="M3.779 23.161c-0.035-0.027-0.089-0.041-0.059-0.097 0.021-0.040 0.070-0.032 0.107-0.031 0.044 0.001 0.070 0.015 0.111 0.025 0.050 0.013 0.095 0.007 0.146 0.022 0.214 0.062 0.412 0.18 0.628 0.236 0.106 0.027 0.207 0.066 0.313 0.091 0.050 0.012 0.091 0.022 0.138 0.040 0.071 0.026 0.126 0.023 0.196 0.039 0.222 0.051 0.452 0.070 0.674 0.119 0.39 0.086 0.775 0.214 1.167 0.31 0.080 0.020 0.151 0.055 0.229 0.079 0.085 0.026 0.168 0.041 0.254 0.063 0.177 0.045 0.361 0.052 0.54 0.095 0.084 0.020 0.156 0.054 0.238 0.085 0.033 0.012 0.076 0.031 0.111 0.037 0.020 0.003 0.045-0.008 0.065-0.004 0.022 0.005 0.028 0.026 0.049 0.031 0.035 0.008 0.072 0 0.108 0.002 0.050 0.002 0.078 0.026 0.125 0.034 0.103 0.019 0.208 0.012 0.312 0.028 0.043 0.007 0.076 0.029 0.118 0.035 0.035 0.005 0.076-0.001 0.111-0.001 0.090-0.001 0.161 0.032 0.253 0.032 0.169-0.001 0.357-0.021 0.525-0.001 0.079 0.009 0.138 0.033 0.222 0.033 0.081-0 0.174-0.012 0.254-0.001 0.041 0.005 0.071 0.028 0.111 0.034 0.039 0.007 0.087-0.002 0.127-0.002 0.085 0 0.169 0 0.254 0h0.476c0.079 0 0.159 0 0.238 0 0.037 0 0.076-0.005 0.112-0.001 0.047 0.005 0.066 0.023 0.109 0.034 0.076 0.018 0.162-0.014 0.239 0.006 0.078 0.020 0.161 0.037 0.238 0.059 0.196 0.056-0.084 0.236-0.175 0.253-0.028 0.005-0.084 0.007-0.112-0-0.031-0.008-0.047-0.028-0.077-0.035-0.042-0.010-0.085-0.012-0.128-0.023-0.042-0.011-0.084-0.007-0.127-0.007-0.153 0.001-0.343 0.030-0.492-0.003-0.084-0.018-0.148-0.030-0.238-0.029s-0.162-0.032-0.254-0.032c-0.159 0.001-0.326 0.014-0.476-0.025-0.073-0.019-0.153-0.005-0.222-0.023-0.070-0.019-0.148-0.001-0.222-0.014-0.046-0.008-0.078-0.032-0.127-0.034-0.038-0.002-0.064-0.007-0.095-0.015-0.074-0.020-0.16-0.012-0.238-0.032-0.079-0.020-0.158-0-0.238-0.014-0.040-0.007-0.070-0.030-0.111-0.035-0.046-0.005-0.096 0.004-0.143 0.002-0.044-0.002-0.069-0.021-0.111-0.030-0.038-0.008-0.073-0-0.111-0.010-0.052-0.013-0.071-0.026-0.127-0.024-0.043 0.001-0.085 0.004-0.127-0.007-0.083-0.022-0.15-0.021-0.238-0.024-0.039-0.002-0.056-0.016-0.086-0.025-0.044-0.013-0.089-0.005-0.136-0.007-0.078-0.002-0.141-0.033-0.222-0.032s-0.164 0.004-0.238-0.016c-0.070-0.018-0.145-0.017-0.222-0.016-0.088 0.001-0.165-0.027-0.254-0.031-0.077-0.004-0.14-0.034-0.222-0.033-0.056 0.001-0.075-0.011-0.127-0.024-0.043-0.011-0.087 0.004-0.129-0.006s-0.046-0.029-0.093-0.034c-0.037-0.004-0.063-0.007-0.096-0.015-0.076-0.020-0.16-0.044-0.241-0.064-0.048-0.012-0.094-0.006-0.141-0.014s-0.076-0.032-0.125-0.034c-0.051-0.002-0.090-0.003-0.141-0.015-0.048-0.011-0.099-0.008-0.146-0.022-0.073-0.022-0.15-0.062-0.222-0.089-0.082-0.031-0.166-0.046-0.247-0.070-0.028-0.008-0.052-0.018-0.086-0.024-0.039-0.007-0.074-0.020-0.112-0.034-0.069-0.025-0.146-0.036-0.221-0.056-0.043-0.011-0.084-0.001-0.127-0.013-0.039-0.012-0.070-0.045-0.111-0.054-0.093-0.023-0.165-0.056-0.254-0.098-0.151-0.071-0.304-0.104-0.461-0.159-0.126-0.044-0.274-0.063-0.405-0.102-0.134-0.040-0.251-0.124-0.371-0.199-0.070-0.044-0.154-0.067-0.224-0.11s-0.13-0.104-0.19-0.16c-0.093-0.085-0.284-0.203-0.272-0.35 0.003-0.041 0.033-0.028 0.021-0.078-0.008-0.030-0.037-0.051-0.058-0.072-0.024-0.024-0.039-0.036-0.050-0.064-0.006-0.016 0.036-0.028-0.003-0.065 0.089-0.042 0.211 0.065 0.283 0.106s0.147 0.078 0.223 0.118c0.19 0.1 0.333 0.269 0.52 0.373 0.142 0.079 0.3 0.177 0.451 0.219 0.080 0.022 0.166 0.049 0.242 0.090 0.080 0.042 0.216 0.151 0.31 0.136z"></path>
<path d="M12.032 23.479c0.067-0.009 0.117-0.047 0.19-0.033 0.064 0.012 0.106 0.031 0.175 0.033 0.064 0.002 0.112 0.029 0.174 0.033 0.039 0.002 0.083-0.009 0.121-0.002 0.043 0.008 0.075 0.029 0.118 0.035 0.126 0.017 0.257 0.021 0.381 0.046 0.145 0.030 0.292 0.048 0.444 0.048 0.503 0 1.005 0 1.508 0 0.237 0 0.496 0.030 0.731 0.001 0.048-0.006 0.073-0.020 0.118-0.040 0.056-0.025 0.1-0.023 0.166-0.024s0.071 0.020 0.125 0.033c0.050 0.012 0.191-0.043 0.155 0.055-0.041 0.11-0.232 0.057-0.312 0.078-0.135 0.035-0.271 0.016-0.413 0.024-0.12 0.007-0.206 0.089-0.317 0.122-0.116 0.034-0.221 0.038-0.349 0.038h-0.413c-0.127 0-0.29-0.025-0.413 0.007-0.114 0.030-0.226 0.025-0.348 0.025-0.069 0-0.139-0-0.208 0-0.080 0-0.13-0.019-0.206-0.033-0.065-0.012-0.141 0.004-0.207 0.002-0.072-0.003-0.135-0.030-0.206-0.033-0.085-0.004-0.151-0.011-0.234-0.028-0.096-0.020-0.199 0.008-0.297-0.010-0.16-0.028-0.313-0.018-0.476-0.024-0.099-0.003-0.186-0.033-0.286-0.032-0.090 0.001-0.18 0-0.271 0h-0.905c-0.064 0-0.135 0.009-0.197-0.007-0.057-0.015-0.096-0.025-0.159-0.025-0.122 0.001-0.26 0.017-0.382 0.001-0.061-0.008-0.093-0.029-0.158-0.032-0.053-0.002-0.102-0.020-0.151-0.041-0.095-0.041-0.179-0.108-0.263-0.175-0.062-0.051-0.154-0.128-0.182-0.205-0.058-0.156 0.159-0.119 0.247-0.12 0.081-0.001 0.142 0.034 0.222 0.032 0.071-0.002 0.122 0.029 0.19 0.032 0.032 0.002 0.064-0.003 0.095-0.001 0.050 0.003 0.080 0.024 0.127 0.034 0.018 0.004 0.047-0.002 0.064-0.002 0.046 0 0.068 0.017 0.102 0.025 0.063 0.014 0.133 0.007 0.199 0.007 0.080-0 0.131 0.020 0.206 0.033 0.060 0.011 0.129-0.006 0.19-0.002 0.078 0.004 0.14 0.034 0.222 0.033 0.065-0.001 0.129 0.016 0.19 0.031 0.066 0.016 0.128 0.052 0.189 0.066 0.028 0.006 0.061-0.001 0.090 0.005 0.021 0.004 0.039 0.022 0.070 0.025 0.072 0.008 0.15-0.001 0.223-0.001 0.138 0 0.275 0.002 0.413 0 0.15-0.002 0.296 0.064 0.444 0.095z"></path>
<path d="M6.318 24.971c0.028-0.135 0.22-0.032 0.285 0.006 0.149 0.088 0.284 0.15 0.453 0.191 0.198 0.048 0.386 0.12 0.586 0.152 0.199 0.033 0.398 0.058 0.596 0.092 0.070 0.012 0.143 0 0.214 0.002 0.088 0.002 0.157 0.033 0.248 0.032 0.065-0 0.131-0.002 0.197-0 0.055 0.002 0.092 0.016 0.145 0.025 0.055 0.010 0.112-0.005 0.167 0.005 0.466 0.086 0.946 0.119 1.42 0.216 0.291 0.059 0.593 0.075 0.889 0.103 0.344 0.033 0.686 0.062 1.031 0.095 0.298 0.028 0.589 0.034 0.889 0.031 0.166-0.002 0.326 0.033 0.494 0.032 0.074-0 0.148 0 0.221-0.001 0.102-0.001 0.194 0.029 0.294 0.033 0.128 0.005 0.253 0.033 0.381 0.032 0.144-0.002 0.293-0.011 0.437-0.002 0.076 0.004 0.145 0.032 0.221 0.035 0.081 0.004 0.158-0.008 0.24 0.005 0.148 0.024 0.286 0.025 0.437 0.025 0.070 0 0.143-0.006 0.214-0.002 0.076 0.004 0.146 0.032 0.223 0.035 0.123 0.006 0.249-0.002 0.372-0.002 0.27 0 0.54-0 0.809 0 0.253 0 0.506 0.015 0.755 0.056 0.125 0.021 0.263 0.009 0.39 0.008 0.105-0.001 0.2-0.034 0.308-0.032 0.101 0.002 0.187-0.029 0.286-0.033 0.1-0.004 0.201 0.001 0.302 0.001 0.082 0 0.164 0.001 0.246 0 0.11-0.001 0.207 0.033 0.317 0.032 0.064-0.001 0.127-0 0.191 0 0.083 0.001 0.144-0.019 0.223-0.034 0.117-0.021 0.26 0.002 0.38 0.002 0.26 0 0.521 0.020 0.763-0.064 0.091-0.032 0.194-0.061 0.284-0.093 0.068-0.025 0.117-0.034 0.191-0.033 0.069 0.001 0.124-0.021 0.189-0.032 0.142-0.023 0.275-0.072 0.414-0.097 0.138-0.024 0.306 0.002 0.446 0.002 0.124 0 0.239 0.006 0.347-0.031 0.061-0.021 0.105-0.055 0.16-0.088 0.059-0.035 0.111-0.048 0.175-0.072 0.101-0.037 0.214-0.049 0.325-0.070 0.036-0.007 0.094-0.032 0.135-0.049 0.063-0.026 0.125-0.047 0.19-0.071 0.069-0.026 0.125-0.014 0.192-0.030 0.054-0.013 0.058-0.034 0.125-0.033 0.063 0.001 0.127-0.001 0.19-0 0.076 0.001 0.115-0.032 0.191-0.032 0.119 0.001 0.199 0.027 0.12 0.151-0.066 0.103-0.185 0.163-0.286 0.223-0.041 0.024-0.088 0.038-0.128 0.062-0.028 0.017-0.061 0.056-0.094 0.065-0.057 0.016-0.118 0.002-0.176 0.014-0.016 0.003-0.047 0.020-0.070 0.025-0.045 0.009-0.083 0.017-0.128 0.033-0.042 0.015-0.081 0.020-0.126 0.039-0.039 0.016-0.055 0.019-0.096 0.024-0.033 0.004-0.066 0.022-0.096 0.026-0.058 0.007-0.092-0.026-0.158-0.025-0.072 0.001-0.123 0.007-0.19 0.025-0.063 0.016-0.128-0.006-0.19 0.005-0.074 0.014-0.127 0.031-0.206 0.033-0.081 0.002-0.15 0.030-0.23 0.033-0.098 0.004-0.196-0.001-0.294-0.001-0.183 0-0.352 0.029-0.532 0.056-0.205 0.031-0.415-0.005-0.619 0.032-0.053 0.009-0.098 0.005-0.151 0.006-0.060 0.002-0.1 0.016-0.159 0.026-0.055 0.009-0.104-0-0.158 0.005s-0.098 0.029-0.151 0.035c-0.031 0.004-0.066-0.004-0.096-0.002-0.049 0.002-0.078 0.016-0.125 0.025-0.109 0.021-0.224 0.023-0.333 0.038-0.091 0.013-0.182 0.024-0.272 0.040-0.098 0.017-0.184 0.020-0.285 0.024-0.093 0.004-0.175 0.034-0.269 0.032-0.104-0.002-0.179 0.021-0.278 0.034-0.043 0.006-0.083-0.003-0.127 0.005-0.046 0.008-0.079 0.025-0.128 0.026-0.078 0.001-0.144 0.026-0.22 0.032-0.073 0.005-0.123 0.006-0.192 0.024-0.035 0.010-0.060 0.005-0.095 0.006-0.050 0.002-0.080 0.026-0.127 0.034-0.056 0.010-0.118-0.011-0.175-0.003-0.066 0.009-0.104 0.043-0.174 0.026-0.077-0.019-0.142-0.018-0.223-0.024-0.067-0.004-0.12-0.030-0.189-0.032-0.153-0.005-0.288-0.034-0.445-0.032-0.076 0.001-0.12-0.020-0.192-0.033-0.080-0.015-0.171 0.007-0.252 0.002-0.080-0.005-0.149-0.034-0.23-0.032-0.069 0.001-0.147 0.011-0.215 0.002-0.092-0.012-0.166-0.034-0.261-0.033s-0.191 0-0.287 0c-0.431 0-0.862-0.003-1.294-0-0.121 0.001-0.23-0.031-0.348-0.032-0.107-0.001-0.213 0.001-0.32 0.001-0.116 0-0.232-0-0.348 0-0.152 0-0.297-0.034-0.446-0.032-0.225 0.003-0.44-0.031-0.665-0.031s-0.436-0.032-0.659-0.032c-0.106 0-0.212-0.001-0.318 0-0.091 0.001-0.166-0.026-0.255-0.033-0.084-0.007-0.167 0.009-0.251-0.005-0.104-0.018-0.194-0.025-0.302-0.025-0.072 0-0.144 0.002-0.216 0-0.080-0.002-0.15-0.025-0.229-0.032-0.157-0.013-0.298-0.066-0.462-0.064-0.081 0.001-0.149-0.028-0.228-0.032-0.078-0.004-0.14-0.010-0.215-0.024-0.080-0.015-0.156-0.026-0.236-0.046-0.054-0.013-0.092-0.019-0.146-0.024-0.056-0.005-0.101-0.026-0.157-0.033-0.065-0.008-0.14 0.002-0.205 0.002-0.045 0-0.1 0.009-0.144 0.002-0.045-0.008-0.081-0.030-0.127-0.035-0.076-0.008-0.154 0.012-0.229-0.005-0.073-0.017-0.145-0.018-0.221-0.032-0.080-0.014-0.147-0.025-0.231-0.025-0.069 0-0.147 0.010-0.215-0.003-0.079-0.015-0.132-0.029-0.215-0.029-0.085 0-0.15-0.004-0.229-0.025-0.058-0.015-0.124-0.007-0.184-0.007-0.080 0-0.129-0.020-0.204-0.033-0.039-0.007-0.081 0.009-0.12 0.003-0.043-0.007-0.075-0.031-0.12-0.035-0.068-0.007-0.131-0.028-0.198-0.031-0.132-0.006-0.253-0.033-0.381-0.064-0.126-0.030-0.26-0.037-0.382-0.086-0.090-0.036-0.172-0.074-0.245-0.143-0.083-0.078-0.119-0.172-0.191-0.255-0.056-0.066-0.198-0.164-0.128-0.271 0.057-0.087 0.223-0.085 0.311-0.063 0.119 0.030 0.228 0.075 0.349 0.088 0.124 0.014 0.225 0.061 0.54 0.095z"></path>
<path d="M7.223 20.020c-0.006-0.040-0.028-0.076-0.038-0.116-0.047 0.014-0.083 0.063-0.128 0.077-0.064 0.020-0.133 0.029-0.199 0.038-0.136 0.019-0.271 0.073-0.397 0.136-0.241 0.12-0.465 0.298-0.73 0.343-0.070 0.012-0.121 0.004-0.19 0.030s-0.137 0.060-0.204 0.096c-0.106 0.057-0.229 0.106-0.334 0.166-0.060 0.034-0.146 0.045-0.163 0.118-0.018 0.079 0.023 0.15 0.036 0.223 0.010 0.058-0.001 0.131-0.002 0.19-0.001 0.075 0.026 0.124 0.048 0.19 0.016 0.050 0.026 0.115 0.013 0.172-0.005 0.023-0.024 0.038-0.030 0.065-0.007 0.033 0.001 0.078 0.001 0.112 0.003 0.184 0.108 0.166 0.223 0.269 0.055 0.049 0.067 0.087 0.139 0.116 0.026 0.011 0.035 0.024 0.065 0.029 0.036 0.006 0.076-0.010 0.112-0.003 0.034 0.007 0.061 0.029 0.095 0.035 0.031 0.005 0.066-0.010 0.097-0.003 0.026 0.006 0.034 0.029 0.060 0.035 0.038 0.009 0.073 0.002 0.113 0.014 0.109 0.032 0.188 0.098 0.276 0.167 0.1 0.079 0.23 0.113 0.327 0.198 0.026 0.022 0.092 0.072 0.079 0.109-0.014 0.039-0.151 0.018-0.19 0.018-0.057 0-0.137 0.015-0.192 0.002-0.026-0.006-0.034-0.029-0.060-0.035-0.031-0.007-0.068-0.007-0.097-0.014-0.114-0.027-0.238-0.094-0.349-0.151-0.055-0.028-0.114-0.054-0.166-0.079-0.044-0.021-0.094-0.054-0.138-0.068-0.126-0.040-0.259-0.056-0.387-0.106-0.112-0.043-0.21-0.116-0.311-0.182-0.109-0.072-0.222-0.134-0.33-0.206-0.056-0.037-0.089-0.090-0.142-0.127-0.055-0.038-0.118-0.079-0.176-0.111-0.089-0.050-0.245-0.086-0.256-0.207-0.005-0.062 0.031-0.096 0.034-0.158 0.003-0.069-0.001-0.138-0-0.207 0.002-0.121-0.083-0.28-0.015-0.397 0.034-0.058 0.118-0.097 0.174-0.128 0.047-0.026 0.082-0.050 0.125-0.086 0.124-0.103 0.241-0.136 0.395-0.151 0.041-0.004 0.074-0.023 0.114-0.030 0.043-0.008 0.085 0.002 0.128-0.005 0.071-0.013 0.16-0.029 0.222-0.068 0.1-0.063 0.166-0.16 0.27-0.215 0.119-0.063 0.239-0.128 0.366-0.184 0.252-0.11 0.52-0.235 0.795-0.294 0.132-0.028 0.264-0.046 0.395-0.078s0.264-0.056 0.398-0.080c0.068-0.012 0.138-0.030 0.206-0.048s0.136-0.002 0.206-0.014c0.070-0.012 0.116-0.034 0.19-0.033 0.069 0 0.138 0.002 0.206 0 0.134-0.003 0.262-0.066 0.397-0.064 0.072 0.001 0.338 0.002 0.271 0.128-0.054 0.101-0.202 0.125-0.302 0.126-0.099 0.001-0.182 0.023-0.278 0.033-0.090 0.010-0.189-0.019-0.278 0.001-0.063 0.014-0.129 0.026-0.19 0.045-0.063 0.018-0.11 0.071-0.301 0.365z"></path>
<path d="M12.949 20.086c-0.355-0.018-0.711 0.006-1.063 0.059-0.167 0.025-0.317 0.1-0.482 0.136-0.13 0.029-0.262 0.008-0.39 0.030-0.054 0.009-0.093 0.043-0.144 0.058-0.134 0.040-0.27 0.068-0.413 0.066-0.126-0.002-0.241 0.026-0.365 0.031-0.057 0.002-0.103 0.028-0.159 0.034-0.042 0.005-0.085-0.008-0.127-0.003-0.070 0.008-0.137 0.046-0.207 0.059-0.059 0.011-0.12 0.007-0.18 0.006-0.238-0.003-0.393 0.11-0.566 0.259-0.137 0.117-0.533 0.417-0.252 0.592 0.091 0.056 0.193 0.106 0.287 0.159 0.086 0.048 0.201 0.087 0.296 0.115 0.158 0.046 0.319 0.067 0.481 0.101 0.154 0.032 0.318 0.044 0.47 0.084 0.125 0.032 0.25 0.083 0.374 0.121 0.179 0.054 0.35 0.050 0.536 0.070 0.149 0.016 0.299 0.032 0.448 0.049 0.082 0.010 0.174-0.007 0.253 0.014 0.106 0.029 0.233 0.048 0.345 0.056 0.090 0.007 0.169 0.018 0.257 0.040 0.099 0.025 0.188 0.015 0.288 0.026 0.178 0.019 0.344 0.030 0.525 0.029-0.047 0.001-0.1 0.008-0.146-0.004-0.049-0.013-0.081-0.053-0.126-0.073-0.051-0.023-0.094-0.010-0.146-0.016-0.048-0.006-0.074-0.028-0.122-0.034-0.084-0.011-0.158 0.004-0.241-0.014-0.052-0.011-0.107-0.010-0.158-0.022-0.057-0.014-0.102-0.052-0.16-0.060-0.063-0.008-0.113-0.003-0.177-0.021-0.159-0.043-0.318-0.085-0.474-0.136-0.114-0.037-0.219-0.088-0.332-0.128-0.090-0.032-0.079-0.006-0.139-0.018-0.237-0.046-0.463-0.164-0.674-0.276-0.002-0.046-0.037-0.075-0.044-0.123-0.006-0.042-0.010-0.141 0.005-0.182 0.017-0.045 0.092-0.125 0.129-0.16 0.046-0.044 0.098-0.087 0.146-0.13s0.129-0.070 0.192-0.11c0.054-0.035 0.106-0.080 0.16-0.111 0.091-0.051 0.249-0.058 0.354-0.063 0.080-0.004 0.12 0.002 0.191-0.022 0.036-0.012 0.069-0.030 0.107-0.038 0.082-0.016 0.112-0.034 0.189-0.079 0.097-0.056 0.203-0.072 0.31-0.101 0.123-0.034 0.234-0.094 0.359-0.121 0.135-0.029 0.278-0.044 0.415-0.067 0.13-0.021 0.268-0.021 0.394-0.063 0.084-0.028 0.090-0.041 0.189-0.047 0.074-0.004 0.134-0.032 0.21-0.033 0.105-0.001 0.198-0.014 0.303-0.032-0.491-0.067-0.998-0.032-1.494-0.032z"></path>
<path d="M20.932 19.912c0.028 0.058 0.078 0.028 0.124 0.045 0.060 0.022 0.11 0.065 0.174 0.085 0.072 0.022 0.139 0.053 0.21 0.082 0.040 0.016 0.081 0.024 0.122 0.031-0.060-0.053-0.137-0.076-0.212-0.112-0.101-0.048-0.318-0.191-0.418-0.131z"></path>
<path d="M22.545 21.010c-0.015-0.060-0.073-0.080-0.103-0.134s-0.042-0.102-0.080-0.154c-0.032-0.042-0.058-0.081-0.089-0.126-0.093-0.134-0.142-0.167-0.272-0.23-0.1-0.048-0.194-0.136-0.296-0.177-0.046-0.018-0.093-0.026-0.142-0.035 0.032 0.028 0.060 0.062 0.078 0.115 0.086 0.252 0.047 0.588-0.060 0.813-0.116 0.243-0.403 0.208-0.602 0.208h-0.606l-0.253-0.185c0-0.152 0.003-0.304 0.001-0.456-0.002-0.159-0.043-0.304-0.066-0.459-0.012-0.078-0.004-0.148-0.005-0.226-0.004-0.181-0.036-0.361-0.040-0.542-0.002-0.097 0.006-0.196 0.003-0.293-0.009-0.232-0.088-0.487-0.154-0.704-0.040-0.132-0.094-0.26-0.129-0.395-0.044-0.175-0.066-0.359-0.117-0.529-0.034-0.114-0.044-0.216-0.082-0.325-0.043-0.121-0.069-0.255-0.108-0.381s-0.072-0.255-0.107-0.382c-0.046-0.165-0.064-0.341-0.136-0.498-0.025-0.054-0.057-0.104-0.075-0.16-0.024-0.076-0.028-0.16-0.026-0.239 0.003-0.117 0.073-0.149 0.143-0.231 0.076-0.090 0.149-0.182 0.224-0.272 0.088-0.105 0.138-0.234 0.234-0.326 0.070-0.066 0.123-0.145 0.19-0.218 0.024-0.026 0.058-0.061 0.084-0.083 0.074-0.063 0.111-0.115 0.161-0.202 0.054-0.095 0.087-0.199 0.138-0.295 0.122-0.228 0.371-0.411 0.569-0.569 0.119-0.095 0.262-0.164 0.396-0.236 0.042-0.022 0.085-0.043 0.128-0.063 0.064-0.030 0.141-0.050 0.201-0.082 0.068-0.036 0.121-0.056 0.193-0.084 0.083-0.032 0.144-0.097 0.217-0.146 0.124-0.084 0.252-0.136 0.363-0.238 0.080-0.073 0.164-0.141 0.238-0.221 0.050-0.054 0.080-0.114 0.122-0.174 0.078-0.109 0.155-0.229 0.22-0.349 0.063-0.116 0.138-0.254 0.219-0.357 0.078-0.098 0.173-0.183 0.245-0.291 0.042-0.064 0.051-0.138 0.089-0.202 0.042-0.070 0.084-0.113 0.094-0.201 0.006-0.045 0.011-0.131 0.001-0.175-0.018-0.076-0.064-0.056-0.136-0.073-0.139-0.033-0.244-0.113-0.39-0.118-0.089-0.003-0.303 0.050-0.344-0.058 0.082-0.037 0.176-0.040 0.262-0.066 0.055-0.017 0.102-0.039 0.16-0.043 0.050-0.004 0.103-0 0.152 0 0.068 0.001 0.126 0.030 0.189 0.033 0.026-0.084-0.006-0.182 0.009-0.27 0.016-0.094 0.068-0.174 0.089-0.265 0.012-0.052 0.013-0.108 0.023-0.16 0.018-0.095-0.025-0.608 0.052-0.624-0.175-0.287-0.362-0.567-0.559-0.839-0.080-0.095-0.153-0.196-0.218-0.302 0.005 0.029-0.080 0.258-0.093 0.304-0.028 0.106-0.068 0.21-0.092 0.317-0.027 0.118-0.055 0.23-0.079 0.346-0.016 0.074-0.070 0.141-0.087 0.217s-0.012 0.137-0.039 0.212c-0.054 0.15-0.109 0.308-0.184 0.449-0.052 0.096-0.106 0.159-0.125 0.267-0.022 0.124-0.039 0.254-0.102 0.366-0.041 0.073-0.088 0.137-0.117 0.217-0.020 0.055-0.025 0.108-0.056 0.16-0.052 0.085-0.121 0.166-0.177 0.248-0.054 0.079-0.12 0.141-0.165 0.225-0.056 0.106-0.158 0.204-0.245 0.286-0.018 0.017-0.048 0.036-0.064 0.054-0.033 0.037-0.050 0.101-0.099 0.122-0.036 0.016-0.064-0.002-0.101 0.003-0.049 0.008-0.082 0.033-0.133 0.036-0.102 0.006-0.2 0.029-0.302 0.033-0.217 0.010-0.408-0.168-0.367-0.393 0.013-0.071 0.035-0.147 0.067-0.21 0.052-0.104 0.132-0.147 0.196-0.238 0.010 0.032 0.011 0.066 0.004 0.1 0.107-0.531 0.246-1.057 0.356-1.588 0.053-0.256 0.14-0.531 0.154-0.792 0.004-0.079-0.027-0.15-0.034-0.228-0.011-0.117 0.015-0.234-0.002-0.351-0.002-0.012-0.004-0.025-0.007-0.038-0.015-0.064-0.058-0.13-0.076-0.197-0.028-0.101-0.017-0.142-0.1-0.171-0.126-0.045-0.297-0.001-0.431-0.001-0.087 0-0.176 0.018-0.255-0.033-0.096-0.062-0.097-0.251-0.068-0.378 0.097-0.035 0.229-0.005 0.331-0.005 0.064 0 0.227 0.039 0.283-0.006 0.074-0.059 0.049-0.269 0.068-0.364 0.028-0.147 0.056-0.285 0.035-0.443-0.011-0.083-0.041-0.135-0.071-0.205-0.028-0.066-0.046-0.132-0.070-0.204-0.058-0.178-0.146-0.335-0.217-0.502-0.070-0.164-0.164-0.315-0.241-0.476-0.081-0.17-0.213-0.366-0.373-0.411-0.042 0.229-0.003 0.525-0.003 0.763-0 0.092 0.003 0.184-0.008 0.274-0.018 0.14-0.055 0.277-0.064 0.419-0.007 0.104-0.024 0.21-0.045 0.314-0.023 0.11-0.028 0.195-0.027 0.312 0 0.287 0 0.574 0 0.861 0 0.188 0.020 0.405-0.007 0.592-0.021 0.145-0.086 0.272-0.102 0.417-0.018 0.16-0.071 0.286-0.1 0.442-0.051 0.271-0.092 0.596-0.261 0.8-0.15 0.182-0.384 0.052-0.565 0.144-0.169 0.086-0.316 0.047-0.474-0.056-0.174-0.113-0.229-0.279-0.227-0.525 0.002-0.253 0-0.507 0-0.76 0-0.211 0-0.422 0-0.633 0-0.148 0.012-0.298-0.021-0.442-0.034-0.153-0.097-0.282-0.143-0.426-0.027-0.083-0.035-0.174-0.070-0.253-0.020-0.044-0.040-0.056-0.057-0.104-0.020-0.057-0.013-0.118-0.042-0.176-0.027-0.054-0.098-0.191-0.135-0.234-0.108-0.125-0.236 0.118-0.331 0.182-0.134 0.091-0.345 0.265-0.506 0.198-0.233-0.098 0.19-0.314 0.258-0.377 0.064-0.060 0.151-0.098 0.19-0.183 0.078-0.17-0.060-0.285-0.138-0.405-0.174-0.266-0.385-0.485-0.56-0.74-0.101-0.147-0.206-0.242-0.337-0.335-0.171-0.121-0.33-0.276-0.522-0.337-0.169-0.054-0.339-0.112-0.507-0.17-0.065-0.022-0.125-0.064-0.19-0.086-0.096-0.032-0.191 0.020-0.281-0.055 0.032 0.095 0.235 0.262 0.276 0.299 0.062 0.056 0.131 0.089 0.19 0.146 0.134 0.128 0.275 0.313 0.377 0.482 0.073 0.121 0.164 0.302 0.191 0.454 0.021 0.116 0.014 0.226 0.041 0.347 0.038 0.168 0.068 0.34 0.1 0.51 0.035 0.184 0.018 0.389 0.080 0.557 0.092 0.249 0.149 0.482 0.18 0.749 0.020 0.177 0.104 0.322 0.112 0.509 0.008 0.202-0.001 0.407-0.001 0.609 0 0.26 0.007 0.482-0.116 0.704-0.042 0.076-0.138 0.19-0.209 0.22-0.063 0.026-0.123-0.010-0.183 0.041-0.081 0.068-0.134 0.165-0.23 0.206-0.094 0.040-0.197 0.041-0.293 0.075-0.397 0.139-0.8-0.175-1.104-0.476-0.143-0.142-0.33-0.375-0.391-0.597-0.020-0.074-0.017-0.161-0.047-0.23-0.074-0.167-0.33-0.234-0.457-0.216-0.165 0.025-0.237 0.192-0.358 0.305-0.034-0.065 0.040-0.157 0.061-0.209 0.033-0.078 0.036-0.077 0.037-0.174 0.002-0.158-0.084-0.194-0.188-0.27-0.152-0.112-0.316-0.183-0.47-0.285-0.125-0.083-0.205-0.125-0.344-0.147-0.164-0.026-0.328-0.086-0.492-0.096-0.349-0.021-0.703 0.002-1.053 0.002h-0.342c-0.082 0-0.282-0.051-0.322 0.038 0.056 0.146 0.2 0.179 0.306 0.239 0.161 0.092 0.303 0.192 0.471 0.272 0.114 0.054 0.249 0.106 0.353 0.189 0.212 0.169 0.452 0.323 0.646 0.536 0.105 0.114 0.238 0.19 0.305 0.346 0.026 0.061 0.031 0.121 0.067 0.18 0.142 0.228 0.234 0.47 0.327 0.736 0.108 0.31 0.214 0.633 0.48 0.755 0.174 0.079 0.44 0.212 0.544 0.405 0.1 0.185 0.197 0.344 0.224 0.564 0.015 0.124 0.063 0.216 0.102 0.323 0.043 0.121 0.005 0.243 0.038 0.354 0.055 0.189 0.221 0.36 0.319 0.509 0.046 0.070 0.082 0.167 0.114 0.249 0.047 0.119 0.040 0.247 0.070 0.364 0.004 0.014 0.028 0.047 0.029 0.051 0.013 0.072 0.008 0.147 0.008 0.222-0.001 0.202 0.048 0.502-0.026 0.685-0.036 0.089-0.086 0.109-0.153 0.156-0.036 0.025-0.066 0.059-0.102 0.085-0.082 0.060-0.17 0.086-0.256 0.137-0.141 0.084-0.161 0.093-0.326 0.092-0.192-0.001-0.402 0.034-0.591-0.006-0.186-0.039-0.314-0.185-0.464-0.309-0.106-0.088-0.22-0.158-0.325-0.25-0.162-0.143-0.338-0.268-0.473-0.453-0.13-0.177-0.161-0.381-0.178-0.61-0.008-0.103-0.042-0.269-0.083-0.362-0.021-0.049-0.056-0.082-0.075-0.134-0.024-0.066-0.009-0.128-0.024-0.19-0.014-0.060-0.052-0.082-0.068-0.136-0.018-0.058-0.006-0.134-0.006-0.195 0-0.107 0-0.214 0-0.322 0-0.263 0-0.526 0-0.789 0-0.135-0.017-0.248 0.034-0.365 0.039-0.090 0.070-0.158 0.077-0.263 0.004-0.069-0.010-0.14 0-0.209-0.002 0.15-0.057 0.188-0.114 0.295-0.036 0.068-0.047 0.15-0.069 0.229-0.045 0.165-0.122 0.306-0.18 0.46-0.039 0.104-0.064 0.215-0.1 0.318-0.024 0.067-0.069 0.122-0.085 0.193-0.021 0.092-0.008 0.186-0.042 0.282-0.028 0.076-0.044 0.138-0.063 0.217-0.046 0.192-0.097 0.387-0.109 0.588-0.008 0.121-0.024 0.231-0.037 0.351-0.002 0.014-0.008 0.129-0.004 0.138 0.074 0.203 0.337-0.153 0.34 0.18 0.002 0.254-0.216 0.112-0.292 0.305-0.040 0.102-0.008 0.314-0.006 0.426 0.002 0.102 0.004 0.189 0.030 0.288 0.086 0.323 0.241 0.65 0.388 0.932 0.109 0.21 0.254 0.538 0.423 0.686 0.468 0.407 1.027 0.498 1.556 0.698 0.48 0.182 0.913 0.498 1.346 0.806 0.135 0.074 0.25 0.184 0.342 0.329 0.036 0.11 0.064 0.223 0.084 0.339 0.044 0.166 0.128 0.32 0.139 0.498 0.012 0.195-0.003 0.398-0.002 0.593 0 0.4-0.012 0.777 0.068 1.168 0.047 0.229 0.136 0.428 0.159 0.662 0.015 0.151 0.021 0.307 0.098 0.635 0.145-0.030 0.278 0.108 0.416 0.135s0.265 0.050 0.407 0.049c0.419-0.002 0.836 0.092 1.255 0.093 0.189 0 0.377 0 0.566 0 0.422 0 0.861 0.044 1.281 0.002 0.084-0.008 0.148-0.067 0.23-0.087 0.039-0.010 0.075-0.005 0.114-0.018 0.048-0.016 0.057-0.034 0.109-0.037 0.043-0.003 0.085 0.008 0.127-0.003 0.051-0.013 0.079-0.039 0.134-0.043 0.056-0.004 0.115 0.001 0.171 0.001 0.15 0 0.3 0 0.45 0h0.453c0.115 0 0.23 0.003 0.345 0.002 0.241-0.002 0.524-0.087 0.754-0.142 0.161-0.039 0.328-0.090 0.471-0.172 0.076-0.044 0.127-0.076 0.207-0.102 0.102-0.032 0.1-0.146 0.163-0.235 0.062-0.088 0.115-0.062 0.128-0.182 0.003-0.031 0.010-0.11 0.002-0.142z"></path>
<path d="M12.237 10.218c0.183-0.118 0.339 0.476 0.377 0.583 0.061 0.169 0.112 0.324 0.076 0.516-0.021 0.115-0.079 0.23-0.090 0.348-0.007 0.078-0.003 0.15-0.022 0.23-0.046 0.198-0.148 0.402-0.248 0.592-0.098 0.187-0.164 0.362-0.313 0.528-0.040 0.044-0.061 0.075-0.106 0.111-0.041 0.033-0.082 0.037-0.12 0.076-0.082 0.085-0.058 0.105-0.176 0.165-0.16 0.081-0.26 0.23-0.411 0.326 0.278-0.096 0.543-0.236 0.817-0.342 0.083-0.032 0.108-0.062 0.17-0.1 0.15-0.092 0.288-0.138 0.402-0.278 0.050-0.062 0.072-0.124 0.118-0.185 0.063-0.084 0.143-0.141 0.189-0.234 0.081-0.164 0.148-0.326 0.169-0.495 0.012-0.102-0.022-0.168-0.030-0.264-0.006-0.079 0.032-0.157 0.018-0.233-0.022-0.125-0.092-0.249-0.135-0.368-0.053-0.146-0.101-0.272-0.188-0.401-0.092-0.137-0.127-0.318-0.498-0.575z"></path>
<path d="M16.075 6.179c0.156-0.006 0.007 0.482-0.014 0.575-0.033 0.146-0.065 0.278-0.165 0.4-0.060 0.073-0.141 0.131-0.195 0.21-0.036 0.052-0.063 0.106-0.107 0.155-0.108 0.122-0.252 0.224-0.389 0.317-0.134 0.092-0.245 0.189-0.401 0.244-0.042 0.015-0.066 0.028-0.108 0.035-0.038 0.006-0.064-0.009-0.102 0.004-0.083 0.026-0.077 0.050-0.172 0.043-0.128-0.010-0.248 0.054-0.377 0.059 0.204 0.050 0.418 0.062 0.625 0.101 0.063 0.012 0.090 0.002 0.142 0.001 0.126-0.003 0.227 0.023 0.352-0.028 0.055-0.023 0.094-0.058 0.145-0.082 0.072-0.033 0.142-0.040 0.208-0.087 0.115-0.082 0.221-0.17 0.302-0.282 0.049-0.068 0.055-0.129 0.090-0.201 0.028-0.059 0.083-0.098 0.106-0.158 0.038-0.098 0.047-0.216 0.070-0.32 0.028-0.127 0.051-0.237 0.052-0.365 0.001-0.136 0.054-0.28-0.062-0.621z"></path>
<path d="M20.603 7.393c0.083 0.133-0.416 0.244-0.507 0.272-0.144 0.044-0.275 0.080-0.43 0.054-0.092-0.016-0.183-0.058-0.279-0.066-0.063-0.006-0.123-0.003-0.187-0.016-0.159-0.034-0.319-0.109-0.468-0.181-0.146-0.072-0.285-0.12-0.411-0.229-0.034-0.029-0.057-0.044-0.083-0.077-0.024-0.030-0.024-0.060-0.054-0.088-0.064-0.059-0.082-0.042-0.122-0.128-0.054-0.117-0.17-0.189-0.238-0.299 0.058 0.202 0.153 0.394 0.22 0.594 0.020 0.060 0.043 0.079 0.070 0.124 0.065 0.109 0.092 0.209 0.198 0.292 0.047 0.037 0.097 0.053 0.143 0.086 0.064 0.046 0.105 0.104 0.178 0.138 0.128 0.059 0.256 0.108 0.394 0.124 0.083 0.009 0.139-0.016 0.219-0.021 0.065-0.004 0.126 0.024 0.19 0.014 0.104-0.016 0.211-0.066 0.312-0.097 0.124-0.038 0.231-0.072 0.343-0.135 0.119-0.067 0.27-0.091 0.509-0.36z"></path>
<path d="M23.018 10.329c-0.014 0.156-0.479-0.056-0.569-0.088-0.141-0.052-0.268-0.101-0.375-0.216-0.064-0.068-0.111-0.157-0.183-0.221-0.047-0.042-0.097-0.076-0.14-0.126-0.106-0.123-0.189-0.279-0.264-0.427-0.073-0.145-0.155-0.268-0.19-0.43-0.009-0.043-0.019-0.070-0.020-0.112-0.001-0.038 0.017-0.062 0.010-0.102-0.015-0.086-0.040-0.083-0.020-0.176 0.027-0.126-0.022-0.254-0.010-0.382-0.076 0.196-0.115 0.407-0.182 0.607-0.020 0.061-0.013 0.088-0.019 0.141-0.014 0.126-0.053 0.222-0.018 0.352 0.016 0.058 0.046 0.1 0.062 0.155 0.024 0.076 0.022 0.146 0.059 0.217 0.067 0.124 0.14 0.241 0.24 0.336 0.061 0.057 0.12 0.071 0.188 0.115 0.054 0.036 0.087 0.095 0.143 0.126 0.093 0.050 0.208 0.075 0.308 0.111 0.122 0.045 0.228 0.082 0.355 0.099 0.135 0.019 0.27 0.090 0.623 0.020z"></path>
</svg>
