<!-- Generated by IcoMoon.io -->
<svg version="1.1" xmlns="http://www.w3.org/2000/svg" width="32" height="32" viewBox="0 0 32 32">
<path d="M11.484 9.729c0.892 0.011 1.636 0.19 2.455 0.424 0.43 0.172 1.347 0.281 1.517 0.746 0.001 0.217-0.25 0.35-0.428 0.456-0.539 0.3-1.134 0.492-1.515 0.955-0.625 0.694-0.558 1.631 0.097 2.265 0.312 0.235 0.572 0.405 0.863 0.66 0.462 0.296 1.071 0.308 1.588 0.44 1.176 0.266 2.372-0.486 3.117-1.353 0.535-0.679 0.568-1.617 0.564-2.438-0.024-0.462-0.144-0.852-0.271-1.29-0.27-1.71-0.827-3.055-2.503-3.762-1.607-0.919-3.446-0.941-5.222-0.622-1.061 0.398-2.228 0.637-3.192 1.21-0.283 0.234-0.468 0.404-0.803 0.482-0.16 0.044-0.349 0.076-0.485 0.172-0.206 0.147-0.291 0.38-0.443 0.498-0.097 0.082-0.223 0.137-0.33 0.202l-0.641 0.333c-0.109 0.279-0.524 0.214-0.655 0.481-0.109 0.255-0.272 0.305-0.536 0.452-0.431 0.302-0.72 0.735-1.151 1.084-0.482 0.424-1.061 0.981-1.1 1.612-0.015 0.172-0.038 0.46 0.13 0.537 0.244 0.034 0.586-0.292 0.809-0.469 0.652-0.483 1.309-0.978 1.946-1.479 1.837-1.127 4.003-1.811 6.186-1.595z"></path>
<path d="M29.474 11.183c-0.279-0.727-0.627-1.482-0.873-2.248-0.726-1.68-2.055-3.235-3.716-4.002-0.918-0.386-1.829-0.592-2.784-0.879-1.033-0.223-1.999-0.43-3.022-0.215-0.268 0.069-0.438 0.316-0.703 0.348-0.239 0.037-0.597-0.066-0.867-0.031-0.466 0.067-0.862 0.174-1.268 0.256-0.29 0.027-0.573-0.012-0.836 0.168-0.208 0.166-0.552 0.276-0.723 0.469-0.148 0.395 1.058 0.395 1.386 0.472 0.761 0.068 1.573 0.085 2.299 0.303 0.53 0.153 1.045 0.352 1.604 0.523 0.853 0.279 1.545 0.88 2.323 1.292 0.321 0.127 0.566 0.35 0.796 0.618 0.329 0.369 0.708 0.684 0.831 1.157 0.145 0.324 0.403 0.452 0.651 0.818 0.129 0.183 0.162 0.405 0.221 0.61 0.068 0.252 0.348 0.55 0.453 0.833 0.081 0.345 0.012 0.596 0.076 0.999 0.047 0.466 0.043 0.994 0.010 1.428-0.030 0.24-0.112 0.459-0.19 0.695-0.096 0.31-0.289 1.316-0.664 0.602-0.22-0.518-0.505-1.063-0.968-1.408-0.37-0.283-0.86-0.335-1.269-0.57-0.411-0.274-0.824-0.093-1.177 0.227-0.281 0.205-0.408 0.372-0.438 0.668-0.042 0.276-0.38 0.472-0.61 0.629-0.384 0.275-0.683 0.448-0.916 0.74-0.185 0.172-0.329 0.325-0.311 0.514 0.043 0.398 0.164 0.798 0.065 1.192-0.025 0.204-0.104 0.408 0.062 0.551 0.555 0.426 1.163 0.921 1.466 1.587 0.282 0.384 0.964 0.661 1.446 0.853l0.033 0.011c1.349 0.382 2.691-0.233 3.852-0.875 0.726-0.261 1.512-0.668 2.047-1.205 0.378-0.272 0.783-0.695 0.923-1.177 0.26-0.781 0.633-1.527 0.824-2.325 0.084-0.626 0.142-1.161 0.19-1.724-0.059-0.663-0.124-1.248-0.218-1.902z"></path>
<path d="M19.389 20.923c-0.151 0.115-0.265 0.28-0.414 0.418-0.617 0.499-1.18 1.181-1.879 1.61-0.83 0.484-1.662 0.76-2.565 1.019-1.928 0.327-3.886-0.184-4.599-2.217-0.164-0.372-0.322-0.754-0.272-1.123 0.026-0.206 0.179-0.325 0.353-0.411 0.653-0.33 1.295-0.853 1.398-1.632 0.052-0.322 0.003-0.65-0.029-0.972-0.036-0.989-0.345-2.015-1.456-2.2-0.405-0.061-0.644-0.37-1.043-0.374-0.123 0.002-0.252 0.046-0.372 0.081-0.168 0.086-0.262 0.080-0.436 0.102-0.126 0.054-0.358 0.243-0.562 0.36-0.212 0.122-0.436 0.284-0.478 0.542-0.046 0.46-0.276 0.44-0.581 0.703-0.182 0.188-0.407 0.334-0.611 0.513-0.316 0.299-0.629 0.557-0.842 0.871-0.118 0.14-0.222 0.203-0.248 0.283-0.136 0.642-0.564 1.126-0.646 1.823l-0.004 0.032c-0.048 0.345-0.101 0.726-0.079 1.103 0.076 0.406 0.239 0.736 0.219 1.103-0.016 0.212 0.036 0.432 0.062 0.646 0.017 0.214 0.018 0.394 0.060 0.606 0.045 0.345-0.066 0.626 0.094 0.952 0.254 0.697 0.928 1.131 1.428 1.634 0.502 0.653 1.255 1.048 2.020 1.356 0.627 0.312 1.305 0.279 1.977 0.367 1.070 0.254 2.147 0.284 3.215 0.029 0.77-0.15 1.671-0.428 2.282-0.882 0.229-0.162 0.48-0.177 0.706-0.331 0.631-0.474 1.261-0.959 1.843-1.512 0.39-0.313 0.643-0.71 0.916-1.094 0.478-0.543 0.863-1.12 0.996-1.869 0.048-0.311 0.136-1.927-0.452-1.535z"></path>
</svg>
