<!-- Generated by IcoMoon.io -->
<svg version="1.1" xmlns="http://www.w3.org/2000/svg" width="32" height="32" viewBox="0 0 32 32">
<path d="M28.268 22.134c0.003-0.097-0.004-0.214-0.020-0.31-0.037-0.224-0.056-0.464-0.174-0.664-0.055-0.094-0.094-0.193-0.152-0.285-0.051-0.081-0.093-0.168-0.144-0.25-0.102-0.163-0.234-0.301-0.371-0.434-0.081-0.079-0.174-0.147-0.264-0.215-0.039-0.029-0.062-0.071-0.099-0.102-0.038-0.032-0.084-0.050-0.12-0.086-0.12-0.12-0.223-0.239-0.365-0.334-0.079-0.053-0.158-0.106-0.237-0.159-0.068-0.047-0.141-0.064-0.208-0.108-0.061-0.039-0.118-0.086-0.18-0.123-0.066-0.039-0.148-0.060-0.22-0.090-0.298-0.123-0.604-0.193-0.931-0.196-0.18-0.002-0.364 0.020-0.539 0.062-0.104 0.025-0.205 0.047-0.307 0.078-0.078 0.024-0.156 0.052-0.237 0.068-0.102 0.020-0.188 0.018-0.284 0.065-0.080 0.039-0.162 0.068-0.239 0.113-0.099 0.058-0.201 0.11-0.3 0.163-0.060 0.032-0.133 0.071-0.186 0.113-0.286 0.229-0.567 0.517-0.765 0.831-0.062 0.081-0.118 0.165-0.168 0.25-0.128 0.218-0.224 0.456-0.312 0.693-0.054 0.145-0.084 0.31-0.126 0.451-0.053 0.181-0.080 0.403-0.062 0.591 0.012 0.124 0.037 0.253 0.059 0.375 0.018 0.103 0.065 0.214 0.095 0.311 0.011 0.034 0.031 0.060 0.044 0.093 0.011 0.029 0.008 0.057 0.019 0.086 0.020 0.054 0.059 0.102 0.085 0.151 0.050 0.095 0.109 0.199 0.153 0.295 0.046 0.101 0.116 0.176 0.188 0.255 0.039 0.043 0.071 0.098 0.116 0.136 0.020 0.017 0.047 0.026 0.067 0.043 0.026 0.022 0.036 0.052 0.061 0.076 0.039 0.037 0.069 0.062 0.104 0.103 0.028 0.033 0.052 0.080 0.085 0.115 0.065 0.069 0.197 0.147 0.281 0.176 0.096 0.033 0.194 0.11 0.294 0.134 0.081 0.019 0.177 0.018 0.261 0.015 0.117-0.004 0.213-0.009 0.324-0.054 0.101-0.040 0.184-0.085 0.294-0.106 0.112-0.021 0.219-0.050 0.327-0.083 0.221-0.068 0.433-0.165 0.584-0.344 0.075-0.089 0.171-0.158 0.237-0.257 0.060-0.090 0.121-0.18 0.182-0.27 0.045-0.067 0.090-0.133 0.135-0.2 0.062-0.093 0.112-0.192 0.135-0.294 0.010-0.047 0.024-0.088 0.040-0.132 0.006-0.018 0.021-0.043 0.027-0.063 0.008-0.024 0.004-0.046 0.012-0.069 0.010-0.028 0.041-0.050 0.055-0.077s0.016-0.051 0.024-0.080c0.014-0.053 0.018-0.094 0.016-0.149-0.004-0.103 0.020-0.193 0.008-0.297-0.013-0.119-0.037-0.234-0.068-0.35-0.027-0.104-0.064-0.236-0.114-0.331-0.102-0.193-0.219-0.359-0.344-0.534-0.063-0.088-0.13-0.174-0.208-0.239-0.044-0.037-0.063-0.075-0.116-0.111-0.052-0.035-0.091-0.045-0.147-0.066-0.098-0.037-0.212-0.047-0.319-0.049-0.062-0.001-0.126 0.014-0.185 0.028-0.030 0.007-0.064 0.003-0.092 0.011-0.016 0.004-0.033 0.025-0.050 0.032-0.036 0.014-0.082 0.013-0.12 0.022-0.058 0.014-0.115 0.038-0.173 0.054-0.113 0.032-0.217 0.063-0.327 0.106-0.065 0.026-0.114 0.050-0.168 0.095-0.043 0.036-0.092 0.080-0.13 0.12-0.021 0.022-0.030 0.055-0.052 0.076-0.021 0.020-0.046 0.029-0.066 0.052-0.034 0.039-0.059 0.090-0.088 0.133-0.010 0.014-0.016 0.027-0.022 0.040-0.005 0.004-0.010 0.007-0.014 0.012-0.034 0.039-0.059 0.090-0.088 0.133-0.036 0.053-0.035 0.096-0.066 0.147-0.027 0.044-0.068 0.086-0.087 0.134-0.042 0.105-0.072 0.212-0.096 0.322-0.026 0.116 0.006 0.205 0.028 0.32 0.020 0.102 0.037 0.207 0.087 0.298 0.024 0.043 0.060 0.094 0.076 0.138 0.016 0.045 0.019 0.092 0.044 0.135 0.028 0.047 0.063 0.097 0.095 0.143 0.013 0.018 0.032 0.058 0.051 0.070s0.039-0.005 0.059 0.003c0.112 0.040 0.181 0.144 0.301 0.172 0.104 0.024 0.189 0.060 0.294 0.047 0.099-0.012 0.196 0.007 0.29-0.013 0.055-0.011 0.114-0.032 0.166-0.054 0.039-0.017 0.078-0.026 0.116-0.043 0.045-0.020 0.112-0.068 0.154-0.098 0.047-0.034 0.074-0.088 0.106-0.136 0.041-0.061 0.096-0.127 0.132-0.195 0.058-0.084 0.139-0.177 0.157-0.27 0.016-0.081 0.014-0.175 0.007-0.259-0.005-0.060-0.021-0.107-0.016-0.167 0.004-0.042 0.007-0.084 0.006-0.127-0.007-0.232-0.232-0.352-0.425-0.414-0.163-0.052-0.38-0.048-0.548-0.017-0.087 0.016-0.18 0.071-0.209 0.165-0.005 0.017-0.005 0.034-0.004 0.052-0.054 0.028-0.102 0.071-0.12 0.133-0.015 0.049 0.012 0.1-0.006 0.155-0.015 0.046-0.021 0.063-0.006 0.115 0.016 0.055 0.050 0.090 0.085 0.137 0.013 0.017 0.029 0.031 0.045 0.046-0.082-0.023-0.147-0.072-0.225-0.123-0.049-0.032-0.082-0.066-0.116-0.114-0.041-0.058-0.032-0.082-0.016-0.148s0.019-0.141 0.037-0.21c0.038-0.030 0.082-0.056 0.13-0.085 0.072-0.043 0.171-0.068 0.236-0.119 0.035-0.027 0.057-0.059 0.099-0.078s0.095-0.024 0.135-0.044c0.094-0.046 0.176-0.121 0.268-0.173 0.166-0.093 0.478-0.302 0.658-0.133 0.143 0.134 0.033 0.395 0.025 0.561-0.006 0.128 0.038 0.243 0.090 0.359 0.070 0.157 0.124 0.343 0.076 0.512-0.019 0.068-0.038 0.143-0.075 0.204-0.030 0.048-0.067 0.091-0.095 0.141-0.036 0.065-0.057 0.137-0.086 0.205-0.039 0.043-0.079 0.086-0.112 0.133-0.061 0.086-0.111 0.173-0.193 0.242-0.078 0.067-0.147 0.135-0.222 0.205-0.102 0.095-0.27 0.184-0.413 0.191-0.113 0.006-0.205-0.005-0.308-0.042-0.035-0.012-0.058-0.044-0.092-0.056-0.021-0.008-0.037 0.004-0.058-0.004-0.052-0.019-0.090-0.068-0.121-0.107-0.071-0.091-0.15-0.169-0.207-0.266-0.050-0.085-0.092-0.177-0.141-0.264-0.045-0.080-0.095-0.143-0.135-0.226-0.045-0.095-0.088-0.208-0.161-0.285-0.037-0.040-0.061-0.076-0.103-0.108-0.039-0.030-0.087-0.072-0.114-0.112-0.061-0.089-0.052-0.226-0.086-0.327-0.035-0.106-0.070-0.175-0.047-0.287 0.022-0.104 0.041-0.208 0.060-0.31 0.012-0.064 0.052-0.101 0.073-0.16s0.051-0.097 0.080-0.154c0.025-0.048 0.037-0.093 0.064-0.139 0.059-0.076 0.15-0.139 0.226-0.198 0.041-0.032 0.067-0.066 0.108-0.102s0.070-0.081 0.111-0.117c0.030-0.027 0.053-0.042 0.076-0.076 0.015-0.022 0.026-0.040 0.046-0.058 0.031-0.027 0.084-0.043 0.122-0.061 0.046-0.020 0.076-0.059 0.117-0.082 0.032-0.018 0.075-0.028 0.11-0.044 0.182-0.084 0.368-0.176 0.56-0.238 0.090-0.029 0.184-0.060 0.268-0.101 0.048-0.024 0.076-0.063 0.124-0.090 0.035-0.019 0.070-0.036 0.105-0.056 0.091-0.052 0.187-0.056 0.295-0.062 0.098-0.005 0.194 0.016 0.296 0.011 0.090-0.004 0.173-0.012 0.26-0.004 0.099 0.009 0.232 0.001 0.314 0.051 0.055 0.034 0.095 0.058 0.155 0.080 0.056 0.019 0.098 0.061 0.154 0.080 0.031 0.011 0.055 0.031 0.085 0.043 0.021 0.008 0.037-0.004 0.058 0.004 0.050 0.018 0.091 0.063 0.14 0.080 0.098 0.034 0.177 0.118 0.272 0.168 0.028 0.014 0.059 0.005 0.081 0.018s0.030 0.051 0.050 0.070c0.024 0.023 0.061 0.032 0.085 0.054 0.023 0.022 0.032 0.050 0.055 0.072 0.021 0.021 0.055 0.028 0.077 0.048 0.056 0.048 0.078 0.128 0.102 0.197 0.064 0.191 0.078 0.4 0.156 0.585 0.129 0.302 0.373 0.592 0.371 0.934-0 0.084 0.008 0.185-0.013 0.267-0.023 0.091-0.057 0.17-0.065 0.266-0.009 0.111-0.033 0.214-0.050 0.324-0.034 0.215 0.056 0.442 0.062 0.656 0.003 0.103-0.006 0.215-0.019 0.317-0.015 0.117-0.082 0.199-0.119 0.308-0.018 0.053-0.024 0.117-0.041 0.163-0.018 0.050-0.058 0.099-0.079 0.151-0.014 0.034-0.027 0.065-0.040 0.095-0.039 0.044-0.071 0.085-0.092 0.144-0.001 0.002-0.002 0.004-0.003 0.007-0.054 0.058-0.096 0.104-0.121 0.178-0.005 0.014-0.012 0.026-0.018 0.039-0.081 0.108-0.168 0.206-0.272 0.298-0.088 0.077-0.169 0.172-0.269 0.234-0.118 0.072-0.226 0.183-0.328 0.275-0.080 0.071-0.148 0.15-0.249 0.203-0.113 0.061-0.219 0.112-0.34 0.152-0.066 0.022-0.129 0.049-0.192 0.080-0.051 0.025-0.108 0.028-0.162 0.050-0.12 0.048-0.242 0.099-0.365 0.139-0.034 0.011-0.066 0.008-0.099 0.015-0.036 0.008-0.067 0.029-0.1 0.042-0.063 0.025-0.125 0.046-0.19 0.066-0.114 0.036-0.208 0.076-0.33 0.088-0.099 0.009-0.203 0.027-0.302 0.022-0.101-0.005-0.199-0.043-0.299-0.066-0.053-0.012-0.102-0.030-0.151-0.041-0.047-0.011-0.095-0.020-0.14-0.030-0.103-0.022-0.213-0.038-0.317-0.054-0.108-0.016-0.212-0.068-0.322-0.088-0.022-0.004-0.050-0.002-0.070-0.010-0.029-0.011-0.049-0.044-0.078-0.055-0.018-0.007-0.046-0.001-0.060-0.008-0.027-0.015-0.030-0.040-0.051-0.062-0.074-0.078-0.196-0.134-0.285-0.194-0.025-0.017-0.055-0.032-0.078-0.052-0.021-0.018-0.023-0.034-0.037-0.050-0.035-0.041-0.090-0.068-0.135-0.098-0.048-0.032-0.096-0.064-0.143-0.096s-0.098-0.037-0.147-0.066c-0.106-0.062-0.206-0.14-0.308-0.208-0.057-0.038-0.087-0.087-0.139-0.126-0.042-0.032-0.089-0.059-0.132-0.088-0.059-0.040-0.118-0.079-0.176-0.118-0.028-0.019-0.058-0.048-0.089-0.061-0.028-0.012-0.058-0.009-0.086-0.023-0.066-0.031-0.133-0.091-0.194-0.132-0.041-0.028-0.096-0.053-0.132-0.087-0.086-0.082-0.144-0.195-0.226-0.282-0.086-0.092-0.128-0.205-0.165-0.327-0.033-0.107-0.089-0.205-0.121-0.313-0.028-0.096-0.029-0.195-0.065-0.287-0.024-0.061-0.049-0.116-0.076-0.175-0.021-0.046-0.050-0.081-0.070-0.127-0.048-0.107-0.076-0.225-0.133-0.33-0.118-0.22-0.246-0.443-0.307-0.685-0.010-0.041-0.024-0.074-0.037-0.113-0.012-0.037-0.005-0.058-0.007-0.094-0.004-0.065-0.040-0.129-0.053-0.195-0.019-0.092-0.066-0.174-0.068-0.27-0.001-0.035 0.008-0.064-0.003-0.1-0.009-0.031-0.034-0.056-0.040-0.087-0.008-0.043 0.003-0.088-0.004-0.132-0.006-0.037-0.015-0.074-0.022-0.111-0.014-0.074-0.029-0.147-0.043-0.221-0.033-0.167-0.046-0.335-0.079-0.501-0.015-0.076-0.041-0.157-0.034-0.234 0.008-0.085 0.005-0.17-0.022-0.253-0.023-0.073-0.056-0.135-0.060-0.215-0.004-0.081 0.002-0.157 0.006-0.238 0.004-0.073-0.039-0.137-0.047-0.205-0.008-0.065-0.019-0.137-0.025-0.201-0.012-0.132-0.023-0.25-0.047-0.376-0.026-0.132-0.002-0.271-0.054-0.4-0.025-0.063-0.032-0.129-0.063-0.191-0.027-0.054-0.043-0.093-0.054-0.151-0.024-0.123-0.066-0.232-0.103-0.353-0.016-0.051-0.014-0.108-0.029-0.157-0.017-0.051-0.050-0.096-0.067-0.147-0.038-0.118-0.089-0.241-0.11-0.364-0.018-0.109-0.082-0.211-0.098-0.318-0.018-0.128-0.008-0.263-0.009-0.391-0.001-0.073 0.005-0.148 0.005-0.221-0-0.067-0.016-0.116-0.031-0.18-0.029-0.131-0.031-0.258-0.051-0.388-0.009-0.058-0.014-0.124-0.030-0.179-0.009-0.032-0.034-0.064-0.040-0.098-0.006-0.031 0.003-0.063-0.006-0.095-0.011-0.037-0.032-0.067-0.042-0.105-0.009-0.036-0.010-0.074-0.022-0.11-0.022-0.064-0.063-0.131-0.077-0.197-0.007-0.034-0.003-0.060-0.014-0.094-0.010-0.031-0.024-0.059-0.037-0.089-0.027-0.064-0.050-0.129-0.078-0.192-0.049-0.11-0.094-0.223-0.144-0.333-0.030-0.067-0.061-0.143-0.104-0.202-0.042-0.056-0.057-0.119-0.086-0.182-0.112-0.25-0.269-0.48-0.422-0.704-0.075-0.11-0.158-0.214-0.229-0.326-0.068-0.106-0.122-0.221-0.197-0.324s-0.142-0.218-0.23-0.311c-0.030-0.032-0.068-0.049-0.097-0.080-0.027-0.028-0.047-0.053-0.078-0.078-0.054-0.042-0.109-0.096-0.157-0.145-0.219-0.225-0.399-0.489-0.606-0.728-0.108-0.125-0.182-0.277-0.262-0.418s-0.188-0.264-0.262-0.407c-0.038-0.074-0.089-0.141-0.129-0.216-0.031-0.059-0.054-0.12-0.087-0.178-0.068-0.12-0.147-0.249-0.252-0.338-0.098-0.082-0.187-0.188-0.274-0.28-0.050-0.053-0.099-0.109-0.148-0.161-0.044-0.046-0.104-0.069-0.146-0.117s-0.094-0.076-0.147-0.114c-0.052-0.037-0.081-0.098-0.139-0.127-0.055-0.028-0.104-0.036-0.158-0.073-0.048-0.032-0.095-0.064-0.143-0.096-0.195-0.131-0.422-0.181-0.639-0.263-0.062-0.023-0.131-0.022-0.194-0.042-0.073-0.023-0.144-0.041-0.22-0.054-0.154-0.026-0.307-0.049-0.462-0.076-0.075-0.013-0.142-0.044-0.22-0.053-0.069-0.008-0.125-0.037-0.191-0.050-0.131-0.025-0.258-0.060-0.39-0.085-0.133-0.024-0.265-0.064-0.399-0.085-0.077-0.012-0.14-0.028-0.215-0.021-0.119 0.010-0.226-0.029-0.346-0.007-0.099 0.018-0.2 0.016-0.299 0.040-0.083 0.020-0.164 0.049-0.245 0.075-0.173 0.056-0.335 0.132-0.487 0.231-0.116 0.076-0.242 0.143-0.35 0.23-0.085 0.068-0.148 0.155-0.224 0.232-0.082 0.084-0.17 0.162-0.255 0.242s-0.183 0.141-0.262 0.226c-0.176 0.187-0.364 0.359-0.542 0.544-0.153 0.159-0.284 0.339-0.437 0.498-0.098 0.101-0.176 0.204-0.257 0.318-0.059 0.083-0.136 0.15-0.188 0.238-0.014 0.023-0.025 0.047-0.038 0.071-0.031 0.036-0.061 0.072-0.086 0.114-0.116 0.198-0.214 0.405-0.32 0.608-0.113 0.215-0.166 0.456-0.27 0.677-0.093 0.196-0.177 0.393-0.25 0.597-0.153 0.429-0.326 0.871-0.334 1.332-0.003 0.146-0.004 0.294 0.061 0.429 0.055 0.115 0.056 0.227 0.083 0.352 0.048 0.217 0.186 0.412 0.388 0.517 0.091 0.047 0.216 0.068 0.323 0.089 0.119 0.024 0.266 0.033 0.389 0.029 0.058-0.002 0.117 0.015 0.174 0.010s0.112-0.013 0.167-0.020c0.121-0.014 0.231-0.026 0.345-0.048 0.256-0.049 0.402-0.216 0.6-0.364 0.049-0.036 0.088-0.079 0.133-0.119 0.025-0.022 0.036-0.050 0.058-0.072 0.024-0.024 0.051-0.033 0.073-0.063 0.102-0.139 0.242-0.241 0.366-0.361 0.15-0.144 0.307-0.281 0.455-0.427s0.288-0.301 0.444-0.44c0.163-0.145 0.292-0.318 0.444-0.469 0.073-0.072 0.124-0.172 0.181-0.258 0.046-0.063 0.087-0.13 0.129-0.193 0.050-0.074 0.090-0.139 0.124-0.221 0.018-0.045 0.050-0.078 0.074-0.119 0.022-0.038 0.028-0.079 0.046-0.12 0.029-0.066 0.071-0.131 0.096-0.199 0.046-0.124 0.045-0.275 0.063-0.405 0.030-0.219 0.041-0.457-0.002-0.674-0.041-0.211-0.122-0.41-0.18-0.614-0.016-0.055-0.028-0.096-0.064-0.141-0.014-0.018-0.027-0.043-0.040-0.059-0.014-0.017-0.034-0.030-0.049-0.048-0.034-0.040-0.045-0.076-0.104-0.096-0.043-0.014-0.117-0.022-0.166-0.024-0.171-0.008-0.32 0.060-0.472 0.131-0.188 0.088-0.384 0.202-0.537 0.343-0.077 0.070-0.144 0.154-0.217 0.229-0.060 0.061-0.101 0.134-0.142 0.206-0.051 0.058-0.090 0.124-0.128 0.191-0.116 0.147-0.26 0.272-0.375 0.422-0.14 0.184-0.296 0.358-0.433 0.544-0.026 0.036-0.046 0.075-0.068 0.113-0.018 0.024-0.038 0.047-0.056 0.071-0.088 0.12-0.143 0.259-0.223 0.384-0.064 0.1-0.133 0.196-0.185 0.304-0.060 0.125-0.046 0.245-0.051 0.378-0.004 0.11-0.014 0.197 0.012 0.304 0.020 0.084 0.016 0.208 0.081 0.272 0.158 0.155 0.471 0.044 0.619-0.065 0.184-0.134 0.346-0.277 0.473-0.465 0.076-0.113 0.163-0.229 0.238-0.348 0.097-0.136 0.194-0.276 0.25-0.424 0.009-0.025 0.003-0.045 0.012-0.069s0.030-0.040 0.038-0.065c0.011-0.032 0.014-0.1-0.022-0.117-0.091-0.043-0.247 0.102-0.289 0.16-0.038 0.053-0.074 0.108-0.107 0.164-0.007 0.008-0.013 0.015-0.017 0.021-0.073 0.102-0.139 0.21-0.192 0.323-0.015 0.032-0.022 0.068-0.034 0.101-0.057 0.056-0.141 0.097-0.211 0.121-0.090 0.030-0.205 0.056-0.232-0.059-0.014-0.060-0-0.116 0.014-0.175 0.011-0.045 0.024-0.104 0.038-0.141 0.022-0.058 0.048-0.112 0.069-0.17 0.011-0.029 0.010-0.050 0.027-0.078 0.015-0.024 0.030-0.041 0.040-0.069 0.038-0.108 0.11-0.2 0.175-0.298 0.045-0.066 0.089-0.139 0.134-0.212 0.045-0.060 0.091-0.118 0.144-0.164 0.025-0.022 0.034-0.053 0.056-0.075 0.018-0.017 0.034-0.017 0.051-0.031 0.036-0.030 0.066-0.055 0.097-0.092 0.060-0.073 0.132-0.121 0.215-0.171s0.172-0.118 0.248-0.189c0.078-0.072 0.172-0.12 0.252-0.185 0.15-0.122 0.324-0.23 0.521-0.27 0.114-0.023 0.194 0.018 0.261 0.112 0.080 0.112 0.072 0.179 0.089 0.309 0.013 0.102-0.026 0.166-0.048 0.261-0.006 0.026-0.009 0.062-0.017 0.085-0.012 0.038-0.038 0.076-0.052 0.118-0.032 0.098-0.038 0.199-0.086 0.293-0.038 0.075-0.083 0.146-0.122 0.22-0.008 0.010-0.016 0.020-0.025 0.030-0.080 0.086-0.136 0.189-0.211 0.279-0.034 0.040-0.074 0.075-0.105 0.117s-0.053 0.086-0.074 0.128c-0.017 0.018-0.035 0.036-0.050 0.056-0.070 0.094-0.091 0.185-0.155 0.278-0.118 0.174-0.187 0.373-0.304 0.547-0.033 0.050-0.064 0.094-0.085 0.148-0.063 0.065-0.133 0.126-0.182 0.2-0.059 0.088-0.144 0.154-0.229 0.206-0.106 0.064-0.189 0.12-0.276 0.218-0.061 0.070-0.134 0.133-0.22 0.175-0.093 0.045-0.18 0.1-0.28 0.136-0.19 0.068-0.397 0.137-0.598 0.117-0.219-0.022-0.424-0.106-0.575-0.275-0.038-0.043-0.085-0.070-0.115-0.116-0.026-0.040-0.046-0.095-0.065-0.141-0.021-0.052-0.038-0.116-0.046-0.17-0.008-0.061-0.036-0.115-0.042-0.176-0.004-0.039 0.002-0.065-0.008-0.102-0.010-0.035-0.027-0.060-0.028-0.099-0.003-0.072-0.007-0.143-0.009-0.214-0.005-0.149-0.033-0.303-0.009-0.453 0.028-0.175 0.078-0.345 0.107-0.52 0.016-0.096 0.056-0.185 0.081-0.281 0.023-0.089 0.077-0.159 0.103-0.247 0.029-0.097 0.074-0.188 0.109-0.282 0.030-0.078 0.069-0.169 0.113-0.24 0.028-0.046 0.065-0.087 0.093-0.134 0.025-0.042 0.032-0.089 0.054-0.132 0.041-0.082 0.104-0.146 0.143-0.228 0.025-0.027 0.049-0.054 0.071-0.087 0.058-0.088 0.111-0.182 0.187-0.255 0.067-0.064 0.116-0.143 0.182-0.209 0.068-0.069 0.129-0.144 0.198-0.213 0.248-0.248 0.475-0.501 0.768-0.702 0.071-0.049 0.143-0.091 0.218-0.134 0.066-0.038 0.134-0.060 0.201-0.096 0.084-0.046 0.167-0.102 0.254-0.142 0.080-0.037 0.168-0.054 0.248-0.091 0.286-0.13 0.622-0.191 0.934-0.202 0.158-0.006 0.321 0.017 0.479 0.034 0.164 0.018 0.33 0.062 0.489 0.106 0.318 0.088 0.623 0.183 0.929 0.301 0.147 0.057 0.315 0.088 0.446 0.176 0.075 0.050 0.159 0.074 0.234 0.126s0.153 0.104 0.231 0.155c0.087 0.057 0.151 0.135 0.238 0.192 0.108 0.071 0.199 0.146 0.297 0.229 0.088 0.074 0.158 0.144 0.233 0.232 0.039 0.046 0.090 0.075 0.131 0.118s0.068 0.098 0.111 0.141c0.104 0.105 0.224 0.198 0.32 0.31 0.080 0.094 0.158 0.188 0.244 0.277 0.18 0.185 0.333 0.395 0.494 0.596 0.092 0.115 0.176 0.236 0.27 0.349 0.038 0.046 0.058 0.101 0.090 0.151 0.030 0.047 0.077 0.081 0.105 0.129 0.037 0.064 0.050 0.14 0.085 0.206 0.028 0.052 0.061 0.101 0.089 0.153 0.064 0.117 0.108 0.241 0.174 0.358 0.152 0.268 0.32 0.534 0.442 0.816 0.086 0.198 0.18 0.391 0.271 0.587 0.046 0.098 0.1 0.192 0.143 0.291 0.041 0.093 0.064 0.192 0.099 0.288 0.095 0.256 0.165 0.517 0.262 0.773 0.079 0.209 0.158 0.422 0.228 0.635 0.085 0.261 0.136 0.536 0.199 0.803 0.054 0.229 0.116 0.452 0.142 0.687 0.029 0.263 0.093 0.524 0.145 0.784 0.023 0.114 0.018 0.232 0.041 0.346 0.022 0.112 0.048 0.219 0.062 0.332 0.028 0.242 0.078 0.477 0.097 0.721 0.011 0.135 0.024 0.273 0.057 0.404 0.026 0.103 0.063 0.202 0.078 0.308 0.032 0.23 0.052 0.462 0.097 0.691 0.044 0.227 0.119 0.446 0.172 0.671 0.101 0.427 0.282 0.839 0.473 1.233 0.109 0.224 0.184 0.459 0.305 0.679 0.044 0.079 0.079 0.162 0.122 0.241 0.051 0.095 0.116 0.181 0.163 0.278 0.147 0.301 0.289 0.604 0.46 0.895 0.099 0.169 0.224 0.316 0.344 0.469 0.108 0.136 0.237 0.264 0.381 0.361 0.078 0.052 0.154 0.11 0.234 0.158 0.043 0.026 0.090 0.032 0.134 0.055 0.035 0.018 0.065 0.047 0.098 0.068 0.074 0.048 0.155 0.070 0.229 0.122 0.077 0.054 0.162 0.079 0.241 0.13 0.14 0.091 0.32 0.147 0.476 0.208 0.149 0.058 0.311 0.092 0.454 0.162 0.349 0.171 0.756 0.162 1.13 0.235 0.093 0.018 0.18 0.046 0.273 0.061s0.184 0.017 0.274 0.032c0.2 0.033 0.437 0.030 0.634-0.009 0.109-0.022 0.22-0.033 0.329-0.054 0.101-0.020 0.198-0.059 0.297-0.087 0.142-0.041 0.266-0.124 0.403-0.172 0.054-0.019 0.105-0.025 0.156-0.052 0.053-0.027 0.103-0.063 0.156-0.090 0.116-0.060 0.237-0.11 0.347-0.181 0.101-0.064 0.197-0.141 0.298-0.208 0.114-0.076 0.228-0.149 0.342-0.223 0.055-0.035 0.093-0.090 0.147-0.127 0.058-0.040 0.118-0.070 0.17-0.118 0.186-0.173 0.385-0.327 0.565-0.507 0.074-0.075 0.154-0.169 0.212-0.257 0.053-0.080 0.118-0.159 0.166-0.244 0.056-0.078 0.118-0.156 0.154-0.243 0.048-0.115 0.111-0.226 0.158-0.341 0.041-0.102 0.067-0.208 0.105-0.312 0.040-0.108 0.082-0.219 0.101-0.332 0.009-0.054 0.005-0.109 0.019-0.163 0.014-0.055 0.037-0.104 0.043-0.161 0.021-0.222 0.041-0.457 0.040-0.679-0.001-0.226 0.029-0.45 0.039-0.675 0.003-0.068-0.018-0.133-0.011-0.202 0.006-0.062 0.014-0.122 0.016-0.185z"></path>
<path d="M15.162 26.918c0.002 0.002 0.005 0.004 0.007 0.006 0.064 0.073 0.111 0.129 0.195 0.185 0.006 0.004 0.013 0.006 0.019 0.010-0.031-0.005-0.062-0.013-0.090-0.033-0.068-0.046-0.094-0.099-0.13-0.168zM18.211 25.119c-0.030-0.096-0.064-0.189-0.099-0.284-0.018-0.050-0.038-0.085-0.063-0.131-0.034-0.063-0.050-0.132-0.086-0.196-0.114-0.2-0.254-0.396-0.4-0.572-0.069-0.084-0.147-0.15-0.225-0.225-0.044-0.042-0.081-0.079-0.134-0.114-0.057-0.037-0.090-0.084-0.141-0.125-0.080-0.065-0.143-0.153-0.228-0.214-0.050-0.036-0.102-0.068-0.153-0.102-0.053-0.036-0.108-0.049-0.162-0.078-0.097-0.053-0.2-0.090-0.299-0.143-0.023-0.012-0.048-0.013-0.072-0.023-0.040-0.016-0.066-0.047-0.104-0.065-0.062-0.030-0.13-0.050-0.194-0.076-0.115-0.046-0.234-0.086-0.355-0.118-0.135-0.036-0.256-0.098-0.393-0.128-0.116-0.025-0.238-0.033-0.352-0.070-0.117-0.038-0.235-0.094-0.355-0.12-0.223-0.048-0.439-0.129-0.663-0.188-0.266-0.070-0.531-0.1-0.801-0.135-0.143-0.019-0.296 0.016-0.44 0.019-0.080 0.002-0.15 0.018-0.23 0.028-0.081 0.011-0.164 0.003-0.244 0.016-0.113 0.018-0.227 0.050-0.339 0.075-0.12 0.026-0.259 0.036-0.374 0.080-0.028 0.011-0.047 0.028-0.073 0.042-0.030 0.017-0.060 0.018-0.092 0.030-0.051 0.020-0.098 0.034-0.15 0.050-0.092 0.029-0.187 0.051-0.279 0.082-0.106 0.037-0.214 0.061-0.326 0.085-0.053 0.012-0.103 0.018-0.154 0.031-0.059 0.016-0.126 0.039-0.186 0.044-0.189 0.015-0.382 0.055-0.579 0.041-0.194-0.014-0.402-0.035-0.597-0.018-0.1 0.009-0.202 0.017-0.301 0.018-0.135 0-0.261-0.008-0.397-0.002-0.128 0.005-0.252 0.005-0.376-0.004-0.056-0.004-0.109 0.014-0.165 0.010-0.078-0.004-0.141 0.023-0.217 0.030-0.206 0.021-0.43-0.032-0.63-0.055-0.188-0.021-0.393-0.026-0.562-0.113-0.072-0.037-0.158-0.051-0.228-0.092-0.074-0.044-0.151-0.096-0.22-0.148-0.035-0.026-0.050-0.063-0.085-0.089-0.039-0.029-0.058-0.047-0.086-0.087-0.050-0.072-0.075-0.149-0.106-0.23-0.027-0.071-0.068-0.131-0.089-0.204-0.031-0.107-0.048-0.231-0.059-0.344-0.007-0.076-0.016-0.152-0.027-0.228-0.006-0.045-0.015-0.092 0.002-0.133 0.020-0.048 0.049-0.088 0.066-0.139 0.026-0.080 0.043-0.159 0.074-0.238 0.034-0.088 0.060-0.183 0.089-0.273 0.058-0.185 0.11-0.383 0.204-0.551 0.027-0.049 0.041-0.101 0.071-0.149 0.029-0.047 0.066-0.087 0.087-0.138s0.041-0.092 0.072-0.14c0.038-0.059 0.048-0.118 0.089-0.176 0.034-0.049 0.048-0.098 0.072-0.149 0.028-0.040 0.061-0.080 0.082-0.122 0.003-0.005 0.004-0.010 0.007-0.015 0.007-0.010 0.015-0.020 0.022-0.030 0.030-0.045 0.071-0.091 0.096-0.14 0.032-0.064 0.050-0.12 0.091-0.181 0.073-0.108 0.118-0.218 0.19-0.326 0.070-0.104 0.14-0.208 0.21-0.313 0.058-0.086 0.115-0.171 0.173-0.257 0.041-0.055 0.091-0.092 0.13-0.15 0.040-0.061 0.081-0.122 0.122-0.182 0-0.001 0.001-0.001 0.002-0.002 0.018-0.028 0.038-0.055 0.056-0.083 0.071-0.095 0.162-0.176 0.237-0.268 0.065-0.079 0.154-0.143 0.231-0.21 0.085-0.074 0.167-0.15 0.257-0.22 0.072-0.057 0.152-0.097 0.23-0.148 0.038-0.025 0.060-0.060 0.099-0.085 0.047-0.030 0.082-0.063 0.125-0.098 0.078-0.064 0.151-0.087 0.239-0.129 0.042-0.020 0.067-0.041 0.115-0.042 0.035-0.001 0.072 0.012 0.107 0.013 0.106 0.004 0.149 0.025 0.235 0.082 0.012 0.008 0.030 0.017 0.041 0.027 0.017 0.015 0.022 0.035 0.033 0.046 0.034 0.036 0.077 0.055 0.096 0.108 0.022 0.063 0.020 0.152 0.019 0.219-0.002 0.086-0.002 0.169-0.012 0.256-0.010 0.077-0.036 0.162-0.060 0.239-0.022 0.071-0.049 0.144-0.085 0.211-0.018 0.025-0.033 0.051-0.046 0.077-0.052 0.070-0.116 0.148-0.144 0.225-0.018 0.050-0.033 0.084-0.065 0.13-0.038 0.055-0.051 0.108-0.081 0.165-0.019 0.036-0.041 0.071-0.063 0.106-0.060 0.084-0.122 0.167-0.178 0.25-0.049 0.073-0.103 0.145-0.149 0.221-0.044 0.063-0.090 0.126-0.129 0.192-0.017 0.028-0.030 0.059-0.044 0.090-0.020 0.016-0.038 0.032-0.056 0.059-0.023 0.035-0.047 0.070-0.070 0.104s-0.047 0.070-0.070 0.104c-0.010 0.015-0.030 0.035-0.036 0.052-0 0.001-0 0.002-0 0.002-0.006 0.008-0.012 0.017-0.017 0.026-0.023 0.035-0.046 0.070-0.070 0.104-0.011 0.016-0.030 0.035-0.036 0.052-0.009 0.024-0.003 0.042-0.012 0.065 0 0 0 0 0 0-0.006 0.008-0.013 0.016-0.018 0.024-0.022 0.032-0.042 0.077-0.069 0.105-0.038 0.040-0.073 0.063-0.105 0.111-0.040 0.060-0.079 0.122-0.121 0.181-0.001 0.001-0.002 0.002-0.003 0.003-0.006 0.009-0.012 0.017-0.018 0.026-0.027 0.035-0.062 0.053-0.089 0.088-0.034 0.046-0.058 0.078-0.099 0.115-0.035 0.032-0.050 0.077-0.083 0.11-0.016 0.016-0.038 0.022-0.054 0.039-0.014 0.015-0.020 0.038-0.033 0.053-0.058 0.066-0.135 0.132-0.221 0.154-0.062 0.016-0.144 0.014-0.206 0.006-0.065-0.008-0.178-0.010-0.234-0.043-0.090-0.053-0.060-0.309-0.046-0.396 0.028-0.167 0.101-0.331 0.196-0.473 0.014-0.021 0.028-0.042 0.043-0.064 0-0.001 0.002-0.001 0.002-0.002 0.012-0.016 0.023-0.035 0.035-0.052 0.024-0.036 0.060-0.074 0.078-0.114 0.002-0.004 0.002-0.008 0.004-0.012 0.002-0.002 0.006-0.004 0.007-0.006 0.012-0.016 0.023-0.035 0.034-0.052 0.024-0.036 0.060-0.074 0.078-0.114 0.037-0.083 0.052-0.176 0.088-0.259 0.005-0.011 0.011-0.022 0.017-0.033 0.006-0.008 0.012-0.016 0.018-0.024 0.027-0.036 0.064-0.054 0.091-0.090 0.025-0.033 0.047-0.070 0.070-0.104 0.027-0.042 0.058-0.055 0.091-0.090s0.048-0.091 0.082-0.126c0.055-0.058 0.115-0.104 0.172-0.157 0.025-0.023 0.070-0.046 0.090-0.067 0.016-0.017 0.027-0.041 0.043-0.057 0.009-0.009 0.028-0.008 0.033-0.013 0.031-0.029 0.056-0.058 0.091-0.083 0.040-0.028 0.058-0.058 0.089-0.092s0.062-0.051 0.091-0.090c0.027-0.037 0.060-0.065 0.107-0.066-0.027 0.007-0.049-0.012-0.072-0.029 0.031-0.033 0.061-0.051 0.089-0.089 0.027-0.037 0.060-0.065 0.107-0.066-0.042 0.011-0.074-0.043-0.114-0.053-0.028-0.007-0.111-0.009-0.138-0.002-0.032 0.008-0.069 0.063-0.091 0.085-0.013 0.013-0.037 0.026-0.046 0.036-0.022 0.022-0.034 0.056-0.057 0.077-0.014 0.014-0.029 0.006-0.041 0.019-0.014 0.014-0.021 0.038-0.035 0.051-0.017 0.016-0.032 0.008-0.049 0.024s-0.024 0.040-0.043 0.057c-0.024 0.022-0.068 0.038-0.095 0.064-0.044 0.042-0.084 0.080-0.118 0.133-0.029 0.044-0.064 0.063-0.098 0.101-0.030 0.034-0.046 0.082-0.076 0.116-0.032 0.037-0.061 0.046-0.090 0.090-0.027 0.042-0.056 0.083-0.084 0.125-0.010 0.015-0.020 0.031-0.030 0.047-0.003 0.004-0.007 0.008-0.010 0.013-0.004 0.006-0.008 0.012-0.012 0.018-0.011 0.016-0.022 0.032-0.036 0.044-0.035 0.032-0.058 0.053-0.086 0.094-0.025 0.038-0.070 0.083-0.086 0.125-0.002 0.005-0.001 0.008-0.001 0.012-0.013 0.014-0.024 0.028-0.037 0.047-0.025 0.038-0.070 0.083-0.086 0.126-0.008 0.021 0.002 0.032-0.004 0.052-0.015 0.022-0.030 0.044-0.044 0.065 0 0 0 0 0 0-0.015 0.022-0.030 0.044-0.044 0.066-0.045 0.067-0.104 0.137-0.143 0.211-0.052 0.072-0.115 0.148-0.145 0.227-0.027 0.071-0.013 0.148-0.036 0.217-0.032 0.096-0.083 0.17-0.090 0.273-0.006 0.085-0.001 0.137-0.030 0.216-0.003 0.008-0.013 0.048-0.016 0.057-0.006 0.021-0.012 0.036-0.016 0.057-0.010 0.050-0.014 0.088 0.001 0.139 0.022 0.070 0.060 0.164 0.12 0.208 0.037 0.028 0.080 0.061 0.123 0.076 0.025 0.008 0.047 0.014 0.071 0.024s0.042 0.008 0.064 0.016c0.072 0.025 0.141 0.045 0.223 0.020 0.083-0.025 0.156-0.068 0.23-0.104 0.155-0.078 0.315-0.159 0.446-0.283 0.069-0.065 0.139-0.129 0.209-0.192 0.037-0.033 0.053-0.082 0.090-0.114 0.031-0.027 0.070-0.057 0.104-0.088 0.038-0.034 0.055-0.085 0.093-0.119 0.035-0.032 0.059-0.053 0.086-0.094s0.059-0.082 0.084-0.125c0.005-0.008 0.008-0.016 0.011-0.024 0.010-0.011 0.019-0.021 0.028-0.036 0.028-0.042 0.059-0.082 0.084-0.125 0.006-0.010 0.010-0.020 0.014-0.030 0.010-0.011 0.020-0.021 0.030-0.036 0.028-0.042 0.056-0.083 0.084-0.125 0.013-0.020 0.026-0.040 0.040-0.059 0.001-0.001 0.002-0.002 0.002-0.003 0.050-0.074 0.1-0.149 0.15-0.224 0 0 0-0 0-0 0.022-0.032 0.043-0.064 0.064-0.096 0.014-0.020 0.028-0.040 0.046-0.058 0.047-0.048 0.101-0.076 0.141-0.132 0.052-0.074 0.129-0.164 0.172-0.248 0.052-0.068 0.11-0.143 0.138-0.211 0.022-0.053 0.029-0.090 0.063-0.139 0.028-0.040 0.030-0.075 0.049-0.118s0.059-0.086 0.085-0.124c0.035-0.051 0.042-0.084 0.063-0.139 0.014-0.036 0.018-0.036 0.023-0.076 0.004-0.033 0.007-0.047 0.017-0.079 0.013-0.041 0.025-0.086 0.035-0.128 0.025-0.103 0.068-0.208 0.106-0.307 0.035-0.093 0.056-0.195 0.086-0.29 0.013-0.041 0.017-0.088 0.034-0.128 0.010-0.023 0.033-0.040 0.044-0.062 0.016-0.031 0.008-0.046 0.020-0.075 0.009-0.024 0.036-0.040 0.046-0.063 0.005-0.012-0.003-0.028-0-0.036 0.017-0.047 0.039-0.090 0.052-0.14 0.022-0.084 0.022-0.189 0.014-0.27-0.008-0.087-0.054-0.147-0.070-0.229-0.015-0.075-0.017-0.153-0.056-0.22-0.037-0.063-0.089-0.128-0.145-0.182-0.017-0.017-0.046-0.021-0.062-0.039-0.015-0.017-0.007-0.032-0.022-0.048-0.027-0.030-0.105-0.081-0.142-0.095-0.071-0.027-0.19-0.019-0.262 0.014-0.085 0.038-0.17 0.077-0.247 0.13-0.154 0.104-0.285 0.198-0.419 0.323-0.065 0.061-0.13 0.108-0.196 0.171-0.075 0.070-0.152 0.141-0.227 0.21-0.039 0.036-0.082 0.066-0.12 0.101-0.032 0.029-0.047 0.069-0.079 0.098-0.020 0.018-0.039 0.033-0.058 0.053-0.013 0.013-0.037 0.026-0.046 0.035-0.018 0.018-0.029 0.033-0.043 0.055-0.020 0.032-0.041 0.037-0.061 0.057-0.029 0.028-0.045 0.066-0.076 0.094-0.020 0.018-0.038 0.033-0.058 0.052-0.013 0.013-0.037 0.026-0.046 0.036-0.030 0.030-0.056 0.057-0.087 0.086-0.021 0.019-0.027 0.040-0.046 0.060-0.026 0.028-0.054 0.037-0.078 0.069-0.051 0.069-0.121 0.116-0.181 0.181-0.070 0.075-0.136 0.151-0.212 0.221-0.022 0.020-0.038 0.026-0.058 0.051-0.018 0.024-0.030 0.058-0.052 0.080-0.034 0.036-0.065 0.051-0.094 0.095-0.026 0.039-0.051 0.092-0.083 0.126-0.019 0.020-0.044 0.027-0.063 0.047-0.023 0.022-0.039 0.060-0.057 0.086-0.032 0.049-0.066 0.069-0.104 0.11-0.030 0.031-0.052 0.079-0.076 0.115-0.011 0.016-0.016 0.030-0.022 0.045-0.009 0.008-0.017 0.015-0.026 0.024-0.030 0.031-0.051 0.080-0.076 0.115-0.030 0.044-0.035 0.079-0.054 0.124-0.048 0.072-0.097 0.144-0.145 0.216-0.023 0.034-0.046 0.068-0.069 0.102-0.018 0.027-0.037 0.055-0.056 0.082-0.027 0.040-0.054 0.080-0.081 0.12-0.042 0.063-0.064 0.118-0.095 0.187-0.094 0.207-0.245 0.387-0.338 0.595-0.047 0.106-0.079 0.219-0.135 0.32-0.031 0.056-0.046 0.109-0.082 0.165-0.033 0.051-0.050 0.106-0.078 0.159-0.096 0.181-0.107 0.412-0.18 0.603-0.016 0.041-0.035 0.077-0.050 0.118-0.018 0.049-0.038 0.094-0.055 0.145-0.030 0.094-0.035 0.196-0.060 0.293-0.024 0.094-0.060 0.182-0.080 0.279-0.025 0.125-0.015 0.236-0.008 0.36 0.005 0.084 0.025 0.161 0.054 0.239 0.035 0.095 0.117 0.172 0.165 0.262s0.118 0.152 0.183 0.224c0.034 0.038 0.053 0.064 0.097 0.093 0.052 0.034 0.104 0.070 0.155 0.104 0.079 0.053 0.131 0.119 0.21 0.172 0.080 0.054 0.16 0.108 0.24 0.161 0.076 0.051 0.157 0.128 0.243 0.157 0.028 0.010 0.044 0.007 0.071 0.024 0.022 0.014 0.036 0.029 0.062 0.037 0.017 0.005 0.037 0.001 0.054 0.004 0.042 0.007 0.081 0.025 0.122 0.038 0.235 0.070 0.477 0.102 0.722 0.122 0.131 0.011 0.263 0.010 0.396 0.016 0.123 0.005 0.242 0.024 0.365 0.028 0.046 0.001 0.084-0.016 0.128-0.020 0.052-0.006 0.114 0.016 0.165 0.006 0.122-0.024 0.233-0.062 0.356-0.088 0.113-0.024 0.218-0.055 0.323-0.092s0.202-0.112 0.31-0.149c0.054-0.019 0.094-0.020 0.147-0.045 0.033-0.016 0.070-0.025 0.103-0.035 0.106-0.031 0.213-0.068 0.321-0.079 0.215-0.023 0.43-0.036 0.65-0.026 0.044 0.002 0.077-0.006 0.12-0.009 0.059-0.004 0.115 0.002 0.173 0.003 0.118 0.001 0.23 0.006 0.349-0.001 0.231-0.013 0.464-0.039 0.697-0.045 0.055-0.001 0.121 0.003 0.174-0.010 0.050-0.012 0.101-0.037 0.155-0.049 0.063-0.013 0.122-0.052 0.184-0.059 0.064-0.007 0.126 0.002 0.19-0.021 0.062-0.023 0.104-0.025 0.169-0.037 0.064-0.012 0.113-0.007 0.175-0.011 0.041-0.002 0.090-0.013 0.135-0.017 0.052-0.004 0.108-0.014 0.16-0.013 0.070 0 0.147 0.016 0.216 0.024 0.034 0.004 0.062 0.013 0.095 0.019 0.031 0.006 0.044 0.014 0.071 0.025s0.047 0.008 0.073 0.017c0.042 0.016 0.061 0.038 0.105 0.046 0.032 0.006 0.067 0.004 0.098 0.010 0.051 0.009 0.097 0.025 0.147 0.031 0.044 0.005 0.094 0 0.138 0.009 0.088 0.018 0.162 0.038 0.249 0.062s0.183 0.046 0.258 0.091c0.044 0.027 0.090 0.028 0.134 0.059 0.046 0.032 0.081 0.046 0.135 0.059 0.032 0.008 0.060 0.026 0.092 0.034 0.056 0.014 0.12 0.022 0.169 0.052 0.16 0.096 0.328 0.135 0.512 0.187 0.083 0.023 0.169 0.074 0.257 0.083 0.086 0.008 0.179-0.007 0.264 0.003 0.089 0.010 0.187 0.045 0.273 0.070 0.105 0.030 0.174 0.086 0.267 0.142 0.041 0.025 0.084 0.028 0.124 0.052 0.048 0.028 0.074 0.058 0.109 0.097 0.026 0.029 0.060 0.051 0.095 0.064 0.022 0.008 0.030-0.008 0.056 0.012 0.016 0.012 0.055 0.063 0.063 0.081 0.017 0.035 0.011 0.088 0.029 0.128 0.021 0.048 0.052 0.087 0.080 0.129 0.048 0.071 0.099 0.162 0.134 0.241 0.062 0.142 0.146 0.322 0.147 0.484 0 0.054 0.006 0.066 0.032 0.113 0.017 0.032 0.034 0.048 0.058 0.076 0.051 0.058 0.089 0.158 0.129 0.231 0.044 0.080 0.093 0.178 0.082 0.274-0.011 0.095-0.046 0.174-0.024 0.272 0.022 0.102 0.024 0.168-0.016 0.269-0.017 0.044-0.034 0.090-0.047 0.135-0.017 0.058-0.010 0.122-0.025 0.18-0.014 0.052-0.030 0.096-0.060 0.141-0.025 0.038-0.020 0.060-0.034 0.096-0.017 0.045-0.063 0.077-0.078 0.124-0.004 0.011-0.002 0.031-0.007 0.046-0.010 0.026-0.038 0.048-0.051 0.073-0.022 0.044-0.020 0.074-0.049 0.118-0.027 0.041-0.030 0.076-0.049 0.118-0.001 0.003-0.004 0.007-0.005 0.010-0.017 0.022-0.033 0.044-0.047 0.065-0.010 0.016-0.021 0.041-0.035 0.054-0.017 0.016-0.032 0.008-0.049 0.024-0.018 0.018-0.026 0.043-0.046 0.061-0.017 0.016-0.043 0.033-0.062 0.049-0.073 0.060-0.134 0.112-0.216 0.159-0.060 0.034-0.141 0.009-0.209 0.017-0.038 0.004-0.072 0.021-0.11 0.025-0.040 0.004-0.074-0.001-0.113 0.007s-0.062 0.029-0.099 0.039c-0.039 0.010-0.071 0.006-0.11 0.002-0.096-0.011-0.191-0.030-0.285-0.040-0.036-0.004-0.071-0.006-0.108-0.012-0.040-0.007-0.057-0.026-0.094-0.042-0.041-0.018-0.090-0.009-0.128-0.023-0.047-0.018-0.082-0.069-0.13-0.086-0.024-0.009-0.071-0.007-0.098-0.008-0.049-0.003-0.082-0.013-0.128-0.027-0.040-0.012-0.052-0.012-0.093-0.033-0.048-0.024-0.084-0.016-0.126-0.060-0.003-0.003-0.030-0.041-0.033-0.046-0.005-0.008-0.026-0.022-0.032-0.028-0.022-0.022-0.035-0.070-0.058-0.094-0.029-0.032-0.083-0.042-0.113-0.073-0.037-0.038-0.020-0.079-0.037-0.126-0.007-0.019-0.028-0.032-0.033-0.050-0.007-0.023 0-0.043-0.005-0.066-0.008-0.035-0.034-0.064-0.037-0.099-0.003-0.043 0.022-0.076 0.027-0.112 0.002-0.019-0.004-0.036-0.002-0.053 0.003-0.023 0.013-0.035 0.018-0.057 0.005-0.021-0.003-0.034 0.005-0.054 0.009-0.023 0.028-0.037 0.036-0.061 0.009-0.027-0.002-0.062 0-0.089 0.006-0.083 0.014-0.158 0.030-0.238 0.001-0.004 0.001-0.008 0.002-0.012 0.002-0.003 0.004-0.007 0.006-0.010 0.058-0.088 0.129-0.149 0.188-0.237 0.023-0.035 0.046-0.070 0.070-0.104 0.008-0.011 0.012-0.022 0.016-0.032 0.013-0.016 0.026-0.030 0.038-0.048 0.014-0.021 0.028-0.042 0.042-0.063 0.001-0.001 0.002-0 0.002-0.001 0.018-0.017 0.024-0.040 0.043-0.057 0.018-0.015 0.073-0.048 0.096-0.057 0.144-0.054 0.278-0.135 0.427-0.181 0.095-0.030 0.171 0.002 0.247 0.053 0.036 0.025 0.073 0.049 0.11 0.074 0.019 0.013 0.044 0.025 0.061 0.040 0.025 0.022 0.023 0.039 0.043 0.062 0.057 0.064 0.152 0.072 0.187 0.155 0.026 0.062 0.032 0.135 0.044 0.204 0.014 0.076-0.025 0.13-0.018 0.2 0.008 0.081 0.040 0.136-0.003 0.207-0.012 0.015-0.022 0.032-0.035 0.045-0.016 0.016-0.030 0.009-0.048 0.035-0.010 0.014-0.012 0.041-0.018 0.050-0.004 0.006-0.033 0.041-0.051 0.054-0.118 0.092-0.321 0.138-0.468 0.132-0.074-0.003-0.142 0.003-0.205-0.039-0.073-0.050-0.097-0.106-0.138-0.183-0.018-0.036-0.031-0.052-0.066-0.075-0.040-0.025-0.043-0.037-0.051-0.065 0.014 0.001 0.028 0.004 0.043 0.002 0.031-0.002 0.056-0.011 0.086-0.011 0.091 0.001 0.116 0.082 0.070 0.162 0.004 0.005 0.009 0.010-0.001 0.036 0.043 0.018 0.142-0.050 0.171-0.080 0.036-0.038 0.065-0.091 0.071-0.144 0.022-0.015 0.043-0.030 0.053-0.041 0.052-0.054 0.092-0.142 0.066-0.211-0.028-0.075-0.096-0.128-0.158-0.17-0.072-0.049-0.151-0.081-0.24-0.063-0.061 0.012-0.136 0.016-0.184 0.057-0.056 0.048-0.070 0.11-0.097 0.168-0.009 0.005-0.019 0.010-0.027 0.017-0.071 0.060-0.074 0.146-0.122 0.214-0.044 0.064-0.077 0.118-0.068 0.196 0.004 0.037 0.019 0.065 0.019 0.103-0.001 0.047-0.002 0.093 0.017 0.134 0.038 0.080 0.129 0.098 0.184 0.16 0.064 0.073 0.111 0.129 0.195 0.185 0.072 0.048 0.151 0.087 0.239 0.098 0.097 0.012 0.194 0.001 0.292 0.018 0.18 0.033 0.376-0.023 0.524-0.132 0.038-0.028 0.061-0.052 0.090-0.091 0.027-0.037 0.063-0.054 0.091-0.090 0.032-0.042 0.037-0.069 0.054-0.115 0-0 0-0.001 0-0.001 0.023-0.022 0.048-0.041 0.070-0.069 0.032-0.042 0.037-0.069 0.054-0.115 0.018-0.049 0.046-0.090 0.064-0.138 0.028-0.078 0.102-0.136 0.131-0.214 0.026-0.070 0.058-0.149 0.063-0.223 0.011-0.161-0.037-0.306-0.099-0.445-0.053-0.118-0.078-0.29-0.192-0.363-0.069-0.044-0.123-0.1-0.178-0.157-0.004-0.004-0.005-0.025-0.012-0.033-0.014-0.016-0.044-0.028-0.062-0.040-0.040-0.026-0.080-0.054-0.12-0.080-0.144-0.097-0.297-0.154-0.472-0.159-0.156-0.005-0.321 0.054-0.452 0.142-0.072 0.048-0.143 0.107-0.21 0.162-0.072 0.059-0.155 0.108-0.222 0.168s-0.131 0.125-0.196 0.186c-0.032 0.030-0.063 0.058-0.095 0.087-0.014 0.013-0.030 0.015-0.045 0.030-0.022 0.024-0.031 0.061-0.054 0.085-0.032 0.034-0.064 0.048-0.091 0.090-0.023 0.035-0.047 0.069-0.070 0.104-0.048 0.071-0.117 0.147-0.153 0.224-0.045 0.061-0.097 0.124-0.126 0.188-0.069 0.152-0.109 0.314-0.097 0.481 0.013 0.18 0.124 0.34 0.178 0.512 0.056 0.18 0.194 0.349 0.31 0.497 0.117 0.15 0.266 0.254 0.425 0.36 0.152 0.102 0.33 0.145 0.506 0.196 0.086 0.025 0.174 0.030 0.263 0.041 0.057 0.007 0.097-0 0.153-0.012 0.060-0.012 0.118-0.005 0.179-0.007 0.090-0.003 0.171-0.002 0.259-0.006 0.021-0.001 0.048-0.012 0.072-0.013 0.020-0.001 0.042-0 0.063-0.003 0.049-0.007 0.097-0.023 0.143-0.033 0.093-0.020 0.175-0.030 0.264-0.078s0.167-0.112 0.254-0.162c0.078-0.044 0.148-0.114 0.213-0.175 0.031-0.029 0.067-0.057 0.095-0.087 0.035-0.038 0.076-0.076 0.107-0.117 0.058-0.078 0.126-0.128 0.192-0.197 0.051-0.054 0.091-0.129 0.132-0.196 0.055-0.062 0.099-0.15 0.145-0.218 0.054-0.081 0.080-0.162 0.135-0.243 0.023-0.034 0.049-0.068 0.070-0.103 0.028-0.046 0.033-0.098 0.049-0.149 0.052-0.167 0.087-0.336 0.11-0.508 0.011-0.079 0.005-0.162 0.009-0.241 0.004-0.084 0.014-0.172 0.009-0.255s-0.037-0.164-0.050-0.245c-0.018-0.107-0.004-0.224-0.038-0.33z"></path>
<path d="M24.55 10.806c0.017-0.002 0.035-0.002 0.056 0.010 0.011 0.006 0.020 0.016 0.029 0.025-0.028-0.012-0.056-0.023-0.085-0.035zM24.461 11.795c-0.080-0.066-0.146-0.098-0.234-0.141-0.019-0.009-0.037-0.022-0.054-0.036 0.011 0.004 0.022 0.008 0.037 0.012 0.083 0.019 0.141 0.028 0.212 0.086 0.041 0.033 0.062 0.075 0.082 0.12-0.014-0.014-0.028-0.029-0.043-0.041zM15.071 4.551c-0.036-0.028-0.086-0.038-0.132-0.044 0.058-0.017 0.121-0.024 0.154 0.006 0.034 0.031 0.065 0.101 0.088 0.146-0.009-0.012-0.018-0.023-0.027-0.035-0.022-0.028-0.055-0.053-0.083-0.074zM12.701 7.597c0.015 0.008 0.022-0 0.037 0.008 0.016 0.008 0.027 0.028 0.042 0.038 0.051 0.030 0.107 0.056 0.157 0.071 0.054 0.016 0.104 0.004 0.156 0.002 0.057-0.002 0.108 0.020 0.166 0.011 0.054-0.009 0.121-0.026 0.168-0.056 0.028-0.018 0.050-0.041 0.074-0.061 0.004-0.003 0.017-0.001 0.023-0.006 0.012-0.010 0.015-0.032 0.027-0.043 0.016-0.013 0.027-0.010 0.042-0.027 0.011-0.012 0.015-0.031 0.027-0.042 0.021-0.019 0.050-0.030 0.072-0.046 0.052-0.037 0.111-0.069 0.16-0.11 0.052-0.043 0.107-0.091 0.166-0.127 0.024-0.014 0.049-0.030 0.071-0.046 0.018-0.013 0.026-0.017 0.046-0.026 0.024-0.010 0.023-0.013 0.042-0.029 0.029-0.025 0.048-0.035 0.070-0.068 0.017-0.025 0.033-0.060 0.055-0.081s0.044-0.028 0.061-0.055c0.022-0.033 0.043-0.044 0.071-0.068 0.047-0.042 0.087-0.123 0.122-0.178 0.002-0.002 0.002-0.005 0.003-0.008 0.047-0.042 0.086-0.122 0.121-0.176 0.024-0.038 0.027-0.080 0.044-0.122 0.002-0.006 0.006-0.010 0.009-0.015 0.020-0.030 0.041-0.059 0.061-0.089 0.018-0.027 0.037-0.054 0.056-0.081 0.005-0.007 0.007-0.014 0.011-0.020 0.019-0.028 0.038-0.056 0.058-0.083 0.011-0.016 0.023-0.033 0.034-0.049 0.003-0.003 0.007-0.005 0.010-0.008 0.020-0.026 0.037-0.054 0.055-0.081 0.018-0.025 0.025-0.045 0.034-0.073 0.012-0.009 0.024-0.017 0.034-0.030 0.020-0.025 0.037-0.054 0.055-0.081s0.025-0.046 0.035-0.076c0.011-0.033 0.038-0.053 0.049-0.086 0.010-0.029 0.018-0.062 0.026-0.088 0.010-0.032 0.036-0.051 0.047-0.083 0.021-0.060 0.041-0.121 0.063-0.18 0.041-0.113 0.048-0.24 0.053-0.363 0.002-0.058 0.009-0.117 0.001-0.18s-0.040-0.107-0.076-0.154c-0.011-0.014-0.015-0.027-0.028-0.042s-0.023-0.030-0.036-0.046c-0.022-0.028-0.055-0.053-0.083-0.074-0.045-0.034-0.116-0.046-0.167-0.049-0.037-0.002-0.060 0.007-0.089 0.023-0.012 0.007-0.020 0.014-0.032 0.021-0.005 0.003-0.028 0.017-0.032 0.021-0.042 0.034-0.077 0.039-0.129 0.058-0.064 0.023-0.096 0.071-0.148 0.11-0.037 0.028-0.090 0.031-0.128 0.062-0.047 0.039-0.079 0.107-0.115 0.158-0.020 0.029-0.040 0.058-0.060 0.087-0.010 0.015-0.020 0.028-0.030 0.043-0.007 0.010-0.014 0.020-0.021 0.031-0.008 0.013-0.016 0.032-0.028 0.042s-0.022 0.003-0.033 0.013c-0.022 0.018-0.038 0.058-0.055 0.082-0.018 0.026-0.025 0.046-0.035 0.076-0.002 0.006-0.006 0.011-0.009 0.017-0.008 0.002-0.016 0.002-0.024 0.009-0.022 0.019-0.038 0.058-0.055 0.082-0.018 0.026-0.025 0.046-0.035 0.076s-0.034 0.057-0.052 0.083c-0.019 0.027-0.037 0.054-0.056 0.080-0.020 0.028-0.017 0.050-0.032 0.079-0.013 0.027-0.039 0.046-0.052 0.074-0.014 0.030-0.016 0.058-0.036 0.086-0.024 0.033-0.037 0.068-0.051 0.106-0.009 0.024-0.006 0.057-0.014 0.078-0.005 0.016-0.018 0.025-0.024 0.040s0.004 0.024-0.002 0.038c-0.004 0.012-0.017 0.022-0.022 0.034-0.005 0.010 0.004 0.020-0 0.032-0.007 0.020-0.025 0.034-0.033 0.054-0.003 0.008-0.005 0.028-0.009 0.039-0.008 0.019-0.032 0.055-0.028 0.079 0.003 0.020 0.028 0.079 0.041 0.097 0.018 0.026 0.061 0.039 0.066 0.071-0.012-0.033-0.004-0.062 0.012-0.087 0.017-0.027 0.019-0.051 0.032-0.079 0.012-0.026 0.024-0.044 0.031-0.072 0.020 0.016 0.046 0.030 0.050 0.054-0.012-0.034-0.004-0.062 0.012-0.087 0.017-0.026 0.019-0.051 0.032-0.079s0.026-0.046 0.033-0.078c0.006-0.029 0.017-0.052 0.027-0.078 0.002-0.005-0.004-0.018-0.001-0.026 0.005-0.014 0.018-0.026 0.024-0.040 0.008-0.018 0.009-0.054 0.017-0.075 0.018-0.049 0.030-0.099 0.051-0.148 0.013-0.030 0.044-0.050 0.057-0.080s0.013-0.053 0.032-0.080c0.016-0.022 0.033-0.044 0.047-0.067 0.010-0.017 0.015-0.035 0.021-0.052 0.042-0.037 0.094-0.064 0.135-0.102 0.020-0.019 0.034-0.051 0.050-0.075 0.008-0.011 0.017-0.022 0.024-0.033 0.008-0.013 0.009-0.039 0.016-0.050 0.012-0.009 0.024-0.016 0.034-0.026 0.004-0.004 0.007-0.010 0.011-0.015 0.001-0.001 0.002-0.002 0.003-0.003 0.015-0.023 0.031-0.045 0.046-0.067 0.063-0.092 0.147-0.171 0.246-0.219 0.051-0.025 0.206-0.090 0.265-0.035 0.037 0.034 0.070 0.114 0.094 0.158 0.022 0.042 0.047 0.099 0.055 0.146 0.010 0.065-0.010 0.13-0.035 0.182-0.006 0.012-0.019 0.020-0.024 0.032-0.007 0.015-0.004 0.031-0.010 0.045-0.012 0.029-0.036 0.047-0.047 0.078-0.012 0.035-0.026 0.058-0.045 0.090-0.015 0.025-0.016 0.054-0.032 0.080-0.028 0.046-0.062 0.090-0.093 0.134-0.021 0.030-0.026 0.057-0.039 0.089-0.006 0.007-0.011 0.017-0.017 0.022-0.012 0.010-0.025 0.009-0.038 0.020-0.009 0.008-0.016 0.024-0.023 0.034-0.015 0.023-0.031 0.045-0.046 0.067s-0.031 0.045-0.046 0.067c-0.004 0.005-0.004 0.010-0.007 0.014-0 0-0.001 0-0.002 0.001-0.009 0.008-0.016 0.024-0.023 0.034-0.015 0.023-0.031 0.045-0.046 0.067s-0.031 0.045-0.046 0.067c-0.002 0.004-0.003 0.007-0.005 0.010-0.006 0.007-0.014 0.013-0.020 0.020-0.036 0.046-0.068 0.099-0.102 0.148-0.013 0.018-0.025 0.039-0.037 0.058-0.030 0.041-0.058 0.085-0.087 0.126-0.012 0.018-0.024 0.038-0.036 0.056-0.026 0.038-0.051 0.077-0.080 0.109-0.028 0.031-0.058 0.049-0.082 0.085-0.020 0.030-0.037 0.047-0.064 0.068-0.047 0.037-0.081 0.108-0.115 0.159s-0.086 0.087-0.134 0.122c-0.042 0.030-0.089 0.063-0.135 0.083-0.052 0.022-0.105 0.036-0.16 0.052-0.042 0.013-0.098 0.029-0.145 0.024-0.039-0.004-0.063-0.031-0.096-0.049-0.010-0.006-0.024-0.006-0.039-0.015-0.009-0.006-0.020-0.017-0.029-0.024-0.061-0.051-0.086-0.078-0.119-0.152-0.011-0.025-0.030-0.048-0.039-0.073-0.013-0.034-0.007-0.055-0.006-0.089 0.001-0.069-0.004-0.125 0.014-0.191 0.010-0.036 0.021-0.066 0.027-0.104 0.005-0.032 0.021-0.053 0.026-0.084 0.010-0.063 0.013-0.126 0.029-0.187 0.019-0.076 0.044-0.146 0.067-0.219 0.021-0.065 0.036-0.139 0.068-0.198 0.034-0.063 0.059-0.132 0.094-0.195 0.001-0.002 0.003-0.004 0.004-0.006 0.005-0.007 0.007-0.014 0.011-0.021 0.035-0.056 0.075-0.11 0.113-0.164 0.023-0.032 0.034-0.068 0.051-0.102 0.027-0.039 0.053-0.077 0.080-0.116 0.046-0.067 0.093-0.134 0.139-0.202 0.048-0.069 0.106-0.12 0.154-0.19 0.027-0.039 0.058-0.062 0.089-0.095 0.024-0.026 0.042-0.062 0.062-0.091 0.023-0.033 0.042-0.073 0.069-0.102s0.056-0.046 0.080-0.081c0.025-0.039 0.060-0.056 0.087-0.092 0.022-0.030 0.042-0.051 0.068-0.075s0.041-0.057 0.063-0.085c0.022-0.029 0.052-0.047 0.075-0.075 0.080-0.095 0.192-0.166 0.293-0.238 0.050-0.035 0.102-0.070 0.149-0.109 0.041-0.035 0.087-0.061 0.13-0.093 0.028-0.020 0.045-0.047 0.070-0.070 0.022-0.020 0.34-0.035 0.382-0.040 0.071-0.010 0.141-0.021 0.211-0.034 0.104-0.019 0.219-0.035 0.325-0.033 0.072 0.002 0.14 0.026 0.212 0.033 0.083 0.009 0.16 0.013 0.241 0.042 0.046 0.017 0.069 0.030 0.109 0.061 0.036 0.028 0.074 0.032 0.11 0.059 0.071 0.053 0.145 0.114 0.211 0.175 0.062 0.057 0.106 0.137 0.165 0.198 0.139 0.142 0.219 0.339 0.306 0.516 0.093 0.188 0.222 0.392 0.28 0.598 0.021 0.076 0.020 0.145 0.053 0.219 0.024 0.054 0.027 0.11 0.052 0.163 0.054 0.118 0.099 0.238 0.142 0.364 0.045 0.134 0.099 0.255 0.148 0.386 0.036 0.097 0.066 0.198 0.095 0.297 0.056 0.195 0.152 0.391 0.235 0.576 0.085 0.188 0.12 0.386 0.176 0.574 0.018 0.060 0.023 0.132 0.030 0.193 0.006 0.053 0.020 0.104 0.029 0.158 0.019 0.115 0.038 0.226 0.045 0.339 0.006 0.097 0.022 0.196 0.030 0.293 0.005 0.055 0.009 0.104 0.011 0.159 0.001 0.034 0.012 0.063 0.008 0.097-0.003 0.029-0.011 0.052-0.010 0.082 0.004 0.124 0.046 0.261 0.067 0.385 0.020 0.116 0.033 0.234 0.059 0.349 0.018 0.082 0.056 0.16 0.076 0.242 0.020 0.080 0.032 0.152 0.060 0.231 0.050 0.141 0.076 0.299 0.145 0.433 0.131 0.253 0.254 0.504 0.414 0.743 0.134 0.202 0.285 0.391 0.409 0.595 0.067 0.11 0.16 0.21 0.236 0.314 0.074 0.101 0.126 0.218 0.191 0.324 0.077 0.126 0.176 0.227 0.258 0.348 0.072 0.109 0.152 0.214 0.234 0.314 0.046 0.055 0.089 0.117 0.138 0.169 0.030 0.032 0.066 0.049 0.095 0.084 0.017 0.021 0.027 0.044 0.046 0.064 0.083 0.082 0.154 0.172 0.236 0.253 0.045 0.044 0.076 0.095 0.128 0.136 0.049 0.040 0.097 0.083 0.146 0.122 0.085 0.066 0.186 0.104 0.272 0.165 0.055 0.039 0.109 0.059 0.162 0.105 0.050 0.042 0.096 0.068 0.149 0.1 0.094 0.056 0.182 0.114 0.281 0.159 0.209 0.096 0.432 0.179 0.651 0.238 0.069 0.019 0.136 0.016 0.204 0.032 0.050 0.012 0.088 0.022 0.139 0.027 0.097 0.009 0.191 0.017 0.287 0.021 0.106 0.005 0.204-0.039 0.305-0.050 0.076-0.008 0.159 0.002 0.234-0.015s0.149-0.049 0.221-0.075c0.069-0.025 0.143-0.042 0.209-0.073 0.142-0.068 0.278-0.146 0.406-0.241 0.039-0.029 0.083-0.048 0.113-0.086 0.023-0.030 0.044-0.064 0.065-0.096 0.051-0.074 0.113-0.121 0.164-0.195 0.046-0.066 0.113-0.135 0.146-0.209 0.001-0.003 0.002-0.005 0.003-0.008 0.043-0.056 0.093-0.114 0.121-0.176 0.036-0.082 0.056-0.161 0.103-0.238 0.025-0.040 0.043-0.090 0.063-0.134 0.016-0.035 0.028-0.078 0.042-0.116 0.029-0.078 0.065-0.166 0.076-0.253 0.012-0.098 0.040-0.19 0.050-0.289s-0.012-0.182-0.028-0.278c-0.008-0.048-0.011-0.098-0.024-0.148-0.005-0.020-0.014-0.042-0.020-0.062-0.008-0.023-0.008-0.053-0.015-0.074-0.028-0.086-0.059-0.166-0.089-0.254-0.021-0.059-0.048-0.114-0.059-0.176-0.011-0.057-0.019-0.098-0.046-0.152-0.042-0.084-0.079-0.168-0.132-0.245-0.11-0.157-0.213-0.319-0.359-0.44-0.152-0.126-0.298-0.244-0.473-0.318-0.173-0.073-0.373-0.163-0.552-0.17-0.171-0.007-0.352-0.073-0.516-0.038-0.152 0.032-0.28 0.114-0.388 0.221-0.053 0.052-0.094 0.134-0.136 0.199-0.050 0.056-0.089 0.135-0.132 0.196-0.022 0.032-0.044 0.064-0.066 0.096-0.027 0.038-0.028 0.072-0.046 0.112-0.013 0.028-0.042 0.047-0.055 0.075-0.008 0.018-0.004 0.034-0.010 0.051-0.014 0.039-0.028 0.076-0.042 0.115-0.030 0.080-0.063 0.159-0.091 0.24s-0.041 0.175-0.066 0.26c-0.024 0.079-0.049 0.164-0.065 0.246-0.029 0.151-0.020 0.327 0.041 0.477 0.069 0.169 0.176 0.303 0.314 0.417 0.038 0.032 0.077 0.063 0.115 0.095 0.017 0.014 0.039 0.040 0.058 0.049 0.009 0.005 0.029 0 0.034 0.003 0.070 0.039 0.139 0.077 0.203 0.132 0.106 0.091 0.267 0.070 0.39 0.091 0.145 0.025 0.291 0.033 0.428-0.020 0.063-0.024 0.121-0.076 0.173-0.12 0.058-0.049 0.082-0.136 0.14-0.184 0.036-0.030 0.062-0.069 0.098-0.099 0.034-0.028 0.056-0.041 0.081-0.083 0.019-0.032 0.024-0.067 0.040-0.099 0.001-0.001 0.002-0.002 0.002-0.002 0.034-0.028 0.056-0.041 0.081-0.083 0.022-0.036 0.023-0.076 0.046-0.112 0.024-0.038 0.036-0.066 0.047-0.111 0.042-0.172 0.019-0.378-0.076-0.544-0.052-0.090-0.077-0.188-0.124-0.279-0.042-0.083-0.105-0.149-0.174-0.206-0.080-0.066-0.146-0.098-0.234-0.141-0.075-0.037-0.124-0.121-0.208-0.137-0.044-0.008-0.083 0.006-0.124 0.019-0.033 0.010-0.063 0.003-0.097 0.009-0.072 0.012-0.108 0.058-0.148 0.117-0.043 0.064-0.117 0.089-0.144 0.174-0.004 0.012-0.005 0.026-0.006 0.039-0.042 0.044-0.096 0.075-0.118 0.145-0.018 0.058 0.005 0.132 0.018 0.194 0.018 0.092 0.074 0.16 0.144 0.217 0.060 0.050 0.132 0.102 0.208 0.109 0.070 0.007 0.132-0.055 0.161-0.119 0.007-0.015 0.014-0.044 0.019-0.074 0.046-0.019 0.085-0.063 0.106-0.11 0.016-0.036 0.040-0.15 0.008-0.188-0.019 0.016-0.025 0.013-0.031 0.010-0.054 0.066-0.135 0.062-0.169-0.026-0.011-0.029-0.013-0.056-0.022-0.087-0.003-0.009-0.007-0.016-0.011-0.025 0.018 0.001 0.032 0.006 0.061 0.032 0.033 0.028 0.052 0.036 0.090 0.044 0.083 0.019 0.141 0.028 0.212 0.086 0.061 0.050 0.080 0.117 0.11 0.189 0.059 0.141 0.093 0.351 0.055 0.49-0.006 0.021-0.026 0.058-0.030 0.064-0.006 0.008-0.029 0.017-0.038 0.030-0.016 0.024-0.006 0.036-0.013 0.056-0.004 0.009-0.011 0.018-0.016 0.027-0.047 0.067-0.108 0.048-0.185 0.061-0.064 0.011-0.097 0.064-0.169 0.070-0.065 0.006-0.132 0.020-0.196 0.011-0.086-0.012-0.128-0.102-0.205-0.141-0.027-0.014-0.041-0.007-0.070-0.026-0.020-0.012-0.039-0.033-0.058-0.048-0.035-0.029-0.070-0.058-0.105-0.087-0.073-0.060-0.129-0.126-0.138-0.226-0.014-0.158 0.008-0.309 0.002-0.463-0.001-0.024 0.008-0.087 0.015-0.108 0.004-0.014 0.012-0.024 0.020-0.035 0.015-0.022 0.031-0.044 0.046-0.067s0.026-0.045 0.038-0.068c0.007-0.006 0.014-0.013 0.020-0.021 0.022-0.032 0.044-0.064 0.066-0.095 0.054-0.078 0.082-0.159 0.134-0.236 0.005-0.002 0.010-0.004 0.014-0.007 0.064-0.037 0.127-0.064 0.198-0.092 0.023-0.009 0.058-0.008 0.078-0.024 0.018-0.014 0.024-0.036 0.041-0.051 0.014-0.013 0.030-0.009 0.046-0.020 0.018-0.011 0.024-0.024 0.044-0.033 0.014-0.006 0.032-0.005 0.047-0.012 0.030-0.014 0.050-0.048 0.089-0.056 0.032-0.006 0.068 0.011 0.101 0.010 0.022-0.001 0.037-0.014 0.060-0.013 0.017 0.001 0.037 0.018 0.056 0.020 0.047 0.004 0.077-0.023 0.124 0.003 0.039 0.021 0.067 0.070 0.106 0.090 0.030 0.015 0.076 0.016 0.104 0.031 0.008 0.005 0.028 0.021 0.037 0.024 0.006 0.002 0.049 0.018 0.053 0.020 0.055 0.029 0.060 0.066 0.1 0.107 0.034 0.035 0.038 0.046 0.063 0.082 0.029 0.041 0.050 0.070 0.071 0.118 0.011 0.026 0.027 0.072 0.043 0.094 0.033 0.042 0.091 0.062 0.124 0.103 0.026 0.033 0.036 0.084 0.067 0.119 0.029 0.032 0.052 0.044 0.072 0.081 0.019 0.034 0.034 0.068 0.050 0.102 0.043 0.088 0.095 0.176 0.14 0.266 0.018 0.037 0.034 0.067 0.039 0.107 0.005 0.039-0.005 0.068 0.002 0.107s0.024 0.072 0.035 0.111c0.011 0.038 0.009 0.076 0.019 0.114 0.018 0.068 0.070 0.14 0.062 0.207-0.011 0.092-0.035 0.165-0.061 0.252-0.007 0.022-0.012 0.052-0.020 0.073-0.009 0.024-0.028 0.038-0.037 0.061-0.008 0.021 0.004 0.033-0.004 0.054-0.006 0.017-0.024 0.034-0.035 0.048-0.008 0.011-0.015 0.023-0.023 0.035-0.006 0.007-0.011 0.014-0.017 0.020-0.030 0.030-0.060 0.041-0.086 0.079-0.028 0.040-0.055 0.046-0.085 0.079-0.018 0.019-0.026 0.052-0.046 0.069-0.011 0.010-0.029 0.012-0.038 0.019-0.035 0.028-0.047 0.080-0.080 0.109-0.027 0.023-0.048 0.025-0.072 0.059-0.029 0.041-0.062 0.068-0.102 0.095-0.046 0.030-0.105 0.040-0.149 0.072-0.034 0.024-0.069 0.054-0.101 0.082-0.075 0.065-0.133 0.081-0.232 0.086-0.094 0.005-0.151 0.060-0.231 0.095-0.081 0.036-0.185 0.014-0.272-0.008-0.079-0.020-0.181-0.030-0.251-0.065-0.033-0.016-0.054-0.028-0.088-0.037-0.051-0.012-0.064-0.015-0.111-0.001-0.143 0.042-0.332 0.007-0.48-0.016-0.082-0.012-0.181-0.038-0.261-0.066-0.048-0.017-0.094-0.036-0.143-0.044-0.042-0.007-0.086 0.012-0.123 0.006-0.020-0.004-0.078-0.028-0.095-0.040-0.027-0.020-0.016-0.032-0.031-0.051-0.025-0.031-0.056-0.059-0.092-0.076-0.048-0.023-0.083-0.041-0.126-0.080-0.036-0.033-0.054-0.074-0.092-0.107-0.084-0.075-0.158-0.128-0.223-0.222-0.054-0.077-0.12-0.163-0.162-0.247-0.040-0.080-0.061-0.175-0.1-0.256-0.040-0.083-0.116-0.154-0.167-0.228-0.113-0.165-0.209-0.318-0.353-0.449-0.044-0.040-0.075-0.1-0.108-0.151-0.018-0.029-0.045-0.052-0.063-0.081-0.031-0.049-0.057-0.079-0.102-0.115-0.043-0.035-0.061-0.079-0.101-0.115-0.067-0.060-0.121-0.148-0.175-0.227s-0.098-0.145-0.146-0.225c-0.024-0.040-0.038-0.090-0.059-0.132-0.023-0.047-0.054-0.088-0.081-0.135-0.016-0.029-0.027-0.063-0.044-0.093-0.023-0.040-0.050-0.053-0.079-0.090-0.018-0.023-0.022-0.042-0.042-0.067s-0.032-0.034-0.048-0.063c-0.018-0.030-0.036-0.056-0.052-0.088-0.033-0.064-0.075-0.136-0.101-0.203-0.020-0.050-0.031-0.107-0.047-0.159-0.014-0.044-0.022-0.095-0.035-0.136-0.020-0.061-0.042-0.108-0.055-0.173-0.013-0.066-0.026-0.107-0.029-0.174-0.003-0.068-0.034-0.127-0.051-0.191-0.017-0.062-0.004-0.13-0.016-0.195-0.010-0.055-0.007-0.112-0.014-0.163-0.008-0.056-0.036-0.118-0.056-0.172-0.081-0.228-0.143-0.461-0.217-0.689-0.038-0.117-0.083-0.224-0.127-0.339-0.022-0.056-0.048-0.109-0.066-0.167-0.014-0.043-0.019-0.078-0.037-0.12-0.090-0.211-0.158-0.423-0.216-0.638-0.029-0.108-0.037-0.222-0.048-0.333-0.004-0.035-0.008-0.073-0.007-0.11 0.002-0.058-0.011-0.098-0.014-0.155-0.007-0.114 0.023-0.228 0.017-0.34-0.006-0.111-0.018-0.222-0.038-0.338-0.022-0.126-0.030-0.244-0.053-0.369-0.010-0.052-0.052-0.106-0.066-0.158-0.012-0.044-0.011-0.085-0.029-0.13-0.048-0.118-0.109-0.229-0.158-0.347-0.053-0.127-0.101-0.256-0.159-0.38-0.108-0.233-0.225-0.459-0.373-0.67-0.026-0.037-0.056-0.070-0.078-0.109-0.009-0.016-0.013-0.036-0.024-0.052-0.016-0.024-0.035-0.033-0.055-0.051-0.024-0.022-0.028-0.038-0.047-0.063-0.057-0.076-0.154-0.135-0.227-0.195-0.076-0.064-0.153-0.127-0.23-0.191-0.076-0.062-0.153-0.096-0.228-0.159-0.050-0.041-0.1-0.082-0.149-0.123-0.042-0.035-0.072-0.047-0.117-0.070-0.087-0.044-0.168-0.096-0.264-0.119-0.097-0.023-0.195-0.082-0.292-0.092-0.079-0.008-0.155-0.007-0.23 0.010-0.111 0.025-0.213 0.045-0.314 0.102-0.079 0.045-0.142 0.103-0.217 0.151-0.076 0.050-0.164 0.081-0.236 0.135-0.039 0.029-0.071 0.060-0.107 0.091-0.030 0.026-0.228 0.134-0.25 0.152-0.101 0.084-0.245 0.131-0.333 0.23-0.026 0.029-0.056 0.051-0.079 0.082-0.026 0.035-0.055 0.054-0.082 0.086-0.048 0.056-0.111 0.098-0.165 0.149-0.106 0.101-0.178 0.238-0.283 0.34-0.035 0.034-0.064 0.058-0.092 0.099-0.018 0.026-0.036 0.052-0.054 0.078-0.037 0.054-0.074 0.108-0.112 0.162-0.009 0.013-0.017 0.028-0.026 0.042-0.004 0.005-0.007 0.011-0.011 0.016-0.008 0.013-0.017 0.026-0.027 0.036-0.024 0.023-0.046 0.032-0.066 0.062-0.016 0.024-0.040 0.047-0.052 0.073-0.011 0.024-0.017 0.045-0.027 0.067-0.016 0.012-0.031 0.024-0.045 0.044-0.016 0.023-0.040 0.047-0.052 0.073-0.015 0.034-0.018 0.061-0.040 0.092-0.012 0.017-0.031 0.035-0.039 0.055-0.007 0.017-0.004 0.036-0.012 0.052-0.012 0.028-0.039 0.056-0.056 0.080-0.020 0.028-0.020 0.052-0.034 0.082-0.008 0.019-0.026 0.033-0.036 0.050s-0.010 0.031-0.016 0.050c-0.023 0.066-0.052 0.125-0.080 0.187-0.024 0.053-0.034 0.111-0.064 0.158-0.014 0.022-0.011 0.044-0.022 0.066-0.008 0.016-0.019 0.024-0.026 0.042-0.009 0.027-0.020 0.050-0.030 0.076-0.003 0.008-0.005 0.027-0.009 0.039-0.007 0.017-0.011 0.032-0.017 0.050-0.009 0.026-0.028 0.044-0.038 0.069-0.007 0.018-0.004 0.033-0.019 0.052-0.010 0.014-0.016 0.024-0.022 0.040-0.003 0.008-0.005 0.028-0.009 0.039-0.007 0.017-0.011 0.032-0.017 0.050-0.009 0.028-0.031 0.045-0.040 0.072-0.011 0.033-0.018 0.068-0.030 0.102-0.023 0.064-0.046 0.131-0.069 0.196-0.021 0.058-0.032 0.111-0.053 0.168-0.042 0.116-0.064 0.224-0.087 0.351-0.011 0.063-0.012 0.13-0.012 0.197 0 0.056 0.029 0.141 0.066 0.187 0.019 0.024 0.075 0.070 0.101 0.084z"></path>
</svg>
