<!-- Generated by IcoMoon.io -->
<svg version="1.1" xmlns="http://www.w3.org/2000/svg" width="32" height="32" viewBox="0 0 32 32">
<path d="M26.55 4.928c0.087-0.069 0.174-0.148 0.252-0.226-0.122-0.13-0.061-0.226 0.052-0.313 0.035-0.035 0.070-0.104 0.052-0.148-0.096-0.209-0.070-0.365 0.096-0.53 0.156-0.165 0.252-0.165 0.391 0 0.070 0.104 0.148 0.104 0.235 0.035 0.096-0.087 0.174-0.104 0.269 0 0.052 0.061 0.122 0.070 0.183 0 0.052-0.052 0.113-0.096 0.174-0.148 0.052-0.035 0.113-0.087 0.174-0.13 0.13 0.148 0.269 0.278 0.4 0.417-0.122 0.148-0.235 0.278-0.339 0.417 0.087 0.13 0.087 0.278-0.009 0.461-0.148 0.261 0.052 0.061 0.070 0.096 0.052 0.069 0.13 0.156 0.113 0.191-0.061 0.122-0.148 0.243-0.313 0.261-0.278 0.026-0.278 0.035-0.4-0.052l-0.296 0.217-0.096-0.13s-0.035 0.026-0.052 0.035c-0.139 0.156-0.122 0.304 0.061 0.417 0.269 0.183 0.052 0.009 0.052 0.009 0 0.252 0.148 0.087 0.217 0.069 0.278-0.069 0.556 0.122 0.6 0.408 0.052 0.382-0.391 0.782-0.756 0.66-0.304-0.096-0.426-0.339-0.33-0.634 0.009-0.035 0.035-0.069 0.035-0.087l-0.304-0.304c0.113 0.13 0 0.209-0.087 0.261-0.035 0.035-0.122 0.009-0.191 0.026 0-0.009 0-0.026-0.009-0.052-0.096 0.104-0.191 0.209-0.278 0.313-0.009 0.026 0 0.087 0.026 0.104 0.087 0.069 0.174 0.122 0.296 0.209v0.096s0.026 0 0.026-0.009c0.052 0.061 0.113 0.104 0.13 0.165 0.087 0.191 0.217 0.322 0.4 0.434 0.070 0.035 0.122 0.165 0.13 0.252 0 0.052-0.096 0.148-0.156 0.156-0.113 0.026-0.209-0.035-0.243-0.156-0.070-0.226-0.235-0.348-0.452-0.408-0.052-0.009-0.087-0.069-0.122-0.104-0.217-0.009-0.156-0.304-0.391-0.322l-0.156 0.156s-0.026 0.061-0.026 0.087c0.052 0.209 0.061 0.209-0.122 0.322-0.029-0.010-0.053-0.028-0.069-0.052l-0-0c-0.026-0.009-0.035-0.035-0.096-0.069-0.495 0.495-0.999 0.973-1.486 1.469-0.521 0.53-1.034 1.060-1.529 1.59l-1.13 1.225c-0.374 0.408-0.765 0.808-1.147 1.217-0.096 0.104-0.191 0.209-0.269 0.322-0.026 0.035 0 0.122 0.026 0.156 0.4 0.495 0.739 1.008 0.913 1.625 0.191 0.713 0.122 1.399-0.217 2.042-0.365 0.687-0.913 1.217-1.521 1.712-0.278 0.226-0.574 0.434-0.843 0.669-0.096 0.096-0.148 0.252-0.191 0.382-0.035 0.087-0.052 0.183-0.087 0.261-0.052 0.096-0.191 0.104-0.278 0.035-0.417-0.365-0.799-0.4-1.304-0.156-0.33 0.156-0.6 0.382-0.843 0.652-0.269 0.278-0.513 0.565-0.739 0.869s-0.4 0.626-0.487 0.982c-0.096 0.443 0.096 0.913 0.487 1.156 0.191 0.122 0.209 0.243 0.035 0.4-0.096 0.087-0.191 0.156-0.313 0.209-0.278 0.104-0.4 0.348-0.547 0.574-0.278 0.443-0.556 0.904-0.843 1.356-0.374 0.617-0.86 1.13-1.434 1.556-1.217 0.904-2.546 1.104-3.971 0.478-0.608-0.278-1.147-0.66-1.677-1.060-0.174-0.13-0.33-0.287-0.513-0.443-0.026 0.052-0.026 0.087-0.035 0.104-0.026 0.035-0.052 0.096-0.087 0.096-0.217 0.026-0.521-0.322-0.487-0.556 0.052 0 0.096 0 0.209 0.009-0.113-0.122-0.183-0.217-0.269-0.304-0.313-0.304-0.66-0.6-0.912-0.973-0.461-0.66-0.878-1.338-0.965-2.155-0.070-0.713 0.061-1.373 0.4-2.008 0.617-1.165 1.616-1.938 2.729-2.598 0.313-0.191 0.634-0.374 0.939-0.574 0.183-0.122 0.313-0.278 0.365-0.504 0.026-0.156 0.304-0.339 0.478-0.313 0.035 0 0.069 0.035 0.087 0.061 0.391 0.66 0.999 0.652 1.512 0.478 0.426-0.148 0.791-0.4 1.13-0.669 0.374-0.304 0.739-0.634 1.025-1.034 0.13-0.209 0.243-0.434 0.313-0.669 0.113-0.322 0-0.591-0.269-0.808-0.069-0.061-0.156-0.096-0.096-0.217 0.061-0.104 0.122-0.209 0.269-0.191 0.217 0.026 0.391-0.069 0.513-0.226 0.339-0.461 0.66-0.93 0.999-1.373 0.174-0.209 0.374-0.382 0.582-0.565 0.313-0.278 0.66-0.504 1.060-0.634 0.678-0.226 1.364-0.243 2.042 0.035 0.521 0.217 0.999 0.478 1.425 0.852 0.061 0.061 0.113 0.061 0.183 0 0.374-0.348 0.782-0.687 1.156-1.025 0.33-0.304 0.66-0.6 0.999-0.904 0.356-0.313 0.695-0.626 1.043-0.939l1.008-0.93c0.539-0.495 1.095-0.965 1.529-1.538 0.035-0.035 0.070-0.069 0.122-0.148-0.122-0.104-0.235-0.226-0.356-0.348-0.070-0.052-0.148-0.087-0.209-0.156l-0.4-0.434c-0.096-0.122-0.087-0.261 0.026-0.374 0.096-0.087 0.243-0.087 0.356 0 0.156 0.148 0.313 0.304 0.478 0.461 0.052 0.052 0.070 0.122 0.096 0.165 0.122 0.148 0.235 0.261 0.374 0.408 0.113-0.122 0.217-0.243 0.339-0.348s0.269-0.191 0.391-0.304c0.183-0.148 0.183-0.156 0.009-0.313-0.061-0.052-0.113-0.104-0.174-0.156-0.4 0.13-0.73-0.096-0.704-0.495 0-0.243 0.252-0.495 0.495-0.504 0.252-0.009 0.539 0.165 0.582 0.408 0 0.069-0.035 0.148-0.052 0.226v0.122c0.052 0.009 0.096 0 0.148 0 0.026 0 0.035-0.052 0.061-0.069 0.087-0.069 0.156-0.104 0.235 0.009 0.026 0.052 0.087 0.087 0.13 0.13z"></path>
<path d="M29.852 29.131c-0.122 0.183-0.156 0.183-0.339 0.035-0.096-0.070-0.174-0.156-0.252-0.243l-0.547-0.539c-0.070-0.070-0.122-0.035-0.174 0.009-0.209 0.191-0.4 0.4-0.617 0.591-0.029-0.031-0.061-0.059-0.094-0.085l-0.002-0.001c-0.495-0.478-0.982-0.965-1.486-1.451-1.39-1.382-2.772-2.781-4.163-4.163-1.529-1.538-3.059-3.094-4.588-4.632-0.939-0.947-1.886-1.886-2.833-2.824-2.068-2.068-4.154-4.128-6.222-6.196l-5.779-5.762c-0.261-0.278-0.408-0.626-0.608-0.947-0.009-0.026 0.026-0.096 0.052-0.191 0.191 0.304 0.417 0.243 0.643 0.156 0.026 0 0.061-0.026 0.087-0.035 0.478-0.183 0.478-0.165 0.852 0.287q0.274 0.326 0.521 0.652c0.33 0.382 0.643 0.782 0.973 1.165 0.243 0.287 0.495 0.574 0.739 0.869 1.677 1.903 3.485 3.667 5.249 5.484 0.704 0.721 1.408 1.434 2.12 2.138 0.452 0.461 0.904 0.904 1.364 1.347 0.826 0.808 1.669 1.599 2.494 2.39 0.6 0.565 1.182 1.138 1.773 1.712 0.782 0.747 1.582 1.495 2.364 2.225 0.495 0.469 0.982 0.947 1.486 1.408 0.487 0.443 0.973 0.878 1.46 1.312 0.174 0.156 0.356 0.313 0.521 0.478 0.495 0.461 0.999 0.913 1.486 1.373 0.643 0.6 1.286 1.191 1.938 1.79 0.304 0.287 0.617 0.565 0.913 0.852 0.087 0.087 0.13 0.209 0.209 0.313 0.035 0.035 0.052 0.096 0.148 0.087 0.061 0 0.156 0.13 0.235 0.226 0.026 0.035 0.026 0.096 0.052 0.191zM2.86 3.833c7.813 7.804 15.599 15.599 23.403 23.403 0.113-0.148 0.191-0.087 0.278 0.026 0.061 0.070 0.13 0.148 0.217 0.217 0.156 0.13 0.374 0.087 0.434-0.104 0.052-0.148-0.052-0.243-0.156-0.322-0.070-0.061-0.183-0.122-0.183-0.183 0-0.156-0.070-0.209-0.174-0.287-0.487-0.417-0.973-0.852-1.451-1.286-0.33-0.287-0.643-0.591-0.973-0.886-0.73-0.687-1.451-1.382-2.181-2.068-0.434-0.417-0.886-0.843-1.33-1.26-1.069-1.034-2.138-2.060-3.215-3.094-0.721-0.687-1.425-1.382-2.129-2.068-0.643-0.634-1.304-1.26-1.947-1.903-1.156-1.154-2.298-2.309-3.431-3.472l-0.072-0.074q-1.186-1.212-2.346-2.451c-0.356-0.374-0.695-0.756-1.034-1.138-0.478-0.539-0.947-1.086-1.408-1.625-0.209-0.226-0.4-0.469-0.6-0.713-0.295-0.348-0.582-0.713-0.878-1.060-0.148-0.165-0.313-0.165-0.478 0-0.122 0.122-0.235 0.252-0.356 0.382z"></path>
</svg>
