<!-- Generated by IcoMoon.io -->
<svg version="1.1" xmlns="http://www.w3.org/2000/svg" width="32" height="32" viewBox="0 0 32 32">
<path d="M13.781 8.086c-0.381-0.571-0.761-0.381-1.142-0.381l-0.572 0.571c-0.39 0.634-0.679 1.344-0.853 2.082 0.557-0.486 1.187-0.89 1.871-1.195 0.216-0.379 0.45-0.74 0.695-1.077z"></path>
<path d="M21.014 12.153c0.016 0.001 0.032 0.004 0.048 0.007-0.013-0.033-0.029-0.067-0.044-0.1-0.001 0.030-0.002 0.062-0.004 0.093z"></path>
<path d="M14.287 18.114c-0.111 0.034-0.239 0.015-0.359 0.017 0.024-0.088 0.032-0.187 0.076-0.264 0.067-0.116 0.152-0.223 0.243-0.322 0.217-0.232 0.259-0.462 0.109-0.755-0.113-0.22-0.234-0.435-0.338-0.622-0.449 0.022-0.895-0.021-1.333-0.128-0.126 0.087-0.264 0.171-0.37 0.148-0.212-0.046-0.259 0.055-0.316 0.181-0.177 0.384-0.079 0.773 0 1.159 0.055 0.265 0.112 0.525 0.387 0.664 0.104 0.054 0.196 0.132 0.309 0.207 0.028-0.011 0.091-0.060 0.135-0.046 0.305 0.094 0.512 0.414 0.877 0.377 0.015-0.001 0.033 0.037 0.051 0.057 0.043-0.045 0.074-0.079 0.109-0.117 0.033 0.055 0.056 0.094 0.079 0.134 0.253-0.26 0.467-0.521 0.601-0.832-0.026-0.013-0.050-0.028-0.076-0.043-0.061 0.065-0.111 0.163-0.184 0.185z"></path>
<path d="M17.947 11.939c0.006-0.116 0.011-0.232 0.017-0.348-0.242 0.102-0.146 0.224-0.084 0.344 0.022 0.001 0.045 0.002 0.067 0.004z"></path>
<path d="M16.159 19.088c-0.11 0.010-0.229-0.006-0.321 0.037-0.062 0.029-0.126 0.145-0.118 0.217 0.021 0.235 0.045 0.478 0.118 0.7 0.107 0.326 0.355 0.466 0.622 0.387 0.057-0.017 0.123-0.098 0.137-0.16 0.050-0.232 0.026-0.448-0.138-0.649-0.12-0.148-0.192-0.335-0.3-0.532z"></path>
<path d="M17.82 19.179c-0.021-0.045-0.048-0.090-0.081-0.127-0.076-0.081-0.177-0.144-0.233-0.235-0.205-0.34-0.2-0.343-0.567-0.209 0.091 0.3 0.181 0.582 0.266 0.866 0.046 0.156 0.073 0.32 0.129 0.472 0.079 0.216 0.281 0.283 0.44 0.122 0.118-0.118 0.194-0.294 0.245-0.459 0.020-0.061-0.084-0.16-0.126-0.244-0.029-0.060-0.046-0.126-0.074-0.187z"></path>
<path d="M22.613 15.429c-0.022 0.251-0.11 0.495-0.151 0.745-0.030 0.179-0.089 0.365 0.044 0.539 0.027 0.035 0.010 0.12-0.011 0.173-0.144 0.383-0.264 0.782-0.454 1.142-0.16 0.303-0.505 0.4-0.81 0.567-0.005 0.176-0.011 0.394-0.017 0.612-0.027 0.002-0.054 0.004-0.081 0.005-0.028-0.050-0.057-0.1-0.088-0.152-0.012 0.013-0.029 0.023-0.030 0.034-0.050 0.426-0.161 0.816-0.527 1.097-0.091 0.071-0.129 0.212-0.189 0.322-0.111 0.204-0.22 0.407-0.334 0.62-0.256-0.193-0.335-0.181-0.437 0.067-0.118 0.289-0.203 0.593-0.312 0.886-0.027 0.072-0.098 0.127-0.149 0.19-0.026-0.081-0.074-0.16-0.072-0.239 0.004-0.142 0.048-0.281 0.057-0.422 0.006-0.081-0.021-0.162-0.041-0.307-0.254 0.451-0.472 0.838-0.72 1.277 0.006-0.244 0.044-0.428 0.004-0.593-0.038-0.155-0.159-0.29-0.223-0.401-0.007 0.004-0.016 0.006-0.023 0.010-0.007-0.041-0.020-0.082-0.040-0.126-0.022-0.046-0.054-0.083-0.091-0.109 0.017 0.063-0.004 0.134-0.083 0.168-0.12 0.052-0.239 0.104-0.36 0.156-0.004 0.070-0.007 0.139-0.011 0.209-0.002 0.032-0.018 0.057-0.040 0.078-0.021 0.021-0.051 0.027-0.081 0.027-0.028-0.001-0.060-0.018-0.078-0.039-0.018-0.022-0.028-0.052-0.026-0.081 0.004-0.070 0.007-0.138 0.012-0.207-0.037 0.009-0.072 0.016-0.107 0.026-0.049-0.063-0.128-0.101-0.21-0.11-0.133 0.217-0.265 0.433-0.398 0.65-0.051 0.083-0.188 0.051-0.204-0.043-0.009-0.050-0.016-0.101-0.024-0.151-0.006 0.002-0.012 0.006-0.018 0.009-0.084-0.095-0.232-0.139-0.346-0.079-0.134 0.071-0.254 0.166-0.37 0.266-0.013 0-0.028 0-0.043 0-0.115 0.070-0.238 0.128-0.357 0.181-0.138 0.061-0.296 0.137-0.446 0.076-0.167-0.068-0.22-0.249-0.244-0.411-0.002-0.009-0.002-0.017-0.001-0.026-0.116-0.144-0.294-0.178-0.466-0.25-0.039-0.016-0.076-0.037-0.11-0.060-0.005-0.15-0.012-0.299-0.057-0.438-0.099-0.306-0.265-0.59-0.398-0.887-0.048-0.107-0.1-0.218-0.118-0.333-0.055-0.337-0.29-0.472-0.576-0.583-0.144-0.057-0.265-0.174-0.428-0.285 0.006 0.096 0.010 0.163 0.016 0.276l-0.348-0.235c-0.016 0.016-0.049 0.049-0.112 0.113-0.015-0.113-0.043-0.194-0.030-0.268 0.102-0.627-0.165-1.175-0.346-1.746-0.138-0.435-0.372-0.856-0.332-1.332 0.017-0.199 0.104-0.392 0.143-0.533-0.132-0.481-0.271-0.923-0.366-1.376-0.029-0.138 0.045-0.309 0.104-0.45 0.105-0.255 0.161-0.498 0.109-0.782-0.041-0.218 0.006-0.455 0.030-0.682 0.027-0.26 0.073-0.517 0.106-0.777 0.022-0.173 0.038-0.34 0.21-0.448 0.043-0.027 0.045-0.116 0.068-0.176 0.051-0.128 0.088-0.268 0.165-0.381 0.035-0.050 0.152-0.050 0.234-0.061 0.062-0.009 0.127 0.001 0.173 0.002 0.2 0.321 0.394 0.632 0.589 0.943 0.22-0.123 0.243-0.107 0.487 0.356 0.035-0.083 0.054-0.16 0.096-0.22 0.076-0.106 0.157-0.211 0.296-0.059 0.122 0.134 0.229 0.027 0.301-0.060 0.166-0.2 0.359-0.282 0.632-0.183 0.044-0.168 0.084-0.323 0.139-0.534 0.11 0.211 0.195 0.374 0.287 0.548 0.043-0.134 0.087-0.267 0.132-0.404 0.051 0.016 0.088 0.018 0.090 0.029 0.057 0.244 0.304 0.301 0.446 0.459 0.138 0.151 0.231 0.343 0.351 0.511 0.154 0.213 0.305 0.265 0.504 0.184 0.039 0.094 0.073 0.192 0.12 0.282 0.101 0.199 0.183 0.216 0.324 0.037 0.088-0.111 0.14-0.255 0.188-0.392 0.045-0.131 0.062-0.27 0.091-0.404h0.073c0.018 0.113 0.037 0.226 0.057 0.359 0.342-0.259 0.533-0.584 0.575-0.986 0.037-0.349 0.093-0.681 0.356-0.941 0.070-0.067 0.089-0.228 0.25-0.121 0.011 0.007 0.087-0.081 0.132-0.124 0.115 0.248 0.065 0.428-0.109 0.631-0.073 0.085-0.083 0.232-0.101 0.354-0.018 0.113-0.039 0.198-0.177 0.216-0.046 0.005-0.116 0.063-0.123 0.107-0.045 0.261-0.074 0.526-0.116 0.836 0.096-0.056 0.143-0.083 0.2-0.117 0.023 0.041 0.045 0.082 0.071 0.129 0.035-0.038 0.059-0.063 0.099-0.107 0.016 0.072 0.029 0.131 0.050 0.223 0.148-0.299 0.284-0.577 0.417-0.845 0.021-0.271 0.043-0.543 0.063-0.814 0.005-0.060 0.029-0.104 0.063-0.133 0.039-0.201 0.106-0.396 0.201-0.584 0.079-0.155 0.3-0.001 0.223 0.151-0.013 0.027-0.026 0.054-0.037 0.079 0.056 0.013 0.1 0.059 0.085 0.133-0.004 0.021-0.007 0.043-0.011 0.062 0.076 0.023 0.14 0.117 0.093 0.211-0.111 0.213-0.198 0.437-0.259 0.667l-0.021 0.265c0.165 0.182 0.142 0.428 0.073 0.693 0.096 0.017 0.165 0.029 0.229 0.041 0.051 0.237-0.024 0.466-0.084 0.7 0.001 0.018 0.001 0.038-0.001 0.059-0.020 0.139 0.123 0.234 0.212 0.322 0.090 0.089 0.173 0.187 0.22 0.306 0.099 0.254-0.013 0.479-0.2 0.643 0.029 0.002 0.059 0.004 0.089 0.007 0.143 0.013 0.185 0.181 0.090 0.277-0.167 0.168-0.392 0.199-0.618 0.203-0.167 0.061-0.338 0.093-0.51 0.104-0.318 0.159-0.649 0.293-0.982 0.405-0.049 0.016-0.096 0.016-0.139 0.004-0.048 0.079-0.095 0.159-0.144 0.238 0.067 0.265 0.172 0.515 0.357 0.739 0.339 0.409 0.736 0.776 1.105 1.158 0.020 0.021 0.030 0.043 0.037 0.065 0.171 0.159 0.206 0.143 0.51-0.004-0.074-0.011-0.118-0.017-0.24-0.035 0.010-0.009 0.020-0.017 0.029-0.024l-0.261-0.006c-0.145-0.004-0.129-0.228 0.015-0.224 0.085 0.002 0.17 0.004 0.254 0.006 0.009-0.026 0.026-0.051 0.055-0.072 0.427-0.31 0.845-0.651 1.322-0.884 0.074-0.037 0.14-0.010 0.181 0.039 0.072-0.082 0.145-0.166 0.226-0.251-0.117-0.033-0.19-0.052-0.298-0.083 0.134-0.15 0.292-0.264 0.357-0.416 0.010-0.021 0.017-0.044 0.023-0.067-0.501-1.017-0.711-2.16-0.601-3.29 0.001-0.002 0.001-0.005 0.001-0.007-0.013-0.026-0.021-0.055-0.020-0.083l0.009-0.221c0.001-0.035 0.016-0.065 0.037-0.089 0-0.013 0.001-0.027 0.005-0.041 0.039-0.142 0.077-0.282 0.115-0.422 0.050-0.184 0.304-0.105 0.306 0.061 0.001 0.194 0.004 0.387 0.006 0.579 0.049 0.010 0.091 0.041 0.115 0.087 0.179 0.349 0.324 0.711 0.435 1.087 0.082 0.281 0.195 0.629 0.209 0.943 0.004 0.006 0.007 0.011 0.011 0.018 0.145 0.276 0.289 0.554 0.418 0.839 0.074 0.163 0.101 0.331 0.274 0.457 0.096 0.072 0.117 0.3 0.104 0.453zM12.068 8.277l0.571-0.571c0.381 0 0.762-0.19 1.143 0.381-0.245 0.337-0.481 0.698-0.697 1.077-0.683 0.305-1.314 0.71-1.87 1.195 0.173-0.738 0.462-1.448 0.853-2.082zM24.061 11.323c1.524-0.19 3.236 0.19 4.379 1.332-1.714-2.475-4.95-4.378-7.806-2.856 1.524-2.856 5.331-1.522 7.616-0.381-0.381-1.142-1.714-1.522-2.663-2.303-0.188-0.095-0.393-0.188-0.618-0.278-2.43-0.845-5.286-1.036-7.761 0.296-0.557 0.399-1.111 0.866-1.57 1.397-0.090 0.006-0.179 0.012-0.268 0.021 1.305-2.364 3.939-4.034 6.788-3.891-2.856-0.19-5.711 0.761-7.996 2.665 0.381-0.572 0-1.143-0.381-1.524-1.904 0.951-3.046 3.236-3.618 5.14 0 0.182 0.001 0.36 0.001 0.538-0.958 1.26-1.527 2.831-1.527 4.537 0 0.11 0.004 0.22 0.009 0.328-0.536-0.617-1.017-1.26-1.147-2.166 0-1.714 0.19-3.428 0.761-4.95 1.522-2.475 3.997-3.997 6.472-5.331-3.046 0-5.331 2.475-7.043 4.57-1.714 2.856-1.143 6.282 0 9.328-0.762 1.142-2.094-0.19-2.857-0.761-0.189-1.143-0.951-2.094-1.332-3.046 0.571 2.665 1.714 5.52 4.379 6.853 0.571 0 0.951 0.19 1.332 0.571 0.381 0.19 0.951 0.19 1.333 0.381 0.19 0.19 0.381 0.19 0.571 0.381-0.381 0 0 0.19-0.19 0.381-0.381 0.382-0.762 0.192-1.143 0.192-1.903-0.192-3.617-1.143-5.139-2.475-0.382-0.381-0.572-0.571-0.572-1.143-0.951-1.142-1.332-2.474-1.903-3.807 0.19 2.475 1.142 5.14 3.236 6.663-0.19 0.19 0.381 0.381 0.19 0.571 1.332 0.192 2.285 1.333 3.617 1.714 1.714 0.571 3.236 0.381 4.95 0.381 0.965-0.414 1.83-0.728 2.668-1.16 0.323-0.029 0.64-0.079 0.95-0.149-0.155 2.155-2.965 2.864-4.761 3.403 0.953 0.19 1.714-0.19 2.475-0.381 0.953-0.571 1.904-1.143 2.856-1.333-0.19 0.953-0.761 1.714-1.522 2.285-1.524 0.951-3.427 0.761-5.14 1.142 0 0.762 0.951 0.572 1.332 0.953 2.285 0 4.379-0.953 6.474-2.094 0.381-0.381 0.761-0.761 1.332-0.951 1.904-2.094 3.807-4.95 3.046-7.996 1.714 0.951 1.524 3.236 1.143 4.95-0.572 0.381-0.192 0.951-0.572 1.522-0.006 0.015-0.016 0.028-0.023 0.043 0.886-0.779 1.433-1.872 1.737-3.089 0.571-0.951 0.951-1.713 1.524-2.665 1.142-3.046-0.953-6.282-3.618-7.805z"></path>
<path d="M22.050 15.556c0.005-0.24 0.152-0.494-0.054-0.716 0.001 0.24-0.152 0.495 0.054 0.716z"></path>
</svg>
