<!-- Generated by IcoMoon.io -->
<svg version="1.1" xmlns="http://www.w3.org/2000/svg" width="32" height="32" viewBox="0 0 32 32">
<path d="M30.97 24.922c-0.258-0.183-0.345-0.477-0.468-0.758-0.183-0.402-0.433-0.825-0.55-1.25-0.030-0.108-0.040-0.203-0.087-0.31-0.082-0.19-0.175-0.358-0.207-0.565-0.032-0.19-0.078-0.372-0.108-0.56-0.052-0.337-0.135-0.707-0.323-1-0.185 0-0.383 0.295-0.508 0.413-0.185 0.177-0.36 0.365-0.527 0.56-0.17 0.198-0.32 0.468-0.532 0.62-0.128 0.093-0.285 0.145-0.415 0.24-0.117 0.087-0.198 0.203-0.315 0.29-0.198 0.152-0.36 0.352-0.565 0.5-0.12 0.087-0.225 0.18-0.33 0.293-0.258 0.267-0.637 0.4-0.938 0.622-0.050 0.038-0.085 0.087-0.137 0.122-0.117 0.082-0.288 0.125-0.418 0.185-0.17 0.078-0.337 0.152-0.508 0.23-0.37 0.168-0.742 0.332-1.11 0.5-0.267 0.12-0.535 0.24-0.805 0.36-0.133 0.060-0.275 0.15-0.415 0.192-0.215 0.063-0.462 0.050-0.677 0.108-0.142 0.038-0.335 0.095-0.483 0.075-0.11-0.015-0.223-0.063-0.33-0.085-0.175-0.038-0.35-0.032-0.52-0.093-0.293-0.1-0.593-0.23-0.758-0.49 0.020-0.005 0.035-0.005 0.052-0.010 0.12-0.032 0.245-0.030 0.37-0.030 0.117 0 0.242 0.012 0.358-0.005 0.108-0.015 0.2-0.047 0.308-0.052 0.282-0.015 0.555-0.11 0.828-0.177 0.235-0.058 0.455-0.133 0.68-0.21 0.192-0.063 0.385-0.1 0.573-0.177 0.195-0.082 0.392-0.155 0.595-0.227 0.233-0.085 0.475-0.070 0.707-0.155 0.145-0.052 0.277-0.113 0.425-0.157 0.087-0.027 0.18-0.075 0.265-0.11 0.098-0.043 0.155-0.115 0.242-0.175 0.080-0.050 0.155-0.1 0.227-0.163 0.093-0.073 0.177-0.16 0.267-0.227 0.098-0.067 0.198-0.102 0.29-0.177 0.165-0.137 0.35-0.238 0.517-0.367 0.115-0.090 0.22-0.2 0.33-0.3 0.078-0.073 0.157-0.11 0.25-0.16 0.082-0.045 0.13-0.117 0.203-0.172 0.078-0.058 0.17-0.085 0.25-0.14 0.055-0.040 0.095-0.095 0.152-0.135 0.045-0.032 0.1-0.058 0.148-0.090 0.058-0.035 0.122-0.082 0.17-0.13 0.052-0.058 0.090-0.13 0.142-0.188 0.040-0.043 0.095-0.067 0.142-0.108 0.082-0.065 0.163-0.155 0.238-0.23 0.12-0.12 0.25-0.23 0.372-0.348 0.11-0.105 0.21-0.223 0.315-0.332 0.082-0.090 0.175-0.177 0.25-0.273 0.050-0.063 0.087-0.108 0.148-0.16 0.055-0.050 0.063-0.098 0.095-0.163 0.035-0.073 0.095-0.128 0.13-0.198 0.032-0.060 0.052-0.128 0.080-0.19 0.080-0.198 0.203-0.37 0.305-0.558 0.043-0.078 0.045-0.163 0.093-0.233 0.047-0.078 0.1-0.148 0.152-0.223 0.098-0.142 0.15-0.32 0.227-0.473 0.047-0.095 0.082-0.177 0.15-0.258 0.1-0.12 0.142-0.225 0.177-0.375 0.025-0.11 0.075-0.225 0.087-0.337 0.008-0.073 0-0.145 0-0.218 0-0.087-0.008-0.177 0-0.262 0.008-0.105 0.035-0.203 0.032-0.308 0-0.18 0-0.363 0-0.543s0.025-0.39-0.005-0.572c-0.017-0.107-0.060-0.207-0.093-0.313-0.030-0.095-0.050-0.182-0.102-0.265-0.035-0.060-0.063-0.125-0.102-0.182-0.035-0.053-0.087-0.092-0.128-0.14-0.065-0.080-0.065-0.17-0.117-0.252-0.052-0.088-0.128-0.178-0.192-0.255-0.035-0.043-0.078-0.082-0.082-0.127 0.043-0.033 0.093-0.102 0.133-0.19 0 0 0.005-0.005 0.005-0.008 0.027-0.040 0.050-0.088 0.060-0.135 0.012-0.057 0.005-0.123 0.005-0.185 0.023-0.043 0.045-0.085 0.063-0.127 0.030-0.080 0.030-0.155 0.027-0.232 0.035-0.115 0.038-0.24 0.093-0.35 0.012-0.023 0.035-0.035 0.047-0.060 0.012-0.030 0.005-0.088 0.012-0.115 0.017-0.078 0.082-0.125 0.108-0.197 0.015-0.037 0.010-0.085 0.023-0.125s0.030-0.080 0.043-0.117c0.017-0.047 0.030-0.1 0.045-0.148 0.058-0.175 0.040-0.348 0.040-0.53s-0.082-0.335-0.090-0.512c-0.005-0.078 0.015-0.158 0-0.232-0.023-0.107-0.115-0.185-0.142-0.293-0.012-0.057-0.008-0.090-0.030-0.148-0.027-0.068-0.060-0.135-0.087-0.203-0.030-0.075-0.032-0.148-0.055-0.225-0.055-0.19-0.095-0.422-0.212-0.582-0.19-0.255-0.275-0.555-0.42-0.835-0.065-0.128-0.13-0.285-0.22-0.395-0.047-0.060-0.108-0.107-0.155-0.173-0.040-0.053-0.067-0.112-0.108-0.168-0.043-0.055-0.095-0.105-0.135-0.16-0.038-0.053-0.050-0.1-0.078-0.157-0.063-0.122-0.185-0.205-0.262-0.32-0.045-0.065-0.065-0.138-0.11-0.2-0.052-0.072-0.115-0.165-0.177-0.225-0.047-0.048-0.108-0.075-0.163-0.115-0.060-0.045-0.113-0.105-0.183-0.14-0.043-0.022-0.098-0.035-0.135-0.065-0.047-0.037-0.093-0.090-0.14-0.128-0.098-0.080-0.18-0.162-0.273-0.247-0.060-0.055-0.13-0.095-0.185-0.155-0.050-0.053-0.035-0.045-0.117-0.080-0.115-0.045-0.22-0.11-0.328-0.173-0.108-0.058-0.215-0.122-0.32-0.183-0.122-0.072-0.26-0.115-0.383-0.19-0.102-0.063-0.223-0.090-0.323-0.152-0.082-0.053-0.15-0.098-0.242-0.135-0.27-0.115-0.563-0.218-0.82-0.355-0.055-0.030-0.098-0.078-0.152-0.107-0.060-0.035-0.13-0.060-0.19-0.098-0.1-0.055-0.177-0.12-0.285-0.163-0.087-0.035-0.157-0.087-0.238-0.125-0.105-0.050-0.212-0.1-0.32-0.147-0.16-0.075-0.323-0.138-0.483-0.208-0.113-0.050-0.235-0.065-0.348-0.123-0.148-0.075-0.3-0.155-0.455-0.215-0.108-0.040-0.207-0.107-0.317-0.14-0.065-0.020-0.13-0.025-0.192-0.047-0.155-0.060-0.317-0.095-0.473-0.145-0.082-0.027-0.17-0.045-0.25-0.075-0.047-0.015-0.1-0.042-0.15-0.055-0.035-0.007-0.075 0-0.108-0.007-0.148-0.035-0.277-0.118-0.427-0.147-0.137-0.027-0.273-0.075-0.41-0.103-0.225-0.047-0.455-0.078-0.677-0.107-0.198-0.028-0.418-0.032-0.61-0.083-0.060-0.018-0.098-0.030-0.157-0.030-0.075 0-0.14-0.025-0.212-0.030-0.108-0.008-0.21-0.032-0.317-0.045-0.145-0.020-0.295-0.018-0.442-0.015-0.14-0.005-0.28 0-0.415 0h-1.867c-0.315 0-0.62 0.030-0.935 0.030-0.25 0-0.492 0.028-0.742 0.032-0.29 0.005-0.605-0.048-0.887 0.030-0.2 0.055-0.405 0.090-0.613 0.11-0.158 0.018-0.338 0-0.49 0.040-0.088 0.025-0.133 0.080-0.23 0.087-0.133 0.010-0.268 0.007-0.4 0.018-0.17 0.013-0.307 0.055-0.467 0.098-0.080 0.020-0.158 0.020-0.238 0.035-0.14 0.025-0.277 0.067-0.422 0.083-0.055 0.007-0.107-0.005-0.162 0-0.148 0.007-0.297 0.065-0.443 0.092-0.213 0.040-0.408 0.107-0.602 0.203-0.237 0.118-0.465 0.245-0.688 0.385-0.107 0.070-0.235 0.103-0.335 0.183-0.080 0.065-0.155 0.112-0.25 0.16-0.19 0.098-0.388 0.192-0.563 0.32-0.088 0.060-0.16 0.125-0.258 0.165-0.18 0.075-0.33 0.233-0.525 0.288-0.085 0.025-0.168 0.010-0.25 0.043-0.093 0.037-0.183 0.075-0.272 0.11-0.12 0.048-0.213 0.143-0.335 0.18-0.075 0.022-0.135 0.040-0.205 0.075-0.223 0.103-0.455 0.185-0.655 0.327-0.098 0.070-0.197 0.138-0.292 0.21-0.075 0.058-0.127 0.138-0.19 0.21-0.103 0.117-0.195 0.237-0.29 0.362-0.147 0.192-0.303 0.39-0.435 0.593-0.075 0.117-0.177 0.21-0.26 0.322-0.047 0.063-0.085 0.143-0.135 0.2-0.033 0.037-0.067 0.058-0.090 0.107-0.025 0.053-0.030 0.112-0.063 0.165-0.040 0.065-0.070 0.105-0.090 0.178-0.042 0.17-0.222 0.305-0.335 0.428-0.075 0.082-0.17 0.155-0.232 0.25-0.040 0.063-0.052 0.14-0.090 0.205-0.032 0.060-0.090 0.102-0.12 0.165-0.032 0.065-0.042 0.143-0.073 0.21-0.065 0.152-0.107 0.32-0.162 0.475-0.035 0.102-0.095 0.197-0.122 0.303-0.022 0.078-0.010 0.152-0.007 0.232 0 0.107-0.037 0.193-0.085 0.285-0.042 0.085-0.070 0.178-0.098 0.268-0.073 0.225-0.027 0.505-0.027 0.742 0 0.115-0.022 0.255 0.005 0.37 0.015 0.063 0.065 0.113 0.080 0.178 0.012 0.055 0.010 0.115 0.025 0.178 0.022 0.085 0.057 0.165 0.065 0.25 0.010 0.095 0.010 0.175 0.032 0.265 0.047 0.195 0.030 0.398 0.030 0.6 0 0.453-0.037 0.928 0.057 1.367-0.037 0.115-0.063 0.232-0.065 0.355-0.005 0.125-0.005 0.23-0.030 0.352-0.032 0.15-0.005 0.318-0.047 0.46-0.045 0.15-0.142 0.255-0.16 0.418-0.015 0.14 0 0.293 0 0.435 0 0.262 0.063 0.517 0.057 0.78-0.005 0.238 0.027 0.495 0.13 0.712 0.065 0.133 0.14 0.28 0.225 0.402 0.063 0.093 0.14 0.177 0.19 0.28 0.080 0.16 0.163 0.335 0.218 0.508 0.050 0.15 0.060 0.308 0.107 0.457 0.035 0.113 0.115 0.207 0.19 0.297 0.107 0.13 0.248 0.225 0.385 0.325 0.127 0.095 0.245 0.2 0.362 0.313 0.107 0.098 0.208 0.2 0.308 0.302 0.092 0.093 0.13 0.192 0.208 0.295 0.1 0.128 0.237 0.247 0.355 0.36 0.107 0.108 0.23 0.2 0.355 0.288 0.17 0.12 0.327 0.265 0.502 0.378 0.135 0.090 0.263 0.148 0.38 0.27 0.188 0.2 0.35 0.435 0.58 0.593 0.213 0.145 0.447 0.297 0.68 0.4 0.143 0.063 0.285 0.133 0.43 0.188 0.232 0.087 0.482 0.13 0.71 0.233 0.098 0.043 0.19 0.098 0.29 0.135 0.11 0.040 0.23 0.067 0.34 0.108 0.178 0.067 0.34 0.163 0.513 0.245 0.168 0.080 0.32 0.177 0.477 0.265 0.102 0.055 0.203 0.075 0.307 0.12 0.13 0.058 0.25 0.13 0.385 0.188 0.12 0.052 0.248 0.105 0.37 0.15 0.207 0.075 0.44 0.098 0.643 0.183 0.148 0.065 0.285 0.13 0.443 0.175 0.29 0.080 0.598 0.135 0.895 0.172h0.023c0.023 0.017 0.040 0.038 0.068 0.052 0.24 0.137 0.457 0.33 0.695 0.46 0.117 0.063 0.227 0.090 0.335 0.177 0.088 0.070 0.162 0.16 0.25 0.227 0.078 0.063 0.168 0.1 0.25 0.157 0.113 0.075 0.13 0.15 0.22 0.23 0.16 0.14 0.3 0.207 0.418 0.407 0.127 0.218 0.245 0.455 0.352 0.677 0.102 0.21 0.15 0.455 0.287 0.648 0.063 0.090 0.207 0.203 0.287 0.282 0.113 0.11 0.213 0.212 0.318 0.332 0.095 0.11 0.11 0.070 0.232 0.135 0.092 0.050 0.115 0.085 0.18 0.165 0.162 0.198 0.332 0.32 0.555 0.442 0.238 0.13 0.462 0.32 0.69 0.473 0.385 0.255 3.135 0.657 3.595 0.633 0.16-0.008 0.32 0.015 0.477 0.017 0.177 0.005 0.34-0.052 0.517-0.078 0.203-0.027 0.398-0.035 0.6-0.085 0.25-0.063 0.492-0.142 0.74-0.203 1.082-0.273 2.098-0.765 3.113-1.225 0.365-0.165 0.74-0.32 1.102-0.492 0.273-0.133 0.508-0.332 0.773-0.483 0.477-0.267 0.92-0.625 1.38-0.927 0.095-0.060 0.198-0.093 0.293-0.155 0.177-0.12 0.305-0.297 0.492-0.407 0.175-0.108 0.328-0.215 0.488-0.345 0.372-0.308 0.7-0.725 1.113-0.962 0.005-0.177-0.355-0.28-0.483-0.37zM19.77 10.303c0-0.063 0.023-0.135 0.060-0.188s0.082-0.057 0.11-0.117c0.015-0.033 0.023-0.063 0.045-0.095 0.027-0.033 0.047-0.043 0.070-0.080 0.012-0.027 0.017-0.057 0.030-0.085 0.025-0.040 0.060-0.082 0.090-0.12 0.025-0.033 0.047-0.063 0.070-0.098 0.025-0.037 0.023-0.065 0.040-0.105 0.023-0.047 0.075-0.085 0.102-0.133 0.032-0.053 0.045-0.088 0.095-0.133 0.030-0.030 0.058-0.060 0.090-0.090 0.045-0.043 0.098-0.057 0.15-0.090 0.073-0.037 0.133-0.095 0.203-0.133 0.040-0.023 0.082-0.040 0.122-0.063 0.040-0.027 0.075-0.068 0.12-0.088 0.050-0.020 0.078-0.020 0.12-0.053 0.035-0.027 0.075-0.050 0.113-0.075 0.087-0.055 0.188-0.092 0.28-0.145 0.058-0.035 0.113-0.075 0.175-0.11 0.055-0.033 0.113-0.045 0.175-0.072 0.177-0.075 0.34-0.17 0.525-0.227 0.115-0.035 0.25-0.093 0.37-0.103 0.067-0.008 0.125-0.005 0.19-0.018 0.105-0.020 0.22-0.005 0.323-0.005h0.273c0.177 0 0.345 0.008 0.52 0.040 0.218 0.043 0.442 0.097 0.665 0.112 0.045 0 0.090 0.015 0.133 0.027 0.1 0.027 0.198 0.037 0.302 0.055 0.080 0.015 0.163 0.018 0.245 0.033 0.043 0.010 0.090 0.023 0.133 0.035 0.058 0.015 0.105 0.053 0.16 0.070 0.050 0.015 0.102 0 0.152 0.025 0.030 0.012 0.060 0.033 0.090 0.047 0.027 0.012 0.052 0.023 0.078 0.040 0.023 0.018 0.030 0.045 0.047 0.063 0.023 0.023 0.080 0.035 0.108 0.047 0.040 0.020 0.080 0.035 0.117 0.057 0.11 0.057 0.238 0.090 0.348 0.15 0.067 0.037 0.142 0.050 0.198 0.107 0.073 0.072 0.17 0.1 0.247 0.175 0.047 0.045 0.082 0.072 0.115 0.133 0.032 0.057 0.058 0.068 0.1 0.113 0.050 0.053 0.093 0.125 0.135 0.18 0.070 0.085 0.128 0.178 0.2 0.262 0.045 0.053 0.108 0.123 0.128 0.193 0.015 0.047 0 0.050 0.030 0.092 0.035 0.053 0.073 0.107 0.11 0.155 0.040 0.050 0.035 0.055 0.040 0.107 0.010 0.060 0.038 0.092 0.070 0.152 0.027 0.055 0.008 0.050 0.025 0.090 0.017 0.043 0.035 0.070 0.045 0.117 0.017 0.075 0.012 0.148 0.027 0.22 0.017 0.085 0.010 0.17 0.012 0.255 0 0.045 0.008 0.095-0.005 0.14-0.015 0.055-0.043 0.107-0.060 0.162-0.032 0.102-0.067 0.21-0.157 0.275-0.035 0.025-0.045 0.027-0.067 0.072-0.027 0.055-0.045 0.090-0.090 0.135-0.045 0.050-0.070 0.107-0.087 0.17 0 0.012 0 0.027-0.005 0.040-0.005 0.027-0.020 0.047-0.043 0.060-0.020 0.037-0.025 0.070-0.050 0.105-0.017 0.023-0.047 0.045-0.070 0.063-0.043 0.035-0.080 0.082-0.122 0.117-0.082 0.068-0.177 0.123-0.258 0.193-0.060 0.053-0.12 0.115-0.175 0.178-0.075 0.088-0.177 0.135-0.265 0.205-0.2 0.15-0.44 0.26-0.677 0.332-0.225 0.068-0.442 0.178-0.655 0.285-0.050 0.025-0.095 0.053-0.14 0.082-0.067 0.043-0.152 0.045-0.225 0.075-0.065 0.025-0.125 0.065-0.192 0.090-0.082 0.033-0.168 0.053-0.25 0.078-0.148 0.043-0.302 0.068-0.445 0.123-0.040 0.015-0.198 0.085-0.233 0.035 0.012-0.012 0.023-0.025 0.035-0.035l0.33-0.245c-0.087-0.012-0.18 0.055-0.265 0.065-0.038 0.005-0.073 0.020-0.11 0.023-0.050 0.005-0.093 0-0.142 0.012-0.090 0.023-0.188 0.012-0.28 0.012-0.13 0-0.258 0-0.38-0.050-0.108-0.043-0.212-0.078-0.317-0.123-0.030-0.015-0.045-0.025-0.073-0.040-0.045-0.033-0.085-0.050-0.135-0.080-0.058-0.033-0.105-0.085-0.165-0.11-0.040-0.018-0.035-0.018-0.065-0.037-0.025-0.018-0.043-0.040-0.070-0.055-0.058-0.030-0.117-0.035-0.18-0.050-0.052-0.015-0.11-0.045-0.168-0.050-0.045-0.008-0.095 0-0.142 0 0.040-0.005 0.125 0.015 0.157 0.040-0.065 0.018-0.148 0.005-0.215 0.005-0.020 0-0.047 0.005-0.065 0-0.035-0.008-0.055-0.033-0.090-0.043-0.023-0.005-0.047 0-0.070 0-0.035-0.008-0.065-0.035-0.098-0.050-0.105-0.053-0.212-0.098-0.32-0.13-0.065-0.023-0.148-0.065-0.205-0.105-0.045-0.033-0.082-0.070-0.133-0.092-0.043-0.020-0.090-0.030-0.133-0.047-0.055-0.025-0.102-0.045-0.148-0.082-0.035-0.030-0.065-0.043-0.108-0.063-0.055-0.025-0.090-0.055-0.14-0.090s-0.073-0.075-0.113-0.12c-0.025-0.030-0.058-0.043-0.085-0.070-0.030-0.030-0.035-0.072-0.065-0.105-0.017-0.018-0.050-0.027-0.063-0.043-0.023-0.027-0.005-0.095-0.017-0.127-0.030-0.085-0.113-0.102-0.137-0.195-0.040-0.158-0.073-0.32-0.115-0.473-0.035-0.117-0.023-0.248-0.023-0.37s-0.005-0.25 0-0.373c0-0.1 0.063-0.178 0.070-0.277 0.005-0.057-0.005-0.117 0-0.178zM11.32 5.515c0-0.090 0-0.162 0.035-0.25 0.030-0.075 0.035-0.152 0.057-0.228 0.025-0.075 0.033-0.155 0.060-0.225 0.027-0.060 0.047-0.117 0.065-0.183 0.025-0.088 0.085-0.155 0.123-0.235 0.012-0.025 0.020-0.067 0.035-0.090 0.018-0.027 0.057-0.050 0.082-0.075 0.053-0.053 0.098-0.103 0.155-0.152 0.063-0.053 0.133-0.098 0.203-0.143 0.035-0.022 0.068-0.035 0.102-0.055 0.033-0.020 0.055-0.050 0.088-0.075 0.057-0.042 0.123-0.075 0.188-0.107 0.075-0.040 0.14-0.098 0.217-0.14 0.080-0.042 0.162-0.095 0.245-0.13 0.057-0.027 0.12-0.042 0.178-0.067 0.037-0.018 0.075-0.022 0.113-0.035 0.072-0.030 0.145-0.080 0.213-0.115 0.092-0.047 0.18-0.085 0.28-0.118 0.188-0.063 0.393-0.038 0.59-0.038h0.525c0.065 0 0.117-0.007 0.178-0.020 0.063-0.013 0.143 0 0.207 0 0.168 0 0.34-0.013 0.51 0 0.1 0.007 0.203 0.033 0.302 0.047 0.063 0.013 0.11 0.040 0.17 0.065 0.065 0.030 0.135 0.040 0.2 0.065 0.082 0.033 0.157 0.083 0.238 0.12 0.078 0.038 0.165 0.060 0.245 0.095 0.047 0.022 0.090 0.055 0.135 0.078 0.032 0.013 0.063 0.018 0.095 0.033 0.017 0.010 0.030 0.025 0.047 0.033 0.023 0.013 0.060 0.013 0.082 0.027 0.032 0.022 0.025 0.040 0.065 0.055 0.073 0.027 0.13 0.047 0.198 0.087 0.038 0.022 0.070 0.055 0.108 0.080 0.045 0.030 0.098 0.045 0.145 0.072 0.047 0.030 0.065 0.072 0.108 0.107 0.040 0.037 0.085 0.045 0.117 0.093 0.012 0.015 0.020 0.037 0.032 0.053 0.012 0.013 0.035 0.020 0.045 0.030 0.035 0.035 0.032 0.082 0.055 0.12 0.023 0.035 0.055 0.058 0.078 0.098 0.027 0.050 0.043 0.077 0.087 0.112 0.065 0.055 0.148 0.125 0.188 0.197 0.032 0.050 0.047 0.107 0.095 0.15 0.032 0.030 0.060 0.048 0.087 0.080 0.060 0.075 0.11 0.15 0.157 0.232 0.017 0.035 0.030 0.040 0.030 0.085 0 0.022-0.005 0.048 0 0.072 0.008 0.045 0.038 0.080 0.045 0.125 0.008 0.043-0.008 0.090 0 0.13 0.015 0.075 0.063 0.125 0.065 0.207 0 0.022 0.008 0.063 0 0.082-0.012 0.035-0.052 0.037-0.078 0.067-0.032 0.040-0.035 0.093-0.058 0.135s-0.060 0.065-0.102 0.090c-0.040 0.022-0.080 0.045-0.108 0.085-0.032 0.043-0.038 0.098-0.063 0.145-0.045 0.082-0.090 0.17-0.152 0.242-0.063 0.077-0.093 0.178-0.163 0.245-0.025 0.027-0.023 0.022-0.035 0.058-0.017 0.060-0.027 0.070-0.070 0.11-0.038 0.037-0.065 0.088-0.105 0.125-0.030 0.032-0.070 0.053-0.105 0.082-0.020 0.018-0.035 0.035-0.052 0.053-0.038 0.035-0.095 0.048-0.133 0.085-0.043 0.037-0.055 0.050-0.113 0.075-0.055 0.022-0.093 0.063-0.14 0.098-0.058 0.040-0.117 0.088-0.177 0.12-0.078 0.045-0.16 0.077-0.235 0.122-0.135 0.085-0.275 0.16-0.435 0.195-0.108 0.025-0.19 0.102-0.295 0.133-0.115 0.035-0.212 0.1-0.332 0.123-0.102 0.020-0.203 0.043-0.305 0.057-0.063 0.010-0.12 0.040-0.182 0.045-0.095 0.008-0.188 0-0.283 0-0.072 0-0.182-0.023-0.225-0.023h-0.775c-0.070 0-0.12-0.010-0.185-0.020-0.037-0.008-0.043-0.008-0.075-0.025-0.025-0.015-0.040-0.027-0.075-0.037-0.043-0.015-0.057-0.027-0.092-0.053-0.027-0.023-0.045-0.020-0.082-0.030-0.088-0.027-0.158-0.080-0.245-0.102-0.15-0.035-0.3-0.080-0.44-0.13-0.037-0.015-0.082-0.015-0.117-0.040-0.025-0.020-0.035-0.043-0.063-0.060-0.075-0.048-0.158-0.067-0.225-0.12-0.047-0.037-0.095-0.082-0.15-0.107-0.057-0.030-0.092-0.063-0.145-0.105-0.035-0.030-0.072-0.035-0.113-0.053-0.043-0.018-0.050-0.037-0.080-0.063-0.025-0.020-0.055-0.025-0.082-0.040-0.070-0.035-0.11-0.103-0.168-0.152-0.053-0.050-0.11-0.11-0.155-0.168-0.045-0.055-0.085-0.11-0.133-0.168-0.105-0.115-0.092-0.285-0.155-0.423-0.025-0.055-0.068-0.098-0.098-0.15-0.018-0.027-0.020-0.063-0.035-0.095-0.027-0.045-0.027-0.063-0.035-0.11-0.008-0.050-0.023-0.090-0.023-0.143 0-0.082-0.005-0.162 0-0.245 0-0.060 0.023-0.115 0.023-0.178zM10.935 14.35c0.037-0.045 0.053-0.107 0.092-0.158 0.075-0.090 0.117-0.195 0.19-0.287 0.033-0.040 0.080-0.047 0.115-0.085 0.045-0.045 0.063-0.078 0.125-0.107 0.050-0.025 0.105-0.050 0.155-0.078 0.055-0.030 0.102-0.078 0.158-0.107 0.043-0.025 0.095-0.025 0.137-0.047 0.055-0.030 0.107-0.043 0.17-0.065 0.040-0.018 0.078-0.035 0.113-0.055 0.068-0.035 0.148-0.053 0.22-0.078 0.070-0.023 0.148-0.035 0.213-0.068 0.055-0.027 0.105-0.065 0.162-0.090 0.13-0.053 0.285-0.075 0.425-0.078 0.063 0 0.127 0.010 0.188 0 0.047-0.008 0.090-0.027 0.137-0.037 0.098-0.020 0.207-0.033 0.305-0.045 0.045-0.005 0.092 0 0.135-0.008 0.045-0.008 0.090-0.030 0.135-0.037 0.143-0.023 0.277-0.020 0.422-0.027 0.143-0.008 0.277-0.043 0.422-0.043h0.74c0.152 0 0.313-0.012 0.463 0.012 0.135 0.020 0.262 0.060 0.392 0.107 0.12 0.043 0.245 0.092 0.36 0.145 0.052 0.025 0.1 0.060 0.155 0.080 0.052 0.018 0.108 0.030 0.16 0.047 0.038 0.012 0.080 0.020 0.113 0.040 0.020 0.012 0.032 0.033 0.055 0.043 0.038 0.023 0.085 0.035 0.125 0.047 0.093 0.035 0.188 0.057 0.273 0.1 0.070 0.035 0.133 0.068 0.205 0.095 0.080 0.033 0.157 0.068 0.238 0.1 0.078 0.030 0.122 0.060 0.188 0.11 0.043 0.035 0.080 0.035 0.125 0.055 0.052 0.025 0.095 0.070 0.145 0.1 0.035 0.023 0.078 0.033 0.11 0.057 0.058 0.043 0.108 0.1 0.163 0.145 0.047 0.037 0.063 0.082 0.098 0.13 0.038 0.057 0.085 0.12 0.128 0.175 0.010 0.012 0.050 0.035 0.058 0.047 0.010 0.018 0 0.027 0.008 0.040 0.027 0.063 0.052 0.117 0.098 0.172 0.047 0.060 0.122 0.105 0.148 0.18 0.015 0.050 0.015 0.1 0.045 0.148 0.043 0.065 0.070 0.158 0.12 0.213 0.032 0.035 0.078 0.060 0.108 0.098 0.035 0.043 0.098 0.080 0.125 0.125 0.043 0.072 0.050 0.178 0.078 0.255 0.052 0.15 0.052 0.28 0.052 0.44 0 0.128-0.017 0.253-0.023 0.385 0 0.047-0.008 0.073-0.045 0.11-0.025 0.025-0.055 0.035-0.078 0.060-0.027 0.035-0.043 0.085-0.058 0.122-0.017 0.047-0.023 0.087-0.052 0.125-0.032 0.038-0.043 0.075-0.073 0.117-0.038 0.060-0.060 0.080-0.080 0.15-0.015 0.052-0.032 0.095-0.060 0.14-0.060 0.093-0.063 0.205-0.145 0.282-0.038 0.035-0.075 0.065-0.11 0.1s-0.085 0.045-0.12 0.080c-0.052 0.045-0.078 0.078-0.14 0.11-0.052 0.030-0.098 0.075-0.152 0.105-0.058 0.032-0.12 0.050-0.177 0.080-0.025 0.015-0.047 0.040-0.073 0.058-0.047 0.038-0.1 0.065-0.155 0.093-0.095 0.045-0.177 0.113-0.233 0.203-0.038 0.055-0.075 0.093-0.122 0.14-0.047 0.045-0.075 0.108-0.108 0.163-0.030 0.047-0.063 0.082-0.1 0.125-0.023 0.027-0.035 0.052-0.052 0.082-0.030 0.045-0.050 0.050-0.090 0.082-0.027 0.023-0.035 0.052-0.055 0.080-0.030 0.035-0.075 0.065-0.108 0.1-0.078 0.080-0.188 0.115-0.29 0.155-0.080 0.032-0.142 0.087-0.225 0.113-0.090 0.027-0.18 0.052-0.273 0.073-0.175 0.035-0.345 0.075-0.52 0.095-0.152 0.020-0.305 0-0.457 0.030-0.123 0.025-0.27 0.005-0.395 0.005-0.1 0-0.258-0.030-0.345 0.023 0.090-0.055 0.175-0.12 0.258-0.177-0.010 0-0.023 0-0.030 0-0.035 0-0.070-0.012-0.107-0.020-0.035-0.008-0.075-0.023-0.113-0.027s-0.085 0.012-0.123 0c-0.035-0.010-0.063-0.038-0.1-0.047-0.040-0.012-0.088-0.025-0.127-0.032-0.072-0.015-0.152-0.005-0.227-0.005h-0.178c-0.075 0-0.143-0.035-0.213-0.055-0.088-0.027-0.16-0.063-0.245-0.1s-0.178-0.090-0.268-0.108c-0.040-0.010-0.085 0-0.127 0-0.047 0-0.090-0.017-0.135-0.025-0.040-0.008-0.080-0.020-0.12-0.023-0.030 0-0.060 0.008-0.088 0-0.092-0.012-0.19-0.047-0.277-0.073-0.092-0.025-0.185-0.063-0.275-0.095-0.043-0.015-0.088-0.015-0.13-0.027-0.047-0.015-0.092-0.040-0.14-0.058-0.078-0.030-0.16-0.047-0.238-0.078-0.033-0.012-0.060-0.038-0.095-0.045-0.035-0.010-0.045 0-0.078-0.027-0.035-0.027-0.063-0.063-0.102-0.090-0.037-0.025-0.068-0.045-0.102-0.080-0.060-0.058-0.14-0.090-0.207-0.142-0.033-0.023-0.060-0.052-0.090-0.075-0.040-0.030-0.092-0.045-0.133-0.080-0.065-0.052-0.14-0.095-0.197-0.155-0.070-0.073-0.158-0.108-0.2-0.2-0.020-0.040-0.045-0.060-0.072-0.1-0.030-0.038-0.035-0.080-0.050-0.122-0.018-0.050-0.050-0.082-0.078-0.122-0.033-0.055-0.053-0.098-0.1-0.14-0.057-0.052-0.1-0.15-0.14-0.223-0.050-0.090-0.057-0.188-0.078-0.288-0.010-0.040-0.025-0.095-0.037-0.133-0.012-0.030-0.033-0.050-0.043-0.080-0.012-0.038-0.010-0.085-0.023-0.125-0.018-0.047-0.043-0.085-0.055-0.135-0.050-0.192-0.078-0.383-0.078-0.58 0-0.068-0.015-0.155 0-0.22 0.008-0.035 0.035-0.068 0.047-0.105 0.018-0.050 0.035-0.107 0.037-0.162 0.005-0.037 0-0.047 0.027-0.082 0.035-0.043 0.057-0.080 0.085-0.127 0.018-0.027 0.037-0.053 0.055-0.080 0.025-0.035 0.037-0.080 0.057-0.117 0.045-0.085 0.117-0.135 0.152-0.223 0.018-0.043 0.037-0.080 0.070-0.115 0.047-0.053 0.080-0.098 0.113-0.158 0.030-0.055 0.072-0.065 0.11-0.11zM2.107 10.598c0-0.092 0.038-0.18 0.045-0.273 0.005-0.055 0.013-0.072 0.047-0.11 0.045-0.047 0.078-0.105 0.118-0.158 0.038-0.047 0.063-0.102 0.1-0.15 0.025-0.035 0.053-0.055 0.075-0.092 0.040-0.082 0.090-0.162 0.125-0.248 0.035-0.075 0.085-0.137 0.115-0.215 0.042-0.107 0.112-0.165 0.175-0.255 0.063-0.092 0.16-0.143 0.243-0.215 0.045-0.040 0.107-0.075 0.145-0.125 0.038-0.053 0.045-0.105 0.11-0.133 0.053-0.025 0.095-0.030 0.14-0.065 0.042-0.033 0.083-0.063 0.127-0.090 0.1-0.055 0.19-0.1 0.303-0.123 0.067-0.015 0.13-0.045 0.197-0.063 0.055-0.015 0.11-0.025 0.165-0.043 0.082-0.030 0.157-0.045 0.242-0.065 0.048-0.012 0.088-0.023 0.135-0.023 0.027 0 0.055 0 0.082 0 0.040-0.008 0.070-0.030 0.107-0.037 0.035-0.010 0.070 0 0.107 0 0.037-0.005 0.080-0.027 0.115-0.035 0.103-0.025 0.205-0.025 0.305-0.060 0.035-0.012 0.070-0.008 0.105-0.018 0.030-0.010 0.048-0.032 0.077-0.043 0.093-0.037 0.207-0.065 0.31-0.067 0.232 0 0.465 0 0.7 0 0.205 0 0.405 0 0.607 0.025 0.090 0.010 0.197 0.035 0.28 0.072 0.075 0.032 0.15 0.055 0.23 0.077 0.080 0.020 0.128 0.068 0.2 0.1 0.048 0.023 0.103 0.035 0.15 0.060 0.050 0.025 0.085 0.050 0.135 0.068 0.11 0.037 0.225 0.068 0.322 0.13 0.040 0.027 0.065 0.033 0.113 0.045 0.035 0.012 0.068 0.037 0.1 0.057 0.047 0.033 0.115 0.040 0.162 0.075 0.040 0.027 0.045 0.043 0.095 0.063 0.082 0.037 0.137 0.092 0.223 0.117 0.090 0.027 0.145 0.098 0.215 0.152 0.037 0.027 0.080 0.030 0.117 0.050 0.030 0.020 0.050 0.060 0.082 0.080 0.117 0.080 0.225 0.17 0.338 0.255 0.047 0.035 0.095 0.065 0.14 0.107 0.043 0.037 0.098 0.057 0.14 0.095 0.033 0.030 0.063 0.068 0.092 0.102 0.040 0.047 0.047 0.102 0.078 0.152 0.020 0.035 0.047 0.055 0.063 0.092 0.020 0.045 0.023 0.098 0.033 0.148 0.018 0.090 0 0.18 0.018 0.268 0.010 0.045 0.033 0.088 0.037 0.133 0.005 0.037-0.005 0.080 0.005 0.115s0.033 0.063 0.040 0.1c0.012 0.045 0.030 0.090 0.040 0.133 0.008 0.035 0 0.068 0 0.102 0 0.040 0.015 0.082 0.025 0.12 0.018 0.080 0.043 0.16 0.045 0.24 0 0.035 0.008 0.082 0 0.115-0.008 0.035-0.025 0.040-0.045 0.068-0.085 0.1-0.133 0.25-0.19 0.365-0.050 0.107-0.092 0.205-0.178 0.29-0.035 0.033-0.082 0.043-0.115 0.072-0.037 0.033-0.043 0.088-0.078 0.125-0.047 0.055-0.133 0.078-0.19 0.125-0.068 0.057-0.117 0.135-0.182 0.193-0.027 0.025-0.068 0.030-0.098 0.057-0.025 0.025-0.040 0.053-0.065 0.078-0.033 0.027-0.055 0.040-0.080 0.078-0.035 0.057-0.055 0.1-0.11 0.14-0.078 0.057-0.143 0.123-0.217 0.182-0.040 0.033-0.082 0.065-0.125 0.098-0.035 0.027-0.070 0.068-0.11 0.080-0.027 0.008-0.043 0-0.068 0.012-0.055 0.023-0.113 0.050-0.172 0.075-0.145 0.060-0.262 0.18-0.425 0.2-0.137 0.015-0.268 0.063-0.407 0.088-0.147 0.023-0.292 0.065-0.44 0.098-0.072 0.015-0.143 0.045-0.215 0.063-0.090 0.020-0.178 0.035-0.265 0.040-0.098 0.008-0.185 0.035-0.282 0.045-0.095 0.010-0.188 0.043-0.285 0.045-0.103 0.005-0.235-0.018-0.348 0.005-0.032 0.040-0.063 0.053-0.093 0.033 0.027-0.018 0.060-0.025 0.093-0.033 0-0.005 0.008-0.005 0.010-0.010 0.152-0.078 0.295-0.175 0.582-0.152h-0.423c-0.060 0-0.14-0.015-0.197 0.005-0.027 0.010-0.048 0.033-0.077 0.037-0.035 0.010-0.077 0-0.112 0h-0.375c-0.2 0-0.385-0.027-0.565-0.11-0.035-0.018-0.072-0.025-0.11-0.035-0.055-0.020-0.095-0.060-0.147-0.088-0.045-0.023-0.095-0.033-0.14-0.053-0.060-0.027-0.115-0.065-0.178-0.085-0.037-0.012-0.090-0.012-0.125-0.030-0.045-0.025-0.070-0.078-0.112-0.107-0.037-0.030-0.082-0.060-0.123-0.090-0.047-0.033-0.103-0.035-0.15-0.063-0.085-0.047-0.158-0.127-0.243-0.178-0.078-0.047-0.155-0.088-0.235-0.13-0.065-0.037-0.118-0.1-0.188-0.127-0.078-0.035-0.132-0.102-0.208-0.148-0.058-0.035-0.1-0.090-0.158-0.133-0.040-0.030-0.042-0.025-0.060-0.080-0.018-0.057-0.020-0.057-0.060-0.092-0.045-0.040-0.075-0.127-0.090-0.182-0.020-0.080-0.085-0.15-0.090-0.235-0.005-0.047-0.010-0.095-0.020-0.143-0.010-0.050-0.025-0.055-0.047-0.1-0.015-0.030-0.013-0.060-0.025-0.090-0.007-0.015-0.030-0.025-0.035-0.040-0.010-0.020-0.005-0.047-0.010-0.068-0.018-0.065-0.078-0.123-0.115-0.178-0.060-0.080-0.12-0.178-0.123-0.28-0.005-0.125 0-0.252 0-0.38zM9.47 22.043c-0.010 0.065-0.030 0.122-0.033 0.19 0 0.045 0 0.078-0.015 0.122-0.037 0.11-0.127 0.198-0.158 0.317-0.012 0.045 0.005 0.090 0 0.135-0.010 0.063-0.050 0.117-0.063 0.18-0.012 0.050-0.012 0.165-0.050 0.225-0.018 0.025-0.035 0.040-0.065 0.040-0.227-0.008-0.18 0.043-0.13 0.085 0.020 0.030 0.012 0.052-0.018 0.065-0.035 0.050-0.107 0.055-0.162 0.058-0.072 0-0.152 0.010-0.225 0-0.148-0.020-0.268-0.12-0.393-0.188-0.102-0.058-0.202-0.102-0.298-0.177-0.082-0.070-0.138-0.098-0.232-0.15-0.093-0.047-0.162-0.137-0.25-0.195s-0.178-0.113-0.26-0.172c-0.053-0.035-0.103-0.038-0.152-0.067-0.122-0.067-0.2-0.215-0.295-0.315-0.093-0.098-0.213-0.177-0.3-0.275-0.013-0.015-0.025-0.030-0.035-0.043-0.018-0.025-0.035-0.050-0.058-0.075-0.053-0.055-0.115-0.102-0.162-0.163-0.035-0.043-0.050-0.087-0.098-0.117-0.065-0.045-0.133-0.050-0.19-0.108-0.065-0.065-0.145-0.165-0.2-0.245-0.077-0.108-0.075-0.227-0.117-0.343-0.020-0.052-0.032-0.113-0.058-0.165-0.032-0.063-0.053-0.065-0.070-0.137-0.022-0.093-0.025-0.18-0.043-0.275s-0.027-0.185-0.043-0.28c-0.010-0.052-0.065-0.238 0-0.267 0.098 0.060 0.157 0.122 0.268 0.152 0.063 0.015 0.095 0.047 0.143 0.087 0.035 0.027 0.058 0.040 0.107 0.058 0.095 0.035 0.192 0.055 0.282 0.108s0.183 0.098 0.282 0.142c0.050 0.023 0.11 0.038 0.157 0.070 0.030 0.020 0.040 0.043 0.070 0.065 0.060 0.050 0.175 0.073 0.247 0.095 0.1 0.035 0.183 0.108 0.28 0.155 0.045 0.025 0.128 0.045 0.16 0.087 0.030 0.040 0.013 0.080 0.053 0.117 0.050 0.043 0.117 0.055 0.17 0.105 0.055 0.050 0.103 0.093 0.175 0.122 0.115 0.047 0.255 0.085 0.375 0.113 0.178 0.043 0.32 0.128 0.48 0.21 0.050 0.027 0.107 0.032 0.158 0.055 0.037 0.020 0.063 0.040 0.107 0.052 0.19 0.050 0.34 0.16 0.537 0.198 0.117 0.023 0.162 0.035 0.15 0.163-0.008 0.058-0.023 0.113-0.030 0.175zM13.928 22.988c-0.005 0.045 0 0.067-0.018 0.11-0.020 0.055-0.043 0.102-0.057 0.163-0.020 0.080-0.012 0.155-0.012 0.238 0 0.087-0.033 0.163-0.030 0.25v0.323c0 0.035-0.005 0.073-0.008 0.108-0.008 0.115-0.025 0.233-0.045 0.35-0.015 0.080-0.035 0.16-0.037 0.242 0 0.050 0.008 0.1 0 0.15-0.018 0.090-0.080 0.168-0.088 0.258 0 0.030 0 0.055 0 0.087-0.005 0.020 0 0.035-0.005 0.055-0.012 0.1-0.020 0.198-0.020 0.302-0.245-0.133-0.29-0.185-0.355-0.203-0.060-0.017-0.117 0.010-0.178 0-0.047-0.008-0.080-0.035-0.12-0.063-0.023-0.015-0.043-0.025-0.065-0.038-0.043-0.027-0.088-0.052-0.135-0.078-0.113-0.058-0.215-0.135-0.325-0.198-0.075-0.043-0.158-0.067-0.227-0.122-0.082-0.063-0.15-0.125-0.238-0.183-0.172-0.11-0.315-0.247-0.5-0.33-0.143-0.065-0.258-0.175-0.4-0.233-0.148-0.060-0.3-0.093-0.445-0.148-0.133-0.050-0.27-0.090-0.412-0.117-0.15-0.030-0.295-0.035-0.438-0.085-0.023-0.108 0.11-0.215 0.12-0.32v-0.2c0-0.078 0.018-0.108 0.040-0.177 0.063-0.177 0.020-0.38 0.047-0.558 0.015-0.090 0.050-0.185 0.075-0.275 0.023-0.073 0.037-0.238 0.13-0.247 0.085 0.075 0.195 0.075 0.305 0.117 0.123 0.047 0.238 0.073 0.367 0.095 0.053 0.010 0.090 0.035 0.14 0.052 0.082 0.035 0.175 0.025 0.26 0.035 0.080 0.012 0.16 0.030 0.227 0.070 0.055 0.035 0.085 0.058 0.143 0.070 0.217 0.043 0.425 0.122 0.652 0.117 0.107 0 0.19 0.032 0.295 0.030h0.283c0.232 0 0.457 0.032 0.682 0.060 0.050 0.008 0.095 0.035 0.143 0.047 0.070 0.025 0.15 0.017 0.217 0.043 0.12 0.045 0.045 0.102 0.037 0.195zM17.815 26.183c-0.045 0.090-0.030 0.14-0.045 0.233-0.023 0.122-0.113 0.223-0.117 0.35 0 0.105 0 0.21 0 0.317v0.165c0 0.085-0.023 0.157-0.032 0.242-0.015 0.145 0.005 0.282-0.027 0.425-0.030 0.13-0.035 0.26-0.082 0.39-0.027 0.078-0.085 0.133-0.11 0.21-0.027 0.090-0.010 0.177-0.012 0.27-0.005 0.11-0.050 0.218-0.063 0.325-0.010 0.073-0.023 0.145-0.032 0.218-0.047 0.030-0.17-0.122-0.2-0.163-0.040-0.050-0.070-0.055-0.117-0.087-0.052-0.035-0.093-0.082-0.15-0.113-0.085-0.045-0.188-0.070-0.265-0.122-0.032-0.023-0.052-0.055-0.085-0.078-0.032-0.010-0.060-0.023-0.093-0.035-0.030-0.017-0.055-0.038-0.080-0.060-0.1-0.060-0.2-0.102-0.3-0.17-0.043-0.030-0.072-0.070-0.115-0.098-0.037-0.027-0.098-0.023-0.13-0.055-0.027-0.027-0.037-0.075-0.060-0.108-0.033-0.047-0.082-0.063-0.115-0.102-0.045-0.058-0.045-0.172-0.055-0.245-0.020-0.155-0.15-0.23-0.2-0.378-0.015-0.043-0.012-0.093-0.027-0.135-0.020-0.055-0.035-0.058-0.070-0.102-0.023-0.027-0.043-0.058-0.057-0.090-0.027-0.045-0.018-0.073-0.035-0.117-0.012-0.035-0.063-0.063-0.085-0.095-0.030-0.040-0.060-0.098-0.082-0.145-0.027-0.058-0.037-0.125-0.070-0.183-0.030-0.052-0.085-0.067-0.117-0.113-0.025-0.035-0.018-0.058-0.035-0.095-0.045-0.087-0.162-0.168-0.232-0.238-0.060-0.063-0.135-0.117-0.207-0.17-0.023-0.017-0.095-0.040-0.11-0.060-0.035-0.047 0.030-0.152 0.047-0.188 0.053-0.11 0.085-0.218 0.125-0.33 0.018-0.045 0.035-0.093 0.055-0.135 0.043-0.102 0.088-0.207 0.095-0.317 0.010-0.14-0.012-0.262 0.027-0.398 0.030-0.102 0.085-0.215 0.090-0.317v-0.067c0.005-0.155 0-0.313 0-0.462s-0.035-0.367 0.008-0.52c0.015-0.058 0.018-0.128 0.043-0.185 0.053-0.115 0.213-0.047 0.32-0.023 0.155 0.035 0.313 0.078 0.465 0.102 0.085 0.015 0.158 0.040 0.24 0.060 0.045 0.012 0.088-0.005 0.13 0.005 0.060 0.010 0.107 0.040 0.155 0.065 0.063 0.035 0.13 0.052 0.2 0.075 0.073 0.023 0.085 0.055 0.137 0.093 0.117 0.080 0.267 0.11 0.37 0.22 0.040 0.043 0.035 0.058 0.085 0.082 0.032 0 0.058 0.008 0.085 0.025 0.030 0.025 0.050 0.052 0.065 0.087 0.035 0.040 0.052 0.047 0.095 0.078 0.075 0.055 0.1 0.117 0.142 0.195 0 0 0 0.005 0.005 0.008 0.060 0.11 0.135 0.2 0.18 0.323 0.043 0.125 0.128 0.227 0.175 0.348 0.020 0.050 0.015 0.1 0.032 0.148 0.020 0.063 0.070 0.12 0.093 0.185 0.017 0.052 0.040 0.108 0.067 0.157 0.085 0.17 0.203 0.348 0.308 0.633-0.090 0.005-0.185 0.195-0.223 0.265zM18.005 23.885c-0.073-0.080-0.172-0.122-0.242-0.212-0.075-0.098-0.113-0.18-0.21-0.258-0.087-0.070-0.148-0.163-0.233-0.233-0.122-0.102-0.285-0.142-0.43-0.203-0.28-0.122-0.563-0.238-0.84-0.363-0.232-0.102-0.457-0.28-0.705-0.317-0.27-0.038-0.537-0.093-0.803-0.177-0.165-0.052-0.332-0.105-0.5-0.155 0.027 0.005 0.053 0.008 0.080 0.012 0.085 0.015 0.17 0.038 0.255 0.050 0.057 0.005 0.115 0.012 0.175 0.020 0.065 0.015 0.13 0.035 0.195 0.063 0.133 0.045 0.273 0.065 0.405 0.11 0.092 0.032 0.18 0.075 0.28 0.095 0.17 0.035 0.335 0.082 0.5 0.137 0.090 0.032 0.177 0.067 0.267 0.098 0.135 0.043 0.275 0.078 0.413 0.117 0.198 0.060 0.395 0.108 0.58 0.2 0.055 0.030 0.102 0.070 0.163 0.095 0.067 0.030 0.13 0.058 0.198 0.093 0.098 0.047 0.195 0.067 0.297 0.108 0.047 0.020 0.1 0.047 0.148 0.075 0.030 0.017 0.045 0.035 0.070 0.058 0.030 0.030 0.058 0.027 0.093 0.047 0.020 0.012 0.035 0.035 0.052 0.047 0.025 0.020 0.060 0.027 0.080 0.055 0.030 0.043 0.008 0.128 0.065 0.157 0.043 0.023 0.142-0.035 0.18-0.058 0.055-0.032 0.113-0.035 0.172-0.058 0.040-0.017 0.078-0.043 0.12-0.052 0.035-0.010 0.065-0.005 0.098-0.020 0.025-0.015 0.043-0.025 0.073-0.035 0.025-0.010 0.047-0.023 0.075-0.030 0.025-0.010 0.047-0.005 0.073-0.012 0-0.025-0.012-0.055-0.015-0.082-0.005-0.063-0.017-0.125-0.035-0.188-0.017-0.060-0.043-0.12-0.052-0.183-0.008-0.060-0.010-0.122-0.025-0.185-0.020-0.080-0.050-0.155-0.063-0.238-0.017-0.108-0.012-0.207-0.015-0.313 0-0.060-0.025-0.11-0.030-0.17-0.005-0.052 0-0.108 0-0.163v-0.3c0-0.082-0.008-0.15-0.032-0.227-0.015-0.043-0.015-0.105-0.067-0.105-0.060 0-0.125 0.052-0.177 0.078-0.050 0.023-0.122 0.027-0.177 0.038-0.11 0.023-0.227 0.025-0.337 0.030-0.13 0.008-0.253 0.055-0.387 0.060-0.090 0-0.18 0-0.27 0-0.13 0.005-0.262 0.027-0.392 0.050-0.212 0.040-0.425 0.082-0.64 0.082h-2.537c-0.188 0-0.408 0.032-0.588-0.043-0.023 0.052-0.015 0.13-0.023 0.188-0.005 0.035-0.012 0.070-0.015 0.108-0.148-0.025-0.295-0.045-0.44-0.075v-0.258s0.008-0.025-0.005-0.035-0.060 0-0.075 0h-0.252c-0.185 0-0.377 0.012-0.563-0.017-0.092-0.015-0.185-0.025-0.277-0.040-0.107-0.017-0.203-0.060-0.31-0.073-0.145-0.017-0.287-0.032-0.432-0.055-0.088-0.015-0.17-0.038-0.252-0.052-0.072-0.015-0.145-0.025-0.215-0.047s-0.125-0.055-0.197-0.065c-0.050-0.008-0.095-0.023-0.143-0.043-0.055-0.023-0.11-0.043-0.17-0.063-0.065-0.023-0.13-0.043-0.193-0.073-0.005 0-0.012-0.008-0.018-0.010 0.008 0.027 0.012 0.058 0.015 0.075 0.010 0.055-0.018 0.102 0.045 0.133 0.035 0.017 0.078 0.025 0.115 0.035 0.080 0.027 0.165 0.045 0.245 0.073 0.043 0.015 0.085 0.035 0.127 0.047 0.070 0.025 0.152 0.027 0.227 0.035 0.085 0.010 0.178 0.032 0.258 0.055 0.035 0.012 0.065 0.035 0.1 0.045 0.045 0.017 0.098 0.025 0.145 0.035 0.1 0.020 0.2 0.032 0.3 0.058 0.082 0.020 0.172 0.038 0.255 0.047 0.037 0.005 0.075 0 0.113 0.010 0.033 0.008 0.065 0.023 0.098 0.030 0.065 0.020 0.127 0.040 0.193 0.063-0.043-0.008-0.085-0.010-0.127-0.020-0.33-0.067-0.66-0.032-0.988-0.102-0.45-0.095-0.795-0.285-1.203-0.473-0.23-0.108-0.463-0.188-0.688-0.31-0.005 0-0.008-0.005-0.010-0.008-0.008-0.052 0-0.113 0-0.163s0-0.067-0.055-0.082c-0.063-0.015-0.127 0-0.19-0.015-0.145-0.035-0.273-0.128-0.412-0.18-0.078-0.030-0.143-0.067-0.217-0.102-0.082-0.038-0.168-0.070-0.25-0.108-0.103-0.047-0.207-0.085-0.313-0.13-0.115-0.050-0.228-0.113-0.348-0.16-0.090-0.035-0.178-0.065-0.265-0.105s-0.18-0.067-0.265-0.108c-0.197-0.1-0.393-0.215-0.6-0.302-0.072-0.032-0.133-0.070-0.2-0.108-0.053-0.030-0.11-0.050-0.165-0.078-0.053-0.027-0.067 0-0.075 0.035-0.075-0.047-0.15-0.095-0.225-0.148-0.245-0.168-0.522-0.285-0.758-0.46-0.063-0.045-0.117-0.095-0.183-0.135-0.045-0.040-0.103-0.075-0.15-0.11-0.133-0.102-0.258-0.23-0.362-0.363-0.035-0.045-0.080-0.080-0.123-0.117-0.030-0.027-0.053-0.058-0.085-0.085-0.042-0.038-0.092-0.070-0.132-0.113-0.053-0.052-0.107-0.108-0.16-0.163-0.083-0.080-0.172-0.148-0.257-0.223-0.070-0.060-0.13-0.125-0.198-0.185-0.083-0.073-0.15-0.157-0.235-0.227-0.040-0.035-0.115-0.080-0.132-0.125 0.007 0.052 0.005 0.070-0.045 0.085-0.070 0.023-0.085 0.050-0.087 0.122v0.16c0 0.078 0.022 0.133 0.040 0.207 0.013 0.045 0.013 0.090 0.035 0.13 0.053 0.095 0.055 0.205 0.098 0.308 0.025 0.060 0.042 0.108 0.085 0.16 0.035 0.043 0.070 0.080 0.095 0.128 0.053 0.113 0.11 0.22 0.178 0.328 0.035 0.055 0.085 0.105 0.12 0.16 0.042 0.065 0.087 0.13 0.125 0.198 0.047 0.080 0.098 0.155 0.155 0.23 0.027 0.035 0.063 0.060 0.090 0.095 0.040 0.052 0.063 0.115 0.11 0.163 0.030 0.030 0.065 0.050 0.095 0.080 0.040 0.040 0.060 0.093 0.090 0.142 0.050 0.098 0.12 0.185 0.2 0.258 0.060 0.052 0.135 0.087 0.2 0.133 0 0.010 0.005 0.020 0.008 0.032 0.035 0.247 0.16 0.438 0.28 0.65 0.025 0.045 0.048 0.095 0.072 0.142-1.673-1.503-2.743-3.365-2.94-5.4 0.040 0.063 0.083 0.125 0.125 0.185 0.090 0.117 0.17 0.232 0.25 0.357 0.095 0.143 0.217 0.265 0.342 0.38 0.038 0.035 0.072 0.082 0.11 0.115 0.040 0.035 0.095 0.055 0.135 0.093 0.067 0.063 0.118 0.13 0.192 0.188 0.050 0.038 0.078 0.082 0.112 0.13 0.090 0.117 0.223 0.157 0.32 0.262 0.063 0.065 0.1 0.142 0.152 0.215 0.050 0.073 0.115 0.125 0.175 0.192 0.038 0.043 0.053 0.087 0.1 0.122 0.053 0.040 0.118 0.073 0.175 0.113 0.098 0.073 0.167 0.188 0.268 0.253 0.070 0.043 0.173 0.050 0.25 0.078 0.093 0.035 0.178 0.080 0.253 0.137 0.105 0.075 0.213 0.135 0.313 0.215 0.122 0.098 0.25 0.192 0.383 0.28 0.145 0.095 0.268 0.227 0.402 0.332 0.060 0.047 0.11 0.043 0.183 0.063 0.095 0.025 0.17 0.090 0.255 0.13s0.178 0.052 0.253 0.108c0.070 0.047 0.117 0.090 0.197 0.12 0.065 0.027 0.13 0.063 0.195 0.087 0.048 0.017 0.1 0.015 0.147 0.032 0.107 0.038 0.19 0.12 0.29 0.17 0.11 0.052 0.232 0.063 0.34 0.115 0.082 0.040 0.152 0.108 0.237 0.14 0.063 0.027 0.125 0.045 0.188 0.073 0.128 0.055 0.263 0.085 0.39 0.14 0.148 0.063 0.287 0.152 0.44 0.183 0.082 0.017 0.14 0.023 0.207 0.058 0.102 0.050 0.213 0.063 0.32 0.090 0.072 0.017 0.13 0.063 0.195 0.098s0.14 0.082 0.215 0.1c0.070 0.015 0.137 0.010 0.207 0.025 0.162 0.038 0.297 0.117 0.453 0.175 0.047 0.017 0.1 0.032 0.148 0.055 0.070 0.035 0.123 0.090 0.197 0.115 0.088 0.032 0.18 0.040 0.268 0.073 0.050 0.020 0.107 0.047 0.16 0.063 0.060 0.015 0.12-0.005 0.18 0.010 0.037 0.010 0.070 0.035 0.107 0.047 0.090 0.027 0.2 0.063 0.295 0.065 0.11 0 0.225-0.008 0.335 0 0.162 0.008 0.32 0.032 0.488 0.032h1.93c0.465 0 0.932 0.012 1.395 0 0.153-0.005 0.3-0.030 0.455-0.030h0.3c0.25 0 0.505 0 0.758 0 0.198 0 0.392-0.047 0.578-0.108 0.11-0.035 0.22-0.060 0.33-0.093 0.15-0.040 0.31-0.043 0.462-0.067 0.198-0.032 0.4-0.108 0.602-0.117 0.21-0.015 0.378-0.152 0.57-0.23 0.18-0.073 0.38-0.093 0.565-0.14 0.113-0.032 0.23-0.065 0.34-0.102 0.095-0.030 0.183-0.065 0.282-0.090 0.070-0.017 0.14-0.030 0.205-0.058 0.047-0.023 0.078-0.060 0.122-0.085 0.035-0.020 0.080-0.027 0.117-0.047 0.052-0.030 0.108-0.058 0.165-0.078 0.098-0.030 0.177-0.058 0.267-0.105 0.108-0.052 0.19-0.135 0.313-0.155 0.125-0.020 0.235-0.065 0.35-0.125 0.047-0.025 0.078-0.047 0.128-0.058 0.058-0.015 0.117-0.020 0.177-0.035 0.148-0.038 0.27-0.115 0.41-0.17 0.18-0.067 0.335-0.177 0.512-0.253 0.155-0.067 0.32-0.117 0.473-0.18 0.198-0.080 0.375-0.188 0.57-0.267 0.247-0.102 0.48-0.225 0.712-0.352 0.137-0.075 0.28-0.152 0.42-0.22 0.055-0.027 0.067-0.050 0.108-0.087 0.035-0.035 0.090-0.050 0.122-0.090 0.030-0.032 0.040-0.073 0.070-0.102 0.032-0.038 0.073-0.065 0.108-0.102 0.038-0.040 0.045-0.085 0.075-0.128 0.020-0.030 0.060-0.060 0.085-0.090 0.063-0.073 0.1-0.152 0.16-0.223 0.087-0.1 0.168-0.195 0.242-0.308 0.055-0.090 0.13-0.145 0.19-0.227 0.060-0.085 0.142-0.137 0.207-0.22 0.035-0.045 0.070-0.060 0.117-0.090 0.052-0.032 0.070-0.070 0.108-0.113 0.040-0.045 0.108-0.050 0.148-0.087 0.025-0.023 0.035-0.055 0.052-0.082 0.080-0.107 0.16-0.182 0.218-0.305 0.040-0.088 0.108-0.133 0.155-0.217 0.030-0.053 0.055-0.113 0.075-0.172 0.015-0.045 0.017-0.107 0.045-0.148 0.030-0.045 0.095-0.080 0.133-0.123 0.047-0.057 0.080-0.105 0.090-0.178 0.008-0.045-0.005-0.057 0.027-0.102 0.023-0.030 0.045-0.057 0.065-0.088 0.050-0.072 0.115-0.133 0.175-0.197-0.043 4.66-4.635 8.548-10.752 9.493-0.023-0.043-0.045-0.085-0.080-0.12zM24.825 28.718c-0.102 0.045-0.205 0.093-0.308 0.14-0.27 0.12-0.54 0.223-0.817 0.335-0.063 0.027-0.13 0.030-0.195 0.052-0.040 0.015-0.078 0.043-0.117 0.055-0.063 0.023-0.125 0.005-0.188 0.020-0.052 0.015-0.108 0.027-0.16 0.040-0.135 0.035-0.273 0.063-0.405 0.108-0.122 0.040-0.25 0.1-0.378 0.128-0.067 0.015-0.135 0.020-0.203 0.035-0.14 0.027-0.258 0.075-0.402 0.060-0.12-0.012-0.238-0.030-0.358-0.032-0.177-0.005-0.36 0-0.535 0.045-0.15 0.040-2.295 0.262-2.45 0.258-0.098-0.005 0.128-0.025 0.067-0.122-0.035-0.055-0.008-0.11 0.015-0.17 0.045-0.13 0.087-0.253 0.125-0.385 0.045-0.145 0.18-0.233 0.233-0.372 0.025-0.067 0.027-0.145 0.052-0.215 0.030-0.082 0.065-0.142 0.075-0.227 0.010-0.098 0-0.2 0.020-0.295 0.030-0.152 0.078-0.295 0.122-0.442 0.023-0.073 0.065-0.14 0.078-0.215 0.010-0.052 0.113-0.227 0.090-0.273-0.060-0.135 0.108-0.145 0.078-0.288-0.012-0.058 0.025-0.117 0.035-0.177 0.010-0.047 0.023-0.105 0.012-0.155-0.035-0.2 0.235-0.020 0.32 0.010 0.155 0.052 0.345 0.098 0.508 0.115 0.073 0.008 0.142-0.015 0.215-0.008 0.108 0.008 0.207 0.038 0.317 0.035 0.203-0.010 0.415-0.035 0.613-0.067 0.090-0.015 0.17-0.047 0.258-0.063 0.085-0.015 0.177-0.010 0.26-0.038 0.085-0.032 0.16-0.085 0.247-0.11 0.067-0.023 0.13-0.035 0.195-0.060 0.102-0.038 0.21-0.038 0.305-0.070 0.227-0.078 0.455-0.203 1.012-0.552 0.010 0 0.017-0.005 0.025-0.008 0.070 0.063 0.105 0.218 0.142 0.302 0.052 0.117 0.108 0.235 0.16 0.352 0.098 0.215 0.172 0.462 0.308 0.65 0.125 0.177 0.288 0.335 0.385 0.527 0.093 0.177 0.165 0.367 0.25 0.55 0.032 0.073 0.065 0.145 0.098 0.218 0.023 0.045 0.090 0.142 0.090 0.188 0 0.060-0.142 0.095-0.192 0.117zM30.135 25.555c-0.030 0.035-0.063 0.075-0.098 0.108-0.040 0.043-0.080 0.055-0.122 0.095-0.030 0.027-0.043 0.067-0.075 0.095-0.035 0.030-0.085 0.045-0.12 0.078-0.060 0.047-0.122 0.102-0.177 0.157-0.043 0.045-0.090 0.087-0.142 0.128-0.085 0.067-0.175 0.145-0.262 0.205-0.163 0.108-0.332 0.192-0.492 0.3-0.102 0.067-0.21 0.128-0.308 0.203-0.12 0.095-0.247 0.188-0.383 0.258-0.122 0.065-0.253 0.11-0.378 0.177-0.108 0.055-0.205 0.12-0.315 0.172-0.067 0.035-0.142 0.055-0.207 0.1-0.177 0.117-0.38 0.195-0.575 0.285-0.078 0.035-0.155 0.067-0.23 0.105-0.070 0.032-0.175 0.102-0.25 0.108-0.030-0.038-0.043-0.087-0.063-0.133-0.027-0.058-0.065-0.1-0.1-0.152-0.060-0.098-0.093-0.212-0.142-0.315-0.032-0.063-0.082-0.11-0.113-0.177-0.052-0.108-0.090-0.227-0.15-0.33-0.070-0.117-0.128-0.22-0.185-0.345-0.035-0.080-0.085-0.135-0.125-0.207-0.075-0.13-0.108-0.29-0.198-0.407-0.115-0.15-0.192-0.372-0.262-0.55-0.027-0.063-0.035-0.14-0.017-0.21 0.015-0.063 0.040-0.060 0.085-0.095 0.040-0.027 0.070-0.067 0.108-0.1 0.105-0.085 0.212-0.165 0.313-0.25 0.115-0.098 0.235-0.177 0.36-0.258 0.050-0.035 0.078-0.080 0.117-0.122 0.058-0.058 0.135-0.082 0.2-0.128 0.105-0.075 0.192-0.172 0.297-0.247 0.21-0.155 0.348-0.383 0.552-0.54 0.168-0.13 0.3-0.293 0.462-0.427 0.113-0.093 0.238-0.168 0.358-0.25 0.080-0.055 0.148-0.125 0.227-0.183 0.142-0.108 0.285-0.203 0.41-0.33 0.085-0.082 0.145-0.195 0.245-0.262l0.39-0.177s0-0.017 0-0.025c0.005 0.008 0.010 0.012 0.015 0.017l-0.017 0.008c-0.020 0.073 0.008 0.15 0.023 0.218 0.017 0.087 0.005 0.165 0.043 0.247 0.058 0.122 0.142 0.262 0.177 0.395 0.020 0.073 0.027 0.128 0.060 0.198s0.063 0.14 0.095 0.21c0.035 0.075 0.038 0.14 0.063 0.215 0.020 0.063 0.058 0.125 0.085 0.185 0.082 0.183 0.165 0.365 0.247 0.547 0.080 0.177 0.148 0.365 0.258 0.52 0.075 0.108 0.14 0.215 0.212 0.32 0.065 0.093 0.133 0.308 0.267 0.32-0.032 0.087-0.1 0.188-0.16 0.26z"></path>
<path d="M23.203 21.61c-0.015-0.073-0.012-0.148-0.012-0.22 0-0.065 0.015-0.148 0-0.212-0.008-0.030-0.027-0.052-0.035-0.082-0.010-0.035-0.010-0.070-0.020-0.108-0.025-0.078-0.080-0.14-0.113-0.212-0.043-0.098-0.045-0.205-0.035-0.308 0.010-0.093 0.015-0.18 0.025-0.273 0.005-0.032 0.008-0.067 0.005-0.1-0.005-0.045-0.005-0.032-0.030-0.027-0.032 0.008-0.060 0.025-0.090 0.035-0.105 0.043-0.215 0.058-0.323 0.087-0.055 0.015-0.102 0.047-0.157 0.063-0.113 0.030-0.238 0.043-0.348 0.082-0.035 0.012-0.067 0.030-0.108 0.040-0.052 0.017-0.108 0.020-0.16 0.040-0.067 0.025-0.125 0.055-0.198 0.073-0.063 0.015-0.122 0.025-0.185 0.043-0.115 0.032-0.233 0.058-0.35 0.087-0.105 0.027-0.198 0.078-0.302 0.108-0.073 0.017-0.14 0.038-0.207 0.065-0.073 0.027-0.145 0.060-0.22 0.078-0.025 0.005-0.050 0-0.075 0.010-0.080 0.020-0.155 0.060-0.233 0.087-0.058 0.023-0.12 0.030-0.177 0.058-0.030 0.015-0.045 0.020-0.075 0.027-0.070 0.020-0.13 0.055-0.195 0.087-0.032 0.015-0.040 0.005-0.043 0.047 0 0.065-0.008 0.137 0.015 0.198 0.020 0.055 0.023 0.12 0.035 0.177 0.012 0.070 0.020 0.14 0.035 0.21 0.015 0.055 0.027 0.113 0.032 0.172 0.008 0.070 0.030 0.133 0.030 0.203 0 0.080 0 0.16 0 0.24 0 0.108 0.030 0.21 0.040 0.315 0.012 0.102 0.035 0.203 0.045 0.308 0.008 0.078-0.010 0.157 0.020 0.23 0.21 0.015 0.365 0.027 0.515 0 0.15-0.025 0.295-0.102 0.433-0.163 0.090-0.040 0.177-0.085 0.262-0.128 0.137-0.067 0.285-0.128 0.433-0.177 0.15-0.047 0.29-0.095 0.427-0.17 0.087-0.045 0.175-0.095 0.26-0.14 0.172-0.090 0.35-0.155 0.527-0.235 0.117-0.055 0.235-0.128 0.345-0.2 0.035-0.025 0.067-0.047 0.108-0.063 0.030-0.012 0.065-0.023 0.098-0.032 0.047-0.017 0.025-0.005 0.035-0.035 0.015-0.043-0.008-0.1-0.015-0.142-0.010-0.045-0.010-0.095-0.020-0.142z"></path>
<path d="M25.758 19.983c-0.008-0.045-0.010-0.087-0.012-0.133 0-0.075-0.017-0.145-0.015-0.22v-0.433c0-0.080-0.012-0.155-0.040-0.23-0.017-0.045-0.035-0.093-0.052-0.137s-0.027-0.11-0.055-0.155c-0.035 0.008-0.058 0.043-0.085 0.063-0.027 0.017-0.052 0.035-0.082 0.050-0.052 0.032-0.105 0.073-0.155 0.108-0.105 0.073-0.21 0.133-0.32 0.195-0.070 0.038-0.13 0.080-0.207 0.1-0.080 0.023-0.15 0.073-0.225 0.1-0.060 0.023-0.122 0.055-0.177 0.093-0.075 0.050-0.148 0.090-0.227 0.13-0.070 0.035-0.137 0.078-0.207 0.113-0.050 0.027-0.095 0.070-0.15 0.090-0.035 0.012-0.063 0.027-0.098 0.038-0.017 0.008-0.058 0.005-0.063 0.025-0.005 0.015 0.023 0.047 0.027 0.060 0.012 0.027 0.017 0.050 0.032 0.075 0.020 0.030 0.047 0.052 0.058 0.090s0 0.078 0 0.11c0 0.038 0.015 0.067 0.015 0.108 0 0.038 0 0.080 0 0.117 0 0.137 0.030 0.267 0.030 0.405s-0.008 0.275 0 0.413c0.010 0.12 0.023 0.242 0.008 0.36 0 0.032-0.038 0.163 0.020 0.172l0.177-0.163c-0.008 0.025-0.005 0.045 0.012 0.063 0.060-0.010 0.1-0.035 0.15-0.070 0.128-0.095 0.26-0.183 0.39-0.282 0.052-0.043 0.113-0.080 0.17-0.117 0.060-0.040 0.115-0.087 0.175-0.133 0.052-0.043 0.093-0.102 0.148-0.14 0.090-0.060 0.183-0.1 0.26-0.177 0.098-0.102 0.192-0.2 0.282-0.31 0.050-0.060 0.102-0.163 0.175-0.2 0.032-0.017 0.063-0.015 0.058-0.058 0-0.015-0.012-0.027-0.015-0.040-0.005-0.025 0-0.047 0-0.075z"></path>
<path d="M26.523 19.465c0.043-0.032 0.073-0.093 0.102-0.135 0.040-0.060 0.073-0.122 0.108-0.188 0.043-0.085 0.070-0.175 0.108-0.258 0.025-0.058 0.063-0.108 0.098-0.163 0.050-0.080 0.098-0.16 0.128-0.25 0.023-0.058 0.027-0.12 0.055-0.177 0.032-0.065 0.070-0.128 0.102-0.195s0.060-0.135 0.095-0.2c0.040-0.080 0.078-0.155 0.108-0.238 0.030-0.087 0.058-0.172 0.1-0.253 0.032-0.065 0.082-0.128 0.1-0.198 0.012-0.045 0-0.045-0.027-0.040-0.070 0.012-0.115 0.050-0.163 0.1-0.020 0.023-0.038 0.027-0.058 0.045-0.017 0.017-0.020 0.035-0.038 0.050-0.035 0.030-0.063 0.047-0.095 0.085-0.038 0.045-0.070 0.090-0.12 0.125-0.040 0.030-0.058 0.045-0.095 0.080-0.030 0.030-0.065 0.045-0.098 0.073-0.045 0.043-0.082 0.085-0.135 0.12-0.047 0.032-0.105 0.055-0.155 0.085-0.11 0.065-0.218 0.135-0.325 0.203-0.070 0.045-0.137 0.090-0.212 0.122-0.050 0.023-0.095 0-0.148 0.015-0.010 0.035 0.015 0.082 0.025 0.113 0.038 0.117 0.065 0.238 0.075 0.363 0.008 0.082 0.012 0.163 0.040 0.242 0.023 0.065 0.063 0.12 0.082 0.188 0.025 0.090 0.017 0.188 0.017 0.28 0 0.045 0.005 0.095 0 0.14 0.015 0.067 0.058 0.070 0.093 0.052s0.065-0.040 0.098-0.065c0.027-0.020 0.047-0.043 0.073-0.065s0.047-0.035 0.075-0.052z"></path>
<path d="M9.66 20.802c0 0.027 0.030 0.047 0.055 0.060-0.010-0.035-0.027-0.065-0.055-0.060z"></path>
</svg>
