<!-- Generated by IcoMoon.io -->
<svg version="1.1" xmlns="http://www.w3.org/2000/svg" width="32" height="32" viewBox="0 0 32 32">
<path d="M20.188 12.345h0.313c-0.102 0-0.21 0-0.313 0z"></path>
<path d="M21.258 12.345h-0.753c0.073 0 0.142 0.023 0.212 0.045h0.015c0.177-0.008 0.348-0.050 0.525-0.045z"></path>
<path d="M26.648 17.055c-0.065-0.012-0.117 0.023-0.18 0.035-0.14 0.030-0.282 0.035-0.425 0.065-0.115 0.025-0.233 0.060-0.348 0.078-0.1 0.015-0.19 0.012-0.285 0.052-0.185 0.078-0.367 0.152-0.558 0.215-0.093 0.030-0.185 0.058-0.277 0.087-0.078 0.025-0.15 0.020-0.225 0.040-0.302 0.080-0.585 0.238-0.89 0.305-0.093 0.020-0.168 0.030-0.26 0.030-0.085 0-0.1 0.017-0.113 0.12-0.017 0.142 0.032 0.302 0 0.44-0.035 0.010-0.070 0-0.108 0-0.058 0-0.093 0.023-0.152 0.035-0.1 0.023-0.207 0.043-0.308 0.052-0.28 0.030-0.565 0.098-0.835 0.2-0.11 0.040-0.22 0.085-0.332 0.128 0.017-0.157 0.030-0.315 0.030-0.475 0-0.198-0.012-0.4 0-0.593 0.017-0.238 0.1-0.468 0.133-0.705 0.027-0.195 0.075-0.392 0.073-0.585 0-0.177-0.008-0.358 0-0.535 0.010-0.365 0.128-0.715 0.125-1.080 0-0.258 0.010-0.52 0-0.775-0.005-0.123-0.040-0.235-0.043-0.357 0-0.123 0-0.245 0-0.367 0-0.188 0.040-0.422-0.038-0.595-0.055-0.12-0.165-0.252-0.288-0.295-0.133-0.047-0.28-0.037-0.415-0.092-0.073-0.030-0.142-0.060-0.215-0.088-0.137 0.005-0.277 0-0.41 0-0.093 0-0.19-0.005-0.285 0v-0.275c0-0.137-0.020-0.31-0.008-0.46 0.025-0.010 0.050-0.018 0.073-0.027 0.093-0.040 0.177-0.088 0.267-0.13 0.087-0.015 0.172-0.030 0.26-0.053 0.125-0.035 0.3-0.068 0.415-0.143 0.090-0.057 0.14-0.195 0.207-0.277 0.085-0.107 0.205-0.168 0.285-0.268 0.070-0.082 0.14-0.14 0.212-0.215 0.082-0.088 0.085-0.205 0.15-0.297 0.030-0.045 0.075-0.078 0.102-0.123 0.030-0.047 0.052-0.115 0.085-0.165 0.023-0.033 0.038-0.072 0.058-0.107 0.058-0.040 0.122-0.078 0.177-0.117 0.15-0.113 0.295-0.23 0.422-0.373 0.285-0.318 0.558-0.645 0.73-1.063 0.025-0.057 0.025-0.12 0.047-0.175 0.038-0.092 0.1-0.17 0.148-0.26 0.11-0.218 0.23-0.455 0.317-0.688 0.225-0.593 0.31-1.225 0.247-1.875-0.030-0.295-0.12-0.577-0.22-0.85-0.052-0.145-0.113-0.285-0.163-0.43-0.055-0.16-0.093-0.343-0.157-0.498-0.058-0.138-0.14-0.232-0.215-0.35s-0.090-0.2-0.145-0.315c-0.052-0.105-0.125-0.16-0.2-0.24-0.133-0.143-0.212-0.322-0.337-0.468-0.16-0.188-0.33-0.365-0.488-0.555-0.115-0.14-0.275-0.225-0.415-0.328-0.225-0.157-0.505-0.183-0.758-0.25-0.155-0.042-0.315-0.068-0.475-0.085-0.082-0.032-0.16-0.068-0.242-0.095-0.195-0.070-0.415-0.167-0.62-0.193-0.203-0.022-0.415 0-0.617 0h-0.31c-0.055 0-0.152-0.017-0.215-0.005-0.067 0.012-0.117 0.068-0.185 0.085-0.098 0.027-0.168 0.005-0.267 0.045-0.148 0.063-0.277 0.135-0.418 0.213-0.108 0.060-0.225 0.083-0.332 0.135-0.075 0.038-0.152 0.13-0.215 0.185-0.055 0.048-0.065 0.103-0.113 0.155-0.025 0.028-0.055 0.035-0.078 0.058-0.047 0.050-0.080 0.12-0.113 0.185-0.055 0.050-0.108 0.107-0.163 0.153s-0.115 0.083-0.17 0.127c-0.055 0.047-0.11 0.135-0.17 0.167-0.058 0.030-0.128 0.040-0.188 0.075-0.105 0.060-0.145 0.172-0.235 0.24-0.030 0.025-0.068 0.033-0.102 0.038h-0.095c-0.018 0-0.035 0-0.053 0s-0.035 0-0.053 0h-0.095c-0.035-0.005-0.072-0.015-0.102-0.038-0.092-0.067-0.13-0.18-0.238-0.24-0.060-0.033-0.13-0.042-0.188-0.075-0.063-0.033-0.115-0.12-0.17-0.167-0.055-0.045-0.113-0.083-0.17-0.127-0.055-0.045-0.107-0.105-0.162-0.153-0.033-0.065-0.065-0.135-0.113-0.185-0.023-0.022-0.053-0.030-0.078-0.058-0.047-0.052-0.057-0.107-0.113-0.155-0.065-0.055-0.143-0.15-0.215-0.185-0.105-0.055-0.225-0.075-0.332-0.135-0.14-0.080-0.273-0.15-0.42-0.213-0.095-0.040-0.165-0.022-0.265-0.045-0.068-0.017-0.117-0.073-0.185-0.085-0.060-0.012-0.158 0.005-0.215 0.005h-0.31c-0.203 0-0.415-0.022-0.617 0-0.205 0.022-0.425 0.122-0.62 0.193-0.082 0.030-0.162 0.063-0.242 0.095-0.16 0.017-0.32 0.040-0.475 0.085-0.252 0.067-0.53 0.093-0.758 0.25-0.143 0.1-0.3 0.188-0.415 0.328-0.158 0.19-0.325 0.367-0.488 0.555-0.127 0.147-0.205 0.33-0.338 0.467-0.075 0.080-0.15 0.135-0.2 0.24-0.055 0.115-0.070 0.197-0.145 0.315-0.077 0.12-0.155 0.215-0.215 0.35-0.067 0.155-0.103 0.337-0.157 0.497-0.050 0.145-0.11 0.285-0.162 0.43-0.098 0.275-0.192 0.555-0.22 0.85-0.063 0.645 0.022 1.277 0.247 1.875 0.090 0.232 0.207 0.465 0.317 0.688 0.045 0.088 0.107 0.165 0.147 0.26 0.022 0.055 0.025 0.117 0.048 0.175 0.172 0.415 0.445 0.745 0.73 1.063 0.127 0.143 0.277 0.26 0.422 0.373 0.055 0.040 0.117 0.078 0.178 0.117 0.020 0.035 0.033 0.072 0.057 0.107 0.030 0.050 0.053 0.115 0.085 0.165 0.030 0.047 0.072 0.078 0.102 0.123 0.065 0.092 0.068 0.213 0.15 0.297 0.072 0.075 0.143 0.133 0.213 0.215 0.082 0.098 0.2 0.158 0.285 0.268 0.065 0.085 0.117 0.22 0.207 0.277 0.115 0.075 0.29 0.105 0.415 0.143 0.088 0.025 0.172 0.040 0.26 0.053 0.090 0.045 0.175 0.092 0.268 0.13 0.023 0.010 0.047 0.018 0.072 0.027 0.012 0.15-0.008 0.32-0.008 0.46v0.33c0 0.030 0 0.055-0.008 0.080-0.155 0-0.313 0.005-0.467 0-0.098-0.005-0.115-0.005-0.155 0.102-0.057 0.148-0.078 0.32-0.123 0.47-0.105 0.35-0.175 0.675-0.175 1.043 0 0.070 0.005 0.143 0.008 0.215-0.215-0.088-0.422-0.203-0.64-0.295-0.217-0.095-0.422-0.245-0.65-0.315-0.235-0.075-0.44-0.098-0.66-0.227-0.188-0.11-0.395-0.148-0.595-0.215-0.192-0.068-0.395-0.098-0.582-0.172-0.245-0.095-0.537-0.085-0.803-0.14-0.138-0.030-0.265-0.080-0.393-0.125-0.2-0.135-0.405-0.268-0.625-0.352-0.067 0.047-0.035 0.223-0.035 0.293v0.367c0 0.217 0.008 0.435-0.020 0.65-0.053 0.43-0.020 0.883-0.020 1.317v0.627c0 0.278 0.037 0.55 0.037 0.83 0 0.188 0 0.36 0.030 0.543 0.032 0.225 0.008 0.475 0.008 0.705 0 0.313 0.030 0.64-0.048 0.94-0.063 0.245-0.147 0.5-0.145 0.755 0 0.267-0.035 0.525-0.035 0.793 0 0.073-0.018 0.177 0.027 0.238 0.080 0.113 0.215 0.032 0.275-0.063 0.098-0.168 0.195-0.207 0.357-0.28 0.263-0.12 0.513-0.28 0.782-0.38 0.303-0.108 0.61-0.212 0.915-0.317 0.34-0.12 0.68-0.242 1.018-0.365 0.242-0.087 0.488-0.16 0.73-0.25 0.178-0.067 0.338-0.175 0.515-0.235 0.145-0.047 0.26-0.168 0.402-0.225 0.078-0.030 0.152-0.067 0.225-0.102v0.367c0 0.207-0.030 0.435 0.040 0.63 0.040 0.11 0.035 0.188 0.040 0.305 0 0.102 0.030 0.192 0.053 0.29 0.037 0.16 0.072 0.352 0.072 0.523 0 0.085-0.043 0.345 0.033 0.4 0.082 0.060 0.285 0.008 0.383 0.008h2.857c0 0.063 0 0.122 0 0.183 0 0.067-0.010 0.142-0.005 0.212 0.010 0.122 0.072 0.233 0.085 0.355 0 0.038 0 0.078 0 0.113-0.040-0.010-0.085-0.017-0.137-0.017 0.057 0.015 0.1 0.030 0.135 0.047 0 0.050-0.005 0.1 0.008 0.152 0.010 0.043 0.020 0.087 0.030 0.13-0.023 0.043-0.047 0.090-0.065 0.135-0.030 0.082-0.090 0.152-0.162 0.223-0.057 0.052-0.148 0.095-0.195 0.152-0.040 0.045-0.055 0.105-0.080 0.155-0.037 0.080-0.1 0.125-0.17 0.198-0.088 0.087-0.16 0.18-0.235 0.273l-0.245 0.098c-0.080 0.038-0.047 0.102 0.023 0.172-0.193 0.215-0.4 0.425-0.568 0.648-0.090 0.117-0.205 0.227-0.29 0.345-0.068 0.093-0.113 0.192-0.172 0.285-0.125 0.192-0.252 0.383-0.363 0.578-0.053 0.093-0.085 0.195-0.168 0.277-0.085 0.085-0.165 0.155-0.22 0.25-0.127 0.215-0.265 0.438-0.422 0.645-0.090 0.115-0.188 0.215-0.25 0.337-0.055 0.102-0.102 0.195-0.178 0.29-0.095 0.125-0.115 0.25-0.168 0.383-0.043 0.102-0.090 0.207-0.15 0.305-0.090 0.15-0.127 0.277-0.15 0.435-0.025 0.165-0.123 0.313-0.22 0.462 0.075-0.082 0.152-0.163 0.24-0.24 0.345-0.295 0.65-0.61 1.020-0.892 0.152-0.117 0.268-0.258 0.41-0.383 0.055-0.047 0.107-0.093 0.155-0.148 0.098-0.102 0.235-0.195 0.313-0.305 0.090-0.128 0.227-0.233 0.313-0.36 0.080-0.122 0.2-0.233 0.27-0.36 0.098-0.183 0.203-0.358 0.355-0.523 0.078-0.085 0.12-0.175 0.162-0.267 0.060-0.13 0.172-0.242 0.265-0.365 0.127-0.172 0.24-0.352 0.377-0.523 0.040-0.050 0.092-0.098 0.145-0.145 0.023 0.038 0.047 0.078 0.088 0.11 0.102 0.093 0.252 0.192 0.387 0.265 0.162 0.087 0.325 0.148 0.447 0.27 0.135 0.137 0.19 0.297 0.313 0.438 0.125 0.145 0.287 0.273 0.408 0.418 0.085 0.105 0.178 0.205 0.277 0.3-0.123 0.15-0.262 0.29-0.357 0.45-0.113 0.183-0.252 0.337-0.385 0.512-0.088 0.115-0.188 0.22-0.277 0.335-0.148 0.183-0.265 0.352-0.445 0.517-0.17 0.155-0.315 0.33-0.463 0.5-0.11 0.128-0.242 0.24-0.355 0.365-0.215 0.233-0.377 0.5-0.575 0.742-0.098 0.122-0.255 0.22-0.375 0.33-0.172 0.155-0.332 0.32-0.48 0.49-0.11 0.128-0.197 0.275-0.338 0.38-0.107 0.080-0.215 0.163-0.325 0.242-0.168 0.122-0.37 0.238-0.57 0.32 0.365 0.215 0.387 0.152 0.445 0.11 0.033-0.012 0.065-0.030 0.095-0.047 0.045-0.043 0.088-0.090 0.123-0.137 0.095-0.113 0.205-0.215 0.297-0.33 0.085-0.102 0.155-0.207 0.235-0.313 0.055-0.075 0.137-0.1 0.207-0.163 0.065-0.073 0.12-0.145 0.172-0.223 0.055-0.065 0.117-0.128 0.185-0.185 0.152-0.152 0.27-0.33 0.4-0.495 0.117-0.15 0.307-0.22 0.435-0.36 0.12-0.133 0.258-0.255 0.402-0.365 0.055-0.038 0.113-0.078 0.168-0.117 0.050-0.063 0.095-0.13 0.135-0.2 0.102-0.135 0.252-0.24 0.387-0.35 0.227-0.188 0.425-0.4 0.635-0.602 0.2-0.192 0.338-0.4 0.56-0.578 0.098-0.078 0.165-0.188 0.268-0.26 0.088-0.063 0.155-0.122 0.225-0.192 0.093 0.087 0.165 0.175 0.245 0.277 0.115 0.15 0.25 0.27 0.4 0.4 0.212 0.185 0.355 0.4 0.582 0.578 0.108 0.085 0.24 0.148 0.337 0.238 0.087 0.082 0.152 0.168 0.245 0.245 0.152 0.128 0.277 0.275 0.427 0.402 0.152 0.135 0.288 0.288 0.422 0.427 0.060 0.063 0.155 0.098 0.223 0.152 0.047 0.038 0.075 0.080 0.11 0.122 0.047 0.055 0.12 0.093 0.17 0.145 0.017 0.030 0.038 0.060 0.063 0.090 0.035 0.025 0.073 0.045 0.105 0.070 0.165 0.155 0.215 0.343 0.427 0.475 0.102 0.065 0.152 0.145 0.225 0.22 0.090 0.093 0.19 0.185 0.285 0.275 0.11 0.102 0.24 0.212 0.385 0.29 0.093 0.050 0.203 0.098 0.275 0.165 0.030 0.027 0.038 0.067 0.1 0.050 0.085-0.163-0.090-0.358-0.225-0.475-0.215-0.188-0.31-0.42-0.517-0.608-0.23-0.21-0.485-0.41-0.703-0.628-0.11-0.11-0.215-0.218-0.343-0.323-0.12-0.095-0.185-0.188-0.28-0.295-0.11-0.125-0.205-0.238-0.277-0.378-0.078-0.152-0.212-0.267-0.348-0.392-0.24-0.215-0.453-0.453-0.675-0.675-0.105-0.105-0.23-0.203-0.337-0.308-0.095-0.095-0.175-0.198-0.277-0.29-0.22-0.198-0.34-0.413-0.51-0.633-0.023-0.030-0.045-0.058-0.067-0.087 0.073-0.078 0.14-0.152 0.2-0.238 0.070-0.075 0.148-0.142 0.23-0.205 0.117-0.11 0.19-0.242 0.325-0.343 0.137-0.1 0.273-0.195 0.4-0.305 0.172-0.15 0.407-0.218 0.49-0.433 0.015-0.035 0.030-0.108 0.020-0.15-0.015-0.040-0.055-0.060-0.073-0.098-0.008-0.047-0.012-0.095-0.017-0.142-0.012-0.025-0.023-0.050-0.030-0.075-0.017-0.098 0-0.152-0.063-0.247-0.058-0.087-0.078-0.133-0.093-0.225 0.040 0.043 0.085 0.087 0.125 0.133 0.12 0.135 0.188 0.288 0.28 0.433 0.045 0.070 0.105 0.135 0.15 0.203 0.047 0.073 0.063 0.148 0.115 0.215 0.225 0.29 0.387 0.605 0.652 0.885 0.087 0.090 0.13 0.183 0.195 0.277 0.050 0.075 0.122 0.145 0.188 0.215 0.21 0.23 0.425 0.46 0.595 0.703 0.13 0.185 0.275 0.365 0.433 0.54 0.125 0.137 0.235 0.275 0.33 0.42 0.065 0.098 0.122 0.203 0.203 0.297 0.16 0.192 0.36 0.372 0.523 0.563 0.075 0.090 0.117 0.172 0.155 0.267 0.020 0.047 0.073 0.085 0.102 0.13 0.060 0.082 0.11 0.157 0.185 0.238 0.060 0.063 0.122 0.128 0.152 0.198 0.038 0.082 0.050 0.163 0.105 0.242 0.043 0.065 0.093 0.125 0.125 0.192 0.055 0.105 0.087 0.21 0.19 0.302 0.050 0.045 0.17 0.047 0.262 0.030 0-0.070-0.085-0.133-0.15-0.185-0.085-0.067-0.135-0.152-0.19-0.23-0.087-0.122-0.165-0.25-0.27-0.37-0.078-0.090-0.168-0.175-0.227-0.27-0.082-0.13-0.165-0.26-0.258-0.387-0.055-0.080-0.12-0.155-0.152-0.24-0.030-0.078-0.025-0.155-0.055-0.233-0.043-0.102-0.117-0.203-0.17-0.302-0.085-0.155-0.128-0.317-0.233-0.47-0.128-0.188-0.245-0.378-0.375-0.563-0.065-0.093-0.102-0.18-0.157-0.275-0.067-0.11-0.17-0.212-0.253-0.317-0.145-0.19-0.225-0.39-0.383-0.575-0.205-0.245-0.385-0.503-0.535-0.762-0.19-0.32-0.265-0.675-0.52-0.977-0.145-0.17-0.275-0.365-0.352-0.55-0.040-0.095-0.065-0.198-0.125-0.288-0.052-0.085-0.133-0.155-0.2-0.235-0.1-0.12-0.142-0.255-0.2-0.383-0.038-0.087-0.075-0.168-0.082-0.258-0.005-0.073-0.027-0.172-0.015-0.26 0 0 0 0.005-0.005 0.008v-0.755c0.18-0.038 0.34-0.11 0.517-0.172h2.385c0.043 0 0.14 0.020 0.177 0.005 0.055-0.025 0.025 0 0.055-0.058 0.032-0.067 0-0.18 0-0.258 0-0.188 0-0.375 0-0.56 0.030-0.012 0.065-0.025 0.095-0.040 0.098-0.047 0.215-0.050 0.32-0.073 0.188-0.038 0.367-0.095 0.552-0.142 0.172-0.043 0.355-0.070 0.525-0.133 0.12-0.043 0.238-0.038 0.36-0.085 0.205-0.075 0.282-0.168 0.37-0.392 0.045-0.12 0.108-0.203 0.177-0.302 0.15-0.218 0.387-0.218 0.605-0.215 0.145 0 0.282-0.052 0.42-0.108 0.13-0.052 0.265-0.082 0.4-0.102 0.090-0.015 0.145-0.010 0.223-0.045 0.108-0.047 0.215-0.065 0.325-0.098 0.225-0.065 0.427-0.238 0.657-0.285 0.125-0.027 0.297 0.005 0.332-0.19 0.015-0.090 0-0.195 0.015-0.285 0.017-0.148 0.035-0.295 0.012-0.442zM17.705 23.398c-0.043 0.055-0.060 0.128-0.115 0.172-0.025 0.010-0.047 0.025-0.067 0.038-0.012 0.040-0.027 0.080-0.045 0.117-0.030 0.050-0.085 0.078-0.125 0.122-0.050 0.055-0.070 0.117-0.11 0.175-0.073 0.1-0.238 0.427-0.27 0.313-0.415-1.52-0.46-0.152-0.587 0.672-0.023 0.135-0.15 0.225-0.23 0.337-0.032-0.040-0.065-0.085-0.098-0.128-0.115-0.145-0.175-0.3-0.275-0.45-0.098-0.148-0.21-0.288-0.322-0.433-0.145-0.183-0.26-0.365-0.38-0.558-0.065-0.102-0.098-0.207-0.188-0.3-0.045-0.047-0.078-0.1-0.107-0.155 0.025 0 0.050 0 0.072 0h1.033c0.163 0 0.288-0.073 0.45-0.090 0.11-0.012 0.22 0.017 0.33-0.008 0.238-0.052 0.488-0.032 0.733-0.032 0.087 0 0.285 0.040 0.37-0.005 0.008 0.012 0.017 0.023 0.025 0.032 0.005 0.008 0.012 0.017 0.017 0.025 0 0.005 0 0.012-0.005 0.017-0.023 0.052-0.067 0.087-0.102 0.133z"></path>
<path d="M18.148 21.707c-0.012 0.023-0.017 0.047-0.023 0.075 0.017-0.025 0.032-0.045 0.052-0.075h-0.030z"></path>
<path d="M9.395 29.12c-0.040 0.060-0.070 0.108-0.098 0.168-0.037 0.085-0.135 0.152-0.207 0.225-0.050 0.050-0.050 0.098-0.088 0.152-0.033 0.050-0.127 0.115-0.115 0.172 0.072-0.005 0.13-0.11 0.165-0.15 0.098-0.105 0.203-0.212 0.275-0.328 0.063-0.095 0.090-0.2 0.145-0.297 0.053-0.093 0.133-0.183 0.19-0.275 0.023-0.032 0.040-0.065 0.063-0.098-0.123 0.137-0.23 0.28-0.332 0.427z"></path>
</svg>
