<!-- Generated by IcoMoon.io -->
<svg version="1.1" xmlns="http://www.w3.org/2000/svg" width="32" height="32" viewBox="0 0 32 32">
<path d="M16.886 29.648c-0.518-0.271-0.777-0.284-1.489-0.071-0.474 0.142-0.888 0.227-0.92 0.189-0.655-0.782-12.396-18.681-12.456-18.988-0.101-0.52 2.122-3.223 3.767-4.582 2.479-2.047 4.056-2.868 7.050-3.668 2.392-0.639 3.483-0.683 5.313-0.216 3.108 0.795 4.806 1.549 6.884 3.057 1.197 0.869 3.868 3.642 4.66 4.839l0.567 0.857-6.322 9.479c-3.477 5.213-6.345 9.468-6.375 9.456s-0.335-0.171-0.68-0.352z"></path>
</svg>
