<!-- Generated by IcoMoon.io -->
<svg version="1.1" xmlns="http://www.w3.org/2000/svg" width="30" height="32" viewBox="0 0 30 32">
<path d="M6.518 26.977c1-2.212 3.35-7.417 5.221-11.566s3.499-7.514 3.618-7.477c0.119 0.037 1.096 2.043 2.171 4.458s3.344 7.466 5.041 11.224c1.697 3.758 3.136 6.957 3.198 7.108 0.088 0.218-2.093 0.276-10.478 0.276h-10.59zM16.536 11.099c-0.624-1.429-1.208-2.52-1.297-2.425-0.135 0.145-1.732 3.799-3.015 6.896-0.334 0.807-0.229 0.75 0.566-0.305 0.294-0.39 0.479-0.507 0.479-0.303 0 0.183 0.127 0.439 0.283 0.568 0.219 0.182 0.371-0.013 0.67-0.855 0.371-1.044 0.81-1.455 0.81-0.759 0 0.182 0.124 0.332 0.275 0.333s0.616 0.621 1.032 1.378l0.756 1.375 0.576-3.306zM12.070 5.675c-0.078-0.125-0.2-1.174-0.272-2.329-0.152-2.431 0.068-2.673 1.099-1.215 0.341 0.482 0.717 0.877 0.834 0.877s0.405-0.446 0.639-0.992c0.581-1.354 1.183-1.354 1.763 0 0.234 0.546 0.521 0.992 0.639 0.992s0.493-0.395 0.834-0.877c0.966-1.366 1.171-1.181 1.171 1.055 0 2.444-0.199 2.784-1.43 2.441-0.888-0.247-4.1-0.165-4.774 0.122-0.2 0.085-0.427 0.052-0.504-0.074z"></path>
</svg>
