<!-- Generated by IcoMoon.io -->
<svg version="1.1" xmlns="http://www.w3.org/2000/svg" width="38" height="32" viewBox="0 0 38 32">
<path d="M13.63 5.603c0.056-0.013 0.114-0.015 0.171-0.008 4.303 0.554 12.254 3.639 13.004 4.11 1.257 0.79 1.918 1.364 2.298 1.991 0.298 0.494 0.433 1.024 0.512 1.729 0.070 0.624 0.1 1.4 0.202 2.445 0.046 0.471 0.472 0.746 1.006 0.998 1.066 0.503 2.591 0.801 3.762 1.273 0.933 0.376 1.648 0.881 1.917 1.572 0.191 0.492 0.185 1.093-0.167 1.839-0.444 0.942-1.281 1.733-2.432 2.373-1.615 0.899-3.865 1.512-6.436 1.9-7.842 1.185-18.711 0.308-23.21-0.425-0.813-0.132-1.424-0.262-1.782-0.373-0.219-0.068-0.367-0.14-0.447-0.198-0.219-0.158-0.678-0.641-0.703-1.332-0.016-0.425 0.123-0.945 0.642-1.507 0.697-0.756 2.184-1.654 5.164-2.521 0.48-0.14 0.759-0.665 1.010-1.361 0.469-1.298 0.718-3.182 1.067-5.079 0.367-1.992 0.845-3.993 1.74-5.407 0.65-1.028 1.515-1.759 2.685-2.021zM13.764 6.59c-1.053 0.266-1.759 1.059-2.282 2.098-0.893 1.773-1.253 4.243-1.635 6.419-0.269 1.533-0.55 2.926-0.997 3.877-0.36 0.765-0.84 1.264-1.445 1.439-2.706 0.788-4.080 1.556-4.713 2.242-0.28 0.304-0.388 0.569-0.379 0.798 0.010 0.281 0.186 0.482 0.282 0.556 0.021 0.008 0.175 0.067 0.316 0.105 0.343 0.092 0.854 0.194 1.503 0.3 4.439 0.723 15.165 1.592 22.902 0.423 2.436-0.368 4.572-0.935 6.102-1.787 0.946-0.526 1.653-1.155 2.018-1.929 0.192-0.407 0.246-0.735 0.157-1.011-0.087-0.272-0.305-0.477-0.583-0.659-0.477-0.311-1.124-0.538-1.806-0.749-1.132-0.352-2.354-0.662-3.182-1.142-0.689-0.4-1.126-0.922-1.192-1.602-0.101-1.039-0.131-1.81-0.2-2.431-0.060-0.539-0.147-0.95-0.375-1.327-0.323-0.533-0.908-0.994-1.977-1.665-0.721-0.453-8.326-3.387-12.514-3.954z"></path>
</svg>
