<!-- Generated by IcoMoon.io -->
<svg version="1.1" xmlns="http://www.w3.org/2000/svg" width="32" height="32" viewBox="0 0 32 32">
<path d="M11.556 10.775c0.003 0 0.005 0 0.008 0-0.001-0.001-0.003-0.001-0.004-0.001s-0.003 0.001-0.004 0.001z"></path>
<path d="M14.979 7.985c-0.003 0-0.008 0.003-0.012 0.004l0.021-0.001c-0.003 0-0.006-0.003-0.009-0.003z"></path>
<path d="M16.445 11.424c-0.027-0.023-0.018-0.061-0.048-0.083-0.16-0.12-0.686 0.022-0.993 0.070-0.293 0.044-0.529 0.112-0.842 0.236-0.243 0.096-0.469 0.147-0.714 0.243-0.17 0.067-0.523 0.167-0.622 0.279-0.474 0.058-0.524 0.174-0.559 0.225-0.056 0.079-0.116 0.169-0.15 0.244-0.048 0.112-0.022 0.236 0.067 0.302 0.054 0.039 0.129 0.089 0.275 0.068 0.079-0.012 0.16-0.048 0.239-0.052 0.12-0.008 0.167 0.013 0.321-0.017 0.336-0.065 0.683-0.172 1.015-0.232 0.334-0.061 0.637-0.059 0.985-0.198 0.227-0.089 0.766-0.247 0.884-0.387 0.032-0.039 0.044-0.072 0.081-0.116 0.030-0.034 0.061-0.067 0.090-0.102 0.065-0.072 0.159-0.143 0.164-0.203 0.008-0.066-0.049-0.165-0.089-0.213-0.026-0.030-0.076-0.039-0.106-0.065z"></path>
<path d="M14.628 3.188c0.003-0.041 0.061-0.037 0.057-0.083 0.005-0.281-0.914-0.869-1.5-0.983-0.538-0.149-1.045-0.168-1.671-0.026-0.478 0.116-0.892 0.254-1.291 0.514-0.288 0.167-0.772 0.602-0.817 0.835-0.534 0.608-0.398 0.847-0.395 0.921 0.031 0.146 0.084 0.303 0.147 0.405 0.093 0.15 0.241 0.181 0.349 0.099 0.068-0.049 0.15-0.116 0.217-0.297 0.037-0.097 0.062-0.21 0.119-0.293 0.092-0.123 0.145-0.151 0.263-0.302 0.262-0.324 0.626-0.609 1.034-0.748 0.414-0.134 0.779-0.128 1.246-0.154 0.32-0.045 1.015 0.161 1.268 0.221 0.074 0.008 0.12 0 0.205 0.017 0.066 0.013 0.133 0.030 0.201 0.050 0.146 0.039 0.316 0.136 0.398 0.134 0.090-0.004 0.169-0.094 0.192-0.158 0.016-0.039-0.025-0.11-0.022-0.155z"></path>
<path d="M26.567 8.157c-0.037 0.013-0.077 0.025-0.114 0.041-0.025 0.010-0.045 0.025-0.074 0.032-0.030 0.010-0.059 0.013-0.088 0.025-0.085 0.036-0.123 0.111-0.164 0.177-0.072 0.112-0.132 0.243-0.172 0.362-0.012 0.036-0.027 0.072-0.031 0.108-0.001 0.031-0.013 0.052-0.008 0.084 0.001 0.009 0.005 0.022 0.005 0.031-0.001 0.022-0.012 0.028-0.016 0.049-0.005 0.028-0.034 0.039-0.030 0.067 0.035 0 0.067 0.057 0.088 0.075 0.031 0.026 0.054 0.052 0.076 0.085 0.041 0.062 0.090 0.115 0.139 0.172 0.061 0.072 0.13 0.129 0.207 0.191 0.037 0.031 0.062 0.072 0.101 0.099 0.025 0.017 0.059 0.027 0.084 0.043 0.019 0.010 0.039 0.022 0.055 0.036s0.023 0.040 0.040 0.052c0.023 0.017 0.049 0.021 0.074 0.039 0.070 0.053 0.147 0.102 0.239 0.132 0.079 0.027 0.152 0.068 0.227 0.101 0.066 0.028 0.138 0.052 0.208 0.074 0.066 0.021 0.134 0.028 0.203 0.044 0.080 0.018 0.158 0.008 0.238 0.023 0.058 0.012 0.119 0.050 0.115-0.022-0.001-0.036 0.005-0.070 0.006-0.106 0.003-0.036 0.001-0.045 0.052-0.052 0.037-0.005 0.102 0.004 0.127-0.021 0.016-0.017 0.001-0.054-0.001-0.074-0.005-0.040-0.006-0.056-0.030-0.085-0.026-0.034-0.031-0.066-0.034-0.105-0.004-0.043-0.004-0.028 0.032-0.048 0.030-0.016 0.053-0.028 0.087-0.036 0.061-0.014 0.147-0.046 0.152-0.107 0.004-0.056-0.025-0.112-0.023-0.169 0.001-0.080 0.106-0.086 0.183-0.105 0.034-0.009 0.112-0.019 0.129-0.046 0.018-0.030-0.012-0.111-0.016-0.142-0.008-0.056-0.032-0.129-0.022-0.185 0.031-0.005 0.039-0.021 0.062-0.032 0.026-0.012 0.039-0.008 0.065-0.014 0.098-0.022 0.158-0.061 0.119-0.149-0.026-0.061-0.084-0.117-0.115-0.179l0.016 0.006c-0.009-0.036 0.138-0.101 0.172-0.115 0.036-0.013 0.077-0.026 0.111-0.043 0.023-0.010 0.081-0.036 0.096-0.054 0.040-0.052 0.018-0.143-0.036-0.179-0.034-0.023-0.079-0.043-0.121-0.056-0.016-0.005-0.030-0.009-0.044-0.013-0.070-0.016-0.147-0.036-0.213-0.057-0.049-0.016-0.089-0.019-0.141-0.025-0.058-0.005-0.115-0.016-0.176-0.018-0.045-0.003-0.089-0.014-0.134-0.016-0.040-0.003-0.075 0.010-0.116 0.004-0.059-0.008-0.106-0.013-0.168-0.008-0.049 0.004-0.084-0.010-0.13-0.016-0.049-0.006-0.099 0.008-0.15 0.003-0.047-0.004-0.092 0.003-0.138-0.003-0.049-0.004-0.098 0.003-0.148 0.008-0.030 0.004-0.061 0.008-0.092 0.009-0.044 0.003-0.085-0.006-0.129-0.004-0.032 0.003-0.065 0.008-0.097 0.009-0.040 0.003-0.076-0.006-0.116-0.005-0.037 0.003-0.076 0.009-0.114 0.012-0.076 0.008-0.143 0.036-0.212 0.054-0.032 0.009-0.065 0.030-0.096 0.040z"></path>
<path d="M4.853 15.379c-0.027-0.025-0.056-0.052-0.087-0.075-0.021-0.016-0.043-0.027-0.062-0.046-0.022-0.019-0.035-0.043-0.058-0.061-0.071-0.054-0.167-0.057-0.254-0.066-0.15-0.017-0.315-0.017-0.461-0.005-0.043 0.003-0.089 0.004-0.129 0.014-0.035 0.009-0.062 0.008-0.096 0.023-0.010 0.005-0.023 0.012-0.034 0.016-0.025 0.006-0.035 0-0.058 0.005-0.034 0.006-0.054-0.013-0.085 0.001 0.012 0.027-0.039 0.072-0.050 0.096-0.018 0.034-0.039 0.062-0.067 0.092-0.053 0.054-0.093 0.112-0.139 0.172-0.058 0.074-0.096 0.15-0.137 0.232-0.019 0.040-0.057 0.075-0.072 0.115-0.010 0.025-0.009 0.056-0.017 0.081-0.005 0.019-0.010 0.039-0.021 0.057-0.009 0.018-0.036 0.032-0.043 0.050-0.010 0.025-0.004 0.047-0.016 0.071-0.032 0.075-0.061 0.154-0.061 0.236 0 0.074-0.019 0.146-0.028 0.217-0.008 0.062-0.006 0.127-0.005 0.19 0 0.059 0.017 0.116 0.025 0.176 0.008 0.071 0.046 0.128 0.059 0.198 0.008 0.049-0.013 0.111 0.065 0.083 0.040-0.016 0.079-0.022 0.12-0.034 0.040-0.010 0.049-0.016 0.075 0.022 0.019 0.027 0.032 0.083 0.068 0.093 0.025 0.006 0.059-0.018 0.081-0.027 0.041-0.018 0.057-0.026 0.083-0.054 0.027-0.032 0.061-0.048 0.102-0.065 0.046-0.018 0.030-0.013 0.065 0.009 0.028 0.018 0.052 0.031 0.071 0.054 0.037 0.044 0.105 0.101 0.173 0.083 0.062-0.017 0.116-0.061 0.178-0.079 0.088-0.027 0.133 0.053 0.181 0.107 0.022 0.023 0.062 0.081 0.098 0.085 0.039 0.004 0.117-0.049 0.15-0.063 0.061-0.026 0.132-0.072 0.198-0.084 0.016 0.022 0.036 0.023 0.057 0.037 0.022 0.017 0.023 0.028 0.039 0.047 0.059 0.070 0.124 0.102 0.207 0.041 0.058-0.044 0.099-0.11 0.158-0.156l-0.003 0.014c0.036-0.019 0.161 0.072 0.187 0.094 0.028 0.023 0.057 0.053 0.088 0.074 0.021 0.013 0.070 0.050 0.094 0.055 0.071 0.013 0.165-0.037 0.185-0.093 0.013-0.036 0.018-0.077 0.018-0.117 0-0.013-0.001-0.026-0.003-0.039-0.006-0.059-0.013-0.129-0.014-0.189 0-0.044-0.010-0.077-0.023-0.12-0.014-0.048-0.025-0.097-0.043-0.145-0.013-0.036-0.017-0.076-0.031-0.112-0.012-0.032-0.039-0.055-0.046-0.090-0.013-0.050-0.025-0.088-0.052-0.136-0.022-0.037-0.019-0.070-0.030-0.108-0.010-0.041-0.044-0.076-0.057-0.117-0.013-0.037-0.035-0.071-0.048-0.11-0.013-0.040-0.036-0.077-0.061-0.115-0.016-0.022-0.030-0.045-0.043-0.070-0.018-0.034-0.023-0.068-0.043-0.103-0.014-0.025-0.031-0.048-0.045-0.072-0.017-0.031-0.019-0.063-0.036-0.094-0.016-0.028-0.036-0.057-0.053-0.085-0.036-0.058-0.090-0.101-0.137-0.149-0.021-0.022-0.054-0.040-0.077-0.061z"></path>
<path d="M13.667 3.574c-0.066-0.044-0.132-0.096-0.21-0.133-0.056-0.027-0.114-0.041-0.165-0.077-0.057-0.040-0.092-0.098-0.155-0.132-0.203-0.103-0.482-0.014-0.735 0.043-0.443 0.102-0.917 0.266-1.321 0.447-0.117 0.052-0.247 0.098-0.35 0.169-0.086 0.061-0.16 0.083-0.236 0.158-0.022 0.022-0.049 0.054-0.074 0.072-0.058 0.043-0.094 0.036-0.151 0.070-0.080 0.048-0.164 0.019-0.227 0.081 0.067 0.059-0.004 0.219-0.006 0.284-0.003 0.096-0.019 0.174-0.052 0.262-0.061 0.16-0.084 0.306-0.119 0.452-0.040 0.174-0.032 0.327-0.025 0.483 0.003 0.072-0.035 0.147-0.022 0.213 0.006 0.039 0.041 0.080 0.054 0.117 0.009 0.027 0.018 0.056 0.018 0.083 0 0.028-0.035 0.063-0.031 0.088 0.006 0.034 0.039 0.057 0.043 0.092 0.012 0.101 0.035 0.198 0.108 0.279 0.062 0.068 0.088 0.143 0.13 0.21 0.036 0.054 0.085 0.106 0.132 0.154 0.043 0.045 0.105 0.079 0.154 0.116 0.057 0.045 0.146 0.066 0.203 0.106 0.039 0.027 0.043 0.075 0.134 0.023 0.048-0.026 0.097-0.048 0.149-0.072 0.050-0.025 0.062-0.032 0.115-0.019 0.037 0.010 0.080 0.039 0.133 0.030 0.036-0.005 0.075-0.036 0.101-0.052 0.050-0.030 0.068-0.041 0.092-0.071 0.027-0.035 0.068-0.059 0.121-0.089 0.059-0.034 0.037-0.023 0.094-0.023 0.045 0 0.081 0 0.117 0.006 0.066 0.014 0.172 0.025 0.262-0.017 0.083-0.039 0.149-0.094 0.232-0.136 0.121-0.059 0.195-0.019 0.27-0.001 0.034 0.008 0.093 0.032 0.143 0.019 0.053-0.014 0.158-0.087 0.203-0.111 0.083-0.045 0.183-0.112 0.276-0.151 0.022 0.012 0.052 0.003 0.080 0.005 0.030 0.003 0.031 0.012 0.053 0.018 0.077 0.028 0.164 0.025 0.284-0.058 0.088-0.059 0.156-0.132 0.249-0.198l-0.005 0.013c0.056-0.034 0.216-0.012 0.249-0.005 0.034 0.008 0.067 0.019 0.105 0.022 0.026 0.003 0.084 0.012 0.116 0.005 0.097-0.021 0.244-0.103 0.292-0.16 0.031-0.036 0.056-0.076 0.070-0.112 0.005-0.013 0.009-0.025 0.012-0.035 0.014-0.054 0.034-0.12 0.057-0.178 0.017-0.046 0.016-0.076 0.014-0.116-0.003-0.045 0.004-0.096-0.004-0.142-0.005-0.036 0.006-0.081 0-0.119-0.005-0.034-0.040-0.048-0.039-0.088 0.003-0.059 0-0.105-0.027-0.154-0.023-0.040-0.001-0.088-0.001-0.139 0.001-0.056-0.046-0.088-0.052-0.143-0.004-0.054-0.032-0.094-0.037-0.15-0.006-0.061-0.037-0.11-0.068-0.16-0.021-0.031-0.041-0.063-0.057-0.099-0.023-0.052-0.016-0.117-0.040-0.172-0.019-0.040-0.049-0.075-0.067-0.116-0.026-0.054-0.014-0.123-0.039-0.179-0.023-0.054-0.059-0.102-0.088-0.155-0.061-0.114-0.181-0.174-0.279-0.261-0.046-0.041-0.129-0.059-0.183-0.096z"></path>
<path d="M24.636 7.548c-0.016 0.019-0.053 0.052-0.063 0.074-0.027 0.066 0.014 0.045 0.008 0.098-0.012 0.11-0.112 0.183-0.141 0.288-0.014 0.050-0.016 0.089-0.049 0.134-0.030 0.043-0.071 0.077-0.094 0.123-0.062 0.117-0.047 0.235-0.081 0.355-0.037 0.127-0.039 0.253 0.127 0.612-0.010-0.004-0.019-0.006-0.030-0.010-0.080 0.058-0.094 0.107-0.079 0.187 0.019 0.105 0.031 0.127 0.138 0.186 0.099 0.056 0.222 0.085 0.333 0.040 0.112-0.046 0.212-0.151 0.306-0.216 0.040-0.027 0.057-0.022 0.094-0.059 0.032-0.031 0.057-0.072 0.084-0.106 0.057-0.071 0.112-0.142 0.169-0.212 0.027-0.036 0.059-0.070 0.085-0.106 0.026-0.037 0.026-0.072 0.044-0.11 0.021-0.039 0.065-0.068 0.080-0.108 0.023-0.057 0.010-0.133 0.032-0.196 0.039-0.11 0.066-0.221 0.098-0.331 0.019-0.068 0.075-0.117 0.099-0.183 0.026-0.071 0.048-0.151 0.062-0.223 0.022-0.111 0.022-0.214-0.009-0.328-0.026-0.101-0.119-0.13-0.219-0.186-0.106-0.059-0.165-0.054-0.288-0.034-0.035 0.006-0.072 0.010-0.108 0.018-0.105 0.023-0.225 0.044-0.327 0.071-0.089 0.023-0.146 0.063-0.199 0.13-0.023 0.031-0.048 0.062-0.072 0.092z"></path>
<path d="M24.090 7.377c-0.013-0.016-0.021-0.031-0.031-0.045-0.034-0.048-0.094-0.087-0.138-0.13-0.014-0.014-0.026-0.030-0.039-0.044-0.009-0.012-0.017-0.017-0.025-0.028-0.010-0.017-0.026-0.023-0.039-0.036-0.009-0.009-0.016-0.019-0.023-0.030-0.203-0.074-0.405-0.145-0.609-0.21-0.031 0-0.059 0.003-0.093-0.003-0.727-0.090-1.433-0.28-2.142-0.449-0.023 0.006-0.048 0.012-0.068 0.021-0.004 0.001-0.008 0.003-0.012 0.004-0.004-0.003-0.009-0.005-0.014-0.008-0.032-0.022-0.067-0.043-0.103-0.062-0.4-0.093-0.803-0.176-1.214-0.227-0.040-0.005-0.076-0.016-0.114-0.026-0.043 0-0.085 0-0.128 0.003-0.058 0.005-0.115 0.018-0.173 0.023-0.061 0.008-0.111 0.001-0.17 0.018-0.021 0.005-0.041 0.012-0.062 0.017v0c-0.021-0.003-0.032 0.008-0.048 0.013-0.005 0.001-0.010 0.004-0.016 0.005-0.014 0.003-0.028 0.006-0.043 0.009-0.018 0.003-0.028 0.003-0.047 0.008-0.017 0.005-0.032 0.006-0.048 0.010-0.076 0.016-0.155 0.028-0.221 0.059-0.036 0.017-0.074 0.032-0.11 0.046-0.037 0.014-0.084 0.016-0.121 0.032-0.075 0.036-0.148 0.070-0.218 0.111-0.031 0.018-0.072 0.026-0.103 0.043-0.010 0.006-0.010 0.009-0.018 0.014-0.006 0.005-0.014 0.009-0.022 0.013-0.006 0.004-0.013 0.009-0.018 0.013-0.003 0.003-0.005 0.004-0.009 0.006-0.036 0.027-0.055 0.054-0.077 0.089-0.012 0.016-0.026 0.027-0.037 0.043-0.012 0.014-0.014 0.030-0.021 0.045-0.021 0.043-0.043 0.085-0.062 0.128-0.022 0.046-0.031 0.085-0.027 0.133 0.001 0.026-0.001 0.053 0.009 0.076 0.012 0.026 0.018 0.054 0.026 0.081 0.009 0.026 0.025 0.053 0.031 0.079 0.004 0.014 0.003 0.025 0.009 0.036 0.016 0.037 0.035 0.074 0.054 0.11 0.036 0.071 0.068 0.139 0.088 0.213 0.005 0.025 0.022 0.046 0.026 0.071 0.003 0.019 0.001 0.035 0.010 0.053 0.016 0.036 0.017 0.071 0.031 0.107 0.008 0.021 0.009 0.040 0.014 0.061 0.006 0.025 0.023 0.045 0.026 0.071 0.001 0.025 0.003 0.049 0.004 0.074 0.001 0.032 0.004 0.066 0.005 0.099 0.48 0.059 0.928 0.23 1.396 0.35 0.065-0.037 0.137-0.058 0.213-0.049 0.364 0.048 0.73 0.090 1.094 0.129 0.008-0.003 0.014-0.005 0.021-0.006 0.035-0.010 0.070-0.013 0.105-0.025 0.028-0.010 0.055-0.023 0.083-0.036 0.006 0.005 0.013 0.010 0.019 0.017 0.030 0.027 0.055 0.056 0.085 0.079 0.001 0.001 0.001 0.003 0.003 0.003 0.049 0.005 0.098 0.012 0.146 0.016 0.24 0.014 0.479 0.032 0.719 0.044 0.128 0.005 0.256 0.012 0.383 0.012 0.037 0 0.072 0.005 0.106 0.012 0.35 0.006 0.7 0.009 1.050 0.010 0.005 0 0.009 0.001 0.014 0.001 0.004-0.001 0.008-0.004 0.013-0.005 0.059-0.025 0.12-0.045 0.181-0.067 0.032-0.012 0.067-0.023 0.099-0.032 0.022-0.006 0.054-0.006 0.067-0.026 0.018-0.026-0.005-0.084-0.005-0.111 0-0.061 0.023-0.121 0.034-0.182 0.008-0.043 0.036-0.081 0.041-0.124 0.005-0.035 0.017-0.067 0.030-0.098 0.009-0.022 0.009-0.046 0.014-0.068 0.004-0.016 0.018-0.031 0.021-0.044 0.012-0.041 0.018-0.085 0.030-0.128 0.012-0.041 0.010-0.081 0.028-0.121 0.006-0.014 0.008-0.028 0.012-0.043 0.004-0.017 0.019-0.032 0.025-0.046 0.008-0.021 0.009-0.031 0.027-0.050 0.021-0.019 0.028-0.045 0.049-0.066 0.016-0.014 0.040-0.022 0.047-0.040 0.004-0.014-0.009-0.030-0.018-0.041z"></path>
<path d="M8.819 10.247c-0.022-0.016-0.044-0.032-0.065-0.048-0.023-0.018-0.031-0.041-0.052-0.062-0.016-0.016-0.031-0.028-0.045-0.046-0.026-0.031-0.058-0.054-0.080-0.086-0.013-0.018-0.028-0.026-0.044-0.040-0.019-0.018-0.031-0.043-0.049-0.062-0.057-0.058-0.101-0.123-0.143-0.19-0.022-0.035-0.044-0.071-0.067-0.105-0.008-0.012-0.018-0.017-0.028-0.027-0.021-0.022-0.035-0.048-0.054-0.071-0.019-0.022-0.043-0.044-0.058-0.067-0.016-0.022-0.043-0.036-0.065-0.053-0.035-0.027-0.072-0.043-0.114-0.057-0.058 0.107-0.159 0.192-0.28 0.238-0.764 0.284-1.219 1.091-1.708 1.691-0.553 0.68-1.321 1.248-1.644 2.093-0.010 0.028-0.023 0.057-0.039 0.083 0 0.003 0.001 0.004 0.001 0.005 0.008 0.025 0.013 0.046 0.018 0.071 0.003 0.021 0.017 0.035 0.021 0.052 0.003 0.017 0 0.031 0.008 0.049 0.006 0.013 0.008 0.021 0.012 0.034 0.005 0.018 0.013 0.035 0.017 0.054 0.013 0.056 0.012 0.12 0.035 0.172 0.008 0.016 0.017 0.031 0.023 0.049 0.004 0.013 0.010 0.031 0.027 0.037 0.019 0.006 0.043-0.005 0.066-0.006 0.031-0.001 0.061 0.009 0.092 0.009 0.028 0 0.039 0.005 0.063 0.013 0.017 0.006 0.040 0.005 0.058 0.013 0.014 0.005 0.028 0.014 0.046 0.018 0.048 0.013 0.085 0.039 0.129 0.057 0.046 0.018 0.092 0.043 0.137 0.061 0.014 0.005 0.037 0.005 0.053 0.012 0.025 0.010 0.046 0.027 0.072 0.034 0.037 0.012 0.074 0.023 0.11 0.041 0.044 0.023 0.097 0.028 0.142 0.050 0.062 0.030 0.132 0.053 0.189 0.090 0.025 0.017 0.065 0.068 0.099 0.072 0.026 0.003 0.046-0.018 0.066-0.028 0.028-0.016 0.061-0.032 0.090-0.046 0.001 0 0.003 0 0.003-0.001 0.006-0.13 0.072-0.261 0.221-0.352 0.63-0.39 0.873-1.101 1.27-1.7 0.448-0.677 1.125-1.197 1.455-1.948 0.012-0.028 0.027-0.052 0.045-0.075z"></path>
<path d="M24.616 24.19c-0.139-0.399-0.238-0.793-0.4-1.187-0.174-0.42-0.352-0.851-0.554-1.255-0.234-0.469-0.511-0.932-0.714-1.414-0.234-0.551-0.555-1.050-0.886-1.516-0.111-0.156-0.156-0.312-0.261-0.465-0.072-0.108-0.214-0.185-0.301-0.297-0.083-0.108-0.16-0.236-0.232-0.355-0.101-0.165-0.183-0.373-0.289-0.528-0.17-0.253-0.407-0.452-0.595-0.705-0.382-0.511-0.736-0.984-1.158-1.425-0.337-0.354-0.646-0.7-0.999-1.021-0.187-0.17-0.34-0.336-0.504-0.545-0.108-0.141-0.426-0.405-0.457-0.595-0.15-0.062-0.178 0.083-0.319 0.067-0.097-0.010-0.12 0.041-0.231 0.013-0.048-0.012-0.116-0.048-0.167-0.070-0.169-0.075-0.263-0.044-0.42-0.075-0.181-0.037-0.354 0-0.523 0.014-0.573 0.049-1.183 0.192-1.697 0.43-0.296 0.136-0.643 0.236-0.755 0.657-0.036 0.138-0.021 0.303-0.044 0.454-0.021 0.139-0.070 0.238-0.105 0.36-0.050 0.179-0.076 0.382-0.108 0.571-0.028 0.158-0.103 0.302-0.119 0.47-0.035 0.359-0.12 0.689-0.088 1.104 0.016 0.203 0.017 0.403 0.039 0.608 0.026 0.223 0.107 0.434 0.13 0.657 0.018 0.177 0.018 0.347 0.036 0.523 0.023 0.243 0.106 0.48 0.133 0.722 0.019 0.169 0.027 0.334 0.036 0.498 0.014 0.267 0.030 0.533 0.094 0.816 0.061 0.263 0.072 0.505 0.134 0.771 0.067 0.283 0.039 0.544 0.115 0.825 0.071 0.267 0.173 0.478 0.196 0.746 0.028 0.336 0.093 0.599 0.19 0.945 0.066 0.238 0.032 0.412 0.077 0.638 0.049 0.25 0.146 0.516 0.199 0.77 0.070 0.338 0.169 0.668 0.25 0.998 0.071 0.297 0.128 0.528 0.249 0.822 0.16 0.391 0.332 0.855 0.476 1.263 0.030 0.083 0.063 0.17 0.099 0.26 0.11 0.26 0.247 0.535 0.394 0.759 0.231 0.352 0.719 0.608 0.946 0.456 0.079-0.052 0.158-0.338 0.195-0.447 0.055-0.164 0.080-0.38 0.12-0.559 0.036-0.168 0.24-0.89 0.43-0.786l-0.048-0.096c0.347 0.262 0.686 0.661 1.023 0.899 0.474 0.336 0.625 0.065 0.651-0.447 0.006-0.137-0.022-0.214 0.016-0.338 0.035-0.114 0.108-0.138 0.106-0.298 0.276 0.021 0.669 0.262 0.964 0.385 0.161 0.066 0.603 0.354 0.733 0.293 0.125-0.058 0.111-0.474 0.124-0.655 0.028-0.4-0.031-0.971 0.374-0.866 0.284 0.074 0.604 0.32 0.884 0.376 0.303 0.059 0.389-0.376 0.408-0.695 0.009-0.174 0.055-0.284 0.11-0.424 0.068-0.173-0.008-0.196 0.216-0.114 0.2 0.075 0.367 0.145 0.56 0.336 0.174 0.172 0.253 0.207 0.46 0.292 0.106 0.044 0.306 0.177 0.376 0.108 0.105-0.099 0.003-0.473-0.005-0.673-0.012-0.271 0.040-0.248 0.219-0.208 0.185 0.043 0.346 0.053 0.536 0.117 0.368 0.124 0.117-0.27 0.010-0.606-0.15-0.471-0.168-0.886-0.333-1.361z"></path>
<path d="M5.913 14.833c-0.004 0.005-0.006 0.010-0.010 0.016-0.201-0.248-0.312-0.314-0.447-0.369-0.127-0.050-0.218-0.119-0.36-0.16-0.054-0.016-0.114-0.019-0.169-0.031-0.061-0.014-0.096-0.034-0.149-0.056-0.11-0.045-0.239-0.050-0.343-0.103-0.049-0.026-0.004-0.030-0.079-0.056-0.026-0.008-0.079-0.013-0.106-0.017-0.043-0.008-0.084-0.016-0.127-0.023-0.094-0.018-0.165-0.019-0.245-0.001-0.090 0.021-0.187 0.052-0.278 0.075-0.030 0.008-0.057 0.019-0.087 0.028-0.098 0.031-0.142 0.049-0.161 0.117-0.018 0.065-0.053 0.112 0.016 0.174 0.079 0.071 0.168 0.125 0.279 0.177 0.072 0.034 0.156 0.070 0.234 0.097 0.074 0.027 0.152 0.034 0.225 0.063 0.117 0.048 0.231 0.097 0.351 0.142 0.070 0.026 0.128 0.071 0.191 0.093 0.045 0.017 0.099 0.017 0.147 0.030 0.045 0.014 0.075 0.032 0.124 0.043 0.048 0.010 0.099 0.018 0.147 0.027 0.098 0.018 0.198 0.036 0.296 0.054 0.048 0.009 0.099 0.022 0.147 0.027 0.057 0.008 0.063-0.001 0.114-0.001 0.117 0.003 0.275 0.023 0.389 0.009 0.112-0.014 0.169-0.072 0.186-0.137 0.019-0.067 0.008-0.084-0.068-0.146-0.061-0.048-0.112-0.068-0.216-0.072z"></path>
<path d="M18.092 6.011c-0.041-0.053-0.081-0.080-0.136-0.121-0.055-0.041-0.103-0.108-0.163-0.141-0.059-0.031-0.115-0.023-0.176-0.028-0.123-0.010-0.241-0.041-0.36-0.018-0.036 0.008-0.067 0.003-0.105-0.003-0.075-0.012-0.141-0.006-0.21 0.005-0.034 0.005-0.058 0.008-0.092 0.003-0.021-0.003-0.039-0.008-0.059-0.006-0.059 0.005-0.119 0.031-0.174 0.046-0.057 0.017-0.114 0.031-0.17 0.048-0.022 0.006-0.040 0.014-0.065 0.009-0.070-0.016-0.124-0.025-0.192-0.004-0.067 0.019-0.139 0.032-0.204 0.058-0.058 0.023-0.107 0.057-0.168 0.079-0.083 0.031-0.152 0.085-0.226 0.133-0.039 0.025-0.079 0.048-0.117 0.072-0.023-0.003-0.048 0-0.072 0.012-0.014 0.008-0.023 0.022-0.036 0.031s-0.028 0.009-0.041 0.017c-0.010 0.005-0.017 0.016-0.027 0.021-0.013 0.006-0.030 0.008-0.044 0.012-0.093 0.028-0.163 0.096-0.245 0.142-0.030 0.017-0.058 0.034-0.085 0.053-0.036 0.025-0.023 0.054-0.014 0.097 0.013 0.063 0.027 0.129 0.039 0.191 0.010 0.065 0.036 0.129 0.061 0.191 0-0.001-0.001-0.004-0.003-0.006-0.004 0.016-0.009 0.031-0.014 0.045-0.021 0.074-0.046 0.147-0.070 0.221-0.010 0.028-0.025 0.057-0.036 0.085-0.008-0.014-0.017-0.027-0.025-0.041-0.013-0.026-0.021-0.053-0.031-0.080-0.013-0.034-0.032-0.065-0.050-0.097-0.009-0.016-0.026-0.027-0.037-0.041s-0.016-0.032-0.022-0.049c-0.025-0.066 0.008 0.017-0.028-0.072-0.010-0.027-0.005-0.045-0.016-0.072-0.013-0.032-0.013-0.063-0.017-0.096-0.008-0.077-0.147-0.022-0.19-0.010-0.049 0.014-0.096 0.021-0.147 0.028-0.056 0.008-0.117 0.008-0.172 0.023-0.065 0.017-0.125 0.009-0.195 0.004-0.021-0.001-0.037 0.001-0.058 0.003-0.023 0.001-0.049-0.004-0.072-0.001-0.031 0.004-0.058 0-0.092 0-0.044 0-0.088 0.004-0.132 0.004-0.044-0.001-0.088-0.006-0.132-0.004-0.045 0.001-0.086-0.001-0.133-0.005-0.037-0.001-0.065 0.006-0.099 0.017-0.070 0.019-0.139 0.039-0.208 0.058-0.037 0.010-0.067 0.023-0.101 0.039-0.034 0.017-0.067 0.019-0.098 0.043-0.031 0.022-0.067 0.026-0.101 0.043-0.017 0.009-0.031 0.021-0.048 0.030-0.017 0.010-0.037 0.016-0.054 0.027-0.077 0.056-0.155 0.11-0.238 0.159-0.023 0.014-0.039 0.034-0.061 0.050-0.012 0.010-0.023 0.013-0.036 0.019-0.023 0.013-0.041 0.031-0.066 0.044-0.019 0.010-0.043 0.021-0.059 0.035s-0.027 0.023-0.049 0.031c-0.013 0.005-0.022 0.009-0.035 0.017-0.027 0.017-0.061 0.017-0.090 0.030-0.025 0.012-0.028 0.028-0.025 0.056 0.003 0.025 0.003 0.043 0.001 0.067-0.001 0.044 0.006 0.101 0.018 0.146 0.009 0.034 0.028 0.068 0.040 0.102 0.008 0.021 0.009 0.039 0.013 0.058-0.008-0.019-0.014-0.032-0.013-0.021 0.004 0.023 0.017 0.049 0.018 0.072 0.001 0.016-0.003 0.025 0.005 0.040 0.009 0.023 0.008 0.041 0.014 0.066 0 0.001 0 0.005 0.001 0.009-0.005-0.006-0.009-0.013-0.014-0.018-0.013-0.013-0.023-0.025-0.036-0.037-0.014-0.016-0.037-0.023-0.052-0.037-0.016-0.016-0.019-0.034-0.036-0.048-0.019-0.017-0.025-0.030-0.032-0.052-0.012-0.031 0.049 0.136 0.023 0.098-0.021-0.031-0.040-0.050-0.054-0.085-0.008-0.019-0.016-0.028-0.027-0.045-0.012-0.018-0.013-0.037-0.023-0.054-0.009-0.016-0.022-0.025-0.030-0.043s-0.014-0.037-0.022-0.057c-0.013-0.035-0.023-0.080-0.045-0.111-0.036 0-0.075 0.019-0.108 0.028-0.023 0.006-0.046 0.013-0.070 0.019-0.030 0.008-0.052 0.017-0.084 0.012-0.030-0.006-0.044 0.001-0.072 0.008-0.022 0.004-0.043 0-0.065 0.005-0.023 0.005-0.046 0.012-0.068 0.018-0.026 0.009-0.049 0.025-0.072 0.036-0.021 0.010-0.049 0.026-0.062 0.045-0.026 0.043-0.005 0.096-0.005 0.142-0.001 0.054 0.016 0.108 0.019 0.164 0.001 0.023 0.010 0.041 0.014 0.065 0.003 0.008-0.001 0.017 0 0.027 0.001 0.013 0.005 0.030 0.008 0.044 0.008 0.037-0.074-0.13-0.070-0.103 0 0.004 0 0.009 0.001 0.013-0.008-0.003-0.010-0.012-0.018-0.023-0.018-0.034 0.021 0.127-0.001 0.077-0.023-0.049-0.061-0.074-0.092-0.115s-0.048-0.087-0.085-0.125c-0.044-0.046-0.093-0.080-0.143-0.117-0.049-0.039-0.093-0.077-0.149-0.106-0.065-0.034-0.132-0.063-0.203-0.075-0.083-0.014-0.163-0.050-0.244-0.072-0.079-0.021-0.128-0.014-0.201 0.006-0.037 0.010-0.077 0.019-0.115 0.032-0.025 0.008-0.036 0.022-0.058 0.034s-0.050 0.009-0.071 0.022c-0.039 0.023-0.068 0.056-0.108 0.076-0.043 0.022-0.075 0.053-0.116 0.076-0.041 0.025-0.089 0.043-0.13 0.066-0.045 0.026-0.089 0.061-0.13 0.093-0.066 0.050-0.127 0.13-0.179 0.191s-0.12 0.106-0.179 0.16c-0.071 0.063-0.108 0.163-0.16 0.241-0.044 0.067-0.072 0.146-0.108 0.218-0.023 0.045-0.039 0.094-0.059 0.141-0.010 0.027-0.093-0.13-0.103-0.108-0.009 0.022-0.021 0.043-0.035 0.065-0.010 0.018-0.013 0.041-0.017 0.061-0.010 0.040-0.003 0.086 0.006 0.125 0.004 0.021 0.001 0.043 0.008 0.063 0.016 0.053 0.056 0.094 0.074 0.146 0.010 0.027 0.027 0.041 0.043 0.065 0.013 0.021 0.019 0.041 0.035 0.062 0.034 0.044 0.074 0.089 0.102 0.136 0.016 0.023 0.025 0.039 0.048 0.059 0.016 0.014 0.019 0.023 0.027 0.041 0.010 0.023 0.027 0.026 0.048 0.041 0.025 0.021 0.046 0.048 0.065 0.072 0.040 0.050 0.106 0.080 0.155 0.125 0.037 0.035 0.061 0.068 0.106 0.098 0.037 0.025 0.074 0.040 0.119 0.056 0.046 0.016 0.094 0.019 0.143 0.031 0.017 0.003 0.031 0.009 0.049 0.010 0.010 0 0.022-0.005 0.031-0.004 0.017 0 0.027 0.010 0.044 0.009 0.027-0.001 0.052-0.018 0.080-0.021 0.022 0.035 0.030 0.077 0.046 0.114 0.023 0.049 0.045 0.106 0.075 0.151 0.006 0.009 0.014 0.017 0.022 0.025 0.040 0.021 0.076 0.044 0.108 0.075 0.085 0.086 0.125 0.195 0.128 0.306 0.008 0.009 0.014 0.019 0.023 0.028 0.030 0.032 0.041 0.068 0.065 0.105 0.041 0.063 0.11 0.12 0.176 0.169 0.031 0.025 0.061 0.052 0.090 0.077 0.021 0.018 0.046 0.034 0.065 0.052 0.044 0.045 0.080 0.099 0.13 0.139 0.022 0.018 0.048 0.039 0.072 0.053 0.028 0.017 0.046 0.031 0.068 0.052 0.035 0.031 0.076 0.052 0.117 0.076 0.044 0.027 0.079 0.063 0.128 0.088 0.058 0.031 0.12 0.058 0.178 0.089 0.041 0.021 0.092 0.041 0.138 0.054 0.027 0.009 0.063 0.013 0.093 0.016 0.030 0.004 0.057 0.013 0.086 0.016 0.017 0.001 0.037-0.005 0.056-0.003 0.014 0.001 0.034 0.012 0.046 0.016 0.045 0.013 0.092 0.023 0.136 0.036 0.077 0.022 0.163 0.014 0.24 0.030 0.048 0.009 0.090 0.016 0.141 0.018 0.068 0.005 0.134 0.012 0.204 0.013 0.080 0.003 0.16 0.003 0.24 0.005 0.127 0.004 0.25-0.006 0.377-0.003 0.053 0.001 0.107 0 0.159-0.001 0.040 0 0.076-0.008 0.115-0.012 0.044-0.003 0.071 0.003 0.115-0.009 0.016-0.005 0.032-0.009 0.048-0.014 0.075-0.021 0.15-0.041 0.223-0.062 0.145-0.041 0.287-0.086 0.416-0.154 0.070-0.036 0.139-0.057 0.195-0.11 0.014-0.016 0.027-0.031 0.045-0.044 0.023-0.017 0.048-0.025 0.068-0.044 0.018-0.017 0.045-0.034 0.059-0.053 0.021-0.023 0.027-0.043 0.054-0.066 0.032-0.028 0.067-0.049 0.116-0.056 0.068-0.008 0.136 0.006 0.203 0.001 0.023-0.001 0.043-0.008 0.066-0.006 0.021 0 0.040 0.004 0.061 0.004 0.052 0.001 0.101 0.005 0.151 0.014 0.035 0.006 0.081 0.014 0.117 0.013 0.022 0 0.040-0.006 0.062-0.005 0.023 0.001 0.044 0.004 0.066 0.004 0.049-0.003 0.101-0.023 0.146-0.035 0.093-0.027 0.186-0.053 0.279-0.079 0.061-0.017 0.111-0.037 0.169-0.061 0.053-0.019 0.103-0.030 0.154-0.057 0.040-0.022 0.083-0.044 0.119-0.068 0.026-0.017 0.054-0.022 0.081-0.036 0.028-0.014 0.050-0.035 0.077-0.050 0.019-0.009 0.039-0.017 0.057-0.026 0.034-0.017 0.057-0.040 0.085-0.063 0.026-0.022 0.053-0.030 0.083-0.046 0.030-0.019 0.055-0.044 0.085-0.063 0.085-0.058 0.138-0.13 0.19-0.205 0.027-0.037 0.055-0.075 0.084-0.112-0.023-0.058-0.047-0.116-0.068-0.174-0.010-0.026-0.016-0.059-0.031-0.083-0.012-0.017-0.028-0.026-0.037-0.045-0.008-0.016-0.013-0.034-0.019-0.050-0.028-0.071-0.059-0.132-0.049-0.208 0.003-0.025 0.001-0.048 0.005-0.071 0.005-0.028 0.004-0.063 0.013-0.089 0.014-0.040 0.036-0.089 0.058-0.128 0.019-0.035 0.050-0.067 0.072-0.103 0.017-0.027 0.036-0.057 0.063-0.080 0.036-0.032 0.084-0.056 0.12-0.089 0.027-0.025 0.050-0.049 0.080-0.075 0.021-0.016 0.055-0.040 0.068-0.057 0.016-0.018 0.012-0.016 0.001-0.043-0.009-0.027-0.001-0.048-0.001-0.076 0.001-0.037-0.017-0.066-0.009-0.105 0.008-0.052 0.016-0.102 0.034-0.152 0.010-0.028 0.030-0.045 0.048-0.071 0.025-0.035 0.032-0.070 0.065-0.103 0.018-0.019 0.032-0.036 0.049-0.057 0.013-0.014 0.034-0.023 0.047-0.036 0.017-0.017 0.025-0.032 0.044-0.048 0.032-0.026 0.061-0.057 0.097-0.080 0.037-0.023 0.075-0.032 0.099-0.063 0.001-0.001 0.003-0.001 0.003-0.003 0.012-0.014 0.016-0.031 0.016-0.048 0-0.058-0.050-0.127-0.067-0.178-0.009-0.026-0.009-0.050-0.013-0.076s-0.021-0.048-0.027-0.072c-0.017-0.061-0.023-0.127-0.035-0.189-0.005-0.026-0.003-0.049-0.013-0.075-0.005-0.016-0.016-0.031-0.021-0.048-0.010-0.032 0.005-0.065 0-0.098-0.005-0.021-0.013-0.036-0.014-0.057-0.001-0.061-0.021-0.119-0.014-0.178 0.008-0.061 0.001-0.12 0.008-0.181 0.009-0.089 0.023-0.17 0.059-0.257 0.018-0.044 0.027-0.089 0.041-0.129 0.001-0.006 0.014-0.016 0.018-0.022 0.008-0.016 0.001-0.034 0.009-0.049 0.010-0.025 0.030-0.049 0.043-0.074 0.022-0.040 0.061-0.072 0.081-0.114 0.019-0.041 0.053-0.071 0.085-0.107 0.081-0.092 0.192-0.136 0.316-0.179 0.050-0.018 0.187 0.146 0.231 0.114-0.034-0.045-0.087-0.081-0.12-0.125z"></path>
<path d="M12.105 8.051c-0.003 0-0.004 0-0.006-0.001l0.013-0.003c-0.003 0.001-0.004 0.004-0.006 0.004z"></path>
</svg>
