<!-- Generated by IcoMoon.io -->
<svg version="1.1" xmlns="http://www.w3.org/2000/svg" width="32" height="32" viewBox="0 0 32 32">
<path d="M25.794 23.583c-0.042-0.224-0.238-0.337-0.248-0.564-0.006-0.129 0.028-0.276 0.006-0.402-0.031-0.179-0.086-0.293-0.084-0.484 0.004-0.489-0.083-0.96-0.080-1.448 0.004-0.84 0-1.679 0-2.52 0-0.177 0.013-0.361 0.001-0.54-0.011-0.198-0.077-0.383-0.084-0.585-0.017-0.475 0.003-0.958 0.003-1.434v-2.654c0-0.383 0.003-0.765 0-1.146-0.001-0.19 0.049-0.284 0.084-0.461 0.035-0.184-0.004-0.415-0.004-0.606 0-0.797 0.091-1.578 0.080-2.375-0.001-0.18 0.073-0.311 0.083-0.484 0.007-0.131-0.001-0.267-0.003-0.399 0-0.236-0.003-0.429-0.062-0.647-0.044-0.159 0.006-0.323-0.037-0.484-0.072-0.277-0.145-0.593-0.142-0.886 0-0.132 0.008-0.27 0.001-0.402-0.011-0.197-0.083-0.356-0.083-0.564 0.001-0.17 0.003-0.27 0.062-0.425 0.035-0.096 0.177-0.354 0.087-0.449-0.039-0.042-0.359-0.034-0.397-0.018-0.132 0.058-0.020 0.058-0.070 0.167-0.062 0.135-0.086 0.118-0.207 0.201-0.104 0.070-0.205 0.136-0.298 0.2-0.121 0.082-0.236 0.191-0.367 0.267-0.127 0.075-0.25 0.128-0.375 0.215-0.139 0.098-0.256 0.195-0.383 0.302-0.184 0.156-0.224 0.179-0.226 0.425-0.001 0.134 0 0.269 0 0.402v2.108c0 0.181 0.013 0.367 0.003 0.548-0.014 0.228-0.084 0.429-0.083 0.664 0.001 0.19 0.010 0.377-0.018 0.564-0.042 0.281-0.136 0.551-0.143 0.837-0.006 0.321-0.017 0.672-0.077 0.984-0.023 0.111-0.070 0.2-0.105 0.307-0.066 0.207-0.060 0.404-0.059 0.617 0.006 0.686 0 1.373 0.001 2.059 0 0.321-0.014 0.644-0.004 0.963 0.008 0.28 0.080 0.543 0.086 0.82 0.006 0.246-0.015 0.46 0.056 0.698 0.134 0.442 0.063 0.865 0.12 1.316 0.066 0.525 0.229 0.998 0.225 1.53-0.007 0.861 0 1.721 0 2.582 0 1.282-0.323 2.513-0.481 3.763-0.044 0.354-0.087 0.686-0.083 1.042 0.004 0.364-0.083 0.71-0.080 1.073 0.004 0.477-0.018 0.958-0.003 1.433 0.257 0.076 0.667-0.025 0.924-0.089 0.2-0.049 0.388-0.141 0.585-0.204 0.384-0.121 0.751-0.174 1.312-0.1 0-0.615-0.035-1.24-0.001-1.852 0.010-0.18 0.069-0.368 0.1-0.548 0.004-0.024 0.058-0.063 0.067-0.108 0.025-0.122-0.015-0.248 0.014-0.374 0.096-0.415 0.183-0.823 0.285-1.225 0.035-0.135-0.010-0.27 0.014-0.402 0.017-0.094 0.070-0.162 0.089-0.256 0.027-0.132-0.004-0.319-0.004-0.453 0-0.148 0.032-0.35 0.004-0.499z"></path>
<path d="M9.281 13.077c0.004-0.478-0.194-0.887-0.246-1.35-0.027-0.24 0.017-0.468-0.035-0.706-0.052-0.233-0.041-0.464-0.041-0.706 0-0.35 0-0.678-0.062-1.015-0.031-0.165-0.020-0.335-0.018-0.505 0.001-0.197-0.056-0.322-0.084-0.505-0.028-0.176-0.049-0.322-0.097-0.502-0.045-0.172-0.082-0.342-0.122-0.509-0.076-0.301-0.021-0.7-0.018-1.013 0.003-0.467-0.231-0.586-0.485-0.931-0.169-0.226-0.37-0.398-0.579-0.568-0.152-0.124-0.292-0.201-0.428-0.357-0.097-0.111-0.197-0.21-0.3-0.316-0.108-0.113-0.212-0.235-0.305-0.36-0.093-0.128-0.262-0.361-0.384-0.418-0.084 0.28-0.016 0.641-0.016 0.931v1.076c0 0.501 0.024 0.977 0.097 1.468 0.055 0.357 0.12 0.721 0.143 1.083 0.013 0.172 0.066 0.329 0.082 0.503 0.021 0.239 0.115 0.43 0.173 0.668 0.059 0.242 0.053 0.481 0.108 0.717 0.046 0.2 0.027 0.38 0.037 0.586 0.017 0.353 0.117 0.709 0.166 1.059 0.096 0.693 0.052 1.365 0.076 2.059 0.010 0.246 0.079 0.478 0.087 0.726 0.011 0.363-0.003 0.728-0.003 1.091v1.567c0 0.319-0.001 0.638 0.001 0.959 0.003 0.242-0.070 0.45-0.084 0.685-0.021 0.356 0.048 0.728 0.006 1.081-0.018 0.16-0.077 0.295-0.086 0.458-0.011 0.222 0.001 0.45 0.001 0.672 0 0.224 0.027 0.473 0.003 0.695-0.013 0.122-0.072 0.218-0.086 0.34-0.062 0.506 0.069 1.041 0.007 1.545-0.079 0.634-0.312 1.256-0.395 1.894-0.062 0.487 0.018 0.991-0.007 1.479-0.011 0.204-0.070 0.394-0.083 0.596-0.022 0.332-0.055 0.667-0.093 0.998-0.030 0.259-0.034 0.532-0.066 0.786-0.021 0.166-0.174 0.335-0.010 0.426 0.084 0.046 0.388-0.006 0.475-0.006h0.747c0.346 0 0.692 0 1.118-0.084-0.093-0.079-0.041-0.155-0.097-0.236-0.032-0.048-0.090-0.073-0.124-0.118-0.105-0.139-0.156-0.314-0.181-0.484-0.105-0.714-0.163-1.468-0.16-2.194 0-0.283-0.011-0.568-0.003-0.851 0.010-0.263 0.087-0.488 0.083-0.755-0.013-0.759 0.231-1.543 0.357-2.285 0.113-0.647 0.228-1.29 0.352-1.934 0.030-0.152 0.001-0.29 0.011-0.44 0.013-0.165 0.069-0.312 0.107-0.468 0.067-0.271 0.039-0.522 0.077-0.796 0.083-0.606 0.153-1.249 0.285-1.835 0.093-0.411 0.020-0.937 0.018-1.357-0.001-0.383 0.080-0.74 0.080-1.122 0.001-0.475-0.004-0.951 0-1.425z"></path>
<path d="M22.681 4.598c0.146-0.163 0.391-0.326 0.57-0.463 0.201-0.152 0.465-0.183 0.675-0.322 0.232-0.155 0.539-0.255 0.737-0.449-1.374 0.093-2.777 0.006-4.157 0.006-0.586 0-1.173-0.004-1.759 0-0.202 0.001-0.352-0.024-0.544-0.063-0.236-0.046-0.489-0.018-0.73-0.017-0.228 0-0.457 0.010-0.683 0.001-0.273-0.010-0.51-0.082-0.793-0.083-0.498 0-0.996 0-1.492 0-2.513 0-5.025 0-7.957-0.16l-0.076 0.035c-0.056 0.24 0.383 0.397 0.548 0.495 0.212 0.127 0.422 0.288 0.598 0.456 0.108 0.104 0.305 0.229 0.392 0.349 0.076 0.103 0.027 0.165 0.044 0.276 0.018 0.117 0.108 0.259 0.173 0.356 0.156 0.236 0.307 0.208 0.578 0.21 0.619 0.006 1.254-0.152 1.856-0.274 0.809-0.163 1.607-0.129 2.429-0.129h1.484c0.277 0 0.595-0.039 0.873-0.004 0.322 0.041 0.592 0.084 0.924 0.084h2.766c1.048 0 2.107 0.038 3.153 0.001 0.152-0.006 0.172-0.003 0.273-0.103 0.063-0.063 0.069-0.145 0.12-0.201z"></path>
<path d="M17.818 27.147c0 0.073-0.001 0.146 0 0.221 0.001 0.114-0.034 0.208-0.060 0.318-0.032 0.129-0.060 0.255-0.121 0.375-0.023 0.044-0.063 0.083-0.083 0.127-0.023 0.046-0.024 0.079-0.058 0.121-0.024 0.030-0.058 0.056-0.080 0.086-0.105 0.132-0.246 0.224-0.356 0.356-0.056 0.069-0.125 0.113-0.195 0.162-0.058 0.038-0.105 0.091-0.166 0.134-0.086 0.059-0.167 0.083-0.264 0.117-0.096 0.035-0.186 0.093-0.281 0.132-0.044 0.018-0.084 0.021-0.127 0.035-0.037 0.011-0.062 0.039-0.098 0.049-0.073 0.021-0.15 0.017-0.225 0.035-0.321 0.076-0.671 0.048-1.004 0.048h-0.428c-0.146 0-0.343 0.031-0.484-0.006-0.063-0.018-0.114-0.053-0.17-0.086-0.103-0.060-0.243-0.075-0.339-0.149-0.030-0.024-0.048-0.059-0.077-0.083-0.032-0.025-0.070-0.044-0.104-0.066-0.101-0.067-0.202-0.135-0.3-0.208-0.062-0.046-0.108-0.103-0.149-0.166-0.062-0.093-0.077-0.191-0.125-0.29-0.021-0.044-0.056-0.087-0.069-0.134-0.011-0.044-0.007-0.086-0.018-0.129-0.021-0.080-0.034-0.16-0.053-0.24-0.020-0.079-0.041-0.117-0.041-0.201 0-0.076 0.010-0.131 0.028-0.202 0.015-0.067 0.048-0.145 0.053-0.214 0.006-0.087-0.001-0.176-0.001-0.263 0-0.032-0.010-0.082-0.003-0.113 0.017-0.067 0.087-0.113 0.111-0.18 0.024-0.066 0.038-0.134 0.038-0.204 0-0.083-0.010-0.166 0.004-0.249 0.013-0.077 0.058-0.139 0.079-0.214 0.062-0.221 0.052-0.495 0.146-0.699 0.080-0.177 0.127-0.184 0.122-0.392-0.001-0.103 0.001-0.205 0-0.308-0.003-0.297 0.148-0.463 0.174-0.752 0.025-0.283 0.091-0.536 0.087-0.831-0.004-0.24 0.091-0.423 0.086-0.66 0.101-0.177 0.346-0.134 0.609-0.093 0.127 0.020 0.226 0.108 0.342 0.159 0.135 0.059 0.397 0.069 0.492 0.194 0.107 0.141 0.035 0.529 0.035 0.707 0 0.256 0.017 0.505-0.044 0.748-0.129 0.527-0.052 1.192 0.045 1.718 0.034 0.191 0.001 0.165 0.215 0.173 0.155 0.006 0.276 0.025 0.397-0.084 0.193-0.174 0.174-0.38 0.17-0.62-0.004-0.248 0.089-0.446 0.086-0.699 0-0.136-0.011-0.276-0.003-0.412 0.010-0.148 0.076-0.263 0.094-0.406 0.034-0.249-0.051-0.522-0.008-0.769 0.007-0.042 0.077-0.314 0.107-0.339 0.058-0.051 0.224-0.013 0.288-0.013 0.499 0.001 0.934 0.346 1.128 0.83 0.058 0.146 0.037 0.246 0.044 0.401 0.007 0.124 0.055 0.191 0.082 0.308 0.045 0.198-0.021 0.415 0.004 0.616 0.020 0.143 0.087 0.249 0.093 0.397 0.006 0.117 0.001 0.188 0.038 0.304 0.044 0.136 0.117 0.293 0.114 0.44 0 0.038-0.013 0.076-0.010 0.115 0.003 0.058 0.035 0.101 0.058 0.152 0.031 0.065 0.046 0.135 0.076 0.2 0.020 0.044 0.034 0.090 0.053 0.139 0.011 0.031 0.018 0.048 0.020 0.082 0.003 0.037 0.015 0.059 0.021 0.086 0.025 0.12 0.006 0.267 0.006 0.391zM20.959 23.651c-0.008-0.105-0.056-0.2-0.055-0.311 0.003-0.089-0.018-0.166-0.034-0.253-0.015-0.089-0.027-0.19-0.062-0.273-0.041-0.093-0.086-0.186-0.127-0.278-0.015-0.034-0.014-0.066-0.025-0.101-0.010-0.035-0.037-0.065-0.045-0.1-0.017-0.063-0.039-0.125-0.056-0.188-0.015-0.056-0.015-0.118-0.032-0.174-0.011-0.038-0.042-0.066-0.049-0.107-0.004-0.025 0.001-0.055 0.001-0.080 0-0.067 0-0.135 0-0.201 0-0.055-0.007-0.108 0.013-0.16 0.011-0.035 0.030-0.063 0.039-0.098 0.037-0.132 0.051-0.266 0.082-0.398 0.013-0.053 0.025-0.105 0.038-0.157 0.027-0.108 0.055-0.214 0.083-0.321 0.014-0.053 0.027-0.107 0.041-0.162 0.004-0.015 0.024-0.060 0.017-0.075-0.003-0.003-0.018-0.010-0.023-0.014-0.006-0.004-0.011-0.010-0.015-0.017-0.006-0.007-0.007-0.015-0.011-0.024-0.001-0.001-0.006-0.004-0.007-0.006-0.004-0.006-0.006-0.015-0.010-0.023-0.003-0.004-0.007-0.007-0.010-0.011-0.008-0.013-0.014-0.025-0.024-0.038-0.015-0.017-0.037-0.032-0.055-0.045-0.013-0.007-0.024-0.011-0.038-0.015-0.013-0.006-0.025-0.007-0.039-0.013-0.010-0.003-0.020-0.011-0.028-0.014-0.006-0.001-0.010 0-0.015-0.001-0.008-0.003-0.010-0.008-0.017-0.013-0.023-0.017-0.038-0.037-0.052-0.060-0.015-0.025-0.024-0.053-0.030-0.080-0.007-0.028-0.020-0.055-0.028-0.083-0.006-0.021-0.004-0.044-0.010-0.065-0.003-0.013-0.004-0.021-0.010-0.034-0.010-0.023-0.004-0.053-0.004-0.077 0-0.034-0.007-0.063-0.007-0.097 0-0.015 0.003-0.032 0-0.045-0.001-0.013-0.010-0.020-0.013-0.031-0.003-0.008-0.001-0.017-0.001-0.025 0.001-0.024-0.007-0.044-0.007-0.066 0.001-0.025 0.007-0.058-0.001-0.082-0.006-0.015-0.014-0.023-0.017-0.038-0.001-0.010 0-0.020-0.001-0.031 0-0.027-0.008-0.053-0.013-0.079-0.003-0.014-0.007-0.025-0.007-0.039 0-0.010 0-0.017-0.001-0.027-0.003-0.015-0.003-0.031-0.007-0.046-0.003-0.015-0.013-0.028-0.017-0.044-0.004-0.011-0.003-0.027-0.010-0.037-0.014-0.021-0.045-0.035-0.067-0.044-0.030-0.013-0.060-0.013-0.093-0.020-0.013-0.003-0.021-0.011-0.034-0.013-0.015-0.001-0.032 0-0.048 0-0.014 0-0.032-0.003-0.045 0-0.014 0.003-0.028 0.003-0.035 0.015-0.001 0.003 0 0.008-0.001 0.011-0.003 0.024-0.003 0.048-0.004 0.072-0.003 0.038-0.008 0.077-0.017 0.115-0.034 0.155-0.075 0.309-0.104 0.465-0.028 0.145-0.087 0.28-0.148 0.416-0.031 0.073-0.083 0.124-0.121 0.191-0.034 0.060-0.044 0.157-0.108 0.195-0.028-0.072 0.013-0.159-0.017-0.235-0.023-0.056-0.042-0.083-0.044-0.145-0.001-0.067 0.001-0.136 0.001-0.204 0.001-0.056 0.003-0.107-0.015-0.162-0.014-0.041-0.039-0.079-0.053-0.12-0.028-0.089-0.003-0.184-0.031-0.276-0.018-0.063-0.051-0.129-0.062-0.194-0.006-0.025 0.007-0.053 0.003-0.079-0.007-0.048-0.042-0.079-0.055-0.124-0.015-0.053-0.001-0.131-0.001-0.187v-0.723c0-0.067 0.001-0.135-0.004-0.202-0.007-0.080-0.024-0.157-0.065-0.229-0.045-0.079-0.063-0.157-0.094-0.24-0.021-0.056-0.051-0.096-0.070-0.153-0.027-0.079-0.039-0.157-0.060-0.236-0.021-0.076-0.066-0.136-0.084-0.215-0.032-0.138-0.105-0.257-0.155-0.388-0.027-0.070-0.041-0.145-0.058-0.217-0.020-0.090-0.063-0.169-0.087-0.256-0.025-0.094-0.028-0.193-0.098-0.267-0.117-0.125-0.212-0.023-0.345 0.079-0.132 0.104-0.243 0.256-0.377 0.347-0.087 0.058-0.173 0.059-0.25 0.136-0.084 0.083-0.089 0.188-0.222 0.215-0.035-0.155-0.131-0.336-0.159-0.468-0.052-0.245 0.006-0.404-0.118-0.633-0.097-0.177-0.232-0.264-0.429-0.204-0.058 0.018-0.079 0.010-0.121 0.048-0.025 0.024-0.065 0.097-0.087 0.129-0.035 0.053-0.066 0.12-0.104 0.176-0.083 0.125-0.18 0.243-0.252 0.375-0.035 0.063-0.079 0.111-0.122 0.17-0.041 0.058-0.063 0.122-0.1 0.181-0.015 0.024-0.056 0.135-0.086 0.142-0.076 0.020-0.087-0.131-0.103-0.172-0.048-0.131-0.11-0.257-0.16-0.388-0.013-0.034-0.039-0.066-0.049-0.101-0.010-0.037 0.003-0.070-0.003-0.107-0.010-0.062-0.055-0.11-0.076-0.167-0.020-0.052-0.021-0.11-0.038-0.16-0.013-0.038-0.039-0.069-0.051-0.11-0.007-0.025-0.010-0.052-0.018-0.079-0.018-0.056-0.034-0.103-0.034-0.162 0.001-0.056 0.011-0.131-0.006-0.184-0.063 0.010-0.128 0.183-0.162 0.236-0.096 0.153-0.187 0.308-0.263 0.471-0.023 0.048-0.055 0.086-0.080 0.135-0.031 0.060-0.045 0.128-0.079 0.188-0.028 0.048-0.069 0.087-0.098 0.135-0.052 0.082-0.075 0.165-0.138 0.243-0.051-0.046-0.059-0.148-0.087-0.21-0.025-0.058-0.028-0.111-0.039-0.172-0.028-0.142-0.075-0.28-0.094-0.423-0.018-0.125-0.077-0.248-0.082-0.373-0.004-0.105-0.011-0.219-0.039-0.316-0.035-0.124-0.048-0.409-0.207-0.429-0.114-0.014-0.27-0.003-0.345 0.094-0.069 0.087-0.073 0.215-0.104 0.319-0.048 0.165-0.167 0.285-0.214 0.45-0.027 0.098-0.070 0.197-0.090 0.295-0.010 0.051-0.027 0.103-0.041 0.15-0.017 0.053-0.023 0.11-0.039 0.162-0.014 0.041-0.044 0.069-0.063 0.105-0.046 0.091-0.067 0.174-0.087 0.274-0.025 0.131 0.015 0.277-0.059 0.399-0.030 0.051-0.055 0.073-0.073 0.131-0.017 0.051-0.020 0.105-0.037 0.155-0.023 0.065-0.073 0.117-0.091 0.188-0.023 0.082-0.060 0.162-0.082 0.243-0.017 0.063-0.024 0.134-0.037 0.2-0.010 0.045 0.003 0.090-0.003 0.136-0.003 0.038-0.017 0.069-0.025 0.107-0.011 0.058 0.004 0.115-0.007 0.174-0.010 0.048-0.021 0.084-0.021 0.134-0.003 0.083-0.024 0.157-0.041 0.239-0.007 0.030-0.007 0.067-0.018 0.096-0.011 0.034-0.039 0.059-0.052 0.096-0.017 0.049-0.011 0.101-0.023 0.148-0.008 0.037-0.032 0.063-0.027 0.103-0.079-0.402-0.108-0.806-0.108-1.216 0-0.107 0.011-0.221-0.003-0.328-0.006-0.048-0.025-0.089-0.039-0.134-0.017-0.058-0.011-0.114-0.011-0.174 0-0.11-0.007-0.2-0.025-0.305-0.015-0.105-0.051-0.208-0.056-0.315-0.003-0.077-0.023-0.143-0.025-0.219-0.003-0.060-0.025-0.12-0.030-0.18-0.003-0.055 0.011-0.113 0.003-0.167-0.006-0.045-0.025-0.082-0.030-0.127-0.003-0.055 0.008-0.107-0.004-0.162-0.017-0.073-0.021-0.141-0.021-0.218v-0.44c0-0.087-0.020-0.156-0.028-0.24-0.006-0.060 0.001-0.125 0.001-0.187 0-0.066 0.017-0.155-0.013-0.215-0.048-0.101-0.139-0.134-0.246-0.162-0.094-0.025-0.18-0.017-0.226 0.077-0.045 0.093-0.062 0.202-0.101 0.298-0.058 0.142-0.011 0.285-0.045 0.43-0.056 0.243-0.162 0.485-0.285 0.69-0.179-0.263-0.242-0.603-0.354-0.897-0.037-0.094-0.11-0.183-0.134-0.288-0.023-0.098 0.007-0.235-0.101-0.28 0.020 0.169-0.051 0.281-0.082 0.436-0.030 0.149 0.004 0.336 0.004 0.489v0.643c0 0.43-0.003 0.861 0 1.291 0.001 0.231-0.070 0.423-0.083 0.641-0.010 0.193 0.003 0.39 0.003 0.582 0 0.132 0.003 0.266 0.001 0.398-0.003 0.193-0.060 0.343-0.084 0.53-0.031 0.225-0.080 0.434-0.079 0.664 0.001 0.222-0.001 0.444 0 0.667 0.001 0.291-0.070 0.505-0.143 0.779-0.067 0.259 0.028 0.534-0.035 0.796-0.052 0.21-0.063 0.375-0.063 0.595v1.371c0 0.212-0.015 0.432 0.018 0.638 0.037 0.225 0.056 0.584 0.201 0.768 0.125-0.146 0.193-0.361 0.283-0.534 0.075-0.146 0.117-0.291 0.18-0.442 0.038-0.089 0.104-0.162 0.145-0.249 0.025-0.056 0.027-0.113 0.038-0.173 0.034-0.181 0.183-0.304 0.257-0.467 0.027-0.058 0.018-0.125 0.044-0.179 0.021-0.042 0.037-0.039 0.044-0.086 0.006-0.038 0.010-0.069 0.020-0.107 0.021-0.091 0.024-0.187 0.052-0.278 0.021-0.066 0.049-0.111 0.060-0.179 0.020-0.125 0.098-0.242 0.156-0.349s0.077-0.231 0.12-0.343c0.039-0.111 0.103-0.224 0.162-0.323 0.038-0.065 0.072-0.122 0.1-0.193 0.030-0.069 0.039-0.151 0.072-0.214 0.020-0.035 0.052-0.065 0.070-0.101 0.028-0.056 0.042-0.121 0.067-0.179 0.031-0.070 0.032-0.117 0.032-0.19 0 0.134-0.023 0.297 0.006 0.427 0.030 0.134 0.048 0.257 0.048 0.395 0 0.082-0.001 0.163 0 0.243 0.003 0.083 0.051 0.136 0.055 0.214 0.004 0.065 0.018 0.122 0.032 0.187 0.017 0.076 0.008 0.153 0.023 0.229 0.025 0.124 0.055 0.25 0.077 0.367 0.014 0.073 0.062 0.145 0.089 0.215 0.030 0.076 0.020 0.156 0.020 0.236v0.539c0 0.093 0.003 0.176-0.025 0.266-0.017 0.055-0.038 0.108-0.055 0.162-0.013 0.041-0.020 0.083-0.058 0.107-0.027 0.017-0.058 0.006-0.075 0.037-0.013 0.023-0.003 0.097-0.003 0.117-0.001 0.062-0.006 0.122-0.013 0.183-0.014 0.138-0.042 0.273-0.075 0.408-0.063 0.25-0.146 0.494-0.217 0.742-0.052 0.186-0.065 0.419-0.156 0.586-0.030 0.051-0.065 0.111-0.105 0.153-0.030 0.028-0.066 0.045-0.091 0.076-0.073 0.084-0.093 0.211-0.121 0.316-0.013 0.048-0.046 0.097-0.055 0.148-0.007 0.041 0.001 0.093 0.001 0.134v0.269c0 0.084-0.017 0.186-0.001 0.269 0.008 0.049 0.028 0.082 0.028 0.134-0.001 0.039-0.006 0.083-0.001 0.121 0.010 0.075 0.028 0.159 0.055 0.229 0.035 0.091 0.062 0.188 0.121 0.267 0.052 0.070 0.098 0.134 0.127 0.215 0.034 0.093 0.070 0.19 0.101 0.281 0.027 0.075 0.038 0.153 0.059 0.229 0.028 0.097 0.113 0.184 0.163 0.267 0.053 0.086 0.082 0.162 0.167 0.226 0.15 0.113 0.248 0.284 0.392 0.404 0.062 0.051 0.142 0.101 0.211 0.142 0.037 0.023 0.072 0.044 0.108 0.060 0.045 0.023 0.077 0.059 0.122 0.082 0.101 0.051 0.225 0.067 0.335 0.080 0.072 0.007 0.143 0.055 0.219 0.075 0.067 0.017 0.143 0.015 0.211 0.039 0.037 0.013 0.066 0.042 0.105 0.048 0.11 0.020 0.242 0.038 0.353 0.017 0.046-0.007 0.090-0.017 0.138-0.018 0.304-0.015 0.613-0.001 0.918 0 0.269 0.001 0.508-0.060 0.772-0.084 0.232-0.020 0.356-0.014 0.575-0.098 0.118-0.045 0.231-0.034 0.346-0.065 0.083-0.023 0.129-0.087 0.2-0.117 0.146-0.062 0.298-0.056 0.436-0.167 0.224-0.181 0.405-0.357 0.57-0.589 0.277-0.39 0.539-1.034 0.544-1.513 0.006-0.592-0.105-1.177-0.096-1.768 0-0.018 0.001-0.035 0-0.052-0.001-0.218-0.034-0.432-0.069-0.645-0.030-0.183-0.051-0.366-0.114-0.54-0.11-0.308-0.045-0.64 0.091-0.932 0.031-0.066 0.075-0.12 0.108-0.187 0.028-0.052 0.039-0.11 0.065-0.163 0.042-0.086 0.063-0.183 0.108-0.267 0.020-0.038 0.052-0.077 0.067-0.118 0.021-0.053 0.053-0.113 0.062-0.169 0.007-0.055-0.001-0.118-0.001-0.174v-0.757c0-0.132-0.023-0.29 0.004-0.418 0.087-0.059 0.255 0.416 0.264 0.491 0.013 0.084 0.041 0.17 0.072 0.252 0.025 0.063 0.062 0.118 0.087 0.179 0.020 0.046 0.020 0.1 0.035 0.148 0.024 0.077 0.056 0.153 0.072 0.229 0.017 0.083-0.014 0.173 0.008 0.255 0.037 0.134 0.021 0.285 0.021 0.427v0.484c0 0.159-0.017 0.33 0.021 0.482 0.024 0.098 0.006 0.221 0.006 0.323 0 0.094 0.017 0.169 0.028 0.26 0.010 0.077-0.001 0.167-0.001 0.245-0.001 0.049 0.011 0.084 0.021 0.132 0.011 0.062 0.006 0.124 0.010 0.187 0 0.015-0.003 0.048 0.013 0.059 0.017 0.011 0.038-0.004 0.053-0.011 0.011-0.006 0.024-0.004 0.035-0.008 0.008-0.003 0.017-0.014 0.025-0.020 0.018-0.011 0.034-0.015 0.051-0.031 0.020-0.020 0.034-0.042 0.051-0.063 0.010-0.011 0.025-0.020 0.035-0.034 0.008-0.013 0.017-0.027 0.025-0.039 0.015-0.028 0.027-0.059 0.039-0.089 0.021-0.045 0.038-0.094 0.052-0.142 0.006-0.021 0.013-0.041 0.020-0.062 0.007-0.020 0.006-0.041 0.011-0.062 0.004-0.011 0.013-0.020 0.015-0.031 0.006-0.017 0-0.034 0.008-0.051 0.025-0.058 0.052-0.138 0.055-0.201 0.001-0.056 0.031-0.11 0.044-0.165 0.007-0.038 0.021-0.073 0.030-0.11 0.008-0.041 0.028-0.079 0.035-0.121 0.007-0.045 0.007-0.093 0.023-0.136 0.010-0.028 0.013-0.055 0.025-0.083 0.015-0.034 0.035-0.062 0.042-0.097 0.007-0.030 0.008-0.058 0.013-0.087 0.003-0.025 0.017-0.045 0.024-0.069 0.008-0.031 0.013-0.066 0.015-0.097 0.003-0.027-0.001-0.048 0.010-0.072 0.010-0.021 0.020-0.037 0.023-0.059 0.001-0.017-0.004-0.032 0.008-0.048 0.006 0 0.024 0.055 0.028 0.066 0.010 0.023 0.020 0.048 0.031 0.070 0.024 0.052 0.051 0.101 0.075 0.152 0.017 0.037 0.032 0.075 0.051 0.11 0.011 0.023 0.017 0.048 0.030 0.067 0.023 0.037 0.049 0.067 0.069 0.107 0.011 0.023 0.025 0.045 0.038 0.067 0.021 0.041 0.049 0.079 0.070 0.121 0.010 0.021 0.018 0.045 0.032 0.065 0.017 0.024 0.030 0.055 0.051 0.076 0.015 0.017 0.034 0.032 0.048 0.052 0.015 0.024 0.028 0.049 0.052 0.066 0.021 0.015 0.037 0.032 0.063 0.032 0.025 0.001 0.072 0.010 0.096-0.006 0.020-0.013 0.025-0.049 0.031-0.069 0.032-0.103 0.056-0.208 0.063-0.316 0.007-0.138-0.001-0.278-0.001-0.418 0-0.065 0.007-0.135 0.001-0.2z"></path>
<path d="M21.805 17.078c-0.011-0.039-0.008-0.069-0.025-0.107-0.037-0.084-0.084-0.134-0.157-0.186-0.129-0.090-0.312-0.191-0.48-0.191-0.083 0.001-0.163-0.006-0.242 0.014-0.082 0.020-0.151 0.007-0.228 0.046-0.1 0.052-0.169 0.093-0.219 0.194-0.028 0.058-0.077 0.115-0.098 0.174-0.014 0.042-0.025 0.202-0.001 0.238 0.018 0.025 0.089 0.042 0.117 0.058 0.001 0.001 0.003 0.001 0.003 0.003 0.031 0.001 0.076 0.015 0.145 0.052-0.062 0.013-0.096-0.024-0.145-0.052-0.065-0.004-0.060 0.055-0.042 0.12 0.011 0.045 0.025 0.086 0.027 0.132 0.003 0.052-0.011 0.113 0.001 0.163 0.018 0.073 0.087 0.16 0.149 0.198 0.018 0.013 0.042 0.014 0.065 0.028 0.024 0.015 0.039 0.041 0.066 0.056 0.046 0.027 0.090 0.021 0.135 0.041 0.059 0.027 0.089 0.060 0.162 0.066 0.034 0.003 0.072-0.001 0.107-0.001 0.090 0 0.167 0 0.255-0.027 0.113-0.034 0.202-0.079 0.297-0.148 0.037-0.028 0.077-0.056 0.107-0.094 0.032-0.041 0.037-0.083 0.059-0.128 0.030-0.059 0.046-0.072 0.048-0.139 0-0.045 0-0.091 0-0.136 0-0.090-0.007-0.151-0.034-0.233-0.015-0.049-0.055-0.091-0.069-0.141z"></path>
<path d="M20.618 17.374c-0.069-0.037-0.114-0.051-0.145-0.052 0.049 0.028 0.082 0.065 0.145 0.052z"></path>
<path d="M13.65 13.019c0.006-0.032-0.014-0.069-0.046-0.104 0.001 0.042 0.010 0.080 0.046 0.104z"></path>
<path d="M17.095 6.632c-0.101-0.053-0.202-0.087-0.309-0.115-0.042-0.010-0.080-0.003-0.122-0.004-0.048-0.003-0.086-0.025-0.134-0.030-0.038-0.004-0.070 0.004-0.108-0.004-0.048-0.011-0.083-0.022-0.134-0.021-0.086 0.001-0.16-0.025-0.243-0.028-0.087-0.003-0.174 0.001-0.262 0.001h-1.271c-0.041 0.006-0.072 0.014-0.118 0.027-0.053 0.014-0.104 0.001-0.158 0.014 0.006 0.149 0.072 0.302 0.079 0.456 0.004 0.107-0.001 0.215-0.001 0.322v1.731h0.662c0.148 0 0.305-0.020 0.45 0.006 0.173 0.031 0.343 0.014 0.519 0.020 0.128 0.006 0.253 0.030 0.383 0.028 0.090 0 0.165 0.030 0.253 0.028 0.079-0.003 0.089 0.028 0.162 0.048 0.049 0.014 0.104 0.011 0.155 0.025 0.105 0.025 0.214 0.046 0.316 0.080 0.003-0.838 0-1.675-0.001-2.513-0.038-0.024-0.076-0.049-0.117-0.070z"></path>
<path d="M17.211 9.792c-0.083-0.014-0.167-0.011-0.249-0.032-0.075-0.018-0.142-0.053-0.219-0.055-0.044-0.001-0.082 0.003-0.124-0.006-0.132-0.027-0.266-0.030-0.399-0.055-0.131-0.024-0.262-0.046-0.392-0.067-0.132-0.023-0.276-0.006-0.411-0.006h-0.325c-0.082 0-0.148-0.010-0.225-0.024-0.179-0.035-0.367-0.037-0.553-0.034v0.236c0 0.129-0.030 0.24-0.042 0.367-0.024 0.249 0.001 0.519 0.001 0.769v0.719c0.014-0.013 0.027-0.025 0.045-0.034 0.042-0.023 0.084-0.046 0.125-0.073 0.094-0.059 0.197-0.094 0.295-0.139 0.018-0.008 0.039-0.025 0.059-0.031 0.021-0.006 0.039 0 0.059-0.010 0.041-0.023 0.077-0.034 0.125-0.032 0.132 0.001 0.273-0.013 0.404 0.008 0.082 0.014 0.165 0.027 0.246 0.038 0.049 0.007 0.098 0.020 0.148 0.021 0.037 0 0.053 0.006 0.089 0.020 0.049 0.021 0.1 0.015 0.152 0.023 0.1 0.014 0.194 0.056 0.288 0.089 0.046 0.014 0.091 0.032 0.135 0.049 0.041 0.015 0.062 0.038 0.096 0.060 0.046 0.032 0.104 0.051 0.149 0.084 0.020 0.014 0.031 0.032 0.046 0.049 0.018 0.024 0.042 0.035 0.065 0.055 0.046 0.041 0.087 0.089 0.125 0.135 0.031 0.039 0.072 0.069 0.103 0.107 0.025 0.030 0.041 0.069 0.063 0.101 0.023 0.031 0.045 0.062 0.067 0.093 0.018 0.025 0.025 0.055 0.044 0.080 0.021 0.030 0.037 0.060 0.053 0.090 0.093-0.508 0.038-1.077 0.038-1.595v-0.298c0-0.067 0.008-0.138 0.003-0.205s-0.037-0.124-0.045-0.19c-0.010-0.096 0.003-0.198 0.003-0.297-0.014-0.004-0.028-0.008-0.042-0.011z"></path>
<path d="M20.998 9.292c-0.031-0.023-0.062-0.044-0.087-0.069-0.051-0.052-0.1-0.11-0.156-0.162-0.038-0.035-0.077-0.075-0.117-0.108-0.044-0.037-0.105-0.058-0.143-0.101-0.025-0.030-0.032-0.056-0.065-0.086-0.037-0.034-0.067-0.065-0.101-0.101-0.065-0.072-0.165-0.136-0.243-0.194-0.076-0.058-0.131-0.134-0.201-0.197-0.031-0.027-0.062-0.062-0.094-0.087-0.052-0.039-0.118-0.037-0.176-0.065-0.093-0.044-0.179-0.113-0.266-0.167-0.070-0.045-0.145-0.084-0.215-0.128-0.058-0.037-0.087-0.077-0.134-0.121-0.073-0.070-0.19-0.127-0.274-0.184-0.198-0.134-0.406-0.248-0.624-0.34-0.001 0.075-0.003 0.151-0.003 0.225v2.15c0.031 0.011 0.063 0.024 0.094 0.035 0.070 0.023 0.145 0.028 0.212 0.060 0.041 0.020 0.082 0.044 0.124 0.063 0.087 0.039 0.17 0.067 0.256 0.114 0.091 0.051 0.172 0.12 0.267 0.165 0.083 0.038 0.167 0.062 0.249 0.1 0.142 0.063 0.246 0.165 0.397 0.21 0.113 0.032 0.224 0.094 0.321 0.159 0.070 0.046 0.142 0.090 0.205 0.142 0.030 0.025 0.062 0.038 0.093 0.060 0.032 0.024 0.045 0.063 0.079 0.090 0.031 0.024 0.059 0.024 0.086 0.049 0.031 0.028 0.056 0.066 0.087 0.096 0.066 0.062 0.135 0.107 0.193 0.176 0.090 0.104 0.197 0.21 0.305 0.295 0.004 0.003 0.008 0.006 0.013 0.008v-0.172c0-0.080 0.007-0.162 0.001-0.24s-0.037-0.145-0.044-0.224c-0.013-0.118 0.004-0.246 0.001-0.364-0.001-0.070-0.017-0.097-0.031-0.162-0.020-0.083-0.010-0.172-0.010-0.257 0.001-0.222 0.001-0.446 0.001-0.668z"></path>
<path d="M18.098 10.334c0 0.153-0.030 0.283-0.042 0.43-0.024 0.293 0.001 0.609 0.001 0.901v1.067c0 0.041 0.001 0.082 0.003 0.122 0.014 0 0.027 0 0.041 0 0.039 0 0.082-0.004 0.121 0.001 0.023 0.003 0.042 0.011 0.065 0.013 0.031 0.001 0.053-0.003 0.082 0.013 0.076 0.038 0.159 0.069 0.228 0.121 0.094 0.070 0.205 0.12 0.294 0.2 0.034 0.031 0.075 0.065 0.111 0.093 0.024 0.017 0.055 0.020 0.076 0.044 0.014 0.015 0.024 0.024 0.042 0.039 0.032 0.025 0.073 0.076 0.096 0.108 0.021 0.031 0.045 0.051 0.073 0.076 0.069 0.063 0.145 0.117 0.214 0.179 0.046 0.041 0.098 0.067 0.151 0.1 0.105 0.066 0.212 0.131 0.299 0.221 0.038 0.038 0.079 0.076 0.104 0.122 0.018 0.031 0.011 0.062 0.024 0.094 0.023 0.058 0.059 0.103 0.087 0.156 0.024 0.045 0.048 0.087 0.070 0.135 0.015 0.037 0.044 0.066 0.066 0.098 0.024 0.035 0.051 0.067 0.073 0.103 0.001 0.001 0.003 0.003 0.004 0.006 0.013 0.004 0.025 0.007 0.038 0.013 0.117 0.053 0.233 0.128 0.354 0.167 0.139 0.048 0.105-0.080 0.104-0.214-0.001-0.113 0.038-0.197 0.041-0.307 0.001-0.148 0.023-0.267 0.041-0.413 0.017-0.132 0.020-0.283 0.048-0.412 0.115-0.529 0.089-1.129 0.076-1.7-0.079-0.132-0.246-0.188-0.366-0.278-0.174-0.132-0.359-0.256-0.536-0.383-0.107-0.077-0.219-0.128-0.339-0.177-0.108-0.044-0.191-0.12-0.293-0.173-0.091-0.048-0.188-0.091-0.283-0.139-0.097-0.052-0.183-0.115-0.283-0.16-0.066-0.030-0.124-0.077-0.186-0.115-0.049-0.030-0.104-0.055-0.151-0.087-0.046-0.034-0.082-0.066-0.134-0.090-0.079-0.037-0.157-0.077-0.229-0.127-0.055-0.038-0.121-0.067-0.187-0.096z"></path>
<path d="M13.505 9.536c-0.030 0.004-0.059 0.008-0.089 0.008-0.049-0.001-0.107-0.008-0.156-0.003-0.056 0.008-0.080 0.048-0.132 0.058-0.039 0.008-0.093-0.001-0.132-0.001-0.052-0.001-0.094 0.013-0.145 0.021-0.045 0.007-0.089 0.003-0.132 0.011-0.055 0.011-0.1 0.023-0.16 0.021-0.108-0.001-0.193 0.051-0.298 0.055-0.082 0.003-0.136-0.006-0.215 0.025-0.052 0.021-0.094 0.023-0.148 0.034-0.094 0.020-0.19 0.039-0.283 0.060-0.049 0.011-0.086 0.031-0.132 0.052-0.038 0.017-0.073 0.014-0.114 0.021-0.042 0.007-0.086 0.024-0.128 0.035-0.051 0.013-0.090 0.008-0.141 0.011-0.060 0.004-0.114 0.028-0.176 0.030-0.046 0-0.094-0.004-0.141-0.001-0.044 0.001-0.084 0.013-0.128 0.020-0.032 0.006-0.060 0.003-0.089 0.020-0.008 0.004-0.014 0.013-0.021 0.021v0.052c0 0.127-0.004 0.255 0 0.381 0.003 0.108 0.066 0.167 0.084 0.271 0.031 0.187-0.042 0.387 0.014 0.572 0.049 0.16 0.063 0.26 0.063 0.426-0.001 0.082-0.037 0.263 0.006 0.333 0.038 0.063 0.155 0.076 0.212 0.118 0.077 0.058 0.089 0.066 0.184 0.090 0.038 0.008 0.075 0.021 0.111 0.034 0.021-0.008 0.042-0.020 0.065-0.027 0.079-0.025 0.162-0.053 0.242-0.072 0.039-0.008 0.072-0.027 0.11-0.038 0.030-0.008 0.062-0.006 0.093-0.011 0.072-0.013 0.135-0.037 0.207-0.045 0.042-0.004 0.084 0.003 0.125-0.008 0.028-0.007 0.053-0.020 0.084-0.021 0.076-0.003 0.153-0.006 0.229-0.014 0.039-0.004 0.083-0.008 0.122-0.014 0.034-0.007 0.060-0.025 0.096-0.025 0.067-0.003 0.136 0 0.204 0 0.045 0 0.097-0.007 0.142 0.001 0.030 0.004 0.053 0.023 0.084 0.027 0.046 0.006 0.084-0.004 0.129 0.013 0.023 0.007 0.045 0.021 0.069 0.025 0.042 0.007 0.091 0.001 0.135 0.001s0.087 0.001 0.131 0.001c0-0.030-0.003-0.058-0.003-0.087v-2.133c0-0.098-0.015-0.218 0.010-0.314 0.003-0.013 0.007-0.024 0.010-0.035z"></path>
<path d="M13.686 6.607c-0.013 0.003-0.024 0.007-0.037 0.011-0.149 0.039-0.29 0.098-0.436 0.142-0.111 0.032-0.222 0.072-0.335 0.1-0.152 0.038-0.308 0.072-0.457 0.118-0.089 0.027-0.179 0.025-0.267 0.056-0.066 0.022-0.134 0.030-0.198 0.052-0.073 0.024-0.141 0.070-0.214 0.098-0.082 0.031-0.159 0.058-0.236 0.098-0.194 0.103-0.392 0.177-0.572 0.301-0.132 0.091-0.263 0.187-0.395 0.281-0.014 0.432 0.007 0.873 0.007 1.304v0.405c0.008-0.001 0.018-0.003 0.030-0.003 0.051-0.003 0.082-0.008 0.129-0.028 0.097-0.038 0.202-0.055 0.301-0.093 0.066-0.025 0.127-0.066 0.193-0.089 0.053-0.017 0.113-0.020 0.166-0.035 0.117-0.034 0.239-0.097 0.361-0.105 0.082-0.007 0.16-0.024 0.239-0.046 0.084-0.024 0.155-0.055 0.24-0.079 0.108-0.030 0.214-0.073 0.323-0.101 0.077-0.021 0.153-0.014 0.233-0.014 0.082 0 0.162 0 0.242 0h0.561c0-0.028 0.001-0.056 0.001-0.086-0.001-0.187 0.042-0.364 0.041-0.553-0.001-0.181 0-0.363 0-0.543v-0.482c0-0.204-0.023-0.409 0.039-0.605 0.027-0.007 0.037-0.052 0.039-0.105z"></path>
</svg>
