<!-- Generated by IcoMoon.io -->
<svg version="1.1" xmlns="http://www.w3.org/2000/svg" width="31" height="32" viewBox="0 0 31 32">
<path d="M8.827 29.743c-1.738-0.525-2.203-1.811-2.22-6.141-0.009-2.288-0.061-2.634-0.416-2.741-1.264-0.378-1.567-0.686-1.638-1.67-0.059-0.802 0.161-1.45 1.219-3.592l1.29-2.613v-2.494c0-1.372 0.057-2.494 0.127-2.494s0.376 0.287 0.68 0.638c0.444 0.512 0.611 0.581 0.848 0.348 0.162-0.16 0.46-0.29 0.661-0.29s0.66-0.335 1.019-0.744l0.653-0.744 0.431 0.57c0.305 0.404 0.429 0.957 0.425 1.897-0.003 0.73 0.061 1.435 0.143 1.567s0.038 0.24-0.097 0.24c-0.135 0-0.246 0.111-0.246 0.246s0.093 0.188 0.206 0.118c0.302-0.187 1.482 1.457 1.33 1.853-0.071 0.185-0.42 0.338-0.775 0.34-0.847 0.005-1.122 0.21-1.311 0.983-0.098 0.399-0.311 0.638-0.57 0.638-0.436 0-0.971 0.418-0.971 0.759 0 0.111 0.164 0.038 0.365-0.163 0.437-0.437 1.187-0.479 1.325-0.075 0.055 0.16 0.066 0.078 0.025-0.181-0.16-1.021 0.152-1.502 0.973-1.502 0.538 0 0.853-0.142 1.024-0.461 0.246-0.46 0.249-0.46 1.107 0 0.473 0.254 1.045 0.461 1.27 0.461 0.499 0 0.546 0.595 0.061 0.78-0.192 0.073-0.348 0.346-0.348 0.605 0 0.317-0.152 0.472-0.464 0.472-0.297 0-0.464 0.155-0.464 0.428 0 0.236-0.209 0.617-0.464 0.849s-0.461 0.587-0.457 0.791c0.005 0.287 0.067 0.266 0.275-0.094 0.147-0.255 0.405-0.602 0.573-0.771s0.305-0.456 0.305-0.638c0-0.475 0.871-0.411 1.016 0.075 0.067 0.223 0.065-0.038-0.003-0.58-0.101-0.799-0.054-0.987 0.244-0.987 0.203 0 0.369-0.142 0.369-0.316 0-0.454 2.57-0.959 2.826-0.555 0.416 0.655-0.054 2.729-0.618 2.729-0.165 0-0.364 0.165-0.442 0.367-0.217 0.566-0.154 0.724 0.11 0.271 0.323-0.555 0.73-0.51 1.454 0.161 0.537 0.497 0.599 0.704 0.506 1.683l-0.106 1.116 0.505-2.237 0.897 0.152c0.663 0.112 0.993 0.056 1.265-0.216 0.333-0.333 0.334-0.368 0.003-0.368-0.201 0-0.365 0.106-0.365 0.235 0 0.338-1.862 0.004-2.486-0.446-0.701-0.506-0.762-0.737-0.453-1.723 0.284-0.908 0.811-1.11 1.314-0.504 0.377 0.454 0.905 0.442 1.428-0.032 0.346-0.313 0.484-0.328 0.778-0.083 0.197 0.164 0.41 0.245 0.474 0.181s-0.038-0.244-0.227-0.401c-0.363-0.301-1.294-0.133-1.294 0.234 0 0.346-0.844 0.25-1.161-0.132-0.159-0.192-0.468-0.348-0.688-0.348s-0.51-0.244-0.646-0.542c-0.218-0.478-0.138-0.645 0.672-1.408l0.919-0.866 0.468 0.595c0.542 0.689 1.256 0.765 1.881 0.198 0.352-0.318 0.476-0.336 0.628-0.091 0.117 0.19 0.376 0.246 0.682 0.149 0.403-0.128 0.493-0.061 0.493 0.366 0 0.288 0.213 0.75 0.473 1.026 0.42 0.447 0.446 0.624 0.233 1.573-0.601 2.684-2.773 6.076-5.012 7.831-0.726 0.569-1.908 1.518-2.628 2.109-1.653 1.357-3.909 2.58-6.147 3.332-1.947 0.654-1.997 0.658-3.261 0.276zM25.524 14.207c-0.052-0.16-0.132-0.499-0.176-0.755-0.055-0.314-0.24-0.448-0.571-0.413-0.27 0.028-0.624-0.11-0.787-0.306-0.25-0.301-0.189-0.446 0.383-0.914 0.374-0.306 0.576-0.556 0.448-0.557-0.38-0.002-0.929 0.516-1.4 1.319-0.612 1.045-1.355 0.994-1.949-0.133-0.211-0.4-0.22-0.723-0.035-1.253 0.137-0.393 0.249-1.065 0.249-1.493 0-0.668 0.079-0.778 0.561-0.778 0.309 0 0.605-0.131 0.659-0.29 0.075-0.222 0.202-0.21 0.542 0.054 0.411 0.319 0.41 0.304-0.017-0.195-0.455-0.532-0.455-0.544-0.014-0.867 0.411-0.301 0.414-0.327 0.035-0.327-0.245 0-0.519 0.282-0.676 0.696-0.394 1.044-0.948 0.869-1.751-0.553-0.41-0.727-1.056-1.466-1.543-1.768-0.875-0.541-0.888-0.813-0.038-0.813 0.376 0 0.505-0.145 0.517-0.58 0.022-0.787 0.318-1.393 0.682-1.393 0.165 0 0.953 0.491 1.751 1.090 2.767 2.080 4.054 5.053 3.774 8.718-0.125 1.632-0.396 2.267-0.645 1.509zM15.803 12.995c-2.508-0.889-3.264-3.791-1.458-5.597 1.832-1.832 4.691-1.235 5.61 1.171 0.779 2.040-0.369 3.934-2.796 4.612-0.255 0.071-0.866-0.013-1.357-0.187zM7.788 8.22l-0.514-0.695 0.446-0.983c0.486-1.072 2.304-2.956 3.391-3.514 0.765-0.393 1.289-0.161 1.289 0.571 0 0.286 0.204 0.444 0.638 0.494 0.575 0.066 0.636 0.161 0.618 0.947-0.012 0.524-0.207 1.082-0.486 1.393-0.256 0.286-0.623 0.755-0.814 1.042-0.348 0.521-0.349 0.521-0.769 0.058-0.231-0.255-0.572-0.464-0.757-0.464-0.23 0-0.284-0.129-0.17-0.406 0.283-0.689 0.246-1.048-0.117-1.153-0.308-0.089-0.308-0.073-0.002 0.139 0.276 0.191 0.288 0.299 0.058 0.528-0.159 0.159-0.288 0.535-0.288 0.838 0 0.81-0.435 1.482-0.908 1.401-0.228-0.039-0.569 0.058-0.758 0.215-0.284 0.235-0.434 0.163-0.858-0.41zM13.9 5.011c0.213-0.67-0.1-1.194-0.711-1.194-0.393 0-0.556-0.13-0.556-0.445 0-0.245-0.131-0.493-0.29-0.553-0.554-0.206 1.113-0.671 2.844-0.794 1.674-0.119 3.931 0.183 4.628 0.619 0.276 0.172 0.281 0.271 0.031 0.573-0.166 0.201-0.248 0.574-0.181 0.83 0.097 0.371 0.008 0.466-0.437 0.466-0.307 0-0.559 0.104-0.559 0.232s-0.316 0.232-0.702 0.232c-0.535 0-0.755-0.138-0.923-0.58-0.121-0.319-0.354-0.579-0.517-0.577-0.222 0.003-0.216 0.054 0.024 0.206 0.51 0.323 0.114 0.661-1.231 1.052-1.567 0.455-1.587 0.455-1.421-0.068z"></path>
</svg>
