<!-- Generated by IcoMoon.io -->
<svg version="1.1" xmlns="http://www.w3.org/2000/svg" width="32" height="32" viewBox="0 0 32 32">
<path d="M12.343 30.921c-0.141-0.039-0.33-0.105-0.42-0.146s-0.177-0.075-0.194-0.076c-0.017-0.001-0.098-0.034-0.18-0.074s-0.166-0.073-0.186-0.074c-0.060-0.002-1.041-0.496-1.208-0.608-0.086-0.058-0.167-0.105-0.18-0.105s-0.148-0.084-0.301-0.188c-0.153-0.103-0.293-0.188-0.312-0.188s-0.108-0.064-0.199-0.143c-0.091-0.079-0.249-0.2-0.352-0.269-0.386-0.26-1.423-1.251-1.819-1.74-0.113-0.14-0.258-0.316-0.322-0.392s-0.185-0.238-0.27-0.362c-0.085-0.124-0.189-0.267-0.23-0.319s-0.076-0.107-0.077-0.124c-0-0.016-0.082-0.151-0.181-0.3-0.171-0.257-0.757-1.395-0.758-1.472-0-0.020-0.041-0.117-0.091-0.215-0.186-0.367-0.607-1.796-0.675-2.296-0.011-0.082-0.041-0.277-0.065-0.431-0.027-0.168-0.044-0.683-0.043-1.275 0.002-1.262 0.072-1.998 0.215-2.269 0.033-0.062 0.059-0.138 0.059-0.169 0-0.068 0.186-0.641 0.225-0.694 0.015-0.021 0.064-0.149 0.109-0.286 0.086-0.263 0.683-1.479 0.822-1.673 0.045-0.063 0.082-0.126 0.082-0.14s0.051-0.099 0.112-0.188c0.062-0.090 0.112-0.174 0.112-0.187s0.084-0.148 0.188-0.301c0.103-0.153 0.188-0.291 0.188-0.308s0.068-0.114 0.15-0.217c0.082-0.103 0.149-0.201 0.15-0.217s0.119-0.205 0.263-0.421c0.144-0.215 0.263-0.404 0.263-0.421s0.068-0.114 0.15-0.217c0.082-0.103 0.149-0.201 0.15-0.218s0.051-0.104 0.113-0.194c0.062-0.090 0.112-0.174 0.112-0.188s0.051-0.098 0.112-0.188c0.062-0.090 0.112-0.174 0.112-0.188s0.047-0.095 0.104-0.181c0.057-0.086 0.129-0.207 0.158-0.269s0.098-0.18 0.151-0.262c0.114-0.176 0.674-1.299 0.674-1.351 0-0.020 0.041-0.117 0.091-0.216s0.111-0.242 0.136-0.319c0.025-0.076 0.057-0.156 0.072-0.176s0.057-0.13 0.094-0.244c0.036-0.113 0.097-0.276 0.135-0.361s0.088-0.237 0.111-0.338c0.023-0.1 0.072-0.292 0.109-0.426s0.089-0.324 0.114-0.422c0.026-0.098 0.059-0.178 0.075-0.178 0.041 0 0.28 0.299 0.375 0.471 0.045 0.081 0.098 0.168 0.118 0.191 0.063 0.077 0.552 1.065 0.597 1.207 0.024 0.075 0.057 0.154 0.072 0.175s0.087 0.223 0.159 0.45c0.346 1.087 0.453 1.541 0.503 2.128 0.018 0.215 0.032 0.253 0.092 0.253 0.068 0 0.275-0.247 0.377-0.45 0.026-0.052 0.080-0.143 0.121-0.202 0.141-0.208 0.658-1.269 0.739-1.517 0.045-0.137 0.094-0.266 0.109-0.287s0.049-0.105 0.076-0.188c0.027-0.082 0.078-0.203 0.114-0.267s0.092-0.221 0.125-0.348c0.033-0.127 0.091-0.302 0.13-0.389 0.084-0.187 0.171-0.45 0.249-0.752 0.031-0.12 0.090-0.292 0.131-0.382s0.075-0.195 0.076-0.232c0.001-0.037 0.034-0.135 0.074-0.218s0.073-0.177 0.074-0.21c0.001-0.033 0.036-0.159 0.078-0.281s0.127-0.407 0.188-0.634c0.198-0.741 0.223-0.824 0.279-0.943 0.031-0.065 0.056-0.166 0.056-0.225s0.024-0.153 0.054-0.21c0.062-0.119 0.17-0.521 0.172-0.64 0.001-0.045 0.034-0.149 0.074-0.231s0.073-0.191 0.074-0.241c0.001-0.050 0.034-0.202 0.073-0.337s0.123-0.457 0.184-0.715c0.14-0.587 0.174-0.675 0.26-0.675 0.263 0 1.848 1.641 2.841 2.942 0.18 0.235 1.077 1.592 1.142 1.726 0.030 0.062 0.098 0.18 0.152 0.263 0.113 0.175 0.599 1.149 0.599 1.202 0 0.020 0.041 0.117 0.091 0.216s0.111 0.242 0.136 0.319c0.025 0.076 0.057 0.156 0.072 0.176s0.066 0.153 0.112 0.295c0.047 0.142 0.108 0.302 0.136 0.356s0.052 0.125 0.052 0.157c0 0.032 0.051 0.208 0.113 0.391s0.113 0.387 0.113 0.452c0 0.066 0.027 0.193 0.060 0.284s0.075 0.282 0.093 0.427c0.018 0.144 0.050 0.347 0.071 0.45 0.12 0.586 0.128 0.717 0.126 1.969-0.002 1.351-0.037 1.894-0.14 2.17-0.034 0.090-0.061 0.243-0.061 0.34 0 0.194-0.235 1.179-0.321 1.343-0.076 0.145-0.070 0.272 0.012 0.272 0.126 0 0.819-0.787 0.99-1.125 0.026-0.052 0.115-0.195 0.197-0.319 0.17-0.255 0.708-1.307 0.774-1.514 0.024-0.075 0.056-0.153 0.072-0.174s0.049-0.105 0.075-0.188c0.026-0.082 0.060-0.167 0.075-0.188s0.066-0.156 0.113-0.3c0.047-0.144 0.098-0.279 0.113-0.3s0.058-0.139 0.094-0.262c0.122-0.421 0.328-1.050 0.356-1.088 0.015-0.021 0.074-0.181 0.131-0.356 0.142-0.436 0.236-0.637 0.299-0.637s0.156 0.132 0.283 0.394c0.050 0.103 0.134 0.255 0.188 0.338s0.171 0.302 0.262 0.488c0.091 0.186 0.209 0.405 0.263 0.488 0.105 0.16 0.224 0.403 0.224 0.456 0 0.018 0.093 0.216 0.206 0.441s0.225 0.47 0.249 0.544c0.024 0.074 0.056 0.151 0.071 0.172s0.049 0.105 0.075 0.188c0.026 0.082 0.060 0.167 0.075 0.188s0.049 0.105 0.075 0.188c0.026 0.082 0.060 0.167 0.075 0.188s0.086 0.223 0.158 0.45c0.379 1.196 0.467 1.518 0.519 1.913 0.044 0.332 0.098 0.659 0.149 0.9 0.092 0.441 0.12 0.859 0.135 2.049 0.015 1.18 0.011 1.279-0.060 1.546-0.042 0.157-0.076 0.374-0.076 0.483 0 0.194-0.081 0.595-0.233 1.154-0.11 0.404-0.26 0.875-0.292 0.919-0.015 0.021-0.049 0.105-0.075 0.188s-0.060 0.167-0.075 0.188c-0.015 0.021-0.047 0.099-0.072 0.174-0.056 0.174-0.602 1.26-0.71 1.411-0.045 0.063-0.081 0.125-0.081 0.138 0 0.029-0.645 0.996-0.802 1.203-0.223 0.295-1.734 1.791-1.992 1.973-0.144 0.102-0.345 0.251-0.446 0.331s-0.228 0.168-0.281 0.195c-0.054 0.027-0.199 0.117-0.323 0.199-0.255 0.17-1.307 0.708-1.514 0.774-0.075 0.024-0.153 0.056-0.174 0.071s-0.204 0.083-0.408 0.15c-0.204 0.067-0.415 0.145-0.469 0.174s-0.147 0.051-0.206 0.052c-0.085 0-0.102-0.013-0.083-0.062 0.013-0.034 0.040-0.133 0.059-0.218s0.061-0.205 0.092-0.265c0.032-0.061 0.058-0.144 0.059-0.185s0.034-0.142 0.074-0.225c0.040-0.082 0.073-0.194 0.074-0.248s0.028-0.172 0.061-0.262c0.115-0.317 0.138-0.627 0.153-2.063 0.014-1.365 0.010-1.466-0.062-1.734-0.042-0.157-0.076-0.368-0.076-0.47s-0.018-0.232-0.039-0.289c-0.074-0.195-0.186-0.651-0.186-0.758 0-0.059-0.034-0.205-0.075-0.325s-0.076-0.245-0.076-0.278c-0.001-0.033-0.034-0.127-0.074-0.21s-0.073-0.175-0.074-0.206c-0.002-0.069-0.263-0.867-0.301-0.919-0.015-0.021-0.066-0.156-0.114-0.3s-0.114-0.313-0.149-0.375c-0.035-0.062-0.084-0.175-0.109-0.251s-0.087-0.22-0.137-0.319c-0.050-0.099-0.091-0.196-0.091-0.216-0-0.053-0.561-1.177-0.674-1.351-0.054-0.082-0.138-0.234-0.188-0.337s-0.138-0.258-0.195-0.344c-0.058-0.086-0.105-0.168-0.105-0.181s-0.051-0.098-0.113-0.188c-0.062-0.090-0.113-0.174-0.113-0.186s-0.169-0.275-0.376-0.584c-0.339-0.507-0.386-0.562-0.484-0.562-0.092 0-0.141 0.045-0.328 0.301-0.121 0.166-0.259 0.371-0.307 0.457s-0.154 0.253-0.234 0.372c-0.081 0.119-0.147 0.226-0.147 0.239s-0.051 0.097-0.113 0.187c-0.062 0.090-0.113 0.174-0.113 0.188s-0.047 0.095-0.105 0.181c-0.116 0.172-0.982 1.899-0.982 1.958-0 0.020-0.041 0.117-0.091 0.216s-0.111 0.242-0.136 0.319c-0.025 0.076-0.057 0.156-0.072 0.176s-0.049 0.105-0.075 0.188c-0.026 0.082-0.060 0.167-0.075 0.188-0.044 0.059-0.513 1.51-0.582 1.8-0.035 0.144-0.079 0.282-0.098 0.306-0.035 0.042-0.071 0.213-0.143 0.669-0.020 0.124-0.055 0.293-0.078 0.375s-0.057 0.319-0.076 0.525c-0.018 0.206-0.053 0.502-0.078 0.656-0.055 0.348-0.058 1.926-0.005 2.363 0.021 0.175 0.066 0.393 0.1 0.483s0.061 0.201 0.061 0.247c0 0.046 0.034 0.181 0.075 0.301s0.075 0.259 0.075 0.31c0 0.050 0.025 0.145 0.056 0.21 0.048 0.103 0.244 0.654 0.244 0.687 0 0.018-0.030 0.011-0.313-0.067z"></path>
</svg>
