<!-- Generated by IcoMoon.io -->
<svg version="1.1" xmlns="http://www.w3.org/2000/svg" width="32" height="32" viewBox="0 0 32 32">
<path d="M17.738 29.924c-0.175-0.039-0.463-0.143-0.64-0.231-0.282-0.139-0.417-0.251-1.067-0.889-0.409-0.402-0.827-0.786-0.93-0.855s-0.456-0.255-0.785-0.415c-0.712-0.344-0.839-0.435-1.043-0.745-0.185-0.28-0.199-0.447-0.054-0.619 0.093-0.11 0.135-0.124 0.561-0.174 0.498-0.059 1.044-0.042 1.931 0.062 1.171 0.137 1.81 0.335 2.92 0.903 0.852 0.436 1.078 0.505 1.851 0.564 0.912 0.069 1.387 0.156 1.784 0.327 0.262 0.112 0.37 0.33 0.347 0.695-0.016 0.253-0.026 0.275-0.202 0.441-0.243 0.23-0.467 0.31-1.732 0.623-1.605 0.397-2.256 0.466-2.941 0.312zM12.023 29.812c-0.842-0.068-2.295-0.352-3.076-0.602-0.996-0.318-1.598-0.781-1.942-1.492-0.207-0.427-0.3-0.823-0.453-1.916-0.133-0.951-0.202-1.265-0.354-1.609-0.284-0.643-0.965-1.449-1.389-1.647-0.372-0.173-0.772-0.116-1.007 0.144-0.204 0.226-0.541 0.259-0.714 0.070-0.203-0.222-0.617-1.37-0.746-2.073-0.114-0.615-0.245-1.555-0.296-2.107-0.093-1.025-0.029-2.657 0.146-3.719 0.355-2.147 1.233-4.374 2.424-6.145 0.305-0.454 0.378-0.625 0.35-0.828-0.051-0.384-0.231-0.477-1.067-0.55-0.839-0.074-1.161-0.228-1.333-0.642-0.086-0.207-0.013-0.306 0.252-0.346 0.249-0.037 0.661-0.223 0.926-0.418 0.113-0.083 0.388-0.367 0.611-0.631 0.522-0.619 0.783-0.877 1.14-1.13 0.575-0.408 1.23-0.669 2.070-0.826 0.459-0.086 0.618-0.092 2.331-0.097 2.035-0.006 1.974 0 3.306-0.322 0.33-0.080 0.878-0.193 1.219-0.251s0.769-0.132 0.95-0.165c2.14-0.38 4.267-0 5.847 1.043 0.461 0.305 1.158 1.002 1.464 1.465 0.132 0.2 0.384 0.683 0.559 1.074 0.387 0.861 0.511 1.11 0.675 1.348 0.069 0.101 0.125 0.206 0.125 0.235s0.012 0.049 0.026 0.045c0.014-0.004 0.124 0.090 0.243 0.209s0.292 0.255 0.383 0.302c0.702 0.358 1.324-0.158 1.325-1.098 0-0.347-0.108-0.854-0.256-1.198-0.178-0.414-0.056-0.599 0.394-0.599 0.243 0 0.274 0.012 0.521 0.193 1.383 1.017 2.209 2.959 2.394 5.633 0.171 2.456-0.447 5.301-1.565 7.209-0.185 0.315-0.324 0.509-0.998 1.386-0.343 0.447-0.719 1.066-0.778 1.282-0.091 0.334 0.115 0.434 0.637 0.311 0.488-0.115 0.957-0.46 1.564-1.15 0.188-0.214 0.223-0.236 0.374-0.236 0.26 0 0.348 0.108 0.348 0.429 0 0.548-0.283 1.292-0.705 1.853-0.283 0.376-0.816 0.909-0.873 0.874-0.026-0.016-0.034-0.010-0.019 0.015 0.031 0.051-0.496 0.506-1.026 0.887-0.952 0.682-1.83 1.075-2.911 1.302-0.468 0.098-0.609 0.109-1.428 0.111-1 0.002-1.285-0.033-2.293-0.285-1.368-0.341-2.238-0.751-3.216-1.518-0.737-0.578-1.184-1.092-1.516-1.745-0.434-0.853-0.558-1.74-0.414-2.956 0.193-1.629 0.855-3.096 1.898-4.205 0.403-0.429 0.486-0.647 0.373-0.984-0.129-0.384-0.385-0.554-0.836-0.554-0.559 0-1.064 0.23-1.542 0.702-0.366 0.362-0.508 0.567-1.030 1.484-0.464 0.816-0.776 1.24-1.147 1.56-0.494 0.425-0.822 0.783-0.944 1.033l-0.118 0.241 0.013 1.054c0.012 0.97 0.006 1.075-0.073 1.329-0.107 0.343-0.257 0.489-0.507 0.489-0.141 0-0.192-0.025-0.317-0.157-0.174-0.184-0.527-0.848-0.685-1.289-0.271-0.758-0.364-1.793-0.215-2.376 0.055-0.216 0.087-0.461 0.073-0.571-0.007-0.059-0.331 0.242-0.517 0.481-0.228 0.293-0.484 0.786-0.627 1.206-0.104 0.305-0.112 0.379-0.11 0.97 0.003 1.009 0.174 1.741 0.59 2.526 0.549 1.038 0.961 1.919 1.3 2.783 0.434 1.108 0.695 1.646 1.058 2.189 0.741 1.108 1.703 1.674 2.846 1.674 0.243 0 0.3 0.016 0.448 0.123 0.2 0.145 0.297 0.313 0.297 0.513 0 0.339-0.185 0.473-0.806 0.58-0.38 0.066-1.282 0.11-1.653 0.080zM21.517 22.169c0.895-0.28 1.3-0.508 1.827-1.029 0.566-0.56 0.905-1.122 1.175-1.952 0.25-0.768 0.313-1.214 0.311-2.221-0.001-0.814-0.011-0.946-0.096-1.26-0.236-0.878-0.686-1.557-1.655-2.5-0.433-0.421-1.074-1.131-1.437-1.591-0.344-0.436-1.013-1.457-1.354-2.067-0.5-0.894-0.817-1.119-1.157-0.821-0.124 0.109-0.146 0.155-0.146 0.302 0 0.454 0.327 1.378 1.034 2.917 0.51 1.111 0.754 1.817 0.89 2.582 0.107 0.599 0.108 2.172 0.002 2.504-0.129 0.403-0.36 0.58-0.759 0.58-0.186 0-0.263-0.023-0.399-0.117-0.23-0.16-0.309-0.34-0.33-0.75-0.033-0.666-0.278-0.777-0.864-0.39-1.052 0.696-1.493 2.564-0.928 3.937 0.070 0.17 0.181 0.389 0.247 0.486s0.108 0.195 0.093 0.218c-0.014 0.023-0.011 0.038 0.008 0.032s0.164 0.121 0.323 0.281c0.328 0.329 0.697 0.592 1.069 0.76 0.712 0.323 1.339 0.352 2.145 0.099zM5.674 19.539c0.343-0.211 0.486-0.599 0.449-1.216-0.035-0.589-0.22-0.814-0.67-0.815-0.252-0.001-0.387 0.080-0.555 0.334-0.185 0.279-0.27 0.569-0.271 0.922-0.001 0.265 0.016 0.338 0.113 0.503 0.233 0.396 0.572 0.495 0.933 0.272zM6.828 14.795c0.455-0.198 0.807-0.563 1.551-1.61 0.76-1.070 1.095-1.484 1.659-2.050 0.716-0.719 1.117-0.983 2.13-1.4 0.873-0.359 1.236-0.55 1.324-0.694 0.107-0.175 0.102-0.357-0.014-0.529-0.152-0.225-0.27-0.261-0.658-0.201-0.487 0.076-0.793 0.033-1.479-0.205-0.527-0.183-0.639-0.209-0.931-0.209-0.872-0.001-1.596 0.432-2.317 1.384-0.822 1.086-1.467 2.264-1.816 3.317-0.278 0.838-0.419 1.86-0.291 2.108 0.115 0.222 0.453 0.258 0.841 0.089zM24.122 11.796c0.156-0.075 0.276-0.246 0.276-0.396 0-0.157-0.198-0.425-0.769-1.038-0.293-0.314-0.611-0.671-0.708-0.792-0.192-0.241-0.403-0.392-0.545-0.392-0.050 0-0.146 0.054-0.212 0.121-0.101 0.101-0.121 0.154-0.12 0.32 0.003 0.532 0.698 1.566 1.372 2.039 0.322 0.226 0.464 0.254 0.706 0.139zM25.12 28.364c-0.421-0.21-0.421-0.858-0-1.065 0.582-0.286 1.18 0.246 0.901 0.801-0.151 0.301-0.576 0.425-0.9 0.263zM4.173 25.053c-0.295-0.103-0.434-0.311-0.434-0.648 0-0.211 0.014-0.246 0.159-0.402 0.147-0.157 0.179-0.172 0.411-0.189 0.323-0.023 0.518 0.084 0.636 0.352 0.127 0.287 0.043 0.584-0.223 0.794-0.116 0.091-0.413 0.142-0.55 0.094zM29.185 18.4c-0.163-0.099-0.242-0.262-0.242-0.502 0-0.281 0.114-0.5 0.307-0.592 0.191-0.091 0.3-0.090 0.475 0.004 0.389 0.209 0.39 0.915 0.001 1.111-0.139 0.070-0.409 0.060-0.542-0.021zM24.336 3.913c-0.331-0.226-0.903-0.934-1.093-1.353-0.115-0.253-0.107-0.383 0.030-0.491 0.151-0.119 0.308-0.092 0.739 0.126 0.712 0.36 1.325 1.205 1.133 1.564-0.026 0.049-0.069 0.077-0.094 0.062-0.027-0.017-0.034-0.009-0.017 0.019 0.040 0.065-0.214 0.213-0.368 0.213-0.074 0-0.208-0.057-0.331-0.14z"></path>
</svg>
