<!-- Generated by IcoMoon.io -->
<svg version="1.1" xmlns="http://www.w3.org/2000/svg" width="31" height="32" viewBox="0 0 31 32">
<path d="M13.87 1.436c-0.37 0.124-0.687 0.31-0.687 0.402 0 0.028-0.029 0.068-0.075 0.104-0.095 0.075-0.287 0.172-0.287 0.145q-0.002-0.065-0.314 0.009c-0.136 0.034-0.26 0.052-0.329 0.048-0.165-0.009-0.306 0.014-1.065 0.168-0.381 0.078-0.775 0.149-0.874 0.158-0.207 0.018-0.633 0.15-0.699 0.216-0.057 0.057-0.030 0.088 0.051 0.054 0.225-0.091 0.202-0.051-0.076 0.138-0.172 0.118-0.224 0.144-0.236 0.122-0.049-0.086-0.145-0.044-0.648 0.291-0.597 0.397-0.697 0.449-0.962 0.494-0.252 0.042-0.924 0.487-1.109 0.735-0.417 0.559-0.388 0.527-0.436 0.457-0.051-0.078-0.196 0.119-0.557 0.76-0.348 0.617-0.569 0.877-1.103 1.291-0.598 0.466-0.637 0.53-0.838 1.375-0.073 0.303-0.1 0.357-0.113 0.227-0.006-0.054-0.014-0.045-0.085 0.091-0.085 0.162-0.231 0.386-0.257 0.396-0.009 0.005-0.016 0.016-0.016 0.027-0.028 0.051-0.061 0.095-0.098 0.135v0c-0.091 0.104-0.486 0.693-0.553 0.822-0.040 0.115-0.082 0.264-0.116 0.417l-0.006 0.030c-0.107 0.454-0.125 0.523-0.236 0.874-0.121 0.383-0.114 0.369-0.148 0.324-0.027-0.036-0.027-0.036-0.039 0.009-0.061 0.263-0.077 0.413-0.1 0.912-0.024 0.539-0.027 0.569-0.081 0.694-0.118 0.279-0.132 0.327-0.172 0.556-0.127 0.741-0.191 0.955-0.417 1.433-0.215 0.454-0.241 0.731-0.125 1.346 0.034 0.182 0.071 0.39 0.082 0.463 0.040 0.284 0.327 1.268 0.379 1.306 0.034 0.024 0.163 0.209 0.163 0.234 0 0.015 0.009 0.027 0.019 0.027s0.025 0.022 0.032 0.049 0.030 0.064 0.051 0.084q0.074 0.067-0.002 0.068c-0.049 0-0.050-0.014 0.009 0.131 0.063 0.15 0.065 0.293 0.011 0.483-0.048 0.17-0.051 0.284-0.007 0.391 0.030 0.076 0.068 0.109 0.068 0.057q0.001-0.020 0.009-0.014c0.005 0.005 0.024 0.162 0.041 0.348 0.044 0.478 0.191 1.069 0.409 1.639 0.267 0.697 0.383 0.98 0.446 1.085 0.011 0.016 0.030 0.053 0.044 0.080s0.142 0.236 0.284 0.463l0.38 0.603c0.261 0.417 0.491 0.682 0.8 0.919 0.303 0.233 0.562 0.45 0.659 0.554 0.087 0.092 0.149 0.169 0.329 0.406 0.072 0.093 0.318 0.357 0.376 0.401 0.056 0.043 0.218 0.192 0.414 0.383 0.068 0.066 0.175 0.166 0.239 0.221 0.22 0.205 0.457 0.416 0.7 0.62l0.029 0.024c0.201 0.171 0.368 0.318 0.372 0.327 0.010 0.026 0.329 0.266 0.508 0.385 0.333 0.218 0.806 0.404 1.1 0.432 0.485 0.048 0.751 0.122 0.877 0.245 0.014 0.015 0.033 0.027 0.040 0.027s0.045 0.027 0.084 0.060c0.075 0.073 0.175 0.122 0.286 0.133h0.002c0.079 0.010 0.148 0.044 0.303 0.145 0.297 0.194 0.535 0.309 0.816 0.393 0.324 0.097 0.8 0.27 0.955 0.348 0.073 0.036 0.167 0.064 0.241 0.073 0.133 0.013 0.345 0.061 0.623 0.142 0.709 0.204 1.15 0.221 1.502 0.058 0.156-0.073 0.156-0.073 0.324-0.045 0.187 0.028 0.27 0.020 1.781-0.172l1.115-0.139c0.515-0.063 0.79-0.109 1.263-0.213 0.2-0.044 0.456-0.087 0.567-0.096 0.227-0.018 0.248-0.027 0.778-0.342l0.324-0.193c0.084-0.049 0.259-0.156 0.35-0.214 0.062-0.039 0.077-0.041 0.162-0.019 0.091 0.023 0.1 0.021 0.263-0.054 0.289-0.133 0.672-0.242 0.951-0.272 0.224-0.024 0.358-0.107 0.546-0.338 0.162-0.198 0.181-0.311 0.034-0.186-0.166 0.14-0.022-0.121 0.157-0.284 0.061-0.055 0.238-0.209 0.392-0.339s0.449-0.402 0.653-0.602c0.309-0.299 0.407-0.382 0.563-0.473 0.109-0.064 0.266-0.182 0.374-0.281 0.169-0.156 0.204-0.179 0.389-0.25 0.424-0.163 0.596-0.348 0.842-0.9 0.167-0.374 0.302-0.647 0.327-0.656 0.010-0.004 0.017-0.014 0.017-0.025 0 0 0 0 0 0v0c0-0.038 0.606-0.661 0.644-0.661 0.016 0 0.309-0.293 0.501-0.503 0.122-0.133 0.272-0.349 0.377-0.543 0.051-0.093 0.17-0.293 0.263-0.442 0.152-0.241 0.194-0.321 0.294-0.553 0.12-0.277 0.352-0.973 0.352-1.055 0-0.019 0.024-0.138 0.053-0.263 0.028-0.127 0.078-0.372 0.109-0.546 0.040-0.216 0.096-0.431 0.181-0.682 0.11-0.329 0.128-0.406 0.172-0.739 0.026-0.205 0.072-0.463 0.1-0.573l0.073-0.281c0.016-0.064 0.013-0.108-0.014-0.201-0.079-0.282-0.090-0.351-0.091-0.57 0-0.261-0.029-0.386-0.127-0.547-0.142-0.233-0.154-0.244-0.154-0.129 0 0.093-0.032 0.091-0.047-0.005-0.027-0.169-0.008-0.336 0.108-0.905 0.162-0.793 0.169-0.713-0.186-1.924 0 0.031-0.055-0.157-0.108-0.345l-0.052-0.217c-0.082-0.33-0.272-0.751-0.418-0.925-0.134-0.16-0.148-0.207-0.118-0.422 0.023-0.171 0.022-0.191-0.018-0.312-0.035-0.137-0.064-0.303-0.082-0.473l-0.001-0.016c-0.046-0.406-0.034-0.374-0.242-0.656-0.176-0.241-0.2-0.281-0.2-0.343 0-0.024-0.021-0.064-0.045-0.090-0.084-0.083-0.139-0.157-0.29-0.39-0.117-0.186-0.244-0.347-0.387-0.495l0.001 0.001c-0.121-0.138-0.23-0.293-0.322-0.458l-0.007-0.014c-0.086-0.146-0.163-0.264-0.245-0.379l0.011 0.017c-0.067-0.093-0.186-0.26-0.264-0.372-0.091-0.129-0.164-0.227-0.239-0.324l0.017 0.023c-0.079-0.1-0.14-0.24-0.14-0.321 0-0.171-0.918-1.004-0.953-0.865-0.016 0.066-0.055 0.064-0.097-0.006-0.018-0.032-0.135-0.201-0.26-0.377l-0.378-0.543c-0.11-0.164-0.211-0.301-0.317-0.434l0.010 0.013c-0.069-0.093-0.135-0.174-0.205-0.252l0.003 0.004c-0.066-0.078-0.13-0.103-0.263-0.103-0.365 0-1.368-0.39-1.581-0.615-0.11-0.103-0.228-0.2-0.352-0.29l-0.011-0.007c-0.164-0.124-0.308-0.245-0.445-0.373l0.003 0.003c-0.256-0.252-0.819-0.555-1.648-0.887-0.103-0.042-0.332-0.067-0.995-0.113-0.496-0.034-0.688-0.066-0.839-0.142-0.306-0.154-1.004-0.216-1.191-0.105-0.126 0.073-0.432 0.034-0.462-0.062-0.020-0.064-0.139-0.073-0.905-0.066-0.723 0.006-0.723 0.006-1.015-0.056-0.481-0.102-0.448-0.1-0.599-0.048zM11.764 5.242c0.584 0.052 0.951 0.456 0.796 0.875s-0.148 0.878 0.027 1.638c0.183 0.823 0.339 1.42 0.512 2.010l-0.058-0.231c0.119 0.439 0.492 1.356 0.678 1.665 0.087 0.145 0.329 0.45 0.447 0.565 0.082 0.079 0.086 0.081 0.268 0.093 0.422 0.032 0.548 0.166 0.572 0.612 0.046 0.908-0.354 1.104-0.995 0.486-0.322-0.311-0.612-0.497-0.771-0.497-0.922 0.004-2.485 1.334-3.535 3.010l-0.164 0.261c-0.124 0.197-0.31 0.572-0.573 1.15-0.124 0.285-0.243 0.629-0.335 0.984l-0.011 0.050c-0.078 0.276-0.191 0.831-0.231 1.135-0.075 0.565-0.082 0.75-0.076 2.13 0.005 1.286-0.016 2.154-0.056 2.287-0.016 0.054-0.016 0.054-0.018-0.006 0-0.034-0.009-0.070-0.020-0.081-0.034-0.081-0.064-0.178-0.087-0.278l-0.002-0.012c-0.277-1.071-1.191-1.737-2.066-1.506-0.257 0.067-0.324 0.105-0.509 0.288-0.1 0.1-0.1 0.1-0.145-0.14-0.253-1.335-0.247-1.867 0.032-2.696 0.27-0.805 0.286-1.098 0.082-1.547-0.281-0.621-1.358-0.84-1.94-0.396-0.023 0.019-0.048 0.036-0.076 0.049l-0.002 0.001c-0.031 0 0.064-0.613 0.143-0.935 0.123-0.496 0.14-0.535 0.499-1.176 0.096-0.171 0.234-0.424 0.307-0.563s0.152-0.282 0.177-0.321c0.025-0.039 0.119-0.206 0.209-0.372l0.188-0.345c0.014-0.024 0.129-0.16 0.256-0.3 0.18-0.193 0.355-0.399 0.519-0.614l0.014-0.020c0.043-0.059 0.084-0.112 0.091-0.118 0.087-0.064 0.24-0.497 0.24-0.682 0.002-0.724-1.141-1.284-2.011-0.986-0.042 0.017-0.105 0.037-0.168 0.055l-0.019 0.005c-0.011 0 0.163-0.352 0.219-0.44l0.169-0.283c0.286-0.481 0.73-1.095 1.136-1.567 0.056-0.066 0.535-0.541 0.624-0.621 0.183-0.162 0.538-0.416 1.029-0.733 0.201-0.131 0.461-0.307 0.576-0.391s0.268-0.193 0.338-0.24c0.628-0.428 1.309-0.869 1.343-0.869 0.011 0 0.020-0.007 0.020-0.017 0-0.047 0.517-0.24 0.816-0.303 0.368-0.078 1.057-0.105 1.545-0.062zM20.357 5.281c0.313 0.058 0.593 0.156 0.851 0.291l-0.017-0.008c0.218 0.112 0.947 0.564 1.026 0.637 0.060 0.056 1.046 0.741 1.346 0.933 0.753 0.485 1.355 0.994 1.728 1.461 0.663 0.834 0.762 0.97 1.069 1.48 0.112 0.184 0.377 0.693 0.362 0.693-0.004 0-0.086-0.027-0.183-0.060-0.454-0.153-0.844-0.121-1.308 0.111-0.951 0.473-0.938 1.153 0.041 2.184 0.334 0.352 0.417 0.475 0.778 1.162 0.062 0.115 0.145 0.27 0.187 0.341 0.159 0.276 0.33 0.583 0.33 0.592 0 0.005 0.071 0.139 0.158 0.297 0.242 0.441 0.433 1.183 0.445 1.728 0 0.009-0.054-0.021-0.123-0.065-0.349-0.225-0.889-0.263-1.328-0.096-0.086 0.033-0.156 0.068-0.156 0.078s-0.012 0.018-0.026 0.018c-0.102 0-0.395 0.381-0.466 0.608-0.126 0.398-0.093 0.66 0.181 1.412 0.266 0.735 0.26 1.628-0.022 2.859-0.009 0.040-0.018 0.034-0.105-0.059-0.578-0.623-1.897-0.295-2.353 0.585-0.116 0.222-0.156 0.333-0.245 0.682-0.093 0.366-0.1 0.389-0.109 0.381-0.036-0.037-0.056-0.776-0.059-2.197-0.003-1.569-0.009-1.777-0.073-2.351-0.052-0.456-0.27-1.32-0.443-1.752-0.022-0.050-0.050-0.126-0.076-0.203l-0.007-0.026c-0.034-0.116-0.273-0.639-0.392-0.853l-0.211-0.382c-0.353-0.6-0.735-1.12-1.163-1.597l0.008 0.009c-0.321-0.343-0.647-0.663-0.986-0.969l-0.014-0.013c-0.084-0.073-0.175-0.143-0.271-0.207l-0.010-0.006c-0.045-0.026-0.083-0.053-0.12-0.082l0.002 0.001c-0.232-0.175-0.615-0.338-0.962-0.41-0.231-0.047-0.271-0.042-0.477 0.061-0.185 0.093-0.209 0.113-0.653 0.539-0.395 0.379-0.762 0.28-0.835-0.226-0.096-0.673 0.061-0.971 0.534-1.006 0.522-0.038 1.202-1.328 1.619-3.067 0.024-0.1 0.056-0.211 0.073-0.247s0.043-0.135 0.060-0.221c0.016-0.085 0.062-0.291 0.1-0.457 0.224-0.986 0.235-1.225 0.075-1.68-0.24-0.682 0.196-0.967 1.459-0.953 0.447 0.005 0.571 0.013 0.764 0.049zM13.193 12.841c0.132 0.049 0.313 0.209 0.436 0.383 0.093 0.133 0.096 0.134 0.178 0.073 0.138-0.102 0.181 0.089 0.089 0.384-0.056 0.18-0.048 0.501 0.021 0.767 0.056 0.215-0.135 0.369-0.307 0.249-0.045-0.032-0.045-0.032-0.049 0.121l-0.005 0.197c-0.007 0.231 0.626 0.211 0.883-0.027 0.218-0.201 0.234-0.207 0.515-0.191 0.229 0.013 0.236 0.012 0.292-0.036s0.056-0.048 0.114 0c0.057 0.049 0.064 0.050 0.293 0.036 0.277-0.016 0.329 0.002 0.494 0.172 0.242 0.25 0.91 0.284 0.903 0.045l-0.005-0.197c-0.004-0.152-0.004-0.152-0.048-0.121-0.176 0.123-0.366-0.028-0.307-0.247 0.069-0.261 0.078-0.586 0.021-0.767-0.093-0.297-0.050-0.488 0.089-0.386 0.078 0.057 0.085 0.056 0.129-0.025 0.336-0.622 1.096-0.587 1.427 0.064 0.175 0.348-0.289 0.735-0.472 0.394-0.087-0.162-0.329-0.202-0.46-0.077-0.081 0.078-0.077 0.12 0.030 0.374 0.067 0.161 0.098 0.267 0.12 0.423 0.017 0.114 0.042 0.256 0.054 0.314 0.023 0.097 0.021 0.114-0.022 0.211-0.124 0.278-0.077 0.678 0.080 0.678 0.1 0 0.27-0.134 0.289-0.227 0.031-0.153 0.324-0.599 0.468-0.713 0.213-0.168 0.533-0.251 0.755-0.198 0.115 0.027 0.118 0.027 0.149-0.021 0.142-0.218 0.448-0.056 0.448 0.236 0 0.415-0.456 0.585-0.663 0.249-0.057-0.092-0.145-0.093-0.319-0.006-0.146 0.073-0.162 0.097-0.104 0.171 0.073 0.093 0.006 0.26-0.122 0.3-0.024 0.007-0.062 0.058-0.089 0.117-0.113 0.243-0.016 0.395 0.196 0.306 0.068-0.028 0.109-0.036 0.529-0.103 0.304-0.047 0.328-0.060 0.255-0.138-0.198-0.211-0.006-0.448 0.26-0.324 0.093 0.044 0.136 0.050 0.329 0.051 0.319 0.001 0.454 0.078 0.519 0.298 0.027 0.093 0.152 0.207 0.357 0.327 0.491 0.287 0.115 0.771-0.397 0.509-0.141-0.071-0.241-0.205-0.266-0.363v-0.003c-0.038-0.192-0.172-0.194-0.708-0.012-0.172 0.058-0.408 0.125-0.523 0.149-0.378 0.076-0.413 0.21-0.181 0.688 0.068 0.142 0.123 0.263 0.123 0.269 0 0.019 0.143 0.396 0.172 0.449 0.089 0.172 0.24 0.172 0.312-0.003 0.027-0.064 0.11-0.118 0.182-0.118 0.045 0 0.281-0.133 0.55-0.31 0.628-0.415 1.503-0.115 1.503 0.514 0 0.422-0.349 0.559-0.599 0.236-0.171-0.221-0.211-0.257-0.325-0.29-0.093-0.027-0.114-0.027-0.143-0.004-0.054 0.044-0.121 0.069-0.315 0.116-0.737 0.181-0.785 0.241-0.683 0.854 0.027 0.166 0.059 0.428 0.071 0.583 0.036 0.492 0.174 0.774 0.378 0.774 0.093 0 0.808-0.366 0.866-0.443 0.024-0.033 0.061-0.060 0.082-0.060 0.023 0 0.056-0.024 0.075-0.054 0.065-0.103 0.166-0.118 0.261-0.036 0.033 0.026 0.085 0.054 0.118 0.062 0.311 0.073 0.731 0.643 0.749 1.018 0.021 0.438-0.361 0.678-0.509 0.319-0.034-0.080-0.061-0.114-0.105-0.133-0.049-0.029-0.089-0.070-0.117-0.118l-0.001-0.002c-0.080-0.132-0.136-0.187-0.202-0.203-0.057-0.021-0.106-0.044-0.152-0.070l0.004 0.002c-0.055-0.032-0.119-0.055-0.188-0.065h-0.003c-0.089-0.012-0.163-0.025-0.236-0.042l0.018 0.003c-0.125-0.027-0.114-0.030-0.395 0.083-0.283 0.115-0.31 0.143-0.364 0.387-0.062 0.276-0.066 0.345-0.032 0.482 0.030 0.115 0.095 0.454 0.124 0.644 0.036 0.232 0.476 0.437 0.681 0.316 0.172-0.103 0.674 0.032 0.856 0.23 0.394 0.431 0.388 0.973-0.012 1.089-0.232 0.068-0.42-0.071-0.572-0.42-0.049-0.113-0.049-0.113-0.141-0.113-0.122 0-0.193-0.026-0.41-0.15q-0.623-0.35-0.674 0.356c-0.011 0.153-0.036 0.309-0.066 0.414-0.049 0.169-0.049 0.169 0.007 0.281 0.031 0.063 0.080 0.172 0.111 0.244 0.134 0.322 0.44 0.849 0.541 0.934 0.551 0.462 0.472 1.57-0.095 1.33-0.136-0.059-0.163-0.112-0.172-0.35-0.007-0.215-0.007-0.215-0.107-0.33-0.084-0.098-0.172-0.258-0.274-0.502-0.027-0.066-0.191-0.189-0.272-0.205-0.052-0.019-0.096-0.049-0.131-0.088v0c-0.053-0.054-0.109-0.105-0.169-0.151l-0.004-0.003c-0.244-0.196-0.297-0.324-0.191-0.459 0.114-0.145-0.078-0.299-0.215-0.172-0.152 0.14-0.163 0.302-0.031 0.457 0.291 0.343 0.545 0.81 0.638 1.176 0.018 0.067 0.053 0.186 0.079 0.263 0.138 0.406 0.047 1.108-0.158 1.234-0.414 0.254-0.712-0.195-0.579-0.872 0.091-0.459 0.014-0.862-0.241-1.261-0.107-0.169-0.563-0.353-0.719-0.292-0.027 0.011-0.109 0.028-0.18 0.039-0.36 0.052-0.486 0.201-0.452 0.535 0.010 0.096 0.018 0.325 0.018 0.507 0 0.245 0.009 0.365 0.034 0.462 0.053 0.202 0.084 0.506 0.068 0.664-0.022 0.221-0.084 0.513-0.119 0.564-0.017 0.023-0.029 0.052-0.033 0.083v0.001c0 0.084-0.139 0.313-0.219 0.36-0.044 0.026-0.136 0.119-0.206 0.208-0.17 0.212-0.359 0.318-0.604 0.338-0.087 0.007-0.194 0.027-0.238 0.045-0.066 0.027-0.1 0.027-0.215 0.009-0.217-0.036-0.363-0.039-0.575-0.008-0.175 0.025-0.208 0.025-0.274-0.001-0.068-0.022-0.148-0.038-0.23-0.044h-0.004c-0.272-0.023-0.448-0.127-0.664-0.394-0.048-0.058-0.101-0.109-0.159-0.154l-0.002-0.002c-0.084-0.062-0.206-0.272-0.206-0.358-0.004-0.032-0.016-0.061-0.034-0.085v0c-0.036-0.051-0.094-0.339-0.118-0.578-0.015-0.152 0.008-0.368 0.067-0.629 0.024-0.109 0.034-0.242 0.034-0.482 0-0.182 0.009-0.409 0.018-0.505 0.034-0.329-0.1-0.488-0.453-0.538-0.065-0.009-0.124-0.023-0.18-0.043l0.006 0.002c-0.091-0.048-0.535 0.1-0.637 0.211-0.283 0.309-0.406 0.826-0.311 1.314 0.133 0.689-0.107 1.107-0.529 0.926-0.239-0.102-0.353-0.796-0.205-1.247 0.027-0.084 0.077-0.245 0.112-0.36q0.163-0.543 0.574-1.048 0.13-0.158 0.129-0.211c0-0.172-0.143-0.358-0.265-0.346-0.084 0.008-0.145 0.172-0.091 0.233 0.118 0.129 0.084 0.221-0.152 0.428-0.091 0.081-0.186 0.171-0.211 0.201-0.029 0.032-0.067 0.056-0.109 0.069h-0.002c-0.145 0.044-0.26 0.15-0.313 0.287l-0.001 0.003c-0.066 0.173-0.156 0.322-0.267 0.452l0.002-0.002c-0.078 0.088-0.079 0.090-0.081 0.267-0.006 0.576-0.585 0.563-0.633-0.015-0.032-0.384 0.002-0.48 0.3-0.856 0.184-0.23 0.353-0.489 0.496-0.763l0.012-0.026c0.154-0.306 0.263-0.595 0.245-0.645-0.050-0.161-0.084-0.347-0.095-0.54v-0.006c0-0.325-0.278-0.542-0.523-0.409l-0.151 0.084c-0.214 0.119-0.263 0.139-0.377 0.147-0.118 0.009-0.118 0.009-0.2 0.178-0.171 0.349-0.368 0.454-0.62 0.327-0.333-0.168-0.279-0.738 0.106-1.095 0.201-0.187 0.712-0.293 0.844-0.175 0.056 0.051 0.306 0.009 0.422-0.073 0.181-0.123 0.203-0.169 0.278-0.555 0.024-0.122 0.056-0.272 0.073-0.336 0.034-0.123 0.029-0.243-0.020-0.46-0.054-0.245-0.127-0.336-0.326-0.399-0.074-0.026-0.133-0.051-0.191-0.079l0.011 0.005c-0.118-0.054-0.169-0.057-0.325-0.017-0.064 0.017-0.145 0.031-0.181 0.031s-0.101 0.022-0.143 0.049c-0.039 0.026-0.084 0.047-0.131 0.062l-0.004 0.001c-0.069 0.015-0.171 0.082-0.171 0.11 0 0.040-0.152 0.221-0.194 0.232-0.027 0.007-0.058 0.044-0.084 0.104-0.176 0.408-0.603 0.078-0.505-0.39 0.027-0.131 0.136-0.39 0.163-0.39 0.009 0 0.017-0.009 0.017-0.021s0.009-0.032 0.020-0.045l0.095-0.114c0.185-0.222 0.29-0.309 0.427-0.352 0.028-0.009 0.079-0.036 0.113-0.064 0.095-0.073 0.191-0.064 0.264 0.024 0.034 0.039 0.072 0.071 0.085 0.071s0.051 0.027 0.082 0.060c0.207 0.222 0.881 0.47 1.010 0.372 0.175-0.133 0.196-0.211 0.256-0.925 0.013-0.154 0.036-0.352 0.052-0.439 0.093-0.525 0.003-0.616-0.803-0.81-0.066-0.015-0.124-0.039-0.177-0.070l0.003 0.002c-0.101-0.073-0.259-0.013-0.385 0.142-0.206 0.258-0.265 0.299-0.413 0.299-0.181 0-0.296-0.154-0.296-0.401-0.002-0.544 0.711-0.875 1.324-0.615 0.072 0.030 0.349 0.203 0.373 0.232 0.018 0.014 0.038 0.027 0.059 0.037l0.002 0.001q0.116 0.059 0.169 0.103c0.039 0.022 0.085 0.038 0.134 0.043h0.002c0.103 0.016 0.177 0.063 0.177 0.109 0 0.039 0.1 0.15 0.134 0.15 0.038 0 0.207-0.162 0.207-0.198 0-0.052 0.097-0.298 0.248-0.628 0.25-0.55 0.23-0.639-0.157-0.719-0.225-0.054-0.403-0.106-0.577-0.166l0.045 0.013c-0.497-0.168-0.677-0.172-0.708-0.020-0.052 0.249-0.1 0.321-0.264 0.405-0.503 0.255-0.876-0.227-0.395-0.51 0.196-0.116 0.337-0.238 0.352-0.305 0.050-0.228 0.205-0.324 0.524-0.324 0.192 0 0.234-0.007 0.327-0.051 0.272-0.127 0.504 0.214 0.241 0.354-0.063 0.034 0.014 0.072 0.198 0.098 0.404 0.059 0.526 0.082 0.594 0.11 0.25 0.104 0.347-0.303 0.1-0.423-0.131-0.064-0.178-0.237-0.091-0.333 0.034-0.038 0.034-0.041-0.014-0.078-0.178-0.136-0.353-0.155-0.432-0.045-0.239 0.327-0.653 0.154-0.653-0.272 0-0.264 0.256-0.416 0.42-0.25 0.040 0.041 0.082 0.073 0.093 0.069 0.359-0.107 0.785 0.052 1.029 0.384 0.104 0.143 0.27 0.454 0.285 0.537 0.014 0.079 0.169 0.201 0.253 0.201 0.151 0 0.223-0.404 0.112-0.623-0.034-0.057-0.054-0.127-0.054-0.201 0-0.047 0.008-0.092 0.023-0.134l-0.001 0.003c0.018-0.064 0.042-0.191 0.053-0.283s0.032-0.203 0.047-0.245l0.081-0.209c0.098-0.254 0.052-0.358-0.164-0.374-0.152-0.011-0.221 0.018-0.258 0.105-0.057 0.138-0.27 0.179-0.406 0.078-0.415-0.31 0.329-1.125 0.849-0.929zM13.002 17.497c-0.184 0.194-0.138 0.65 0.123 1.2 0.067 0.141 0.067 0.141 0.062 0.977-0.006 1.041 0.018 1.202 0.231 1.49 0.186 0.254 0.285 0.663 0.221 0.911-0.014 0.056-0.018 0.114-0.010 0.13 0.011 0.022 0.023 0.050 0.034 0.079l0.002 0.006c0.036 0.101 0.122 0.069 0.152-0.056 0.013-0.054 0.057-0.168 0.098-0.251 0.116-0.234 0.068-0.409-0.186-0.69-0.221-0.243-0.358-0.655-0.378-1.139-0.012-0.269 0.038-1.015 0.072-1.084 0.033-0.067 0.013-1.006-0.025-1.174-0.101-0.447-0.226-0.574-0.393-0.398zM17.398 17.443c-0.202 0.118-0.292 1.033-0.181 1.847 0.119 0.883-0.008 1.634-0.339 2.006-0.254 0.285-0.3 0.468-0.177 0.708 0.036 0.071 0.077 0.175 0.091 0.231 0.027 0.124 0.118 0.16 0.142 0.056 0.007-0.031 0.018-0.058 0.033-0.082l-0.001 0.001c0.012-0.015 0.006-0.073-0.017-0.163-0.059-0.23 0.059-0.638 0.27-0.937 0.185-0.263 0.193-0.32 0.194-1.368 0-0.924 0-0.924 0.093-1.135 0.251-0.569 0.282-0.913 0.1-1.105-0.079-0.082-0.139-0.1-0.209-0.058zM14.027 18.224c-0.023 0.023-0.041 0.054-0.041 0.073q0 0.032-0.030 0.021c-0.051-0.020-0.035 0.056 0.060 0.287 0.203 0.495 0.29 0.84 0.291 1.154 0 0.172 0.044 0.488 0.101 0.747 0.088 0.391 0.455 0.109 0.385-0.296-0.011-0.066-0.020-0.145-0.023-0.224v-0.003c0-0.136-0.036-0.402-0.072-0.511-0.062-0.195-0.13-0.486-0.13-0.558-0.001-0.371-0.379-0.85-0.542-0.688zM16.378 18.213c-0.131 0.072-0.341 0.506-0.341 0.705 0 0.075-0.109 0.512-0.143 0.577-0.073 0.137-0.122 0.869-0.067 1.014 0.086 0.224 0.312 0.23 0.37 0.009 0.047-0.178 0.102-0.584 0.102-0.754 0-0.348 0.073-0.631 0.309-1.202 0.072-0.171 0.093-0.272 0.053-0.247-0.011 0.007-0.028-0.010-0.039-0.038-0.034-0.089-0.142-0.118-0.242-0.064zM15.18 18.897c-0.168 0.111-0.174 0.156-0.098 0.762 0.054 0.425 0.062 0.594 0.033 0.688-0.009 0.032-0.029 0.122-0.042 0.199-0.046 0.262-0.131 0.497-0.249 0.71l0.006-0.012c-0.020 0.039-0.052 0.068-0.091 0.085h-0.001c-0.279 0.116-0.547 0.554-0.722 1.175-0.044 0.161-0.086 0.288-0.134 0.412l0.010-0.031c-0.054 0.135-0.064 0.21-0.038 0.309 0.018 0.068 0.044 0.056 0.061-0.029 0.012-0.057 0.211-0.577 0.253-0.658 0.009-0.018 0.041-0.092 0.070-0.163 0.238-0.593 0.476-0.835 0.791-0.81 0.154 0.012 0.163 0.009 0.212-0.040 0.053-0.053 0.053-0.053 0.104 0 0.051 0.050 0.058 0.052 0.223 0.040 0.309-0.022 0.578 0.23 0.75 0.699 0.020 0.056 0.103 0.255 0.186 0.444s0.162 0.39 0.177 0.447q0.048 0.181 0.084 0.013c0.015-0.066 0.007-0.104-0.044-0.23-0.037-0.093-0.079-0.221-0.116-0.35l-0.008-0.032c-0.156-0.575-0.447-1.058-0.712-1.183-0.133-0.064-0.272-0.377-0.353-0.797l-0.042-0.205c-0.028-0.13-0.022-0.265 0.033-0.679 0.069-0.533 0.059-0.69-0.045-0.728-0.037-0.018-0.070-0.038-0.099-0.061l0.001 0.001c-0.078-0.058-0.077-0.058-0.201 0.023zM13.896 19.359c-0.176 0.268-0.091 1 0.169 1.449 0.109 0.189 0.145 0.299 0.141 0.422-0.007 0.188 0.063 0.202 0.22 0.044 0.124-0.127 0.122-0.111 0.033-0.218-0.081-0.099-0.145-0.215-0.187-0.342l-0.002-0.008c-0.012-0.041-0.032-0.077-0.058-0.106v0c-0.027-0.022-0.034-0.098-0.045-0.513-0.013-0.499-0.024-0.568-0.105-0.687-0.073-0.106-0.115-0.117-0.164-0.042zM16.551 19.395c-0.092 0.157-0.097 0.191-0.103 0.623-0.006 0.454-0.018 0.574-0.061 0.59-0.015 0.006-0.042 0.058-0.061 0.115-0.037 0.129-0.099 0.24-0.181 0.334l0.001-0.001c-0.089 0.097-0.089 0.094 0.036 0.218 0.153 0.152 0.227 0.135 0.202-0.044-0.012-0.089-0.004-0.113 0.141-0.399 0.268-0.535 0.341-0.96 0.235-1.361-0.048-0.18-0.132-0.209-0.21-0.075zM15.284 21.626c-0.010 0.045-0.024 0.125-0.036 0.206l-0.004 0.030c-0.018 0.116-0.048 0.27-0.065 0.342-0.084 0.345-0.027 0.633 0.124 0.633 0.167 0 0.21-0.29 0.104-0.703-0.024-0.090-0.051-0.214-0.072-0.34l-0.004-0.027c-0.024-0.162-0.034-0.191-0.048-0.141zM14.575 22.036c-0.015 0.006-0.025 0.048-0.025 0.104 0 0.162-0.056 0.368-0.151 0.561-0.176 0.358-0.117 0.583 0.103 0.388 0.050-0.044 0.136-0.101 0.191-0.125 0.107-0.049 0.127-0.107 0.074-0.232-0.022-0.104-0.036-0.224-0.037-0.347v-0.001c-0.019-0.366-0.033-0.398-0.155-0.349zM15.918 22.050c-0.014 0.017-0.031 0.14-0.041 0.298-0.009 0.147-0.034 0.328-0.053 0.401-0.041 0.15-0.030 0.183 0.066 0.207 0.063 0.016 0.151 0.073 0.241 0.159 0.184 0.172 0.24-0.080 0.084-0.39-0.084-0.155-0.139-0.336-0.155-0.529v-0.005c-0.015-0.167-0.073-0.224-0.143-0.141zM15.010 23.421c-0.101 0.104-0.106 0.272-0.014 0.441 0.084 0.152 0.111 0.152 0.191-0.010 0.138-0.277 0-0.613-0.175-0.432zM15.465 23.393c-0.129 0.1-0.14 0.247-0.035 0.458 0.092 0.183 0.097 0.183 0.192-0.003 0.133-0.258 0.017-0.594-0.157-0.456zM14.695 23.713c-0.085 0.085-0.006 0.45 0.125 0.577 0.089 0.087 0.103 0.073 0.064-0.061-0.017-0.058-0.026-0.125-0.026-0.194 0-0.036 0.003-0.072 0.008-0.107v0.004c0.015-0.221-0.064-0.325-0.17-0.22zM15.776 23.709c-0.024 0.015-0.029 0.062-0.024 0.238 0.004 0.156-0.004 0.243-0.025 0.305-0.039 0.111-0.025 0.123 0.052 0.049 0.229-0.217 0.227-0.737-0.002-0.592zM14.446 23.879c-0.196 0.106-0.139 0.514 0.115 0.82 0.12 0.145 0.124 0.139 0.069-0.080-0.028-0.107-0.045-0.231-0.045-0.358 0-0.027 0.001-0.055 0.002-0.082v0.004c0.002-0.326-0.019-0.372-0.142-0.305zM16.050 23.892c-0.029 0.047-0.032 0.091-0.022 0.263 0.013 0.2-0.004 0.32-0.082 0.619-0.027 0.109 0.206-0.181 0.27-0.336q0.178-0.421-0.069-0.565c-0.064-0.038-0.064-0.038-0.098 0.018zM14.088 24.224c-0.232 0.084-0.313 0.231-0.281 0.508 0.030 0.25 0.181 0.565 0.181 0.378 0-0.088 0.062-0.297 0.104-0.35 0.040-0.058 0.073-0.124 0.095-0.195l0.001-0.005c0-0.015 0.018-0.035 0.040-0.047 0.087-0.045-0.009-0.323-0.104-0.299zM16.425 24.256c-0.085 0.094-0.116 0.226-0.058 0.248 0.054 0.022 0.254 0.454 0.268 0.578 0.014 0.139 0.024 0.132 0.106-0.077 0.133-0.336 0.095-0.597-0.103-0.717-0.132-0.080-0.165-0.084-0.213-0.032zM14.090 25.814c-0.234 0.093-0.441 0.79-0.234 0.79 0.097 0 0.134-0.081 0.171-0.37 0.020-0.152 0.064-0.288 0.136-0.417 0.009-0.018-0.031-0.018-0.073-0.002zM16.439 25.81c0 0.006 0.027 0.064 0.060 0.127 0.042 0.083 0.071 0.179 0.081 0.282v0.003c0.028 0.232 0.058 0.339 0.101 0.362 0.252 0.135 0.193-0.399-0.076-0.687-0.076-0.082-0.166-0.128-0.166-0.087zM14.215 26.623c-0.247 0.12-0.359 0.281-0.329 0.472 0.035 0.224 0.157 0.208 0.288-0.039 0.277-0.523 0.28-0.548 0.043-0.433zM16.218 26.585c0 0.135 0.293 0.649 0.375 0.657 0.268 0.027 0.145-0.445-0.154-0.596-0.207-0.105-0.221-0.109-0.221-0.061zM14.255 27.173c-0.243 0.135-0.327 0.367-0.189 0.521 0.118 0.132 0.323-0.063 0.454-0.429 0.041-0.112-0.126-0.17-0.265-0.092zM16.082 27.163c-0.033 0.021 0.001 0.118 0.114 0.327q0.2 0.365 0.345 0.203c0.144-0.161 0.067-0.369-0.191-0.522-0.047-0.027-0.23-0.034-0.269-0.009zM14.822 27.504c-0.376 0.154-0.516 0.436-0.318 0.633 0.143 0.143 0.375-0.071 0.439-0.404 0.054-0.281 0.044-0.298-0.122-0.23zM15.636 27.522c0 0.514 0.412 0.885 0.543 0.488 0.052-0.156-0.004-0.267-0.196-0.396-0.213-0.142-0.347-0.178-0.347-0.093zM15.267 27.533c-0.043 0.097-0.087 0.178-0.138 0.256l0.004-0.007c-0.277 0.463-0.221 0.69 0.171 0.69 0.401 0 0.456-0.272 0.146-0.729-0.035-0.052-0.071-0.113-0.103-0.176l-0.005-0.010q-0.051-0.121-0.075-0.024z"></path>
</svg>
