<!-- Generated by IcoMoon.io -->
<svg version="1.1" xmlns="http://www.w3.org/2000/svg" width="31" height="32" viewBox="0 0 31 32">
<path d="M14.948 30.213v-0.787l-1.188-0.234c-2.702-0.532-5.195-2.501-6.386-5.046-0.879-1.876-1.031-4.445-0.38-6.401 0.748-2.247 2.192-3.989 4.293-5.179 0.648-0.367 1.593-0.666 3.102-0.982 0.528-0.11 0.559-0.18 0.559-1.232 0-1.285 0.043-1.268-2.063-0.821-2.649 0.561-3.958 1.616-3.769 3.034l0.105 0.785-0.593-0.568c-1.106-1.060-1.482-2.475-1.482-5.578s0.376-4.518 1.482-5.578l0.593-0.568-0.105 0.785c-0.189 1.418 1.12 2.473 3.769 3.034 2.096 0.444 2.062 0.457 2.070-0.774 0.004-0.587 0.124-1.279 0.267-1.537l0.26-0.469 0.241 0.529c0.133 0.291 0.241 0.986 0.241 1.544v1.014l1.068-0.134c2.311-0.289 4.492-1.406 4.749-2.432 0.069-0.275 0.063-0.751-0.014-1.059l-0.139-0.559 0.625 0.597c1.138 1.087 1.514 2.48 1.514 5.607s-0.376 4.52-1.514 5.607l-0.625 0.597 0.139-0.559c0.077-0.308 0.083-0.784 0.014-1.059-0.258-1.026-2.439-2.143-4.749-2.432l-1.068-0.134v1.122c0 1.060 0.031 1.128 0.559 1.237 3.053 0.627 4.962 1.829 6.375 4.014 1.108 1.714 1.465 3.108 1.368 5.336-0.067 1.531-0.186 2.057-0.727 3.214-1.192 2.545-3.684 4.514-6.386 5.046l-1.188 0.234v0.787c0 0.704-0.054 0.787-0.508 0.787s-0.508-0.083-0.508-0.787zM15.152 28.485c0-0.249-0.79-0.473-2.115-0.6-0.68-0.065-0.587 0.444 0.118 0.647 1.038 0.299 1.997 0.277 1.997-0.047zM17.591 28.581c0.279-0.078 0.54-0.31 0.58-0.517 0.059-0.309-0.013-0.351-0.406-0.235-0.263 0.078-0.821 0.194-1.241 0.259-0.969 0.15-1.052 0.683-0.102 0.654 0.364-0.011 0.889-0.084 1.168-0.161zM12.101 27.674c0-0.152-0.389-0.521-0.864-0.822-1.035-0.654-1.212-0.706-1.318-0.388-0.090 0.269 1.473 1.485 1.908 1.485 0.151 0 0.275-0.124 0.275-0.276zM20.206 27.338c0.824-0.597 1.008-0.89 0.684-1.091-0.239-0.147-2.305 1.294-2.169 1.514 0.201 0.326 0.614 0.208 1.486-0.423zM18.489 26.723c4.342-2.052 5.332-7.814 1.919-11.173-1.462-1.439-2.55-1.905-4.674-2.001-1.607-0.073-1.866-0.028-3.051 0.522-1.509 0.701-3.017 2.198-3.681 3.656-0.341 0.748-0.442 1.36-0.444 2.697-0.003 2.139 0.588 3.584 2.044 4.999 1.448 1.407 2.641 1.879 4.802 1.899 1.578 0.015 1.927-0.053 3.084-0.6zM14.993 21.124c-0.249-0.174-0.452-0.529-0.452-0.789 0-1.087 1.561-1.286 1.924-0.246 0.175 0.499 0.136 0.635-0.273 0.966-0.576 0.466-0.628 0.469-1.199 0.069zM9.66 25.706c0-0.241-1.259-2.028-1.429-2.028-0.518 0-0.154 1.076 0.669 1.977 0.392 0.429 0.76 0.453 0.76 0.051zM22.596 24.858c0.642-1.241 0.040-1.342-0.797-0.134-0.672 0.971-0.611 1.7 0.089 1.067 0.233-0.211 0.551-0.631 0.708-0.933zM23.499 22.851c0.073-0.272 0.198-0.846 0.278-1.275 0.126-0.674 0.098-0.771-0.207-0.712-0.244 0.047-0.431 0.414-0.604 1.185-0.138 0.614-0.205 1.191-0.149 1.282 0.179 0.29 0.547 0.032 0.683-0.48zM7.935 21.99c-0.162-0.721-0.351-1.080-0.591-1.126-0.305-0.059-0.333 0.039-0.21 0.712 0.224 1.227 0.451 1.698 0.76 1.58 0.231-0.089 0.239-0.293 0.042-1.166zM7.744 19.661c0.069-0.308 0.201-0.857 0.293-1.22s0.136-0.661 0.099-0.661c-0.038 0-0.202-0.051-0.365-0.114-0.217-0.083-0.333 0.095-0.43 0.661-0.073 0.426-0.183 1.027-0.244 1.334-0.153 0.772 0.476 0.772 0.649 0zM23.768 19.356c-0.23-1.488-0.548-2.052-0.936-1.664-0.064 0.064-0.042 0.407 0.048 0.763s0.22 0.899 0.289 1.207c0.069 0.308 0.262 0.559 0.429 0.559 0.243 0 0.277-0.174 0.17-0.864zM9.023 16.23c0.61-0.865 0.739-1.715 0.211-1.389-0.364 0.225-1.402 1.965-1.285 2.154 0.201 0.325 0.411 0.175 1.074-0.765zM22.964 16.996c0.117-0.189-0.921-1.929-1.285-2.154-0.528-0.326-0.398 0.523 0.212 1.388 0.663 0.94 0.873 1.090 1.074 0.765zM11.18 14.080c0.853-0.601 1.203-1.181 0.714-1.181-0.268 0-1.752 0.936-1.923 1.212-0.122 0.198 0.017 0.618 0.204 0.618 0.046 0 0.498-0.292 1.005-0.649zM20.948 14.315c0-0.301-1.465-1.399-1.881-1.41-0.522-0.014-0.226 0.547 0.61 1.158 0.897 0.655 1.271 0.729 1.271 0.252zM14.491 12.769c0.746-0.143 0.907-0.684 0.203-0.683-0.877 0.002-1.983 0.417-1.983 0.744 0 0.243 0.133 0.289 0.559 0.192 0.308-0.070 0.857-0.184 1.22-0.254zM18.347 12.772c0.075-0.228-1.374-0.687-2.167-0.687-0.753 0-0.439 0.527 0.446 0.748 1.053 0.263 1.621 0.243 1.721-0.060z"></path>
</svg>
