<!-- Generated by IcoMoon.io -->
<svg version="1.1" xmlns="http://www.w3.org/2000/svg" width="32" height="32" viewBox="0 0 32 32">
<path d="M8.619 29.882c-0.433-0.25-0.612-0.431-0.783-0.792-0.173-0.367-0.186-0.773-0.038-1.205 0.122-0.356 0.609-1.551 0.772-1.892 0.229-0.481 0.367-0.631 0.849-0.924 0.328-0.199 1.32-0.699 1.389-0.699 0.11 0 0.164-0.056 0.212-0.219 0.026-0.089 0.17-0.466 0.319-0.836 0.498-1.232 0.71-1.867 0.965-2.883 0.164-0.656 0.315-1.433 0.283-1.462-0.014-0.013-0.237-0.112-0.496-0.22-0.865-0.36-1.142-0.55-1.337-0.917-0.255-0.479-0.267-1.080-0.031-1.524 0.058-0.11 0.17-0.245 0.304-0.371 0.173-0.162 0.283-0.233 0.595-0.386 0.696-0.341 0.695-0.335 0.198-0.939-0.426-0.519-0.629-1.145-0.549-1.697 0.049-0.339 0.037-0.451-0.079-0.734-0.225-0.55-0.336-1.162-0.338-1.858-0.001-0.513 0.047-0.854 0.168-1.19 0.158-0.438 0.614-1.28 1.014-1.868 0.186-0.274 0.258-0.366 0.813-1.043 0.303-0.37 0.452-0.61 0.452-0.727-0-0.048-0.017-0.191-0.037-0.316-0.045-0.281-0.024-0.845 0.041-1.103 0.070-0.279 0.305-0.728 0.522-0.999 0.475-0.592 1.177-0.968 1.989-1.063 0.604-0.071 1.354 0.115 1.899 0.471 0.555 0.363 0.946 0.887 1.139 1.528 0.067 0.222 0.076 0.303 0.079 0.694 0.002 0.244-0.008 0.534-0.022 0.646-0.030 0.243-0.054 0.197 0.426 0.812 1.137 1.457 1.805 2.625 1.948 3.406 0.059 0.323 0.066 1.061 0.014 1.438-0.052 0.375-0.16 0.803-0.279 1.107-0.152 0.388-0.158 0.43-0.108 0.722 0.1 0.583-0.1 1.24-0.539 1.767-0.238 0.286-0.366 0.473-0.366 0.536 0 0.102 0.127 0.2 0.478 0.369 0.831 0.401 1.093 0.738 1.141 1.472 0.030 0.457-0.105 0.816-0.433 1.145-0.166 0.168-0.259 0.231-0.544 0.374-0.189 0.095-0.507 0.24-0.707 0.323l-0.364 0.151 0.017 0.118c0.009 0.065 0.061 0.33 0.116 0.589 0.287 1.371 0.631 2.461 1.175 3.731 0.095 0.221 0.213 0.532 0.262 0.692l0.090 0.29 0.154 0.071c0.22 0.101 0.917 0.503 1.277 0.738 0.281 0.183 0.319 0.218 0.459 0.433 0.493 0.751 1.271 2.181 1.333 2.448 0.069 0.301 0.011 0.764-0.131 1.054-0.113 0.231-0.418 0.535-0.713 0.711l-0.251 0.149-14.55-0.003-0.199-0.115zM20.594 28.46c1.227-0.012 2.247-0.031 2.266-0.043 0.025-0.016-0.022-0.13-0.17-0.412-0.288-0.548-0.705-1.288-0.786-1.396-0.072-0.096-0.318-0.252-0.887-0.563l-0.346-0.189h-9.459l-1.185 0.675-0.2 0.484c-0.27 0.655-0.537 1.35-0.537 1.4 0 0.035 0.275 0.042 1.893 0.048 4.385 0.018 7.314 0.016 9.411-0.004zM19.556 24.297c0.009-0.009-0.051-0.166-0.134-0.35-0.503-1.121-1.026-2.785-1.273-4.049-0.034-0.173-0.068-0.337-0.076-0.364-0.014-0.047-0.132-0.050-1.971-0.050h-1.956l-0.026 0.064c-0.014 0.035-0.092 0.359-0.173 0.718-0.299 1.33-0.776 2.816-1.189 3.701-0.069 0.148-0.125 0.286-0.125 0.307 0 0.032 0.568 0.039 3.453 0.039 1.899 0 3.46-0.007 3.469-0.016zM19.142 17.462c0.475-0.2 0.864-0.377 0.864-0.394 0-0.045-0.079-0.086-0.61-0.319-0.639-0.28-0.927-0.431-0.983-0.516-0.038-0.057-0.042-0.127-0.027-0.425l0.018-0.356-4.614 0.015-0.017 0.422c-0.009 0.232-0.028 0.433-0.043 0.446s-0.238 0.111-0.498 0.218c-0.494 0.204-1.048 0.462-1.071 0.499-0.013 0.021 0.482 0.247 1.314 0.599l0.4 0.169 4.401 0.005 0.864-0.364zM18.952 13.773c0.056-0.019 0.149-0.081 0.206-0.138 0.283-0.283 0.245-0.75-0.084-1.039-0.074-0.065-0.098-0.104-0.080-0.129 0.014-0.020 0.087-0.111 0.162-0.204 0.245-0.303 0.441-0.749 0.553-1.261 0.073-0.332 0.066-1.006-0.013-1.301-0.177-0.658-0.932-1.758-2.607-3.8l-0.205-0.249 0.154-0.141c0.19-0.174 0.297-0.364 0.334-0.597 0.070-0.435-0.142-0.901-0.511-1.126-0.255-0.155-0.696-0.241-0.995-0.194-0.394 0.062-0.806 0.348-0.963 0.67-0.202 0.412-0.118 0.889 0.217 1.23 0.078 0.079 0.141 0.159 0.141 0.178s-0.101 0.154-0.224 0.299c-0.289 0.342-0.542 0.67-0.594 0.77-0.059 0.114-0.038 0.155 1.162 2.256 0.311 0.544 0.604 1.067 0.652 1.161l0.087 0.172-0.063 0.058c-0.098 0.090-0.647 0.492-0.67 0.492-0.012-0-0.129-0.197-0.261-0.436s-0.529-0.962-0.883-1.607c-0.354-0.644-0.66-1.189-0.679-1.21-0.029-0.031-0.064-0.003-0.192 0.157-0.271 0.339-0.687 1.001-0.946 1.506-0.274 0.533-0.312 1.168-0.116 1.929 0.088 0.344 0.331 0.846 0.524 1.084 0.080 0.098 0.145 0.183 0.145 0.188s-0.059 0.071-0.132 0.146c-0.165 0.172-0.239 0.332-0.239 0.516 0 0.194 0.081 0.358 0.261 0.531l0.15 0.144 2.802-0.011c2.067-0.008 2.829-0.019 2.904-0.045z"></path>
</svg>
