<!-- Generated by IcoMoon.io -->
<svg version="1.1" xmlns="http://www.w3.org/2000/svg" width="32" height="32" viewBox="0 0 32 32">
<path d="M11.527 23.839c-5.088-3.388-9.282-6.187-9.32-6.219s0.047-0.444 0.189-0.916c0.214-0.716 0.201-0.971-0.080-1.534l-0.337-0.676 18.734-12.494 0.849 0.562c1.184 0.784 3.929 3.426 4.788 4.611 1.492 2.056 2.239 3.737 3.025 6.812 0.463 1.81 0.419 2.89-0.213 5.257-0.791 2.963-1.603 4.523-3.629 6.976-1.105 1.338-3.954 3.781-4.409 3.781-0.189 0-4.507-2.772-9.595-6.161z"></path>
</svg>
