<!-- Generated by IcoMoon.io -->
<svg version="1.1" xmlns="http://www.w3.org/2000/svg" width="32" height="32" viewBox="0 0 32 32">
<path d="M23.768 18.747c-0.013-0.206-0.078-0.4-0.096-0.603-0.030-0.335 0.002-0.702 0.002-1.041 0-0.379 0-0.758 0-1.137 0-0.185-0.004-0.305-0.057-0.472-0.055-0.177-0.043-0.148-0.181-0.184-0.076-0.019-0.146-0.061-0.218-0.094-0.179-0.082-0.371-0.112-0.548-0.2-0.111-0.054-0.218-0.058-0.318-0.122-0.1-0.065-0.183-0.042-0.29-0.059-0.095-0.014-0.141-0.096-0.23-0.122-0.173-0.051-0.355-0.034-0.53-0.063-0.135-0.022-0.276-0.107-0.393-0.178-0.119-0.072-0.246-0.117-0.363-0.191-0.064-0.041-0.107-0.105-0.167-0.148-0.069-0.049-0.148-0.064-0.22-0.099-0.119-0.057-0.241-0.088-0.365-0.124-0.253-0.075-0.626-0.158-0.844 0.063-0.057 0.058-0.129 0.107-0.172 0.178-0.048 0.079-0.070 0.193-0.101 0.284-0.053 0.147-0.135 0.299-0.161 0.457-0.030 0.187-0.085 0.328-0.089 0.524-0.002 0.122-0.039 0.258-0.071 0.371-0.037 0.129-0.087 0.236-0.118 0.369-0.017 0.071-0.035 0.14-0.051 0.212-0.041 0.177-0.096 0.342-0.13 0.517-0.028 0.14-0.11 0.278-0.167 0.403-0.070 0.147-0.070 0.332-0.116 0.494-0.047 0.171-0.076 0.305-0.078 0.487 0 0.060-0.018 0.171 0.008 0.223 0.024 0.047 0.053 0.008 0.072 0.036 0.023 0.034 0.029 0.083 0.054 0.114 0.169 0.207 0.594-0.29 0.685 0.025 0.034 0.114 0.001 0.337 0.001 0.461 0 0.208-0.016 0.383-0.045 0.584-0.026 0.177-0.049 0.353-0.082 0.521-0.030 0.157-0.013 0.317-0.045 0.478-0.017 0.085-0.047 0.171-0.059 0.258-0.014 0.104 0.011 0.206-0.008 0.312-0.011 0.063-0.037 0.146-0.057 0.208-0.051 0.169-0.057 0.229-0.079 0.401-0.023 0.179-0.058 0.348-0.083 0.523-0.023 0.158-0.066 0.322-0.085 0.485-0.020 0.171-0.026 0.343-0.059 0.512-0.039 0.202-0.113 0.389-0.151 0.593-0.045 0.242-0.072 0.513-0.195 0.705-0.112 0.175-0.224 0.364-0.317 0.558-0.095 0.199-0.243 0.337-0.322 0.554-0.061 0.17-0.102 0.305-0.102 0.493 0.001 0.158-0.024 0.264 0.075 0.36 0.028 0.028 0.083 0.063 0.117 0.083 0.041 0.025 0.082 0.026 0.12 0.060 0.014 0.012 0.019 0.055 0.035 0.071 0.132 0.136 0.269 0.077 0.423 0.112 0.2 0.043 0.394 0.136 0.595 0.16 0.225 0.029 0.454 0.012 0.679 0.011 0.125-0.001 0.24-0.022 0.351 0.061 0.041 0.031 0.066 0.088 0.116 0.111 0.113 0.053 0.173-0.034 0.273-0.051 0.063-0.011 0.12 0.012 0.183-0.011 0.090-0.034 0.171-0.13 0.264-0.161 0.117-0.039 0.255-0.011 0.376-0.011 0.057 0 0.131 0.020 0.184 0.004 0.045-0.014 0.065-0.054 0.111-0.067 0.116-0.033 0.249 0.028 0.367 0.005 0.217-0.041 0.476-0.157 0.617-0.395 0.072-0.122 0.137-0.194 0.226-0.281 0.092-0.088 0.146-0.145 0.137-0.308-0.017-0.389-0.429-0.369-0.64-0.369 0.414-0.101 0.364-0.416 0.389-0.558 0.013-0.078 0.007-0.165 0.019-0.242 0.016-0.105 0.077-0.128 0.114-0.213 0.043-0.095 0.013-0.169 0.023-0.272 0.013-0.143 0.049-0.27 0.051-0.423 0-0.241 0.020-0.457 0.064-0.691 0.046-0.247 0.134-0.464 0.164-0.717 0.019-0.171 0.064-0.335 0.101-0.506 0.083-0.39 0.034-0.879 0.034-1.29 0-0.173 0.007-0.349 0.002-0.523-0.006-0.205-0.111-0.202-0.229-0.243-0.135-0.047-0.293-0.033-0.441-0.031-0.14 0.001-0.271-0.024-0.405-0.059-0.064-0.017-0.124-0.047-0.189-0.070-0.067-0.025-0.272-0.020-0.323-0.113-0.046-0.083 0.018-0.389 0.064-0.454 0.161-0.224 0.511 0.2 0.671 0.255 0.158 0.053 0.367 0.018 0.532 0.014 0.173-0.005 0.329-0.192 0.491-0.081 0.118 0.081 0.228 0.182 0.352 0.255 0.125 0.072 0.223 0.066 0.36 0.069 0.063 0 0.111-0.013 0.164-0.031 0.023-0.007 0.104-0.019 0.126-0.040 0.041-0.037 0.069-0.153 0.1-0.206 0.040-0.067 0.125-0.128 0.145-0.214 0.017-0.081-0.016-0.201-0.029-0.275-0.018-0.1-0.013-0.188-0.020-0.291z"></path>
<path d="M28.252 15.078c0.004 0.396-0.394 0.293-0.689 0.294-0.172 0.001-0.287-0.008-0.364-0.188-0.058-0.134-0.126-0.314-0.134-0.458-0.011-0.185-0.014-0.335 0.124-0.475 0.105-0.107 0.271-0.065 0.416-0.065l0.216 0.161c0.201 0.017 0.199 0.207 0.296 0.325 0.030 0.037 0.104 0.075 0.124 0.116 0.041 0.079 0.010 0.201 0.011 0.289zM26.902 12.354c0.002-0.037 0.004-0.073 0.006-0.111-0.004-0.030-0.019-0.051-0.046-0.063-0.005-0.069-0.017-0.161 0.096-0.151h0.216c0.051 0.064 0.122 0.101 0.175 0.159 0.061 0.067 0.089 0.145 0.134 0.22 0.067 0.113 0.163 0.202 0.232 0.322 0.069 0.118 0.073 0.29 0.053 0.432-0.016 0.111 0.004 0.093-0.107 0.107-0.051 0.007-0.142 0.012-0.192 0.001-0.084-0.018-0.234-0.102-0.296-0.163-0.083-0.079-0.118-0.231-0.16-0.353-0.043-0.123-0.088-0.271-0.111-0.402zM25.213 10.201c-0.139-0.018-0.242-0.136-0.355-0.218-0.022-0.016-0.092-0.084-0.119-0.096-0.077-0.034-0.165-0.012-0.247-0.049-0.122-0.055-0.167-0.172-0.281-0.231-0.084-0.045-0.122-0.045-0.11-0.163 0.007-0.073 0.004-0.142 0.11-0.107h0.431c0.125-0.023 0.296 0.122 0.381 0.202 0.045 0.045 0.049 0.078 0.090 0.124 0.055 0.063 0.113 0.043 0.179 0.102 0.064 0.058 0.082 0.112 0.158 0.164 0.046 0.031 0.095 0.058 0.125 0.105 0.132 0.21-0.24 0.184-0.363 0.167zM25.019 13.38c-0.116 0.018-0.255-0.004-0.373-0.002-0.108 0.001-0.272-0.013-0.37-0.065-0.24-0.124-0.117-0.506 0.043-0.636l-0.054-0.161c0.305 0 0.587-0.005 0.823 0.202 0.195 0.17 0.257 0.612-0.069 0.662zM23.833 11.276c-0.341-0.001-0.646-0.072-0.877-0.312-0.061-0.064-0.141-0.099-0.192-0.173-0.008-0.011-0.040-0.101-0.048-0.119-0.020-0.040-0.048-0.078-0.070-0.118-0.037-0.069-0.094-0.113-0.029-0.196 0.070-0.088 0.176-0.012 0.246-0.105v-0.054c0.178 0 0.326-0.008 0.483 0.066 0.199 0.094 0.387 0.173 0.567 0.29 0.207 0.135 0.241 0.235 0.242 0.479 0.002 0.253-0.096 0.243-0.323 0.242zM21.543 8.45c-0.219 0.082-0.572 0.033-0.808 0.025-0.093-0.004-0.105-0.013-0.186-0.054-0.075-0.037-0.218-0.063-0.278-0.119-0.055-0.053-0.178-0.351-0.048-0.366l0.27-0.054h0.509c0.188 0 0.399-0.034 0.571 0.054 0.079 0.041 0.335 0.171 0.329 0.271-0.005 0.066-0.293 0.218-0.359 0.243zM21.611 12.396c-0.148 0.105-0.322 0.184-0.5 0.223-0.173 0.037-0.387 0.001-0.565 0.004-0.148 0.002-0.419-0.058-0.53-0.172-0.020-0.021-0.040-0.11-0.061-0.139-0.020-0.026-0.064-0.064-0.089-0.087-0.069-0.060-0.096-0.082-0.135-0.161-0.043-0.087-0.054-0.143-0.048-0.249 0.006-0.136 0.064-0.165 0.139-0.27 0.099-0.14 0.172-0.257 0.347-0.323l0.216-0.053c0.004-0.016 0.006-0.030 0.010-0.046 0.158-0.057 0.536-0.035 0.692 0.004 0.195 0.047 0.269 0.238 0.475 0.266 0.016 0.107 0.089 0.185 0.113 0.288 0.011 0.046-0.006 0.088 0.001 0.134 0.007 0.051 0.041 0.087 0.052 0.135 0.035 0.16 0.026 0.347-0.116 0.447zM19.094 10.36c-0.198-0.001-0.397 0.010-0.595 0.001-0.194-0.008-0.231-0.214-0.283-0.378-0.073-0.232-0.045-0.344 0.149-0.508 0.12-0.101 0.247-0.195 0.402-0.193l0.054 0.108c0.089-0.104 0.453-0.077 0.579-0.058 0.081 0.012 0.26 0.087 0.288 0.163 0.022 0.061-0.006 0.208-0.005 0.272 0.001 0.173-0.028 0.33-0.16 0.455-0.112 0.105-0.275 0.139-0.43 0.137zM16.883 8.946c-0.187 0.090-0.387 0.176-0.582 0.242-0.049 0.017-0.135 0.088-0.199 0.039-0.055-0.043-0.028-0.142-0.029-0.213-0.002-0.214 0.161-0.326 0.271-0.501 0.046-0.073 0.096-0.154 0.171-0.204 0.046-0.030 0.106-0.036 0.153-0.064 0.030-0.017 0.051-0.039 0.073-0.058l-0.179 0.077c-0.036 0.018-0.072 0.035-0.112 0.048l0.112-0.048c0.066-0.033 0.13-0.069 0.202-0.092 0.017-0.011 0.036-0.021 0.063-0.022l-0.040 0.017c0.030-0.008 0.060-0.017 0.094-0.018 0.166-0.011 0.547-0.077 0.59 0.106 0.093 0.384-0.317 0.558-0.589 0.69zM16.533 10.739c-0.073 0.116-0.318 0.19-0.432 0.246-0.098 0.047-0.129 0.078-0.243 0.076-0.085-0.002-0.187 0.017-0.27 0.002-0.201-0.035-0.296-0.143-0.442-0.259-0.081-0.063-0.159-0.082-0.218-0.172-0.048-0.075-0.112-0.187-0.137-0.272-0.028-0.092-0.016-0.184 0.021-0.27 0.021-0.048 0.048-0.117 0.089-0.153 0.041-0.037 0.101-0.001 0.149-0.061l0.053 0.107c0.226 0 0.49-0.041 0.699 0.040 0.204 0.078 0.357 0.185 0.538 0.297 0.149 0.090 0.322 0.22 0.194 0.419zM29.671 15.173c-0.067-0.212-0.095-0.489-0.13-0.715-0.036-0.231-0.083-0.399-0.177-0.59-0.052-0.104-0.087-0.196-0.147-0.291-0.059-0.092-0.136-0.175-0.188-0.272-0.040-0.073-0.054-0.166-0.095-0.237-0.051-0.085-0.128-0.117-0.186-0.189-0.102-0.13-0.16-0.329-0.253-0.471-0.078-0.122-0.122-0.258-0.194-0.387-0.090-0.164-0.175-0.359-0.282-0.504-0.129-0.173-0.285-0.278-0.432-0.408-0.222-0.194-0.443-0.394-0.661-0.595-0.369-0.341-0.782-0.581-1.154-0.921-0.117-0.106-0.214-0.243-0.34-0.328-0.17-0.114-0.343-0.225-0.507-0.353-0.161-0.126-0.329-0.22-0.494-0.347-0.098-0.073-0.19-0.137-0.296-0.187-0.159-0.072-0.326-0.078-0.487-0.145-0.318-0.132-0.653-0.257-0.948-0.459-0.171-0.118-0.353-0.213-0.538-0.273-0.263-0.085-0.482-0.307-0.741-0.405-0.195-0.073-0.429-0.028-0.631-0.028h-1.336c-0.488 0-0.986-0.046-1.466 0.090-0.42 0.118-0.827 0.232-1.254 0.275-0.095 0.008-0.211 0.040-0.296 0.093-0.11 0.069-0.166 0.080-0.288 0.1-0.088 0.014-0.164 0.075-0.248 0.104-0.093 0.031-0.181 0.018-0.27 0.073-0.16 0.099-0.324 0.187-0.491 0.271-0.084 0.042-0.172 0.065-0.255 0.111-0.076 0.042-0.146 0.129-0.222 0.164-0.061 0.026-0.114 0.017-0.177 0.052-0.078 0.043-0.151 0.113-0.232 0.137-0.071 0.022-0.123 0.007-0.193 0.048-0.054 0.031-0.098 0.061-0.152 0.084-0.125 0.054-0.24 0.057-0.359 0.14-0.054 0.039-0.107 0.078-0.161 0.114-0.112 0.075-0.198 0.179-0.302 0.257-0.13 0.094-0.194 0.167-0.291 0.328-0.095 0.157-0.137 0.211-0.136 0.414 0 0.14 0.006 0.304 0.077 0.414 0.082 0.129 0.234 0.143 0.338 0.214 0.185 0.126 0.406 0.243 0.588 0.396 0.073 0.063 0.1 0.082 0.181 0.108 0.096 0.031 0.187 0.072 0.279 0.124 0.111 0.063 0.199 0.179 0.313 0.232 0.11 0.051 0.223 0.047 0.33 0.123 0.051 0.035 0.088 0.082 0.146 0.107 0.060 0.026 0.123 0.029 0.178 0.072 0.061 0.046 0.106 0.102 0.173 0.141 0.287 0.161 0.576 0.247 0.889 0.301 0.161 0.029 0.32-0.017 0.482 0.034 0.093 0.030 0.173 0.083 0.269 0.096 0.16 0.022 0.308 0.088 0.462 0.158 0.173 0.078 0.33 0.157 0.508 0.223 0.102 0.037 0.179 0.098 0.285 0.11 0.092 0.010 0.161 0.043 0.25 0.077 0.173 0.066 0.359 0.077 0.526 0.166 0.165 0.088 0.299 0.119 0.47 0.171 0.143 0.042 0.278 0.142 0.418 0.212 0.146 0.073 0.29 0.165 0.435 0.247 0.273 0.155 0.559 0.308 0.844 0.417 0.175 0.066 0.369 0.023 0.543 0.095 0.201 0.084 0.403 0.1 0.611 0.143 0.158 0.033 0.314-0.019 0.466 0.036 0.099 0.036 0.186 0.037 0.277 0.084 0.104 0.053 0.234 0.117 0.337 0.131 0.106 0.016 0.198 0.004 0.299 0.065 0.081 0.051 0.116 0.099 0.205 0.126 0.059 0.018 0.128 0.030 0.182 0.052 0.119 0.045 0.217 0.114 0.323 0.187 0.179 0.124 0.401 0.172 0.593 0.289 0.223 0.135 0.437 0.238 0.67 0.335 0.060 0.025 0.107 0.088 0.17 0.108 0.024 0.007 0.049-0.006 0.072 0.001 0.054 0.017 0.105 0.046 0.159 0.063 0.11 0.036 0.223 0.046 0.332 0.076 0.090 0.024 0.206 0.099 0.306 0.14 0.111 0.045 0.213 0.086 0.324 0.123 0.165 0.055 0.331 0.001 0.495 0.092 0.131 0.073 0.276 0.099 0.414 0.155 0.124 0.051 0.211 0.093 0.342 0.090 0.123-0.002 0.184 0.037 0.296 0.094 0.065 0.034 0.114 0.025 0.183 0.028 0.064 0.004 0.079 0.034 0.124 0.049 0.112 0.039 0.232 0.052 0.346 0.088 0.052 0.017 0.072 0.049 0.145 0.048 0.058-0.001 0.114-0.001 0.171 0 0.072 0 0.135 0.007 0.196-0.029 0.047-0.026 0.077-0.083 0.136-0.094-0.006-0.738-0.043-1.129-0.149-1.471z"></path>
<path d="M15.643 25.33c-0.006-0.172-0.055-0.213-0.148-0.31-0.167-0.173-0.3-0.365-0.343-0.655-0.061-0.41-0.053-0.82-0.093-1.231-0.025-0.26-0.004-0.521-0.055-0.779-0.013-0.063-0.040-0.106-0.048-0.169-0.011-0.067 0.012-0.132-0.001-0.199-0.026-0.131-0.072-0.231-0.087-0.371-0.016-0.155-0.075-0.276-0.094-0.428 0.007-0.075 0.005-0.148-0.006-0.222-0.019-0.067-0.043-0.129-0.075-0.186-0.011-0.043-0.011-0.088-0.019-0.131-0.047-0.247-0.134-0.46-0.22-0.68-0.077-0.198-0.057-0.37-0.098-0.568-0.025-0.125-0.072-0.23-0.093-0.36-0.018-0.11-0.037-0.231-0.070-0.335 0-0.002-0.046-0.072-0.048-0.082-0.024-0.113 0.011-0.308-0.073-0.394-0.132-0.132-0.493 0.166-0.621 0.238-0.104 0.060-0.183 0.019-0.291 0.042-0.087 0.018-0.129 0.090-0.193 0.172-0.048 0.052-0.093 0.11-0.132 0.175-0.029 0.063-0.067 0.093-0.117 0.088-0.021 0.022-0.042 0.065-0.065 0.084-0.088 0.071-0.217 0.036-0.323 0.036-0.141 0-0.499 0.059-0.524-0.179-0.022-0.202 0.118-0.414 0.232-0.499 0.040-0.029 0.099-0.095 0.14-0.111s0.088 0.011 0.123-0.019c0.055-0.046 0.089-0.17 0.145-0.222 0.083-0.078 0.181-0.076 0.278-0.075 0.191 0.002 0.422 0.049 0.596-0.077 0.153-0.111 0.229-0.296 0.407-0.291 0.125 0.004 0.251-0.001 0.376 0 0.155 0.001 0.264-0.030 0.412-0.063 0.073-0.017 0.196-0.011 0.264-0.071 0.049-0.043 0.046-0.113 0.075-0.173 0.022-0.045 0.067-0.077 0.087-0.119 0.054-0.123-0.006-0.282-0.037-0.402-0.017-0.071-0.054-0.12-0.071-0.199-0.011-0.054-0.006-0.113-0.018-0.169-0.031-0.131-0.093-0.265-0.129-0.4-0.033-0.125-0.058-0.21-0.136-0.294-0.148-0.158-0.283-0.351-0.401-0.554-0.11-0.187-0.225-0.402-0.373-0.534-0.2-0.176-0.382-0.377-0.566-0.583-0.090-0.1-0.146-0.166-0.195-0.307-0.045-0.129-0.107-0.232-0.189-0.325-0.152-0.171-0.317-0.105-0.464 0.033-0.151 0.14-0.317 0.255-0.489 0.336-0.223 0.105-0.426 0.251-0.658 0.326-0.16 0.053-0.31 0.134-0.45 0.243-0.179 0.136-0.4 0.234-0.594 0.31-0.039 0.016-0.077 0.013-0.117 0.035-0.045 0.023-0.060 0.077-0.113 0.092-0.085 0.023-0.104 0.010-0.181 0.057-0.085 0.052-0.149 0.055-0.219 0.137-0.043 0.052-0.113 0.112-0.151 0.166-0.090 0.135-0.043 0.455-0.043 0.63v0.723c0 0.23-0.031 0.514-0.002 0.741 0.012 0.089 0.046 0.142 0.049 0.245 0.001 0.039-0.001 0.081-0.001 0.12 0 0.101 0 0.204 0 0.306 0 0.272 0.047 0.5 0.046 0.771 0 0.064-0.013 0.151-0.004 0.212 0.011 0.072 0.047 0.094 0.067 0.154 0.039 0.118 0.028 0.176 0.141 0.148 0.157-0.037 0.291-0.277 0.4-0.417 0.089 0.066 0.152 0.118 0.205 0.236 0.058 0.126 0.107 0.193 0.175 0.308 0.048 0.085 0.049 0.182 0.070 0.276 0.026 0.125 0.077 0.207 0.087 0.338 0.019 0.236 0.099 0.475 0.141 0.706 0.023 0.124 0.035 0.208 0.041 0.337 0.007 0.149 0.048 0.275 0.046 0.431-0.001 0.204 0.001 0.407 0.001 0.611 0 0.123 0.004 0.246 0.001 0.369-0.004 0.131-0.041 0.24-0.048 0.369-0.008 0.14 0.012 0.281-0.010 0.417-0.011 0.072-0.036 0.132-0.035 0.229 0.002 0.266-0.012 0.507-0.057 0.768-0.082 0.472-0.035 1.013-0.035 1.503 0 0.211-0.017 0.436-0.001 0.646 0.013 0.176 0.089 0.511 0.23 0.555 0.143 0.046 0.354-0.004 0.501-0.004 0.166 0 0.332-0.001 0.497 0 0.213 0 0.39-0.063 0.602-0.063h0.499c0.376 0 0.761 0.034 1.136 0.002 0.1-0.007 0.178-0.057 0.278-0.061 0.060-0.004 0.129-0.030 0.191-0.064l0.494-0.613c-0.081 0.267-0.232 0.44-0.419 0.567-0.023 0.016-0.048 0.031-0.075 0.046l-0.1 0.123c0.001 0.018 0.004 0.035 0.005 0.052 0.12 0.055 0.243-0.007 0.357-0.052 0.172-0.067 0.352-0.116 0.521-0.199 0.045-0.033 0.089-0.064 0.132-0.096 0.043-0.006 0.085-0.012 0.129-0.019 0.040-0.030 0.067-0.104 0.081-0.155 0.041-0.151 0.014-0.408 0.008-0.574-0.005-0.147-0.041-0.278-0.046-0.426z"></path>
<path d="M15.049 26.065l-0.494 0.613c0.026-0.014 0.053-0.030 0.076-0.046 0.185-0.128 0.337-0.3 0.418-0.567z"></path>
<path d="M9.204 12.597c-0.142 0.035-0.536 0.092-0.623-0.023-0.096-0.126-0.072-0.44-0.041-0.585 0.006-0.025 0.039-0.053 0.043-0.090 0.007-0.045-0.016-0.096-0.004-0.14 0.025-0.098 0.149-0.201 0.218-0.266l0.107-0.054c0.112 0 0.238 0.018 0.347-0.005 0.034-0.007 0.045-0.043 0.082-0.052 0.042-0.010 0.12 0.002 0.164 0.002 0.165 0.001 0.377-0.054 0.485 0.085 0.258 0.332 0 0.652-0.279 0.871-0.073 0.058-0.169 0.145-0.246 0.191-0.076 0.046-0.165 0.043-0.254 0.065zM7.836 9.813c-0.113-0.111 0.087-0.371 0.207-0.37h0.054c0.193-0.087 0.259-0.294 0.432-0.391 0.131-0.073 0.164-0.148 0.323-0.147 0.182 0.002 0.302-0.029 0.393 0.161 0.061 0.131 0.058 0.265-0.041 0.378-0.096 0.111-0.23 0.11-0.348 0.171-0.096 0.051-0.166 0.085-0.271 0.111-0.11 0.026-0.224 0.014-0.33 0.037-0.087 0.019-0.332 0.134-0.419 0.049zM7.832 11.439c-0.022 0.081-0.093 0.118-0.14 0.185-0.112 0.161-0.243 0.297-0.376 0.437-0.029 0.030-0.054 0.077-0.084 0.105-0.066 0.060-0.132 0.052-0.204 0.092-0.084 0.047-0.119 0.123-0.196 0.177-0.177 0.125-0.328 0.142-0.541 0.135-0.105-0.004-0.134-0.006-0.19-0.107-0.082-0.145 0.004-0.122 0.11-0.217l0.27-0.323c-0.004-0.078-0.013-0.149 0.030-0.21 0.014-0.018 0.060-0.019 0.080-0.033 0.052-0.035 0.107-0.094 0.158-0.134 0.129-0.101 0.293-0.253 0.442-0.314 0.105-0.043 0.417-0.040 0.531-0.014 0.101 0.022 0.137 0.118 0.111 0.22zM6.872 14.632c-0.065 0.069-0.157 0.114-0.231 0.175-0.107 0.087-0.108 0.108-0.236 0.14-0.035 0.008-0.045 0.042-0.083 0.051-0.048 0.012-0.114-0.002-0.165-0.002-0.104 0-0.182 0.018-0.255-0.065-0.128-0.142-0.085-0.434-0.013-0.582l0.161-0.107c0.255-0.114 0.568-0.279 0.853-0.21 0.039 0.207 0.143 0.418-0.030 0.601zM5.699 10.383c-0.071 0.053-0.161 0.054-0.232 0.098-0.064 0.037-0.106 0.112-0.186 0.139-0.083 0.028-0.167-0.004-0.253 0.008-0.069 0.008-0.346 0.149-0.272-0.052h0.161c0.067-0.095 0.151-0.169 0.205-0.271 0.030-0.057 0.037-0.129 0.069-0.185 0.060-0.106 0.151-0.189 0.246-0.271 0.046-0.041 0.095-0.089 0.143-0.125 0.019-0.014 0.059-0.004 0.077-0.018 0.048-0.040 0.063-0.087 0.12-0.122 0.052-0.030 0.111-0.046 0.165-0.072 0.105-0.049 0.154-0.064 0.267-0.066 0.101-0.004 0.191-0.029 0.222 0.078 0.030 0.105-0.037 0.124-0.087 0.189-0.047 0.060-0.061 0.104-0.122 0.163-0.061 0.060-0.1 0.11-0.173 0.163-0.14 0.099-0.217 0.247-0.351 0.346zM4.862 12.243c-0.024 0.072-0.019 0.139-0.051 0.219-0.026 0.065-0.054 0.129-0.081 0.194-0.051 0.122-0.159 0.246-0.187 0.372-0.022 0.098 0.010 0.199-0.016 0.296-0.045 0.17 0.002 0.387-0.136 0.5-0.088 0.072-0.266 0.344-0.606 0.47-0.001-0.147-0.005-0.282 0.026-0.426 0.039-0.182 0.143-0.32 0.194-0.496 0.030-0.105 0.048-0.196 0.102-0.304 0.073-0.143 0.132-0.293 0.19-0.442 0.065-0.17 0.131-0.296 0.229-0.444 0.023-0.035 0.002-0.070 0.041-0.094 0.041-0.025 0.093 0.010 0.136 0 0.101-0.023 0.132-0.087 0.26-0.048 0.006 0.089-0.078 0.129-0.104 0.204zM4.462 15.831c-0.021 0.055-0.058 0.192-0.093 0.231-0.141 0.159-0.29 0.002-0.422-0.043l0.107-0.161c0-0.131-0.064-0.459 0.052-0.564 0.036-0.033 0.165-0.053 0.219-0.036 0.1 0.033 0.14 0.19 0.157 0.282 0.017 0.099 0.012 0.199-0.021 0.291zM7.343 7.396c-0.005-0.132 0.17-0.194 0.267-0.229 0.126-0.046 0.253-0.095 0.367-0.16 0.112-0.064 0.218-0.096 0.332-0.149 0.079-0.039 0.142-0.029 0.22-0.052 0.069-0.019 0.099-0.077 0.159-0.101 0.107-0.041 0.271-0.010 0.387-0.010 0.145 0 0.335-0.039 0.45 0.051 0.335 0.26-0.313 0.397-0.434 0.468-0.114 0.067-0.235 0.122-0.352 0.182-0.112 0.058-0.161 0.182-0.267 0.258-0.245 0.176-0.46 0.383-0.777 0.389-0.134 0.002-0.696 0.189-0.682-0.053 0.017-0.269 0.332-0.488 0.328-0.594zM9.336 5.51c0.039-0.107 0.195-0.232 0.311-0.259 0.078-0.017 0.151-0.002 0.229-0.023 0.059-0.014 0.094-0.040 0.161-0.043 0.152-0.006 0.276-0.051 0.431-0.052 0.169-0.002 0.308-0.065 0.472-0.095 0.078-0.016 0.147-0.001 0.224-0.010 0.114-0.013 0.213-0.057 0.33-0.058 0.064-0.001 0.139 0.013 0.201 0.004 0.084-0.013 0.14-0.059 0.228-0.059 0.263-0.001 0.472 0.388 0.217 0.542-0.225 0.136-0.544-0.031-0.768 0.092-0.073 0.040-0.117 0.111-0.202 0.128-0.052 0.010-0.111-0.016-0.163-0.007-0.075 0.012-0.149 0.052-0.225 0.070-0.13 0.031-0.241 0.024-0.372 0.040-0.136 0.014-0.236 0.104-0.372 0.11-0.125 0.006-0.313 0.030-0.434 0.002-0.092-0.022-0.246-0.096-0.31-0.165-0.099-0.104-0.065-0.243 0.042-0.216zM11.115 7.708c-0.201 0.051-0.457 0.022-0.593-0.151v-0.107c0.042-0.055 0.095-0.154 0.159-0.19 0.081-0.046 0.19-0.025 0.284-0.025 0.161 0 0.512-0.080 0.53 0.134 0.018 0.217-0.219 0.299-0.381 0.34zM13.54 5.834l0.27-0.108c0.19-0.001 0.343 0.071 0.535 0.114 0.143 0.033 0.277 0.048 0.406 0.107 0.061 0.029 0.198 0.057 0.237 0.112 0.031 0.046 0.007 0.152 0.007 0.205 0 0.054 0.024 0.16-0.007 0.205-0.037 0.054-0.183 0.088-0.237 0.113-0.12 0.055-0.23 0.075-0.372 0.061-0.102-0.008-0.228-0.030-0.325-0.055-0.085-0.022-0.077-0.059-0.147-0.098-0.057-0.031-0.139-0.018-0.204-0.048-0.092-0.043-0.13-0.092-0.177-0.178-0.045-0.082-0.212-0.441 0.014-0.43zM15.911 5.403l0.054-0.108c0.107 0 0.194 0.001 0.296 0.028 0.095 0.024 0.199 0.066 0.296 0.083 0.131 0.023 0.189-0.034 0.299 0.076 0.118 0.117 0.107 0.226-0.070 0.248-0.090 0.011-0.192-0.005-0.283-0.004-0.119 0.001-0.207-0.051-0.323-0.055-0.113-0.005-0.167-0.013-0.271-0.066-0.043-0.022-0.11-0.033-0.114-0.093-0.005-0.061 0.055-0.116 0.116-0.108zM9.663 14.578c0.039-0.023 0.066-0.087 0.102-0.116 0.076-0.064 0.16-0.084 0.241-0.129 0.116-0.061 0.228-0.146 0.342-0.223 0.128-0.087 0.253-0.139 0.384-0.207 0.054-0.028 0.11-0.078 0.164-0.114 0.072-0.051 0.105-0.045 0.182-0.073 0.139-0.052 0.281-0.196 0.412-0.266 0.028-0.016 0.087-0.019 0.114-0.041s0.039-0.078 0.066-0.099c0.058-0.045 0.123-0.053 0.183-0.105 0.051-0.042 0.113-0.079 0.16-0.128 0.093-0.093 0.094-0.114 0.206-0.154 0.089-0.031 0.16-0.126 0.251-0.171 0.059-0.029 0.124-0.045 0.183-0.076 0.122-0.063 0.222-0.181 0.343-0.241 0.107-0.053 0.224-0.043 0.341-0.089 0.132-0.051 0.282-0.125 0.4-0.2 0.112-0.070 0.22-0.092 0.334-0.176 0.143-0.107 0.271-0.084 0.43-0.084-0.251-0.021-0.375-0.084-0.5-0.122-0.159-0.048-0.287-0.177-0.442-0.232-0.236-0.083-0.459-0.183-0.696-0.277-0.1-0.040-0.193-0.088-0.281-0.154-0.047-0.035-0.093-0.075-0.137-0.122-0.096-0.107-0.213-0.231-0.272-0.379-0.065-0.163-0.061-0.417-0.047-0.611 0.017-0.241 0.049-0.485 0.129-0.7 0.059-0.159 0.143-0.27 0.228-0.412 0.212-0.358 0.488-0.432 0.806-0.567 0.196-0.083 0.39-0.159 0.584-0.246 0.119-0.053 0.238-0.083 0.359-0.124 0.078-0.025 0.151-0.021 0.224-0.041 0.081-0.023 0.148-0.045 0.229-0.061 0.069-0.014 0.116-0.087 0.179-0.114 0.079-0.033 0.167-0.007 0.249-0.025 0.114-0.026 0.253-0.023 0.36-0.075 0.079-0.039 0.096-0.088 0.182-0.098 0.053-0.006 0.070 0.007 0.116-0.011 0.063-0.024 0.12-0.099 0.202-0.112 0.187-0.030 0.384-0.080 0.564-0.158 0.231-0.101 0.473-0.126 0.708-0.225 0.177-0.075 0.359 0.006 0.538-0.048 0.043-0.012 0.079-0.031 0.116-0.051 0.065-0.035 0.125-0.069 0.21-0.071 0.107-0.001 0.19-0.031 0.295-0.053 0.131-0.029 0.419-0.014 0.477-0.219 0.040-0.139-0.028-0.36-0.070-0.463-0.012-0.028-0.047-0.061-0.061-0.092-0.012-0.026-0.013-0.067-0.025-0.095-0.022-0.049-0.085-0.114-0.118-0.143-0.028-0.024-0.058-0.045-0.088-0.066-0.039-0.088-0.089-0.161-0.151-0.199-0.058-0.007-0.111-0.029-0.157-0.064-0.016-0.029-0.035-0.055-0.058-0.078-0.031-0.026-0.060-0.049-0.095-0.071-0.125-0.075-0.276-0.126-0.407-0.189-0.163-0.078-0.331-0.139-0.501-0.198-0.052-0.023-0.105-0.045-0.159-0.061-0.232-0.072-0.455-0.172-0.678-0.266-0.255-0.107-0.517-0.195-0.79-0.196-0.066-0.029-0.134-0.059-0.202-0.088-0.281-0.113-0.532-0.252-0.841-0.257-0.266-0.005-0.534 0.001-0.801 0.001h-1.522c-0.228 0-0.454 0.001-0.681 0-0.152-0.001-0.212 0.022-0.347 0.055-0.249 0.061-0.506 0.045-0.756 0.119-0.438 0.131-0.877 0.284-1.291 0.485-0.24 0.116-0.497 0.228-0.744 0.325-0.117 0.046-0.257 0.052-0.377 0.104-0.090 0.039-0.154 0.108-0.241 0.153-0.066 0.036-0.137 0.049-0.205 0.083-0.125 0.064-0.202 0.201-0.31 0.294-0.075 0.065-0.145 0.149-0.224 0.214-0.114 0.096-0.243 0.132-0.354 0.236-0.076 0.070-0.135 0.152-0.214 0.223-0.146 0.131-0.308 0.247-0.457 0.375-0.139 0.12-0.272 0.249-0.418 0.365-0.351 0.278-0.659 0.568-0.906 0.948-0.104 0.159-0.188 0.318-0.279 0.493-0.057 0.107-0.11 0.216-0.163 0.325-0.047 0.098-0.048 0.171-0.078 0.27-0.046 0.146-0.176 0.278-0.235 0.42-0.041 0.099-0.081 0.16-0.134 0.249-0.039 0.065-0.028 0.081-0.052 0.139-0.033 0.076-0.059 0.093-0.11 0.16-0.064 0.084-0.112 0.182-0.172 0.269-0.048 0.069-0.112 0.128-0.153 0.201-0.048 0.089-0.057 0.187-0.105 0.277-0.042 0.082-0.106 0.14-0.148 0.222-0.1 0.194-0.201 0.435-0.229 0.648-0.029 0.225-0.132 0.485-0.216 0.701-0.043 0.112-0.037 0.196-0.064 0.311-0.029 0.119-0.086 0.213-0.098 0.337-0.012 0.117-0.055 0.201-0.054 0.323 0.001 0.089 0 0.179 0 0.269v2.533c0 0.090 0.001 0.181 0 0.27-0.001 0.113 0.041 0.189 0.055 0.296 0.014 0.1-0.016 0.198 0.011 0.296 0.025 0.1 0.048 0.195 0.069 0.296 0.035 0.176 0.052 0.336 0.161 0.485 0.057 0.076 0.098 0.183 0.166 0.245 0.060 0.055 0.169 0.088 0.238 0.132 0.178 0.116 0.288 0.063 0.459 0.030 0.023 0.041 0.048 0.075 0.077 0.092 0.119 0.070 0.266-0.017 0.378-0.054 0.143-0.046 0.282-0.051 0.401-0.182 0.098-0.107 0.217-0.2 0.33-0.294 0.1-0.083 0.219-0.112 0.326-0.177 0.122-0.075 0.235-0.173 0.355-0.25 0.136-0.085 0.269-0.14 0.408-0.211 0.25-0.126 0.447-0.375 0.678-0.544 0.088-0.065 0.187-0.101 0.276-0.166 0.081-0.057 0.146-0.132 0.224-0.2 0.111-0.099 0.235-0.128 0.352-0.21 0.066-0.047 0.132-0.119 0.204-0.148 0.024-0.011 0.071-0.004 0.096-0.019 0.084-0.051 0.139-0.134 0.231-0.176 0.069-0.031 0.126-0.067 0.19-0.119 0.305-0.251 0.625-0.436 0.944-0.631 0.104-0.064 0.217-0.101 0.32-0.165 0.096-0.059 0.181-0.143 0.278-0.191 0.024-0.012 0.060 0.012 0.089-0.005z"></path>
</svg>
