<!-- Generated by IcoMoon.io -->
<svg version="1.1" xmlns="http://www.w3.org/2000/svg" width="24" height="32" viewBox="0 0 24 32">
<path d="M11.706 30.775c-2.651-0.386-4.995-1.574-6.936-3.515-1.4-1.4-2.37-2.959-3.009-4.835-0.462-1.358-0.543-1.878-0.55-3.527-0.007-1.664 0.091-2.319 0.549-3.696 1.275-3.833 3.966-6.465 7.984-7.809 2.656-0.889 5.708-0.666 8.418 0.615 0.637 0.301 2.173 1.187 2.058 1.187-0.028 0-0.482-0.101-1.008-0.226-1.267-0.299-3.105-0.319-4.119-0.044-3.423 0.929-6.006 3.826-6.848 7.679-0.217 0.995-0.216 3.515 0.003 4.519 0.831 3.808 3.439 6.746 6.809 7.669 0.575 0.157 0.881 0.185 2.022 0.179 1.234-0.006 1.426-0.029 2.343-0.275 0.55-0.147 1.009-0.258 1.021-0.245s-0.4 0.285-0.915 0.606c-1.491 0.929-2.695 1.392-4.371 1.682-0.807 0.139-2.611 0.158-3.452 0.035zM10.347 28.412c-0.915-0.612-2.395-2.11-3.038-3.076-0.89-1.335-1.485-2.717-1.824-4.232-0.183-0.819-0.258-3.201-0.129-4.11 0.365-2.576 1.56-4.959 3.424-6.824 0.718-0.719 0.624-0.707-0.519 0.066-2.985 2.017-4.91 5.741-4.718 9.126 0.213 3.755 2.29 7.152 5.314 8.688 0.613 0.311 1.839 0.793 2.037 0.8 0.062 0.002-0.184-0.194-0.546-0.437z"></path>
</svg>
