<!-- Generated by IcoMoon.io -->
<svg version="1.1" xmlns="http://www.w3.org/2000/svg" width="31" height="32" viewBox="0 0 31 32">
<path d="M15.278 29.472c0-0.291-0.197-0.92-0.438-1.399s-0.425-1.205-0.408-1.612c0.022-0.542-0.139-0.953-0.598-1.531-0.45-0.566-0.628-1.014-0.628-1.575 0-0.544-0.166-0.983-0.541-1.428-0.475-0.565-0.524-0.758-0.399-1.592 0.122-0.813 0.076-1.020-0.324-1.445-0.628-0.669-0.325-0.906 0.35-0.274 0.48 0.449 0.523 0.606 0.405 1.498-0.115 0.871-0.065 1.075 0.396 1.623 0.374 0.445 0.527 0.869 0.527 1.464 0 0.635 0.15 1.009 0.622 1.546 0.447 0.509 0.622 0.92 0.622 1.461 0 0.729 0.571 2.343 0.829 2.343s0.829-1.613 0.829-2.343c0-0.54 0.175-0.952 0.622-1.461 0.472-0.537 0.622-0.911 0.622-1.546 0-0.595 0.153-1.019 0.527-1.464 0.46-0.547 0.51-0.752 0.396-1.623-0.117-0.892-0.075-1.049 0.405-1.498 0.675-0.632 0.978-0.395 0.35 0.274-0.399 0.425-0.446 0.632-0.324 1.445 0.125 0.834 0.077 1.027-0.399 1.592-0.375 0.445-0.541 0.884-0.541 1.428 0 0.562-0.179 1.010-0.628 1.575-0.459 0.578-0.62 0.99-0.598 1.531 0.016 0.408-0.167 1.133-0.408 1.612s-0.438 1.109-0.438 1.399c0 0.39-0.108 0.528-0.415 0.528s-0.415-0.138-0.415-0.528zM10.527 22.214c-0.010-0.235 0.129-0.608 0.309-0.829s0.263-0.278 0.185-0.127c-0.078 0.151-0.217 0.525-0.309 0.829-0.134 0.444-0.171 0.47-0.185 0.127zM20.527 21.759c-0.215-0.688-0.209-0.731 0.053-0.375 0.247 0.337 0.419 1.152 0.242 1.152-0.029 0-0.162-0.35-0.295-0.777zM11.148 20.55c0.010-0.241 0.059-0.291 0.125-0.125 0.060 0.15 0.053 0.328-0.016 0.397s-0.118-0.054-0.109-0.272zM20.062 20.55c0.010-0.241 0.059-0.291 0.125-0.125 0.060 0.15 0.053 0.328-0.016 0.397s-0.118-0.054-0.109-0.272zM11.491 19.816c0.141-0.142 0.308-0.205 0.372-0.142s-0.051 0.18-0.256 0.258c-0.295 0.113-0.319 0.089-0.116-0.116zM19.631 19.842c-0.187-0.121-0.212-0.202-0.064-0.204 0.136-0.002 0.305 0.090 0.375 0.204 0.159 0.257 0.087 0.257-0.311 0zM9.266 19.485c0.285-0.051 0.736-0.342 1.002-0.646l0.484-0.552-0.446 0.674c-0.332 0.502-0.587 0.667-1.002 0.646l-0.556-0.028zM21.079 18.961l-0.446-0.674 0.484 0.552c0.266 0.304 0.717 0.594 1.002 0.646l0.518 0.093-0.556 0.028c-0.414 0.021-0.67-0.143-1.002-0.646zM14.097 18.305c-0.73-0.629-0.491-0.947 0.265-0.352 0.733 0.577 1.928 0.577 2.661 0 0.756-0.595 0.995-0.276 0.265 0.352-0.817 0.704-2.373 0.704-3.19 0zM7.396 17.493c-1.13-0.755-1.36-0.782-2-0.23-0.834 0.718-1.759 0.666-2.78-0.154-0.557-0.448-0.753-0.727-0.61-0.871s0.291-0.131 0.46 0.038c0.353 0.353 1.824 0.326 1.824-0.034 0-0.156 0.203-0.541 0.451-0.856 0.438-0.556 0.497-0.57 1.975-0.458 1.492 0.113 1.533 0.103 1.96-0.476 0.552-0.747 1.192-0.91 1.997-0.509 0.585 0.292 0.708 0.281 1.685-0.145 0.71-0.31 1.054-0.583 1.054-0.836 0-0.207 0.093-0.376 0.207-0.376s0.207 0.23 0.207 0.511c0 0.296 0.172 0.603 0.407 0.729 0.224 0.12 0.517 0.585 0.652 1.033 0.402 1.342 1.212 1.342 1.614 0 0.134-0.448 0.427-0.913 0.651-1.033 0.236-0.126 0.407-0.433 0.407-0.729 0-0.281 0.093-0.511 0.207-0.511s0.207 0.169 0.207 0.376c0 0.253 0.344 0.526 1.054 0.836 0.977 0.426 1.1 0.437 1.685 0.145 0.804-0.401 1.444-0.238 1.997 0.509 0.428 0.578 0.469 0.588 1.96 0.476 1.478-0.112 1.537-0.098 1.975 0.458 0.248 0.315 0.451 0.701 0.451 0.856 0 0.36 1.471 0.388 1.824 0.034 0.169-0.169 0.317-0.181 0.46-0.038s-0.053 0.423-0.61 0.871c-1.021 0.821-1.945 0.872-2.78 0.154-0.641-0.551-0.871-0.525-2 0.23-0.997 0.667-1.653 0.624-2.289-0.15-0.471-0.572-0.582-0.614-1.102-0.416-0.731 0.278-1.938 0.285-2.106 0.013-0.070-0.114-0.496-0.207-0.945-0.207s-0.817-0.075-0.817-0.168c0-0.092-0.466-0.175-1.037-0.183s-1.037 0.067-1.037 0.168c0 0.101-0.368 0.183-0.817 0.183s-0.875 0.093-0.945 0.207c-0.168 0.272-1.376 0.265-2.106-0.013-0.52-0.198-0.631-0.156-1.102 0.416-0.636 0.774-1.292 0.817-2.289 0.15zM9.329 17.043l0.664-0.725 1.181 0.248c1.057 0.222 1.224 0.209 1.592-0.124 0.226-0.205 0.516-0.308 0.643-0.229 0.416 0.257 1.245-0.084 1.245-0.512 0-1.25-1.202-2.127-2.076-1.515-0.35 0.245-0.769 0.292-1.775 0.198-1.257-0.117-1.345-0.095-1.931 0.49-0.667 0.667-1.056 0.738-2.082 0.38-0.904-0.315-1.606 0.023-1.998 0.959-0.231 0.553-0.425 0.725-0.818 0.725-0.575 0-0.692 0.303-0.191 0.495 0.358 0.137 1.542-0.395 1.542-0.693 0-0.103 0.182-0.246 0.404-0.316 0.417-0.132 1.401 0.284 2.267 0.959 0.272 0.212 0.533 0.385 0.581 0.385s0.385-0.326 0.751-0.725zM24.463 16.722c0.754-0.407 1.595-0.397 1.595 0.018 0 0.298 1.184 0.831 1.542 0.693 0.5-0.192 0.383-0.495-0.191-0.495-0.393 0-0.587-0.172-0.818-0.725-0.391-0.937-1.094-1.274-1.998-0.959-1.026 0.358-1.415 0.286-2.082-0.38-0.586-0.586-0.673-0.608-1.931-0.49-1.006 0.094-1.425 0.047-1.775-0.198-0.874-0.612-2.076 0.265-2.076 1.515 0 0.428 0.829 0.769 1.245 0.512 0.128-0.079 0.417 0.024 0.643 0.229 0.368 0.333 0.535 0.346 1.592 0.124l1.181-0.248 0.683 0.745c0.652 0.711 0.704 0.73 1.141 0.415 0.252-0.182 0.814-0.522 1.248-0.756zM15.144 11.653c-0.001-1.026 0.034-1.472 0.078-0.991s0.044 1.321 0.001 1.866c-0.043 0.545-0.078 0.151-0.079-0.875zM16.18 11.653c-0.001-1.026 0.034-1.472 0.078-0.991s0.044 1.321 0.001 1.866c-0.043 0.545-0.078 0.151-0.079-0.875zM9.076 12.57c-0.279-0.232-0.646-0.361-0.829-0.292-0.256 0.097-0.274 0.070-0.080-0.125s0.376-0.164 0.829 0.143c0.319 0.216 0.814 0.453 1.099 0.525l0.518 0.131-0.518 0.018c-0.285 0.010-0.744-0.17-1.019-0.399zM21.29 12.821c0.285-0.072 0.78-0.308 1.099-0.525 0.473-0.32 0.627-0.344 0.829-0.125 0.195 0.211 0.189 0.235-0.030 0.11-0.167-0.095-0.518 0.018-0.873 0.281-0.327 0.241-0.808 0.428-1.069 0.415-0.459-0.024-0.457-0.029 0.043-0.155zM7.361 12.237c0.15-0.060 0.328-0.053 0.397 0.016s-0.054 0.118-0.272 0.109c-0.242-0.010-0.291-0.059-0.125-0.125zM23.739 12.237c0.15-0.060 0.328-0.053 0.397 0.016s-0.054 0.118-0.272 0.109c-0.241-0.010-0.291-0.059-0.125-0.125zM6.435 11.851c-0.068-0.176-0.065-0.378 0.007-0.449s0.129 0.018 0.129 0.199c0 0.181 0.117 0.375 0.259 0.433 0.203 0.082 0.202 0.108-0.007 0.121-0.146 0.009-0.321-0.128-0.388-0.304zM24.524 12.032c0.125-0.094 0.287-0.311 0.359-0.482 0.092-0.219 0.117-0.193 0.083 0.086-0.026 0.219-0.188 0.436-0.359 0.482-0.2 0.055-0.23 0.024-0.083-0.086zM11.132 11.68c-0.399-0.146-1.064-0.492-1.477-0.768s-0.927-0.614-1.14-0.75c-0.825-0.524 0.662-0.277 2.736 0.454 1.131 0.399 2.081 0.726 2.109 0.726s0.053 0.14 0.053 0.311c0 0.392-1.242 0.407-2.28 0.027zM17.973 11.707c0-0.173 0.257-0.411 0.57-0.529 2.369-0.889 3.802-1.312 4.223-1.247 0.454 0.070 0.427 0.114-0.336 0.544-0.456 0.257-1.129 0.657-1.494 0.889-0.875 0.553-2.963 0.795-2.963 0.343zM5.97 10.244c-0.262-0.437-0.258-0.441 0.099-0.099 0.205 0.197 0.329 0.402 0.274 0.457s-0.223-0.107-0.374-0.358zM25.021 10.573c0-0.119 0.163-0.345 0.363-0.501 0.336-0.263 0.34-0.253 0.059 0.13-0.167 0.228-0.331 0.453-0.363 0.501s-0.059-0.011-0.059-0.13zM12.119 9.578c-0.577-0.539-0.958-0.723-1.496-0.723-0.397 0-1.052-0.157-1.455-0.35-0.636-0.303-0.868-0.315-1.745-0.091-1.265 0.324-2.103 0.027-3.089-1.096-0.786-0.895-0.707-1.298 0.165-0.847 0.731 0.378 1.282 0.395 1.626 0.051 0.143-0.143 0.651-0.275 1.13-0.295s1.302-0.149 1.829-0.288c1.258-0.331 1.842-0.153 2.412 0.735 0.258 0.401 0.596 0.73 0.752 0.73 0.423 0 0.787 0.534 0.957 1.403 0.083 0.425 0.187 0.908 0.231 1.072 0.153 0.576-0.55 0.415-1.317-0.301zM12.572 8.116c-0.136-0.164-0.375-0.298-0.531-0.298s-0.494-0.328-0.752-0.73c-0.599-0.934-1.203-1.082-2.546-0.625-0.631 0.215-1.265 0.305-1.535 0.22-0.294-0.093-0.585-0.033-0.807 0.166-0.191 0.172-0.628 0.345-0.97 0.385l-0.622 0.073 0.726 0.47c0.473 0.307 0.906 0.431 1.244 0.358 1.557-0.338 1.853-0.343 2.512-0.048 0.386 0.173 1.111 0.363 1.613 0.422 0.54 0.063 1.089 0.286 1.348 0.546l0.436 0.439 0.067-0.539c0.037-0.297-0.045-0.674-0.181-0.838zM17.926 10.19c-0.064-0.064-0.040-0.367 0.053-0.674s0.248-0.838 0.345-1.18c0.103-0.363 0.409-0.733 0.735-0.889 0.307-0.147 0.724-0.548 0.926-0.89 0.458-0.775 1.084-0.943 2.315-0.619 0.527 0.139 1.351 0.268 1.829 0.288s0.987 0.153 1.13 0.295c0.344 0.344 0.895 0.327 1.626-0.051 0.872-0.451 0.95-0.048 0.165 0.847-0.986 1.123-1.824 1.42-3.089 1.096-0.877-0.225-1.109-0.213-1.745 0.091-0.404 0.192-1.057 0.35-1.452 0.35-0.529 0-0.929 0.191-1.521 0.726-0.783 0.708-1.082 0.846-1.318 0.61zM20.492 8.507c0.496-0.058 1.217-0.247 1.603-0.42 0.659-0.296 0.955-0.29 2.512 0.048 0.338 0.073 0.77-0.051 1.244-0.358l0.726-0.47-0.622-0.073c-0.342-0.040-0.779-0.214-0.97-0.385-0.223-0.2-0.513-0.26-0.807-0.166-0.27 0.086-0.904-0.005-1.535-0.22-1.311-0.446-1.966-0.309-2.45 0.509-0.202 0.342-0.621 0.743-0.931 0.891-0.426 0.203-0.58 0.445-0.632 0.993l-0.069 0.724 0.515-0.483c0.312-0.293 0.87-0.525 1.416-0.589zM15.087 6.743c-0.009-0.306-0.109-0.801-0.223-1.1-0.127-0.335-0.13-0.496-0.008-0.421 0.248 0.153 0.502 1.443 0.356 1.807-0.060 0.149-0.116 0.020-0.125-0.286zM16.2 6.393c0.045-0.498 0.196-1.011 0.336-1.14 0.191-0.176 0.218-0.17 0.11 0.022-0.079 0.141-0.23 0.654-0.336 1.14l-0.191 0.884zM12.531 5.953c-0.314-0.436-0.57-0.924-0.57-1.084 0-0.387-1.159-1.227-1.955-1.418-0.586-0.14-0.595-0.154-0.107-0.173 0.63-0.025 2.269 1.119 2.269 1.584 0 0.179 0.243 0.643 0.539 1.032s0.506 0.74 0.466 0.78c-0.040 0.040-0.329-0.284-0.643-0.721zM18.18 6.701c0-0.085 0.233-0.46 0.518-0.834s0.518-0.826 0.518-1.005c0-0.465 1.64-1.609 2.269-1.584 0.488 0.020 0.479 0.033-0.107 0.173-0.821 0.196-1.953 1.034-1.961 1.451-0.006 0.315-1.238 2.105-1.238 1.798zM14.086 4.285c-0.655-0.808-0.585-0.994 0.078-0.206 0.299 0.356 0.509 0.677 0.466 0.714s-0.288-0.191-0.544-0.508zM16.729 4.806c0-0.078 0.233-0.419 0.518-0.757s0.518-0.552 0.518-0.474c0 0.078-0.233 0.419-0.518 0.757s-0.518 0.552-0.518 0.474zM13.35 2.511c-0.205-0.274-0.278-0.498-0.163-0.498 0.21 0 0.733 0.807 0.604 0.93-0.038 0.036-0.236-0.159-0.441-0.432zM17.558 2.905c0-0.278 0.57-1.013 0.691-0.891 0.057 0.057-0.076 0.324-0.294 0.593s-0.397 0.404-0.397 0.299z"></path>
</svg>
