<!-- Generated by IcoMoon.io -->
<svg version="1.1" xmlns="http://www.w3.org/2000/svg" width="32" height="32" viewBox="0 0 32 32">
<path d="M25.602 10.52c1.834 2.132 2.934 4.861 2.934 7.832 0 6.822-5.804 12.361-12.954 12.361-0.154 0-0.308-0.002-0.46-0.008 6.439-0.22 11.594-5.135 11.594-11.157 0-6.163-5.397-11.165-12.045-11.165-6.438 0-11.703 4.693-12.029 10.586-0.011-0.204-0.016-0.41-0.016-0.617 0-6.823 5.805-12.363 12.955-12.363 1.964 0 3.827 0.417 5.496 1.165-0.681-0.81-1.552-1.408-2.455-1.97 0.006-0.011 0.012-0.023 0.018-0.034 0.108 0.034 0.218 0.065 0.324 0.104 0.662 0.248 1.334 0.466 2.040 0.554 0.26 0.033 0.536 0.012 0.795-0.033 0.451-0.078 0.72-0.368 0.856-0.776 0.16-0.481 0.195-0.978 0.17-1.478-0.022-0.447-0.073-0.892-0.11-1.338-0.005-0.059-0.001-0.118 0.022-0.188 0.024 0.050 0.050 0.098 0.072 0.148 0.274 0.653 0.547 1.305 0.929 1.908 0.149 0.234 0.333 0.453 0.535 0.648 0.247 0.238 0.547 0.252 0.859 0.090 0.33-0.171 0.594-0.416 0.809-0.698 0.417-0.547 0.808-1.112 1.21-1.67 0.028-0.039 0.055-0.079 0.083-0.12l0.042 0.014c-0.026 0.103-0.047 0.207-0.082 0.308-0.233 0.704-0.417 1.419-0.485 2.156-0.051 0.548 0.020 1.073 0.449 1.497 0.279 0.277 0.636 0.419 1.012 0.522 0.594 0.162 1.198 0.269 1.82 0.266 0.015 0 0.031 0.002 0.047 0.003 0.003 0.014 0.008 0.030 0.013 0.044-0.121 0.042-0.238 0.095-0.361 0.125-0.504 0.121-0.989 0.29-1.438 0.544-0.503 0.283-0.883 0.66-0.986 1.238-0.077 0.442 0.023 0.864 0.173 1.279 0.219 0.596 0.54 1.148 0.881 1.687 0.075 0.118 0.147 0.238 0.207 0.368-0.814-0.769-1.663-1.48-2.795-1.805-0.045-0.009-0.089-0.019-0.134-0.026zM22.809 7.638c-0.037 0.223 0.054 0.421 0.303 0.59 0.471 0.321 0.914 0.681 1.372 1.019 0.048 0.036 0.121 0.061 0.181 0.058 1.25-0.056 1.96-1.148 1.731-2.104-0.27-1.124-1.46-1.52-2.198-1.321-0.84 0.227-1.417 0.917-1.39 1.758z"></path>
<path d="M15.123 30.74h-0.002c-0.018-0.001-0.032-0.016-0.032-0.034 0-0 0-0 0-0v0c0-0.018 0.014-0.032 0.032-0.033h0.002c6.42-0.22 11.56-5.119 11.56-11.125 0-6.144-5.383-11.131-12.011-11.131-6.42 0-11.671 4.677-11.995 10.555-0.001 0.017-0.016 0.031-0.033 0.031s-0.032-0.014-0.033-0.031v-0c-0.011-0.206-0.016-0.413-0.016-0.62 0-6.842 5.819-12.397 12.988-12.397 1.916 0 3.736 0.397 5.374 1.11-0.664-0.752-1.493-1.318-2.351-1.853-0.009-0.006-0.016-0.016-0.016-0.028 0-0.005 0.001-0.010 0.004-0.015l-0 0c0.006-0.012 0.012-0.023 0.018-0.036 0.006-0.011 0.017-0.018 0.031-0.018 0.003 0 0.007 0 0.010 0.001l-0-0c0.109 0.036 0.219 0.067 0.326 0.106 0.659 0.246 1.329 0.464 2.033 0.553 0.257 0.031 0.529 0.011 0.786-0.033 0.437-0.075 0.698-0.357 0.83-0.754 0.159-0.477 0.193-0.97 0.169-1.466-0.022-0.445-0.073-0.891-0.11-1.336-0.001-0.013-0.002-0.029-0.002-0.045 0-0.057 0.010-0.111 0.027-0.161l-0.001 0.003c0.004-0.013 0.016-0.022 0.029-0.022h0c0.014-0.002 0.026 0.006 0.032 0.019 0.024 0.050 0.051 0.098 0.072 0.15 0.273 0.649 0.545 1.302 0.927 1.902 0.147 0.232 0.33 0.449 0.53 0.642 0.236 0.229 0.522 0.24 0.821 0.086 0.326-0.168 0.586-0.411 0.798-0.688 0.417-0.547 0.808-1.112 1.209-1.668 0.029-0.040 0.056-0.081 0.083-0.122 0.007-0.009 0.017-0.014 0.029-0.014 0.004 0 0.007 0.001 0.011 0.002l-0-0 0.042 0.016c0.013 0.005 0.022 0.017 0.022 0.032 0 0.003-0 0.006-0.001 0.009l0-0c-0.026 0.103-0.049 0.209-0.082 0.31-0.233 0.701-0.416 1.414-0.484 2.146-0.050 0.54 0.018 1.056 0.439 1.472 0.276 0.273 0.628 0.413 0.999 0.512 0.591 0.16 1.191 0.269 1.81 0.265 0.016 0 0.033 0.003 0.049 0.003 0.015 0.002 0.026 0.011 0.029 0.025 0.005 0.014 0.010 0.030 0.013 0.044 0.005 0.017-0.003 0.036-0.021 0.041-0.121 0.044-0.238 0.095-0.362 0.126-0.501 0.122-0.984 0.288-1.43 0.539-0.493 0.28-0.87 0.649-0.968 1.216-0.078 0.436 0.021 0.852 0.171 1.26 0.217 0.596 0.537 1.143 0.876 1.682 0.077 0.118 0.15 0.24 0.209 0.371 0.007 0.014 0.003 0.031-0.010 0.040-0.005 0.004-0.012 0.006-0.019 0.006-0.009 0-0.017-0.004-0.023-0.009v0c-0.81-0.765-1.654-1.472-2.78-1.797-0.013-0.002-0.026-0.005-0.038-0.006 1.801 2.128 2.88 4.834 2.88 7.781 0 6.84-5.82 12.396-12.988 12.396-0.154 0-0.307-0.003-0.459-0.008zM25.602 10.52c0.044 0.008 0.089 0.017 0.134 0.026 1.132 0.326 1.98 1.036 2.795 1.805-0.060-0.129-0.132-0.249-0.207-0.368-0.341-0.539-0.663-1.090-0.881-1.687-0.15-0.414-0.25-0.836-0.173-1.279 0.103-0.578 0.483-0.955 0.986-1.238 0.449-0.254 0.934-0.422 1.438-0.544 0.122-0.030 0.24-0.083 0.361-0.125-0.004-0.011-0.009-0.026-0.012-0.041l-0.001-0.003c-0.016-0.002-0.033-0.003-0.047-0.003-0.622 0.003-1.226-0.104-1.82-0.266-0.375-0.103-0.733-0.244-1.012-0.522-0.429-0.424-0.5-0.948-0.449-1.497 0.068-0.737 0.252-1.452 0.485-2.156 0.034-0.101 0.056-0.206 0.082-0.308l-0.042-0.014c-0.045 0.066-0.072 0.106-0.1 0.144l0.017-0.024c-0.402 0.558-0.793 1.123-1.21 1.67-0.215 0.282-0.479 0.526-0.809 0.698-0.312 0.162-0.612 0.148-0.859-0.090-0.202-0.195-0.386-0.414-0.535-0.648-0.383-0.603-0.656-1.255-0.929-1.908-0.021-0.050-0.048-0.098-0.072-0.148-0.015 0.044-0.024 0.094-0.024 0.146 0 0.015 0.001 0.029 0.002 0.044l-0-0.002c0.037 0.445 0.088 0.891 0.11 1.338 0.025 0.5-0.010 0.997-0.17 1.478-0.136 0.408-0.405 0.698-0.856 0.776-0.259 0.045-0.536 0.065-0.795 0.033-0.706-0.089-1.378-0.307-2.040-0.554-0.106-0.039-0.216-0.070-0.324-0.104-0.006 0.011-0.012 0.023-0.018 0.034 0.902 0.562 1.774 1.16 2.455 1.97-1.669-0.748-3.532-1.165-5.496-1.165-7.15 0-12.955 5.54-12.955 12.363 0 0.207 0.005 0.413 0.016 0.617 0.325-5.893 5.591-10.586 12.029-10.586 6.648 0 12.045 5.002 12.045 11.165 0 6.023-5.155 10.938-11.594 11.157 0.153 0.006 0.306 0.008 0.46 0.008 7.15 0 12.954-5.54 12.954-12.361 0-2.972-1.1-5.7-2.934-7.832zM22.809 7.638c-0.027-0.841 0.55-1.531 1.39-1.758 0.737-0.199 1.928 0.196 2.198 1.321 0.229 0.956-0.482 2.048-1.731 2.104-0.060 0.003-0.133-0.022-0.181-0.058-0.458-0.338-0.901-0.698-1.372-1.019-0.249-0.17-0.341-0.368-0.303-0.59zM22.842 7.643c-0.035 0.212 0.053 0.397 0.289 0.558 0.472 0.322 0.915 0.681 1.373 1.020 0.042 0.031 0.107 0.055 0.159 0.051 1.226-0.054 1.925-1.124 1.7-2.064-0.265-1.103-1.433-1.492-2.157-1.296-0.824 0.221-1.392 0.899-1.365 1.724 0 0 0 0.001 0 0.001 0 0.002-0 0.004-0.001 0.005l0-0z"></path>
</svg>
