<!-- Generated by IcoMoon.io -->
<svg version="1.1" xmlns="http://www.w3.org/2000/svg" width="33" height="32" viewBox="0 0 33 32">
<path d="M9.671 29.832c-1.453-0.505-3.036-2.258-4.16-4.607-0.398-0.832-0.452-1.024-0.484-1.72-0.060-1.311 0.407-2.483 1.372-3.449 0.768-0.768 1.738-1.238 3.223-1.56 0.425-0.092 0.42-0.094-0.295-0.105-0.943-0.015-2.364-0.259-3.202-0.549-2.175-0.754-3.233-2.41-3.753-5.876-0.196-1.309-0.368-4.977-0.322-6.893 0.040-1.656 0.137-2.022 0.671-2.519 0.616-0.575 1.921-0.716 2.867-0.311 2.631 1.127 6.215 4.594 8.534 8.256 0.621 0.981 1.626 2.981 1.946 3.873 0.127 0.354 0.253 0.644 0.28 0.644s0.15-0.292 0.274-0.649c0.507-1.467 1.813-3.839 2.962-5.381 2.086-2.8 5.088-5.593 7.002-6.514 1.151-0.553 2.185-0.622 2.999-0.199 1.037 0.54 1.175 1.354 0.995 5.873-0.149 3.753-0.459 5.597-1.212 7.226-0.837 1.811-2.761 2.831-5.621 2.98l-1.105 0.058 0.865 0.216c1.82 0.454 2.888 1.213 3.608 2.564 0.974 1.827 0.735 3.283-0.951 5.797-1.067 1.592-2.409 2.714-3.524 2.948-0.518 0.109-0.562 0.102-1.086-0.172-1.949-1.019-3.953-3.534-4.86-6.098-0.14-0.396-0.278-0.784-0.305-0.862s-0.173 0.203-0.323 0.625c-0.389 1.091-0.635 1.609-1.231 2.591-1.037 1.71-2.696 3.34-3.917 3.85-0.421 0.176-0.656 0.169-1.247-0.036z"></path>
</svg>
