<!-- Generated by IcoMoon.io -->
<svg version="1.1" xmlns="http://www.w3.org/2000/svg" width="33" height="32" viewBox="0 0 33 32">
<path d="M4.576 27.983c-0.063-0.013-0.151-0.064-0.195-0.114-0.171-0.196-1.808-3.094-1.808-3.202 0-0.132-0.184 0.19 6.62-11.599 4.591-7.954 5.165-8.924 5.319-8.99 0.22-0.094 3.387-0.107 3.651-0.015 0.15 0.052 0.368 0.41 2.119 3.471 1.073 1.877 3.703 6.473 5.844 10.213s3.893 6.853 3.893 6.918c0 0.125-1.656 3.040-1.83 3.221-0.102 0.107-0.177 0.107-11.801 0.114-6.434 0.004-11.75-0.004-11.813-0.016zM28.227 26.117l0.556-0.965-7.248-0.027c-4.121-0.015-7.291-0.048-7.348-0.075-0.127-0.061-0.239-0.325-0.208-0.489 0.013-0.069 0.072-0.17 0.131-0.223 0.102-0.092 0.392-0.098 5.781-0.111l5.674-0.014-1.144-1.982-12.814 0.002-0.55 0.959c-0.302 0.527-0.55 0.973-0.55 0.991s0.505 0.032 1.123 0.032c1.104 0 1.125 0.002 1.27 0.127 0.191 0.164 0.204 0.462 0.028 0.638-0.118 0.118-0.135 0.119-1.749 0.119h-1.629l-0.143-0.134c-0.113-0.106-0.139-0.173-0.123-0.322 0.013-0.129 1.043-1.96 3.281-5.834 2.542-4.4 3.251-5.668 3.215-5.743-0.131-0.272-1.070-1.875-1.099-1.877-0.023-0.001-8.465 14.574-9.197 15.879-0.012 0.022 4.974 0.034 11.081 0.027l11.104-0.014zM9.569 18.213c3.695-6.404 4.804-8.285 4.918-8.345 0.183-0.096 0.385-0.050 0.517 0.118 0.055 0.070 1.555 2.648 3.334 5.73l3.234 5.603h1.145c0.813 0 1.14-0.017 1.126-0.059-0.041-0.124-9.131-15.857-9.162-15.859-0.023-0.002-9.038 15.566-11.065 19.108l-0.092 0.161 0.266 0.455c0.147 0.25 0.406 0.695 0.577 0.988 0.255 0.437 0.321 0.517 0.37 0.45 0.033-0.045 2.207-3.802 4.831-8.35zM28.778 24.167c-0.010-0.026-2.49-4.367-5.512-9.648l-5.495-9.601-2.334-0.002 0.076 0.121c0.042 0.066 2.422 4.185 5.288 9.153s5.342 9.256 5.502 9.528l0.29 0.496h1.102c0.607 0 1.094-0.021 1.084-0.047zM20.439 21.137c-0.238-0.453-4.065-7.055-4.091-7.055s-4.128 7.069-4.171 7.187c-0.011 0.030 1.641 0.049 4.169 0.049h4.187z"></path>
</svg>
