<!-- Generated by IcoMoon.io -->
<svg version="1.1" xmlns="http://www.w3.org/2000/svg" width="35" height="32" viewBox="0 0 35 32">
<path d="M32.365 23.078c-1.847-1.321-5.142-2.84-7.784-3.589-7.267-2.060-16.020-0.74-21.983 3.314-0.759 0.517-1.447 0.939-1.528 0.939s-0.365-0.197-0.63-0.437c-0.464-0.42-0.398-0.492 1.657-1.808 1.177-0.754 2.635-1.56 3.239-1.792 1.015-0.389 1.201-0.62 2.443-3.031 1.105-2.145 1.746-3.012 3.602-4.872 1.467-1.47 2.522-2.316 3.012-2.413 0.453-0.091 0.866-0.398 1.036-0.77 0.252-0.554 0.446-0.619 1.841-0.619s1.589 0.065 1.841 0.619c0.169 0.372 0.583 0.679 1.036 0.77 0.49 0.098 1.545 0.944 3.012 2.413 1.852 1.855 2.498 2.729 3.591 4.851 1.259 2.445 1.402 2.618 2.577 3.114 0.684 0.289 2.204 1.142 3.379 1.895 2.049 1.314 2.117 1.389 1.697 1.854-0.241 0.266-0.508 0.484-0.593 0.484s-0.735-0.415-1.444-0.922zM9.787 18.056c1.738-0.514 4.785-1.023 6.127-1.023l1.355-0v-1.527c0-1.464-0.037-1.55-0.892-2.079-0.491-0.303-1.204-0.922-1.586-1.376-0.784-0.932-1.006-0.893-1.006 0.176 0 0.533-0.163 0.803-0.581 0.959-0.352 0.132-0.581 0.119-0.581-0.032 0-0.137 0.232-0.25 0.516-0.25 0.535 0 0.744-0.861 0.278-1.149-0.422-0.261-2.859 2.34-2.859 3.052 0 0.356-0.116 0.718-0.258 0.806-0.459 0.284-0.283 1.203 0.258 1.345 0.284 0.074 0.516 0.242 0.516 0.372 0 0.349-1.036-0.266-1.21-0.718-0.082-0.213-0.019-0.67 0.138-1.015 0.499-1.095 0.107-0.68-0.716 0.758-1.151 2.011-1.103 2.176 0.499 1.702zM13.271 16.777c-0.090-0.146 0.013-0.19 0.243-0.101 0.447 0.172 0.529 0.357 0.158 0.357-0.134 0-0.314-0.115-0.4-0.255zM11.254 16.218c-0.24-0.134-0.436-0.478-0.436-0.764 0-0.759 1.387-0.583 1.498 0.191 0.091 0.639-0.436 0.924-1.062 0.574zM14.184 15.369c-0.409-0.493-0.251-1.441 0.297-1.784 0.676-0.423 1.865 0.093 1.974 0.858 0.155 1.088-1.557 1.787-2.271 0.927zM12.877 14.316c-0.18-0.216-0.276-0.443-0.215-0.504s0.253 0.116 0.426 0.393c0.375 0.6 0.25 0.666-0.211 0.111zM26.044 18.031c0-0.314-1.518-3.064-1.691-3.064-0.058 0 0.024 0.283 0.182 0.629s0.22 0.803 0.138 1.015c-0.173 0.452-1.21 1.067-1.21 0.718 0-0.13 0.232-0.298 0.516-0.372 0.541-0.141 0.717-1.061 0.258-1.345-0.142-0.088-0.258-0.45-0.258-0.806 0-0.712-2.436-3.313-2.859-3.052-0.466 0.288-0.257 1.149 0.278 1.149 0.284 0 0.516 0.112 0.516 0.25 0 0.151-0.229 0.164-0.581 0.032-0.405-0.151-0.59-0.442-0.61-0.959-0.016-0.408-0.045-0.816-0.065-0.907s-0.732 0.506-1.583 1.327c-1.531 1.475-1.548 1.508-1.548 2.939v1.448l1.226 0c1.22 0 4.396 0.543 5.871 1.004 1.073 0.335 1.419 0.334 1.419-0.005zM20.624 16.931c0-0.056 0.18-0.171 0.401-0.255 0.23-0.088 0.333-0.045 0.243 0.101-0.152 0.245-0.643 0.363-0.643 0.154zM22.456 16.274c-0.575-0.355-0.214-1.169 0.558-1.259 0.566-0.065 0.707 0.023 0.707 0.443 0 0.611-0.781 1.115-1.265 0.816zM18.456 15.405c-0.688-0.503-0.442-1.532 0.44-1.841 0.879-0.308 1.562 0.043 1.684 0.864 0.17 1.145-1.098 1.728-2.124 0.977zM21.424 14.27c0.188-0.313 0.397-0.513 0.465-0.445s-0.086 0.324-0.342 0.569c-0.444 0.426-0.45 0.42-0.123-0.123zM18.54 11.851c0.437-0.437 0.794-0.925 0.794-1.085s-0.465 0.163-1.032 0.717l-1.032 1.008-1.032-1.008c-0.568-0.554-1.032-0.877-1.032-0.717 0 0.471 1.547 1.879 2.065 1.879 0.262 0 0.834-0.357 1.27-0.794zM17.786 9.032c0.29-0.188 0.161-0.25-0.516-0.25s-0.806 0.063-0.516 0.25c0.213 0.138 0.445 0.25 0.516 0.25s0.303-0.113 0.516-0.25z"></path>
</svg>
