<!-- Generated by IcoMoon.io -->
<svg version="1.1" xmlns="http://www.w3.org/2000/svg" width="28" height="32" viewBox="0 0 28 32">
<path d="M4.623 30.922c0-0.043 0.709-2.225 1.575-4.85s1.814-5.537 2.107-6.472c0.292-0.935 0.619-1.856 0.725-2.047s0.193-0.891 0.193-1.556c0-1.87 0.821-3.373 2.25-4.119l0.55-0.287v-5.295c0-5.189 0.008-5.295 0.406-5.295s0.406 0.101 0.386 5.050l-0.020 5.050 2.628 0.118v-5.109c0-4.408 0.041-5.109 0.3-5.109s0.3 0.708 0.3 5.169v5.169l1.024 0.864c1.194 1.006 1.765 2.118 1.771 3.445 0.004 0.831 0.199 1.57 0.805 3.054 0.090 0.22 0.407 1.21 0.704 2.2 0.684 2.278 2.283 7.272 2.497 7.8 0.089 0.22 0.293 0.828 0.453 1.35 0.268 0.875 0.264 0.95-0.049 0.95-0.262 0-0.491-0.52-0.993-2.25-0.966-3.33-1.231-4.207-1.401-4.65-0.085-0.22-0.312-0.94-0.506-1.6-1.111-3.79-1.516-4.916-1.722-4.789-0.327 0.202-0.424 1.512-0.18 2.442 0.136 0.521 0.374 1.532 0.529 2.247 0.264 1.223 0.45 2.037 1.182 5.2 0.166 0.715 0.384 1.66 0.485 2.1 0.257 1.114 0.244 1.3-0.089 1.3-0.18 0-0.339-0.285-0.418-0.75-0.070-0.413-0.248-1.29-0.397-1.95-0.349-1.549-0.671-3.053-1.026-4.8-0.157-0.77-0.367-1.805-0.468-2.3s-0.257-1.153-0.346-1.462l-0.162-0.562-0.911 0.969 0.328 2.477c0.18 1.362 0.458 3.377 0.617 4.477 0.555 3.843 0.558 3.9 0.199 3.9-0.179 0-0.328-0.157-0.332-0.35s-0.094-0.98-0.201-1.75-0.325-2.525-0.484-3.9c-0.559-4.829-0.514-4.624-0.987-4.482-0.232 0.070-0.502 0.202-0.601 0.294-0.186 0.173 0.188 9.317 0.404 9.881 0.081 0.212-0.003 0.308-0.272 0.308-0.371 0-0.397-0.217-0.528-4.35-0.178-5.607-0.216-5.85-0.919-5.85h-0.543l-0.129 3.55c-0.192 5.267-0.334 6.65-0.686 6.65-0.236 0-0.271-0.207-0.176-1.050 0.065-0.578 0.168-2.4 0.229-4.050s0.159-3.456 0.215-4.013c0.095-0.935 0.065-1.031-0.399-1.242-0.636-0.29-0.762-0.11-0.945 1.356-0.075 0.605-0.275 2.225-0.443 3.6s-0.361 2.86-0.428 3.3c-0.067 0.44-0.166 1.093-0.22 1.45-0.063 0.419-0.211 0.65-0.416 0.65-0.255 0-0.293-0.148-0.197-0.75 0.524-3.26 0.763-4.849 1.021-6.789 0.164-1.231 0.351-2.45 0.416-2.709 0.082-0.328-0.008-0.584-0.298-0.847-0.569-0.515-0.752-0.269-1.122 1.507-0.406 1.952-0.796 3.763-1.18 5.487-0.171 0.77-0.428 1.985-0.57 2.7-0.185 0.929-0.355 1.318-0.597 1.365-0.186 0.036-0.338 0.003-0.338-0.073 0-0.205 1.371-5.894 1.588-6.591 0.103-0.33 0.281-1.123 0.395-1.762s0.256-1.239 0.315-1.335c0.059-0.095 0.197-0.646 0.306-1.223 0.148-0.779 0.134-1.196-0.051-1.615-0.138-0.311-0.301-0.565-0.364-0.565s-0.28 0.563-0.484 1.25c-0.204 0.688-0.628 2.060-0.943 3.050-1.243 3.907-1.538 4.856-1.957 6.3-0.624 2.152-0.819 2.6-1.13 2.6-0.152 0-0.276-0.035-0.276-0.078zM15.038 19.772c1.611-0.483 2.991-2.26 2.98-3.838-0.013-1.9-2.067-3.933-3.973-3.933-0.826 0-2.223 0.648-2.862 1.327-0.669 0.711-1.161 1.856-1.161 2.703 0 1.803 2.025 3.868 3.877 3.952 0.207 0.009 0.72-0.086 1.139-0.211zM12.703 17.32c-0.65-0.65-0.717-0.812-0.611-1.465 0.376-2.32 3.484-2.337 3.859-0.022 0.096 0.593 0.020 0.818-0.456 1.346-0.373 0.413-0.831 0.676-1.316 0.753-0.664 0.106-0.824 0.039-1.475-0.612z"></path>
</svg>
