<!-- Generated by IcoMoon.io -->
<svg version="1.1" xmlns="http://www.w3.org/2000/svg" width="33" height="32" viewBox="0 0 33 32">
<path d="M15.803 14.998c0 0.21-0.001 0.422 0 0.633 0 0.218 0.035 0.465-0.096 0.658-0.091 0.133-0.194 0.095-0.344 0.145-0.127 0.044-0.238 0.070-0.368 0.104-0.091 0.023-0.255-0.004-0.329 0.051-0.045 0.034-0.077 0.121-0.104 0.169-0.075 0.135-0.157 0.266-0.231 0.403-0.043 0.081-0.105 0.229-0.175 0.285-0.084 0.066-0.239 0.034-0.338 0.042-0.264 0.021-0.517 0.065-0.778 0.12-0.238 0.049-0.494 0.135-0.739 0.084-0.212-0.044-0.45-0.168-0.645-0.26-0.095-0.045-0.165-0.116-0.257-0.161-0.061-0.030-0.13-0.039-0.19-0.070-0.065-0.032-0.14-0.069-0.199-0.107-0.1-0.065-0.105-0.125-0.144-0.229-0.159-0.415-0.629-0.758-0.681-1.216 0.156-0.060 0.307-0.088 0.459-0.162 0.133-0.064 0.314-0.174 0.463-0.208 0.23-0.052 0.322 0.272 0.416 0.425 0.051 0.082 0.134 0.197 0.23 0.22 0.075 0.016 0.192-0.007 0.27-0.007 0.095 0.003 0.116-0.010 0.196-0.047 0.074-0.033 0.183-0.052 0.229-0.121 0.053-0.083 0.010-0.394 0.009-0.483-0.001-0.129-0.027-0.21-0.095-0.322-0.095-0.156-0.208-0.308-0.4-0.322-0.101-0.008-0.199-0.014-0.3-0.027-0.108-0.014-0.256 0.005-0.352-0.027-0.113-0.038-0.099-0.021-0.096-0.174 0.001-0.079 0.029-0.214-0.003-0.286-0.034-0.082-0.151-0.131-0.213-0.201-0.084-0.095-0.088-0.134-0.227-0.149-0.151-0.017-0.19-0.030-0.323-0.066-0.097-0.026-0.192-0.043-0.287-0.066-0.099-0.025-0.246-0.053-0.339-0.091-0.199-0.082-0.12-0.442-0.12-0.611 0-0.356 0.023-0.7 0.051-1.053 0.043-0.53 0.396-0.99 0.816-1.288 0.091-0.065 0.197-0.142 0.308-0.164 0.159-0.030 0.174 0.027 0.255 0.152 0.135 0.207 0.277 0.327 0.515 0.325 0.113-0.001 0.201-0.026 0.266 0.056 0.016 0.019 0.042 0.146 0.045 0.17 0.018 0.091 0.013 0.173 0.013 0.264-0.001 0.084-0.025 0.2 0.025 0.269 0.042 0.060 0.177 0.090 0.246 0.12 0.138 0.061 0.246 0.073 0.382 0.164 0.062 0.043 0.11 0.082 0.168 0.131 0.173 0.147 0.385 0.385 0.43 0.603 0.127 0.048 0.221-0.055 0.295-0.129 0.1-0.101 0.133-0.092 0.129-0.24-0.005-0.238 0.065-0.425 0.112-0.652 0.012-0.058-0.008-0.12 0.005-0.181 0.021-0.107 0.079-0.207 0.122-0.304 0.048-0.112 0.065-0.272 0.186-0.316 0.146-0.055 0.379-0.008 0.534-0.008 0.177-0.001 0.313 0.005 0.474 0.081 0.281 0.13 0.573 0.223 0.85 0.352 0.259 0.118 0.539 0.194 0.771 0.377 0.184 0.146 0.366 0.265 0.47 0.472 0.043 0.082 0.065 0.178 0.108 0.268 0.069 0.147 0.188 0.294 0.242 0.443-0.149 0.12-0.316-0.030-0.474 0.003-0.035-0.012-0.066-0.008-0.095 0.013-0.005 0.021-0.009 0.043-0.013 0.065-0.131 0.091-0.213 0.065-0.376 0.091-0.261 0.043-0.24 0.235-0.338 0.437-0.104 0.218-0.27 0.209-0.518 0.212 0.018 0-0.305-0.027-0.338-0.008-0.070 0.040-0.034 0.027-0.048 0.11-0.031 0.194 0.133 0.223 0.261 0.325 0.183 0.144 0.118 0.329 0.118 0.548 0 0.086-0.060 0.372 0.108 0.37z"></path>
<path d="M16.829 16.672c-0.116 0-0.224-0.018-0.329 0.034-0.142 0.070-0.22 0.187-0.374 0.238-0.032 0.010-0.060-0.005-0.095 0.009-0.042 0.017-0.069 0.070-0.12 0.087-0.097 0.032-0.223 0.010-0.325 0.010-0.107 0-0.222-0.014-0.327-0.001-0.061 0.008-0.217 0.023-0.27 0.053-0.159 0.084 0.005 0.5 0.099 0.6 0.169 0.179 0.442 0.077 0.664 0.103 0.094 0.010 0.172 0.051 0.268 0.056 0.107 0.006 0.217-0.010 0.323-0.001 0.268 0.021 0.524 0.23 0.765 0.348 0.418 0.201 0.75 0.569 1.125 0.841 0.224 0.162 0.407 0.383 0.645 0.526 0.126 0.075 0.251 0.12 0.368 0.214 0.148 0.121 0.29 0.239 0.443 0.352 0.162 0.118 0.335 0.218 0.504 0.325 0.149 0.095 0.285 0.21 0.433 0.312 0.116 0.079 0.204 0.138 0.255 0.266 0.095 0.242 0.287 0.412 0.421 0.638 0.16 0.272 0.335 0.533 0.507 0.796 0.129 0.198 0.278 0.426 0.478 0.557 0.153 0.1 0.213 0.238 0.323 0.39 0.22 0.303 0.438 0.598 0.69 0.876 0.32 0.355 0.509 0.773 0.755 1.176 0.055 0.090 0.12 0.136 0.187 0.21 0.039 0.043 0.082 0.103 0.11 0.153 0.019 0.032 0.027 0.091 0.048 0.121 0.048 0.065 0.062 0.074 0.097 0.145 0.040 0.083 0.079 0.14 0.138 0.218 0.045 0.061 0.1 0.151 0.135 0.217 0.036 0.070 0.026 0.114 0.049 0.174 0.038 0.101 0.11 0.181 0.177 0.268 0.075 0.1 0.114 0.198 0.162 0.309 0.139 0.333 0.207 0.721 0.42 1.017 0.077 0.105 0.114 0.2 0.155 0.323 0.045 0.134 0.144 0.238 0.184 0.369 0.092-0.079 0.044-0.429 0.026-0.541-0.022-0.14-0.047-0.279-0.069-0.42-0.029-0.195-0.042-0.39-0.075-0.583-0.051-0.283-0.16-0.511-0.278-0.768-0.116-0.251-0.133-0.538-0.252-0.789-0.043-0.088-0.117-0.142-0.174-0.218-0.12-0.161-0.234-0.32-0.357-0.479-0.116-0.149-0.194-0.325-0.304-0.481-0.155-0.218-0.275-0.46-0.437-0.67-0.133-0.173-0.244-0.373-0.333-0.574-0.042-0.097-0.069-0.2-0.112-0.296-0.047-0.109-0.135-0.182-0.192-0.287-0.058-0.105-0.077-0.19-0.159-0.286-0.072-0.083-0.135-0.165-0.198-0.256-0.178-0.262-0.285-0.573-0.477-0.82-0.105-0.135-0.172-0.291-0.281-0.421-0.282-0.33-0.65-0.595-0.999-0.85-0.27-0.198-0.535-0.359-0.773-0.595-0.196-0.194-0.413-0.408-0.568-0.634-0.061-0.092-0.112-0.134-0.191-0.204-0.058-0.051-0.077-0.103-0.127-0.161-0.151-0.174-0.422-0.259-0.598-0.404-0.186-0.153-0.377-0.229-0.583-0.339-0.225-0.12-0.479-0.203-0.664-0.389-0.030-0.030-0.035-0.086-0.062-0.113-0.036-0.039-0.082-0.048-0.118-0.083-0.062-0.060-0.083-0.172-0.149-0.227s-0.178-0.072-0.25-0.121c-0.056-0.036-0.109-0.070-0.335-0.322z"></path>
<path d="M17.639 12.298c0.031 0.092 0.121 0.234 0.203 0.286 0.173 0.109 0.196-0.040 0.314-0.12 0.075-0.049 0.107-0.027 0.174-0.114 0.026-0.033 0.057-0.062 0.068-0.103 0.042-0.16-0.064-0.314-0.061-0.463 0.003-0.174 0.244-0.312 0.378-0.377 0.304-0.149 0.552-0.329 0.841-0.499 0.266-0.159 0.479-0.348 0.772-0.46 0.139-0.053 0.257-0.136 0.389-0.201 0.168-0.083 0.282-0.12 0.379-0.273 0.072-0.112 0.182-0.143 0.292-0.216 0.151-0.099 0.291-0.129 0.464-0.192 0.236-0.087 0.455-0.22 0.691-0.307 0.378-0.139 0.763-0.243 1.188-0.296 0.531-0.066 1.068-0.131 1.594-0.234 0.058-0.010 0.117-0.034 0.177-0.045 0.101-0.021 0.212 0.018 0.311-0.009 0.083-0.023 0.174-0.077 0.272-0.101 0.32-0.083 0.622-0.184 0.956-0.207 0.151-0.009 0.304-0.021 0.452-0.049 0.198-0.039 0.377-0.127 0.576-0.157 0.16-0.025 0.321-0.049 0.481-0.070 0.279-0.036 0.557-0.066 0.835-0.109 0.123-0.018 0.386 0.026 0.411-0.157-0.177-0.048-0.405-0.009-0.587-0.009-0.148 0-0.298 0-0.446 0-0.22 0-0.438 0.001-0.656 0-0.134-0.001-0.236 0.016-0.366 0.042-0.090 0.018-0.188-0.010-0.274 0.009-0.1 0.023-0.149 0.057-0.26 0.058-0.172 0.003-0.326-0.008-0.495 0.030-0.318 0.073-0.626 0.156-0.939 0.212-0.205 0.036-0.418 0.042-0.626 0.077-0.117 0.019-0.303 0.026-0.416-0.001 0.135-0.192 0.36-0.291 0.504-0.468 0.105-0.129 0.129-0.17 0.292-0.229 0.105-0.038 0.184-0.095 0.278-0.147 0.32-0.179 0.686-0.296 1.032-0.408 0.236-0.075 0.464-0.162 0.703-0.23 0.173-0.049 0.383-0.084 0.552-0.148 0.142-0.053 0.269-0.144 0.413-0.199 0.22-0.083 0.43-0.191 0.645-0.287 0.104-0.047 0.179-0.133 0.275-0.187 0.131-0.077 0.287-0.118 0.424-0.191 0.122-0.065 0.255-0.101 0.378-0.161 0.275-0.133 0.522-0.217 0.82-0.268 0.148-0.026 0.248-0.104 0.379-0.152 0.144-0.052 0.277-0.036 0.426-0.057 0.14-0.018 0.266-0.065 0.399-0.099 0.116-0.027 0.256-0.030 0.369-0.072-0.008-0.099-0.735 0.060-0.784 0.068-0.325 0.055-0.63 0.086-0.939 0.203-0.303 0.116-0.572 0.087-0.877 0.151-0.188 0.039-0.394 0.112-0.563 0.173-0.533 0.191-1.069 0.378-1.588 0.606-0.133 0.058-0.248 0.104-0.385 0.148-0.164 0.053-0.29 0.162-0.441 0.239-0.172 0.087-0.363 0.144-0.542 0.234-0.199 0.101-0.412 0.179-0.598 0.299-0.075 0.049-0.165 0.138-0.248 0.159-0.109 0.027-0.234 0-0.337 0.070-0.077 0.051-0.083 0.075-0.169 0.109-0.138 0.053-0.252 0.066-0.382 0.148-0.108 0.069-0.201 0.191-0.311 0.25-0.042 0.021-0.086 0.012-0.121 0.030-0.065 0.034-0.107 0.104-0.168 0.148-0.188 0.134-0.378 0.244-0.582 0.355-0.135 0.072-0.278 0.103-0.412 0.168-0.101 0.049-0.194 0.12-0.296 0.172-0.082 0.040-0.159 0.072-0.248 0.094-0.131 0.034-0.272 0.097-0.403 0.125-0.075 0.016-0.147 0.004-0.222 0.021-0.13 0.027-0.359 0.121-0.479 0.179-0.305 0.146-0.612 0.279-0.924 0.421-0.094 0.043-0.168 0.108-0.259 0.146-0.092 0.039-0.186 0.068-0.274 0.122-0.265 0.165-0.498 0.36-0.756 0.54-0.205 0.144-0.39 0.305-0.606 0.444-0.236 0.153-0.447 0.326-0.69 0.472-0.086 0.051-0.198 0.104-0.22 0.203-0.019 0.084 0.025 0.186 0.008 0.272-0.022 0.11-0.133 0.169-0.182 0.27-0.053 0.107-0.039 0.207 0.016 0.323z"></path>
<path d="M18.233 10.731c-0.353 0.040-0.698-0.233-0.984-0.403-0.157-0.094-0.32-0.144-0.478-0.23-0.078-0.043-0.142-0.101-0.224-0.138-0.101-0.047-0.207-0.065-0.305-0.122-0.131-0.077-0.274-0.149-0.418-0.195-0.161-0.049-0.281-0.129-0.444-0.168-0.107-0.026-0.186-0.057-0.252-0.16-0.040-0.061-0.125-0.13-0.065-0.199 0.038-0.043 0.248-0.007 0.303-0.007 0.398 0.001 0.868-0.064 1.26 0.012 0.34 0.066 0.641 0.246 0.962 0.369 0.075 0.029 0.179 0.038 0.243 0.082 0.069 0.047 0.109 0.107 0.186 0.147 0.113 0.058 0.227 0.133 0.337 0.188 0.094 0.048 0.2 0.090 0.298 0.134 0.168 0.077 0.201 0.091-0.417 0.689z"></path>
<path d="M13.858 10.407c0.108-0.005 0.060-0.916 0.058-1.008-0.009-0.316-0.084-0.632-0.142-0.941-0.019-0.101-0.048-0.242-0.027-0.347 0.016-0.082 0.057-0.136 0.123-0.188 0.139-0.112 0.251-0.261 0.4-0.365 0.138-0.095 0.265-0.165 0.385-0.281 0.121-0.116 0.218-0.24 0.351-0.346 0.191-0.151 0.351-0.251 0.505-0.437 0.072-0.086 0.165-0.147 0.251-0.218 0.103-0.087 0.169-0.191 0.262-0.274 0.070-0.061 0.131-0.077 0.187-0.16 0.329-0.482 0.422-1.103 0.651-1.629 0.243-0.557 0.5-1.097 0.802-1.623 0.058-0.1 0.108-0.204 0.136-0.312 0.022-0.082 0.095-0.198 0.1-0.278-0.131 0.025-0.251 0.266-0.317 0.37-0.12 0.184-0.22 0.383-0.308 0.582-0.097 0.224-0.244 0.424-0.364 0.635-0.088 0.156-0.17 0.3-0.273 0.446-0.091 0.127-0.183 0.243-0.257 0.379-0.036 0.069-0.075 0.13-0.108 0.2-0.042 0.092-0.095 0.134-0.144 0.209-0.082 0.122-0.133 0.327-0.166 0.469-0.044 0.182-0.156 0.334-0.216 0.511-0.052 0.149-0.105 0.275-0.229 0.379-0.056 0.047-0.117 0.1-0.174 0.143-0.043 0.030-0.091 0.039-0.138 0.064-0.069 0.035-0.1 0.090-0.16 0.134-0.090 0.062-0.184 0.094-0.273 0.16-0.057 0.043-0.108 0.084-0.161 0.127-0.182 0.147-0.405 0.268-0.616 0.378-0.117 0.061-0.196 0.136-0.301 0.209-0.135 0.094-0.277 0.159-0.32 0.337-0.018 0.072-0.013 0.121-0.044 0.19-0.036 0.081-0.068 0.126-0.070 0.216-0.007 0.174-0.088 0.316-0.11 0.489-0.022 0.183-0.013 0.357-0.062 0.538-0.048 0.179-0.042 0.351-0.042 0.542-0.001 0.179-0.019 0.234 0.127 0.327 0.136 0.087 0.289 0.398 0.682 0.373z"></path>
<path d="M12.562 10.083c-0.123 0-0.261-0.019-0.381 0.012-0.105 0.029-0.212 0.082-0.321 0.099-0.061 0.010-0.101-0.017-0.162 0.007-0.040 0.016-0.123 0.078-0.164 0.099-0.091 0.048-0.178 0.097-0.151 0.217 0.036 0.162 0.177 0.177 0.304 0.11 0.123-0.065 0.197-0.095 0.331-0.122 0.125-0.026 0.229-0.044 0.359-0.043 0.207 0.004 0.24-0.014 0.239-0.216z"></path>
<path d="M12.616 8.247c-0.225 0-0.433 0.019-0.65 0.066-0.094 0.019-0.191 0.065-0.282 0.096-0.11 0.038-0.253 0.043-0.357 0.092-0.246 0.12-0.479 0.279-0.712 0.434-0.312 0.207-0.621 0.479-0.864 0.771-0.094 0.113-0.152 0.249-0.223 0.376-0.045 0.079-0.107 0.148-0.153 0.22-0.035 0.053-0.056 0.11-0.108 0.157-0.053-0.004-0.091-0.207-0.108-0.269-0.026-0.091-0.030-0.139 0.033-0.216 0.116-0.14 0.274-0.236 0.387-0.39 0.042-0.056 0.078-0.149 0.133-0.192 0.030-0.025 0.084-0.016 0.12-0.042 0.030-0.023 0.040-0.064 0.068-0.091 0.152-0.153 0.391-0.221 0.568-0.337 0.084-0.056 0.166-0.090 0.246-0.149 0.078-0.057 0.151-0.099 0.243-0.135 0.203-0.079 0.379-0.173 0.583-0.252 0.181-0.069 0.344-0.136 0.496-0.248 0.142-0.104 0.347-0.105 0.582 0.109z"></path>
<path d="M9.483 11.109c0.025-0.196-0.086-0.222-0.216-0.321-0.169-0.13-0.308-0.3-0.485-0.424-0.134-0.092-0.268-0.162-0.391-0.268-0.142-0.118-0.096-0.257-0.096-0.441-0.001-0.255 0.004-0.509 0-0.764-0.001-0.168-0.057-0.312-0.055-0.483 0.004-0.344-0.25-0.542-0.52-0.739-0.231-0.169-0.461-0.327-0.708-0.461-0.195-0.105-0.42-0.169-0.6-0.3-0.234-0.172-0.331-0.513-0.559-0.699-0.199-0.162-0.399-0.325-0.583-0.504-0.129-0.123-0.307-0.209-0.444-0.321-0.183-0.149-0.495-0.42-0.739-0.447-0.13 0.105 0.051 0.283 0.113 0.373 0.103 0.147 0.195 0.322 0.278 0.482 0.081 0.153 0.125 0.32 0.225 0.46 0.042 0.057 0.099 0.106 0.135 0.168 0.079 0.13 0.113 0.239 0.218 0.357 0.051 0.058 0.101 0.116 0.149 0.175 0.086 0.105 0.106 0.2 0.238 0.255 0.144 0.060 0.286 0.133 0.433 0.188 0.222 0.086 0.446 0.216 0.673 0.269 0.162 0.038 0.379 0.122 0.505 0.23 0.1 0.086 0.105 0.214 0.153 0.327 0.042 0.096 0.101 0.122 0.169 0.197 0.12 0.131 0.164 0.177 0.161 0.352-0.004 0.398 0 0.795 0.001 1.193 0 0.069-0.012 0.146-0.004 0.213 0.016 0.143 0.097 0.223 0.229 0.301 0.231 0.136 0.517 0.175 0.748 0.32 0.107 0.066 0.244 0.164 0.325 0.256 0.056 0.065 0.184 0.181 0.646 0.055z"></path>
<path d="M20.61 10.731c0 0.437-0.017 0.873 0.052 1.299 0.017 0.097 0.053 0.178 0.057 0.279 0.004 0.104-0.001 0.209-0.001 0.314 0 0.143 0.003 0.286 0 0.429-0.003 0.179-0.049 0.356-0.095 0.529-0.045 0.177-0.068 0.313-0.068 0.499 0.001 0.369-0.090 0.704-0.21 1.050-0.022 0.064-0.032 0.131-0.052 0.195-0.053 0.169-0.162 0.277-0.24 0.431-0.099 0.191-0.203 0.386-0.303 0.57-0.026 0.049-0.048 0.118-0.073 0.17-0.022 0.048-0.022 0.12-0.048 0.162-0.014 0.023-0.070 0.035-0.088 0.064-0.018 0.026-0.009 0.083-0.021 0.11-0.018 0.040-0.074 0.066-0.090 0.108-0.016 0.043 0.008 0.092-0.012 0.13-0.023 0.047-0.087 0.086-0.12 0.139-0.042 0.068-0.058 0.155-0.105 0.218-0.055 0.074-0.243 0.255-0.177 0.346 0.022 0.031 0.175 0.056 0.213 0.061 0.118 0.018 0.174-0.013 0.25-0.123 0.135-0.199 0.25-0.427 0.353-0.642 0.082-0.166 0.133-0.342 0.208-0.504 0.049-0.107 0.145-0.203 0.182-0.316 0.040-0.123 0.053-0.168 0.145-0.275 0.087-0.104 0.191-0.235 0.235-0.359 0.036-0.104 0.082-0.23 0.104-0.338 0.018-0.091-0.005-0.183 0.016-0.273 0.121-0.056 0.355-0.008 0.485-0.008 0.178 0 0.356 0 0.535-0.001 0.218-0.001 0.368 0.074 0.572 0.109 0.262 0.044 0.583 0.016 0.834 0.117 0.072 0.029 0.11 0.095 0.169 0.138 0.139 0.105 0.323 0.142 0.481 0.204 0.186 0.073 0.346 0.195 0.529 0.242 0.305 0.077 0.637 0.079 0.949 0.125 0.238 0.035 0.473 0.031 0.712 0.049 0.233 0.018 0.438 0.104 0.664 0.14 0.153 0.025 0.195 0.017 0.325 0.114 0.491 0.365 0.92 0.808 1.409 1.176 0.166 0.125 0.268 0.27 0.45 0.386 0.030 0.008 0.061 0.013 0.092 0.014 0.044 0.043 0.069 0.096 0.077 0.16 0.061 0.161 0.142 0.316 0.234 0.459 0.192 0.298 0.35 0.576 0.473 0.906 0.092 0.246 0.233 0.45 0.387 0.656 0.069 0.092 0.038 0.11 0.082 0.178 0.032 0.052 0.11 0.11 0.152 0.164 0.027 0.034 0.073 0.088 0.107 0.121 0.148 0.144 0.29 0.286 0.49 0.365 0.095 0.038 0.177 0.055 0.255 0.117 0.070 0.057 0.149 0.129 0.222 0.19 0.083-0.278-0.184-0.624-0.333-0.828-0.213-0.294-0.526-0.548-0.681-0.875-0.201-0.429-0.556-0.846-0.889-1.176-0.084-0.083-0.191-0.143-0.274-0.225-0.082-0.081-0.125-0.199-0.205-0.286-0.082-0.088-0.196-0.164-0.26-0.266-0.060-0.095-0.094-0.169-0.161-0.257-0.091-0.12-0.177-0.227-0.282-0.338-0.127-0.131-0.221-0.308-0.365-0.422-0.165-0.13-0.334-0.222-0.486-0.376-0.113-0.113-0.291-0.373-0.444-0.424-0.057-0.019-0.094 0.001-0.147-0.004-0.142-0.014-0.279-0.057-0.418-0.084-0.494-0.096-1.006-0.121-1.503-0.195-0.278-0.040-0.529-0.101-0.793-0.159-0.3-0.065-0.611-0.052-0.902-0.162-0.181-0.068-0.378-0.168-0.573-0.214-0.173-0.042-0.357-0.094-0.539-0.109-0.212-0.019-0.478-0.117-0.677-0.226-0.043-0.022-0.079-0.073-0.12-0.099-0.034-0.021-0.116-0.035-0.142-0.061-0.077-0.083-0.051-0.23-0.074-0.331-0.023-0.107-0.084-0.201-0.097-0.311-0.010-0.083 0.001-0.182 0.003-0.265 0.001-0.122-0.036-0.165-0.057-0.268-0.026-0.12-0.013-0.247-0.039-0.37-0.023-0.108 0.009-0.221-0.017-0.326-0.027-0.108-0.051-0.16-0.049-0.281 0.001-0.095 0.013-0.201 0.001-0.296-0.012-0.104-0.052-0.192-0.057-0.3-0.004-0.101 0.017-0.21 0.005-0.311-0.008-0.065 0.026-0.057-0.035-0.112-0.047-0.043-0.238-0.008-0.184-0.439z"></path>
<path d="M13.318 18.023c0.155-0.032 0.21 0.151 0.298 0.246 0.103 0.112 0.152 0.13 0.295 0.133 0.212 0.003 0.396 0.004 0.595 0.052 0.101 0.025 0.199 0.057 0.298 0.083 0.117 0.030 0.233 0.034 0.352 0.068 0.107 0.030 0.222 0.042 0.325 0.079 0.131 0.048 0.226 0.118 0.369 0.144 0.162 0.030 0.29 0.075 0.442 0.136 0.101 0.042 0.213 0.049 0.318 0.086 0.198 0.066 0.409 0.13 0.598 0.188 0.088 0.027 0.175 0.060 0.269 0.081 0.136 0.029 0.255 0.116 0.383 0.153 0.045 0.014 0.087 0 0.133 0.008 0.039 0.008 0.061 0.034 0.090 0.043 0.12 0.036 0.239 0.051 0.359 0.075-0.012 0.238 0.721 0.301 0.886 0.327 0.092 0.014 0.188 0.048 0.279 0.070 0.090 0.021 0.155 0.016 0.247 0.023 0.083 0.006 0.214 0.032 0.296 0.056 0.116 0.035 0.083 0.032 0.043 0.133-0.068 0.17-0.035 0.25-0.23 0.246-0.195-0.003-0.364-0.009-0.554-0.052-0.103-0.023-0.169-0.074-0.262-0.105-0.088-0.029-0.175-0.038-0.265-0.072-0.16-0.062-0.321-0.086-0.463-0.169-0.149-0.087-0.344-0.177-0.509-0.238-0.136-0.051-0.27-0.056-0.405-0.092-0.114-0.031-0.224-0.099-0.327-0.131-0.153-0.047-0.322-0.060-0.478-0.12-0.108-0.040-0.21-0.042-0.329-0.074-0.139-0.038-0.275-0.090-0.409-0.147-0.212-0.091-0.477-0.131-0.703-0.151-0.236-0.019-0.47-0.107-0.698-0.174-0.305-0.092-0.635-0.217-0.929-0.299-0.12-0.034-0.248 0.006-0.352-0.077-0.108-0.087-0.208-0.307 0.040-0.53z"></path>
<path d="M12.076 18.077c-0.017-0.13-0.139-0.084-0.221-0.107-0.051-0.014-0.053-0.043-0.11-0.058-0.118-0.032-0.235 0.012-0.36-0.036-0.060-0.022-0.114-0.049-0.174-0.070-0.247-0.086-0.486-0.205-0.702-0.378-0.062-0.049-0.248-0.226-0.311-0.201-0.003 0.003-0.152 0.29-0.151 0.288-0.034 0.060-0.104 0.165-0.084 0.242 0.026 0.1 0.309 0.191 0.399 0.266 0.081 0.068 0.188 0.169 0.3 0.169 0.056 0.17-0.057 0.299-0.121 0.446-0.034 0.079-0.047 0.166-0.082 0.248-0.068 0.155-0.157 0.301-0.223 0.459-0.068 0.162-0.1 0.339-0.143 0.511-0.079 0.325-0.277 0.594-0.381 0.913-0.084 0.257-0.178 0.496-0.292 0.741-0.051 0.11-0.138 0.19-0.177 0.308-0.034 0.101-0.065 0.21-0.099 0.3-0.047 0.123-0.039 0.25-0.039 0.396 0 0.343 0.003 0.686 0 1.029-0.001 0.205 0.039 0.343 0.108 0.53 0.048 0.131 0.152 0.272 0.166 0.408 0.014 0.127-0.052 0.25-0.125 0.348-0.084 0.117-0.121 0.224-0.183 0.348-0.090 0.179-0.208 0.364-0.314 0.534-0.134 0.216-0.225 0.444-0.338 0.672-0.149 0.301-0.356 0.564-0.505 0.865-0.131 0.265-0.247 0.548-0.403 0.798-0.087 0.139-0.162 0.268-0.217 0.422-0.016 0.045-0.057 0.114-0.068 0.153-0.016 0.064 0.003 0.13-0.022 0.192-0.048 0.116-0.149 0.24-0.207 0.363-0.117 0.251-0.243 0.542-0.277 0.824 0.047-0.11 0.188-0.186 0.278-0.257 0.117-0.094 0.234-0.184 0.357-0.269 0.287-0.198 0.525-0.442 0.781-0.68 0.178-0.166 0.33-0.288 0.443-0.511 0.082-0.161 0.182-0.321 0.282-0.473 0.104-0.156 0.22-0.304 0.298-0.473 0.030-0.068 0.083-0.118 0.109-0.182 0.039-0.101 0.060-0.201 0.107-0.303 0.155-0.333 0.101-0.709 0.159-1.066 0.035-0.213 0.165-0.521 0.273-0.707 0.092-0.16 0.213-0.252 0.217-0.442 0.003-0.13-0.014-0.235-0.052-0.348-0.051-0.151-0.164-0.298-0.205-0.444-0.030-0.103-0.038-0.188-0.088-0.285-0.043-0.082-0.088-0.156-0.116-0.246-0.023-0.073-0.026-0.136-0.026-0.212-0.001-0.172 0.040-0.218 0.135-0.352 0.287-0.403 0.361-0.929 0.525-1.383 0.159-0.435 0.282-0.887 0.381-1.345 0.086-0.4 0.234-0.789 0.32-1.182 0.087 0.001 0.112-0.075 0.174-0.112 0.036-0.021 0.107-0.019 0.147-0.035 0.072-0.029 0.12-0.070 0.174-0.122 0.105-0.099 0.221-0.286 0.684-0.496z"></path>
<path d="M9.699 19.751c-0.11-0.001-0.226 0.017-0.329-0.023-0.155-0.060-0.295-0.173-0.442-0.248-0.127-0.064-0.246-0.126-0.366-0.203-0.112-0.072-0.275-0.134-0.366-0.226-0.044-0.045-0.055-0.1-0.1-0.139-0.052-0.045-0.138-0.049-0.184-0.091-0.051-0.045-0.052-0.105-0.1-0.153-0.031-0.031-0.079-0.038-0.113-0.064-0.074-0.057-0.144-0.136-0.213-0.201-0.049-0.045-0.125-0.101-0.166-0.152-0.031-0.035-0.035-0.074-0.062-0.108-0.118-0.151-0.268-0.286-0.379-0.442-0.105-0.151-0.144-0.342-0.255-0.489-0.069-0.090-0.083-0.1-0.108-0.216-0.021-0.096-0.079-0.174-0.125-0.257-0.031-0.057-0.062-0.113-0.092-0.172-0.043-0.087-0.125-0.195-0.151-0.286-0.064-0.221-0.151-0.418-0.243-0.635-0.048-0.114-0.022-0.143-0.147-0.162-0.086-0.014-0.261 0.016-0.329 0.052-0.164 0.087 0.155 0.331 0.223 0.431 0.066 0.097 0.062 0.22 0.118 0.327 0.057 0.108 0.094 0.22 0.148 0.323 0.058 0.112 0.075 0.236 0.135 0.353 0.025 0.047 0.057 0.087 0.083 0.131 0.048 0.087 0.034 0.12 0.062 0.218 0.070 0.239 0.22 0.473 0.327 0.698 0.086 0.179 0.197 0.33 0.321 0.487 0.081 0.1 0.175 0.134 0.262 0.217 0.082 0.078 0.135 0.181 0.213 0.261 0.344 0.355 0.768 0.567 1.192 0.807 0.088 0.051 0.213 0.084 0.29 0.155 0.075 0.069 0.138 0.144 0.22 0.21 0.11 0.088 0.22 0.162 0.373 0.14 0.217-0.032 0.217-0.255 0.259-0.433 0.031-0.013 0.064-0.016 0.044-0.113z"></path>
<path d="M9.213 14.404c-0.291 0-0.581 0-0.872 0-0.121 0-0.268-0.026-0.386 0.009-0.051 0.030-0.101 0.060-0.153 0.088-0.087 0.010-0.174 0.018-0.261 0.023-0.415 0.055-0.835-0.012-1.219 0.153-0.142 0.062-0.278 0.152-0.413 0.225-0.175 0.095-0.337 0.095-0.531 0.095h-0.5c-0.095 0-0.383 0.040-0.442-0.019 0.043-0.049 0.086-0.133 0.134-0.168 0.026-0.019 0.051-0.016 0.078-0.034 0.112-0.072 0.168-0.091 0.299-0.116 0.109-0.021 0.216-0.042 0.322-0.068 0.11-0.029 0.22-0.012 0.327-0.040 0.086-0.022 0.165-0.030 0.25-0.051 0.094-0.022 0.162-0.092 0.261-0.104 0.079-0.010 0.168 0.004 0.248 0.005 0.142 0.003 0.244-0.001 0.376-0.040 0.078-0.025 0.162-0.061 0.242-0.070 0.165-0.017 0.283-0.052 0.459-0.052 0.19 0 0.378 0 0.568 0 0.135 0 1.038-0.056 1.215 0.162z"></path>
<path d="M6.675 13.864c0-0.13-0.023-0.283 0.005-0.407 0.013-0.060 0.044-0.101 0.051-0.165 0.009-0.077-0.012-0.147 0.006-0.222 0.042-0.173 0.164-0.327 0.209-0.504s0.083-0.333 0.174-0.5c0.133-0.244 0.231-0.482 0.322-0.741 0.034-0.094 0.131-0.177 0.153-0.266 0.049-0.194-0.197-0.182-0.317-0.16-0.060 0.27-0.183 0.513-0.29 0.758-0.147 0.338-0.327 0.646-0.451 0.995-0.043 0.12-0.070 0.23-0.12 0.347-0.061 0.149-0.094 0.275-0.12 0.43-0.026 0.162-0.112 0.27-0.11 0.435 0.001 0.053-0.025 0.173-0.004 0.22 0.034 0.077 0.087 0.051 0.49-0.22z"></path>
<path d="M19.745 15.646c0.025-0.186-0.559-0.321-0.7-0.365-0.184-0.056-0.365-0.109-0.539-0.188-0.251-0.114-0.52-0.16-0.787-0.201-0.13-0.021-0.166-0.069-0.274-0.131-0.075-0.044-0.161-0.056-0.238-0.097-0.168-0.092-0.321-0.204-0.487-0.301-0.062-0.038-0.199-0.108-0.265-0.122-0.086-0.018-0.136 0.009-0.222-0.036-0.055-0.029-0.064-0.074-0.133-0.073-0.105 0.001-0.13 0.243-0.073 0.318 0.031 0.042 0.252 0.091 0.313 0.118 0.126 0.055 0.247 0.104 0.379 0.107 0.131 0.001 0.269 0.078 0.382 0.149 0.156 0.099 0.325 0.143 0.485 0.231 0.288 0.157 0.615 0.266 0.919 0.391 0.056 0.023 0.104 0.031 0.161 0.052 0.086 0.030 0.138 0.103 0.216 0.139 0.123 0.056 0.355 0.131 0.864 0.010z"></path>
<path d="M26.551 15.322v-0.755c0-0.155 0.018-0.32 0.003-0.473-0.019-0.188-0.088-0.381-0.123-0.568-0.038-0.2-0.019-0.382-0.039-0.585-0.014-0.159-0.069-0.321-0.099-0.479-0.014-0.081-0.004-0.143-0.010-0.221-0.006-0.092-0.048-0.166-0.058-0.257-0.005-0.056 0.008-0.116 0.005-0.173-0.005-0.083-0.044-0.135-0.058-0.216-0.036-0.204 0.049-0.403-0.052-0.598-0.060-0.116-0.086-0.187-0.108-0.323-0.019-0.126-0.048-0.256-0.095-0.377-0.048-0.125-0.042-0.108-0.174-0.159-0.157-0.061-0.303-0.139-0.474-0.165-0.162-0.025-0.325-0.068-0.489-0.095-0.125-0.019-0.252 0.005-0.376-0.023-0.069-0.017-0.104-0.039-0.174-0.044-0.052-0.003-0.112 0.013-0.162 0.004-0.097-0.017-0.199-0.069-0.282-0.097-0.101-0.034-0.181-0.060-0.285-0.068-0.087-0.005-0.37-0.083-0.196-0.207 0.079-0.056 0.329-0.009 0.425-0.009 0.145 0 0.278-0.005 0.42 0.027 0.053 0.013 0.145 0.005 0.191 0.023 0.065 0.025 0.097 0.081 0.159 0.114 0.131 0.072 0.301 0.061 0.437 0.104 0.045 0.014 0.056 0.043 0.101 0.058 0.061 0.021 0.118-0.004 0.188 0.021 0.122 0.044 0.234 0.087 0.355 0.125 0.109 0.035 0.236 0.038 0.339 0.077 0.057 0.021 0.096 0.074 0.147 0.101 0.074 0.042 0.097-0.003 0.162 0.092 0.065 0.092 0.053 0.136 0.053 0.272 0 0.112 0.001 0.223 0 0.335-0.001 0.146 0.023 0.24 0.069 0.378 0.049 0.148 0.042 0.289 0.107 0.435 0.070 0.155 0.178 0.287 0.244 0.442 0.078 0.183 0.039 0.355 0.078 0.539 0.057 0.269 0.022 0.544 0.084 0.81 0.061 0.256 0.012 0.581 0.012 0.848 0 0.212 0.006 0.399 0.043 0.602 0.008 0.051-0.003 0.112 0.009 0.16 0.018 0.075 0.074 0.134-0.376 0.323z"></path>
<path d="M14.884 10.731c0.009-0.073 0.042-0.146 0.055-0.217 0.008-0.047 0.034-0.084 0.042-0.118 0.033-0.136-0.012-0.283 0.023-0.421 0.019-0.074 0.023-0.142 0.039-0.216 0.010-0.044 0.029-0.125 0.069-0.155 0.107-0.079 0.342 0.052 0.45 0.074 0.043 0.009 0.159 0.012 0.192 0.034 0.094 0.062 0.013 0.107 0 0.182-0.021 0.12-0.005 0.255-0.005 0.378 0 0.118 0.045 0.292-0.078 0.348-0.072 0.033-0.329 0.026-0.366-0.048-0.053 0.007-0.086 0.042-0.096 0.104z"></path>
<path d="M16.343 11.055c0.164-0.042 0.169-0.251 0.266-0.339 0.104-0.095 0.335-0.183 0.465-0.122 0.16 0.075 0.169 0.218 0.074 0.353-0.1 0.147-0.198 0.272-0.373 0.27z"></path>
<path d="M17.639 13.054h-0.036c0.435 0 0.871 0.001 1.306 0 0.117 0 0.188 0.013 0.298 0.042 0.116 0.031 0.235 0.010 0.352 0.039 0.1 0.025 0.195 0.007 0.295 0.025 0.062 0.012 0.113 0.044 0.175 0.058 0.058 0.013 0.109-0.022 0.155 0.033-0.012-0.083 0.005-0.169-0.005-0.251-0.014-0.131-0.043-0.109-0.173-0.108-0.196 0.004-0.448 0.038-0.638-0.012-0.097-0.026-0.164-0.038-0.27-0.042-0.122-0.003-0.184-0.031-0.133-0.162 0.042-0.109 0.113-0.216 0.16-0.326 0.031-0.073 0.138-0.181 0.131-0.262-0.114-0.009-0.335 0.134-0.431 0.197-0.096 0.065-0.207 0.161-0.269 0.256-0.039 0.060-0.042 0.105-0.1 0.149s-0.201 0.084-0.274 0.096c-0.117 0.019-0.172 0.003-0.283 0.051-0.104 0.044-0.199 0.094-0.259 0.217z"></path>
<path d="M21.15 22.722c-0.040-0.134-0.444 0.053-0.539 0.086-0.172 0.060-0.334 0.143-0.507 0.199-0.226 0.073-0.466 0.088-0.686 0.175-0.155 0.062-0.32 0.13-0.482 0.177-0.188 0.052-0.392 0.127-0.585 0.162-0.066 0.012-0.133 0-0.196 0.013-0.095 0.022-0.186 0.082-0.286 0.107-0.207 0.048-0.401 0.149-0.608 0.204-0.262 0.068-0.516 0.14-0.786 0.178-0.122 0.018-0.229 0.078-0.348 0.099-0.146 0.025-0.268 0.056-0.405 0.113-0.255 0.107-0.511 0.122-0.771 0.216-0.421 0.152-0.865 0.273-1.302 0.368-0.521 0.113-0.993 0.303-1.489 0.443-0.187 0.052-0.391 0.086-0.57 0.16-0.142 0.058-0.282 0.142-0.43 0.204-0.084 0.036-0.165 0.043-0.248 0.068-0.048 0.014-0.079 0.042-0.127 0.056-0.072 0.022-0.142 0.019-0.22 0.051-0.094 0.038-0.182 0.095-0.282 0.112-0.072 0.012-0.149-0.029-0.197 0.048-0.027 0.045-0.007 0.144-0.007 0.194 0.001 0.169-0.016 0.3 0.217 0.24 0.077-0.019 0.123-0.075 0.194-0.108 0.077-0.038 0.16-0.036 0.239-0.065 0.062-0.022 0.113-0.068 0.172-0.096 0.092-0.048 0.21-0.072 0.313-0.095 0.081-0.018 0.164 0.004 0.243-0.014 0.073-0.018 0.136-0.078 0.209-0.101 0.151-0.049 0.313-0.068 0.466-0.107 0.335-0.083 0.659-0.172 0.984-0.291 0.166-0.061 0.353-0.066 0.517-0.131 0.162-0.064 0.272-0.218 0.446-0.277 0.117-0.039 0.251-0.036 0.369-0.068 0.195-0.051 0.415-0.113 0.607-0.191 0.203-0.082 0.409-0.186 0.626-0.226 0.278-0.051 0.56 0.017 0.83-0.105 0.149-0.068 0.299-0.108 0.455-0.149 0.145-0.038 0.301-0.112 0.453-0.13 0.169-0.018 0.329-0.051 0.489-0.099 0.103-0.031 0.225-0.060 0.333-0.070 0.068-0.006 0.143 0.018 0.21 0.005 0.3-0.053 0.648-0.155 0.93-0.285 0.135-0.061 0.253-0.123 0.389-0.174 0.145-0.055 0.281-0.136 0.427-0.188 0.1-0.036 0.192-0.055 0.281-0.112 0.101-0.064 0.205-0.142 0.308-0.204 0.052-0.031 0.078-0.052 0.126-0.086 0.057-0.040 0.175-0.064 0.239-0.304z"></path>
<path d="M21.582 8.733c-0.001 0.012-0.004 0.025-0.005 0.036-0.257-0.112-0.453-0.34-0.68-0.495-0.246-0.17-0.535-0.27-0.761-0.46-0.092-0.077-0.138-0.186-0.216-0.275-0.053-0.060-0.117-0.108-0.174-0.169-0.083-0.087-0.201-0.203-0.26-0.309-0.061-0.113-0.084-0.22-0.16-0.326-0.125-0.181-0.304-0.348-0.407-0.54-0.053-0.101-0.082-0.118-0.166-0.194-0.096-0.084-0.151-0.225-0.259-0.295-0.055-0.035-0.117-0.030-0.169-0.061-0.079-0.048-0.122-0.11-0.184-0.177-0.104-0.108-0.218-0.268-0.339-0.359-0.081-0.060-0.126-0.056-0.195-0.127-0.069-0.070-0.135-0.155-0.198-0.231-0.065-0.079-0.242-0.416-0.356-0.234-0.11 0.175 0.244 0.429 0.352 0.521 0.179 0.157 0.379 0.298 0.569 0.439 0.062 0.047 0.136 0.086 0.194 0.139 0.072 0.065 0.107 0.161 0.179 0.223 0.094 0.082 0.233 0.149 0.313 0.225 0.030 0.029 0.075 0.14 0.099 0.183 0.042 0.075 0.070 0.159 0.107 0.229 0.079 0.155 0.179 0.291 0.259 0.448 0.073 0.144 0.136 0.309 0.188 0.456 0.072 0.196 0.104 0.355 0.325 0.434 0.105 0.039 0.226 0.070 0.327 0.122 0.023 0.012 0.065 0.044 0.092 0.055 0.034 0.014 0.083 0.023 0.117 0.036 0.152 0.058 0.251 0.138 0.379 0.222 0.078 0.052 0.183 0.084 0.27 0.121 0.029 0.012 0.082 0.021 0.109 0.035 0.065 0.034 0.1 0.095 0.161 0.129 0.055 0.031 0.103 0.027 0.161 0.042 0.095 0.022 0.172 0.081 0.262 0.116-0.055-0.035-0.105-0.075 0.064 0.042z"></path>
<path d="M19.367 7.545c-0.129 0.001-0.222 0.16-0.295 0.243-0.107 0.121-0.235 0.159-0.365 0.24-0.121 0.077-0.248 0.148-0.365 0.23-0.131 0.091-0.217 0.231-0.352 0.32 0.191-0.051 0.363-0.13 0.535-0.223 0.134-0.072 0.269-0.136 0.398-0.23 0.118-0.086 0.255-0.156 0.39-0.216 0.082-0.036 0.159-0.040 0.242-0.065 0.103-0.030 0.186-0.096 0.299-0.083z"></path>
<path d="M26.173 11.973c0.126 0 0.252-0.001 0.378 0 0.17 0.001 0.318-0.051 0.487-0.056 0.23-0.007 0.451-0.044 0.68-0.055 0.337-0.016 0.678 0.003 1.016 0.003h1.771c-0.094 0-0.188-0.007-0.281-0.001-0.097 0.005-0.172 0.049-0.268 0.056-0.096 0.008-0.187 0.004-0.272 0.026-0.099 0.026-0.19 0.022-0.298 0.026-0.144 0.005-0.244 0.097-0.383 0.113-0.1 0.012-0.216-0.004-0.316-0.004-0.2 0-0.376 0.036-0.57 0.055-0.184 0.017-0.357 0.079-0.541 0.11-0.099 0.017-0.174 0.014-0.27 0.039-0.088 0.023-0.179 0.013-0.27 0.012-0.222 0-0.426 0.055-0.864-0.323z"></path>
<path d="M7.107 18.725c0.026 0.142-0.123 0.208-0.178 0.323-0.044 0.094-0.069 0.199-0.092 0.298-0.064 0.272-0.191 0.518-0.27 0.786-0.055 0.187-0.173 0.343-0.217 0.537-0.044 0.198-0.144 0.425-0.247 0.599-0.079 0.135-0.104 0.285-0.173 0.431-0.051 0.107-0.113 0.226-0.148 0.342-0.077 0.256-0.165 0.486-0.227 0.751-0.055 0.231-0.162 0.431-0.272 0.643-0.044 0.084-0.066 0.19-0.106 0.272-0.035 0.074-0.097 0.166-0.088 0.253 0.127 0.031 0.3-0.416 0.357-0.521 0.129-0.242 0.233-0.511 0.352-0.763 0.040-0.084 0.092-0.175 0.148-0.252 0.068-0.091 0.086-0.191 0.149-0.285 0.061-0.090 0.146-0.17 0.2-0.262 0.070-0.118 0.156-0.23 0.22-0.342-0.009-0.027-0.008-0.053 0.001-0.078 0.003-0.026 0.019-0.042 0.051-0.044 0.022-0.039 0.040-0.103 0.066-0.139 0.065-0.096 0.131-0.192 0.191-0.292 0.072-0.12 0.12-0.255 0.188-0.372 0.045-0.077 0.097-0.121 0.123-0.21 0.026-0.087 0.039-0.14 0.079-0.217 0.052-0.099 0.112-0.212 0.151-0.321 0.027-0.079 0.023-0.145 0.064-0.222 0.040-0.074 0.097-0.123 0.112-0.213 0.034-0.195-0.226-0.524-0.434-0.702z"></path>
<path d="M15.587 5.438c-0.233 0-0.428-0.036-0.651-0.108-0.12-0.039-0.238-0.075-0.364-0.096-0.125-0.021-0.242-0.006-0.363-0.039-0.126-0.034-0.262-0.047-0.395-0.069-0.125-0.022-0.256 0.012-0.379-0.009-0.062-0.012-0.091-0.048-0.156-0.060-0.049-0.009-0.1 0.009-0.149-0.001-0.052-0.012-0.091-0.044-0.146-0.053-0.097-0.017-0.188 0.019-0.288-0.006-0.079-0.019-0.144-0.079-0.223-0.096-0.060-0.013-0.12 0.008-0.179 0.001-0.166-0.021-0.317-0.049-0.487-0.056s-0.316-0.103-0.487-0.112c-0.149-0.009-0.272-0.013-0.418-0.040-0.14-0.025-0.277-0.004-0.418-0.039-0.062-0.016-0.131-0.013-0.192-0.026-0.036-0.009-0.088-0.036-0.116-0.043-0.086-0.019-0.173 0.006-0.259-0.009-0.126-0.023-0.214-0.057-0.352-0.057h1.661c0.312 0 0.7-0.055 1.010 0.005 0.174 0.032 0.296 0.049 0.482 0.049h0.333c0.252 0 0.504 0 0.756 0 0.282 0 0.53 0.055 0.812 0.055 0.125 0 0.55-0.061 0.596 0.049 0.047 0.109-0.004 0.361-0.004 0.474 0 0.165 0.001 0.329 0 0.492 0 0.104-0.026 0.23 0.009 0.329 0.016 0.001 0.030 0.003 0.369-0.535z"></path>
<path d="M7.863 7.005c-0.029-0.174 0.156-0.452 0.239-0.602 0.149-0.27 0.359-0.479 0.456-0.776 0.056-0.169 0.156-0.32 0.217-0.486 0.040-0.11 0.064-0.359 0.162-0.428-0.2 0.277-0.438 0.489-0.606 0.781-0.077 0.133-0.14 0.268-0.221 0.398-0.045 0.073-0.092 0.118-0.143 0.182-0.031 0.039-0.036 0.062-0.064 0.106-0.116 0.188-0.291 0.338-0.379 0.54-0.021 0.051-0.044 0.049-0.043 0.121 0.003 0.116 0.004 0.045 0.056 0.108 0.064 0.078 0.181 0.157 0.325 0.055z"></path>
<path d="M8.889 4.844c-0.087-0.364-0.321-0.716-0.512-1.038-0.126-0.214-0.222-0.45-0.351-0.663-0.127-0.212-0.298-0.398-0.435-0.593-0.049-0.071-0.109-0.182-0.148-0.257-0.038-0.074-0.040-0.207-0.097-0.252 0.012 0.112 0.199 0.248 0.277 0.321 0.087 0.081 0.172 0.173 0.242 0.268 0.073 0.097 0.117 0.194 0.201 0.283 0.114 0.121 0.197 0.252 0.283 0.392 0.081 0.133 0.192 0.246 0.273 0.377 0.077 0.126 0.094 0.262 0.191 0.377 0.181 0.208 0.352 0.444 0.077 0.785z"></path>
<path d="M9.861 16.996c0.027-0.097-0.11-0.188-0.149-0.27-0.044-0.087-0.087-0.175-0.121-0.27-0.039-0.109-0.105-0.187-0.135-0.3-0.035-0.134-0.091-0.269-0.122-0.402-0.026-0.108-0.043-0.205-0.079-0.312-0.019-0.056-0.035-0.078-0.042-0.147-0.005-0.061-0.033-0.103-0.042-0.147-0.022-0.099 0.018-0.221-0.009-0.316-0.034-0.113-0.134-0.144-0.168-0.026-0.027 0.094 0.003 0.256 0.003 0.353 0 0.112 0.001 0.223 0 0.335-0.003 0.252 0.133 0.489 0.204 0.734 0.060 0.205 0.166 0.438 0.175 0.659 0.004 0.097-0.009 0.186 0.104 0.218 0.103 0.030 0.274-0.003 0.381-0.11z"></path>
<path d="M8.727 13.81c-0.017-0.096 0.039-0.268 0.066-0.363 0.031-0.11 0.043-0.225 0.082-0.337 0.047-0.136 0.14-0.272 0.173-0.409 0.025-0.108 0.012-0.175 0.051-0.273 0.075-0.194 0.135-0.378 0.236-0.564 0.040-0.077 0.159-0.168 0.044-0.22-0.057-0.025-0.265-0.001-0.32 0.012-0.039 0.183-0.070 0.343-0.159 0.521-0.044 0.088-0.075 0.188-0.107 0.282-0.034 0.1-0.084 0.191-0.117 0.29-0.060 0.182-0.058 0.359-0.058 0.547 0 0.075 0.019 0.175 0.003 0.246-0.021 0.084-0.058 0.112 0.105 0.268z"></path>
<path d="M16.829 16.51c0.040-0.298 0.131-0.569 0.201-0.861 0.051-0.21 0.121-0.407 0.218-0.598 0.035-0.066-0.014-0.086 0.064-0.112 0.053-0.018 0.109 0.016 0.14 0.055 0.114 0.138-0.058 0.441-0.1 0.579-0.027 0.094-0.040 0.196-0.065 0.289-0.045 0.173 0.061 0.591-0.188 0.648z"></path>
<path d="M18.341 15.052c0.12-0.042 0.090-0.175 0.12-0.272 0.030-0.094 0.087-0.169 0.099-0.272 0.009-0.069-0.008-0.13 0.009-0.197 0.016-0.061 0.039-0.11 0.044-0.179 0.012-0.149 0.056-0.275 0.053-0.43-0.003-0.092 0.019-0.133 0.042-0.216 0.014-0.061-0.010-0.138 0.014-0.192 0.047-0.108 0.244-0.123 0.311-0.013 0.060 0.1-0.062 0.298-0.101 0.391-0.072 0.172-0.166 0.327-0.213 0.511-0.048 0.186-0.016 0.389-0.161 0.546z"></path>
<path d="M18.017 8.301c-0.217-0.159-0.46-0.252-0.685-0.378-0.208-0.116-0.463-0.14-0.677-0.24-0.113-0.052-0.194-0.164-0.313-0.195-0.047-0.012-0.084-0.005-0.134-0.029-0.045-0.021-0.094-0.055-0.139-0.078-0.177-0.088-0.37-0.139-0.564-0.187-0.094-0.023-0.182-0.057-0.272 0.001-0.142 0.094-0.082 0.168 0.026 0.221 0.123 0.061 0.2 0.12 0.337 0.129 0.153 0.010 0.231 0.047 0.368 0.096 0.12 0.044 0.236 0.11 0.364 0.121 0.196 0.018 0.238 0.049 0.391 0.148 0.224 0.144 0.503 0.208 1.298 0.391z"></path>
<path d="M16.613 19.643c-0.173 0.022-0.208 0.264-0.294 0.379-0.053 0.070-0.133 0.113-0.182 0.188-0.042 0.062-0.072 0.136-0.117 0.201-0.174 0.247-0.395 0.474-0.582 0.702-0.065 0.078-0.107 0.179-0.186 0.244-0.112 0.090-0.275 0.152-0.407 0.203-0.207 0.077-0.407 0.165-0.612 0.244-0.175 0.066-0.361 0.094-0.539 0.16-0.596 0.226-1.22 0.331-1.815 0.542-0.157 0.056-0.33 0.040-0.483 0.105-0.118 0.049-0.212 0.084-0.339 0.11-0.114 0.023-0.244 0.075-0.356 0.113-0.081 0.029-0.161 0.056-0.244 0.075-0.11 0.026-0.204 0.042-0.242 0.181 0.173 0.055 0.442 0.008 0.618 0.008 0.192 0 0.352-0.005 0.537-0.040 0.221-0.043 0.446-0.049 0.667-0.079 0.21-0.029 0.381-0.123 0.582-0.179 0.136-0.038 0.277-0.097 0.417-0.121 0.055-0.009 0.122-0.005 0.174-0.022 0.057-0.019 0.104-0.070 0.161-0.087 0.139-0.043 0.32-0.012 0.463-0.038 0.118-0.022 0.238-0.030 0.352-0.082 0.174-0.078 0.36-0.198 0.537-0.242 0.105-0.027 0.208-0.021 0.325-0.026 0.072-0.004 0.096-0.036 0.16-0.047 0.107-0.018 0.142 0.038 0.205 0.123 0.104 0.14 0.16 0.227 0.227 0.381 0.057 0.129 0.126 0.236 0.204 0.351 0.072 0.107 0.177 0.21 0.23 0.322 0.044 0.092 0.159 0.421 0.261 0.396 0.075-0.355-0.062-0.711-0.152-1.041-0.081-0.292-0.2-0.518-0.326-0.784-0.178-0.372 0.105-0.711 0.216-1.059 0.031-0.099 0.078-0.208 0.097-0.308 0.016-0.075-0.006-0.157 0.021-0.227 0.030-0.036 0.058-0.072 0.088-0.108 0.008-0.036 0.016-0.073 0.022-0.108 0.026-0.077 0.087-0.134 0.312-0.433z"></path>
<path d="M10.294 15.214c0.014-0.003 0.030-0.007 0.044-0.009 0.073-0.197-0.040-0.499-0.152-0.661-0.057-0.083-0.105-0.152-0.135-0.248-0.034-0.104-0.003-0.249-0.069-0.35-0.062 0.079 0.092 0.249 0.097 0.35 0.007 0.146-0.030 0.314 0.003 0.455 0.008 0.031 0.040 0.033 0.045 0.064s-0.005 0.074 0.003 0.105c0.017 0.058 0.045 0.097 0.058 0.159 0.017 0.090-0.012 0.153 0.029 0.244 0.047 0.103 0.064 0.155 0.086 0.261 0.016 0.003 0.030 0.007 0.045 0.009z"></path>
<path d="M9.051 16.672c-0.157 0-0.285 0.004-0.433 0.042-0.082 0.022-0.16 0-0.243 0.010-0.077 0.010-0.139 0.047-0.216 0.057-0.149 0.021-0.285 0.077-0.431 0.112-0.082 0.019-0.129 0.051-0.217 0.051-0.122-0.001-0.112-0.014-0.187-0.108-0.060-0.077-0.127-0.129-0.153-0.229-0.025-0.099-0.004-0.182-0.049-0.274-0.075-0.149-0.131-0.308-0.177-0.473-0.048-0.172-0.147-0.313-0.21-0.466-0.032-0.079-0.026-0.178-0.066-0.256-0.027-0.055-0.072-0.11-0.104-0.166 0.004 0.191-0.012 0.363 0.049 0.539 0.058 0.169 0.065 0.351 0.125 0.513 0.031 0.088 0.114 0.181 0.152 0.273 0.035 0.088 0.056 0.178 0.094 0.27 0.032 0.082 0.101 0.153 0.12 0.24 0.009 0.045-0.009 0.095 0 0.138 0.009 0.038 0.044 0.047 0.053 0.081 0.044 0.186-0.082 0.489 0.223 0.348 0.164-0.075 0.261-0.187 0.407-0.299 0.069-0.055 0.174-0.092 0.249-0.12 0.090-0.031 0.17-0.077 0.259-0.109 0.169-0.062 0.356-0.107 0.531-0.129 0.003-0.016 0.005-0.030 0.225-0.045z"></path>
<path d="M9.699 17.861c-0.118 0.236-0.301 0.476-0.486 0.676-0.087 0.095-0.168 0.182-0.231 0.296-0.035 0.066-0.056 0.147-0.105 0.204-0.048 0.056-0.114 0.057-0.1 0.156 0.186-0.173 0.364-0.344 0.556-0.508 0.052-0.044 0.114-0.065 0.166-0.107 0.039-0.031 0.051-0.079 0.091-0.113 0.033-0.005 0.065-0.012 0.097-0.019 0.018-0.035 0.039-0.069 0.064-0.1 0.039-0.040 0.112-0.088 0.164-0.107z"></path>
<path d="M20.178 17.051c-0.045 0.234 0.292 0.22 0.43 0.281 0.133 0.060 0.239 0.118 0.383 0.153 0.12 0.029 0.259 0.036 0.378 0.078 0.188 0.065 0.35 0.175 0.537 0.244 0.231 0.084 0.45 0.17 0.69 0.23 0.174 0.043 0.363 0.133 0.526 0.201 0.139 0.060 0.281 0.159 0.416 0.204 0.101 0.035 0.142 0.038 0.234 0.1 0.086 0.057 0.217 0.091 0.305 0.116 0.156 0.042 0.382 0.049 0.498 0.166-0.112-0.060-0.231-0.088-0.346-0.139-0.095-0.040-0.196-0.096-0.298-0.117-0.096-0.021-0.201 0.014-0.298-0.003-0.104-0.018-0.208-0.048-0.312-0.069-0.023-0.005-0.056-0.038-0.091-0.044-0.052-0.009-0.108 0.006-0.16-0.003-0.058-0.010-0.148-0.081-0.205-0.091-0.12-0.023-0.231-0.022-0.353-0.053-0.105-0.026-0.208-0.045-0.309-0.073-0.118-0.030-0.192-0.097-0.296-0.145-0.123-0.056-0.277-0.042-0.401-0.070-0.187-0.042-0.35-0.199-0.53-0.252-0.113-0.034-0.17-0.043-0.273-0.121-0.069-0.051-0.121-0.127-0.198-0.175-0.109-0.066-0.209-0.077-0.327-0.107-0.060-0.014-0.095-0.040-0.162-0.043-0.055-0.003-0.101 0.010-0.156-0.006-0.018-0.127 0.138-0.159 0.318-0.262z"></path>
<path d="M22.392 18.185c0.134-0.179 0.205-0.437 0.285-0.651 0.072-0.194 0.17-0.352 0.231-0.539 0.066-0.209 0.040-0.418 0.126-0.621 0.077-0.183 0.12-0.386 0.236-0.565 0.122 0.064 0.022 0.33-0.003 0.434-0.023 0.105-0.009 0.204-0.051 0.311-0.045 0.117-0.055 0.244-0.108 0.351-0.051 0.1-0.066 0.174-0.095 0.282-0.023 0.086-0.056 0.166-0.082 0.243-0.027 0.079-0.045 0.157-0.079 0.243-0.044 0.105-0.090 0.208-0.138 0.309-0.057 0.122-0.065 0.261-0.323 0.204z"></path>
<path d="M21.042 17.969c-0.143 0.117-0.165 0.265-0.269 0.408-0.074 0.103-0.155 0.191-0.218 0.296-0.060 0.1-0.23 0.298-0.207 0.426 0.056-0.009 0.12-0.12 0.152-0.169 0.065-0.099 0.161-0.192 0.213-0.285 0.049-0.086 0.058-0.139 0.139-0.218 0.074-0.073 0.17-0.145 0.225-0.234l-0.035-0.009z"></path>
<path d="M21.096 12.135c0.425 0 0.816 0.026 1.23 0.096 0.175 0.030 0.307 0.031 0.47 0.091 0.129 0.047 0.196 0.083 0.339 0.084 0.116 0.001 0.248-0.021 0.36 0.003 0.092 0.021 0.144 0.052 0.244 0.051 0.122-0.001 0.261-0.022 0.379 0.008 0.138 0.035 0.225 0.091 0.368 0.099 0.091 0.007 0.168 0.029 0.255 0.061 0.090 0.034 0.145 0.049 0.243 0.048 0.117-0.004 0.125 0.035 0.213 0.056 0.079 0.019 0.177-0.013 0.257-0.005 0.113 0.012 0.207 0.072 0.322 0.057-0.408 0.001-0.816 0-1.225 0-0.203 0-0.404 0.021-0.594-0.042-0.090-0.029-0.177-0.064-0.27-0.068-0.116-0.007-0.187-0.023-0.298-0.048-0.082-0.019-0.165-0.012-0.242-0.033-0.079-0.021-0.152-0.027-0.244-0.026-0.213 0-0.427-0.001-0.642-0.001-0.262 0.003-0.495-0.103-0.752-0.109-0.091-0.003-0.19 0.016-0.279 0.004-0.148-0.018-0.136-0.084-0.135-0.326z"></path>
<path d="M22.77 12.622c0.006-0.129 0.198-0.233 0.279-0.313 0.138-0.138 0.281-0.249 0.424-0.377 0.179-0.16 0.379-0.257 0.582-0.392 0.186-0.123 0.373-0.234 0.561-0.361 0.172-0.116 0.337-0.23 0.506-0.346-0.117 0.014-0.218 0.079-0.327 0.117-0.1 0.033-0.207 0.043-0.3 0.091-0.101 0.053-0.194 0.126-0.288 0.175-0.123 0.064-0.253 0.122-0.382 0.178-0.116 0.051-0.24 0.069-0.355 0.134-0.092 0.053-0.174 0.108-0.269 0.165-0.035 0.023-0.091 0.040-0.127 0.061-0.090 0.051-0.172 0.127-0.265 0.17-0.121 0.056-0.248 0.065-0.364 0.131-0.072 0.040-0.179 0.16 0.326 0.567z"></path>
<path d="M13.858 7.005c-0.203 0.005-0.392-0.064-0.579-0.109-0.122-0.031-0.255-0.031-0.381-0.049-0.12-0.019-0.218-0.087-0.334-0.118-0.12-0.032-0.229-0.052-0.339-0.101-0.101-0.045-0.183-0.030-0.279-0.058-0.084-0.025-0.183-0.112-0.277-0.146-0.139-0.051-0.275-0.088-0.418-0.12-0.101-0.022-0.182-0.047-0.285-0.052-0.142-0.008-0.227-0.084-0.357-0.113-0.064-0.014-0.142 0.004-0.208-0.008-0.084-0.016-0.139-0.048-0.213-0.073-0.081-0.026-0.142-0.039-0.218-0.079-0.109-0.057-0.147-0.044-0.27-0.052-0.101-0.006-0.188-0.049-0.292-0.057-0.091-0.006-0.112-0.036-0.191-0.056-0.072-0.017-0.172 0.003-0.246 0.004 0.199-0.005 0.383 0.034 0.543 0.14 0.125 0.084 0.266 0.094 0.405 0.142 0.113 0.039 0.208 0.11 0.321 0.149 0.2 0.070 0.342 0.22 0.52 0.32 0.173 0.097 0.374 0.12 0.561 0.165 0.162 0.039 0.32 0.082 0.482 0.113 0.061 0.010 0.126-0.013 0.187-0.005 0.055 0.005 0.088 0.030 0.138 0.044 0.099 0.027 0.2-0.005 0.299 0.016 0.188 0.040 0.391 0.118 0.568 0.197 0.183 0.081 0.339 0.069 0.864-0.094z"></path>
</svg>
