<!-- Generated by IcoMoon.io -->
<svg version="1.1" xmlns="http://www.w3.org/2000/svg" width="31" height="32" viewBox="0 0 31 32">
<path d="M5.129 17.872c0.004 0.046-0.011 0.084 0.005 0.129 0.061 0.177 0.183 0.322 0.295 0.472 0.024 0.034 0.035 0.072 0.058 0.105 0.035 0.048 0.102 0.064 0.144 0.106 0.045 0.043 0.042 0.092 0.034 0.152-0.008 0.063-0.027 0.056-0.067 0.096-0.033 0.033-0.061 0.063-0.098 0.094-0.057 0.048-0.048 0.053-0.029 0.113 0.020 0.072 0.046 0.169 0.096 0.227 0.033 0.037 0.084 0.053 0.124 0.086 0.033 0.026 0.050 0.056 0.073 0.086 0.050 0.068 0.106 0.11 0.182 0.156 0.035 0.022 0.050 0.048 0.080 0.072 0.038 0.031 0.091 0.037 0.128 0.071 0.024 0.023 0.031 0.042 0.064 0.064 0.027 0.018 0.065 0.035 0.087 0.057 0.144 0.141 0.311 0.3 0.51 0.393 0.143 0.065 0.235-0.018 0.357-0.086 0.092-0.052 0.158-0.128 0.245-0.186 0.061-0.042 0.125-0.080 0.179-0.128 0.034-0.031 0.061-0.071 0.101-0.098 0.031-0.022 0.069-0.034 0.102-0.057 0.065-0.048 0.107-0.11 0.166-0.158 0.039-0.031 0.086-0.046 0.129-0.071 0.050-0.029 0.084-0.067 0.144-0.075 0.086-0.012 0.136 0.041 0.205 0.067 0.114 0.043 0.257 0.079 0.38 0.099 0.14 0.024 0.273 0.065 0.406 0.107 0.155 0.048 0.311 0.099 0.476 0.122 0.072 0.011 0.154-0.010 0.22 0.007 0.045 0.011 0.082 0.039 0.125 0.053 0.084 0.026 0.175 0.042 0.261 0.060 0.065 0.012 0.121 0.039 0.186 0.053 0.075 0.016 0.149 0.030 0.226 0.046 0.094 0.020 0.216-0.003 0.296 0.050 0.095 0.060 0.135 0.163 0.169 0.254 0.019 0.048 0.041 0.084 0.064 0.129 0.020 0.037 0.008 0.083 0.027 0.117 0.043 0.082 0.144-0.008 0.207-0.038 0.105-0.050 0.217-0.096 0.315-0.158 0.086-0.053 0.164-0.073 0.258-0.109 0.086-0.031 0.158-0.086 0.242-0.117 0.116-0.043 0.23-0.087 0.341-0.137 0.098-0.043 0.192-0.092 0.294-0.132 0.092-0.035 0.181-0.082 0.28-0.073 0.043-0.080-0.008-0.113-0.071-0.114-0.058-0.003-0.118 0-0.177 0-0.156 0-0.308 0.007-0.457-0.022-0.182-0.035-0.406-0.008-0.598-0.007-0.084 0.001-0.156-0.015-0.238-0.026-0.094-0.012-0.198-0.003-0.295-0.003-0.496 0-0.992 0.008-1.487 0.001-0.158-0.003-0.307-0.031-0.467-0.030-0.105 0.001-0.173-0.033-0.269-0.053-0.068-0.015-0.124-0.037-0.188-0.054-0.072-0.019-0.129-0.015-0.198-0.049-0.11-0.052-0.238-0.075-0.353-0.125-0.118-0.052-0.254-0.072-0.371-0.129-0.122-0.060-0.26-0.092-0.387-0.144-0.23-0.092-0.42-0.247-0.658-0.327-0.125-0.041-0.246-0.050-0.356-0.113-0.137-0.079-0.315-0.116-0.469-0.171-0.159-0.058-0.294-0.126-0.432-0.213-0.109-0.067-0.208-0.2-0.276-0.3-0.063-0.092-0.111-0.189-0.169-0.284-0.058-0.102-0.092-0.207-0.141-0.313-0.084-0.003-0.087 0.231-0.083 0.279 0.004 0.064 0.045 0.114 0.050 0.177z"></path>
<path d="M15.929 18.828c0.014-0.008 0.026-0.018 0.039-0.027l-0.406 0.181c0.121 0.029 0.27-0.092 0.367-0.154z"></path>
<path d="M5.712 17.111c0.096 0.117 0.205 0.136 0.349 0.201 0.122 0.054 0.262 0.083 0.4 0.105 0.117 0.019 0.234 0.042 0.349 0.065 0.082 0.016 0.151 0.046 0.235 0.050 0.152 0.005 0.307 0.001 0.459-0.035 0.072-0.018 0.14-0.039 0.212-0.057 0.075-0.018 0.162-0.035 0.235-0.057 0.071-0.022 0.139-0.064 0.205-0.092 0.087-0.038 0.179-0.064 0.268-0.099 0.106-0.042 0.216-0.087 0.317-0.143 0.099-0.054 0.17-0.139 0.261-0.204 0.124-0.088 0.247-0.17 0.366-0.265 0.128-0.105 0.249-0.217 0.364-0.332 0.035-0.033 0.056-0.082 0.087-0.113 0.043-0.042 0.136-0.072 0.194-0.082 0.121-0.019 0.186 0.035 0.291 0.076 0.132 0.050 0.245 0.11 0.351 0.194 0.098 0.079 0.126 0.188 0.167 0.296 0.029 0.076 0.069 0.147 0.098 0.223 0.019 0.054 0.030 0.107 0.048 0.163 0.033 0.103 0.067 0.215 0.126 0.306 0.080 0.124 0.227 0.226 0.334 0.329 0.121 0.114 0.239 0.262 0.436 0.26 0.179-0.001 0.314-0.060 0.48-0.126 0.133-0.054 0.249-0.136 0.376-0.202 0.088-0.046 0.175-0.092 0.27-0.128 0.048-0.016 0.124-0.060 0.175-0.058 0.052-0.12-0.016-0.186-0.075-0.279-0.034-0.053-0.079-0.102-0.109-0.156-0.027-0.052-0.022-0.107-0.043-0.159-0.037-0.091-0.057-0.182-0.083-0.274-0.029-0.107-0.048-0.212-0.038-0.322 0.008-0.086 0.007-0.16 0.053-0.241 0.053-0.092 0.156-0.178 0.241-0.251 0.056-0.049 0.129-0.091 0.182-0.14 0.069-0.064 0.143-0.164 0.257-0.133 0.099 0.027 0.171 0.144 0.213 0.217 0.030 0.053 0.071 0.094 0.101 0.148 0.037 0.068 0.080 0.133 0.12 0.2 0.037 0.061 0.088 0.111 0.126 0.171 0.048 0.073 0.073 0.156 0.125 0.23 0.077 0.109 0.149 0.211 0.222 0.321 0.087 0.135 0.122 0.3 0.239 0.417 0.042 0.042 0.109 0.083 0.167 0.106 0.031 0.012 0.073 0.016 0.106 0.023 0.064 0.016 0.125 0.053 0.186 0.065 0.132 0.026 0.333 0.020 0.472 0 0.209-0.033 0.327-0.166 0.481-0.281 0.111-0.086 0.188-0.171 0.273-0.276 0.095-0.118 0.194-0.216 0.246-0.353 0.050-0.13 0.158-0.234 0.253-0.34 0.107-0.121 0.241-0.231 0.462-0.51 0.001-0.086-0.151 0.037-0.183 0.054-0.076 0.039-0.154 0.068-0.235 0.102-0.164 0.071-0.338 0.126-0.515 0.155-0.039 0.005-0.076-0.003-0.114 0.004-0.043 0.008-0.071 0.024-0.116 0.027-0.103 0.005-0.192 0-0.292 0.022-0.084 0.018-0.201 0.015-0.285 0.007-0.14-0.012-0.205-0.090-0.318-0.143-0.103-0.049-0.197-0.107-0.292-0.167-0.086-0.054-0.182-0.101-0.262-0.156-0.052-0.035-0.090-0.080-0.139-0.118-0.071-0.053-0.154-0.105-0.209-0.171-0.088-0.103-0.19-0.197-0.284-0.298-0.109-0.114-0.197-0.224-0.295-0.341-0.103-0.125-0.201-0.241-0.277-0.385-0.064-0.122-0.111-0.255-0.178-0.372-0.038-0.065-0.048-0.144-0.087-0.212-0.019-0.031-0.043-0.048-0.052-0.084-0.003-0.014 0.008-0.027 0.004-0.042-0.008-0.029-0.035-0.043-0.050-0.069-0.073-0.126-0.133-0.258-0.175-0.4-0.043-0.145-0.071-0.287-0.139-0.427-0.030-0.061-0.041-0.129-0.077-0.186-0.037-0.058-0.042-0.106-0.067-0.173-0.022-0.060-0.034-0.117-0.057-0.175-0.023-0.053-0.027-0.118-0.049-0.178-0.016-0.042-0.056-0.077-0.080-0.113-0.039-0.057-0.058-0.139-0.114-0.188-0.042-0.038-0.095-0.041-0.151-0.030-0.050-0.12-0.103-0.238-0.101-0.367 0.003-0.12-0.064-0.223-0.101-0.336-0.042-0.126-0.12-0.242-0.163-0.368-0.033-0.101-0.102-0.202-0.126-0.304-0.027-0.113-0.046-0.232-0.068-0.345-0.016-0.090-0.054-0.169-0.048-0.273 0.004-0.065-0.024-0.102-0.030-0.159-0.007-0.057 0.022-0.121 0.018-0.178-0.003-0.050-0.026-0.060-0.034-0.103-0.005-0.030 0.014-0.063 0.011-0.091-0.003-0.034-0.019-0.057-0.026-0.088-0.010-0.048 0.004-0.094-0.005-0.141-0.010-0.049-0.041-0.107-0.050-0.149-0.019-0.098-0.035-0.167-0.026-0.276 0.011-0.109-0.026-0.174-0.016-0.283 0.012-0.113-0.023-0.204-0.012-0.318 0.010-0.111 0.019-0.224 0.029-0.337 0.018-0.217 0.037-0.436 0.054-0.654 0.037-0.424 0.072-0.849 0.109-1.273 0.008-0.094 0.045-0.223 0.016-0.311-0.001-0.007-0.007-0.011-0.010-0.016 0.063 0.004 0.128 0.004 0.159-0.014 0.041-0.022 0.053-0.118 0.060-0.154 0.008-0.043 0.023-0.071 0.038-0.111 0.016-0.045 0.034-0.088 0.050-0.133 0.077-0.057 0.164-0.105 0.245-0.154 0.167-0.101 0.325-0.183 0.499-0.284 0.042-0.024 0.069-0.065 0.107-0.090 0.018-0.012 0.043-0.005 0.063-0.015 0.073-0.041 0.148-0.084 0.223-0.125 0.082-0.045 0.167-0.080 0.25-0.122 0.082-0.042 0.154-0.102 0.245-0.128 0.169-0.048 0.317-0.137 0.497-0.174 0.243-0.050 0.455-0.181 0.708-0.186 0.162-0.003 0.323 0 0.485 0 0.181 0 0.386-0.023 0.563-0.001 0.096 0.011 0.189 0.043 0.279 0.064 0.065 0.015 0.132 0.004 0.201 0.007 0.098 0.005 0.174 0.037 0.279 0.037 0.094 0 0.189-0.001 0.283 0 0.077 0.001 0.125 0.023 0.197 0.037 0.035 0.007 0.083-0.003 0.12-0.003 0.063 0.003 0.105 0.019 0.163 0.029 0.155 0.026 0.299 0.071 0.438 0.143 0.133 0.068 0.27 0.118 0.368 0.227 0.004 0.020 0.007 0.041 0.010 0.063 0.018 0.024 0.037 0.049 0.057 0.073 0.018 0.022 0.034 0.045 0.052 0.067 0.053 0.065 0.114 0.118 0.181 0.173 0.095 0.076 0.197 0.147 0.303 0.209 0.038 0.023 0.072 0.049 0.106 0.073 0 0 0 0 0.001 0.001 0.095 0.121 0.209 0.215 0.285 0.349 0.037 0.065 0.072 0.12 0.12 0.178 0.095 0.116 0.185 0.249 0.251 0.38 0.048 0.094 0.095 0.188 0.132 0.285 0.020 0.057 0.039 0.113 0.067 0.167 0.037 0.077 0.038 0.149 0.061 0.231 0.027 0.101 0.075 0.188 0.105 0.287 0.039 0.139 0.067 0.28 0.111 0.414 0.073 0.212 0.079 0.447 0.088 0.665 0.004 0.111 0.048 0.231 0.069 0.341 0.019 0.098 0.016 0.185 0.008 0.285-0.014 0.16-0.027 0.322-0.042 0.484-0.034 0.409-0.069 0.819-0.103 1.228-0.011 0.122-0.020 0.243-0.031 0.366-0.007 0.088-0.026 0.152-0.050 0.238-0.043 0.151-0.004 0.295-0.079 0.443-0.204 0.398-0.341 0.802-0.525 1.203-0.052 0.114-0.087 0.228-0.133 0.344-0.034 0.083-0.052 0.145-0.068 0.23-0.007 0.034-0.023 0.067-0.041 0.098-0.116 0.215-0.192 0.439-0.303 0.655-0.075 0.144-0.125 0.306-0.215 0.443-0.064 0.096-0.125 0.19-0.177 0.291-0.11 0.217-0.277 0.424-0.352 0.65-0.019 0.060-0.037 0.198-0.010 0.255 0.018 0.033 0.046 0.041 0.069 0.068 0.027 0.033 0.045 0.075 0.072 0.109 0.094 0.116 0.226 0.207 0.341 0.302 0.063 0.052 0.121 0.114 0.173 0.177 0.048 0.057 0.060 0.133 0.092 0.197 0.035 0.072 0.073 0.14 0.113 0.211 0.041 0.075 0.026 0.155 0.019 0.236-0.004 0.056-0.010 0.098-0.029 0.149-0.011 0.031-0.010 0.072-0.022 0.101-0.023 0.054-0.107 0.086-0.155 0.116-0.144 0.094-0.311 0.182-0.457 0.289-0.175 0.128-0.329 0.289-0.514 0.401-0.080 0.049-0.148 0.117-0.224 0.169-0.043 0.029-0.083 0.060-0.124 0.094-0.109 0.090-0.217 0.177-0.326 0.266-0.136 0.114-0.307 0.163-0.447 0.27-0.063 0.048-0.105 0.118-0.173 0.159-0.042 0.024-0.080 0.030-0.12 0.058-0.126 0.090-0.258 0.183-0.393 0.272l0.234-0.105c0.446-0.33 0.932-0.609 1.415-0.891 0.264-0.154 0.546-0.311 0.837-0.419 0.198-0.075 0.385-0.084 0.59-0.083 0.19 0.001 0.38 0.003 0.571 0 0.219-0.004 0.405 0.063 0.598 0.135 0.090 0.033 0.167 0.092 0.239 0.149 0.057 0.045 0.092 0.111 0.16 0.144 0.061 0.014 0.12 0.033 0.174 0.060 0.035 0.029 0.063 0.063 0.079 0.101 0.064 0.082 0.186 0.137 0.269 0.198 0.347 0.251 0.599 0.643 1.086 0.716 0.147 0.022 0.325 0.012 0.476 0.005 0.058-0.003 0.039 0.001 0.079-0.019 0.113-0.053 0.19-0.241 0.234-0.332 0.039-0.083 0.073-0.154 0.063-0.241-0.010-0.067-0.019-0.114-0.011-0.182 0.014-0.124-0.010-0.242-0.003-0.366 0.003-0.091 0.034-0.189 0.019-0.279-0.018-0.050-0.030-0.101-0.038-0.152 0.004-0.073-0.007-0.145-0.030-0.213-0.019-0.050-0.041-0.084-0.048-0.139-0.034-0.265-0.122-0.526-0.2-0.781-0.043-0.143-0.135-0.265-0.17-0.41-0.019-0.077-0.054-0.13-0.080-0.202-0.019-0.053-0.003-0.094 0-0.148 0.004-0.056-0.007-0.101-0.012-0.155-0.007-0.057 0.008-0.111 0.001-0.167-0.011-0.094-0.039-0.201-0.076-0.288-0.023-0.053-0.057-0.101-0.069-0.158-0.011-0.057-0.007-0.114-0.020-0.174-0.057-0.239-0.163-0.474-0.241-0.708-0.064-0.192-0.2-0.353-0.266-0.541-0.033-0.095-0.053-0.201-0.045-0.303 0.005-0.067 0.016-0.139-0.004-0.204-0.018-0.057-0.071-0.092-0.088-0.151-0.103-0.34-0.26-0.667-0.409-0.992-0.054-0.117-0.126-0.234-0.166-0.355-0.049-0.151-0.038-0.294-0.024-0.451 0.034-0.379 0.064-0.758 0.096-1.137 0.014-0.158 0.034-0.318 0.042-0.476 0.010-0.182-0.004-0.361 0.012-0.545 0.038-0.447 0.053-0.896 0.049-1.34-0.001-0.205-0.023-0.412-0.037-0.617-0.014-0.204-0.084-0.391-0.113-0.591-0.015-0.101-0.043-0.183-0.083-0.277-0.022-0.050-0.020-0.106-0.048-0.154-0.033-0.060-0.088-0.103-0.12-0.164-0.027-0.052-0.053-0.109-0.075-0.162-0.048-0.121-0.101-0.241-0.17-0.355-0.103-0.169-0.162-0.356-0.257-0.53-0.103-0.188-0.188-0.39-0.258-0.59-0.065-0.183-0.147-0.355-0.194-0.542-0.018-0.072-0.088-0.128-0.132-0.188-0.052-0.071-0.098-0.147-0.137-0.224-0.048-0.098-0.080-0.125-0.177-0.19-0.094-0.063-0.189-0.11-0.291-0.163-0.054-0.027-0.111-0.038-0.166-0.063-0.065-0.029-0.109-0.065-0.181-0.086-0.224-0.061-0.435-0.17-0.666-0.216-0.106-0.022-0.2-0.060-0.306-0.084-0.143-0.034-0.311-0.043-0.443-0.098-0.065-0.026-0.118-0.060-0.197-0.082-0.063-0.016-0.132-0.015-0.192-0.033-0.169-0.048-0.322-0.11-0.48-0.177-0.096-0.041-0.219-0.060-0.308-0.107-0.031-0.018-0.053-0.042-0.087-0.058-0.087-0.041-0.169-0.080-0.251-0.128-0.084-0.049-0.143-0.099-0.235-0.14-0.113-0.052-0.227-0.156-0.352-0.181-0.079-0.016-0.189 0.001-0.272 0.001-0.088 0-0.188-0.012-0.276-0.001-0.087 0.010-0.171 0.052-0.258 0.060-0.088 0.008-0.173 0.008-0.261 0.033-0.069 0.019-0.129 0.063-0.202 0.073-0.043 0.008-0.084 0.005-0.128 0.012-0.126 0.019-0.255 0.075-0.376 0.114-0.102 0.033-0.22 0.083-0.31 0.143-0.092 0.061-0.183 0.082-0.26 0.164-0.098 0.106-0.212 0.197-0.31 0.306-0.087 0.098-0.202 0.173-0.281 0.277s-0.188 0.193-0.273 0.296c-0.090 0.107-0.181 0.205-0.254 0.321-0.053 0.083-0.121 0.145-0.154 0.236-0.018 0.050-0.033 0.086-0.065 0.129-0.049 0.064-0.080 0.126-0.114 0.198-0.067 0.137-0.145 0.283-0.192 0.425-0.019 0.058-0.019 0.094-0.050 0.149-0.023 0.037-0.053 0.072-0.068 0.111-0.048 0.117-0.072 0.224-0.136 0.337-0.054 0.098-0.071 0.208-0.122 0.307-0.049 0.096-0.111 0.2-0.141 0.303-0.033-0.003-0.065-0.003-0.086 0.010-0.072 0.043-0.061 0.149-0.067 0.209-0.007 0.073-0.035 0.106-0.057 0.175-0.010 0.029-0.011 0.064-0.011 0.098-0.057 0.068-0.132 0.128-0.174 0.202-0.030 0.053-0.035 0.12-0.056 0.175-0.020 0.053-0.049 0.105-0.064 0.159-0.022 0.076-0.016 0.152-0.034 0.228-0.018 0.079-0.041 0.155-0.046 0.234-0.001-0.042 0.034-0.075 0.046-0.116 0.020-0.077 0.008-0.147 0.041-0.226 0.052-0.128 0.098-0.253 0.17-0.375 0.033-0.056 0.068-0.111 0.107-0.167-0.016 0.113-0.050 0.227-0.084 0.334-0.077 0.239-0.064 0.516-0.086 0.762-0.026 0.315-0.114 0.678-0.034 0.982 0.014 0.052 0.043 0.094 0.054 0.145-0.001 0.024-0.001 0.049 0.001 0.075-0.005 0.056-0.016 0.11-0.014 0.166 0.007 0.082 0.026 0.148 0.018 0.23-0.008 0.083-0.001 0.141 0.014 0.215 0.022 0.106-0.011 0.241-0.020 0.352-0.016 0.181-0.031 0.361-0.046 0.541s0.014 0.348-0.004 0.525c-0.024 0.249-0.001 0.467 0.063 0.692-0.001 0.004-0.001 0.008-0.001 0.012-0.011 0.106 0.020 0.194 0.041 0.294-0.001 0-0.001-0.001-0.001-0.001-0.065 0.061-0.038 0.193-0.005 0.295-0.004 0.050-0.007 0.101 0.004 0.149 0.033 0.136-0.016 0.285-0.018 0.428-0.003 0.102 0.024 0.197 0.018 0.3-0.011 0.147-0.026 0.295-0.039 0.442-0.023 0.279-0.046 0.556-0.071 0.834-0.086 0.117-0.162 0.239-0.26 0.351-0.080 0.092-0.148 0.173-0.212 0.273-0.080 0.122-0.232 0.234-0.367 0.308-0.061 0.034-0.117 0.063-0.178 0.098-0.126 0.075-0.243 0.162-0.382 0.222-0.118 0.050-0.253 0.073-0.376 0.111-0.069 0.022-0.107 0.035-0.167 0.069-0.075 0.042-0.166 0.057-0.234 0.105-0.122 0.086-0.276 0.137-0.421 0.194-0.122 0.049-0.241 0.096-0.355 0.16-0.135 0.075-0.272 0.135-0.414 0.197-0.129 0.056-0.25 0.133-0.376 0.198-0.084 0.043-0.145 0.060-0.236 0.086-0.154 0.045-0.213 0.173-0.348 0.232-0.090 0.041-0.17 0.065-0.25 0.122-0.117 0.082-0.145 0.22-0.193 0.337-0.046 0.113-0.034 0.247-0.045 0.366-0.005 0.053-0.023 0.116 0.004 0.163 0.029 0.050 0.094 0.090 0.132 0.136z"></path>
<path d="M25.944 20.105c-0.090-0.084-0.178-0.171-0.288-0.236-0.042-0.024-0.095-0.031-0.139-0.050-0.071-0.031-0.137-0.046-0.216-0.061-0.14-0.029-0.302-0.039-0.435-0.082-0.054-0.018-0.090-0.039-0.151-0.041-0.053-0.003-0.103 0.001-0.155-0.004-0.107-0.012-0.226-0.061-0.337-0.052l-0.652 0.057c0.193 0.086 0.405 0.124 0.588 0.227 0.139 0.079 0.274 0.164 0.408 0.249 0.137 0.087 0.276 0.162 0.397 0.264 0.096 0.082 0.226 0.132 0.307 0.228 0.057 0.067 0.096 0.116 0.171 0.169 0.116 0.084 0.231 0.171 0.344 0.258 0.065 0.049 0.136 0.111 0.211 0.149 0.053 0.026 0.178 0.035 0.19 0.096-0.003-0.232 0.053-0.469 0.058-0.703 0.004-0.171-0.177-0.352-0.302-0.469z"></path>
<path d="M25.937 23.064c-0.034-0.105-0.079-0.196-0.13-0.294-0.065-0.122-0.109-0.25-0.17-0.376-0.065-0.133-0.154-0.25-0.223-0.38-0.060-0.114-0.169-0.19-0.279-0.272-0.105-0.077-0.216-0.133-0.33-0.198-0.076-0.043-0.159-0.083-0.22-0.143-0.067-0.065-0.116-0.143-0.183-0.209-0.072-0.071-0.156-0.102-0.235-0.162-0.057-0.042-0.106-0.080-0.156-0.129-0.039-0.038-0.080-0.099-0.149-0.099 0.23 0.549 0.363 0.737 0.439 0.932 0.037 0.094 0.096 0.179 0.124 0.276 0.042 0.141 0.087 0.285 0.122 0.428 0.022 0.092 0.061 0.159 0.113 0.239 0.048 0.073 0.068 0.144 0.092 0.227 0.031 0.102 0.039 0.208 0.072 0.31 0.026 0.077 0.052 0.164 0.068 0.245 0.024 0.121 0.068 0.25 0.071 0.374 0.003 0.144 0.015 0.266 0.050 0.405 0.019 0.073 0.020 0.155 0.042 0.227 0.018 0.061 0.067 0.111 0.088 0.17 0.020 0.056 0.012 0.121 0.029 0.177 0.016 0.065 0.057 0.122 0.077 0.186 0.020 0.063 0.018 0.129 0.035 0.192 0.024 0.092 0.087 0.173 0.121 0.262 0.049 0.132 0.102 0.262 0.148 0.397 0.042 0.121 0.076 0.242 0.164 0.342 0.049 0.056 0.092 0.105 0.129 0.169 0.026 0.048 0.037 0.11 0.096 0.132 0.065-0.079 0.046-0.221 0.054-0.314 0.010-0.139 0.053-0.274 0.068-0.413 0.022-0.2 0.033-0.401 0.050-0.602 0.014-0.17-0.003-0.334 0.008-0.504 0.011-0.159 0.029-0.319 0.042-0.478 0.005-0.069 0.016-0.14 0.019-0.208 0.005-0.109 0.014-0.247-0.011-0.352-0.045-0.192-0.175-0.366-0.236-0.554z"></path>
<path d="M28.855 24.552c0-0.053-0.018-0.095-0.030-0.145-0.018-0.076-0.007-0.135-0.003-0.212 0.003-0.072-0.029-0.12-0.053-0.185-0.026-0.071-0.024-0.149-0.041-0.223-0.029-0.125-0.072-0.246-0.102-0.371-0.049-0.211-0.082-0.431-0.156-0.635-0.079-0.215-0.19-0.416-0.253-0.635-0.068-0.234-0.192-0.458-0.274-0.688 0.011 0.092 0.024 0.189 0.016 0.281-0.011 0.101 0.022 0.179 0.034 0.276 0.010 0.065-0.015 0.129-0.004 0.194 0.012 0.071 0.042 0.128 0.043 0.204 0 0.151 0 0.318 0.031 0.465 0.035 0.17 0.038 0.342 0.065 0.515 0.012 0.080 0.045 0.159 0.053 0.241 0.007 0.068-0.007 0.14-0.014 0.209-0.033 0.356-0.060 0.712-0.090 1.068-0.011 0.122-0.003 0.258-0.037 0.379-0.084 0.287-0.173 0.576-0.264 0.862-0.072 0.221-0.137 0.451-0.179 0.677-0.019 0.101-0.026 0.2-0.052 0.299-0.030 0.11-0.063 0.217-0.076 0.329-0.029 0.234-0.020 0.469-0.072 0.703-0.023 0.107-0.043 0.213-0.067 0.321-0.029 0.128-0.091 0.253-0.11 0.382-0.020 0.135 0.004 0.255-0.072 0.382-0.038 0.065-0.122 0.211-0.204 0.232l0.645 0.029c0.053-0.091 0.111-0.151 0.182-0.228 0.058-0.063 0.125-0.126 0.162-0.198 0.102-0.205 0.181-0.421 0.26-0.635 0.045-0.118 0.098-0.243 0.128-0.363 0.020-0.086 0.018-0.173 0.026-0.258 0.015-0.158 0.076-0.317 0.103-0.474 0.030-0.186 0.043-0.371 0.080-0.557 0.023-0.125 0.090-0.238 0.125-0.36 0.037-0.122 0.027-0.258 0.037-0.382 0.029-0.332 0.063-0.66 0.141-0.988 0.041-0.169 0.018-0.342 0.019-0.51z"></path>
<path d="M5.149 23.020c0.001 0.030-0.012 0.061-0.012 0.091 0 0.058 0.027 0.105 0.046 0.158 0.037 0.106 0.050 0.219 0.069 0.326 0.014 0.075 0.041 0.136 0.056 0.207 0.019 0.091 0.042 0.178 0.067 0.268 0.061 0.236 0.117 0.481 0.166 0.719 0.026 0.132 0.016 0.272 0.367 0.337 0.011-0.126 0.022-0.251 0.033-0.378 0.004-0.054 0.008-0.109 0.014-0.163 0.001-0.018 0.007-0.041 0.005-0.057-0.001-0.030-0.016-0.042-0.020-0.063-0.022-0.116-0.069-0.223-0.117-0.336-0.034-0.082-0.043-0.173-0.075-0.255-0.029-0.073-0.027-0.154-0.045-0.231-0.016-0.069-0.038-0.124-0.049-0.194-0.023-0.151-0.014-0.306-0.020-0.458-0.004-0.087-0.016-0.166-0.008-0.254 0.007-0.076 0.012-0.152 0.019-0.228 0.012-0.143 0.046-0.298 0.039-0.439-0.005-0.107-0.041-0.212-0.039-0.322 0.001-0.101-0.023-0.205-0.035-0.306-0.007-0.046 0.007-0.083-0.016-0.129-0.015-0.031-0.038-0.060-0.056-0.090-0.024-0.042-0.058-0.105-0.113-0.111-0.087-0.012-0.186 0.105-0.228 0.159-0.057 0.073-0.101 0.211-0.121 0.302-0.041 0.177-0.030 0.374-0.045 0.552-0.005 0.052-0.018 0.107-0.015 0.158 0.003 0.077 0.043 0.144 0.048 0.223 0.011 0.171 0.082 0.341 0.087 0.516z"></path>
<path d="M4.673 24.784c-0.035-0.046-0.038-0.103-0.083-0.145-0.053-0.049-0.090-0.083-0.135-0.141-0.072-0.091-0.163-0.177-0.238-0.269-0.033-0.039-0.052-0.079-0.086-0.117-0.042-0.048-0.072-0.102-0.11-0.155-0.058-0.083-0.101-0.139-0.2-0.188-0.122-0.061-0.242-0.12-0.37-0.174-0.072-0.030-0.155-0.076-0.23-0.092-0.114-0.026-0.28 0.001-0.401 0.001-0.102 0-0.238-0.024-0.329 0.027-0.107 0.060-0.090 0.167-0.101 0.261-0.029 0.279 0.137 0.4 0.397 0.495 0.095 0.034 0.189 0.043 0.281 0.082 0.118 0.049 0.226 0.113 0.363 0.13 0.117 0.014 0.235 0.054 0.333 0.107 0.084 0.045 0.185 0.064 0.268 0.11 0.174 0.094 0.348 0.192 0.525 0.281 0.158 0.079 0.269 0.185 0.395 0.292 0.015 0.012 0.027 0.023 0.038 0.034-0.048-0.087-0.099-0.173-0.137-0.262-0.045-0.102-0.114-0.19-0.182-0.277z"></path>
<path d="M4.992 25.323c0.014 0.023 0.026 0.048 0.038 0.071-0.007-0.031-0.019-0.052-0.038-0.071z"></path>
<path d="M5.228 25.893c0.010-0.004 0.020-0.007 0.030-0.011 0.037-0.103-0.141-0.284-0.175-0.374-0.015-0.038-0.033-0.076-0.052-0.114 0.001 0.005 0.003 0.010 0.004 0.015 0.015 0.084-0.042 0.106 0.193 0.484z"></path>
<path d="M6.386 24.073c0.010-0.117 0.029-0.23 0.004-0.341-0.024-0.116-0.023-0.234-0.050-0.348-0.026-0.114-0.056-0.217-0.069-0.334-0.008-0.068-0.022-0.135-0.033-0.2-0.011-0.071 0.008-0.14-0.005-0.211-0.010-0.052-0.022-0.106-0.029-0.159-0.011-0.090 0.016-0.181 0.010-0.27-0.007-0.080-0.003-0.164-0.012-0.243-0.007-0.058-0.033-0.114-0.041-0.171-0.012-0.099 0.015-0.219 0.024-0.321 0.011-0.114-0.016-0.219-0.004-0.332 0.004-0.033 0.010-0.067 0.005-0.101-0.005-0.071-0.005-0.141-0.011-0.212-0.003-0.041-0.015-0.063-0.024-0.099-0.014-0.058-0.004-0.126-0.023-0.185-0.020-0.061-0.049-0.135-0.091-0.185-0.034-0.042-0.030-0.063-0.095-0.026-0.060 0.035-0.084 0.103-0.102 0.158-0.035 0.105-0.041 0.202-0.050 0.308-0.011 0.107 0.046 0.17 0.107 0.257 0.064 0.088 0.117 0.171 0.13 0.277 0.018 0.13 0.065 0.255 0.090 0.389 0.011 0.061 0.023 0.118 0.041 0.178 0.023 0.082 0 0.154 0.007 0.236 0.005 0.083 0.016 0.152 0.010 0.236-0.011 0.116-0.039 0.243-0.029 0.357 0.011 0.132 0.048 0.255 0.053 0.393 0.007 0.143 0 0.292 0.020 0.433 0.014 0.096 0.035 0.177 0.026 0.277-0.010 0.107-0.019 0.215 0.141 0.236z"></path>
<path d="M22.055 12.022c0.041 0.152 0.124 0.261 0.211 0.391 0.041 0.060 0.067 0.113 0.118 0.166 0.11 0.113 0.162 0.243 0.23 0.379 0.111 0.222 0.242 0.438 0.375 0.648 0.050 0.080 0.091 0.163 0.133 0.246 0.027 0.054 0.042 0.102 0.049 0.162 0.007 0.069 0.029 0.128 0.042 0.197 0.026 0.129 0.086 0.249 0.098 0.38 0.022 0.236 0.094 0.454 0.156 0.682 0.077 0.279 0.144 0.561 0.194 0.845 0.011 0.058 0.015 0.133 0.038 0.188 0.019 0.048 0.043 0.053 0.049 0.107 0.003 0.031-0.008 0.063-0.003 0.095 0.007 0.049 0.045 0.092-0.029 0.254 0.090 0.003 0.105-0.012 0.16-0.077s0.086-0.107 0.128-0.185c0.057-0.103 0.128-0.201 0.182-0.306 0.034-0.065 0.053-0.132 0.080-0.2 0.035-0.088 0.095-0.167 0.129-0.255 0.029-0.075 0.039-0.141 0.082-0.215 0.035-0.061 0.063-0.095 0.073-0.16 0.014-0.091 0.019-0.166 0.050-0.257 0.037-0.102 0.035-0.204 0.067-0.306 0.035-0.118 0.077-0.23 0.087-0.349 0.012-0.17 0.029-0.341 0.043-0.511 0.005-0.071 0.012-0.143 0.018-0.215 0.003-0.039 0.010-0.080 0.011-0.12 0.003-0.061-0.018-0.111-0.020-0.171-0.003-0.054 0.016-0.11 0.018-0.164 0-0.052-0.023-0.092-0.024-0.143-0.001-0.071-0.019-0.125-0.014-0.198 0.004-0.083-0.014-0.154-0.014-0.235 0-0.080-0.029-0.145-0.038-0.226-0.007-0.058 0.011-0.116 0.003-0.173-0.007-0.046-0.031-0.088-0.041-0.135-0.018-0.087-0.014-0.167-0.016-0.255-0.001-0.098-0.045-0.193-0.042-0.292 0.003-0.103-0.001-0.213-0.011-0.317-0.008-0.087-0.038-0.183-0.060-0.268-0.024-0.088-0.027-0.179-0.050-0.268-0.011-0.046-0.037-0.090-0.048-0.136-0.012-0.056-0.005-0.106-0.024-0.163-0.038-0.117-0.060-0.241-0.117-0.349-0.024-0.046-0.022-0.094-0.042-0.141-0.022-0.054-0.061-0.103-0.087-0.156-0.045-0.094-0.105-0.185-0.147-0.279-0.065-0.139-0.107-0.28-0.192-0.413-0.075-0.118-0.118-0.26-0.209-0.368-0.114-0.135-0.22-0.289-0.313-0.439-0.101-0.164-0.121-0.37-0.221-0.535-0.102-0.169-0.126-0.363-0.204-0.541-0.016-0.037-0.039-0.057-0.058-0.090-0.026-0.045-0.022-0.096-0.035-0.144-0.024-0.084-0.058-0.177-0.099-0.254-0.124-0.238-0.246-0.473-0.379-0.707-0.101-0.177-0.243-0.329-0.332-0.51 0 0.053-0.020 0.116-0.015 0.167 0.007 0.076 0.064 0.143 0.073 0.22 0.005 0.039-0.003 0.086 0.004 0.124 0.008 0.041 0.034 0.064 0.043 0.101 0.033 0.121 0.086 0.226 0.107 0.352 0.018 0.099 0.050 0.207 0.063 0.308 0.007 0.056-0.016 0.114-0.010 0.169 0.004 0.029 0.019 0.046 0.029 0.071 0.022 0.054 0.015 0.087 0.020 0.137 0.007 0.069 0.024 0.121 0.018 0.192-0.008 0.072 0.008 0.103 0.019 0.169 0.012 0.068-0.015 0.158-0.020 0.227-0.008 0.098-0.016 0.196-0.026 0.294-0.008 0.107-0.001 0.227-0.034 0.33-0.016 0.052-0.034 0.092-0.038 0.145-0.012 0.174-0.039 0.345-0.079 0.515-0.011 0.052-0.035 0.094-0.042 0.145-0.007 0.056-0.003 0.107-0.029 0.16-0.046 0.101-0.064 0.148-0.071 0.253-0.008 0.098-0.012 0.197-0.024 0.295-0.015 0.114-0.079 0.222-0.095 0.336-0.029 0.181-0.030 0.367-0.046 0.549-0.018 0.219-0.026 0.431 0.023 0.644 0.043 0.198 0.122 0.386 0.174 0.582z"></path>
<path d="M7.148 14.006c0.023-0.046 0.073-0.071 0.11-0.107 0.096-0.096 0.163-0.213 0.26-0.313 0.054-0.056 0.095-0.103 0.141-0.163 0.060-0.075 0.137-0.132 0.192-0.208 0.076-0.106 0.145-0.213 0.227-0.315 0.050-0.065 0.118-0.14 0.159-0.209 0.026-0.046 0.026-0.092 0.061-0.136 0.035-0.027 0.071-0.054 0.106-0.080 0.052-0.042 0.095-0.088 0.13-0.141 0.13-0.16 0.314-0.287 0.431-0.451 0.060-0.086 0.118-0.169 0.189-0.241 0.057-0.058 0.128-0.111 0.181-0.173 0.060-0.072 0.111-0.145 0.174-0.216 0.061-0.069 0.069-0.201 0.054-0.284-0.016-0.087-0.016-0.171-0.027-0.261-0.016-0.124-0.018-0.247-0.034-0.37-0.016-0.125-0.050-0.25-0.067-0.374-0.016-0.113-0.003-0.232-0.018-0.348-0.016-0.13 0.019-0.262 0.001-0.391 0-0.003 0-0.007 0-0.011-0.035 0.072-0.073 0.143-0.107 0.215-0.067 0.139-0.098 0.283-0.152 0.424-0.091 0.236-0.193 0.472-0.292 0.707-0.057 0.136-0.136 0.268-0.175 0.406-0.030 0.107-0.102 0.182-0.151 0.283-0.031 0.063-0.035 0.129-0.056 0.192-0.015 0.052-0.045 0.099-0.063 0.149-0.027 0.077-0.043 0.152-0.075 0.23-0.050 0.128-0.088 0.247-0.155 0.374-0.054 0.103-0.077 0.211-0.126 0.315-0.019 0.041-0.018 0.083-0.035 0.122-0.020 0.045-0.060 0.088-0.084 0.132-0.083 0.148-0.194 0.279-0.266 0.429-0.056 0.116-0.143 0.216-0.198 0.332-0.045 0.095-0.128 0.177-0.19 0.266-0.058 0.084-0.236 0.228-0.221 0.325 0.061-0.027 0.054-0.063 0.077-0.109z"></path>
<path d="M9.601 8.725c0.063-0.159 0.202-0.352-0.13-0.408-0.024 0.295-0.090 0.61-0.052 0.898 0.007-0.016 0.015-0.031 0.023-0.046 0.068-0.148 0.101-0.296 0.159-0.444z"></path>
<path d="M20 20.832c0.111 0.018 0.208 0.049 0.317 0.079 0.054 0.014 0.105 0.030 0.158 0.048-0.031-0.020-0.064-0.038-0.109-0.050-0.11-0.029-0.246-0.069-0.366-0.076z"></path>
<path d="M19.68 20.831c0.098 0 0.196-0.001 0.294 0 0.010 0 0.018 0.001 0.026 0.001-0.003 0-0.005-0.001-0.010-0.001-0.060-0.010-0.111-0.041-0.31 0z"></path>
<path d="M23.033 25.812c-0.012-0.095-0.049-0.179-0.069-0.272-0.035-0.155-0.035-0.315-0.064-0.472-0.026-0.14-0.063-0.288-0.109-0.423-0.034-0.098-0.080-0.193-0.075-0.3 0.003-0.076-0.003-0.105-0.029-0.173-0.033-0.086-0.052-0.207-0.056-0.299-0.004-0.073 0.010-0.125-0.019-0.193-0.026-0.064-0.046-0.128-0.063-0.196-0.012-0.057-0.003-0.109-0.010-0.164-0.010-0.069-0.034-0.147-0.049-0.215-0.031-0.143-0.082-0.277-0.102-0.423-0.018-0.129-0.105-0.226-0.125-0.351-0.015-0.095-0.045-0.166-0.075-0.255-0.030-0.088-0.058-0.167-0.099-0.251-0.042-0.087-0.088-0.155-0.151-0.224-0.056-0.063-0.094-0.128-0.171-0.174-0.091-0.054-0.204-0.116-0.304-0.158-0.223-0.095-0.469-0.16-0.7-0.242-0.077-0.027-0.16-0.029-0.239-0.054-0.018-0.005-0.034-0.011-0.052-0.016 0.034 0.022 0.065 0.045 0.106 0.067 0.065 0.035 0.14 0.075 0.19 0.122 0.043 0.042 0.053 0.107 0.084 0.156 0.026 0.041 0.067 0.058 0.099 0.095 0.088 0.099 0.129 0.243 0.204 0.352 0.083 0.121 0.179 0.226 0.235 0.363 0.107 0.26 0.19 0.527 0.308 0.783 0.065 0.14 0.126 0.291 0.171 0.438 0.020 0.069 0.065 0.125 0.091 0.193 0.029 0.073 0.042 0.155 0.060 0.231 0.027 0.113 0.056 0.231 0.101 0.337 0.041 0.095 0.094 0.183 0.126 0.28 0.037 0.109 0.087 0.209 0.122 0.318 0.037 0.111 0.061 0.227 0.113 0.333 0.098 0.2 0.183 0.408 0.223 0.625 0.018 0.103 0.056 0.221 0.091 0.322 0.031 0.090 0.041 0.178 0.057 0.27 0.010 0.046 0.012 0.087 0.016 0.135 0.005 0.045 0.034 0.076 0.045 0.118 0.031 0.125 0.038 0.276 0.114 0.387 0.073-0.057 0.043-0.261 0.052-0.338 0.014-0.151 0.007-0.313-0.018-0.459-0.015-0.091-0.022-0.182-0.033-0.273z"></path>
<path d="M3.088 22.11c0.077-0.067 0.158-0.136 0.205-0.221 0.095-0.17 0.194-0.342 0.27-0.518 0.075-0.178 0.231-0.34 0.344-0.506 0.052-0.076 0.076-0.162 0.116-0.242 0.033-0.068 0.073-0.135 0.099-0.205 0.027-0.075 0.022-0.152 0.050-0.228 0.026-0.068 0.057-0.118 0.064-0.19 0.010-0.084 0.054-0.151 0.095-0.228 0.034-0.068 0.049-0.148 0.075-0.219 0.035-0.096 0.053-0.197 0.096-0.295 0.041-0.090 0.116-0.178 0.145-0.268 0.056-0.163 0.155-0.321 0.17-0.492-0.011 0.030-0.020 0.031-0.029 0.034-0.035 0.109-0.099 0.217-0.132 0.327-0.064 0.219-0.169 0.409-0.303 0.609-0.057 0.084-0.121 0.166-0.175 0.251-0.068 0.106-0.102 0.226-0.148 0.338-0.091 0.219-0.249 0.424-0.371 0.633-0.091 0.154-0.177 0.322-0.265 0.466-0.065 0.105-0.152 0.204-0.213 0.321-0.039 0.072-0.073 0.151-0.124 0.22-0.045 0.060-0.098 0.113-0.139 0.178-0.029 0.045-0.069 0.090-0.084 0.136-0.016 0.050-0.027 0.158-0.014 0.208 0.118 0.031 0.186-0.041 0.266-0.11z"></path>
<path d="M23.939 18.069c0.023-0.064 0.057-0.13-0.2-0.424-0.010 0.107-0.039 0.231-0.022 0.336 0.026 0.14 0.068 0.285 0.023 0.433-0.008 0.029-0.020 0.057-0.031 0.087 0.049-0.057 0.099-0.114 0.137-0.174 0.049-0.079 0.063-0.174 0.092-0.258z"></path>
<path d="M23.642 18.584c-0.052 0.075-0.075 0.159-0.13 0.228-0.060 0.073-0.092 0.154-0.151 0.23-0.041 0.054-0.092 0.102-0.137 0.154-0.117 0.133-0.242 0.262-0.385 0.376-0.12 0.096-0.226 0.211-0.364 0.287-0.064 0.034-0.129 0.033-0.196 0.058-0.109 0.045-0.196 0.084-0.313 0.103-0.175 0.030-0.359 0.014-0.534 0.014-0.291 0-0.583 0.010-0.872 0.001-0.198-0.004-0.389-0.031-0.588-0.030-0.117 0.001-0.223 0.003-0.337-0.016-0.192-0.031-0.375-0.057-0.573-0.065-0.086-0.003-0.166-0.004-0.249-0.022-0.079-0.018-0.143-0.057-0.219-0.077-0.102-0.027-0.217-0.034-0.325-0.054-0.090-0.016-0.17-0.042-0.257-0.063-0.177-0.043-0.344-0.096-0.514-0.158-0.198-0.069-0.393-0.16-0.597-0.22-0.181-0.053-0.363-0.099-0.549-0.143-0.183-0.042-0.387-0.061-0.58-0.063-0.095-0.001-0.122 0.010-0.209 0.039-0.071 0.024-0.14 0.031-0.211 0.057-0.148 0.054-0.276 0.166-0.416 0.246-0.164 0.094-0.342 0.164-0.504 0.26-0.143 0.083-0.295 0.16-0.453 0.217-0.056 0.020-0.136 0.029-0.186 0.060-0.041 0.024-0.073 0.076-0.107 0.103-0.065 0.052-0.152 0.075-0.226 0.116-0.067 0.035-0.133 0.072-0.2 0.107-0.141 0.072-0.298 0.106-0.438 0.181-0.209 0.113-0.423 0.223-0.645 0.314-0.284 0.117-0.548 0.281-0.819 0.421-0.169 0.087-0.336 0.148-0.497 0.246-0.137 0.082-0.268 0.162-0.412 0.232-0.181 0.090-0.347 0.2-0.529 0.288-0.124 0.061-0.239 0.139-0.363 0.196-0.13 0.060-0.22 0.129-0.338 0.208-0.118 0.080-0.25 0.144-0.367 0.224-0.118 0.082-0.226 0.171-0.352 0.247-0.050 0.029-0.862 0.692-1.469 1.188-0.043 0.024-0.063 0.033-0.096 0.077-0.001 0.001-0.004 0.004-0.005 0.005-0.304 0.249-0.538 0.44-0.561 0.457-0.029 0.030-0.038 0.049-0.072 0.073-0.064 0.049-0.102 0.114-0.158 0.167-0.038 0.037-0.063 0.086-0.099 0.121-0.026 0.024-0.046 0.035-0.068 0.067-0.065 0.092-0.13 0.189-0.175 0.292-0.035 0.080-0.088 0.154-0.126 0.235-0.043 0.092-0.061 0.197-0.105 0.288-0.011 0.020-0.030 0.038-0.039 0.061-0.008 0.019-0.001 0.045-0.010 0.064-0.015 0.039-0.042 0.064-0.053 0.11-0.016 0.073-0.033 0.145-0.053 0.217-0.026 0.088-0.049 0.175-0.067 0.266-0.016 0.087-0.008 0.162-0.039 0.249-0.031 0.092-0.031 0.183-0.052 0.276-0.016 0.071-0.005 0.154-0.005 0.226v2.873c0 0.101-0.018 0.223 0.005 0.321 0.010 0.038 0.018 0.063 0.018 0.103 0 0.005 0 0.011 0 0.018-0.067-0.106-0.075-0.084-0.052-0.030 0.014 0.031 0.030 0.061 0.046 0.091 0.024 0.048 0.035 0.092 0.052 0.144 0.014 0.045 0.026 0.125 0.063 0.154 0.033-0.054 0.065-0.103 0.11-0.149 0.043-0.045 0.091-0.076 0.128-0.125 0.045-0.057 0.094-0.11 0.143-0.162 0.114-0.118 0.204-0.258 0.304-0.387 0.061-0.080 0.122-0.164 0.189-0.239 0.056-0.064 0.087-0.135 0.143-0.192 0.137-0.137 0.242-0.321 0.349-0.482 0.071-0.105 0.158-0.193 0.223-0.302 0.080-0.132 0.154-0.258 0.262-0.368 0.148-0.149 0.264-0.356 0.379-0.534 0.068-0.103 0.147-0.196 0.228-0.289 0.109-0.124 0.192-0.265 0.281-0.404 0.083-0.13 0.198-0.235 0.289-0.36 0.064-0.088 0.126-0.175 0.198-0.257 0.177-0.2 0.374-0.378 0.546-0.58 0.169-0.197 0.363-0.374 0.546-0.556 0.202-0.204 0.405-0.408 0.609-0.609 0.23-0.227 0.431-0.48 0.66-0.705 0.103-0.102 0.179-0.226 0.283-0.326 0.067-0.065 0.124-0.126 0.183-0.2 0.088-0.107 0.175-0.209 0.283-0.295 0.061-0.050 0.087-0.132 0.133-0.196 0.035-0.049 0.073-0.099 0.111-0.145 0.133-0.16 0.266-0.313 0.419-0.455 0.077-0.073 0.139-0.162 0.22-0.231 0.076-0.064 0.164-0.111 0.241-0.178 0.154-0.136 0.3-0.289 0.478-0.395 0.128-0.077 0.247-0.163 0.374-0.242 0.052-0.031 0.101-0.068 0.151-0.101 0.034-0.022 0.069-0.034 0.099-0.063 0.042-0.039 0.080-0.068 0.129-0.102 0.079-0.054 0.152-0.116 0.23-0.171 0.073-0.053 0.125-0.136 0.204-0.183 0.046-0.027 0.061-0.033 0.090-0.077 0.042-0.067 0.069-0.061 0.133-0.098 0.079-0.045 0.148-0.113 0.222-0.166 0.098-0.073 0.204-0.105 0.313-0.156 0.054-0.026 0.102-0.050 0.154-0.072 0.037-0.007 0.075-0.016 0.11-0.029 0.018-0.007 0.033-0.015 0.048-0.020 0.010-0.004 0.019-0.008 0.030-0.011 0.014-0.005 0.026-0.011 0.042-0.014 0.052-0.010 0.101 0.001 0.155-0.015 0.057-0.016 0.092-0.035 0.154-0.042s0.137 0.003 0.198 0.003c0.163 0 0.327 0 0.491 0 0.132 0 0.283-0.019 0.41 0.003 0.073 0.011 0.122 0.024 0.197 0.024 0.068 0 0.103 0.023 0.167 0.030 0.148 0.016 0.308-0.007 0.459-0.003 0.162 0.005 0.318 0.053 0.48 0.061 0.121 0.005 0.235 0.007 0.349 0.033 0.056 0.012 0.082 0.023 0.144 0.022 0.060-0.001 0.091 0.003 0.143 0.020 0.429 0.155 0.949 0.094 1.417 0.094 0.374 0 0.751 0.014 1.128 0 0.091-0.003 0.177-0.029 0.268-0.030 0.088 0 0.143-0.010 0.228-0.024 0.067-0.012 0.132 0.005 0.197-0.010 0.053-0.011 0.094-0.012 0.148-0.020 0.251-0.041 0.41-0.289 0.539-0.461 0.060-0.082 0.098-0.16 0.163-0.238 0.049-0.057 0.056-0.121 0.090-0.183 0.042-0.080 0.106-0.151 0.147-0.231 0.038-0.075 0.075-0.148 0.105-0.224 0.088-0.227 0.207-0.453 0.287-0.681-0.023 0.027-0.048 0.054-0.068 0.083z"></path>
</svg>
