<!-- Generated by IcoMoon.io -->
<svg version="1.1" xmlns="http://www.w3.org/2000/svg" width="32" height="32" viewBox="0 0 32 32">
<path d="M25.231 3.125c-0.051-0.050-0.048-0.064 0.045-0.018l0.036 0.036-0.082-0.018zM0.935 12.786l-0.036 0.036c0-0.017 0.036-0.036 0.036-0.036zM17.259 0.25l0.036-0.036c0.072 0.024 0.084 0.036 0.036 0.036h-0.072zM22.365 30.248c-0.317 0.317-0.395 0.145-0.719 0.467l-0.611 0.321-0.036 0.034c-0.169 0-0.313 0.107-0.503 0.107l0.144-0.069c-0.576 0.069-0.652 0.073-1.294 0.283l0.036-0.069c-0.31 0.103-0.74 0.371-0.971 0.142l-0.216 0.073h-0.216c-0.647 0-0.573 0.054-1.186 0.176l-0.324 0.038-0.36 0.069h-0.288l-0.288 0.038-0.108-0.107c-0.439 0.061-0.359 0.195-0.791 0.249l0.108-0.073c-0.431 0.145-1.084-0.092-1.51-0.176l0.036-0.073c-0.179 0-0.36-0.073-0.539-0.073h-0.108c-0.31-0.203-0.874-0.463-1.259-0.463l-0.251-0.107c-0.271-0.134-0.611-0.287-0.827-0.501l-0.108 0.073-0.288-0.142c-0.042-0.042-0.102-0.065-0.144-0.111l-0.072-0.069h-0.054c-0.038 0-0.090-0.073-0.090-0.073h0.072c0.054-0.054-0.783-0.115-0.647-0.073l-0.432-0.142c-0.162-0.054-0.338-0.099-0.503-0.142l-0.432-0.287c-0.269-0.268-0.624-0.44-0.899-0.715 0 0-0.077-0.038-0.108-0.069l-0.108-0.107c-1.102-1.098-2.363-2.077-3.416-3.216l0.144 0.073-0.252-0.252c0-0.073-0.144-0.176-0.144-0.176-0.005-0.011 0-0.038 0-0.038-0.049-0.195-0.148-0.199-0.252-0.356l0.072 0.034c-0.509-0.505-1.115-1.798-1.115-2.176 0 0-0.036-0.046-0.036-0.073l-0.432-1.285 0.108 0.18c-0.188-0.375-0.087-0.761-0.216-1.144v0.356c0-0.298-0.108-0.593-0.108-0.891 0-0.069 0.108 0.249 0.108 0.18v-0.662c0-0.107-0.288-0.428-0.288-0.375-0.369-0.734-0.358-1.534-0.611-2.287v-0.249c0-0.050-0.036-0.096-0.036-0.145v-0.214c0-0.719 0.539-3.478 0.539-1.427 0.147-0.585 0.059-0.547 0.18-1.144l0.108-0.073c0-0.084 0.032-0.168 0.065-0.252l0.013-0.031c0.033-0.084 0.065-0.165 0.065-0.252v-0.036l-0.036 0.036c0.043-0.508-0.019-0.61 0.072-1.107v0.036c0.022-0.041 0.035-0.090 0.036-0.142v-0.25l0.036-0.072v-0.107c0.052 0 0.036-0.039 0.036-0.071l0.036-0.036-0.036 0.143-0.036 0.214c0.189 0 0.611-1.585 0.611-1.929l0.036 0.036c0.122-0.195 0.422-0.74 0.611-0.929l-0.036 0.072c0.077-0.076 0.072-0.125 0.18-0.179l0.072-0.107c0-0.038 0.036-0.107 0.036-0.107l0.252-0.25c0.096-0.239 0.18-0.75 0.18-0.75 0.267-0.796 1.043-1.215 1.618-1.786l0.108-0.214 0.288-0.286c-0.105 0.069 0.504-0.946 0.504-0.965l0.216-0.214c-0.186 0.23 0.425-0.411 0.647-0.607l0.108-0.036 0.108-0.107 0.072-0.036c0.189-0.377 0.973-0.289 1.258-0.571l-0.216 0.071c0.496-0.164 0.819-0.583 1.294-0.786l0.072 0.107c0.159 0 0.363-0.216 0.504-0.286l0.072-0.036c0.073-0.073-0.027-0.107 0.072-0.107l0.108-0.071-0.288 0.107-0.36 0.25c0.154-0.122 0.051-0.286 0.252-0.286 0 0 0.045-0.036 0.072-0.036h0.072c0-0.024 0.006-0.036 0.018-0.036h0.090c0.175 0 0.489-0.068 0.647-0.107l0.431-0.143c0.138 0 0.259-0.072 0.395-0.072h0.324c0.038-0.037 0.144-0.018 0.144-0.071h-0.18c0.422 0 1.259-0.143 1.259-0.143 0.027 0 0.072-0.036 0.072-0.036h0.216s0.008 0.027 0 0.036l-0.072 0.036-0.036 0.036h-0.072c0.017 0 0.036 0.036 0.036 0.036s0.045-0.036 0.072-0.036c0 0 0.442-0.408 0.719-0.5l-0.144 0.036c0.093-0.093 0.174-0.122 0.288-0.179l-0.18 0.107c0.225-0.112 0.616-0.321 0.863-0.321l0.072 0.036h0.144c-0.017 0-0.372 0.016-0.036 0.072 0.188 0 0.139 0.034 0.36 0.107 0.524 0 0.74-0.151 1.043 0h0.719c-0.428 0 0.418 0.023 0.467 0.036h-0.216c-0.086 0 0.13 0.131 0.216 0.143 0.184-0.023 0.087-0.107 0.305-0.107h0.647c0.325 0 0.692 0.223 0.989 0.321 0.683-0.169 0.655-0.15 1.69 0.107l-0.108 0.072c0.209 0 0.358 0.179 0.539 0.179l-0.216-0.143c0.371 0.092 0.815 0.417 1.151 0.607-0.61-0.303 0.085 0.179 0.288 0.179l0.072 0.072c-0.425 0 0.644 0.551 0.971 0.821l0.108 0.107 0.108 0.072c0.112 0.055 0.242 0.104 0.36 0.143l0.359 0.107c0.193 0.076 0.549 0.161 0.71 0.196 0.143 0.143 0.717 0.582 0.909 0.804 0.246 0.286 0.42 0.628 0.647 0.929l-0.18-0.107c0.033 0.032 0.092 0.078 0.133 0.109-0.015-0.005-0.031-0.002-0.061-0.002l0.216 0.179c0.013 0 0.324 0.072 0.611 0.357l0.108 0.072 0.108 0.107 0.072 0.107-0.072-0.036c0.087 0.129 0.118 0.153 0.216 0.25l0.144 0.215c-0.301-0.299 0.464 0.709 0.683 1.071 0.292 0.482 0.72 1.465 1.294 1.75 0.131 0.26 0.539 0.919 0.539 1.786l0.108 0.036-0.108 0.25 0.036 0.286c0.207 0.103 0.154 0.111 0.252 0.286l-0.036-0.036c0 0.113 0.629 1.088 0.288 0.75l0.144 0.215h-0.036c0.039 0.118 0.108 0.357 0.108 0.357l0.144 0.429-0.036-0.034 0.288 1.105-0.324 1.606v0.073h0.036l0.072 0.214c0.112 0 0.145-0.069 0.288 0.287 0.042 0.21-0.047 0.432 0 0.643l0.108 0.321 0.072 0.107-0.036 0.142v0.073h-0.036c-0.027 0.054-0.036 0.176-0.036 0.176-0.183-0.18-0.129 0.501-0.18 0.753l0.036-0.073c-0.062 0.868-0.283 0.761-0.432 1.572v0.394l-0.072 0.069v0.145c0 0.382-0.234 0.677-0.324 1.033l-0.108 0.287-0.072 0.287c-0.334 0.474-0.6 0.933-0.899 1.427l-0.467 0.467c-0.115 0.111-0.239 0.214-0.359 0.325 0 0 0.002-0.004 0-0.004h-0.001c-0.018 0.015-0.020 0.015-0.037 0.034l-0.035 0.034c-0.459 0.306-0.694 0.891-0.863 1.396l-0.108 0.176-0.108 0.214c-0.141 0.142-0.409 0.306-0.608 0.379 0.011-0.008 0.022-0.011 0.033-0.019l-0.072 0.034c0.013-0.004 0.025-0.008 0.039-0.015-1.365 0.91-2.127 1.629-3.167 2.838-0.026 0.021-0.056 0.039-0.088 0.053l-0.002 0.001-0.090 0.015c0.027 0 0.059-0.004 0.090-0.015l0.090-0.019 0.251-0.287 0.036-0.034c0.027-0.054 0.108-0.142 0.108-0.142 0.072-0.073-0.062 0.195-0.108 0.283l-0.18 0.18c-0.021 0.018-0.034 0.044-0.036 0.072l-0 0h-0.144c-0.125 0.061-0.405 0.142-0.539 0.142l0.036-0.034h-0.036c-0.081 0.027-0.899 0.214-0.899 0.356h-0.072v-0.034l-0.036-0.038s-0.082 0.027-0.108 0h0.036l0.036-0.034 0.539-0.176c-0.186 0-0.539 0.142-0.539 0.142l-0.072 0.069zM29.017 24.683c-0.001 0.004-0.002 0.008-0.003 0.008-0.002 0.009-0.007 0.017-0.013 0.023v0c-0.016 0.015-0.034 0.026-0.055 0.034l-0.001 0c0.023-0.023 0.047-0.042 0.071-0.065zM28.946 24.748c-0.013 0.011-0.025 0.027-0.037 0.038l0.036-0.038h0.002zM26.74 4.859c0.013 0.004 0.025 0.013 0.047 0.034l-0.047-0.034zM25.499 25.181c-0.573-0.076-1.235-0.119-1.907-0.119-0.010 0-0.019 0-0.029 0h0.002c-0.655 0-1.31 0.019-1.965 0.061-0.758-0.042-1.521-0.084-2.288-0.122-0.346-0.020-0.752-0.032-1.159-0.032s-0.813 0.011-1.215 0.034l0.056-0.003c-0.573 0.019-1.157 0.065-1.75 0.134-0.594 0.073-1.177 0.149-1.75 0.229 0.389 0.042 0.778 0.073 1.167 0.092l1.167 0.061h3.624c0.696 0 1.387-0.004 2.073-0.015 0.686-0.008 1.377-0.034 2.073-0.076h0.123c0.001 0 0.003 0 0.004 0 0.043 0 0.084-0.011 0.12-0.031l-0.001 0.001c0.164 0 0.328-0.008 0.491-0.031 0.164-0.019 0.338-0.031 0.522-0.031 0.102-0.019 0.215-0.034 0.338-0.046 0.123-0.008 0.246-0.023 0.368-0.046 0-0.019-0.005-0.034-0.015-0.046-0.013-0.010-0.029-0.015-0.046-0.015-0 0-0 0-0 0v0zM15.426 26.431c-0.001 0-0.002 0-0.003 0-0.113 0-0.224-0.010-0.331-0.028l0.011 0.002c-0.094-0.019-0.201-0.031-0.312-0.031-0.004 0-0.007 0-0.011 0h-1.044c-0.696 0.019-1.382 0.050-2.058 0.088-0.676 0.042-1.351 0.115-2.027 0.214l-0.046 0.031c-0.031 0.019-0.026 0.031 0.015 0.031 0.614 0 1.239-0.004 1.873-0.015s1.269-0.015 1.904-0.015c0.655-0.019 1.31-0.023 1.966-0.015 0.655 0.011 1.3 0.008 1.935-0.015 0.020 0 0.046-0.008 0.077-0.031 0.031-0.019 0.057-0.050 0.077-0.092-0.328 0.023-0.66 0.015-0.998-0.015s-0.681-0.065-1.029-0.107zM15.057 24.266c0.573-0.019 1.137-0.065 1.689-0.138 0.553-0.069 1.106-0.126 1.658-0.168 0.123-0.019 0.251-0.034 0.384-0.046 0.133-0.008 0.271-0.015 0.415-0.015v-0.046c0-0.008 0.010-0.023 0.031-0.042-0.86-0.103-1.725-0.161-2.595-0.168-0.87-0.011-1.745-0.008-2.626 0.015l-0.031 0.015c-0.018 0.008-0.039 0.014-0.061 0.015l-0.001 0c-0.102 0-0.21-0.008-0.322-0.015-0.093-0.010-0.202-0.015-0.311-0.015-0.004 0-0.008 0-0.012 0h0.001c-0.45 0.019-0.906 0.034-1.367 0.046-0.461 0.008-0.916 0.023-1.367 0.042h-0.092c-0.164 0.023-0.328 0.050-0.491 0.076-0.164 0.031-0.328 0.057-0.491 0.076l-0.062 0.061c0.942 0.042 1.879 0.119 2.81 0.229s1.878 0.138 2.84 0.076zM21.752 19.172c0.082-0.019 0.164-0.034 0.246-0.046 0.082-0.008 0.164-0.027 0.246-0.046l-0.86-0.061c-0.286-0.019-0.573-0.031-0.86-0.031-0.246 0.023-0.502 0.054-0.768 0.092-0.266 0.042-0.532 0.073-0.799 0.092 0.001 0 0.001 0 0.002 0 0.022 0 0.042 0.006 0.060 0.016l-0.001-0c0.020 0.011 0.041 0.015 0.061 0.015 0.43-0.019 0.87-0.031 1.321-0.031h1.351zM6.612 10.784l-0.046 0.046c-0.010 0.010-0.015 0.025-0.015 0.046 0-0.020 0.010-0.036 0.030-0.046s0.031-0.026 0.031-0.046zM6.612 10.784c0.164-0.163 0.317-0.341 0.461-0.534 0.136-0.186 0.299-0.342 0.485-0.468l0.007-0.004c0-0.020 0.005-0.031 0.015-0.031h0.015c0.027-0.016 0.058-0.026 0.091-0.030l0.001-0c0.020 0 0.051 0.010 0.092 0.031-0.102 0.122-0.199 0.244-0.292 0.366s-0.179 0.254-0.261 0.397c-0.123 0.172-0.255 0.376-0.378 0.586l-0.021 0.039c-0.123 0.213-0.225 0.432-0.307 0.656l-0.031 0.031c-0.129 0.249-0.24 0.538-0.316 0.841l-0.006 0.028c-0.087 0.355-0.176 0.645-0.28 0.927l0.019-0.060c-0.021 0.065-0.041 0.119-0.062 0.168-0.020 0.054-0.041 0.099-0.061 0.138-0.062 0.348-0.097 0.677-0.108 0.994-0.010 0.314-0.005 0.635 0.015 0.96 0.020 0.038 0.031 0.084 0.031 0.138 0 0.050 0.010 0.107 0.031 0.168l0.123 0.486c0.020-0.080 0.036-0.157 0.046-0.229 0.010-0.069 0.015-0.138 0.015-0.199 0.041-0.241 0.097-0.478 0.169-0.7s0.149-0.447 0.23-0.669v0.333c-0.041 0.226-0.072 0.447-0.092 0.673-0.020 0.222 0 0.447 0.062 0.669-0.021 0-0.031 0.011-0.031 0.031v0.031c-0.067 0.572-0.111 0.886-0.157 1.199l0.034-0.281c0.061 0.161 0.117 0.325 0.169 0.486 0.051 0.164 0.097 0.337 0.138 0.52 0.020 0.038 0.015 0.084-0.015 0.138-0.027 0.046-0.076 0.077-0.133 0.077-0.002 0-0.004-0-0.006-0h0c-0.069 0.017-0.149 0.027-0.231 0.027h-0.23c-0.020 0.061-0.072 0.092-0.154 0.092s-0.143-0.031-0.184-0.092c-0.020-0.057-0.041-0.115-0.062-0.164-0.018-0.041-0.029-0.088-0.031-0.137l-0-0.001c0-0.023-0.005-0.031-0.015-0.031h-0.015c-0.091-0.141-0.17-0.303-0.226-0.475l-0.004-0.015c-0.046-0.138-0.083-0.303-0.106-0.472l-0.002-0.014-0.061-0.061c-0.020-0.023-0.031-0.042-0.031-0.061-0.062-0.287-0.092-0.57-0.092-0.857 0-0.283 0.010-0.558 0.030-0.822-0.015-0.026-0.026-0.057-0.030-0.091l-0-0.001v-0.092c-0.019-0.019-0.031-0.044-0.031-0.073 0-0.001 0-0.002 0-0.004v0-0.107l-0.246 0.853c-0.041 0.348-0.077 0.7-0.107 1.056s-0.067 0.704-0.107 1.052c0 0.019 0.005 0.031 0.015 0.031h0.015c-0.020 0-0.030 0.004-0.030 0.015s-0.010 0.015-0.031 0.015c0.020 0.099 0.041 0.199 0.061 0.291s0.031 0.176 0.031 0.256c0 0.122-0.015 0.229-0.046 0.321s-0.066 0.18-0.107 0.26c0.020 0 0.036 0.004 0.046 0.015s0.025 0.015 0.046 0.015l-0.077 0.153c-0.031 0.061-0.025 0.099 0.015 0.122-0.020 0.038-0.036 0.092-0.046 0.153s0.026 0.092 0.108 0.092h1.105c-0.062 0.019-0.118 0.034-0.169 0.046-0.051 0.008-0.107 0.023-0.169 0.046-0.021 0-0.046 0.019-0.077 0.057-0.031 0.042-0.036 0.061-0.015 0.061h0.154v0.061c0.655 0.042 1.305 0.042 1.95 0 0.645-0.038 1.295-0.069 1.95-0.092h0.522c0.020-0.019 0.036-0.031 0.046-0.031h0.077v-0.031h-0.154c-0.001 0-0.001 0-0.002 0-0.022 0-0.042-0.006-0.060-0.016l0.001 0c-0.018-0.007-0.039-0.011-0.061-0.011h-0.215c-0.062-0.023-0.118-0.038-0.169-0.046-0.041-0.011-0.088-0.018-0.137-0.019l-0.001-0c0.082 0 0.159-0.004 0.23-0.011 0.072-0.011 0.149-0.015 0.23-0.015h1.382c0.082 0.019 0.159 0.027 0.23 0.027s0.138 0.011 0.199 0.034v0.031c-0.061 0-0.128 0.004-0.199 0.011-0.072 0.011-0.138 0.027-0.2 0.046-0.082 0-0.153 0.008-0.215 0.015-0.061 0.011-0.123 0.015-0.184 0.015h-0.215c-0.020 0.023-0.041 0.031-0.061 0.031h-0.062c-0.020 0-0.051 0.008-0.092 0.015-0.041 0.011-0.082 0.015-0.123 0.015h-0.123c-0.082 0.023-0.154 0.038-0.215 0.046-0.058 0.010-0.124 0.016-0.192 0.016-0.008 0-0.016-0-0.024-0l0.001 0c-0.205 0.023-0.404 0.038-0.599 0.046-0.194 0.011-0.394 0.015-0.599 0.015-0.266 0.023-0.532 0.034-0.798 0.046s-0.532 0.034-0.799 0.076c-0.143 0-0.287 0.008-0.43 0.015-0.143 0.011-0.286 0.015-0.43 0.015-0.001-0-0.002-0-0.003-0-0.022 0-0.042 0.006-0.060 0.016l0.001-0c-0.017 0.010-0.037 0.015-0.059 0.015-0.001 0-0.002 0-0.003-0h0c0 0.019-0.005 0.034-0.015 0.046l-0.046 0.046c-0.184 0.080-0.368 0.134-0.553 0.153s-0.378 0.031-0.583 0.031c-0.137 0.019-0.312 0.035-0.488 0.045l-0.018 0.001c-0.194 0.008-0.353 0.057-0.476 0.138-0.102 0.061-0.164 0.122-0.184 0.184s0.010 0.119 0.092 0.18c0.062 0.023 0.128 0.042 0.2 0.061 0.072 0.023 0.128 0.042 0.169 0.061 0.041 0.023 0.067 0.046 0.077 0.076 0.008 0.023 0.014 0.049 0.015 0.076l0 0.001c0.143 0.042 0.291 0.076 0.445 0.107s0.302 0.057 0.446 0.076c0.061 0 0.117 0.004 0.169 0.015s0.107 0.015 0.169 0.015l0.031 0.031c0.164 0.042 0.322 0.073 0.476 0.092s0.302 0.042 0.446 0.061c0.061 0 0.123-0.004 0.184-0.015s0.123-0.015 0.184-0.015c0.102 0 0.199-0.004 0.291-0.015s0.189-0.015 0.292-0.015c0.901 0.042 1.797 0.080 2.687 0.122s1.787 0.092 2.687 0.153c-0.246 0.019-0.491 0.046-0.737 0.076s-0.481 0.054-0.706 0.076l-4.3 0.241c-0.020 0-0.056 0.015-0.107 0.046-0.052 0.032-0.097 0.068-0.138 0.107l0-0c-0.020 0-0.046 0.008-0.077 0.015-0.023 0.009-0.049 0.015-0.077 0.015h-0c-0.020 0-0.041 0.011-0.061 0.031-0.021 0.023-0.021 0.031 0 0.031 0.798 0.184 1.628 0.302 2.487 0.352s1.7 0.046 2.519-0.015c0.204 0 0.409 0.011 0.614 0.031l0.614 0.061c0.188-0.019 0.407-0.030 0.629-0.031h0.001c0.215 0 0.425-0.011 0.63-0.031 0.205 0.019 0.42 0.019 0.645 0l0.676-0.061c0.573 0 1.147 0.004 1.72 0.015s1.146 0.027 1.72 0.046c0.839 0.042 1.689 0.076 2.549 0.107s1.71-0.027 2.549-0.168c0.041 0 0.097-0.034 0.169-0.107 0.072-0.069 0.067-0.107-0.015-0.107-0.485-0.021-0.93-0.060-1.37-0.115l0.081 0.008c-0.343-0.043-0.788-0.081-1.237-0.105l-0.053-0.002-0.553-0.061c-0.165-0.019-0.357-0.030-0.552-0.031h-0.001c-0.020 0-0.036-0.004-0.046-0.015-0.012-0.010-0.028-0.015-0.045-0.015-0 0-0 0-0.001 0h0c0.020 0 0.041-0.004 0.061-0.011 0.023-0.013 0.044-0.029 0.062-0.046l-0 0c0.778-0.103 1.556-0.164 2.334-0.184 0.778-0.023 1.556-0.031 2.334-0.031 0.143 0 0.286-0.011 0.43-0.031l0.43-0.061c0.041-0.023 0.067-0.046 0.077-0.076s-0.005-0.057-0.046-0.076c-0.003 0-0.007 0-0.011 0-0.11 0-0.218-0.006-0.325-0.016l0.013 0.001c-0.098-0.010-0.212-0.015-0.328-0.015-0.009 0-0.018 0-0.027 0h-0.029c-0.031-0.017-0.068-0.028-0.107-0.031l-0.001-0h-0.077c-0.102 0-0.205-0.004-0.307-0.015-0.087-0.010-0.188-0.015-0.29-0.015-0.006 0-0.012 0-0.018 0h0.001l-0.015-0.015c-0.010-0.011-0.025-0.015-0.046-0.015h-0.323c-0.112 0-0.23-0.011-0.353-0.031h-0.43c-0.049-0.016-0.111-0.032-0.174-0.044l-0.010-0.002c-0.062-0.011-0.123-0.027-0.184-0.046-0.266 0-0.532-0.004-0.798-0.015s-0.532-0.027-0.799-0.046h-0.031c-0.164 0-0.323 0.004-0.476 0.015s-0.312 0.015-0.476 0.015c-0.102 0.019-0.199 0.034-0.291 0.046s-0.189 0.015-0.292 0.015c-0.041 0.019-0.077 0.027-0.107 0.015-0.030-0.011-0.055-0.026-0.077-0.046l0 0h-0.491c-0.307 0.019-0.625 0.034-0.952 0.046s-0.655 0.027-0.983 0.046c-0.286 0.019-0.573 0.034-0.86 0.046s-0.573 0.027-0.86 0.046c0.020-0.019 0.046-0.042 0.077-0.061s0.067-0.042 0.107-0.061c0.062 0 0.118-0.004 0.169-0.015s0.107-0.027 0.169-0.046c0.225-0.019 0.445-0.046 0.66-0.076s0.425-0.065 0.63-0.107c0.020 0 0.051-0.015 0.092-0.046s0.061-0.054 0.061-0.076l0.046-0.046c0.010-0.008 0.005-0.023-0.015-0.046-0.143-0.080-0.317-0.13-0.522-0.149-0.205-0.023-0.389-0.042-0.553-0.061-0.087-0.020-0.188-0.031-0.291-0.031-0.006 0-0.011 0-0.017 0h-0.306l-0.015-0.015c-0.010-0.011-0.025-0.015-0.046-0.015h-0.461c-0.43-0.023-0.875-0.046-1.336-0.076s-0.926-0.057-1.397-0.076c-0.266-0.023-0.563-0.046-0.891-0.076s-0.553-0.065-0.675-0.107c0.026-0.021 0.056-0.037 0.091-0.046l0.002-0c0.036-0.008 0.066-0.024 0.092-0.046l-0 0c0.45-0.061 0.901-0.119 1.351-0.168 0.368-0.045 0.835-0.083 1.306-0.105l0.045-0.002 0.062 0.031c0.205 0 0.399-0.011 0.583-0.031s0.379-0.031 0.584-0.031c0-0.019 0.010-0.023 0.030-0.015l0.031 0.015c0.102-0.019 0.205-0.034 0.307-0.046 0.102-0.008 0.205-0.015 0.307-0.015 0.144-0.019 0.282-0.038 0.415-0.061 0.133-0.019 0.261-0.038 0.384-0.061 0.062 0 0.123-0.004 0.184-0.015 0.061-0.008 0.112-0.015 0.154-0.015 0.020 0 0.041-0.004 0.061-0.015 0.020-0.008 0.031-0.023 0.031-0.046h0.031v-0.046c0-0.008-0.010-0.015-0.031-0.015-0.246-0.019-0.497-0.034-0.752-0.046-0.256-0.008-0.507-0.004-0.752 0.015v-0.015c0-0.008-0.010-0.011-0.031-0.011 0.328-0.023 0.655-0.038 0.983-0.046 0.328-0.011 0.655-0.008 0.983 0.015 0.123 0.019 0.246 0.031 0.368 0.031h0.368c0.123 0.038 0.246 0.054 0.368 0.042 0.123-0.008 0.256-0.023 0.399-0.042 0.109-0.001 0.215-0.012 0.317-0.032l-0.011 0.002c0.102-0.023 0.205-0.034 0.307-0.034h0.553c0.184 0 0.368 0.011 0.553 0.034-0.286 0-0.578 0.011-0.875 0.042s-0.599 0.057-0.906 0.076v0.031l-0.030 0.031h-0.184c-0.062 0-0.123 0.011-0.184 0.031-0.041 0-0.087 0.008-0.138 0.015-0.051 0.011-0.108 0.027-0.169 0.046-0.020 0-0.041 0.011-0.062 0.031-0.020 0.023-0.041 0.031-0.061 0.031-0.082 0.042-0.159 0.073-0.23 0.092s-0.149 0.031-0.231 0.031c-0.102 0.019-0.194 0.034-0.276 0.046-0.070 0.010-0.151 0.015-0.233 0.015-0.005 0-0.009-0-0.014-0h0.001c-0.368 0.042-0.727 0.061-1.075 0.061s-0.696 0.031-1.044 0.092c-0.020 0.019-0.036 0.027-0.046 0.015s-0.025-0.015-0.046-0.015c-0.041 0-0.092 0.004-0.154 0.015s-0.123 0.015-0.184 0.015l-0.061 0.061c-0.041 0.042-0.051 0.061-0.031 0.061 0.082 0.019 0.128 0.031 0.138 0.031h0.107v0.031h0.184c0.102 0 0.21 0.004 0.322 0.015 0.113 0.008 0.22 0.015 0.323 0.015 1.515 0.161 3.035 0.275 4.56 0.333 1.526 0.061 3.046 0.084 4.561 0.061 0.143-0.019 0.281-0.034 0.414-0.042 0.133-0.011 0.271-0.027 0.415-0.046 0.246 0 0.497-0.019 0.752-0.046 0.256-0.031 0.507-0.076 0.752-0.138l0.138-0.138c0.072-0.073 0.087-0.107 0.046-0.107-0.020 0-0.036-0.004-0.046-0.015s-0.025-0.015-0.046-0.015v-0.015c0-0.011-0.010-0.015-0.031-0.015-0.451-0.042-0.921-0.080-1.413-0.122-0.294-0.026-0.637-0.041-0.983-0.041-0.173 0-0.345 0.004-0.516 0.011l0.024-0.001h-0.276c0.204-0.019 0.404-0.050 0.599-0.092 0.176-0.039 0.378-0.061 0.585-0.061 0.005 0 0.010 0 0.015 0h0.306c0.246 0 0.496 0.008 0.752 0.015 0.256 0.011 0.507-0.004 0.752-0.046 0.389 0.023 0.778 0.011 1.167-0.031 0.385-0.035 0.739-0.122 1.070-0.254l-0.026 0.009c0.041-0.019 0.128-0.096 0.261-0.226 0.133-0.134 0.128-0.21-0.015-0.229-0.082 0-0.159-0.008-0.23-0.015-0.064-0.010-0.137-0.015-0.212-0.015-0.006 0-0.013 0-0.019 0h0.001c-0.35-0.074-0.785-0.139-1.227-0.18l-0.047-0.004c-0.261-0.026-0.564-0.041-0.871-0.041-0.153 0-0.305 0.004-0.456 0.011l0.021-0.001c-0.082 0-0.164-0.004-0.246-0.015-0.070-0.010-0.151-0.015-0.233-0.015-0.005 0-0.009 0-0.014 0h0.001c0-0.019 0.005-0.034 0.015-0.046l0.046-0.046c0.082 0.019 0.174 0.031 0.276 0.031h0.307c0.020 0 0.046-0.004 0.077-0.015s0.067-0.027 0.107-0.046c0.082 0 0.159-0.011 0.23-0.031s0.149-0.042 0.231-0.061c0.082-0.019 0.251-0.138 0.507-0.352 0.256-0.21 0.435-0.409 0.537-0.593 0-0.042-0.005-0.080-0.015-0.122-0.017-0.066-0.033-0.117-0.051-0.168l0.005 0.015c-0.019-0.019-0.031-0.044-0.031-0.073 0-0.001 0-0.003 0-0.004v0c0-0 0-0.001 0-0.002 0-0.029-0.012-0.056-0.031-0.075l0 0c-0.061-0.222-0.133-0.447-0.215-0.669-0.082-0.226-0.154-0.447-0.215-0.673l-0.046-0.046c-0.010-0.008-0.015-0.023-0.015-0.046-0.024-0.072-0.050-0.133-0.080-0.191l0.004 0.008c-0.039-0.072-0.074-0.131-0.113-0.188l0.005 0.008c-0.021-0.023-0.041-0.031-0.062-0.031s-0.041-0.011-0.061-0.031h-0.031c0 0.061-0.005 0.122-0.015 0.184-0.010 0.057-0.015 0.119-0.015 0.18-0.041 0.164-0.067 0.321-0.077 0.474s-0.046 0.298-0.108 0.444v0.092c0 0.019-0.010 0.050-0.030 0.092h-0.031c-0.119-0.014-0.258-0.022-0.398-0.022-0.076 0-0.152 0.002-0.226 0.007l0.010-0c-0.205 0.008-0.41 0.023-0.614 0.046-0.063-0-0.118-0.030-0.153-0.076l-0-0c-0.026-0.029-0.041-0.068-0.041-0.11 0-0.021 0.004-0.041 0.011-0.059l-0 0.001c0-0.023 0.005-0.042 0.015-0.061 0.009-0.018 0.015-0.039 0.015-0.061v-0c0.061-0.103 0.112-0.199 0.154-0.291s0.072-0.199 0.092-0.321c0.020-0.099 0.031-0.207 0.031-0.321 0-0.111-0.010-0.226-0.031-0.348v-0.092c0.061 0.203 0.112 0.405 0.154 0.608 0.041 0.207 0.061 0.409 0.061 0.612 0 0.019 0.026 0.015 0.077-0.015s0.077-0.057 0.077-0.076c0.020-0.325 0.025-0.665 0.015-1.021s-0.118-0.665-0.323-0.929c-0.041-0.103-0.082-0.21-0.123-0.321s-0.082-0.229-0.123-0.352c-0.039-0.057-0.075-0.122-0.104-0.191l-0.003-0.008c-0.031-0.069-0.067-0.145-0.107-0.229-0.020-0.099-0.046-0.195-0.077-0.287s-0.057-0.191-0.077-0.291c0-0.061-0.005-0.119-0.015-0.168s-0.015-0.107-0.015-0.168c-0.020-0.126-0.058-0.239-0.111-0.343l0.003 0.007c-0.039-0.075-0.086-0.175-0.128-0.277l-0.010-0.027c-0.026-0.068-0.062-0.185-0.096-0.303l-0.012-0.048c-0.027-0.091-0.053-0.21-0.074-0.33l-0.003-0.021c-0.045-0.045-0.085-0.095-0.121-0.149l-0.002-0.004c-0.037-0.053-0.068-0.113-0.091-0.177l-0.002-0.005c-0.032-0.091-0.075-0.234-0.112-0.379l-0.011-0.049c-0.044-0.094-0.112-0.261-0.175-0.429l-0.024-0.074c-0.070-0.192-0.158-0.358-0.266-0.51l0.005 0.007-0.062-0.061c-0.036-0.035-0.067-0.075-0.091-0.12l-0.001-0.003c-0.025-0.047-0.056-0.087-0.092-0.122l-0-0c-0.081-0.116-0.152-0.211-0.225-0.303l0.010 0.013c-0.095-0.125-0.207-0.231-0.333-0.317l-0.005-0.003c0.3 0.177 0.557 0.384 0.781 0.623l0.002 0.002c0.219 0.243 0.409 0.519 0.559 0.818l0.010 0.021c0 0.020 0.005 0.036 0.015 0.046l0.015 0.015 0.062 0.122c0.020 0.041 0.031 0.071 0.031 0.092 0.123 0.223 0.251 0.437 0.384 0.641s0.251 0.417 0.353 0.641c0.020 0.020 0.041 0.046 0.061 0.076s0.041 0.066 0.062 0.107c0.061 0.122 0.123 0.249 0.184 0.381s0.123 0.259 0.184 0.381c0.082 0.225 0.184 0.447 0.307 0.673 0.123 0.222 0.256 0.436 0.399 0.639h0.030c0 0.019 0.005 0.034 0.015 0.046l0.015 0.015c0.020 0 0.041 0.011 0.062 0.031s0.030 0.050 0.030 0.092c0.021 0.042 0.036 0.080 0.046 0.122 0.010 0.038 0.026 0.080 0.046 0.122 0.061 0.142 0.133 0.279 0.215 0.409 0.082 0.134 0.174 0.26 0.276 0.382-0.116-0.398-0.203-0.865-0.244-1.346l-0.002-0.027 0.031-0.061c-0.045-0.134-0.091-0.245-0.145-0.352l0.007 0.016c-0.048-0.092-0.095-0.202-0.133-0.316l-0.005-0.017v-0.031c-0.082-0.103-0.164-0.21-0.246-0.321-0.095-0.13-0.176-0.235-0.259-0.337l0.013 0.017v-0.031l-0.030-0.030c-0.063-0.125-0.109-0.21-0.156-0.294l0.018 0.035c-0.044-0.075-0.081-0.161-0.106-0.252l-0.002-0.008c-0.062-0.143-0.118-0.29-0.169-0.443-0.082-0.25-0.139-0.407-0.2-0.562l0.031 0.090c0.041 0.081 0.082 0.168 0.123 0.259s0.082 0.178 0.123 0.259c0.062 0.081 0.128 0.163 0.2 0.244s0.148 0.163 0.23 0.244c0.082 0.102 0.159 0.208 0.23 0.32s0.149 0.229 0.23 0.351c0.021 0 0.041-0.010 0.062-0.031s0.031-0.041 0.031-0.061l-0.062-0.183c-0.024-0.070-0.056-0.13-0.094-0.186l0.002 0.003-0.062-0.183c-0.024-0.070-0.056-0.13-0.094-0.186l0.002 0.003c0.020 0 0.036 0.005 0.046 0.015s0.015 0.025 0.015 0.046c0.020 0 0.041 0.005 0.061 0.015 0.024 0.013 0.044 0.028 0.062 0.046l0 0c-0.144-0.244-0.281-0.478-0.415-0.701-0.125-0.207-0.243-0.448-0.342-0.699l-0.011-0.033c-0.023-0.037-0.101-0.234-0.176-0.431l-0.055-0.163c-0.082-0.216-0.18-0.402-0.298-0.574l0.006 0.009c-0.068-0.111-0.134-0.206-0.205-0.296l0.005 0.007c-0.066-0.084-0.132-0.179-0.192-0.277l-0.007-0.013c-0.018-0.035-0.034-0.075-0.045-0.118l-0.001-0.004c-0.012-0.047-0.028-0.087-0.047-0.125l0.002 0.003-0.015-0.015c-0.010-0.010-0.015-0.025-0.015-0.046-0.053-0.069-0.109-0.148-0.161-0.23l-0.008-0.014c-0.042-0.065-0.088-0.145-0.13-0.227l-0.008-0.017c-0.021-0.021-0.036-0.046-0.045-0.075l-0-0.001c-0.010-0.030-0.026-0.055-0.046-0.077l0 0c-0.044-0.065-0.084-0.12-0.127-0.172l0.004 0.005c-0.039-0.048-0.080-0.103-0.118-0.16l-0.005-0.008c-0.143-0.162-0.305-0.303-0.482-0.422l-0.009-0.006-0.553-0.366v-0.061c-0.089-0.149-0.208-0.272-0.349-0.363l-0.004-0.003-0.415-0.275-0.123-0.061c-0.042-0.021-0.093-0.041-0.145-0.058l-0.008-0.002c-0.092-0.038-0.2-0.069-0.312-0.090l-0.010-0.002c-0.104-0.019-0.224-0.030-0.346-0.030-0.003 0-0.005 0-0.008 0h0c0.020 0 0.036 0.005 0.046 0.015l0.046 0.046c-0.284-0.078-0.614-0.132-0.954-0.152l-0.013-0.001c-0.358-0.021-0.681-0.053-0.999-0.099l0.062 0.007c-0.041-0.020-0.077-0.010-0.107 0.031s-0.036 0.071-0.015 0.091l0.492 0.183c0.164 0.061 0.317 0.122 0.46 0.183 0.102 0.061 0.194 0.132 0.276 0.214s0.164 0.152 0.246 0.213c0.123 0.102 0.23 0.203 0.322 0.305s0.179 0.224 0.261 0.366v0.152c-0.139-0.138-0.295-0.259-0.465-0.36l-0.011-0.006c-0.159-0.094-0.346-0.187-0.54-0.265l-0.028-0.010c-0.106-0.054-0.238-0.111-0.374-0.16l-0.025-0.008c-0.133-0.048-0.289-0.086-0.45-0.106l-0.011-0.001v0.045c0 0.010-0.010 0.026-0.031 0.046-0.058-0.019-0.125-0.031-0.194-0.031-0.002 0-0.004 0-0.005 0h-0.2c-0.103-0.036-0.227-0.067-0.354-0.089l-0.015-0.002-0.368-0.061h-0.184c-0.028-0.001-0.054-0.007-0.079-0.016l0.002 0.001c-0.030-0.010-0.046-0.025-0.046-0.045-0.378-0.050-0.814-0.079-1.257-0.079-0.071 0-0.142 0.001-0.212 0.002l0.011-0c-0.528 0.012-1.033 0.050-1.53 0.115l0.071-0.008c-0.181 0.026-0.327 0.052-0.471 0.084l0.041-0.008c-0.144 0.031-0.287 0.056-0.43 0.076h-0.031c-0.855 0.16-1.532 0.318-2.199 0.502l0.188-0.044c-0.717 0.191-1.346 0.473-1.915 0.839l0.026-0.016 0.015-0.030c0.013-0.024 0.028-0.044 0.046-0.061l0-0c0.41-0.346 0.901-0.636 1.474-0.869 0.473-0.202 1.037-0.386 1.619-0.52l0.070-0.014 0.046-0.046c0.022-0.017 0.048-0.033 0.075-0.045l0.002-0.001c0.614-0.203 1.29-0.361 2.027-0.473s1.433-0.107 2.088 0.015c0.020 0 0.030-0.005 0.030-0.015s0.010-0.015 0.031-0.015c-0.020-0.021-0.020-0.051 0-0.092 0.025-0.047 0.056-0.087 0.092-0.122l0-0h-0.107c-0.001 0-0.002 0-0.003 0-0.029 0-0.055-0.012-0.073-0.031l-0-0c-0.041 0-0.072-0.010-0.092-0.030s-0.030-0.051-0.030-0.092c-0.553 0-1.106-0.020-1.658-0.061-0.248-0.019-0.537-0.030-0.829-0.030s-0.581 0.011-0.867 0.033l0.038-0.002c-0.086 0.029-0.152 0.054-0.217 0.083l0.017-0.007c-0.072 0.031-0.148 0.056-0.23 0.077-0.092 0.019-0.199 0.030-0.307 0.030h-0.307c-0.021 0-0.036 0.005-0.046 0.015s-0.025 0.015-0.046 0.015c-0.028 0.001-0.054 0.007-0.078 0.016l0.002-0.001c-0.023 0.009-0.049 0.014-0.076 0.015l-0.001 0h-0.123c-0.471 0.061-0.927 0.183-1.367 0.366-0.452 0.19-0.835 0.458-1.15 0.791l-0.002 0.002c-0.518 0.281-0.945 0.544-1.356 0.826l0.051-0.033c-0.441 0.301-0.827 0.612-1.187 0.95l0.005-0.004c-0.491 0.468-0.942 1.042-1.351 1.724s-0.686 1.388-0.829 2.12l0.015-0.031c0.013-0.023 0.028-0.043 0.046-0.061l0-0c0.022-0.023 0.042-0.048 0.060-0.074l0.001-0.002c0.021-0.031 0.041-0.056 0.062-0.076 0.175-0.428 0.408-0.797 0.695-1.117l-0.003 0.004c0.269-0.302 0.545-0.635 0.811-0.977l0.034-0.045c0-0.020 0.010-0.031 0.031-0.031h0.061c-0.109 0.173-0.221 0.322-0.342 0.462l0.004-0.005c-0.114 0.13-0.208 0.282-0.273 0.447l-0.004 0.010zM8.559 10.783c-0.056 0.092-0.117 0.183-0.181 0.275-0.072 0.102-0.138 0.203-0.199 0.305l-0.246 0.61c-0.001 0.028-0.007 0.054-0.016 0.078l0.001-0.002c-0.009 0.023-0.014 0.049-0.015 0.076l-0 0.001c0 0.021 0.005 0.036 0.015 0.046l0.046 0.046c0.050-0.14 0.117-0.261 0.202-0.369l-0.002 0.003c0.092-0.122 0.159-0.224 0.199-0.305 0.144-0.244 0.297-0.468 0.461-0.671 0.165-0.205 0.347-0.385 0.546-0.544l0.007-0.005c0.026-0.016 0.058-0.026 0.091-0.030l0.001-0c0.020 0 0.020 0.020 0 0.061l-0.092 0.183c0.020 0 0.036 0.005 0.046 0.015s0.005 0.036-0.015 0.076c-0.036 0.035-0.067 0.075-0.091 0.119l-0.001 0.003c-0.017 0.035-0.037 0.065-0.061 0.092l0-0c0 0.021 0.005 0.036 0.015 0.046s0.026 0.015 0.046 0.015c-0.034 0.096-0.076 0.238-0.113 0.383l-0.010 0.044c0 0.020 0.005 0.046 0.015 0.076s0.025 0.056 0.046 0.076c0.020-0.101 0.056-0.203 0.107-0.305s0.107-0.203 0.169-0.305v-0.015c0-0.010 0.010-0.015 0.031-0.015l0.062-0.122c0.025-0.047 0.056-0.087 0.092-0.122l0-0v-0.046c0-0.010 0.010-0.015 0.031-0.015 0.123-0.245 0.271-0.456 0.446-0.642l-0.001 0.001c0.174-0.183 0.353-0.356 0.537-0.519 0-0.020-0.005-0.031-0.015-0.031h-0.046c-0.041 0.020-0.087 0.046-0.138 0.076-0.034 0.021-0.080 0.047-0.126 0.070l-0.012 0.006c-0.018 0.018-0.038 0.033-0.060 0.045l-0.001 0.001c-0.024 0.012-0.044 0.027-0.061 0.045l-0 0c0 0.020-0.005 0.036-0.015 0.046s-0.026 0.015-0.046 0.015c-0.122 0.121-0.225 0.262-0.303 0.418l-0.004 0.009c-0.037 0.032-0.077 0.063-0.119 0.090l-0.004 0.002c-0.062 0.041-0.092 0.041-0.092 0 0.020-0.041 0.036-0.076 0.046-0.107s0.015-0.066 0.015-0.102c0-0.002 0-0.004-0-0.006v0h-0.015c-0.010 0-0.015-0.020-0.015-0.061 0.018-0.018 0.034-0.038 0.046-0.060l0.001-0.001 0.046-0.091v-0.122h-0.030l0.061-0.061c0.020-0.020 0.041-0.046 0.062-0.076s0.041-0.056 0.061-0.076c0.203-0.302 0.465-0.548 0.772-0.726l0.011-0.006c0.317-0.183 0.64-0.356 0.967-0.519 0.164-0.081 0.328-0.152 0.492-0.213 0.070-0.031 0.243-0.093 0.418-0.152l0.104-0.030c0.123-0.072 0.27-0.144 0.421-0.205l0.024-0.009c0.154-0.061 0.312-0.122 0.476-0.183-0.184 0.041-0.373 0.086-0.568 0.137s-0.384 0.096-0.568 0.137c-0.057 0.029-0.194 0.085-0.332 0.139l-0.082 0.028c-0.162 0.064-0.298 0.13-0.429 0.206l0.014-0.008h-0.092c-0.232 0.092-0.424 0.184-0.609 0.287l0.026-0.013c-0.225 0.125-0.406 0.236-0.581 0.354l0.028-0.018c-0.018 0.017-0.033 0.037-0.045 0.060l-0.001 0.001c-0.010 0.021-0.026 0.031-0.046 0.031s-0.031-0.005-0.031-0.015v-0.015c-0.205 0.163-0.404 0.32-0.599 0.473s-0.362 0.329-0.501 0.526l-0.005 0.008c-0.123 0.163-0.236 0.315-0.338 0.457-0.095 0.131-0.187 0.281-0.267 0.438l-0.009 0.019v0.031l-0.031 0.031c-0 0.022-0.006 0.043-0.016 0.062l0-0.001c-0.010 0.021-0.026 0.031-0.046 0.031 0.018 0.018 0.033 0.029 0.043 0.030l0.018-0.030c0 0.020-0.005 0.031-0.015 0.031l-0.003-0zM21.967 11.851c0.001-0.072 0.006-0.143 0.015-0.214 0.002-0.014 0.003-0.030 0.003-0.047 0-0.072-0.018-0.14-0.050-0.199l0.001 0.002c-0.005-0.040-0.016-0.076-0.032-0.109l0.001 0.002c-0.020-0.048-0.031-0.104-0.031-0.163 0-0.002 0-0.003 0-0.005v0c-0.060-0.060-0.116-0.125-0.165-0.193l-0.003-0.005c-0.057-0.077-0.123-0.142-0.197-0.197l-0.003-0.002c-0.041-0.040-0.086-0.075-0.135-0.105l-0.003-0.002c-0.036-0.022-0.081-0.047-0.127-0.071l-0.011-0.005c0.021 0.041 0.051 0.081 0.092 0.122s0.092 0.102 0.153 0.183c0.123 0.143 0.215 0.29 0.276 0.443l0.215 0.534v0.031zM18.343 7.794v0.061c0.521 0.097 0.984 0.244 1.42 0.442l-0.038-0.015c0.164 0.081 0.323 0.163 0.476 0.244s0.292 0.173 0.415 0.274c0.102 0.081 0.184 0.158 0.246 0.229s0.123 0.158 0.184 0.259c-0.062-0.285-0.225-0.524-0.491-0.717-0.212-0.158-0.453-0.314-0.704-0.455l-0.034-0.017c-0.212-0.092-0.459-0.166-0.717-0.211l-0.020-0.003c-0.196-0.035-0.448-0.068-0.704-0.090l-0.033-0.002zM20.892 16.763c0.471-0.042 0.942-0.076 1.413-0.107s0.942-0.054 1.413-0.076c-0.451 0-0.896-0.004-1.336-0.015-0.44-0.008-0.885-0.015-1.336-0.015h-0.338c-0.778 0.019-1.561 0.042-2.349 0.061s-1.571 0.031-2.349 0.031c-0.389-0.019-0.773-0.034-1.152-0.046-0.379-0.008-0.763-0.015-1.152-0.015-2.172 0-4.328 0.067-6.467 0.198l0.294-0.014c0.635 0 1.269-0.011 1.904-0.031s1.269-0.019 1.904 0c0.778 0.019 1.556 0.046 2.334 0.076s1.556 0.046 2.334 0.046c0.757 0 1.52-0.011 2.288-0.031s1.541-0.042 2.319-0.061h0.276z"></path>
</svg>
