<!-- Generated by IcoMoon.io -->
<svg version="1.1" xmlns="http://www.w3.org/2000/svg" width="32" height="32" viewBox="0 0 32 32">
<path d="M25.231 3.123c-0.051-0.051-0.048-0.065 0.046-0.018l0.036 0.032s-0.031-0.005-0.082-0.014zM26.74 4.854c0.013 0.005 0.026 0.014 0.047 0.037 0 0-0.020-0.014-0.047-0.037zM0.935 12.783l-0.036 0.032c0-0.014 0.036-0.032 0.036-0.032zM17.259 0.244l0.036-0.032c0.072 0.023 0.084 0.032 0.036 0.032h-0.072zM22.364 30.247c-0.317 0.315-0.394 0.139-0.719 0.463l-0.611 0.319-0.036 0.037c-0.169 0-0.312 0.106-0.503 0.106l0.144-0.069c-0.576 0.069-0.652 0.074-1.295 0.287l0.036-0.074c-0.31 0.102-0.74 0.375-0.971 0.143l-0.216 0.069h-0.216c-0.647 0-0.572 0.060-1.186 0.181l-0.324 0.037-0.359 0.069h-0.288l-0.288 0.037-0.108-0.106c-0.439 0.060-0.359 0.194-0.791 0.25l0.108-0.074c-0.431 0.144-1.084-0.093-1.51-0.176l0.036-0.074c-0.179 0-0.36-0.069-0.539-0.069h-0.108c-0.309-0.204-0.874-0.463-1.259-0.463l-0.252-0.111c-0.271-0.134-0.61-0.282-0.827-0.5l-0.108 0.074-0.288-0.143c-0.042-0.042-0.102-0.065-0.144-0.106l-0.072-0.074h-0.054c-0.038 0-0.090-0.069-0.090-0.069h0.072c0.054-0.056-0.783-0.116-0.647-0.074l-0.431-0.139c-0.12-0.042-0.288-0.092-0.459-0.134l-0.044-0.009-0.431-0.287c-0.269-0.268-0.624-0.44-0.899-0.713 0 0-0.077-0.042-0.108-0.074l-0.108-0.106c-1.103-1.092-2.363-2.074-3.416-3.212l0.144 0.069-0.252-0.25c0-0.074-0.144-0.176-0.144-0.176-0.006-0.014 0-0.037 0-0.037-0.049-0.194-0.148-0.204-0.252-0.356l0.072 0.032c-0.508-0.505-1.115-1.796-1.115-2.176 0 0-0.036-0.046-0.036-0.074l-0.431-1.282 0.108 0.176c-0.188-0.375-0.087-0.759-0.216-1.143v0.356c0-0.296-0.108-0.592-0.108-0.889 0-0.069 0.108 0.245 0.108 0.176v-0.662c0-0.102-0.288-0.426-0.288-0.375-0.369-0.731-0.358-1.532-0.611-2.282v-0.25c0-0.051-0.036-0.097-0.036-0.143v-0.218c0-0.717 0.54-3.476 0.54-1.426 0.147-0.583 0.059-0.546 0.18-1.143l0.108-0.074c0-0.083 0.032-0.167 0.065-0.25l0.013-0.032c0.034-0.083 0.065-0.167 0.065-0.25v-0.037l-0.036 0.037c0.043-0.509-0.019-0.611 0.072-1.106v0.032c0.024-0.046 0.036-0.093 0.036-0.143v-0.25l0.036-0.069v-0.106c0.052 0 0.036-0.042 0.036-0.074l0.036-0.032-0.036 0.139-0.036 0.218c0.189 0 0.611-1.588 0.611-1.93l0.036 0.037c0.123-0.194 0.422-0.741 0.611-0.93l-0.036 0.074c0.077-0.079 0.073-0.125 0.18-0.181l0.072-0.106c0-0.037 0.036-0.106 0.036-0.106l0.252-0.25c0.096-0.241 0.18-0.75 0.18-0.75 0.267-0.796 1.043-1.217 1.618-1.787l0.108-0.213 0.288-0.287c-0.105 0.069 0.504-0.944 0.504-0.963l0.216-0.218c-0.185 0.231 0.425-0.412 0.647-0.606l0.108-0.037 0.108-0.106 0.072-0.032c0.189-0.38 0.973-0.292 1.258-0.574l-0.216 0.074c0.496-0.167 0.819-0.588 1.295-0.787l0.072 0.106c0.158 0 0.363-0.218 0.503-0.287l0.072-0.037c0.073-0.069-0.027-0.106 0.072-0.106l0.108-0.069-0.288 0.106-0.359 0.25c0.154-0.12 0.051-0.287 0.252-0.287 0 0 0.045-0.032 0.072-0.032h0.072c0-0.023 0.006-0.037 0.018-0.037h0.090c0.175 0 0.489-0.069 0.647-0.106l0.431-0.143c0.137 0 0.259-0.074 0.395-0.074h0.324c0.038-0.037 0.144-0.018 0.144-0.069h-0.179c0.422 0 1.258-0.143 1.258-0.143 0.027 0 0.072-0.037 0.072-0.037h0.216s0.009 0.028 0 0.037l-0.072 0.037-0.036 0.037h-0.072c0.017 0 0.036 0.032 0.036 0.032s0.045-0.032 0.072-0.032c0 0 0.441-0.412 0.719-0.5l-0.144 0.032c0.093-0.093 0.173-0.12 0.288-0.176l-0.18 0.106c0.225-0.111 0.616-0.324 0.863-0.324l0.072 0.037h0.144c-0.017 0-0.372 0.019-0.036 0.074 0.188 0 0.138 0.032 0.359 0.106 0.523 0 0.74-0.153 1.043 0h0.719c-0.428 0 0.418 0.023 0.467 0.032h-0.216c-0.087 0 0.13 0.134 0.216 0.143 0.184-0.023 0.087-0.106 0.306-0.106h0.647c0.325 0 0.692 0.222 0.988 0.324 0.683-0.171 0.655-0.153 1.69 0.106l-0.108 0.069c0.209 0 0.359 0.181 0.54 0.181l-0.216-0.143c0.37 0.093 0.815 0.417 1.151 0.606-0.61-0.301 0.084 0.181 0.288 0.181l0.072 0.069c-0.425 0 0.644 0.551 0.971 0.824l0.108 0.106 0.108 0.069c0.112 0.056 0.241 0.106 0.359 0.143l0.36 0.106c0.192 0.079 0.549 0.162 0.709 0.199 0.144 0.139 0.717 0.579 0.909 0.801 0.247 0.287 0.42 0.63 0.647 0.93l-0.18-0.106c0.033 0.032 0.091 0.074 0.133 0.106-0.015-0.005-0.031 0-0.061 0l0.216 0.176c0.013 0 0.323 0.074 0.611 0.361l0.108 0.069 0.108 0.106 0.072 0.106-0.072-0.032c0.087 0.125 0.118 0.153 0.216 0.25l0.144 0.213c-0.301-0.301 0.464 0.708 0.683 1.069 0.292 0.481 0.72 1.467 1.295 1.75 0.131 0.264 0.539 0.921 0.539 1.787l0.108 0.037-0.108 0.25 0.036 0.287c0.207 0.102 0.154 0.106 0.252 0.282l-0.036-0.032c0 0.111 0.629 1.088 0.288 0.75l0.144 0.213h-0.036c0.040 0.116 0.108 0.356 0.108 0.356l0.144 0.43-0.036-0.037 0.288 1.106-0.323 1.606v0.074h0.036l0.072 0.213c0.112 0 0.145-0.069 0.288 0.287 0.042 0.208-0.047 0.43 0 0.643l0.108 0.319 0.072 0.106-0.036 0.143v0.074h-0.036c-0.027 0.051-0.036 0.176-0.036 0.176-0.183-0.181-0.129 0.5-0.18 0.75l0.036-0.069c-0.062 0.866-0.283 0.759-0.431 1.569v0.393l-0.072 0.074v0.139c0 0.384-0.233 0.68-0.323 1.037l-0.108 0.287-0.072 0.287c-0.334 0.472-0.6 0.93-0.899 1.426l-0.467 0.463c-0.115 0.116-0.24 0.218-0.359 0.329 0 0 0.001-0.005 0-0.005h-0.001c-0.018 0.014-0.020 0.018-0.037 0.032-0.012 0.014-0.023 0.028-0.035 0.037-0.459 0.305-0.694 0.889-0.863 1.393l-0.108 0.181-0.108 0.213c-0.141 0.143-0.408 0.305-0.608 0.38 0.013-0.007 0.023-0.014 0.033-0.023l-0 0-0.072 0.037 0.039-0.014c-1.365 0.907-2.127 1.629-3.167 2.837-0.026 0.020-0.056 0.038-0.088 0.050l-0.002 0.001-0.090 0.018c0.027 0 0.059-0.005 0.090-0.018l0.090-0.018 0.252-0.282 0.036-0.037c0.027-0.056 0.108-0.143 0.108-0.143 0.073-0.069-0.062 0.194-0.108 0.287l-0.18 0.176c-0.024 0.028-0.036 0.051-0.036 0.074h-0.144c-0.125 0.060-0.405 0.143-0.539 0.143l0.036-0.037h-0.036c-0.081 0.028-0.899 0.218-0.899 0.356h-0.072v-0.037l-0.036-0.032s-0.082 0.023-0.108 0h0.036l0.036-0.037 0.539-0.181c-0.186 0-0.539 0.143-0.539 0.143l-0.072 0.074zM29.017 24.679l-0.003 0.009c-0.003 0.009-0.007 0.017-0.013 0.023l0-0c-0.015 0.014-0.036 0.023-0.056 0.032 0.023-0.023 0.048-0.042 0.071-0.065zM28.945 24.744c-0.013 0.014-0.025 0.028-0.037 0.037l0.036-0.037h0.001zM18.867 12.968l0.011 0.009c0.007 0.009 0.019 0.014 0.034 0.014l-0.011-0.014c-0.009-0.006-0.021-0.009-0.033-0.009-0 0-0 0-0.001 0h0zM18.867 12.968l-0.023-0.023c-0.030-0.046-0.057-0.088-0.080-0.125s-0.049-0.079-0.080-0.125c-0.041-0.054-0.082-0.116-0.12-0.181l-0.005-0.009c-0.042-0.074-0.091-0.138-0.148-0.194l-0-0c-0.012-0.025-0.028-0.046-0.046-0.065l0 0c-0.016-0.020-0.031-0.043-0.044-0.067l-0.001-0.002-0.046-0.093c-0.018-0.034-0.041-0.063-0.068-0.088l-0-0c0-0.014-0.004-0.037-0.012-0.069-0.007-0.028-0.027-0.046-0.057-0.046h-0.25c-0.046 0-0.091 0.009-0.137 0.023h-2.23c-0.091 0-0.174 0.009-0.25 0.023-0.091 0.014-0.178 0.028-0.262 0.032-0.083 0.009-0.171 0.014-0.261 0.014h-0.626c-0.083 0-0.163-0.009-0.239-0.023l-0.182-0.046c-0.061-0.014-0.129-0.028-0.205-0.042h-1.16c-0.018 0.019-0.033 0.040-0.045 0.063l-0.001 0.002c-0.011 0.027-0.027 0.050-0.045 0.070l0-0c0 0.046-0.004 0.088-0.012 0.125s-0.011 0.069-0.011 0.102c-0.014 0.025-0.023 0.056-0.023 0.088v0c0 0.032-0.007 0.060-0.023 0.093-0.018 0.034-0.041 0.063-0.068 0.088l-0 0c-0.027 0.027-0.050 0.057-0.068 0.091l-0.001 0.002c-0.015 0.028-0.045 0.083-0.091 0.157s-0.053 0.13-0.023 0.157h0.796c0.106 0.014 0.213 0.028 0.319 0.032 0.106 0.009 0.22 0.014 0.341 0.014 0.137 0 0.277-0.005 0.421-0.014 0.144-0.005 0.285 0 0.421 0.014 0.061 0.014 0.114 0.028 0.159 0.032 0.045 0.009 0.098 0.014 0.159 0.014s0.125 0 0.193 0.009c0.069 0.009 0.133 0.009 0.193 0.009 0.152-0.014 0.308-0.018 0.466-0.009s0.322 0.018 0.489 0.032l0.273 0.046c0.091 0.014 0.182 0.023 0.273 0.023h0.796c0.076 0.014 0.148 0.028 0.216 0.032 0.068 0.009 0.14 0.014 0.216 0.014h0.864l0.342-0.181zM12.678 11.135l0.057-0.056c0.022-0.023 0.034-0.042 0.034-0.056 0.016-0.015 0.027-0.034 0.034-0.055l0-0.001c0.008-0.023 0.020-0.043 0.034-0.060l-0 0c0.014-0.025 0.025-0.054 0.034-0.085l0.001-0.003c0.007-0.032 0.019-0.060 0.034-0.093 0-0.042 0.011-0.079 0.034-0.111s0.042-0.060 0.057-0.093c0.012-0.025 0.028-0.046 0.046-0.065l-0 0c0.013-0.012 0.021-0.028 0.023-0.046v-0c0.015-0.046 0.022-0.088 0.022-0.125s-0.007-0.079-0.022-0.125v-0.935c0-0.143-0.008-0.282-0.023-0.421v-0.204c0-0 0-0 0-0 0-0.031-0.004-0.061-0.012-0.090l0.001 0.002c-0.007-0.028-0.011-0.060-0.011-0.093v-0.134c-0.012-0.020-0.020-0.043-0.023-0.069l-0-0.001v-0.12c0-0.009-0.023-0.018-0.068-0.037-0.015 0-0.038-0.005-0.069-0.009-0.027-0.009-0.058-0.014-0.091-0.014h-0.023l-0.046 0.023c-0.026 0.015-0.056 0.028-0.088 0.036l-0.003 0.001c-0.030 0.005-0.053 0.032-0.069 0.079 0 0.028-0.004 0.060-0.011 0.088-0.007 0.032-0.019 0.060-0.034 0.093-0.012 0.025-0.028 0.046-0.046 0.065l0-0c-0.014 0.018-0.023 0.041-0.023 0.066 0 0.001 0 0.002 0 0.003v-0c-0.015 0.032-0.030 0.065-0.045 0.102s-0.030 0.069-0.046 0.102c-0.015 0.028-0.030 0.056-0.046 0.079-0.014 0.022-0.022 0.049-0.022 0.078 0 0 0 0.001 0 0.001v-0c-0.014 0.029-0.023 0.064-0.023 0.1 0 0.001 0 0.001 0 0.002v-0 0.125c0.029 0.101 0.045 0.216 0.045 0.336 0 0.001 0 0.002 0 0.002v-0 0.296c0 0.060 0.008 0.116 0.023 0.167 0.015 0.056 0.023 0.111 0.023 0.171v0.634c0 0.028-0.004 0.065-0.011 0.111s-0.012 0.083-0.012 0.111c0.015 0.017 0.026 0.037 0.034 0.059l0 0.001c0.008 0.023 0.019 0.042 0.034 0.056l0.295 0.111zM10.835 14.028c0.076-0.074 0.152-0.143 0.228-0.204s0.129-0.125 0.159-0.204c0.031-0.042 0.053-0.088 0.069-0.134l0.046-0.134c0.016-0.015 0.027-0.034 0.034-0.055l0-0.001c0.007-0.018 0.011-0.038 0.011-0.060v-0l-0.023-0.023c-0.030-0.059-0.054-0.127-0.067-0.199l-0.001-0.005-0.046-0.222c-0.027-0.076-0.050-0.168-0.067-0.263l-0.002-0.011c-0.018-0.104-0.042-0.194-0.072-0.281l0.004 0.013c-0.018-0.078-0.033-0.136-0.051-0.192l0.005 0.021c-0.015-0.051-0.030-0.111-0.046-0.171 0-0.088-0.004-0.171-0.011-0.245-0.009-0.084-0.029-0.161-0.059-0.232l0.002 0.005c0-0.074-0.008-0.143-0.023-0.204-0.014-0.054-0.023-0.116-0.023-0.181v0c-0.015-0.074-0.030-0.148-0.046-0.218-0.015-0.065-0.023-0.139-0.023-0.213 0-0.046-0.004-0.088-0.011-0.125-0.007-0.036-0.011-0.077-0.011-0.119 0-0.002 0-0.004 0-0.006v0c-0.012-0.018-0.020-0.040-0.023-0.064l-0-0.001c0-0.018-0.015-0.023-0.046-0.023h-0.080c-0.023 0-0.041 0.014-0.057 0.046-0.030 0.042-0.061 0.097-0.091 0.157s-0.069 0.112-0.114 0.157l0-0c-0.046 0.046-0.099 0.093-0.159 0.148-0.061 0.051-0.114 0.102-0.159 0.143-0.013 0.031-0.033 0.057-0.057 0.079l-0 0c-0.022 0.023-0.041 0.049-0.056 0.077l-0.001 0.002c-0.015 0.046-0.023 0.097-0.023 0.148 0 0.056-0.007 0.102-0.023 0.148s-0.023 0.093-0.023 0.148c0 0.051-0.007 0.102-0.022 0.143 0 0.079-0.008 0.153-0.023 0.227-0.015 0.079-0.023 0.153-0.023 0.227v0.407c0 0.046 0.004 0.088 0.011 0.125s0.012 0.079 0.012 0.125c0.027 0.055 0.058 0.129 0.085 0.204l0.006 0.019c0 0.001 0 0.002 0 0.003 0 0.097 0.017 0.19 0.047 0.276l-0.002-0.006c0 0.060 0.004 0.116 0.011 0.171 0.007 0.051 0.012 0.106 0.012 0.167s0.004 0.125 0.011 0.194c0.007 0.069 0.019 0.13 0.034 0.19s0.057 0.111 0.125 0.148c0.068 0.037 0.133 0.065 0.193 0.079l0.455-0.204zM21.358 16.268c-0.025 0.005-0.048-0.018-0.067-0.069-0.023-0.060-0.042-0.106-0.057-0.134-0.073-0.075-0.143-0.153-0.211-0.234l-0.005-0.007c-0.066-0.077-0.13-0.161-0.188-0.25l-0.006-0.009c-0.015-0.014-0.034-0.037-0.057-0.065-0.018-0.026-0.036-0.049-0.057-0.069l0 0c-0.015-0.028-0.030-0.051-0.046-0.056-0.015-0.009-0.023-0.028-0.023-0.056-0.030-0.060-0.061-0.12-0.091-0.171-0.039-0.066-0.077-0.122-0.117-0.176l0.003 0.005c-0.013-0.012-0.025-0.025-0.034-0.041l-0-0.001c-0.008-0.018-0.020-0.034-0.034-0.046l-0-0c-0.015-0.016-0.026-0.034-0.034-0.054l-0-0.001c-0.008-0.023-0.020-0.043-0.034-0.060l0 0c-0.030-0.042-0.080-0.065-0.148-0.065h-0.148c-0.091 0-0.174 0.005-0.25 0.009-0.076 0.009-0.152 0.018-0.227 0.037-0.182 0.014-0.364 0.018-0.546 0.018h-1.433c-0.167-0.014-0.338-0.018-0.512-0.018s-0.353-0.018-0.535-0.046c-0.091-0.014-0.19-0.032-0.296-0.046-0.095-0.014-0.206-0.022-0.318-0.023h-0.001c-0.045-0.009-0.097-0.014-0.151-0.014-0.031 0-0.062 0.002-0.092 0.005l0.004-0c-0.084 0.005-0.163 0.009-0.239 0.009h-1.206c-0.167 0-0.337-0.005-0.512-0.009-0.174-0.009-0.353-0.018-0.534-0.037h-0.148c-0.004 0-0.010 0-0.015 0-0.048 0-0.093-0.009-0.136-0.024l0.003 0.001c-0.046 0-0.083 0-0.114-0.009s-0.061-0.009-0.091-0.009c-0.106-0.018-0.205-0.028-0.296-0.037-0.091-0.005-0.19-0.018-0.296-0.032-0.076 0-0.151-0.009-0.227-0.023s-0.162-0.023-0.25-0.023h-0c-0.045-0.009-0.098-0.014-0.151-0.014-0.031 0-0.062 0.002-0.092 0.005l0.004-0c-0.083 0.005-0.163 0-0.239-0.014-0.030 0-0.061-0.005-0.091-0.009-0.010-0.003-0.022-0.005-0.034-0.005-0.021 0-0.041 0.005-0.058 0.014l0.001-0c-0.015 0.046-0.042 0.083-0.080 0.116-0.038 0.028-0.072 0.060-0.103 0.088-0.030 0.032-0.057 0.060-0.080 0.093-0.023 0.028-0.049 0.060-0.080 0.088-0.030 0.046-0.061 0.097-0.091 0.148s-0.061 0.102-0.091 0.148c-0.076 0.12-0.148 0.236-0.216 0.347-0.069 0.116-0.125 0.231-0.171 0.352-0.031 0.074-0.065 0.157-0.103 0.236-0.038 0.083-0.087 0.157-0.148 0.218-0.031 0.014-0.057 0.033-0.079 0.055l-0 0-0.125 0.125c-0.030 0.028-0.038 0.046-0.023 0.046 0.046 0.014 0.087 0.009 0.125-0.014 0.034-0.020 0.075-0.032 0.119-0.032 0.002 0 0.004 0 0.006 0h-0c0.137-0.032 0.281-0.056 0.432-0.079s0.296-0.042 0.432-0.060c0.167-0.014 0.334-0.018 0.5-0.018h0.523c0.197 0 0.394-0.005 0.592-0.014 0.171-0.005 0.378-0.008 0.586-0.009l0.005-0h0.342c0.106 0 0.22-0.009 0.341-0.023 0.106 0 0.209-0.005 0.307-0.009 0.099-0.009 0.201-0.014 0.307-0.014h0.535c0.174 0 0.353-0.009 0.534-0.023 0.167 0 0.33-0.005 0.489-0.009 0.159-0.009 0.322-0.014 0.489-0.014h2.822c0.061 0.018 0.117 0.023 0.171 0.023s0.11 0.009 0.171 0.023h0.216c0.068 0 0.14 0.009 0.216 0.023h0.193c0.068 0 0.14 0.009 0.216 0.023 0.061 0 0.125 0.005 0.193 0.023 0.068 0.014 0.132 0.018 0.193 0.018l0.273 0.046c0.091 0.018 0.182 0.018 0.273 0 0.030 0 0.053 0 0.068-0.009s0.063-0.028 0.147-0.056zM21.358 16.268v0zM17.161 10.524c0.045 0.060 0.076 0.102 0.091 0.125s0.030 0.042 0.046 0.056c0 0.018 0.011 0.037 0.034 0.060l0.057 0.056c0.046 0.046 0.083 0.088 0.114 0.134s0.076 0.083 0.137 0.116c0.030 0.014 0.064 0.028 0.103 0.042 0.038 0.018 0.072 0.032 0.102 0.046l0.034 0.037c0.007 0.005 0.019 0 0.034-0.014 0.030 0 0.049-0.014 0.057-0.046 0.007-0.026 0.011-0.057 0.011-0.088v-0c0.031-0.106 0.046-0.218 0.046-0.329v-0.352c0-0.060 0.004-0.125 0.011-0.19 0.008-0.069 0.012-0.139 0.012-0.218v-0.19c0-0.069 0.007-0.139 0.023-0.213 0.015-0.065 0.023-0.125 0.023-0.185v-0.787c-0-0.034-0.009-0.066-0.023-0.094l0.001 0.001c0-0.014-0.004-0.028-0.012-0.046-0.011-0.017-0.022-0.033-0.034-0.047l0 0c0-0.028-0.007-0.046-0.023-0.056-0.018-0.008-0.033-0.019-0.045-0.032l-0-0c-0.039-0.029-0.084-0.052-0.133-0.068l-0.003-0.001c-0.046-0.014-0.099-0.028-0.159-0.046h-0.057c-0.023 0-0.042 0.009-0.057 0.023-0.015 0-0.030 0.014-0.046 0.037-0.013 0.021-0.029 0.039-0.046 0.055l-0 0c-0.029 0.027-0.063 0.050-0.1 0.068l-0.003 0.001c-0.044 0.016-0.078 0.030-0.111 0.045l0.008-0.003c-0.010 0.019-0.015 0.042-0.015 0.067 0 0.013 0.002 0.025 0.004 0.036l-0-0.001c0.007 0.037 0.011 0.074 0.011 0.102 0.030 0.079 0.041 0.148 0.034 0.218-0.007 0.065-0.011 0.139-0.011 0.213 0 0.106-0.008 0.204-0.023 0.296-0.015 0.081-0.023 0.173-0.023 0.268 0 0 0 0 0 0.001v-0 0.477c-0.015 0.042-0.023 0.097-0.023 0.157s-0.015 0.111-0.045 0.157c-0 0.017-0.005 0.033-0.012 0.047l0-0.001c-0.007 0.014-0.004 0.037 0.012 0.065zM20.255 14.528h0.023c0.121-0.018 0.224-0.042 0.307-0.079 0.083-0.042 0.14-0.088 0.171-0.148s0.061-0.116 0.091-0.171c0.030-0.051 0.053-0.116 0.068-0.19 0.015-0.032 0.023-0.069 0.023-0.107 0-0.003-0-0.006-0-0.009v0-0.134c0.015-0.060 0.030-0.125 0.046-0.19 0.015-0.069 0.023-0.134 0.023-0.194 0-0.093-0.004-0.185-0.012-0.282-0.007-0.089-0.011-0.194-0.011-0.299 0-0.002 0-0.005 0-0.007v0c0-0.106 0.007-0.213 0.023-0.329 0.015-0.111 0.022-0.227 0.022-0.347 0-0.093 0.004-0.176 0.012-0.25s0.019-0.157 0.034-0.25c0.014-0.066 0.026-0.146 0.033-0.228l0.001-0.008c0.003-0.024 0.004-0.052 0.004-0.080 0-0.055-0.006-0.109-0.016-0.161l0.001 0.005v-0.43c0-0.046-0.012-0.079-0.034-0.102l-0.057-0.056c-0.030-0.018-0.056-0.036-0.081-0.056l0.001 0.001-0.057-0.060c-0.066-0.030-0.143-0.053-0.223-0.064l-0.005-0.001c-0.068-0.015-0.147-0.023-0.227-0.023-0 0-0 0-0 0h-0.273c-0.046 0-0.098-0.005-0.159-0.014-0.061-0.005-0.121-0.005-0.182 0.014-0.043 0.012-0.081 0.032-0.115 0.056l0.001-0.001c-0.033 0.024-0.071 0.043-0.112 0.055l-0.003 0.001c-0.014 0.013-0.028 0.026-0.044 0.036l-0.001 0.001c-0.015 0.005-0.030 0.018-0.046 0.032s-0.019 0.032-0.011 0.056c0.007 0.023 0.011 0.051 0.011 0.079 0.015 0.032 0.019 0.069 0.011 0.111-0.007 0.046-0.011 0.083-0.011 0.116-0.015 0.060-0.027 0.116-0.034 0.171-0.007 0.043-0.011 0.093-0.012 0.143v0c0.015 0.12 0.019 0.245 0.012 0.375s-0.012 0.25-0.012 0.37v0.366c0 0.12-0.015 0.241-0.045 0.361 0 0 0 0 0 0.001 0 0.096-0.017 0.188-0.047 0.274l0.002-0.006c-0.013 0.016-0.025 0.034-0.033 0.054l-0.001 0.001c-0.007 0.023-0.019 0.051-0.034 0.079v0.204c0 0.079 0.015 0.157 0.045 0.241s0.069 0.162 0.114 0.236c0.031 0.060 0.065 0.125 0.103 0.194 0.038 0.065 0.072 0.13 0.103 0.19l0.091 0.093c0.030 0.028 0.061 0.051 0.091 0.065 0.046 0.032 0.084 0.060 0.114 0.093l0.091 0.088c0.030 0.014 0.057 0.032 0.080 0.046s0.049 0.032 0.080 0.046c0.015 0 0.027 0.005 0.034 0.009 0.007 0.009 0.019 0.014 0.034 0.014zM24.055 19.61l0.273 0.227c0.031 0 0.061 0.014 0.091 0.046 0.030 0.028 0.053 0.060 0.068 0.088 0.027 0.015 0.050 0.035 0.068 0.060l0 0.001c0.015 0.018 0.030 0.046 0.045 0.079 0 0.014 0.004 0.032 0.012 0.056s0.011 0.042 0.011 0.056c0.015 0.093 0.038 0.181 0.069 0.273 0.030 0.088 0.053 0.181 0.068 0.268 0.015 0.046 0.023 0.097 0.023 0.162 0 0.060-0.007 0.111-0.023 0.157 0 0.074-0.011 0.143-0.034 0.213s-0.034 0.134-0.034 0.194c-0.015 0.102-0.038 0.199-0.069 0.292s-0.045 0.181-0.045 0.273c-0.031 0.167-0.046 0.333-0.046 0.509 0 0.171 0.007 0.343 0.023 0.505 0 0.093 0.011 0.176 0.034 0.25s0.057 0.153 0.103 0.227c0.030 0.074 0.068 0.13 0.114 0.167 0.046 0.042 0.098 0.074 0.159 0.106 0.121 0.028 0.247 0.060 0.375 0.088 0.129 0.032 0.254 0.046 0.376 0.046 0.046 0 0.087-0.005 0.125-0.014 0.038-0.005 0.079-0.018 0.125-0.032 0.020-0.011 0.043-0.019 0.067-0.023l0.001-0c0.015 0 0.030-0.005 0.045-0.023 0.030 0 0.069-0.005 0.114-0.023 0.046-0.014 0.069-0.037 0.069-0.065v-0.069l0.011-0.023c0.007-0.012 0.012-0.026 0.012-0.042v-0c0.015-0.046 0.019-0.097 0.011-0.148-0.007-0.044-0.011-0.096-0.011-0.148v-2.079c0.028-0.162 0.044-0.35 0.045-0.541v-0.306c0-0.097-0.007-0.204-0.022-0.305-0.031-0.287-0.042-0.574-0.034-0.861 0.002-0.052 0.002-0.113 0.002-0.174 0-0.24-0.013-0.478-0.039-0.711l0.003 0.029c0-0.106-0.004-0.208-0.011-0.305-0.007-0.089-0.012-0.192-0.012-0.296 0-0.003 0-0.007 0-0.010v0c0-0.134 0.004-0.268 0.012-0.398 0.007-0.125 0.019-0.25 0.034-0.37v-0.407c0-0.134 0.007-0.273 0.023-0.407s0.027-0.264 0.034-0.384 0.019-0.25 0.034-0.384c0.014-0.025 0.023-0.056 0.023-0.088v-0.185c-0.025-0.047-0.051-0.106-0.075-0.167l-0.004-0.013c-0.028-0.074-0.055-0.134-0.085-0.191l0.005 0.011c-0.030-0.060-0.061-0.116-0.091-0.167-0.025-0.042-0.048-0.091-0.066-0.142l-0.002-0.006c-0.076-0.12-0.155-0.231-0.239-0.338-0.093-0.117-0.186-0.221-0.285-0.319l0 0c-0.076-0.060-0.163-0.111-0.261-0.157s-0.201-0.069-0.307-0.069c-0.076 0-0.152 0.005-0.228 0.014s-0.151 0.018-0.227 0.032c-0.061 0-0.121 0.018-0.182 0.046-0.061 0.032-0.114 0.069-0.159 0.111l-0.137 0.093c-0.043 0.029-0.080 0.058-0.115 0.089l0.001-0.001c-0.015 0.018-0.023 0.032-0.023 0.046v0.046c-0.015 0.046-0.023 0.093-0.023 0.148v0.167c0 0.093 0.004 0.181 0.011 0.273s0.027 0.181 0.057 0.273c0 0.060 0.008 0.125 0.023 0.204l0.046 0.222 0.091 0.542v1.801c0 0.171-0.007 0.347-0.023 0.532-0.030 0.222-0.041 0.454-0.034 0.685 0.007 0.236 0.012 0.463 0.012 0.69zM7.308 19.61c0.015-0.060 0.038-0.116 0.069-0.167 0.030-0.056 0.061-0.102 0.091-0.148 0.015-0.032 0.030-0.056 0.045-0.079 0.014-0.021 0.029-0.039 0.046-0.055l0-0c0.015 0 0.034-0.014 0.057-0.037l0.057-0.056c0.007-0.020 0.012-0.043 0.012-0.067s-0.004-0.047-0.012-0.069l0 0.001c-0.014-0.041-0.022-0.089-0.023-0.139v-0c-0.027-0.063-0.050-0.137-0.067-0.214l-0.002-0.008c-0.015-0.079-0.030-0.157-0.046-0.25v-0.361c-0.028-0.108-0.044-0.233-0.045-0.361v-0c0-0.153 0.004-0.301 0.011-0.454 0.007-0.148 0.004-0.292-0.011-0.43 0-0.088 0.004-0.171 0.011-0.245 0.007-0.079 0.019-0.153 0.034-0.227s0.027-0.148 0.034-0.218c0.007-0.065 0.011-0.13 0.011-0.19 0.015-0.060 0.023-0.12 0.023-0.181s0.007-0.12 0.023-0.181c0-0.018 0.004-0.037 0.011-0.069 0.006-0.019 0.010-0.041 0.011-0.064l0-0.001c-0.026-0.031-0.043-0.071-0.045-0.115v-0l-0.046-0.088c-0.015-0.030-0.030-0.069-0.043-0.108l-0.002-0.008c-0.030-0.046-0.057-0.097-0.079-0.157-0.019-0.056-0.055-0.102-0.102-0.134l-0.001-0.001c-0.028-0.030-0.062-0.054-0.101-0.069l-0.002-0.001c-0.038-0.014-0.072-0.032-0.103-0.046-0.045-0.028-0.083-0.046-0.114-0.056s-0.075-0.009-0.137-0.009h-0.546c-0.045 0-0.091 0-0.137 0.009s-0.091 0.018-0.137 0.032l-0.091 0.056c-0.030 0.023-0.061 0.046-0.091 0.060s-0.057 0.029-0.081 0.047l0.001-0.001c-0.023 0.014-0.034 0.042-0.034 0.088 0 0.134-0.008 0.264-0.023 0.384s-0.023 0.241-0.023 0.361v0.657c0 0.12-0.004 0.236-0.011 0.352-0.008 0.111-0.012 0.227-0.012 0.347v1.787c0 0.148-0.007 0.31-0.023 0.472-0.015 0.125-0.027 0.245-0.034 0.366s-0.004 0.245 0.012 0.384c0 0.088 0.007 0.181 0.022 0.268 0.015 0.093 0.023 0.181 0.023 0.273v0.407c0 0.074 0.004 0.153 0.012 0.236s0.011 0.162 0.011 0.236c0 0.106 0.004 0.218 0.011 0.329s0.004 0.222-0.011 0.329c-0.015 0.106-0.034 0.204-0.057 0.292-0.023 0.093-0.034 0.181-0.034 0.273v0.227c0.015 0.028 0.034 0.051 0.057 0.065 0.023 0.018 0.057 0.032 0.103 0.046 0.030 0.014 0.068 0.032 0.114 0.046l0.137 0.046c0.045 0.014 0.095 0.028 0.148 0.042 0.053 0.018 0.11 0.023 0.171 0.023 0.046 0 0.087 0.005 0.125 0.014 0.038 0.005 0.080 0.009 0.125 0.009s0.083 0.005 0.114 0.014c0.031 0.005 0.069 0.009 0.114 0.009 0.015-0.046 0.030-0.088 0.045-0.125 0.014-0.035 0.023-0.076 0.023-0.119 0-0.002-0-0.004-0-0.006v0c0.015-0.088 0.019-0.176 0.012-0.259-0.010-0.105-0.022-0.194-0.038-0.281l0.003 0.022c-0.014-0.031-0.023-0.066-0.023-0.104 0-0.002 0-0.005 0-0.007v0c0-0.046-0.007-0.093-0.022-0.139-0.001-0.032-0.009-0.062-0.023-0.089l0 0.001-0.046-0.093c-0.042-0.078-0.070-0.169-0.079-0.265l-0-0.003c-0.007-0.093-0.019-0.19-0.034-0.296v-0.259c0-0.083 0.015-0.171 0.046-0.259l0.045-0.227c0.015-0.074 0.038-0.157 0.069-0.25 0.015-0.074 0.041-0.143 0.080-0.213s0.080-0.139 0.125-0.213c0-0.018 0.008-0.037 0.023-0.060 0.015-0.018 0.030-0.046 0.046-0.079l0.227-0.204zM9.22 18.12l-0.501 0.116c0 0.042-0.004 0.083-0.011 0.12-0.007 0.041-0.028 0.076-0.057 0.102l-0 0c-0.030 0.032-0.061 0.065-0.091 0.102-0.029 0.035-0.053 0.077-0.068 0.122l-0.001 0.003c-0.015 0.032-0.027 0.056-0.034 0.079-0.007 0.022-0.018 0.041-0.034 0.055l-0 0-0.137 0.181c-0.046 0.065-0.091 0.13-0.137 0.204-0.061 0.093-0.129 0.181-0.205 0.273s-0.151 0.176-0.227 0.25c-0.091 0.102-0.178 0.208-0.262 0.315s-0.155 0.218-0.216 0.338v0.069c0.045 0.014 0.098 0.018 0.159 0.009 0.061-0.005 0.114-0.009 0.159-0.009h0.273c0.091 0 0.19-0.009 0.296-0.023 0.121-0.014 0.246-0.028 0.376-0.046l0.398-0.042c0.091-0.018 0.178-0.028 0.262-0.037 0.083-0.005 0.171-0.009 0.261-0.009 0.227-0.032 0.451-0.037 0.671-0.023s0.444 0.014 0.671 0c0.167-0.014 0.337-0.023 0.512-0.023s0.352 0.009 0.534 0.023c0.152 0 0.303 0.005 0.455 0.009 0.151 0.009 0.303 0.018 0.455 0.037 0.091 0 0.174 0.005 0.25 0.023l0.228 0.042c0.091 0.018 0.185 0.028 0.284 0.037 0.098 0.005 0.201 0.018 0.307 0.032 0.152 0.032 0.307 0.056 0.466 0.079s0.322 0.051 0.489 0.079c0.213 0.014 0.425 0.042 0.637 0.079s0.425 0.065 0.637 0.079c0.182 0.018 0.353 0.018 0.512 0 0.159-0.014 0.33-0.028 0.512-0.042 0.152-0.018 0.308-0.032 0.466-0.046s0.315-0.023 0.466-0.023h0.637c0.212 0 0.425-0.014 0.637-0.046 0.258-0.028 0.516-0.046 0.774-0.046h1.854c0.357 0 0.717 0.009 1.081 0.023 0.227 0 0.459-0.005 0.694-0.009 0.235-0.009 0.466-0.028 0.694-0.056 0.015 0 0.046-0.005 0.091-0.014 0.045-0.005 0.076-0.023 0.091-0.056 0-0.014-0.007-0.028-0.023-0.032-0.015-0.009-0.023-0.018-0.023-0.037v-0.042c-0.015 0-0.027-0.005-0.034-0.014l-0.011-0.009-0.137-0.093c-0.046-0.028-0.083-0.051-0.114-0.065-0.019-0.013-0.042-0.022-0.068-0.023h-0.068c-0.001 0-0.001 0-0.002 0-0.028 0-0.053-0.015-0.067-0.037l-0-0c-0.015-0.023-0.030-0.046-0.046-0.079-0.015-0.028-0.019-0.051-0.011-0.065 0.007-0.018 0.027-0.018 0.057 0 0-0.018-0.004-0.042-0.011-0.079-0.007-0.040-0.019-0.076-0.036-0.109l0.001 0.003c0-0.028-0.007-0.056-0.022-0.088-0.020-0.035-0.043-0.066-0.069-0.093l0 0c-0.028-0.026-0.058-0.052-0.088-0.077l-0.003-0.002c-0.030-0.018-0.069-0.046-0.114-0.079l-0.103-0.102c-0.038-0.036-0.079-0.070-0.122-0.1l-0.003-0.002c-0.045-0.046-0.087-0.093-0.125-0.143-0.039-0.055-0.080-0.104-0.125-0.148l-0-0c-0.045-0.074-0.087-0.148-0.125-0.218-0.043-0.072-0.092-0.134-0.148-0.19l-0-0c-0.045-0.046-0.098-0.093-0.159-0.134-0.061-0.046-0.098-0.093-0.114-0.139-0.015-0.014-0.022-0.023-0.022-0.032s-0.008-0.018-0.023-0.032c-0.015 0-0.042 0.005-0.080 0.009-0.023 0.007-0.050 0.012-0.078 0.014l-0.001 0c-0.030 0-0.057 0-0.080 0.009s-0.048 0.014-0.075 0.014c-0.002 0-0.003-0-0.005-0h-3.777c-0.167 0.014-0.334 0.023-0.501 0.032-0.167 0.005-0.341 0.009-0.523 0.009h-1.456l-0.751-0.042c-0.243-0.018-0.486-0.023-0.728-0.023h-1.115c-0.152 0-0.307-0.014-0.466-0.037-0.137-0.021-0.296-0.032-0.457-0.032-0.003 0-0.007 0-0.010 0h0.001c-0.227-0.014-0.459-0.023-0.694-0.023h-2.56zM17.275 11.047h0.023c-0.031-0.046-0.057-0.088-0.080-0.125s-0.049-0.079-0.080-0.125c-0.015-0.028-0.030-0.065-0.046-0.102s-0.030-0.069-0.046-0.102c-0.010-0.016-0.018-0.035-0.022-0.055l-0-0.001c0-0.009-0.015-0.014-0.046-0.014-0.015-0.007-0.033-0.010-0.051-0.010s-0.036 0.004-0.052 0.011l0.001-0c-0.029 0.015-0.063 0.023-0.099 0.023-0.001 0-0.002 0-0.003-0h0c-0.122 0.018-0.247 0.018-0.376 0.014-0.041-0.003-0.090-0.005-0.138-0.005-0.084 0-0.166 0.005-0.247 0.015l0.010-0.001c-0.167 0-0.33-0.005-0.489-0.009-0.159-0.009-0.322-0.014-0.489-0.014-0.061 0-0.122 0.005-0.182 0.014-0.061 0.005-0.121 0.005-0.182-0.014-0.121 0-0.235-0.005-0.341-0.023-0.095-0.014-0.206-0.022-0.318-0.023h-0.001c-0.065-0.012-0.151-0.023-0.238-0.031l-0.013-0.001c-0.093-0.006-0.179-0.017-0.262-0.034l0.012 0.002c-0.037-0.002-0.072-0.010-0.105-0.024l0.002 0.001c-0.030-0.013-0.065-0.021-0.101-0.023l-0.001-0c-0.030 0.014-0.042 0.028-0.034 0.037 0.008 0.005 0.004 0.023-0.011 0.056 0 0.028-0.004 0.065-0.011 0.102s-0.019 0.079-0.034 0.12c0 0.065-0.019 0.12-0.057 0.171s-0.064 0.111-0.080 0.171c0.030 0.014 0.069 0.014 0.114 0 0.040-0.014 0.087-0.022 0.136-0.023h0.001c0.137 0 0.277-0.005 0.421-0.014 0.144-0.005 0.284-0.009 0.421-0.009h1.616c0.106 0 0.205 0.005 0.296 0.009 0.091 0.009 0.19 0.023 0.295 0.037 0.046 0 0.095 0.005 0.148 0.009 0.053 0.009 0.103 0.018 0.148 0.032h0.091c0.061 0.018 0.121 0.023 0.182 0.014s0.167-0.028 0.319-0.056z"></path>
</svg>
