<!-- Generated by IcoMoon.io -->
<svg version="1.1" xmlns="http://www.w3.org/2000/svg" width="32" height="32" viewBox="0 0 32 32">
<path d="M0.935 12.786l-0.036 0.037c0-0.018 0.036-0.037 0.036-0.037zM17.258 0.252l0.036-0.037c0.072 0.023 0.084 0.037 0.036 0.037h-0.072zM22.364 30.251c-0.317 0.315-0.395 0.144-0.72 0.463l-0.611 0.324-0.036 0.032c-0.17 0-0.313 0.106-0.504 0.106l0.144-0.069c-0.576 0.069-0.652 0.074-1.295 0.287l0.036-0.074c-0.31 0.106-0.739 0.375-0.971 0.144l-0.216 0.074h-0.216c-0.647 0-0.572 0.056-1.186 0.176l-0.323 0.037-0.36 0.069h-0.288l-0.288 0.037-0.108-0.106c-0.439 0.060-0.359 0.194-0.791 0.25l0.108-0.069c-0.431 0.139-1.083-0.097-1.51-0.18l0.036-0.069c-0.179 0-0.361-0.074-0.54-0.074h-0.108c-0.309-0.204-0.874-0.463-1.259-0.463l-0.252-0.106c-0.271-0.134-0.61-0.287-0.827-0.5l-0.108 0.070-0.288-0.144c-0.042-0.042-0.102-0.065-0.144-0.106l-0.072-0.070h-0.054c-0.038 0-0.090-0.074-0.090-0.074h0.072c0.054-0.051-0.783-0.116-0.647-0.069l-0.432-0.144c-0.162-0.056-0.338-0.102-0.503-0.144l-0.432-0.287c-0.269-0.264-0.624-0.44-0.899-0.713 0 0-0.077-0.042-0.108-0.069l-0.108-0.111c-1.103-1.092-2.363-2.074-3.416-3.212l0.144 0.069-0.252-0.25c0-0.074-0.144-0.176-0.144-0.176-0.006-0.009 0-0.037 0-0.037-0.049-0.194-0.148-0.199-0.252-0.356l0.072 0.037c-0.508-0.509-1.115-1.801-1.115-2.18 0 0-0.036-0.046-0.036-0.069l-0.431-1.287 0.108 0.176c-0.188-0.37-0.088-0.759-0.216-1.139v0.356c0-0.301-0.108-0.597-0.108-0.893 0-0.069 0.108 0.245 0.108 0.176v-0.657c0-0.106-0.287-0.43-0.287-0.375-0.369-0.736-0.359-1.532-0.611-2.287v-0.25c0-0.051-0.036-0.093-0.036-0.144v-0.213c0-0.722 0.539-3.481 0.539-1.43 0.147-0.583 0.060-0.546 0.18-1.143l0.108-0.070c0-0.088 0.032-0.171 0.065-0.255l0.014-0.032c0.034-0.083 0.065-0.162 0.065-0.25v-0.037l-0.036 0.037c0.042-0.509-0.019-0.611 0.072-1.106v0.032c0.022-0.040 0.035-0.088 0.036-0.139v-0.25l0.036-0.074v-0.106c0.052 0 0.036-0.042 0.036-0.070l0.036-0.037-0.036 0.143-0.036 0.213c0.189 0 0.611-1.583 0.611-1.93l0.036 0.037c0.123-0.194 0.422-0.741 0.611-0.93l-0.036 0.074c0.076-0.079 0.072-0.125 0.18-0.18l0.072-0.106c0-0.037 0.036-0.106 0.036-0.106l0.252-0.25c0.096-0.241 0.18-0.75 0.18-0.75 0.267-0.796 1.043-1.213 1.618-1.787l0.108-0.213 0.288-0.287c-0.105 0.069 0.503-0.944 0.503-0.963l0.216-0.213c-0.185 0.227 0.425-0.412 0.647-0.611l0.108-0.032 0.108-0.106 0.072-0.037c0.19-0.38 0.973-0.292 1.258-0.574l-0.215 0.074c0.495-0.167 0.818-0.583 1.294-0.787l0.072 0.106c0.158 0 0.364-0.218 0.504-0.287l0.072-0.032c0.073-0.074-0.027-0.106 0.072-0.106l0.108-0.074-0.288 0.106-0.36 0.25c0.154-0.12 0.051-0.282 0.252-0.282 0 0 0.045-0.037 0.072-0.037h0.072c0-0.023 0.006-0.037 0.018-0.037h0.090c0.176 0 0.489-0.065 0.647-0.106l0.432-0.144c0.138 0 0.259-0.069 0.396-0.069h0.323c0.038-0.037 0.144-0.018 0.144-0.074h-0.18c0.422 0 1.258-0.143 1.258-0.143 0.027 0 0.072-0.032 0.072-0.032h0.216s0.008 0.028 0 0.032l-0.072 0.037-0.036 0.037h-0.072c0.017 0 0.036 0.037 0.036 0.037s0.045-0.037 0.072-0.037c0 0 0.442-0.407 0.719-0.5l-0.144 0.037c0.093-0.097 0.174-0.125 0.288-0.181l-0.18 0.106c0.225-0.111 0.615-0.319 0.863-0.319l0.072 0.032h0.144c-0.017 0-0.372 0.018-0.036 0.074 0.188 0 0.139 0.032 0.359 0.106 0.524 0 0.74-0.153 1.043 0h0.719c-0.428 0 0.418 0.023 0.467 0.037h-0.216c-0.086 0 0.13 0.13 0.216 0.144 0.184-0.023 0.088-0.111 0.306-0.111h0.647c0.325 0 0.692 0.227 0.989 0.324 0.683-0.171 0.655-0.153 1.69 0.106l-0.108 0.070c0.208 0 0.358 0.18 0.539 0.18l-0.216-0.143c0.37 0.093 0.815 0.417 1.151 0.606-0.61-0.301 0.085 0.18 0.288 0.18l0.072 0.069c-0.425 0 0.644 0.551 0.971 0.824l0.108 0.106 0.108 0.069c0.099 0.050 0.218 0.099 0.341 0.138l0.018 0.005 0.36 0.106c0.193 0.079 0.549 0.162 0.709 0.199 0.144 0.143 0.717 0.579 0.909 0.801 0.246 0.287 0.42 0.629 0.647 0.93l-0.18-0.107c0.033 0.032 0.092 0.079 0.133 0.106-0.015-0.005-0.031 0-0.062 0l0.216 0.181c0.013 0 0.324 0.069 0.611 0.356l0.108 0.069 0.108 0.106 0.072 0.111-0.072-0.037c0.087 0.13 0.118 0.153 0.216 0.25l0.144 0.213c-0.301-0.301 0.463 0.708 0.683 1.069 0.292 0.486 0.719 1.467 1.294 1.754 0.131 0.259 0.54 0.916 0.54 1.782l0.108 0.037-0.108 0.25 0.036 0.287c0.207 0.102 0.154 0.111 0.252 0.287l-0.036-0.037c0 0.111 0.628 1.088 0.288 0.75l0.144 0.213h-0.036c0.040 0.12 0.108 0.356 0.108 0.356l0.144 0.43-0.036-0.037 0.288 1.106-0.324 1.611v0.069h0.036l0.072 0.213c0.112 0 0.145-0.065 0.288 0.287 0.042 0.208-0.047 0.435 0 0.643l0.108 0.319 0.072 0.111-0.036 0.139v0.074h-0.036c-0.027 0.056-0.036 0.176-0.036 0.176-0.183-0.18-0.129 0.5-0.18 0.75l0.036-0.069c-0.062 0.87-0.283 0.764-0.432 1.574v0.389l-0.072 0.074v0.143c0 0.38-0.233 0.676-0.323 1.032l-0.108 0.287-0.072 0.287c-0.334 0.472-0.6 0.935-0.899 1.43l-0.467 0.463c-0.115 0.111-0.239 0.218-0.358 0.324 0 0 0.001-0.005 0-0.005h-0.001c-0.018 0.018-0.020 0.018-0.037 0.037-0.012 0.009-0.023 0.023-0.035 0.037-0.459 0.301-0.694 0.889-0.863 1.393l-0.108 0.176-0.108 0.213c-0.141 0.144-0.409 0.306-0.609 0.38 0.011-0.005 0.022-0.014 0.033-0.019l-0.072 0.032c0.013-0.005 0.026-0.009 0.039-0.014-1.365 0.907-2.126 1.629-3.167 2.837-0.022 0.023-0.055 0.042-0.090 0.051l-0.090 0.018c0.001 0 0.001 0 0.002 0 0.032 0 0.062-0.007 0.089-0.019l-0.001 0.001 0.090-0.014 0.252-0.287 0.036-0.037c0.027-0.051 0.108-0.143 0.108-0.143 0.072-0.069-0.062 0.194-0.108 0.287l-0.179 0.18c-0.024 0.023-0.036 0.046-0.036 0.069h-0.144c-0.125 0.060-0.405 0.144-0.54 0.144l0.036-0.037h-0.036c-0.081 0.028-0.899 0.218-0.899 0.356h-0.072v-0.032l-0.036-0.037s-0.082 0.023-0.108 0h0.036l0.036-0.037 0.539-0.176c-0.186 0-0.539 0.143-0.539 0.143l-0.072 0.069zM29.017 24.682c-0.001 0.005-0.002 0.009-0.003 0.009-0.003 0.009-0.008 0.017-0.013 0.023l0-0c-0.014 0.016-0.034 0.028-0.055 0.032l-0.001 0c0.024-0.018 0.048-0.042 0.072-0.065zM28.945 24.747c-0.013 0.014-0.025 0.028-0.037 0.037l0.036-0.032 0.001-0.005zM25.231 3.126c-0.050-0.051-0.048-0.065 0.046-0.019l0.036 0.037s-0.031-0.009-0.082-0.018zM26.74 4.857c0.013 0.005 0.025 0.014 0.047 0.037 0 0-0.020-0.014-0.047-0.037zM25.029 14.647c0.066-0.046 0.115-0.116 0.148-0.194 0.036-0.093 0.069-0.166 0.105-0.237l-0.007 0.015c0.075-0.099 0.141-0.212 0.193-0.332l0.004-0.011c0.049-0.116 0.107-0.236 0.173-0.366 0.033-0.083 0.053-0.148 0.062-0.194 0.008-0.051-0.037-0.042-0.136 0.023-0.052 0.136-0.11 0.251-0.177 0.361l0.005-0.009c-0.041 0.063-0.106 0.172-0.17 0.282l-0.027 0.051c-0.064 0.127-0.118 0.222-0.174 0.316l0.013-0.024c-0.069 0.12-0.13 0.217-0.195 0.311l0.010-0.015-0.148 0.194c-0.049 0.065-0.099 0.125-0.148 0.171-0.033 0.051-0.066 0.093-0.098 0.134s-0.066 0.079-0.099 0.111l-0.012-0.023c-0.008-0.018-0.020-0.032-0.037-0.051-0.012-0.022-0.024-0.050-0.035-0.078l-0.002-0.005c-0.008-0.028-0.029-0.056-0.062-0.088-0.049-0.079-0.119-0.153-0.21-0.218s-0.177-0.125-0.259-0.171c-0.066-0.051-0.128-0.102-0.185-0.148-0.058-0.051-0.119-0.097-0.185-0.148-0.098-0.097-0.201-0.18-0.308-0.245-0.117-0.072-0.218-0.144-0.313-0.222l0.005 0.004c-0.131-0.083-0.251-0.176-0.358-0.282s-0.226-0.204-0.357-0.282c-0.049-0.051-0.107-0.093-0.173-0.134s-0.123-0.088-0.172-0.134c-0.066-0.051-0.127-0.102-0.185-0.162-0.056-0.054-0.116-0.105-0.179-0.154l-0.005-0.004c-0.164-0.148-0.349-0.255-0.555-0.319s-0.406-0.13-0.604-0.194c-0.082-0.018-0.168-0.032-0.259-0.051-0.088-0.014-0.166-0.040-0.239-0.076l0.005 0.002c-0.049-0.014-0.094-0.032-0.135-0.060-0.041-0.023-0.087-0.042-0.136-0.060-0.132-0.051-0.267-0.097-0.407-0.148-0.14-0.046-0.267-0.106-0.382-0.171l-0.172-0.083c-0.049-0.028-0.099-0.056-0.148-0.088s-0.102-0.056-0.16-0.074c-0.057-0.014-0.111-0.032-0.16-0.046-0.098-0.032-0.197-0.060-0.295-0.074-0.099-0.018-0.206-0.032-0.321-0.051-0.099-0.032-0.21-0.046-0.333-0.046h-1.245c-0.165 0-0.321 0.005-0.468 0.023-0.148 0-0.294 0.009-0.437 0.025l0.018-0.002c-0.131 0.018-0.263 0.042-0.394 0.074-0.082 0-0.16 0.009-0.234 0.023-0.074 0.018-0.144 0.028-0.209 0.028l-0.148 0.046c-0.044 0.017-0.095 0.028-0.148 0.028h-0c-0.099 0.014-0.197 0.028-0.296 0.037-0.098 0.005-0.197 0.018-0.296 0.032-0.227 0.020-0.436 0.064-0.635 0.131l0.019-0.006c-0.197 0.065-0.394 0.12-0.592 0.171-0.066 0.032-0.136 0.056-0.209 0.074-0.070 0.013-0.132 0.039-0.187 0.075l0.002-0.001c-0.049 0.032-0.090 0.060-0.123 0.083-0.033 0.028-0.066 0.056-0.099 0.088-0.131 0.079-0.263 0.153-0.394 0.218-0.142 0.070-0.263 0.144-0.377 0.227l0.007-0.005c-0.066 0.033-0.123 0.073-0.173 0.121l0-0c-0.052 0.054-0.108 0.102-0.169 0.146l-0.004 0.002-0.296 0.194c-0.099 0.069-0.197 0.134-0.296 0.208s-0.197 0.139-0.296 0.185l-0.394 0.245c-0.139 0.089-0.26 0.185-0.371 0.292l0.001-0.001c-0.061 0.064-0.121 0.132-0.179 0.202l-0.005 0.007c-0.058 0.074-0.119 0.153-0.185 0.236-0.051 0.066-0.103 0.125-0.16 0.18l-0 0c-0.056 0.059-0.102 0.128-0.134 0.204l-0.002 0.004c-0.073 0.147-0.147 0.271-0.228 0.39l0.007-0.010c-0.071 0.105-0.145 0.229-0.212 0.358l-0.010 0.022c-0.016-0.014-0.033-0.037-0.049-0.060s-0.025-0.050-0.025-0.080c0-0.001 0-0.002 0-0.004v0c-0.131-0.185-0.261-0.399-0.379-0.62l-0.016-0.032c-0.115-0.218-0.238-0.444-0.37-0.671-0.033-0.051-0.062-0.097-0.086-0.148-0.032-0.060-0.060-0.109-0.091-0.156l0.005 0.008c-0.016-0.032-0.037-0.069-0.062-0.106-0.025-0.042-0.037-0.079-0.037-0.111-0.017-0.032-0.025-0.069-0.025-0.111s-0.008-0.079-0.025-0.111c-0.033 0.065-0.037 0.139-0.013 0.222 0.025 0.079 0.045 0.144 0.062 0.194 0 0.083 0.004 0.162 0.012 0.231 0.008 0.074 0.020 0.144 0.037 0.208s0.033 0.134 0.049 0.208c0.016 0.074 0.033 0.143 0.049 0.208l0.197 0.639c0.074 0.238 0.157 0.44 0.257 0.633l-0.010-0.022c0.016 0.065 0.041 0.125 0.074 0.171 0.033 0.051 0.057 0.106 0.074 0.171-0.017 0.032-0.029 0.065-0.037 0.097s-0.020 0.065-0.037 0.097c-0.033 0.116-0.066 0.236-0.099 0.356-0.033 0.125-0.066 0.241-0.098 0.356-0.020 0.113-0.045 0.211-0.078 0.305l0.004-0.014-0.099 0.296c-0.019 0.112-0.045 0.21-0.078 0.305l0.004-0.013-0.099 0.296c0.016-0.032 0.037-0.069 0.062-0.111s0.045-0.079 0.062-0.111c0.074-0.13 0.139-0.235 0.208-0.336l-0.011 0.017c0.061-0.090 0.119-0.193 0.167-0.302l0.005-0.013c0.071-0.147 0.125-0.249 0.18-0.349l-0.020 0.039c0.074-0.131 0.135-0.23 0.199-0.328l-0.014 0.023c0.016-0.014 0.028-0.032 0.037-0.046 0.008-0.019 0.012-0.032 0.012-0.051l0.099 0.199c0.016 0.028 0.033 0.060 0.049 0.083s0.033 0.051 0.049 0.088c0.049 0.046 0.090 0.106 0.123 0.18s0.066 0.143 0.099 0.208c0.049 0.083 0.098 0.167 0.148 0.259 0.049 0.088 0.099 0.176 0.148 0.255 0.094 0.189 0.184 0.345 0.283 0.495l-0.011-0.019c0.099 0.157 0.206 0.315 0.321 0.481 0.033 0.032 0.066 0.069 0.099 0.106 0.033 0.042 0.066 0.079 0.098 0.111 0.049 0.051 0.095 0.102 0.136 0.162 0.041 0.056 0.078 0.106 0.111 0.157 0.082 0.097 0.172 0.19 0.271 0.268 0.094 0.080 0.199 0.153 0.31 0.217l0.010 0.005c0.299 0.145 0.493 0.247 0.685 0.352l-0.093-0.047c0.197 0.106 0.403 0.19 0.617 0.254 0.082 0.032 0.168 0.065 0.259 0.088s0.177 0.051 0.259 0.083c0.115 0.051 0.222 0.097 0.32 0.139 0.099 0.037 0.197 0.083 0.296 0.134 0.115 0.071 0.256 0.148 0.401 0.218l0.030 0.013c0.12 0.059 0.27 0.121 0.425 0.176l0.031 0.009c0.049 0.014 0.099 0.028 0.148 0.037 0.049 0.005 0.098 0.009 0.148 0.009l0.296 0.097c0.098 0.032 0.21 0.051 0.333 0.051s0.242 0.009 0.357 0.023c0.115 0.032 0.234 0.051 0.357 0.051h0.382c0.115 0 0.226 0.009 0.333 0.037 0.107 0.023 0.218 0.042 0.333 0.060 0.066 0.014 0.131 0.023 0.197 0.023s0.132 0.009 0.198 0.023c0.049 0 0.102 0.009 0.16 0.028 0.058 0.014 0.119 0.032 0.185 0.046 0.066 0.018 0.127 0.028 0.185 0.028h0.185c0.131 0.014 0.254 0.023 0.37 0.023s0.23-0.009 0.345-0.023c0.221-0.040 0.403-0.083 0.582-0.135l-0.040 0.010 0.542-0.148c0.165-0.032 0.333-0.074 0.506-0.12 0.185-0.054 0.344-0.12 0.494-0.201l-0.014 0.007c0.066-0.019 0.124-0.042 0.172-0.074s0.099-0.060 0.148-0.074c0.033-0.018 0.070-0.037 0.111-0.060 0.041-0.028 0.078-0.046 0.111-0.065 0.033-0.032 0.061-0.065 0.086-0.097s0.045-0.056 0.062-0.074c0.049-0.065 0.111-0.116 0.185-0.157s0.144-0.079 0.21-0.111c0.121-0.057 0.214-0.107 0.304-0.159l-0.021 0.011c0.090-0.046 0.185-0.097 0.283-0.144 0.064-0.049 0.137-0.092 0.216-0.123l0.006-0.002c0.085-0.034 0.158-0.074 0.225-0.123l-0.003 0.002 0.198-0.097c0.066-0.032 0.123-0.065 0.172-0.102 0.066-0.046 0.123-0.097 0.172-0.157 0.049-0.056 0.099-0.111 0.148-0.157 0.033-0.032 0.069-0.060 0.111-0.088 0.041-0.023 0.069-0.060 0.086-0.106 0.033-0.051 0.062-0.102 0.086-0.148 0.025-0.051 0.045-0.097 0.062-0.148 0.089-0.16 0.178-0.296 0.277-0.425l-0.006 0.008c0.088-0.113 0.177-0.241 0.26-0.374l0.011-0.020c0.023-0.039 0.068-0.13 0.112-0.222l0.024-0.055c0.046-0.103 0.092-0.188 0.142-0.27l-0.006 0.011c0.081-0.12 0.15-0.215 0.221-0.308l-0.012 0.016c0.066-0.089 0.135-0.194 0.2-0.301l0.010-0.018c0.016-0.051 0.029-0.093 0.037-0.125s0.021-0.069 0.037-0.12c0.034-0.121 0.080-0.228 0.139-0.325l-0.003 0.006c0.072-0.123 0.133-0.218 0.197-0.311l-0.012 0.019v0.009c0 0.009 0.008 0.014 0.025 0.014 0.085 0.122 0.208 0.309 0.326 0.499l0.044 0.075c0.102 0.164 0.209 0.361 0.305 0.565l0.016 0.037 0.099 0.245c0.033 0.079 0.074 0.162 0.123 0.245 0 0.014 0.004 0.032 0.013 0.046 0.008 0.018 0.012 0.032 0.012 0.051 0.017 0 0.025 0.005 0.025 0.014v0.009l0.197 0.611c0.017 0 0.025 0.005 0.025 0.014s0.008 0.014 0.025 0.014l-0.098-0.296c-0.030-0.056-0.052-0.122-0.062-0.191l-0-0.003c-0.008-0.065-0.028-0.139-0.062-0.222-0.015-0.058-0.028-0.129-0.036-0.202l-0.001-0.007c-0.009-0.079-0.022-0.15-0.040-0.219l0.002 0.011c-0.016-0.079-0.037-0.153-0.061-0.218-0.030-0.081-0.059-0.147-0.092-0.211l0.005 0.012c-0.033-0.079-0.079-0.208-0.121-0.338l-0.014-0.050c-0.046-0.151-0.092-0.274-0.145-0.394l0.009 0.023c-0.037-0.090-0.079-0.211-0.115-0.335l-0.008-0.031c-0.045-0.156-0.087-0.277-0.134-0.396l0.011 0.031c0.016-0.018 0.033-0.046 0.049-0.088s0.025-0.079 0.025-0.111c0.049-0.13 0.102-0.264 0.16-0.403s0.136-0.264 0.234-0.38zM23.6 16.804c-0.082 0.111-0.168 0.231-0.259 0.352-0.090 0.125-0.177 0.241-0.259 0.356-0.131 0.162-0.254 0.329-0.37 0.491s-0.246 0.324-0.394 0.491c-0.132 0.13-0.263 0.273-0.395 0.426-0.131 0.157-0.263 0.306-0.394 0.454-0.049 0.051-0.107 0.097-0.172 0.148-0.066 0.046-0.14 0.097-0.222 0.144l-0.148 0.102c-0.049 0.032-0.107 0.056-0.172 0.069-0.045 0.034-0.099 0.060-0.157 0.073l-0.003 0.001c-0.058 0.019-0.111 0.042-0.16 0.074-0.082 0.051-0.16 0.097-0.234 0.148s-0.16 0.088-0.259 0.12c-0.19 0.114-0.262 0.16-0.334 0.206l0.113-0.068c-0.070 0.040-0.152 0.076-0.237 0.104l-0.010 0.003c-0.015 0.014-0.22 0.085-0.426 0.153l-0.19 0.055c-0.214 0.074-0.427 0.13-0.641 0.162-0.164 0.032-0.333 0.056-0.505 0.074-0.172 0.014-0.341 0.032-0.506 0.046-0.148 0.032-0.291 0.056-0.431 0.060-0.127 0.009-0.276 0.014-0.425 0.014-0.002 0-0.004 0-0.007 0h0c-0.115 0-0.23-0.005-0.345-0.014-0.115-0.005-0.23-0.028-0.345-0.060-0.115-0.014-0.238-0.037-0.37-0.060s-0.254-0.051-0.37-0.088c-0.093-0.016-0.176-0.040-0.255-0.072l0.008 0.003c-0.071-0.033-0.154-0.059-0.241-0.073l-0.006-0.001c-0.177-0.043-0.309-0.081-0.439-0.124l0.044 0.012c-0.086-0.030-0.217-0.068-0.351-0.102l-0.043-0.009c-0.312-0.079-0.616-0.185-0.912-0.306-0.337-0.138-0.62-0.282-0.891-0.446l0.028 0.016c-0.115-0.065-0.234-0.13-0.357-0.194-0.14-0.075-0.257-0.147-0.369-0.225l0.011 0.008c-0.115-0.069-0.222-0.139-0.321-0.213-0.089-0.064-0.194-0.132-0.302-0.194l-0.018-0.010c-0.082-0.051-0.164-0.106-0.247-0.162-0.094-0.063-0.174-0.124-0.251-0.189l0.004 0.004c-0.115-0.079-0.222-0.171-0.32-0.268-0.092-0.090-0.189-0.178-0.288-0.262l-0.008-0.006c-0.131-0.116-0.259-0.231-0.382-0.356-0.123-0.12-0.24-0.243-0.351-0.372l-0.006-0.007c-0.085-0.1-0.169-0.191-0.258-0.277l-0.001-0.001c-0.090-0.093-0.16-0.194-0.209-0.31-0.072-0.122-0.141-0.224-0.216-0.323l0.006 0.008c-0.070-0.092-0.139-0.196-0.202-0.305l-0.007-0.014c-0.017-0.019-0.029-0.032-0.037-0.051l-0.012-0.023c0.016-0.032 0.028-0.065 0.037-0.097s0.020-0.065 0.037-0.097c0.226-0.372 0.357-0.576 0.489-0.779l-0.094 0.154c0.136-0.209 0.29-0.39 0.466-0.549l0.002-0.002c0.141-0.141 0.294-0.27 0.457-0.386l0.011-0.007 0.493-0.343c0.050-0.047 0.106-0.087 0.168-0.118l0.004-0.002 0.592-0.296c0.087-0.042 0.189-0.080 0.296-0.108l0.012-0.003c0.107-0.023 0.218-0.060 0.333-0.106 0.103-0.038 0.255-0.086 0.409-0.128l0.047-0.011c0.156-0.037 0.316-0.083 0.48-0.134 0.296-0.079 0.588-0.171 0.875-0.268s0.579-0.181 0.875-0.245c0.082-0.014 0.16-0.037 0.234-0.060s0.16-0.046 0.259-0.060c0.099 0 0.197-0.009 0.296-0.023l0.295-0.051c0.148-0.014 0.288-0.037 0.419-0.060s0.263-0.046 0.394-0.060h1.479c0.213 0 0.419 0.014 0.616 0.046 0.049 0 0.103 0.014 0.16 0.037s0.111 0.046 0.16 0.060c0.066 0.019 0.131 0.028 0.197 0.037s0.131 0.023 0.197 0.037c0.115 0.019 0.23 0.042 0.345 0.074l0.345 0.097c0.11 0.041 0.254 0.083 0.401 0.119l0.030 0.006c0.14 0.032 0.275 0.074 0.407 0.12 0.099 0.032 0.197 0.069 0.296 0.111s0.197 0.079 0.296 0.111c0.066 0.032 0.131 0.060 0.197 0.083s0.131 0.056 0.197 0.088c0.016 0.014 0.041 0.037 0.074 0.060s0.057 0.046 0.074 0.060c0.099 0.051 0.193 0.097 0.284 0.134 0.090 0.042 0.185 0.097 0.283 0.162 0.082 0.046 0.169 0.106 0.259 0.18 0.083 0.068 0.175 0.13 0.274 0.181l0.009 0.004 0.296 0.194c0.098 0.065 0.189 0.139 0.271 0.222s0.164 0.157 0.246 0.231c0.082 0.074 0.164 0.162 0.247 0.259 0.049 0.065 0.103 0.13 0.16 0.194s0.111 0.13 0.16 0.194c0.061 0.104 0.11 0.181 0.161 0.257l-0.013-0.021c0.045 0.063 0.094 0.138 0.14 0.216l0.009 0.016c0.033 0.032 0.057 0.065 0.074 0.097s0.041 0.056 0.074 0.074c-0.066 0.162-0.139 0.319-0.222 0.463l-0.246 0.444zM19.138 20.304l0.37-0.366c0.033-0.051 0.066-0.097 0.099-0.134 0.033-0.042 0.066-0.088 0.098-0.139 0.033-0.045 0.062-0.097 0.084-0.152l0.002-0.005c0.037-0.084 0.066-0.143 0.097-0.201l-0.010 0.021c0.072-0.126 0.139-0.273 0.192-0.426l0.006-0.019c0.049-0.143 0.090-0.301 0.123-0.463 0.033-0.116 0.049-0.231 0.049-0.356 0-0.12 0.008-0.241 0.025-0.356 0-0.046 0.004-0.102 0.012-0.157s0.004-0.111-0.012-0.157c0-0.083-0.016-0.157-0.049-0.222s-0.057-0.13-0.074-0.194c-0.028-0.077-0.053-0.172-0.072-0.27l-0.002-0.013c-0.018-0.098-0.043-0.185-0.077-0.268l0.003 0.009c-0.041-0.141-0.079-0.25-0.121-0.357l0.010 0.029c-0.048-0.125-0.094-0.226-0.144-0.324l0.009 0.018c-0.037-0.109-0.078-0.203-0.127-0.291l0.004 0.009c-0.047-0.081-0.074-0.179-0.074-0.282v0l-0.049-0.194c-0.016-0.065-0.041-0.13-0.074-0.199-0.016-0.065-0.037-0.125-0.062-0.18-0.026-0.062-0.055-0.116-0.088-0.166l0.002 0.003c-0.049-0.079-0.099-0.157-0.148-0.231s-0.099-0.148-0.148-0.231c-0.052-0.122-0.114-0.227-0.187-0.323l0.003 0.004c-0.074-0.097-0.16-0.185-0.259-0.268l-0.136-0.134c-0.041-0.042-0.095-0.079-0.16-0.111-0.049-0.032-0.107-0.074-0.172-0.12-0.066-0.051-0.131-0.083-0.197-0.102-0.291-0.119-0.634-0.22-0.989-0.286l-0.034-0.005c-0.315-0.061-0.677-0.097-1.047-0.097h-0.284c-0.090 0-0.185 0.009-0.283 0.023-0.131 0.018-0.255 0.046-0.37 0.088-0.083 0.030-0.207 0.066-0.332 0.098l-0.038 0.008c-0.115 0.032-0.23 0.056-0.345 0.065-0.115 0.005-0.23 0.037-0.345 0.083-0.083 0.051-0.173 0.097-0.271 0.148-0.099 0.046-0.189 0.106-0.271 0.171-0.148 0.116-0.3 0.222-0.456 0.329s-0.292 0.241-0.406 0.407c-0.057 0.091-0.114 0.17-0.176 0.244l0.003-0.004c-0.056 0.071-0.113 0.151-0.166 0.234l-0.007 0.011-0.049 0.148c-0.015 0.044-0.024 0.095-0.025 0.148v0c-0.040 0.118-0.078 0.211-0.119 0.303l0.008-0.020c-0.041 0.088-0.078 0.176-0.111 0.255-0.043 0.122-0.081 0.27-0.108 0.422l-0.003 0.018c-0.023 0.137-0.037 0.296-0.037 0.457 0 0.004 0 0.007 0 0.011v-0.001 0.393c0 0.046 0.008 0.097 0.025 0.143 0.016 0.051 0.025 0.102 0.025 0.148v0.194c0 0.065 0.008 0.134 0.025 0.199l0.148 0.685c0.056 0.258 0.124 0.479 0.208 0.693l-0.011-0.031c0.033 0.097 0.082 0.19 0.148 0.282 0.066 0.088 0.132 0.167 0.198 0.231 0.055 0.087 0.111 0.163 0.174 0.233l-0.002-0.002c0.068 0.076 0.14 0.144 0.218 0.206l0.004 0.003c0.033 0.032 0.062 0.056 0.086 0.074 0.025 0.014 0.054 0.032 0.086 0.046 0.033 0.032 0.070 0.069 0.111 0.097 0.041 0.037 0.078 0.069 0.111 0.102 0.066 0.032 0.128 0.065 0.185 0.097s0.119 0.056 0.185 0.074c0.115 0.032 0.23 0.051 0.345 0.060s0.23 0.019 0.345 0.037c0.016 0.014 0.041 0.023 0.074 0.023h0.074c0.033 0.018 0.066 0.028 0.099 0.037s0.066 0.005 0.099-0.014c-0.017-0.046-0.062-0.097-0.136-0.144-0.074-0.051-0.128-0.093-0.16-0.125-0.066-0.032-0.131-0.069-0.197-0.106-0.066-0.042-0.131-0.088-0.198-0.139l-0.197-0.143c-0.065-0.050-0.122-0.106-0.171-0.169l-0.002-0.002c-0.049-0.051-0.095-0.097-0.136-0.148s-0.086-0.097-0.136-0.148c-0.049-0.046-0.090-0.102-0.123-0.157-0.016-0.026-0.049-0.087-0.081-0.148l-0.018-0.037c-0.012-0.023-0.025-0.050-0.035-0.078l-0.002-0.005c-0.008-0.025-0.020-0.047-0.037-0.065l0 0c-0.013-0.037-0.026-0.082-0.036-0.128l-0.001-0.006c-0.009-0.042-0.022-0.079-0.038-0.114l0.001 0.003-0.198-0.389c-0.014-0.028-0.027-0.060-0.036-0.094l-0.001-0.003c-0.015-0.059-0.028-0.1-0.042-0.142l0.005 0.017c-0.032-0.031-0.057-0.068-0.073-0.109l-0.001-0.002c-0.015-0.033-0.032-0.078-0.046-0.123l-0.003-0.011c-0.012-0.022-0.024-0.050-0.035-0.078l-0.002-0.005c-0.011-0.034-0.023-0.063-0.038-0.091l0.001 0.003c-0.017-0.014-0.033-0.037-0.049-0.074l-0.049-0.097c-0.049-0.097-0.086-0.185-0.111-0.268s-0.045-0.181-0.062-0.292c-0.029-0.122-0.059-0.285-0.083-0.451l-0.004-0.031c-0.025-0.171-0.004-0.319 0.062-0.449l0.185-0.37c0.049-0.094 0.103-0.215 0.15-0.338l0.009-0.027c0.049-0.13 0.090-0.259 0.123-0.38 0.033-0.125 0.098-0.231 0.197-0.333 0.099-0.13 0.226-0.241 0.382-0.343 0.156-0.097 0.316-0.171 0.48-0.218 0.064-0.023 0.113-0.043 0.161-0.065l-0.012 0.005c0.049-0.028 0.098-0.046 0.148-0.065 0.115-0.032 0.239-0.051 0.37-0.060s0.254-0.028 0.37-0.060l0.395-0.097c0.115-0.032 0.226-0.065 0.333-0.097s0.218-0.060 0.333-0.074c0.082 0 0.164-0.005 0.247-0.014 0.074-0.009 0.16-0.014 0.246-0.014h0.172c0.049 0 0.107 0.019 0.172 0.051 0.033 0.018 0.070 0.037 0.111 0.060 0.041 0.028 0.087 0.046 0.136 0.065 0.033 0.028 0.074 0.056 0.123 0.069 0.049 0.018 0.090 0.042 0.123 0.074 0.095 0.038 0.176 0.080 0.253 0.129l-0.006-0.004c0.082 0.046 0.173 0.088 0.271 0.12 0.066 0.019 0.136 0.037 0.21 0.060 0.074 0.028 0.136 0.069 0.185 0.134 0.082 0.069 0.157 0.139 0.222 0.222l0.197 0.245c0.066 0.051 0.123 0.102 0.172 0.157 0.049 0.060 0.090 0.12 0.124 0.185 0.033 0.032 0.062 0.074 0.086 0.12 0.027 0.057 0.056 0.106 0.088 0.151l-0.002-0.003 0.098 0.199c0.033 0.065 0.058 0.13 0.074 0.194s0.037 0.13 0.062 0.194c0.025 0.065 0.045 0.139 0.062 0.222 0.016 0.032 0.033 0.074 0.049 0.12l0.049 0.148c0.016 0.065 0.029 0.134 0.037 0.208s0.020 0.148 0.037 0.231c0.016 0.065 0.033 0.134 0.049 0.208s0.033 0.153 0.049 0.231c0.017 0.065 0.033 0.13 0.049 0.185s0.025 0.12 0.025 0.185v0.389c0 0.097 0.013 0.204 0.037 0.31 0.024 0.102 0.045 0.204 0.061 0.305 0.016 0.097 0.033 0.204 0.049 0.329 0.016 0.12 0.024 0.241 0.024 0.356 0 0.079-0.008 0.162-0.024 0.245-0.017 0.079-0.033 0.171-0.049 0.268l-0.099 0.194c-0.033 0.065-0.057 0.13-0.074 0.194-0.033 0.083-0.078 0.153-0.135 0.208-0.055 0.057-0.108 0.117-0.157 0.18l-0.004 0.005zM18.596 23.146h-0.419c-0.082 0-0.164 0.005-0.246 0.023-0.083 0.014-0.165 0.023-0.247 0.023-0.115 0.017-0.247 0.027-0.382 0.028h-3.069c-0.033 0-0.078-0.005-0.136-0.014s-0.111-0.005-0.16 0.014c0.033 0.046 0.066 0.093 0.099 0.134s0.066 0.074 0.098 0.106c0.051 0.086 0.1 0.159 0.152 0.228l-0.004-0.006c0.049 0.065 0.090 0.139 0.123 0.222 0.017 0.032 0.037 0.069 0.062 0.106 0.024 0.042 0.045 0.079 0.062 0.111 0.033 0.051 0.066 0.093 0.098 0.134s0.066 0.088 0.099 0.134c0.033 0.051 0.066 0.106 0.099 0.162s0.057 0.116 0.074 0.185c0.074 0.162 0.144 0.294 0.221 0.422l-0.011-0.020c0.074 0.12 0.144 0.255 0.21 0.403 0.058 0.151 0.124 0.281 0.202 0.402l-0.005-0.009c0.075 0.117 0.15 0.254 0.214 0.396l0.008 0.020c0.016 0.046 0.037 0.088 0.062 0.12s0.054 0.074 0.086 0.125c0.033 0.046 0.066 0.102 0.099 0.157s0.066 0.111 0.098 0.157c0.033 0.032 0.066 0.060 0.099 0.088 0.033 0.023 0.066 0.051 0.099 0.083 0.033 0.065 0.069 0.125 0.111 0.171 0.043 0.054 0.088 0.102 0.135 0.148l0.001 0.001c0.033 0.051 0.062 0.093 0.086 0.134s0.053 0.079 0.086 0.111c0.033 0.051 0.066 0.088 0.098 0.12s0.058 0.074 0.074 0.125v-0.185c0-0.056-0.008-0.116-0.025-0.185-0.021-0.104-0.038-0.178-0.057-0.25l0.007 0.033c-0.012-0.044-0.029-0.119-0.044-0.195l-0.005-0.027c-0.041-0.097-0.082-0.177-0.129-0.254l0.005 0.009c-0.043-0.068-0.084-0.147-0.119-0.23l-0.004-0.011c0-0.069-0.008-0.125-0.025-0.176l-0.049-0.144c-0.016-0.051-0.037-0.093-0.062-0.125s-0.045-0.074-0.062-0.12c-0.033-0.083-0.057-0.176-0.074-0.282s-0.041-0.199-0.074-0.282c-0.027-0.063-0.057-0.144-0.082-0.228l-0.005-0.018c-0.015-0.044-0.036-0.117-0.055-0.19l-0.006-0.027c-0.020-0.114-0.045-0.214-0.078-0.31l0.004 0.014c-0.029-0.081-0.055-0.179-0.072-0.28l-0.002-0.012c0-0.032-0.004-0.065-0.012-0.097-0.008-0.030-0.012-0.066-0.013-0.102v-0c0.017-0.065 0.033-0.125 0.049-0.18 0.016-0.060 0.066-0.102 0.148-0.134 0.148-0.065 0.312-0.111 0.493-0.134 0.203-0.031 0.377-0.070 0.548-0.119l-0.031 0.008c0.115-0.032 0.226-0.060 0.333-0.088 0.107-0.023 0.218-0.051 0.333-0.083 0.066-0.019 0.139-0.037 0.222-0.065 0.066-0.020 0.143-0.032 0.222-0.032h0c0.028-0.017 0.062-0.027 0.098-0.028h0c0.033 0 0.066-0.005 0.099-0.023l0.148-0.051c0.049-0.014 0.099-0.023 0.148-0.023h0.111c0.041 0 0.078-0.009 0.111-0.023 0.016 0 0.029-0.009 0.037-0.023 0.008-0.018 0.013-0.051 0.013-0.102-0.049 0-0.103 0.005-0.16 0.014-0.048 0.008-0.103 0.014-0.16 0.014h-0zM19.828 11.148c0.033-0.167 0.074-0.268 0.123-0.319l0.148-0.148c0.051-0.066 0.103-0.125 0.16-0.18l0-0 0.16-0.162c0.033-0.065 0.074-0.125 0.124-0.185 0.049-0.056 0.098-0.106 0.148-0.157 0.049-0.032 0.078-0.051 0.086-0.060s0.013-0.037 0.013-0.088v-0.856c-0-0.087-0.005-0.172-0.013-0.256l0.001 0.011c-0.002-0.024-0.004-0.052-0.004-0.080 0-0.059 0.006-0.116 0.017-0.171l-0.001 0.005c0.016-0.065 0.025-0.12 0.025-0.171v-0.171c-0.015-0.028-0.024-0.062-0.025-0.097v-0.977c0-0.051 0.004-0.079 0.012-0.088s0.029-0.014 0.062-0.014h1.849c0.066 0 0.127 0.005 0.185 0.014s0.119 0.005 0.185-0.014c0.033 0 0.066 0 0.099-0.009 0.030-0.009 0.064-0.014 0.099-0.014h0c0.033 0 0.082 0.005 0.148 0.014s0.115-0.005 0.148-0.037c-0.016 0-0.025-0.009-0.025-0.023v-0.051c0-0.001 0-0.003 0-0.004 0-0.030-0.004-0.059-0.013-0.086l0.001 0.002c-0.007-0.018-0.012-0.038-0.012-0.060v-0c-0.017-0.046-0.029-0.102-0.037-0.157-0.011-0.074-0.024-0.137-0.040-0.198l0.003 0.013c0-0.032-0.008-0.069-0.025-0.111-0.016-0.037-0.025-0.074-0.025-0.106-0.016-0.019-0.021-0.037-0.012-0.065 0.008-0.023 0.012-0.042 0.012-0.060-0.033-0.065-0.103-0.083-0.21-0.060s-0.184 0.037-0.234 0.037c-0.066 0.014-0.14 0.032-0.222 0.046-0.074 0.018-0.159 0.028-0.246 0.028h-0c-0.115 0-0.23 0.009-0.345 0.037-0.115 0.023-0.23 0.037-0.345 0.037-0.077 0.009-0.167 0.014-0.257 0.014-0.053 0-0.105-0.002-0.157-0.005l0.007 0c-0.041-0.003-0.089-0.005-0.137-0.005-0.095 0-0.189 0.007-0.281 0.020l0.011-0.001c-0.099 0.014-0.193 0.028-0.283 0.037s-0.177 0.009-0.259 0.009c-0.033 0-0.094 0-0.185-0.009s-0.152 0.005-0.185 0.037c0 0.014 0.004 0.042 0.012 0.083s0.013 0.069 0.013 0.088v0.685c0 0.116-0.008 0.236-0.025 0.366 0 0.167-0.021 0.333-0.062 0.505s-0.078 0.347-0.111 0.523c-0.091 0.539-0.147 0.825-0.206 1.111l0.045-0.264c-0.058 0.287-0.070 0.574-0.037 0.87 0.033 0.162 0.062 0.319 0.086 0.477 0.025 0.153 0.037 0.306 0.037 0.454zM15.391 9.944c0.066 0 0.131 0 0.197-0.009 0.059-0.009 0.128-0.014 0.198-0.014h0c0.049 0.019 0.102 0.028 0.16 0.037 0.048 0.008 0.103 0.014 0.16 0.014h0c0.082 0 0.169 0.009 0.259 0.023 0.090 0.018 0.177 0.032 0.259 0.051 0.049 0 0.086-0.005 0.111-0.014s0.037-0.037 0.037-0.088c-0.066-0.065-0.115-0.134-0.148-0.204-0.030-0.067-0.056-0.146-0.073-0.229l-0.001-0.007c-0.049-0.13-0.098-0.255-0.148-0.38-0.045-0.105-0.087-0.231-0.119-0.362l-0.004-0.018c-0.071-0.16-0.142-0.358-0.201-0.562l-0.009-0.035c-0.018-0.041-0.074-0.242-0.126-0.445l-0.034-0.157c-0.049 0-0.090 0.051-0.123 0.148s-0.049 0.153-0.049 0.171c-0.066 0.13-0.128 0.259-0.185 0.389-0.062 0.142-0.132 0.263-0.214 0.376l0.004-0.006c-0.082 0.111-0.156 0.236-0.222 0.366-0.054 0.103-0.112 0.232-0.163 0.365l-0.010 0.028c-0.033 0.065-0.057 0.125-0.074 0.185-0.016 0.056-0.041 0.116-0.074 0.181-0.017 0.018-0.033 0.046-0.049 0.088-0.016 0.037-0.025 0.074-0.025 0.106h0.666zM8.317 7.524h0.468c0.098 0 0.189 0.009 0.271 0.023 0.082 0.018 0.164 0.023 0.246 0.023 0.132 0 0.263 0.005 0.395 0.014s0.254 0.019 0.37 0.037c0.099 0.019 0.193 0.046 0.284 0.083 0.090 0.042 0.152 0.111 0.185 0.208 0.017 0.037 0.025 0.065 0.025 0.102v0.097c-0.016 0.065-0.037 0.125-0.062 0.181-0.023 0.054-0.037 0.117-0.037 0.184 0 0 0 0.001 0 0.001v-0c0 0.31 0.004 0.625 0.012 0.944 0.009 0.338 0.049 0.661 0.117 0.974l-0.006-0.034 0.037 0.074c0.008 0.018 0.029 0.032 0.062 0.051 0.049 0.014 0.095 0.028 0.136 0.037s0.078 0.019 0.111 0.037c0.049 0.014 0.102 0.037 0.16 0.060s0.111 0.051 0.16 0.083c0.049 0.037 0.107 0.060 0.173 0.074 0.066 0.019 0.131 0.042 0.197 0.074 0.033 0.019 0.095 0.037 0.185 0.060 0.090 0.028 0.218 0.046 0.382 0.065-0.033-0.018-0.049-0.032-0.049-0.051v-0.046c-0.014-0.065-0.027-0.148-0.036-0.233l-0.001-0.012c-0.009-0.094-0.022-0.178-0.039-0.26l0.003 0.015c-0.016-0.083-0.033-0.167-0.049-0.259-0.015-0.076-0.024-0.164-0.025-0.254v-0.001c-0.015-0.055-0.024-0.119-0.025-0.185v-0.38c0-0.065-0.008-0.13-0.024-0.194 0-0.069-0.004-0.13-0.013-0.185-0.008-0.053-0.012-0.114-0.012-0.176 0-0.003 0-0.006 0-0.010v0.001c0-0.144-0.004-0.296-0.013-0.454-0.008-0.153-0.012-0.306-0.012-0.449v-0.759c0.015-0.044 0.024-0.095 0.025-0.148v-0.148c0-0.032 0.004-0.065 0.012-0.097s-0.004-0.056-0.037-0.074c-0.033-0.019-0.066-0.028-0.099-0.037s-0.066-0.009-0.098-0.009h-0.136c-0.042 0-0.087-0.009-0.136-0.028-0.125-0.014-0.271-0.023-0.419-0.023h-0.001c-0.148 0-0.288-0.009-0.419-0.023-0.081-0.012-0.175-0.019-0.27-0.019-0.048 0-0.096 0.002-0.143 0.005l0.006-0c-0.121 0.009-0.263 0.014-0.406 0.014h-0.309c-0.001 0-0.003 0-0.005 0-0.107 0-0.212-0.010-0.313-0.029l0.010 0.002c-0.078-0.014-0.167-0.023-0.258-0.023h-0c-0.090 0-0.177-0.009-0.259-0.023-0.049-0.018-0.098-0.028-0.148-0.037-0.045-0.009-0.096-0.014-0.148-0.014h-0c-0.033-0.014-0.062-0.018-0.086-0.014-0.025 0.009-0.045 0.032-0.061 0.065-0.049 0.079-0.082 0.176-0.099 0.282s-0.033 0.208-0.049 0.305c-0.017 0.079-0.033 0.167-0.049 0.255-0.016 0.093-0.025 0.176-0.025 0.259 0.049 0.014 0.107 0.019 0.172 0.009 0.066-0.005 0.124-0.009 0.173-0.009z"></path>
</svg>
