<!-- Generated by IcoMoon.io -->
<svg version="1.1" xmlns="http://www.w3.org/2000/svg" width="32" height="32" viewBox="0 0 32 32">
<path d="M17.258 0.252l0.036-0.037c0.072 0.023 0.084 0.037 0.036 0.037h-0.072zM0.934 12.787l-0.036 0.037c0-0.018 0.036-0.037 0.036-0.037zM22.364 30.251c-0.317 0.315-0.394 0.143-0.719 0.463l-0.611 0.324-0.036 0.032c-0.169 0-0.313 0.111-0.503 0.111l0.144-0.074c-0.576 0.074-0.652 0.074-1.294 0.287l0.036-0.074c-0.31 0.106-0.74 0.375-0.971 0.143l-0.216 0.074h-0.216c-0.647 0-0.573 0.056-1.186 0.176l-0.324 0.037-0.359 0.074h-0.288l-0.288 0.032-0.108-0.106c-0.439 0.065-0.359 0.199-0.791 0.25l0.108-0.069c-0.431 0.144-1.084-0.097-1.51-0.181l0.036-0.069c-0.179 0-0.36-0.074-0.539-0.074h-0.108c-0.309-0.204-0.874-0.463-1.258-0.463l-0.252-0.106c-0.271-0.134-0.611-0.287-0.827-0.5l-0.108 0.069-0.288-0.143c-0.042-0.042-0.101-0.065-0.144-0.106l-0.072-0.069h-0.054c-0.039 0-0.090-0.074-0.090-0.074h0.072c0.054-0.051-0.783-0.116-0.647-0.069l-0.431-0.143c-0.162-0.056-0.338-0.102-0.503-0.143l-0.431-0.287c-0.269-0.264-0.623-0.44-0.899-0.713 0 0-0.077-0.042-0.108-0.069l-0.108-0.106c-1.103-1.097-2.363-2.074-3.416-3.217l0.144 0.074-0.252-0.25c0-0.079-0.144-0.181-0.144-0.181-0.005-0.009 0-0.037 0-0.037-0.049-0.194-0.147-0.199-0.252-0.356l0.072 0.037c-0.508-0.505-1.115-1.801-1.115-2.18 0 0-0.036-0.046-0.036-0.069l-0.431-1.287 0.108 0.176c-0.188-0.37-0.088-0.759-0.216-1.139v0.356c0-0.301-0.108-0.592-0.108-0.893 0-0.069 0.108 0.245 0.108 0.176v-0.657c0-0.106-0.288-0.426-0.288-0.375-0.369-0.736-0.358-1.532-0.611-2.287v-0.25c0-0.051-0.036-0.093-0.036-0.143v-0.213c0-0.722 0.54-3.481 0.54-1.43 0.146-0.583 0.059-0.546 0.179-1.143l0.108-0.069c0-0.088 0.032-0.171 0.065-0.255l0.013-0.032c0.034-0.083 0.065-0.162 0.065-0.25v-0.037l-0.036 0.037c0.043-0.509-0.019-0.611 0.072-1.106v0.032c0.024-0.046 0.036-0.093 0.036-0.139v-0.25l0.036-0.074v-0.106c0.052 0 0.036-0.037 0.036-0.069l0.036-0.037-0.036 0.143-0.036 0.213c0.189 0 0.611-1.583 0.611-1.93l0.036 0.037c0.122-0.194 0.422-0.741 0.611-0.926l-0.036 0.069c0.077-0.074 0.072-0.125 0.18-0.181l0.072-0.106c0-0.037 0.036-0.106 0.036-0.106l0.252-0.25c0.096-0.236 0.179-0.75 0.179-0.75 0.267-0.796 1.043-1.213 1.618-1.787l0.108-0.213 0.288-0.287c-0.105 0.069 0.503-0.944 0.503-0.963l0.216-0.213c-0.185 0.227 0.425-0.412 0.647-0.611l0.108-0.032 0.108-0.106 0.072-0.037c0.19-0.375 0.974-0.287 1.259-0.574l-0.216 0.074c0.495-0.167 0.818-0.583 1.295-0.787l0.072 0.106c0.158 0 0.363-0.213 0.503-0.282l0.072-0.037c0.073-0.074-0.027-0.106 0.072-0.106l0.108-0.074-0.288 0.106-0.36 0.25c0.154-0.12 0.051-0.282 0.252-0.282 0 0 0.045-0.037 0.072-0.037h0.072c0-0.023 0.006-0.037 0.018-0.037h0.090c0.175 0 0.489-0.065 0.647-0.106l0.431-0.143c0.138 0 0.259-0.069 0.396-0.069h0.324c0.038-0.037 0.144-0.018 0.144-0.074h-0.18c0.422 0 1.259-0.143 1.259-0.143 0.027 0 0.072-0.032 0.072-0.032h0.216s0.008 0.028 0 0.032l-0.072 0.037-0.036 0.037h-0.072c0.017 0 0.036 0.037 0.036 0.037s0.045-0.037 0.072-0.037c0 0 0.441-0.407 0.719-0.5l-0.144 0.037c0.094-0.093 0.174-0.125 0.288-0.181l-0.18 0.106c0.225-0.111 0.616-0.319 0.863-0.319l0.072 0.032h0.144c-0.017 0-0.372 0.019-0.036 0.074 0.188 0 0.139 0.032 0.36 0.106 0.523 0 0.74-0.153 1.043 0h0.719c-0.428 0 0.418 0.023 0.467 0.037h-0.216c-0.087 0 0.13 0.13 0.216 0.143 0.184-0.023 0.087-0.111 0.306-0.111h0.647c0.325 0 0.692 0.227 0.989 0.324 0.683-0.171 0.655-0.153 1.69 0.106l-0.108 0.069c0.209 0 0.359 0.181 0.539 0.181l-0.215-0.143c0.37 0.093 0.815 0.417 1.151 0.606-0.61-0.301 0.084 0.181 0.288 0.181l0.072 0.069c-0.425 0 0.644 0.551 0.971 0.824l0.108 0.106 0.108 0.069c0.112 0.056 0.242 0.106 0.36 0.143l0.359 0.106c0.193 0.079 0.549 0.162 0.71 0.199 0.143 0.143 0.717 0.583 0.909 0.801 0.247 0.287 0.419 0.63 0.647 0.93l-0.179-0.106c0.033 0.032 0.091 0.079 0.133 0.106-0.015-0.005-0.031 0-0.061 0l0.216 0.181c0.013 0 0.323 0.069 0.611 0.356l0.108 0.069 0.108 0.106 0.072 0.111-0.072-0.037c0.087 0.13 0.118 0.153 0.216 0.25l0.144 0.213c-0.301-0.296 0.464 0.708 0.683 1.074 0.292 0.481 0.72 1.463 1.295 1.75 0.131 0.259 0.539 0.916 0.539 1.787l0.108 0.032-0.108 0.25 0.036 0.287c0.207 0.102 0.154 0.111 0.252 0.287l-0.036-0.037c0 0.111 0.629 1.088 0.288 0.75l0.144 0.213h-0.036c0.040 0.12 0.108 0.356 0.108 0.356l0.144 0.43-0.036-0.037 0.288 1.111-0.323 1.606v0.069h0.036l0.072 0.213c0.112 0 0.145-0.065 0.288 0.287 0.042 0.208-0.047 0.435 0 0.643l0.108 0.319 0.072 0.111-0.036 0.139v0.074h-0.036c-0.027 0.056-0.036 0.176-0.036 0.176-0.183-0.181-0.129 0.5-0.18 0.755l0.036-0.074c-0.062 0.87-0.283 0.764-0.431 1.574v0.389l-0.072 0.074v0.143c0 0.38-0.233 0.676-0.324 1.037l-0.108 0.282-0.072 0.287c-0.334 0.472-0.6 0.935-0.899 1.43l-0.467 0.463c-0.115 0.111-0.24 0.218-0.359 0.324 0 0 0.001 0 0-0.005h-0.001c-0.018 0.018-0.020 0.018-0.037 0.037-0.012 0.014-0.023 0.023-0.035 0.037-0.459 0.301-0.694 0.889-0.863 1.393l-0.108 0.176-0.108 0.213c-0.141 0.143-0.409 0.305-0.608 0.38 0.011-0.005 0.022-0.014 0.033-0.018l-0.072 0.032c0.013 0 0.026-0.009 0.039-0.014-1.365 0.907-2.127 1.634-3.167 2.837-0.024 0.024-0.055 0.042-0.089 0.051l-0.001 0-0.090 0.018c0.027 0 0.059-0.005 0.090-0.018l0.090-0.014 0.252-0.287 0.036-0.037c0.027-0.051 0.108-0.143 0.108-0.143 0.073-0.069-0.062 0.194-0.108 0.287l-0.18 0.181c-0.024 0.023-0.036 0.046-0.036 0.069h-0.144c-0.125 0.060-0.405 0.143-0.539 0.143l0.036-0.037h-0.036c-0.081 0.028-0.899 0.218-0.899 0.356h-0.072v-0.032l-0.036-0.037s-0.082 0.023-0.108 0h0.036l0.036-0.037 0.54-0.176c-0.186 0-0.54 0.139-0.54 0.139l-0.072 0.074zM29.016 24.683c-0.001 0.005-0.001 0.009-0.003 0.009-0.003 0.009-0.006 0.018-0.013 0.023-0.015 0.018-0.036 0.023-0.056 0.037l0.071-0.069zM28.945 24.752c-0.014 0.011-0.026 0.023-0.037 0.037l-0 0 0.036-0.037h0.001zM25.23 3.127c-0.051-0.051-0.048-0.065 0.046-0.018l0.036 0.037s-0.031-0.009-0.082-0.018zM26.739 4.858c0.013 0.005 0.026 0.014 0.047 0.037 0 0-0.020-0.014-0.047-0.037zM22.74 22.623c-0.258-0.312-0.517-0.593-0.792-0.859l-0.002-0.002c-0.273-0.264-0.559-0.525-0.852-0.779l-0.026-0.022-0.032-0.028c-0.007-0.009-0.017-0.014-0.031-0.014-0.056-0.042-0.115-0.083-0.178-0.125-0.063-0.037-0.122-0.074-0.178-0.102-0.084-0.042-0.164-0.088-0.24-0.143s-0.15-0.111-0.22-0.167l-0.167-0.167c-0.012-0.040-0.038-0.072-0.072-0.092l-0.001-0c-0.035-0.023-0.066-0.046-0.094-0.074l-0.209-0.208c-0.070-0.069-0.132-0.143-0.188-0.227-0.028-0.056-0.066-0.111-0.115-0.167-0.043-0.049-0.088-0.103-0.13-0.159l-0.006-0.008c-0.097-0.125-0.212-0.231-0.345-0.319-0.145-0.102-0.271-0.202-0.391-0.309l0.004 0.004c-0.028-0.023-0.059-0.051-0.094-0.079s-0.065-0.055-0.094-0.083l0 0c-0.055-0.055-0.109-0.113-0.162-0.171l-0.005-0.005c-0.056-0.065-0.112-0.13-0.167-0.199l-0.209-0.167c-0.076-0.061-0.144-0.121-0.209-0.185l0 0c-0.014-0.015-0.031-0.026-0.051-0.032l-0.001-0c-0.021-0.009-0.046-0.005-0.073 0.009-0.014 0-0.032-0.005-0.052-0.009-0.020-0.008-0.038-0.019-0.053-0.033l0 0c-0.058-0.042-0.109-0.086-0.156-0.134l-0-0c-0.049-0.046-0.094-0.102-0.136-0.157-0.067-0.053-0.123-0.118-0.165-0.191l-0.002-0.003c-0.045-0.083-0.094-0.154-0.148-0.22l0.002 0.003c-0.014-0.014-0.028-0.032-0.042-0.051-0.012-0.021-0.026-0.039-0.042-0.056l0 0c0-0.042-0.007-0.074-0.021-0.102l-0.041-0.083c-0.056 0.056-0.108 0.116-0.157 0.176-0.048 0.065-0.101 0.13-0.157 0.199-0.070 0.083-0.15 0.162-0.24 0.236-0.090 0.079-0.185 0.148-0.282 0.218-0.015 0.015-0.026 0.034-0.031 0.055l-0 0.001c-0.007 0.018-0.017 0.042-0.031 0.069-0.012 0.012-0.023 0.026-0.031 0.041l-0 0.001c-0.007 0.017-0.011 0.037-0.011 0.057 0 0.003 0 0.005 0 0.008v-0c0.014 0.014 0.028 0.028 0.042 0.051 0.014 0.018 0.035 0.046 0.063 0.074l0.083 0.079h0.021l0.125 0.065c0.014 0 0.024 0.005 0.031 0.018s0.018 0.028 0.032 0.042l0.376 0.292c0.125 0.097 0.244 0.199 0.355 0.315 0.056 0.051 0.112 0.102 0.167 0.143s0.111 0.074 0.167 0.102c0.042 0.042 0.090 0.083 0.146 0.116s0.111 0.074 0.167 0.116c0.041 0.042 0.090 0.083 0.146 0.134 0.055 0.046 0.104 0.097 0.146 0.153l0.178 0.222c0.062 0.074 0.136 0.139 0.22 0.194 0.111 0.083 0.22 0.162 0.324 0.227 0.104 0.069 0.22 0.125 0.345 0.167 0.014 0 0.024 0.005 0.031 0.014l0.011 0.009 0.293 0.167c0.097 0.056 0.181 0.13 0.251 0.227 0.014 0.014 0.028 0.023 0.042 0.032 0.014 0.005 0.027 0.014 0.041 0.032 0.056 0.037 0.115 0.083 0.178 0.134 0.062 0.046 0.122 0.093 0.178 0.134 0.097 0.069 0.192 0.139 0.282 0.208s0.178 0.143 0.261 0.227c0.097 0.069 0.195 0.134 0.293 0.199 0.097 0.060 0.202 0.12 0.314 0.176 0.014 0 0.031 0.005 0.052 0.018s0.046 0.023 0.073 0.023h0c0.041 0.014 0.080 0.028 0.115 0.051 0.035 0.018 0.073 0.046 0.115 0.074 0.014 0.028 0.035 0.042 0.063 0.051 0.027 0.005 0.055 0.009 0.083 0.009l0.021 0.023c0.042 0 0.087 0.005 0.136 0.018s0.094 0.028 0.136 0.042c0.014 0 0.028 0.005 0.042 0.009 0.014 0.009 0.027 0.009 0.041 0.009v0.023c0.028 0 0.052 0.005 0.073 0.018s0.046 0.028 0.073 0.042h0.021c0.014 0.014 0.031 0.023 0.052 0.023s0.039 0.005 0.052 0.018c0.028 0.014 0.053 0.028 0.073 0.032 0.021 0.009 0.039 0.023 0.053 0.051 0.014 0.014 0.024 0.028 0.031 0.042 0.009 0.016 0.019 0.030 0.031 0.042l0 0 0.335 0.25c0.041 0.014 0.080 0.028 0.115 0.042s0.066 0.028 0.094 0.042c-0-0.030-0.008-0.059-0.021-0.084l0 0.001-0.041-0.083zM11.161 9.691c-0.167-0.167-0.345-0.31-0.533-0.435-0.17-0.114-0.365-0.226-0.568-0.322l-0.027-0.011-0.010-0.009c-0.007-0.009-0.018-0.009-0.031-0.009h-0.021c-0.181 0.134-0.373 0.259-0.575 0.37s-0.387 0.25-0.554 0.417c-0.616 0.506-1.145 1.087-1.58 1.735l-0.018 0.029c-0.433 0.642-0.763 1.394-0.943 2.201l-0.008 0.044 0.021 0.287h0.021c0 0.042 0.021 0.051 0.062 0.023 0.035-0.021 0.063-0.049 0.083-0.082l0.001-0.001c0.013-0.028 0.027-0.051 0.041-0.074 0.014-0.018 0.028-0.046 0.042-0.069 0.014-0.028 0.028-0.056 0.042-0.074 0.014-0.023 0.021-0.037 0.021-0.051 0.014-0.014 0.021-0.028 0.021-0.032v-0.009c0.167-0.306 0.349-0.592 0.543-0.861 0.195-0.273 0.404-0.518 0.627-0.741 0-0.014 0.003-0.023 0.010-0.032 0.009-0.006 0.020-0.009 0.031-0.009 0 0 0 0 0.001 0h-0c0-0.014 0.003-0.018 0.010-0.018s0.011-0.009 0.011-0.023c0.139-0.139 0.282-0.268 0.428-0.393s0.296-0.241 0.449-0.352c0.189-0.13 0.448-0.295 0.712-0.454l0.083-0.046c0.097-0.056 0.192-0.111 0.282-0.167s0.185-0.111 0.282-0.167c0.167-0.106 0.341-0.218 0.522-0.319 0.161-0.095 0.347-0.183 0.542-0.252l0.023-0.007c-0-0.015-0.004-0.030-0.011-0.042l0 0.001c-0.008-0.016-0.019-0.030-0.031-0.042l-0-0zM16.533 10.542c-0.028-0.014-0.052-0.023-0.073-0.032-0.021-0.005-0.045-0.018-0.073-0.032l-0.167-0.083-0.042 0.042c-0.024-0.024-0.051-0.044-0.082-0.059l-0.002-0.001c-0.024-0.011-0.045-0.025-0.063-0.042l0 0c-0.097-0.048-0.172-0.090-0.245-0.134l0.016 0.009c-0.059-0.036-0.128-0.070-0.199-0.098l-0.010-0.003c-0.070-0.014-0.129-0.037-0.178-0.065s-0.101-0.046-0.157-0.060c-0.075-0.051-0.16-0.101-0.25-0.143l-0.011-0.005c-0.024-0.014-0.117-0.056-0.21-0.097l-0.072-0.028c-0.103-0.049-0.185-0.094-0.265-0.142l0.014 0.008c-0.084-0.046-0.167-0.093-0.251-0.134-0.061-0.032-0.113-0.062-0.162-0.096l0.005 0.003c-0.045-0.033-0.097-0.064-0.151-0.090l-0.006-0.003h-0.011c-0.007 0-0.010-0.009-0.010-0.023h-0.021c-0.070-0.042-0.136-0.083-0.198-0.125-0.057-0.038-0.122-0.072-0.191-0.099l-0.007-0.003c-0.016-0.015-0.033-0.029-0.051-0.041l-0.001-0.001c-0.014-0.011-0.032-0.018-0.052-0.018h-0c-0.098-0.069-0.199-0.134-0.303-0.19-0.117-0.062-0.217-0.123-0.311-0.191l0.008 0.006c-0.139-0.102-0.297-0.196-0.463-0.275l-0.018-0.008c-0.167-0.074-0.341-0.148-0.522-0.218h-0.021c-0.038-0.001-0.073-0.007-0.107-0.019l0.002 0.001c-0.041-0.014-0.076-0.036-0.104-0.065l-0-0c-0.042-0.028-0.087-0.051-0.136-0.074-0.041-0.017-0.093-0.034-0.147-0.049l-0.010-0.002c-0.018-0.016-0.039-0.030-0.061-0.041l-0.002-0.001-0.083-0.042c0 0.014-0.004 0.028-0.011 0.032-0.009 0.006-0.019 0.009-0.031 0.009-0 0-0 0-0.001 0h0l-0.167-0.083c-0.016-0.015-0.033-0.029-0.051-0.041l-0.001-0.001c-0.020-0.013-0.037-0.027-0.052-0.042l0 0c-0.153-0.056-0.31-0.106-0.47-0.167-0.181-0.059-0.337-0.128-0.484-0.211l0.013 0.007c0 0.014-0.004 0.019-0.011 0.019h-0.031v0.042c0 0.014-0.007 0.037-0.021 0.065-0.014 0.051-0.010 0.097 0.011 0.125 0.021 0.023 0.052 0.060 0.094 0.102 0.042 0.014 0.084 0.032 0.126 0.060l0.125 0.083c0.041 0.028 0.080 0.060 0.115 0.097 0.035 0.032 0.073 0.065 0.115 0.093 0.111 0.056 0.213 0.125 0.303 0.204 0.091 0.083 0.185 0.167 0.282 0.25 0.014 0.028 0.035 0.051 0.062 0.074s0.049 0.046 0.063 0.074c0.153 0.069 0.289 0.162 0.408 0.278 0.118 0.12 0.24 0.231 0.365 0.343 0.237 0.222 0.484 0.449 0.742 0.676s0.512 0.44 0.763 0.634c0.251 0.194 0.487 0.393 0.711 0.602s0.459 0.403 0.711 0.579c0.069 0.056 0.143 0.116 0.219 0.181 0.077 0.060 0.15 0.12 0.22 0.176 0.042-0.028 0.080-0.056 0.115-0.074 0.036-0.021 0.067-0.046 0.094-0.074l0-0c0.056-0.042 0.108-0.083 0.157-0.134l0.136-0.134c0.097-0.097 0.198-0.19 0.303-0.278 0.104-0.093 0.213-0.185 0.324-0.282 0.042-0.028 0.080-0.056 0.115-0.083s0.045-0.074 0.031-0.143l0.021-0.023c0-0.014 0.004-0.032 0.011-0.051 0.007-0.023 0.010-0.046 0.010-0.074v-0.074c0-0.018 0.007-0.042 0.021-0.069zM24.872 11.394c-0.032-0.048-0.063-0.088-0.096-0.127l0.002 0.002c-0.038-0.045-0.076-0.086-0.115-0.125l-0-0c-0.083-0.097-0.16-0.19-0.23-0.282-0.070-0.088-0.126-0.194-0.167-0.319-0.125-0.125-0.258-0.245-0.397-0.366-0.139-0.116-0.286-0.231-0.439-0.343-0.18-0.125-0.33-0.238-0.476-0.355l0.016 0.012c-0.167-0.13-0.342-0.153-0.522-0.069l-0.167 0.083c-0.097 0.134-0.192 0.273-0.282 0.412s-0.185 0.278-0.282 0.417c0.39 0.139 0.763 0.347 1.118 0.625 0.356 0.273 0.686 0.551 0.993 0.829 0.167 0.139 0.324 0.292 0.47 0.458 0.146 0.162 0.275 0.343 0.387 0.537 0.139 0.125 0.268 0.259 0.387 0.407 0.118 0.143 0.22 0.292 0.303 0.444 0.028 0.028 0.052 0.056 0.073 0.083s0.038 0.056 0.052 0.083c0.014 0.014 0.038 0.023 0.073 0.023s0.066-0.009 0.094-0.023h0.010c0.007 0 0.011 0.005 0.011 0.023h0.021c-0.028-0.222-0.063-0.444-0.105-0.657s-0.097-0.426-0.167-0.634c-0.083-0.194-0.178-0.384-0.282-0.569s-0.198-0.375-0.282-0.569zM14.192 14.319c0-0.028-0.007-0.046-0.021-0.051-0.014-0.009-0.028-0.018-0.042-0.032-0.088-0.043-0.163-0.091-0.232-0.146l0.003 0.002c-0.070-0.056-0.125-0.125-0.167-0.208 0-0.014-0.007-0.028-0.021-0.042l-0.042-0.042c-0.041-0.028-0.083-0.060-0.125-0.093-0.042-0.037-0.083-0.065-0.125-0.093-0.097-0.069-0.195-0.139-0.293-0.199-0.104-0.068-0.192-0.134-0.277-0.203l0.005 0.004c-0.115-0.089-0.245-0.175-0.381-0.251l-0.016-0.008c-0.139-0.074-0.279-0.153-0.418-0.236l-0.011-0.009c-0.007-0.009-0.017-0.014-0.031-0.014-0.056-0.014-0.105-0.038-0.147-0.070l0.001 0.001c-0.041-0.037-0.083-0.074-0.125-0.116-0.070-0.069-0.145-0.134-0.224-0.195l-0.006-0.004c-0.084-0.060-0.181-0.111-0.293-0.153-0.070-0.042-0.146-0.074-0.23-0.093-0.084-0.023-0.167-0.056-0.251-0.097-0.049-0.024-0.105-0.042-0.164-0.051l-0.003-0c-0.063-0.007-0.12-0.019-0.174-0.034l0.007 0.002c-0.028 0-0.049 0.005-0.063 0.014-0.014 0.005-0.028 0.009-0.042 0.009 0.223 0.264 0.467 0.514 0.732 0.745 0.265 0.236 0.509 0.477 0.732 0.727 0.153 0.167 0.3 0.338 0.439 0.509s0.286 0.338 0.439 0.491c0.055 0.037 0.118 0.097 0.188 0.162 0.070 0.069 0.146 0.139 0.23 0.208h0.021c0.014 0 0.027 0.005 0.041 0.014 0.014 0.005 0.028 0.014 0.042 0.028 0.014 0 0.031 0.009 0.052 0.023s0.045 0.018 0.073 0.018c0.042 0.014 0.080 0.018 0.115 0.009 0.035-0.005 0.066-0.028 0.094-0.069s0.063-0.078 0.103-0.106l0.001-0.001c0.042-0.028 0.083-0.046 0.125-0.060 0.056-0.042 0.115-0.079 0.178-0.102 0.063-0.028 0.136-0.042 0.22-0.042 0.028 0 0.052-0.018 0.073-0.046s0.024-0.060 0.011-0.102zM15.676 6.617c-0.501 0.042-1 0.125-1.494 0.25s-0.979 0.268-1.453 0.435v0.023c-0.056 0.042-0.115 0.083-0.178 0.125-0.063 0.037-0.122 0.083-0.178 0.12 0 0.014-0.004 0.028-0.011 0.032-0.006 0.008-0.010 0.019-0.010 0.030 0 0.001 0 0.002 0 0.002v-0c-0.028 0.015-0.052 0.032-0.073 0.051l0-0-0.052 0.051c0.209 0.125 0.418 0.241 0.627 0.343 0.209 0.106 0.425 0.204 0.648 0.301 0.070 0.028 0.143 0.056 0.22 0.083s0.157 0.065 0.24 0.106l0.021-0.023 0.021 0.009c0.014 0.009 0.035 0.014 0.062 0.014 0.126-0.056 0.254-0.102 0.387-0.134 0.132-0.037 0.261-0.069 0.387-0.097s0.254-0.046 0.387-0.060c0.132-0.014 0.268-0.014 0.407 0 0.105-0.009 0.227-0.014 0.35-0.014 0.072 0 0.143 0.002 0.214 0.005l-0.010-0c0.188 0.005 0.366 0.009 0.533 0.009 0.431 0.014 0.853 0.060 1.264 0.134 0.411 0.079 0.798 0.241 1.16 0.491 0.262-0.142 0.488-0.302 0.693-0.484l-0.003 0.003c0.223-0.19 0.432-0.37 0.627-0.537l0.052-0.051c0.021-0.023 0.038-0.046 0.052-0.074-0.669-0.445-1.454-0.778-2.298-0.951l-0.043-0.007c-0.614-0.125-1.319-0.197-2.041-0.197-0.179 0-0.357 0.004-0.533 0.013l0.025-0.001zM23.848 6.038c-0.028 0.014-0.059 0.028-0.094 0.051-0.035 0.019-0.066 0.046-0.094 0.069-0.028 0.028-0.052 0.060-0.072 0.095l-0.001 0.002c-0.021 0.032-0.045 0.065-0.073 0.093-0.055 0.042-0.111 0.088-0.167 0.134s-0.111 0.102-0.167 0.157l-0.481 0.477c-0.083 0.069-0.164 0.144-0.24 0.227s-0.157 0.167-0.24 0.25c0 0.014-0.007 0.023-0.020 0.032-0.014 0.005-0.028 0.014-0.042 0.028-0.028 0-0.056 0-0.084-0.009-0.025-0.005-0.053-0.008-0.083-0.009l-0.001-0c-0.028 0.015-0.052 0.032-0.073 0.051l0-0c-0.020 0.021-0.045 0.038-0.072 0.050l-0.001 0.001c-0.097 0.097-0.192 0.194-0.282 0.292s-0.185 0.194-0.282 0.292c-0.125 0.125-0.247 0.25-0.366 0.375s-0.24 0.241-0.366 0.352l-0.188 0.185c-0.056 0.056-0.119 0.111-0.188 0.167-0.083 0.056-0.167 0.116-0.251 0.176-0.084 0.065-0.167 0.13-0.251 0.199l-0.46 0.375c-0.153 0.125-0.3 0.255-0.439 0.393-0.111 0.111-0.226 0.218-0.345 0.319-0.118 0.106-0.24 0.213-0.366 0.324l-0.083 0.083c-0.070 0.056-0.143 0.116-0.22 0.176-0.080 0.064-0.151 0.129-0.219 0.198l-0.001 0.001-0.032 0.028c-0.006 0.008-0.010 0.019-0.010 0.031 0 0.001 0 0.001 0 0.002v-0l-0.805 0.801c-0.009 0.006-0.019 0.009-0.031 0.009-0 0-0 0-0.001 0h0c-0.028 0.028-0.052 0.046-0.073 0.060-0.022 0.017-0.040 0.039-0.052 0.064l-0 0.001c-0.056 0.042-0.101 0.088-0.136 0.143s-0.080 0.106-0.136 0.148c-0.042 0.014-0.077 0.038-0.104 0.069l-0 0c-0.028 0.037-0.056 0.069-0.084 0.097-0.074 0.099-0.149 0.187-0.23 0.269l0-0-0.408 0.403c-0.048 0.051-0.094 0.106-0.136 0.176l-0.167 0.167c-0.103 0.102-0.199 0.21-0.287 0.326l-0.006 0.008c-0.125 0.139-0.244 0.282-0.356 0.435s-0.223 0.315-0.334 0.477c-0.084 0.111-0.167 0.231-0.251 0.356l-0.251 0.37c-0.055 0.083-0.111 0.171-0.167 0.259-0.056 0.093-0.112 0.181-0.167 0.259-0.070 0.083-0.139 0.171-0.209 0.259-0.069 0.093-0.139 0.185-0.209 0.282-0.014 0.014-0.028 0.023-0.042 0.032-0.014 0.005-0.028 0.014-0.042 0.032-0.062-0.047-0.116-0.092-0.168-0.14l0.001 0.001c-0.056-0.046-0.105-0.097-0.146-0.153-0.056-0.042-0.112-0.083-0.167-0.116-0.058-0.037-0.102-0.091-0.125-0.155l-0.001-0.002-0.042-0.042c-0.042-0.028-0.083-0.056-0.125-0.093-0.038-0.030-0.072-0.060-0.104-0.092l-0-0c-0.070-0.056-0.139-0.106-0.209-0.153-0.070-0.050-0.131-0.102-0.189-0.158l0 0c-0.153-0.111-0.303-0.218-0.449-0.315-0.146-0.093-0.289-0.19-0.428-0.287h-0.042c-0.014 0-0.028-0.014-0.042-0.042-0.064-0.033-0.118-0.069-0.169-0.108l0.002 0.002c-0.056-0.042-0.112-0.074-0.167-0.102l-0.125-0.083c-0.042-0.028-0.077-0.046-0.105-0.065l-0.115-0.111c-0.036-0.036-0.082-0.063-0.134-0.074l-0.002-0-0.083-0.083c-0.139-0.111-0.282-0.218-0.429-0.319-0.146-0.106-0.289-0.213-0.428-0.324h-0.011c-0.007 0-0.010 0.009-0.010 0.023-0.014 0-0.021 0.005-0.021 0.018s-0.007 0.023-0.021 0.023h-0.062c-0.070-0.028-0.143-0.056-0.22-0.083-0.060-0.024-0.134-0.046-0.209-0.063l-0.010-0.002-0.063-0.060c-0.035-0.037-0.082-0.063-0.134-0.074l-0.002-0c-0.049-0.005-0.094-0.009-0.136-0.009-0.014-0.014-0.028-0.018-0.041-0.009-0.014 0.005-0.028 0.009-0.042 0.009 0.055 0.083 0.115 0.162 0.178 0.236 0.063 0.079 0.122 0.153 0.178 0.218 0 0.018 0.004 0.023 0.011 0.023s0.017 0.005 0.031 0.023c0.042 0.014 0.076 0.032 0.104 0.060s0.049 0.056 0.063 0.083c0.069 0.111 0.136 0.213 0.198 0.301s0.129 0.185 0.198 0.282c0.083 0.079 0.153 0.171 0.209 0.268s0.105 0.194 0.146 0.292c0.167 0.204 0.338 0.403 0.512 0.588 0.174 0.19 0.338 0.384 0.491 0.592 0.112 0.125 0.226 0.25 0.345 0.375s0.226 0.25 0.324 0.375c0.069 0.042 0.136 0.088 0.198 0.143s0.122 0.12 0.178 0.185c0.042 0.056 0.083 0.12 0.125 0.19s0.069 0.143 0.083 0.227c0 0.014 0.004 0.032 0.011 0.051 0.006 0.022 0.017 0.040 0.031 0.056l-0-0c0.028 0.042 0.045 0.079 0.052 0.12 0.007 0.046 0.018 0.093 0.031 0.148-0.014 0.028-0.027 0.051-0.041 0.074-0.014 0.018-0.035 0.042-0.063 0.069-0.111 0.139-0.223 0.282-0.334 0.426-0.112 0.148-0.23 0.287-0.356 0.426-0.097 0.097-0.188 0.199-0.272 0.301-0.083 0.106-0.167 0.204-0.251 0.301-0.056 0.069-0.115 0.134-0.178 0.199-0.063 0.060-0.115 0.134-0.157 0.218-0.097 0.125-0.188 0.255-0.272 0.384s-0.167 0.268-0.251 0.403c-0.028 0.056-0.059 0.111-0.094 0.167s-0.066 0.111-0.094 0.167c-0.023 0.022-0.044 0.046-0.061 0.073l-0.001 0.002c-0.014 0.018-0.021 0.051-0.021 0.093s-0.007 0.088-0.021 0.134c-0.014 0.051-0.042 0.093-0.083 0.134-0.014 0.014-0.028 0.037-0.042 0.065s-0.028 0.046-0.042 0.060c-0.055 0.083-0.108 0.162-0.157 0.241-0.049 0.074-0.094 0.148-0.136 0.218-0.027 0.069-0.062 0.13-0.104 0.185s-0.069 0.125-0.083 0.208c-0.014 0.042-0.032 0.079-0.052 0.116-0.021 0.032-0.046 0.069-0.073 0.116-0.056 0.051-0.101 0.12-0.136 0.194-0.035 0.079-0.066 0.157-0.094 0.241-0.014 0.042-0.028 0.083-0.042 0.134-0.014 0.046-0.027 0.093-0.041 0.134-0 0.015-0.004 0.030-0.011 0.042l0-0c-0.008 0.016-0.019 0.030-0.031 0.042l-0 0c-0.097 0.159-0.193 0.295-0.298 0.424l0.006-0.007-0.042 0.079c-0.013 0.030-0.021 0.065-0.021 0.102 0 0.002 0 0.003 0 0.005v-0c-0 0.015-0.004 0.030-0.011 0.042l0-0-0.031 0.060c-0.042 0.069-0.083 0.143-0.125 0.218-0.042 0.079-0.091 0.157-0.146 0.241-0.028 0.042-0.056 0.088-0.084 0.134-0.027 0.051-0.055 0.102-0.083 0.157-0.014 0.028-0.014 0.056 0 0.083s0.028 0.046 0.042 0.060c0.028 0 0.055 0 0.083-0.009 0.028-0.005 0.049-0.023 0.063-0.051 0-0.014 0.003-0.028 0.010-0.042 0.009-0.016 0.019-0.030 0.031-0.042v0c0.014-0.042 0.032-0.079 0.053-0.116 0.021-0.034 0.054-0.059 0.093-0.069l0.001-0c0.070-0.018 0.129-0.042 0.178-0.088 0.046-0.035 0.079-0.085 0.093-0.142l0-0.002 0.063-0.060c0.056-0.056 0.115-0.111 0.178-0.167s0.129-0.106 0.198-0.148c0.112-0.079 0.213-0.171 0.303-0.268s0.185-0.194 0.282-0.292c0.042-0.042 0.080-0.083 0.115-0.125s0.073-0.074 0.115-0.102h0.042c0.056 0.014 0.108 0.014 0.157 0s0.087-0.065 0.115-0.143l0.042-0.042c0.028-0.028 0.056-0.060 0.083-0.097 0.027-0.031 0.049-0.068 0.062-0.109l0.001-0.002c0-0.028 0.007-0.056 0.021-0.074s0.028-0.046 0.041-0.074c0.014-0.028 0.032-0.056 0.053-0.083 0.026-0.033 0.057-0.060 0.092-0.082l0.002-0.001c0.014-0.009 0.032-0.023 0.053-0.037s0.038-0.032 0.052-0.042c0.171-0.17 0.348-0.334 0.531-0.49l0.012-0.010 0.501-0.5c0.042-0.056 0.087-0.111 0.136-0.167s0.101-0.102 0.157-0.143c0.056-0.056 0.108-0.102 0.157-0.143 0.050-0.045 0.089-0.101 0.114-0.164l0.001-0.003 0.084-0.083c0.029-0.016 0.054-0.038 0.073-0.064l0-0.001c0.021-0.028 0.038-0.056 0.052-0.083 0.055-0.069 0.115-0.134 0.178-0.194l0.303-0.301c0.042-0.042 0.084-0.093 0.125-0.148 0.056-0.069 0.112-0.139 0.167-0.218 0.056-0.074 0.118-0.139 0.188-0.194 0.014 0 0.021-0.009 0.021-0.023s0.007-0.028 0.021-0.042l0.136-0.134c0.049-0.046 0.101-0.093 0.157-0.134 0.055-0.028 0.115-0.051 0.178-0.074 0.062-0.018 0.129-0.032 0.198-0.032 0 0.014 0.003 0.028 0.010 0.032l0.032 0.032h0.073c0.021 0 0.038 0.014 0.052 0.042 0.111 0.083 0.23 0.162 0.355 0.236 0.125 0.079 0.258 0.153 0.397 0.218 0.028-0.009 0.056-0.009 0.084 0l0.083 0.046c0.028 0.014 0.052 0.028 0.073 0.051 0.021 0.018 0.045 0.037 0.073 0.051l0.501 0.25c0.237 0.153 0.481 0.292 0.732 0.426 0.251 0.13 0.495 0.273 0.732 0.426 0.209 0.139 0.411 0.278 0.606 0.426 0.195 0.143 0.404 0.273 0.627 0.384 0.070 0.023 0.139 0.056 0.209 0.093 0.069 0.032 0.139 0.069 0.209 0.111 0-0.015 0.004-0.030 0.011-0.042l-0 0 0.010-0.018c-0.026-0.082-0.054-0.151-0.087-0.217l0.004 0.009c-0.070-0.083-0.136-0.162-0.198-0.241-0.067-0.079-0.131-0.15-0.199-0.218l0 0c-0.027-0.039-0.058-0.073-0.093-0.101l-0.001-0.001c-0.034-0.027-0.065-0.055-0.094-0.083l0 0c-0.084-0.125-0.174-0.236-0.272-0.343-0.097-0.102-0.202-0.208-0.314-0.324-0.077-0.058-0.145-0.116-0.21-0.177l0.001 0.001c-0.070-0.060-0.146-0.111-0.23-0.153-0.086-0.058-0.161-0.116-0.232-0.178l0.003 0.002c-0.070-0.065-0.139-0.12-0.209-0.181l-0.094-0.093c-0.035-0.033-0.066-0.069-0.092-0.109l-0.001-0.002c-0.042-0.042-0.087-0.093-0.136-0.148-0.046-0.051-0.090-0.098-0.136-0.143v0l-0.021-0.023c-0.010-0.011-0.025-0.018-0.042-0.018v0c-0.014 0-0.021-0.009-0.021-0.023-0.027-0.027-0.058-0.050-0.092-0.068l-0.002-0.001c-0.034-0.023-0.066-0.046-0.094-0.074l-0.011-0.009c-0.006-0.008-0.010-0.019-0.010-0.030 0-0.001 0-0.002 0-0.002v0l-0.052-0.051c-0.020-0.021-0.045-0.038-0.072-0.050l-0.001-0.001c-0.073-0.102-0.145-0.191-0.222-0.276l0.002 0.003c-0.077-0.083-0.15-0.157-0.22-0.227-0.028-0.028-0.052-0.060-0.073-0.093-0.021-0.035-0.045-0.066-0.073-0.092l-0-0c-0.042-0.069-0.087-0.134-0.136-0.199-0.048-0.060-0.094-0.12-0.136-0.176l-0.251-0.333c-0.027-0.027-0.051-0.058-0.072-0.090l-0.001-0.002c-0.020-0.033-0.038-0.071-0.051-0.112l-0.001-0.004c0.042-0.097 0.087-0.19 0.136-0.278 0.049-0.093 0.115-0.176 0.198-0.259 0.097-0.083 0.195-0.176 0.293-0.273s0.195-0.185 0.293-0.268c0.111-0.111 0.226-0.222 0.345-0.333s0.233-0.227 0.345-0.352c0.014-0.028 0.035-0.051 0.062-0.074 0.028-0.018 0.056-0.042 0.084-0.069l0.167-0.167c0.055-0.056 0.104-0.12 0.146-0.19 0.069-0.093 0.139-0.19 0.209-0.278 0.070-0.093 0.146-0.176 0.23-0.259 0.056-0.069 0.115-0.139 0.178-0.208s0.122-0.139 0.178-0.208c0.083-0.097 0.164-0.199 0.24-0.301s0.15-0.213 0.22-0.319l0.167-0.25c0.056-0.083 0.126-0.162 0.209-0.231 0-0.014 0.010-0.018 0.031-0.018s0.039-0.009 0.052-0.023l0.084 0.083c0.028 0.028 0.055 0.051 0.083 0.065h0.011c0.007 0 0.017 0.005 0.031 0.018 0.321 0.111 0.637 0.245 0.951 0.393 0.313 0.153 0.631 0.306 0.951 0.458 0-0.015 0.004-0.030 0.011-0.042l-0 0.001c0.006-0.012 0.010-0.026 0.010-0.042v-0c0-0.014-0.003-0.028-0.010-0.051-0.006-0.015-0.010-0.032-0.011-0.051v-0c-0.014-0.028-0.027-0.060-0.041-0.093-0.014-0.037-0.028-0.069-0.042-0.093 0-0.018-0.004-0.028-0.010-0.042l-0.011-0.023c-0.083-0.111-0.164-0.213-0.24-0.31-0.085-0.107-0.17-0.202-0.261-0.292l-0-0-0.011-0.009c-0.006-0.008-0.010-0.019-0.010-0.030 0-0.001 0-0.002 0-0.002v0c0-0.014-0.004-0.023-0.011-0.032-0.009-0.006-0.019-0.009-0.031-0.009-0 0-0 0-0.001 0h0c-0.042-0.056-0.087-0.102-0.136-0.143s-0.094-0.093-0.136-0.148c-0.056-0.056-0.104-0.12-0.146-0.194-0.042-0.079-0.062-0.157-0.062-0.241l0.24-0.319c0.077-0.106 0.15-0.213 0.22-0.324 0.014-0.028 0.032-0.056 0.052-0.083s0.039-0.056 0.053-0.083c0.055-0.083 0.115-0.162 0.178-0.241 0.062-0.074 0.122-0.148 0.178-0.218 0.083-0.111 0.164-0.218 0.24-0.329s0.157-0.222 0.24-0.333c0.153-0.181 0.296-0.366 0.428-0.56s0.268-0.389 0.408-0.583c0.083-0.111 0.174-0.213 0.272-0.31s0.188-0.199 0.272-0.31l0.157-0.157c0.049-0.046 0.094-0.102 0.136-0.157l0.125-0.167c0.041-0.051 0.076-0.106 0.104-0.162 0-0.014 0.007-0.028 0.021-0.042l0.042-0.042c0.041-0.069 0.087-0.134 0.136-0.19s0.094-0.111 0.136-0.167l0.083-0.162c0.056-0.083 0.111-0.171 0.167-0.259 0.055-0.093 0.111-0.181 0.167-0.264 0-0.014 0.003-0.019 0.010-0.019h0.011c0.041-0.083 0.097-0.167 0.167-0.25s0.139-0.157 0.209-0.227c0.097-0.111 0.198-0.227 0.303-0.352s0.198-0.25 0.282-0.375c0.027-0.056 0.052-0.106 0.073-0.157 0.020-0.046 0.045-0.093 0.073-0.134l-0.021-0.019z"></path>
</svg>
