<!-- Generated by IcoMoon.io -->
<svg version="1.1" xmlns="http://www.w3.org/2000/svg" width="32" height="32" viewBox="0 0 32 32">
<path d="M0.935 12.785l-0.036 0.037c0-0.018 0.036-0.037 0.036-0.037zM17.258 0.25l0.036-0.037c0.072 0.023 0.084 0.037 0.036 0.037h-0.072zM25.23 3.125c-0.050-0.051-0.048-0.065 0.046-0.018l0.036 0.037s-0.031-0.005-0.082-0.018zM26.74 4.861c0.013 0.005 0.025 0.014 0.047 0.032l-0.047-0.032zM22.364 30.249c-0.317 0.315-0.395 0.143-0.72 0.463l-0.611 0.324-0.036 0.037c-0.17 0-0.313 0.106-0.504 0.106l0.144-0.074c-0.576 0.074-0.652 0.074-1.295 0.287l0.036-0.069c-0.31 0.102-0.74 0.37-0.971 0.139l-0.216 0.074h-0.216c-0.647 0-0.572 0.056-1.186 0.176l-0.323 0.037-0.36 0.074h-0.288l-0.288 0.032-0.108-0.106c-0.439 0.065-0.359 0.199-0.791 0.25l0.108-0.069c-0.431 0.144-1.083-0.093-1.51-0.181l0.036-0.069c-0.179 0-0.361-0.074-0.54-0.074h-0.108c-0.309-0.204-0.874-0.463-1.259-0.463l-0.252-0.106c-0.27-0.134-0.61-0.287-0.827-0.5l-0.108 0.069-0.288-0.139c-0.042-0.046-0.102-0.069-0.144-0.111l-0.072-0.069h-0.054c-0.038 0-0.090-0.069-0.090-0.069h0.072c0.054-0.056-0.783-0.12-0.647-0.074l-0.431-0.143c-0.162-0.051-0.338-0.102-0.503-0.143l-0.431-0.282c-0.269-0.268-0.624-0.444-0.899-0.717 0 0-0.077-0.042-0.108-0.069l-0.108-0.106c-1.103-1.097-2.363-2.074-3.416-3.217l0.144 0.074-0.252-0.25c0-0.079-0.144-0.181-0.144-0.181-0.005-0.009 0-0.037 0-0.037-0.049-0.194-0.148-0.199-0.252-0.356l0.072 0.037c-0.508-0.505-1.115-1.801-1.115-2.18 0 0-0.036-0.042-0.036-0.069l-0.431-1.287 0.108 0.181c-0.188-0.375-0.088-0.764-0.216-1.143v0.356c0-0.301-0.108-0.592-0.108-0.893 0-0.069 0.108 0.25 0.108 0.181v-0.662c0-0.106-0.288-0.426-0.288-0.375-0.369-0.731-0.358-1.532-0.611-2.287v-0.25c0-0.051-0.036-0.093-0.036-0.143v-0.213c0-0.722 0.539-3.481 0.539-1.43 0.147-0.583 0.060-0.546 0.18-1.143l0.108-0.069c0-0.088 0.032-0.171 0.065-0.25l0.013-0.037c0.034-0.079 0.065-0.162 0.065-0.25v-0.032l-0.036 0.032c0.042-0.509-0.019-0.611 0.072-1.106v0.037c0.022-0.042 0.035-0.091 0.036-0.143v-0.25l0.036-0.074v-0.106c0.052 0 0.036-0.037 0.036-0.069l0.036-0.037-0.036 0.143-0.036 0.213c0.188 0 0.611-1.583 0.611-1.926l0.036 0.032c0.123-0.194 0.422-0.741 0.611-0.926l-0.036 0.069c0.076-0.074 0.072-0.125 0.18-0.176l0.072-0.111c0-0.037 0.036-0.106 0.036-0.106l0.252-0.25c0.096-0.236 0.18-0.75 0.18-0.75 0.267-0.796 1.043-1.213 1.618-1.782l0.108-0.218 0.288-0.287c-0.105 0.069 0.503-0.944 0.503-0.963l0.216-0.213c-0.185 0.231 0.425-0.412 0.647-0.606l0.108-0.037 0.108-0.106 0.072-0.037c0.19-0.375 0.973-0.287 1.259-0.569l-0.216 0.069c0.495-0.162 0.818-0.583 1.294-0.787l0.072 0.106c0.158 0 0.363-0.213 0.503-0.282l0.072-0.037c0.073-0.074-0.027-0.106 0.072-0.106l0.108-0.074-0.288 0.111-0.36 0.25c0.154-0.125 0.051-0.287 0.252-0.287 0 0 0.045-0.037 0.072-0.037h0.072c0-0.023 0.006-0.037 0.018-0.037h0.090c0.176 0 0.489-0.065 0.647-0.106l0.431-0.143c0.137 0 0.259-0.069 0.396-0.069h0.323c0.038-0.037 0.144-0.018 0.144-0.069h-0.18c0.422 0 1.258-0.143 1.258-0.143 0.027 0 0.072-0.037 0.072-0.037h0.216s0.008 0.028 0 0.037l-0.072 0.032-0.036 0.037h-0.072c0.017 0 0.036 0.037 0.036 0.037s0.045-0.037 0.072-0.037c0 0 0.442-0.407 0.72-0.5l-0.144 0.037c0.093-0.093 0.174-0.12 0.288-0.181l-0.18 0.106c0.226-0.111 0.616-0.319 0.863-0.319l0.072 0.037h0.144c-0.017 0-0.371 0.014-0.036 0.069 0.188 0 0.139 0.037 0.36 0.106 0.523 0 0.739-0.148 1.042 0h0.719c-0.428 0 0.418 0.023 0.467 0.037h-0.216c-0.086 0 0.13 0.13 0.216 0.143 0.184-0.023 0.088-0.106 0.306-0.106h0.647c0.325 0 0.692 0.222 0.989 0.319 0.683-0.167 0.655-0.148 1.69 0.106l-0.108 0.074c0.208 0 0.358 0.176 0.539 0.176l-0.216-0.143c0.371 0.093 0.815 0.421 1.151 0.611-0.61-0.306 0.085 0.176 0.288 0.176l0.072 0.074c-0.425 0 0.644 0.551 0.971 0.819l0.108 0.106 0.108 0.074c0.112 0.056 0.242 0.102 0.359 0.143l0.36 0.106c0.193 0.074 0.549 0.157 0.709 0.194 0.144 0.143 0.717 0.583 0.909 0.805 0.247 0.282 0.42 0.625 0.647 0.926l-0.18-0.106c0.033 0.032 0.092 0.079 0.133 0.111-0.015-0.005-0.031-0.005-0.061-0.005l0.215 0.181c0.013 0 0.324 0.069 0.611 0.356l0.108 0.074 0.108 0.106 0.072 0.106-0.072-0.037c0.087 0.13 0.118 0.153 0.216 0.25l0.144 0.213c-0.301-0.296 0.463 0.713 0.683 1.074 0.292 0.481 0.72 1.463 1.294 1.75 0.131 0.259 0.54 0.921 0.54 1.787l0.108 0.032-0.108 0.25 0.036 0.287c0.207 0.102 0.154 0.111 0.252 0.287l-0.036-0.037c0 0.116 0.629 1.088 0.288 0.75l0.144 0.218h-0.036c0.040 0.116 0.108 0.356 0.108 0.356l0.144 0.426-0.036-0.037 0.288 1.111-0.324 1.606v0.069h0.036l0.072 0.218c0.112 0 0.145-0.069 0.288 0.282 0.042 0.213-0.047 0.435 0 0.643l0.108 0.324 0.072 0.106-0.036 0.143v0.069h-0.036c-0.027 0.056-0.036 0.181-0.036 0.181-0.183-0.185-0.129 0.495-0.179 0.75l0.036-0.074c-0.062 0.87-0.283 0.764-0.431 1.574v0.393l-0.072 0.069v0.143c0 0.384-0.233 0.676-0.323 1.037l-0.108 0.282-0.072 0.287c-0.334 0.477-0.6 0.935-0.899 1.43l-0.467 0.463c-0.114 0.116-0.239 0.218-0.358 0.324 0 0 0.001 0 0-0.005l-0.001 0.005c-0.018 0.014-0.020 0.014-0.037 0.032-0.012 0.014-0.023 0.023-0.035 0.037-0.459 0.305-0.694 0.889-0.863 1.393l-0.108 0.176-0.108 0.218c-0.141 0.139-0.409 0.301-0.609 0.38 0.011-0.009 0.022-0.014 0.033-0.023l-0.072 0.037 0.039-0.014c-1.365 0.907-2.126 1.629-3.167 2.833-0.025 0.024-0.055 0.043-0.088 0.055l-0.002 0.001-0.090 0.018c0.027 0 0.060-0.009 0.090-0.018l0.090-0.018 0.252-0.287 0.036-0.037c0.027-0.051 0.108-0.139 0.108-0.139 0.072-0.074-0.062 0.194-0.108 0.282l-0.179 0.181c-0.024 0.023-0.036 0.046-0.036 0.069h-0.144c-0.125 0.065-0.405 0.143-0.539 0.143l0.036-0.032h-0.036c-0.081 0.023-0.899 0.213-0.899 0.356h-0.072v-0.037l-0.036-0.037s-0.082 0.028-0.108 0h0.036l0.036-0.032 0.539-0.181c-0.186 0-0.539 0.143-0.539 0.143l-0.072 0.069zM29.016 24.681l-0.003 0.014c-0.003 0.009-0.006 0.014-0.013 0.018-0.015 0.018-0.036 0.028-0.056 0.037l0.072-0.069zM28.945 24.75c-0.013 0.009-0.025 0.023-0.037 0.037l0.036-0.037h0.001zM23.358 19.858c0.081-0.014 0.162-0.046 0.243-0.083 0.081-0.042 0.146-0.083 0.194-0.134 0.081-0.046 0.157-0.111 0.231-0.194 0.073-0.079 0.125-0.157 0.157-0.241 0.048-0.079 0.097-0.153 0.146-0.227s0.097-0.148 0.145-0.231c0.016-0.032 0.036-0.060 0.061-0.093s0.045-0.065 0.061-0.097c0.032-0.051 0.056-0.093 0.073-0.134s0.041-0.083 0.073-0.134c0.033-0.093 0.089-0.181 0.17-0.25 0.081-0.074 0.17-0.134 0.267-0.181 0.081-0.065 0.166-0.116 0.255-0.157s0.174-0.093 0.254-0.157c0.033-0.032 0.073-0.056 0.122-0.074 0.048-0.013 0.088-0.037 0.121-0.069v0c0.065-0.032 0.117-0.069 0.158-0.111 0.041-0.037 0.085-0.074 0.133-0.106 0.146-0.116 0.303-0.204 0.473-0.264 0.17-0.065 0.344-0.116 0.522-0.148l0.194-0.046c0.065-0.018 0.122-0.032 0.17-0.051 0.048-0.014 0.081-0.028 0.097-0.032l0.073-0.037c-0.032-0.032-0.068-0.059-0.107-0.082l-0.003-0.001c-0.044-0.029-0.081-0.066-0.108-0.11l-0.001-0.002c-0.033-0.032-0.065-0.060-0.097-0.083s-0.064-0.046-0.097-0.060c-0.181-0.071-0.325-0.136-0.465-0.208l0.029 0.013c-0.146-0.046-0.288-0.074-0.425-0.083s-0.279-0.018-0.425-0.037c-0.116-0.014-0.251-0.022-0.387-0.023h-0.911c-0.17 0-0.336 0.023-0.497 0.074-0.049 0.014-0.089 0.028-0.122 0.032-0.032 0.009-0.073 0.023-0.121 0.037-0.033 0.018-0.069 0.032-0.11 0.051-0.040 0.014-0.085 0.032-0.133 0.046l-0.486 0.194c-0.065 0.014-0.121 0.037-0.17 0.069s-0.097 0.074-0.146 0.12c-0.081 0.065-0.137 0.139-0.17 0.218-0.033 0.083-0.073 0.162-0.122 0.241l-0.097 0.194c-0.033 0.065-0.073 0.13-0.122 0.194-0.048 0.046-0.089 0.097-0.121 0.157-0.032 0.056-0.065 0.116-0.097 0.181-0.033 0.060-0.061 0.125-0.085 0.19-0.030 0.080-0.059 0.144-0.090 0.206l0.005-0.012c-0.032 0.162-0.053 0.315-0.061 0.468s-0.012 0.31-0.012 0.472c0 0.032-0.004 0.060-0.012 0.083-0.008 0.024-0.012 0.052-0.012 0.081 0 0.002 0 0.005 0 0.007v-0 0.19c0 0.032-0.008 0.056-0.024 0.074 0 0.014 0.004 0.037 0.012 0.069s0.012 0.060 0.012 0.074l-0.036 0.074c-0.008 0.014-0.004 0.037 0.012 0.069 0.016 0.018 0.036 0.028 0.061 0.028h0.061c0.048 0.014 0.097 0.023 0.146 0.023h0.485c0.048 0 0.097 0.005 0.146 0.009 0.048 0.009 0.089 0.014 0.121 0.014h0.388zM21.562 16.312l-0.121-0.12c-0.032-0.032-0.068-0.059-0.107-0.082l-0.003-0.001c-0.041-0.024-0.077-0.052-0.109-0.083v0c-0.032-0.018-0.060-0.038-0.085-0.060l0 0c-0.024-0.024-0.052-0.044-0.083-0.059l-0.002-0.001c-0.081-0.051-0.17-0.093-0.267-0.134-0.086-0.038-0.185-0.060-0.291-0.060-0 0-0 0-0.001 0h-0.607c-0.033 0-0.053 0.009-0.061 0.023l-0.036 0.074c-0.016 0.065-0.032 0.134-0.048 0.204-0.016 0.074-0.032 0.143-0.048 0.208 0 0.079-0.012 0.153-0.036 0.227s-0.045 0.148-0.061 0.227c-0.016 0.032-0.037 0.069-0.061 0.111s-0.044 0.074-0.061 0.106c0.048 0 0.093-0.005 0.134-0.009 0.040-0.009 0.085-0.014 0.133-0.014 0.065 0 0.125 0.005 0.182 0.014 0.056 0.005 0.109 0.028 0.157 0.060 0.033 0.014 0.053 0.028 0.061 0.037 0.008 0.005 0.020 0.028 0.037 0.060 0 0.014 0.004 0.028 0.012 0.046 0.007 0.013 0.012 0.029 0.012 0.046v0.074c0.016 0.032 0.028 0.069 0.036 0.111 0.008 0.037 0.020 0.074 0.036 0.106 0.016 0.13 0.020 0.268 0.012 0.421s-0.053 0.287-0.134 0.398c-0.012 0.041-0.038 0.075-0.072 0.097l-0.001 0c-0.032 0.014-0.073 0.032-0.121 0.046-0.016 0-0.028 0.005-0.036 0.014l-0.012 0.009h-0.061c-0 0-0.001 0-0.001 0-0.024 0-0.045 0.011-0.059 0.028l-0 0c-0.032 0-0.053 0.005-0.061 0.023-0.008 0.014-0.004 0.042 0.012 0.074 0.016 0.046 0.053 0.069 0.109 0.069h0.498c0.016 0 0.036 0.009 0.061 0.023 0.024 0.018 0.045 0.028 0.061 0.028 0.032 0 0.052-0.005 0.061-0.014s0.012-0.018 0.012-0.037c0.027-0.037 0.048-0.080 0.060-0.127l0.001-0.003c0.012-0.051 0.033-0.096 0.061-0.135l-0.001 0.001c0.016-0.051 0.028-0.093 0.036-0.134s0.020-0.083 0.036-0.13c0.033-0.083 0.069-0.153 0.11-0.218s0.077-0.13 0.109-0.194l0.194-0.384 0.097-0.148c0.033-0.046 0.057-0.093 0.073-0.143 0.016-0.032 0.028-0.069 0.037-0.106 0.008-0.042 0.028-0.079 0.061-0.111 0.015-0.028 0.027-0.060 0.036-0.094l0.001-0.003c0.012-0.037 0.033-0.068 0.060-0.092l0-0c0.016-0.032 0.033-0.060 0.048-0.088 0.016-0.023 0.033-0.060 0.048-0.106v-0.046l-0.048-0.028zM19.863 17.543c-0.016-0.065-0.028-0.125-0.036-0.181s-0.039-0.104-0.084-0.134l-0.001-0c-0.051-0.038-0.115-0.061-0.185-0.061-0.008 0-0.015 0-0.023 0.001l0.001-0c-0.067 0.009-0.146 0.014-0.225 0.014-0.002 0-0.004 0-0.006 0h-0.121c-0.048 0-0.081 0.014-0.097 0.046-0.014 0.025-0.023 0.056-0.024 0.088v0.061c-0.081 0-0.13 0.005-0.146 0.023l-0.048 0.046c-0.015 0.028-0.027 0.060-0.036 0.094l-0.001 0.003c-0.006 0.029-0.019 0.054-0.037 0.074l0-0c-0.033 0.046-0.053 0.093-0.061 0.13-0.008 0.042-0.012 0.083-0.012 0.134 0.016 0.097 0.052 0.167 0.109 0.218 0.056 0.046 0.117 0.088 0.182 0.12 0.048 0.032 0.101 0.051 0.157 0.060s0.109 0.009 0.158 0.009h0.157c0.057 0 0.101-0.005 0.134-0.023 0.061-0.029 0.111-0.073 0.145-0.128l0.001-0.001c0.033-0.060 0.057-0.12 0.073-0.181 0.033-0.065 0.049-0.134 0.049-0.208 0-0.069-0.008-0.139-0.025-0.204zM6.369 16.409c0.033 0 0.061 0.005 0.085 0.014 0.024 0.005 0.053 0.005 0.085-0.014 0.032-0.014 0.069-0.037 0.109-0.069s0.077-0.065 0.109-0.097c0.033-0.018 0.057-0.037 0.073-0.060 0.018-0.026 0.043-0.047 0.072-0.060l0.001-0c0.016 0 0.032-0.005 0.048-0.014 0.019-0.010 0.035-0.022 0.048-0.037l0-0c0.052-0.054 0.118-0.096 0.191-0.119l0.003-0.001 0.012-0.009c0.024-0.018 0.052-0.030 0.083-0.037l0.001-0c-0.016-0.032-0.016-0.056 0-0.074 0.016-0.014 0.024-0.037 0.024-0.069 0-0.018-0.008-0.037-0.024-0.065-0.016-0.024-0.032-0.051-0.047-0.079l-0.002-0.004c-0.015-0.028-0.027-0.060-0.036-0.094l-0.001-0.003c-0.008-0.032-0.030-0.057-0.060-0.069l-0.001-0c-0.026-0.027-0.059-0.048-0.096-0.060l-0.002-0c-0.032-0.009-0.064-0.023-0.097-0.037-0.048-0.018-0.089-0.032-0.121-0.046-0.033-0.018-0.072-0.028-0.113-0.028-0.003 0-0.006 0-0.009 0h0c-0.032 0-0.069-0.005-0.109-0.009-0.033-0.008-0.070-0.013-0.109-0.014h-0c-0.033 0-0.057 0.005-0.073 0.014-0.016 0.005-0.024 0.028-0.024 0.060-0.014 0.011-0.023 0.028-0.024 0.046v0.051c0 0.014-0.004 0.032-0.012 0.060-0.008 0.023-0.020 0.051-0.036 0.083v0.264c0 0.032-0.004 0.074-0.012 0.12-0.006 0.045-0.019 0.085-0.037 0.123l0.001-0.002v0.241c0 0.051 0.004 0.079 0.012 0.088 0.020 0.006 0.044 0.010 0.068 0.010 0.006 0 0.012-0 0.018-0.001l-0.001 0zM25.519 17.979c-0.162 0.079-0.279 0.157-0.352 0.227l-0.158 0.157c-0.032 0.046-0.069 0.102-0.109 0.157s-0.069 0.116-0.085 0.181c-0.015 0.028-0.024 0.062-0.024 0.097v0c0 0.032-0.008 0.065-0.024 0.097 0 0.046 0.004 0.079 0.012 0.093 0.008 0.018 0.028 0.028 0.061 0.028 0.048 0.014 0.101 0.028 0.157 0.037 0.057 0.005 0.109 0.009 0.158 0.009 0.081-0.014 0.157-0.037 0.23-0.060 0.071-0.022 0.132-0.059 0.182-0.107l-0 0c0.048-0.051 0.093-0.111 0.133-0.181 0.036-0.060 0.058-0.131 0.061-0.208l0-0.001c0.008-0.028 0.012-0.061 0.012-0.095s-0.004-0.066-0.012-0.098l0.001 0.003-0.048-0.194c0-0.014-0.020-0.046-0.061-0.097-0.040-0.046-0.085-0.065-0.133-0.046zM27.654 17.71c0-0.065-0.008-0.12-0.024-0.167l-0.048-0.143c-0.016-0.032-0.032-0.072-0.046-0.113l-0.002-0.008c-0.013-0.047-0.050-0.084-0.096-0.097l-0.001-0c-0.081 0.014-0.137 0.023-0.17 0.023s-0.073 0.009-0.122 0.023c-0.032 0.018-0.069 0.032-0.109 0.051-0.037 0.011-0.067 0.036-0.084 0.069l-0 0.001c-0.029 0.042-0.050 0.092-0.060 0.146l-0 0.002c-0.008 0.046-0.012 0.102-0.012 0.167v0.292c0 0.093 0.008 0.19 0.024 0.287 0.016 0.111 0.020 0.231 0.012 0.347-0.008 0.125-0.020 0.241-0.036 0.352 0 0.065-0.013 0.12-0.037 0.171-0.023 0.046-0.036 0.1-0.036 0.157 0 0.003 0 0.007 0 0.010v-0c-0.015 0.015-0.024 0.035-0.024 0.058 0 0.001 0 0.002 0 0.003v-0c0 0.023-0.008 0.042-0.024 0.060-0.019 0.052-0.048 0.097-0.085 0.134l0-0-0.134 0.13c-0.037 0.021-0.069 0.046-0.097 0.074l-0 0-0.097 0.097c-0.018 0.018-0.034 0.037-0.048 0.059l-0.001 0.001c-0.020 0.025-0.044 0.045-0.072 0.060l-0.001 0.001c-0.048 0.032-0.089 0.069-0.121 0.106-0.033 0.042-0.073 0.079-0.122 0.111-0.048 0.013-0.088 0.037-0.121 0.069v0c-0.034 0.032-0.074 0.057-0.119 0.073l-0.002 0.001c-0.033 0-0.065 0.005-0.097 0.009-0.032 0.009-0.073 0.023-0.121 0.037-0.024 0.016-0.053 0.026-0.084 0.028l-0.001 0c-0 0-0 0-0.001 0-0.031 0-0.060 0.009-0.085 0.024l0.001-0-0.291 0.046c-0.097 0.018-0.194 0.023-0.291 0.023h-0.485c-0.001 0-0.003 0-0.005 0-0.102 0-0.201-0.017-0.293-0.048l0.006 0.002c-0.111-0.038-0.207-0.086-0.295-0.146l0.004 0.003c-0.022-0.022-0.046-0.042-0.072-0.059l-0.002-0.001c-0.032-0.023-0.048-0.046-0.048-0.060-0.016-0.018-0.024-0.028-0.024-0.037v-0.037c-0.016-0.014-0.041-0.018-0.073-0.014l-0.048 0.014c-0.033 0-0.061 0.009-0.085 0.023-0.024 0.018-0.052 0.032-0.085 0.051h-0.073c-0.033 0-0.057 0.005-0.073 0.023-0.033 0-0.077 0.009-0.134 0.023-0.052 0.015-0.097 0.040-0.134 0.074l0-0c-0.016 0.032-0.012 0.056 0.012 0.069 0.024 0.018 0.044 0.032 0.061 0.051 0.028 0.011 0.049 0.033 0.060 0.059l0 0.001c0.008 0.023 0.020 0.051 0.036 0.083 0.048 0.065 0.105 0.125 0.17 0.181s0.13 0.102 0.194 0.134c0.048 0.014 0.093 0.032 0.133 0.046 0.041 0.018 0.085 0.032 0.133 0.051 0.016 0.014 0.037 0.028 0.061 0.032 0.024 0.009 0.044 0.023 0.061 0.037h0.073c0.016 0 0.041 0.009 0.073 0.023 0.146 0.051 0.291 0.079 0.437 0.088 0.145 0.005 0.291 0.009 0.437 0.009h0.51l0.388-0.097c0.097-0.032 0.186-0.060 0.267-0.093l0.243-0.097c0.065-0.032 0.125-0.069 0.182-0.111 0.056-0.037 0.117-0.074 0.182-0.106 0.033-0.032 0.065-0.060 0.097-0.083 0.032-0.028 0.065-0.056 0.097-0.088 0.027-0.028 0.059-0.052 0.095-0.069l0.002-0.001 0.097-0.051c0.065-0.065 0.125-0.134 0.182-0.218 0.057-0.079 0.11-0.157 0.158-0.241 0.048-0.060 0.085-0.125 0.109-0.19s0.053-0.13 0.085-0.194c0.032-0.097 0.056-0.185 0.073-0.264 0.016-0.083 0.032-0.171 0.048-0.268 0.016-0.046 0.028-0.097 0.036-0.153 0.008-0.060 0.020-0.111 0.036-0.157v-0.12c0-0.051 0.008-0.088 0.024-0.12v-0.412c-0.016-0.046-0.024-0.102-0.024-0.157s-0.008-0.106-0.024-0.157zM11.708 15.423c0.033 0.014 0.065 0.028 0.097 0.032 0.032 0.009 0.065 0.014 0.097 0.014 0.13 0.032 0.259 0.046 0.388 0.037s0.259-0.005 0.389 0.009c0.145 0.032 0.291 0.056 0.437 0.065 0.146 0.005 0.291 0.018 0.437 0.032 0.081 0 0.158 0.009 0.231 0.028 0.073 0.014 0.141 0.028 0.206 0.046h0.631c0.065 0 0.122-0.018 0.17-0.046 0.016 0 0.057-0.014 0.121-0.037s0.097-0.056 0.097-0.088l0.364-0.19c-0.032 0-0.053-0.009-0.061-0.023-0.008-0.018-0.021-0.032-0.036-0.051-0.016-0.032-0.033-0.069-0.048-0.12l-0.049-0.143c-0.016-0.051-0.032-0.093-0.048-0.134-0.016-0.037-0.032-0.074-0.048-0.106l-0.048-0.097c-0.014-0.028-0.030-0.053-0.049-0.075l0 0.001c-0.030-0.030-0.067-0.054-0.108-0.069l-0.002-0.001c-0.040-0.018-0.077-0.032-0.109-0.051-0.049-0.027-0.107-0.044-0.169-0.046l-0.001-0c-0.048 0-0.097-0.009-0.145-0.023-0.031-0.017-0.067-0.028-0.106-0.028-0.001 0-0.002 0-0.003 0h0c-0.040 0-0.069-0.005-0.085-0.023h-1.068c-0.114 0-0.223-0.009-0.328-0.023-0.115-0.018-0.218-0.060-0.306-0.122l0.002 0.002-0.097-0.046c-0.028-0.017-0.061-0.027-0.097-0.028h-0c-0.003-0-0.006-0-0.010-0-0.040 0-0.078 0.005-0.115 0.015l0.003-0.001c-0.032 0.009-0.065 0.018-0.097 0.037l-0.085 0.083c-0.024 0.024-0.045 0.051-0.060 0.082l-0.001 0.002-0.085 0.088c-0.027 0.029-0.048 0.065-0.060 0.105l-0.001 0.002c-0.016 0.032-0.032 0.069-0.048 0.106-0.031 0.083-0.068 0.155-0.112 0.222l0.003-0.004c-0.023 0.037-0.036 0.083-0.036 0.131 0 0.001 0 0.002 0 0.003v-0c-0.016 0.046-0.032 0.102-0.048 0.167-0.005 0.018-0.008 0.038-0.008 0.059 0 0.042 0.012 0.080 0.033 0.113l-0.001-0.001c0 0.014 0.008 0.032 0.024 0.046l0.048 0.051zM9.233 17.979c-0.032 0.014-0.069 0.032-0.109 0.046-0.041 0.018-0.085 0.042-0.134 0.074-0.048 0.046-0.093 0.106-0.133 0.181-0.041 0.069-0.077 0.139-0.11 0.204-0.016 0.051-0.028 0.106-0.036 0.171-0.003 0.017-0.004 0.037-0.004 0.057 0 0.039 0.006 0.077 0.017 0.112l-0.001-0.003c0 0.032 0.016 0.051 0.048 0.060s0.065 0.014 0.097 0.014c0.001 0 0.002 0 0.002 0 0.031 0 0.060-0.010 0.083-0.028l-0 0c0.024-0.014 0.054-0.023 0.085-0.023h0c0.016 0 0.041-0.005 0.073-0.009 0.029-0.009 0.062-0.014 0.097-0.014h0c0.032-0.018 0.061-0.037 0.085-0.060s0.045-0.051 0.060-0.082l0.001-0.002c0.033-0.032 0.061-0.065 0.085-0.097s0.053-0.065 0.085-0.097c0.032-0.046 0.056-0.102 0.073-0.157s0.024-0.116 0.024-0.181v-0.083c0-0.023-0.008-0.051-0.024-0.083 0-0.018-0.004-0.032-0.012-0.051-0.008-0.014-0.004-0.032 0.012-0.046-0.145 0.032-0.234 0.051-0.267 0.060s-0.065 0.018-0.097 0.037zM18.674 17.229c0-0.014 0.008-0.032 0.024-0.046l0.049-0.051c0.016-0.014 0.040-0.032 0.073-0.060 0.032-0.023 0.041-0.083 0.024-0.181 0-0.002 0-0.004 0-0.006 0-0.062-0.023-0.118-0.061-0.161l0 0c-0.039-0.048-0.069-0.105-0.085-0.168l-0.001-0.003c0-0.032-0.012-0.065-0.036-0.093-0.022-0.026-0.035-0.060-0.036-0.097v-0l-0.048-0.143c-0.016-0.051-0.032-0.093-0.048-0.125-0.079-0.124-0.203-0.214-0.348-0.249l-0.004-0.001c-0.154-0.042-0.303-0.037-0.449 0.009-0.081 0.051-0.17 0.097-0.267 0.148-0.097 0.046-0.194 0.069-0.291 0.069h-0.073c-0.016 0-0.032 0.018-0.048 0.051v0.046c0 0.018-0.004 0.028-0.012 0.037l-0.012 0.014c-0.016 0.014-0.020 0.028-0.012 0.032l0.036 0.037c0.016 0.032 0.036 0.069 0.061 0.111 0.024 0.037 0.044 0.074 0.061 0.106s0.033 0.069 0.048 0.106c0.016 0.042 0.033 0.079 0.049 0.111 0.016 0.014 0.028 0.032 0.036 0.046 0.008 0.018 0.012 0.042 0.012 0.074 0.016 0.032 0.032 0.056 0.048 0.074l0.048 0.046c0.016 0.032 0.028 0.060 0.036 0.083s0.020 0.046 0.036 0.060c0.033 0.032 0.061 0.069 0.085 0.111 0.024 0.037 0.044 0.074 0.061 0.106 0.048 0.051 0.097 0.106 0.145 0.171 0.048 0.060 0.089 0.125 0.122 0.19 0.016 0.032 0.036 0.060 0.061 0.083l0 0 0.061 0.060c0 0.032 0.008 0.065 0.024 0.088s0.024 0.042 0.024 0.060c0.016 0.032 0.033 0.065 0.048 0.106s0.033 0.079 0.049 0.111l0.048 0.093c0.016 0.032 0.041 0.065 0.073 0.097 0 0.018 0.008 0.032 0.024 0.051 0.016 0.014 0.033 0.023 0.048 0.023h0.219c0.048 0 0.081-0.009 0.097-0.023 0.033-0.032 0.036-0.069 0.012-0.111-0.024-0.037-0.044-0.069-0.061-0.083-0.032-0.046-0.061-0.102-0.085-0.157-0.037-0.086-0.066-0.145-0.096-0.204l0.011 0.023c-0.031-0.056-0.049-0.123-0.049-0.194 0-0 0-0 0-0.001v0c0-0.032 0.004-0.065 0.012-0.093 0.008-0.032 0.020-0.065 0.037-0.097 0.019-0.056 0.048-0.104 0.085-0.144l-0 0c0.041-0.051 0.077-0.097 0.109-0.148h0.024zM23.092 13.47c-0.016 0.031-0.029 0.066-0.036 0.104l-0 0.003c-0.009 0.044-0.030 0.082-0.061 0.111l-0 0c0 0.003 0 0.007 0 0.011 0 0.021-0.005 0.041-0.013 0.059l0-0.001c-0.010 0.020-0.022 0.036-0.036 0.051v0c-0.010 0.034-0.016 0.072-0.016 0.112 0 0.019 0.001 0.038 0.004 0.056l-0-0.002c0.008 0.051 0.028 0.097 0.061 0.143 0.081 0.097 0.182 0.181 0.303 0.241 0.122 0.065 0.239 0.116 0.352 0.148 0.033 0 0.065 0.005 0.097 0.023 0.034 0.015 0.075 0.023 0.117 0.023 0.002 0 0.003 0 0.005-0h-0c0.033 0.018 0.065 0.023 0.097 0.023h0.097c0.065 0.018 0.133 0.028 0.206 0.028h0.716c0.016 0 0.024-0.018 0.024-0.051 0.015-0.014 0.024-0.035 0.024-0.057 0-0.001-0-0.002-0-0.003v0c0-0.023 0.008-0.042 0.024-0.060 0-0.046 0.008-0.102 0.024-0.157s0.033-0.106 0.049-0.157v-0.491c0-0.042-0.008-0.088-0.025-0.134 0-0.032-0.012-0.069-0.036-0.111-0.019-0.029-0.040-0.064-0.058-0.1l-0.003-0.006c-0.017-0.065-0.056-0.12-0.108-0.157l-0.001-0.001c-0.057-0.037-0.11-0.093-0.158-0.157-0.028-0.031-0.052-0.066-0.071-0.104l-0.001-0.003c-0.032-0.056-0.097-0.093-0.194-0.106-0.016 0-0.028 0-0.036 0.009s-0.020 0.014-0.036 0.014h-0.024l-0.048 0.046c-0.065 0.018-0.13 0.023-0.194 0.023s-0.121 0.009-0.17 0.028c-0.033 0.014-0.061 0.028-0.085 0.032-0.024 0.009-0.053 0.023-0.085 0.037-0.032 0.018-0.069 0.037-0.109 0.060s-0.077 0.046-0.11 0.060c-0.032 0.018-0.060 0.038-0.085 0.060l0-0c-0.024 0.024-0.052 0.044-0.083 0.059l-0.002 0.001c-0.049 0.051-0.101 0.097-0.158 0.148-0.056 0.046-0.109 0.093-0.157 0.143zM16.902 17.641c-0.032-0.051-0.061-0.088-0.085-0.12-0.027-0.041-0.048-0.089-0.060-0.14l-0.001-0.003c-0.016-0.051-0.036-0.096-0.062-0.137l0.001 0.002c-0.025-0.042-0.053-0.083-0.085-0.134-0.032-0.065-0.061-0.125-0.085-0.181-0.027-0.061-0.056-0.113-0.088-0.162l0.003 0.005c-0.049-0.133-0.111-0.247-0.185-0.352l0.003 0.005c-0.063-0.090-0.132-0.197-0.195-0.307l-0.011-0.021c-0.025-0.070-0.072-0.128-0.132-0.166l-0.001-0.001c-0.040-0.024-0.1-0.057-0.161-0.087l-0.021-0.010c-0.065 0.097-0.113 0.143-0.145 0.143h-0.073c-0.022 0.001-0.043 0.006-0.062 0.014l0.001-0c-0.018 0.008-0.038 0.013-0.060 0.014l-0 0c-0.032 0-0.065 0.005-0.097 0.009-0.029 0.009-0.063 0.014-0.097 0.014h-0c-0.016 0-0.040 0.005-0.073 0.009-0.021 0.007-0.046 0.012-0.072 0.014l-0.001 0c-0.081 0.014-0.154 0.028-0.219 0.037s-0.13 0.018-0.194 0.037c-0.056 0.029-0.122 0.050-0.191 0.060l-0.003 0c-0.065 0.005-0.141 0.009-0.218 0.009h-0.001c-0.162 0.032-0.323 0.051-0.486 0.051h-0.509c-0.097 0-0.194 0.005-0.291 0.009-0.097 0.009-0.194 0.023-0.291 0.037-0.048 0-0.105 0.005-0.17 0.014-0.067 0.007-0.126 0.038-0.17 0.083l-0 0c-0.032 0.033-0.057 0.073-0.072 0.118l-0.001 0.002-0.048 0.143c-0.019 0.021-0.035 0.046-0.048 0.072l-0.001 0.002c-0.008 0.014-0.012 0.031-0.012 0.049s0.005 0.035 0.012 0.049l-0-0.001c0 0.032 0.012 0.065 0.036 0.106s0.045 0.079 0.061 0.111c0.016 0.046 0.036 0.093 0.061 0.143 0.025 0.046 0.045 0.102 0.061 0.167 0.048 0.116 0.101 0.222 0.158 0.329 0.057 0.102 0.11 0.213 0.158 0.324 0.048 0.079 0.097 0.157 0.145 0.227 0.048 0.074 0.089 0.148 0.122 0.231 0.016 0.032 0.036 0.060 0.060 0.083l0 0c0.024 0.023 0.053 0.046 0.085 0.060 0.016 0.018 0.036 0.028 0.061 0.037s0.045 0.018 0.061 0.037l0.073 0.037c0.016 0.005 0.041 0.009 0.073 0.009h0.122c0.032 0 0.064 0.005 0.097 0.014 0.032 0.005 0.065 0.018 0.097 0.037 0.162 0.014 0.324 0.028 0.486 0.032 0.162 0.009 0.323 0.014 0.486 0.014 0.145 0 0.283-0.009 0.412-0.023 0.13-0.018 0.259-0.023 0.388-0.023h1.165c0.081 0 0.182-0.005 0.303-0.014s0.206-0.060 0.255-0.157c0.033-0.046 0.045-0.106 0.036-0.181-0.006-0.067-0.019-0.128-0.038-0.186l0.002 0.006c-0.018-0.069-0.047-0.129-0.086-0.182l0.001 0.001c-0.035-0.045-0.064-0.097-0.084-0.154l-0.001-0.004c-0.016-0.046-0.033-0.093-0.049-0.134-0.012-0.027-0.029-0.070-0.044-0.114l-0.005-0.016zM19.451 11.345h0.437c0.064 0 0.125-0.005 0.182-0.023 0.057-0.014 0.11-0.023 0.158-0.023 0.081 0 0.157-0.014 0.23-0.037s0.142-0.037 0.206-0.037h0.631c0.081 0 0.166 0.009 0.255 0.028 0.089 0.014 0.174 0.028 0.255 0.046 0.113 0.046 0.231 0.093 0.352 0.134 0.122 0.037 0.231 0.093 0.328 0.157 0.033 0.014 0.057 0.037 0.073 0.069s0.032 0.056 0.048 0.074c0.032 0.032 0.048 0.065 0.048 0.097 0 0.028 0.008 0.069 0.024 0.12 0.016 0.031 0.029 0.066 0.036 0.104l0 0.002c0.008 0.042 0.004 0.083-0.012 0.134 0 0.032-0.008 0.065-0.024 0.106-0.014 0.033-0.023 0.071-0.024 0.111v0c0 0.014 0.004 0.028 0.012 0.046 0.008 0.014 0.004 0.032-0.012 0.046 0 0.032-0.004 0.060-0.012 0.074-0.010 0.018-0.022 0.033-0.036 0.046l-0 0v0.218c0 0.032 0.016 0.060 0.048 0.074h0.024c0.033 0.014 0.065 0.023 0.097 0.023s0.049-0.014 0.049-0.046c0.032 0 0.052-0.014 0.061-0.037s0.012-0.046 0.012-0.060c0.032-0.046 0.056-0.102 0.073-0.157s0.033-0.106 0.048-0.157c0.048-0.097 0.093-0.194 0.134-0.301 0.017-0.044 0.027-0.095 0.027-0.148 0-0.064-0.015-0.125-0.041-0.179l0.001 0.002c-0.026-0.082-0.047-0.138-0.069-0.194l0.008 0.023c-0.021-0.060-0.059-0.109-0.108-0.143l-0.001-0.001c-0.039-0.037-0.083-0.069-0.13-0.096l-0.003-0.002c-0.051-0.028-0.095-0.060-0.134-0.097l0 0c-0.056-0.037-0.095-0.064-0.134-0.092l0.013 0.009c-0.027-0.019-0.059-0.039-0.092-0.057l-0.006-0.003c-0.042-0.041-0.085-0.080-0.13-0.118l-0.003-0.003c-0.038-0.031-0.082-0.063-0.126-0.093l-0.007-0.004c-0.097-0.046-0.194-0.093-0.291-0.13-0.070-0.032-0.166-0.069-0.265-0.103l-0.027-0.008c-0.042-0.029-0.090-0.053-0.142-0.068l-0.004-0.001-0.145-0.051c-0.065-0.014-0.126-0.023-0.182-0.023h-0.486c-0.105 0-0.214 0.009-0.328 0.023-0.097 0-0.194 0.005-0.291 0.014-0.097 0.005-0.194 0.018-0.291 0.037h-0.267c-0.032 0-0.065 0-0.097 0.009s-0.057 0.018-0.073 0.037c-0.033 0-0.065 0.005-0.097 0.014-0.032 0.005-0.065 0.009-0.097 0.009-0.018 0-0.035 0.005-0.049 0.014l0-0c-0.016 0.009-0.033 0.018-0.048 0.037-0.050 0.049-0.088 0.11-0.109 0.178l-0.001 0.003c-0.008 0.019-0.013 0.040-0.013 0.063 0 0.046 0.019 0.087 0.049 0.117v0c0.081 0.065 0.162 0.111 0.243 0.143s0.162 0.046 0.243 0.046zM10.908 17.52c0 0.014 0.008 0.037 0.024 0.060s0.032 0.042 0.048 0.060c0 0.032 0.012 0.069 0.036 0.106 0.024 0.042 0.036 0.079 0.036 0.111 0.033 0.079 0.041 0.171 0.024 0.278-0.016 0.102-0.024 0.194-0.024 0.273-0.016 0.065-0.032 0.134-0.048 0.208-0.016 0.069-0.041 0.139-0.073 0.204-0.016 0.046-0.045 0.102-0.085 0.157-0.038 0.051-0.067 0.112-0.084 0.177l-0.001 0.004c-0.016 0-0.024 0.005-0.024 0.009v0.014h-1.335c-0.097 0-0.198-0.005-0.304-0.014-0.105-0.005-0.206-0.009-0.303-0.009h-0.643c-0.023-0-0.045-0.009-0.061-0.023l0 0c0-0.018 0.004-0.032 0.012-0.051 0.010-0.018 0.022-0.033 0.036-0.046l0-0c0.068-0.152 0.146-0.283 0.235-0.404l-0.004 0.006c0.089-0.12 0.174-0.245 0.255-0.375 0.065-0.079 0.133-0.157 0.206-0.241 0.073-0.079 0.15-0.143 0.23-0.194 0.065-0.046 0.134-0.088 0.206-0.13s0.142-0.083 0.206-0.134c0.065-0.032 0.125-0.065 0.182-0.097s0.117-0.065 0.182-0.093c0.016-0.018 0.041-0.028 0.073-0.028s0.057-0.005 0.073-0.023c0.032-0.014 0.061-0.032 0.085-0.046 0.024-0.018 0.044-0.032 0.061-0.051 0.023-0.009 0.044-0.021 0.061-0.037l-0 0c0.008-0.005 0.028-0.018 0.061-0.032l0.194-0.097c0.065-0.032 0.125-0.069 0.182-0.111 0.056-0.037 0.109-0.083 0.158-0.13 0.065-0.065 0.122-0.134 0.17-0.208 0.048-0.069 0.089-0.153 0.121-0.25 0-0.051 0.008-0.093 0.024-0.134 0.015-0.038 0.024-0.082 0.024-0.129 0-0.002-0-0.004-0-0.006v0c0.016-0.034 0.025-0.074 0.025-0.117 0-0.005-0-0.009-0-0.014l0 0.001v-0.157c0-0.004 0-0.009 0-0.014 0-0.066-0.018-0.129-0.050-0.182l0.001 0.002c-0.032-0.046-0.032-0.102 0-0.167-0.012-0.027-0.033-0.049-0.060-0.060l-0.001-0c-0.018-0.008-0.038-0.013-0.060-0.014l-0-0c-0.016-0.014-0.032-0.028-0.048-0.037l-0.024-0.009h-0.048c-0.018-0-0.035-0.005-0.049-0.014l0 0c-0.016-0.009-0.032-0.009-0.048-0.009-0.031-0.019-0.068-0.032-0.108-0.037l-0.001-0c-0.033-0.008-0.070-0.013-0.109-0.014h-0c-0.016-0.014-0.032-0.023-0.048-0.023h-0.048c-0.035-0-0.068-0.005-0.099-0.015l0.002 0.001c-0.033-0.005-0.057-0.009-0.073-0.009h-0.801c-0.048 0-0.093 0.005-0.134 0.009-0.040 0.009-0.093 0.023-0.158 0.037-0.035 0.018-0.076 0.031-0.12 0.037l-0.002 0c-0.048 0.009-0.097 0.018-0.145 0.037-0.016 0.014-0.036 0.032-0.061 0.046-0.021 0.015-0.047 0.024-0.076 0.024-0.003 0-0.007-0-0.010-0l0 0-0.036 0.014c-0.018 0.008-0.038 0.013-0.060 0.014l-0 0c-0.055 0.016-0.104 0.036-0.149 0.062l0.003-0.002c-0.049 0.023-0.097 0.042-0.146 0.060-0.032 0.014-0.061 0.028-0.085 0.037-0.024 0.005-0.053 0.018-0.085 0.032-0.016 0-0.036 0.009-0.061 0.028-0.023 0.012-0.043 0.028-0.060 0.046l-0 0c-0.048 0.014-0.093 0.032-0.133 0.046-0.042 0.019-0.079 0.044-0.11 0.074l0-0c-0.13 0.065-0.255 0.13-0.376 0.194-0.122 0.060-0.239 0.134-0.352 0.218-0.033 0.028-0.069 0.056-0.109 0.083-0.040 0.023-0.077 0.051-0.109 0.083s-0.065 0.060-0.097 0.083c-0.033 0.023-0.065 0.051-0.097 0.083-0.021 0.036-0.049 0.066-0.084 0.087l-0.001 0.001c-0.036 0.019-0.065 0.048-0.084 0.082l-0.001 0.001c-0.081 0.065-0.15 0.134-0.206 0.218-0.057 0.079-0.109 0.157-0.158 0.241-0.048 0.065-0.089 0.125-0.121 0.181s-0.065 0.116-0.097 0.181c-0.029 0.028-0.051 0.064-0.061 0.105l-0 0.002c-0.011 0.051-0.032 0.096-0.061 0.135l0.001-0.001c0 0.014-0.008 0.037-0.024 0.060-0.015 0.022-0.024 0.050-0.024 0.079 0 0.002 0 0.003 0 0.004v-0c0 0.018-0.004 0.037-0.012 0.060-0.008 0.025-0.012 0.053-0.012 0.083 0 0.002 0 0.004 0 0.005v-0c0 0.032-0.008 0.060-0.024 0.093-0.015 0.028-0.024 0.062-0.024 0.097v0c-0.014 0.040-0.023 0.086-0.024 0.134v0c0 0.037-0.008 0.083-0.024 0.134 0 0.028-0.008 0.065-0.024 0.106s-0.033 0.074-0.049 0.106l-0.097 0.194c-0.016 0-0.024 0.005-0.024 0.014v0.009c-0.081-0.014-0.158-0.028-0.231-0.037-0.077-0.006-0.147-0.018-0.215-0.034l0.009 0.002c-0.051-0.012-0.109-0.019-0.169-0.019-0.030 0-0.060 0.002-0.089 0.005l0.004-0c-0.084 0.006-0.157 0.046-0.206 0.106l-0 0c-0.032 0.051-0.061 0.093-0.085 0.134s-0.053 0.083-0.085 0.134c-0.032 0.046-0.065 0.106-0.097 0.181-0.032 0.069-0.048 0.139-0.048 0.204-0.016 0.051-0.012 0.083 0.012 0.106 0.024 0.028 0.053 0.046 0.085 0.065 0.033 0.014 0.069 0.028 0.109 0.032 0.040 0.009 0.077 0.014 0.109 0.014h0.486c0 0.032-0.008 0.060-0.024 0.083-0.015 0.023-0.031 0.042-0.049 0.060l-0 0-0.048 0.051c0 0.032 0.012 0.046 0.036 0.046h0.036c0.049 0.014 0.089 0.028 0.122 0.037s0.073 0.009 0.121 0.009c0.048 0.018 0.097 0.028 0.146 0.028h1.117c0.097 0 0.194-0.023 0.291-0.060 0.097-0.042 0.194-0.079 0.291-0.111 0.048 0 0.089-0.009 0.121-0.037 0.031-0.020 0.069-0.033 0.11-0.033 0.004 0 0.008 0 0.012 0l-0.001-0c0.033 0 0.061-0.005 0.085-0.014s0.053-0.018 0.085-0.037h2.039c0.081 0.018 0.17 0.028 0.267 0.037s0.194 0.014 0.291 0.014h0.097c-0.016 0-0.024 0-0.024 0.009v0.014c-0.030 0.030-0.054 0.065-0.072 0.104l-0.001 0.002c-0.017 0.043-0.042 0.080-0.073 0.111l0-0c-0.065 0.065-0.13 0.111-0.194 0.143s-0.137 0.065-0.219 0.097c-0.048 0.014-0.089 0.028-0.121 0.037-0.033 0.005-0.073 0.018-0.122 0.032-0.032 0-0.069 0.005-0.109 0.014s-0.085 0.018-0.133 0.037c-0.162 0.032-0.32 0.046-0.473 0.046h-0.813c-0.065 0-0.125-0.009-0.182-0.023-0.057-0.018-0.109-0.032-0.158-0.046-0.081-0.018-0.154-0.042-0.219-0.074l-0.194-0.097c-0.024-0.009-0.044-0.021-0.061-0.037l0 0c-0.008-0.005-0.028-0.005-0.061 0.014-0 0-0.001 0-0.001 0-0.013 0-0.025 0.003-0.035 0.009l0-0-0.036 0.037-0.073 0.037c-0.019 0.009-0.041 0.014-0.064 0.014-0.003 0-0.006-0-0.010-0l0 0-0.121 0.060c-0.041 0.017-0.075 0.046-0.096 0.082l-0 0.001c-0.081 0.13-0.041 0.231 0.121 0.315 0.162 0.079 0.275 0.143 0.34 0.19 0.033 0.018 0.073 0.032 0.122 0.051 0.048 0.014 0.089 0.032 0.121 0.046 0.048 0.018 0.097 0.028 0.146 0.037s0.097 0.018 0.145 0.037c0.146 0.032 0.283 0.065 0.413 0.097s0.267 0.056 0.412 0.069h0.206c0.073 0 0.141-0.005 0.206-0.023 0.065-0.014 0.138-0.028 0.219-0.037 0.072-0.003 0.139-0.025 0.196-0.061l-0.002 0.001 0.243-0.097c0.081-0.032 0.153-0.056 0.218-0.069 0.081-0.032 0.154-0.056 0.219-0.074 0.065-0.014 0.13-0.037 0.194-0.069 0.263-0.142 0.489-0.294 0.699-0.464l-0.008 0.006c0.219-0.181 0.417-0.37 0.595-0.579h5.971c0.065 0 0.129-0.009 0.194-0.028 0.065-0.014 0.13-0.023 0.194-0.023 0.065-0.014 0.13-0.028 0.194-0.037 0.065-0.005 0.129-0.018 0.194-0.032 0.065 0 0.134-0.014 0.206-0.037 0.073-0.028 0.142-0.046 0.206-0.060 0.178-0.032 0.34-0.093 0.485-0.181s0.275-0.199 0.389-0.329l0.145-0.143c0.048-0.046 0.081-0.106 0.097-0.167v-0.111c0-0.001 0-0.002 0-0.004 0-0.037-0.009-0.073-0.025-0.104l0.001 0.001h-0.025l-0.364 0.12c-0.032-0.032-0.077-0.051-0.126-0.051-0.003 0-0.005 0-0.008 0h0c-0.005 0-0.011 0-0.017 0-0.051 0-0.099-0.009-0.145-0.024l0.003 0.001h-0.4c-0.003-0-0.006-0-0.009-0-0.045 0-0.087 0.009-0.127 0.024l0.002-0.001c-0.016 0-0.032 0.009-0.048 0.028l-0.048 0.046c-0.011 0.017-0.019 0.037-0.024 0.059l-0 0.001c0 0.009-0.008 0.018-0.024 0.037l-0.048 0.046c-0.011 0.014-0.028 0.023-0.048 0.023-0 0-0 0-0.001 0h0c-0.016 0.018-0.041 0.028-0.073 0.028h-0.073c-0.081 0.014-0.166 0.032-0.255 0.046-0.089 0.018-0.182 0.023-0.279 0.023h-1.553c-0.065 0-0.137 0.009-0.219 0.028-0.081 0-0.166 0-0.255 0.009s-0.174 0.018-0.255 0.037c-0.259 0.014-0.518 0.023-0.776 0.023h-2.621c0.030-0.085 0.048-0.184 0.048-0.287v-0c0.016-0.065 0.024-0.134 0.024-0.208v-0.204c0-0.065-0.004-0.125-0.012-0.181-0.008-0.053-0.012-0.114-0.012-0.176 0-0.002 0-0.003 0-0.005v0c-0.016-0.046-0.024-0.102-0.024-0.157s-0.008-0.106-0.024-0.157c0-0.032-0.008-0.060-0.024-0.083s-0.024-0.050-0.024-0.079c0-0.002 0-0.003 0-0.004v0c-0.028-0.085-0.048-0.142-0.070-0.198l0.009 0.027c-0.030-0.078-0.059-0.14-0.090-0.201l0.005 0.011c-0.027-0.085-0.048-0.142-0.070-0.198l0.009 0.026c-0.021-0.060-0.059-0.109-0.109-0.143l-0.001-0.001c-0.032-0.014-0.064-0.037-0.097-0.060s-0.056-0.037-0.073-0.037l-0.34 0.653zM16.15 13.711c-0.033 0.014-0.061 0.032-0.085 0.046-0.026 0.020-0.046 0.044-0.060 0.073l-0.001 0.001c-0.014 0.011-0.023 0.028-0.024 0.046v0c0 0.018-0.008 0.032-0.024 0.051-0.018 0.034-0.042 0.062-0.072 0.083l-0.001 0c-0.033 0.023-0.065 0.051-0.097 0.083-0.048 0.065-0.093 0.139-0.133 0.218-0.037 0.069-0.066 0.15-0.084 0.235l-0.001 0.006v0.097c-0.010 0.024-0.016 0.052-0.016 0.081 0 0.014 0.001 0.028 0.004 0.041l-0-0.001c0.008 0.032 0.020 0.065 0.036 0.097 0 0.046 0.004 0.088 0.012 0.12s0.020 0.065 0.036 0.097c0.032 0.032 0.069 0.065 0.109 0.097s0.085 0.056 0.134 0.069c0.032 0.018 0.069 0.037 0.109 0.060s0.085 0.051 0.134 0.083c0.081 0.032 0.178 0.051 0.291 0.051h0.679c0.113 0 0.226-0.009 0.34-0.023 0.113 0 0.223-0.009 0.328-0.028 0.105-0.014 0.206-0.023 0.303-0.023h0.607c0.194 0 0.389-0.009 0.582-0.023 0.162-0.018 0.32-0.023 0.473-0.023h0.449c0.129 0 0.254-0.005 0.376-0.014s0.239-0.018 0.352-0.037c0.194-0.014 0.397-0.023 0.607-0.023s0.404-0.046 0.582-0.143c0.097-0.046 0.186-0.116 0.267-0.204s0.146-0.181 0.194-0.278c0.048-0.065 0.085-0.12 0.109-0.171 0.025-0.048 0.046-0.103 0.060-0.162l0.001-0.005c0.016-0.051 0.024-0.102 0.024-0.157s-0.008-0.106-0.024-0.157c0-0.065-0.004-0.125-0.012-0.181-0.008-0.053-0.012-0.114-0.012-0.176 0-0.002 0-0.003 0-0.005v0c-0.016-0.032-0.020-0.060-0.012-0.083s0.004-0.051-0.012-0.083c-0.003-0.060-0.025-0.115-0.061-0.158l0 0c-0.035-0.050-0.071-0.094-0.11-0.135l0.001 0.001c-0.033-0.046-0.069-0.093-0.11-0.134-0.046-0.041-0.097-0.077-0.154-0.105l-0.004-0.002-0.291-0.194c-0.063-0.061-0.148-0.101-0.242-0.106l-0.001-0c-0.097-0.009-0.186-0.028-0.267-0.060-0.081-0.018-0.154-0.023-0.219-0.023h-0.825c-0.226 0-0.453 0.018-0.679 0.060-0.226 0.037-0.453 0.093-0.679 0.157-0.097 0.028-0.198 0.056-0.303 0.069-0.105 0.018-0.214 0.042-0.328 0.074s-0.226 0.065-0.34 0.106-0.218 0.083-0.315 0.134l-0.437 0.143c-0.146 0.051-0.283 0.088-0.413 0.12s-0.255 0.079-0.376 0.134-0.247 0.106-0.376 0.157c-0.275 0.111-0.344 0.143-0.206 0.093l0.206-0.069z"></path>
</svg>
