<!-- Generated by IcoMoon.io -->
<svg version="1.1" xmlns="http://www.w3.org/2000/svg" width="32" height="32" viewBox="0 0 32 32">
<path d="M0.935 12.788l-0.036 0.037c0-0.018 0.036-0.037 0.036-0.037zM17.259 0.253l0.036-0.037c0.072 0.023 0.084 0.037 0.036 0.037h-0.072zM26.74 4.863c0.013 0 0.026 0.009 0.047 0.032l-0.047-0.032zM25.231 3.128c-0.051-0.051-0.048-0.065 0.046-0.018l0.036 0.037s-0.031-0.009-0.082-0.018zM22.364 30.252c-0.317 0.315-0.394 0.143-0.719 0.468l-0.611 0.319-0.036 0.037c-0.169 0-0.313 0.106-0.503 0.106l0.144-0.074c-0.576 0.074-0.652 0.074-1.294 0.287l0.036-0.069c-0.31 0.102-0.74 0.37-0.971 0.143l-0.216 0.069h-0.216c-0.647 0-0.573 0.056-1.186 0.181l-0.324 0.032-0.359 0.074h-0.288l-0.288 0.032-0.108-0.106c-0.439 0.065-0.359 0.199-0.791 0.25l0.108-0.069c-0.431 0.144-1.084-0.097-1.51-0.181l0.036-0.069c-0.179 0-0.36-0.074-0.539-0.074h-0.108c-0.309-0.204-0.874-0.463-1.258-0.463l-0.252-0.106c-0.271-0.134-0.611-0.287-0.827-0.5l-0.108 0.069-0.288-0.143c-0.042-0.042-0.101-0.065-0.144-0.106l-0.072-0.069h-0.054c-0.039 0-0.090-0.074-0.090-0.074h0.072c0.054-0.051-0.783-0.116-0.647-0.069l-0.431-0.143c-0.162-0.056-0.338-0.102-0.503-0.143l-0.431-0.282c-0.269-0.268-0.623-0.444-0.899-0.717 0 0-0.077-0.042-0.108-0.069l-0.108-0.106c-1.102-1.097-2.363-2.074-3.416-3.217l0.144 0.074-0.252-0.25c0-0.079-0.144-0.181-0.144-0.181-0.005-0.009 0-0.037 0-0.037-0.049-0.194-0.147-0.199-0.252-0.356l0.072 0.037c-0.509-0.505-1.115-1.801-1.115-2.18 0 0-0.036-0.042-0.036-0.069l-0.431-1.287 0.108 0.181c-0.188-0.375-0.088-0.764-0.216-1.143v0.356c0-0.301-0.108-0.592-0.108-0.893 0-0.069 0.108 0.25 0.108 0.181v-0.662c0-0.106-0.288-0.426-0.288-0.375-0.369-0.736-0.358-1.532-0.611-2.287v-0.25c0-0.051-0.036-0.093-0.036-0.143v-0.213c0-0.722 0.539-3.481 0.539-1.43 0.147-0.583 0.060-0.542 0.18-1.143l0.108-0.069c0-0.088 0.032-0.171 0.065-0.25l0.013-0.032c0.034-0.083 0.065-0.167 0.065-0.255v-0.037l-0.036 0.037c0.043-0.509-0.019-0.611 0.072-1.106v0.037c0.022-0.042 0.035-0.091 0.036-0.143v-0.25l0.036-0.074v-0.106c0.052 0 0.036-0.037 0.036-0.069l0.036-0.037-0.036 0.143-0.036 0.213c0.188 0 0.611-1.583 0.611-1.926l0.036 0.032c0.122-0.194 0.422-0.741 0.611-0.926l-0.036 0.069c0.077-0.074 0.072-0.125 0.18-0.176l0.072-0.111c0-0.037 0.036-0.106 0.036-0.106l0.252-0.25c0.096-0.236 0.179-0.75 0.179-0.75 0.267-0.796 1.043-1.213 1.618-1.787l0.108-0.213 0.288-0.287c-0.105 0.069 0.503-0.944 0.503-0.963l0.216-0.213c-0.185 0.227 0.425-0.412 0.647-0.606l0.108-0.037 0.108-0.106 0.072-0.037c0.19-0.375 0.974-0.287 1.259-0.569l-0.216 0.069c0.495-0.162 0.818-0.583 1.295-0.787l0.072 0.106c0.158 0 0.363-0.213 0.503-0.282l0.072-0.037c0.073-0.074-0.027-0.106 0.072-0.106l0.108-0.074-0.288 0.111-0.36 0.25c0.154-0.125 0.051-0.287 0.252-0.287 0 0 0.045-0.037 0.072-0.037h0.072c0-0.023 0.006-0.037 0.018-0.037h0.090c0.175 0 0.489-0.065 0.647-0.106l0.431-0.143c0.138 0 0.259-0.069 0.396-0.069h0.323c0.038-0.037 0.144-0.018 0.144-0.074h-0.18c0.422 0 1.259-0.139 1.259-0.139 0.027 0 0.072-0.037 0.072-0.037h0.216s0.008 0.028 0 0.037l-0.072 0.032-0.036 0.037h-0.072c0.017 0 0.036 0.037 0.036 0.037s0.045-0.037 0.072-0.037c0 0 0.441-0.407 0.719-0.5l-0.144 0.037c0.094-0.093 0.174-0.125 0.288-0.181l-0.179 0.106c0.225-0.111 0.616-0.319 0.863-0.319l0.072 0.037h0.144c-0.017 0-0.371 0.014-0.036 0.069 0.188 0 0.139 0.032 0.36 0.106 0.523 0 0.74-0.148 1.042 0h0.72c-0.428 0 0.418 0.023 0.467 0.037h-0.216c-0.087 0 0.13 0.13 0.216 0.143 0.184-0.023 0.087-0.106 0.305-0.106h0.647c0.325 0 0.692 0.222 0.989 0.319 0.683-0.171 0.655-0.148 1.69 0.106l-0.108 0.074c0.209 0 0.359 0.176 0.539 0.176l-0.216-0.143c0.371 0.093 0.816 0.417 1.151 0.611-0.61-0.306 0.085 0.176 0.288 0.176l0.072 0.074c-0.425 0 0.644 0.551 0.971 0.819l0.108 0.106 0.108 0.074c0.112 0.056 0.242 0.102 0.36 0.143l0.359 0.106c0.193 0.074 0.549 0.157 0.71 0.194 0.143 0.143 0.717 0.583 0.908 0.805 0.247 0.282 0.42 0.625 0.647 0.926l-0.18-0.106c0.033 0.032 0.092 0.079 0.133 0.111-0.015-0.005-0.031-0.005-0.061-0.005l0.216 0.181c0.013 0 0.323 0.069 0.611 0.356l0.108 0.069 0.108 0.111 0.072 0.106-0.072-0.037c0.087 0.13 0.118 0.153 0.216 0.25l0.144 0.213c-0.301-0.296 0.464 0.713 0.683 1.074 0.292 0.481 0.72 1.463 1.295 1.75 0.131 0.259 0.539 0.916 0.539 1.787l0.108 0.032-0.108 0.25 0.036 0.287c0.207 0.102 0.154 0.111 0.252 0.287l-0.036-0.037c0 0.116 0.629 1.088 0.288 0.75l0.144 0.213h-0.036c0.040 0.12 0.108 0.361 0.108 0.361l0.144 0.426-0.036-0.032 0.288 1.106-0.323 1.606v0.069h0.036l0.072 0.218c0.112 0 0.145-0.069 0.288 0.282 0.042 0.213-0.047 0.435 0 0.643l0.108 0.324 0.072 0.106-0.036 0.143v0.069h-0.036c-0.027 0.056-0.036 0.181-0.036 0.181-0.183-0.185-0.129 0.495-0.18 0.75l0.036-0.074c-0.062 0.87-0.283 0.764-0.431 1.574v0.393l-0.072 0.069v0.143c0 0.384-0.233 0.676-0.324 1.037l-0.108 0.282-0.072 0.287c-0.334 0.472-0.6 0.935-0.899 1.43l-0.467 0.463c-0.115 0.116-0.24 0.218-0.359 0.324 0 0 0.001 0 0-0.005h-0.001c-0.018 0.018-0.020 0.018-0.037 0.037-0.012 0.014-0.023 0.023-0.035 0.037-0.459 0.305-0.694 0.889-0.863 1.393l-0.108 0.176-0.108 0.218c-0.141 0.139-0.409 0.301-0.609 0.38 0.011-0.009 0.022-0.014 0.033-0.023l-0.072 0.037 0.039-0.014c-1.364 0.907-2.126 1.629-3.167 2.833-0.025 0.024-0.055 0.043-0.088 0.055l-0.002 0.001-0.090 0.018c0.027 0 0.059-0.009 0.090-0.018l0.089-0.018 0.252-0.287 0.036-0.037c0.027-0.051 0.108-0.139 0.108-0.139 0.073-0.074-0.062 0.194-0.108 0.282l-0.18 0.181c-0.024 0.023-0.036 0.046-0.036 0.069h-0.144c-0.125 0.065-0.405 0.143-0.539 0.143l0.036-0.037h-0.036c-0.081 0.028-0.899 0.218-0.899 0.361h-0.072v-0.037l-0.036-0.037s-0.082 0.028-0.108 0h0.036l0.036-0.037 0.54-0.176c-0.186 0-0.54 0.143-0.54 0.143l-0.072 0.069zM29.017 24.684l-0.003 0.014c-0.003 0.009-0.006 0.014-0.013 0.018-0.015 0.018-0.036 0.028-0.055 0.037l0.071-0.069zM28.945 24.753c-0.014 0.011-0.026 0.023-0.037 0.037l-0 0 0.036-0.037h0.001zM19.606 25.457c0.031 0.028 0.063 0.056 0.096 0.083 0.015 0.009 0.030 0.023 0.046 0.032-0.197-0.083-0.387-0.176-0.569-0.282l-0.546-0.315c-0.182-0.106-0.349-0.231-0.5-0.384-0.065-0.064-0.131-0.126-0.2-0.186l-0.005-0.004c-0.069-0.064-0.143-0.127-0.219-0.188l-0.008-0.006c-0.070-0.055-0.13-0.117-0.18-0.187l-0.002-0.003c-0.044-0.067-0.090-0.146-0.13-0.227l-0.006-0.014c-0.203-0.366-0.344-0.793-0.396-1.248l-0.002-0.016c-0.035-0.301-0.059-0.597-0.071-0.889l-0.009-0.083c-0.021-0.169-0.041-0.297-0.064-0.424l0.007 0.049c-0.023-0.125-0.042-0.25-0.057-0.37 0-0.12-0.004-0.241-0.012-0.361s-0.011-0.236-0.011-0.343c-0.010-0.047-0.015-0.1-0.015-0.155 0-0.029 0.002-0.057 0.004-0.085l-0 0.003c0.007-0.074 0.012-0.16 0.012-0.248s-0.004-0.173-0.012-0.258l0.001 0.011c-0.008-0.097-0.004-0.185 0.011-0.264 0.015-0.056 0.034-0.116 0.057-0.176 0.023-0.065 0.042-0.125 0.057-0.185l0.046-0.134c0.015-0.046 0.023-0.097 0.023-0.157 0.030-0.093 0.068-0.176 0.114-0.259s0.083-0.171 0.114-0.259c0.030-0.093 0.064-0.176 0.103-0.25s0.079-0.153 0.125-0.227c0.030-0.046 0.065-0.093 0.103-0.148 0.038-0.051 0.072-0.102 0.103-0.143 0.045-0.079 0.087-0.148 0.125-0.218 0.038-0.065 0.072-0.13 0.103-0.19 0.046-0.093 0.095-0.176 0.148-0.25s0.11-0.157 0.171-0.25c0.031-0.060 0.069-0.125 0.114-0.19 0.045-0.069 0.091-0.139 0.137-0.218 0.061-0.060 0.117-0.12 0.171-0.181s0.11-0.125 0.171-0.204c0.061-0.074 0.129-0.148 0.205-0.222l0.228-0.227c0.076-0.079 0.155-0.148 0.239-0.218 0.083-0.065 0.171-0.13 0.262-0.19 0.076-0.060 0.156-0.111 0.239-0.148s0.155-0.079 0.216-0.125c0.061-0.042 0.11-0.088 0.148-0.134s0.080-0.083 0.125-0.111c0.182-0.106 0.379-0.185 0.592-0.241 0.212-0.051 0.425-0.093 0.637-0.125 0.57-0.054 1.236-0.086 1.908-0.088h0.003c0.212 0 0.413 0.037 0.603 0.111 0.19 0.079 0.375 0.167 0.557 0.273l0.227 0.157 0.044 0.023c0.050 0.060 0.096 0.116 0.138 0.181 0.061 0.093 0.129 0.181 0.205 0.273 0.061 0.102 0.122 0.204 0.182 0.292 0.053 0.079 0.101 0.167 0.142 0.255 0.026 0.352 0.035 0.699 0.028 1.046-0.007 0.37-0.011 0.741-0.011 1.12 0-0.002 0-0.005 0-0.007 0-0.182 0.016-0.361 0.048-0.534l-0.003 0.018c0.031-0.134 0.053-0.268 0.069-0.407l0.046-0.403 0-0.018c0.007 0.032 0.015 0.069 0.022 0.106l0.046 0.25 0.023 0.157v-0.903c0-0.060 0.007-0.12 0.023-0.181 0-0.046 0.004-0.093 0.011-0.139 0.002-0.013 0.004-0.029 0.004-0.045 0-0.032-0.005-0.063-0.015-0.092l0.001 0.002-0.091-0.25-0.021-0.102c-0.015-0.25-0.046-0.495-0.092-0.731-0.030-0.287-0.076-0.574-0.137-0.861-0.082-0.397-0.153-0.685-0.231-0.97l0.027 0.114c-0.019-0.129-0.043-0.24-0.073-0.348l0.005 0.019c-0.030-0.116-0.061-0.231-0.091-0.352-0.027-0.062-0.054-0.141-0.076-0.222l-0.003-0.015c-0.027-0.1-0.055-0.18-0.086-0.258l0.006 0.017c-0.018-0.084-0.045-0.158-0.082-0.227l0.002 0.005c-0.033-0.065-0.061-0.141-0.078-0.22l-0.001-0.007c-0.114-0.305-0.213-0.537-0.321-0.764l0.026 0.061c-0.106-0.222-0.22-0.449-0.342-0.676-0.076-0.134-0.163-0.264-0.261-0.384s-0.201-0.241-0.307-0.361c-0.046-0.046-0.091-0.097-0.137-0.148s-0.091-0.102-0.137-0.148c-0.076-0.074-0.159-0.139-0.251-0.19-0.091-0.056-0.182-0.111-0.273-0.171-0.122-0.060-0.247-0.125-0.376-0.19-0.134-0.072-0.25-0.151-0.355-0.243l0.002 0.002c-0.106-0.074-0.209-0.148-0.307-0.222-0.099-0.079-0.201-0.139-0.307-0.185-0.167-0.074-0.342-0.139-0.523-0.19s-0.364-0.116-0.546-0.19c-0.061-0.032-0.125-0.065-0.193-0.093-0.069-0.032-0.133-0.060-0.193-0.088-0.076-0.019-0.148-0.032-0.216-0.046-0.053-0.015-0.126-0.031-0.2-0.044l-0.016-0.002c-0.184-0.016-0.35-0.044-0.512-0.083l0.023 0.005c-0.139-0.035-0.306-0.062-0.476-0.078l-0.013-0.001c-0.425-0.060-0.845-0.116-1.263-0.171-0.417-0.051-0.838-0.116-1.263-0.19-0.058-0.015-0.138-0.031-0.22-0.044l-0.019-0.002c-0.083-0.014-0.163-0.023-0.239-0.023-0.099-0.014-0.213-0.023-0.329-0.023h-0.001c-0.114 0-0.224 0.009-0.33 0.023h-1.82c-0.228 0-0.463-0.005-0.706-0.014-0.243-0.005-0.478 0-0.706 0.014-0.167 0.014-0.326 0.037-0.478 0.069-0.151 0.028-0.311 0.051-0.478 0.065-0.137 0.032-0.273 0.056-0.41 0.079-0.161 0.030-0.299 0.065-0.433 0.108l0.023-0.007c-0.091 0.046-0.186 0.102-0.285 0.162s-0.193 0.116-0.284 0.181c-0.243 0.162-0.481 0.343-0.717 0.542-0.235 0.194-0.466 0.389-0.694 0.588l-0.546 0.542c-0.106 0.106-0.197 0.213-0.273 0.329-0.076 0.111-0.152 0.236-0.227 0.37-0.122 0.213-0.213 0.44-0.273 0.68s-0.137 0.472-0.228 0.699c-0.030 0.074-0.064 0.153-0.102 0.227s-0.072 0.153-0.103 0.227l-0.046 0.204c-0.015 0.042-0.034 0.088-0.057 0.134s-0.041 0.097-0.057 0.157c-0.058 0.326-0.091 0.701-0.091 1.084 0 0.001 0 0.003 0 0.004v-0 0.393c0 0.13 0.007 0.255 0.023 0.375 0.030 0.12 0.045 0.245 0.045 0.37 0 0.13 0.008 0.255 0.023 0.375s0.034 0.245 0.057 0.37c0.023 0.13 0.042 0.255 0.057 0.375 0.015 0.106 0.023 0.208 0.023 0.306s0.023 0.19 0.069 0.282c0.045 0.088 0.095 0.185 0.148 0.282s0.103 0.199 0.148 0.306l0.114 0.204 0.022-0.542v-0.171c0-0.051-0.007-0.111-0.022-0.171-0.061-0.227-0.103-0.454-0.125-0.69-0.013-0.128-0.021-0.276-0.021-0.425 0-0.101 0.003-0.201 0.010-0.301l-0.001 0.013c0-0.001 0-0.002 0-0.004 0-0.278 0.033-0.548 0.096-0.807l-0.005 0.023c0.046-0.106 0.087-0.208 0.125-0.306s0.080-0.199 0.125-0.306c0.091-0.194 0.19-0.393 0.296-0.588s0.22-0.393 0.341-0.588c0.167-0.273 0.353-0.537 0.558-0.801s0.428-0.505 0.671-0.713c0.137-0.12 0.284-0.236 0.444-0.338 0.159-0.106 0.315-0.213 0.466-0.319 0.167-0.12 0.337-0.231 0.512-0.329s0.36-0.19 0.557-0.282c0.215-0.111 0.522-0.251 0.834-0.38l0.099-0.036c0.319-0.13 0.652-0.222 1.001-0.282 0.182-0.032 0.364-0.056 0.546-0.079s0.372-0.042 0.569-0.056c0.167 0 0.341-0.014 0.523-0.037s0.357-0.032 0.523-0.032h2.81c0.25 0 0.497 0.014 0.74 0.046 0.197 0.014 0.383 0.042 0.558 0.088s0.352 0.093 0.535 0.139c0.076 0.014 0.156 0.023 0.239 0.032 0.083 0.005 0.163 0.019 0.239 0.032 0.091 0.032 0.186 0.060 0.285 0.093 0.098 0.028 0.193 0.060 0.284 0.088 0.182 0.079 0.368 0.144 0.557 0.204s0.376 0.139 0.558 0.227c0.212 0.12 0.417 0.25 0.614 0.384s0.402 0.273 0.614 0.407c0.137 0.074 0.273 0.153 0.41 0.236s0.258 0.185 0.364 0.306c0.106 0.106 0.212 0.218 0.318 0.329s0.19 0.236 0.25 0.37c0.212 0.347 0.368 0.717 0.466 1.111 0.099 0.389 0.201 0.773 0.307 1.153 0.061 0.194 0.129 0.389 0.205 0.588 0.024 0.060 0.048 0.125 0.070 0.185-0.026-0.040-0.053-0.075-0.083-0.107l0.001 0.001c-0.080-0.093-0.145-0.202-0.191-0.321l-0.003-0.008c-0.032-0.079-0.066-0.146-0.105-0.209l0.003 0.006c-0.045-0.071-0.087-0.13-0.13-0.187l0.005 0.007c-0.061-0.074-0.117-0.153-0.171-0.227-0.062-0.084-0.125-0.158-0.194-0.227l0 0c-0.074-0.073-0.142-0.154-0.201-0.24l-0.004-0.006c-0.061-0.093-0.129-0.181-0.205-0.273-0.102-0.102-0.214-0.195-0.333-0.277l-0.008-0.005c-0.122-0.083-0.243-0.171-0.364-0.259-0.105-0.073-0.225-0.134-0.354-0.178l-0.010-0.003c-0.137-0.046-0.266-0.093-0.387-0.139-0.167-0.056-0.334-0.116-0.5-0.167s-0.342-0.093-0.523-0.125c-0.073-0.027-0.158-0.047-0.246-0.055l-0.004-0c-0.105-0.009-0.198-0.022-0.29-0.040l0.017 0.003c-0.046-0.014-0.091-0.023-0.137-0.032-0.047-0.006-0.103-0.009-0.159-0.009h-0.001c-0.182-0.014-0.372-0.042-0.569-0.079-0.169-0.037-0.372-0.065-0.579-0.078l-0.013-0.001c-0.364-0.032-0.728-0.042-1.092-0.023-0.364 0.014-0.728 0.046-1.092 0.088-0.243 0.032-0.481 0.056-0.717 0.079s-0.474 0.051-0.717 0.079c-0.121 0.018-0.239 0.037-0.353 0.060s-0.231 0.042-0.353 0.056c-0.182 0.028-0.368 0.074-0.557 0.134s-0.368 0.12-0.534 0.181c-0.152 0.060-0.3 0.12-0.444 0.181-0.125 0.054-0.274 0.102-0.427 0.136l-0.017 0.003c-0.121 0.042-0.246 0.093-0.375 0.143-0.129 0.056-0.254 0.102-0.376 0.148-0.182 0.060-0.36 0.134-0.535 0.227-0.174 0.088-0.345 0.181-0.512 0.268-0.122 0.060-0.258 0.125-0.41 0.185s-0.281 0.139-0.387 0.245-0.213 0.208-0.319 0.306c-0.106 0.097-0.197 0.208-0.273 0.329s-0.148 0.245-0.216 0.375c-0.068 0.125-0.14 0.25-0.216 0.37-0.076 0.134-0.141 0.273-0.193 0.407l-0.171 0.43c-0.030 0.060-0.061 0.125-0.091 0.204-0.030 0.074-0.053 0.148-0.068 0.227-0.014 0.050-0.026 0.111-0.034 0.174l-0.001 0.007c-0.007 0.060-0.019 0.12-0.034 0.181-0.046 0.134-0.076 0.264-0.091 0.393-0.019 0.155-0.043 0.288-0.074 0.419l0.005-0.026c-0.015 0.106-0.038 0.222-0.068 0.343s-0.053 0.231-0.069 0.338c-0.015 0.093-0.027 0.171-0.034 0.25-0.007 0.074-0.019 0.148-0.034 0.227-0.061 0.343-0.11 0.685-0.148 1.014-0.038 0.333-0.049 0.667-0.034 0.995 0 0.181 0.038 0.356 0.114 0.532 0.076 0.171 0.137 0.343 0.182 0.509 0.030 0.074 0.057 0.153 0.080 0.236s0.049 0.162 0.080 0.236c0.015 0.046 0.038 0.097 0.068 0.148s0.061 0.111 0.091 0.171c0.045 0.102 0.102 0.194 0.171 0.268s0.148 0.153 0.239 0.227c0.046 0.046 0.088 0.097 0.125 0.157s0.087 0.116 0.148 0.157c0.046 0.032 0.095 0.060 0.148 0.093 0.053 0.028 0.102 0.069 0.148 0.111 0.061 0.046 0.125 0.097 0.193 0.148s0.14 0.102 0.216 0.148l0.171 0.171c0.053 0.051 0.11 0.097 0.171 0.143 0.061 0.060 0.129 0.116 0.205 0.157l0.227 0.139c0.106 0.042 0.216 0.083 0.33 0.12 0.114 0.042 0.224 0.088 0.33 0.148l-0.683-0.676c-0.242-0.287-0.451-0.602-0.625-0.949s-0.308-0.708-0.398-1.088c-0.084-0.305-0.152-0.67-0.191-1.044l-0.003-0.030c-0.038-0.366-0.034-0.731 0.011-1.092 0.015-0.12 0.042-0.245 0.080-0.375s0.072-0.25 0.103-0.375c0.030-0.181 0.072-0.361 0.125-0.542s0.117-0.361 0.193-0.542c0.106-0.241 0.216-0.486 0.33-0.736 0.114-0.245 0.231-0.491 0.353-0.731 0.121-0.213 0.265-0.421 0.432-0.625 0.167-0.199 0.334-0.403 0.501-0.597 0.16-0.187 0.339-0.35 0.537-0.489l0.009-0.006c0.122-0.079 0.25-0.148 0.387-0.218 0.137-0.065 0.266-0.139 0.387-0.213 0.091-0.060 0.178-0.116 0.261-0.171 0.083-0.051 0.171-0.102 0.262-0.143 0.167-0.079 0.341-0.148 0.523-0.218s0.364-0.125 0.546-0.167c0.151-0.046 0.295-0.093 0.432-0.139s0.273-0.083 0.41-0.111c0.137-0.014 0.273-0.028 0.41-0.037 0.137-0.005 0.273-0.018 0.41-0.032 0.212 0 0.421-0.014 0.626-0.046 0.205-0.028 0.406-0.042 0.603-0.042s0.398-0.005 0.603-0.014c0.205-0.005 0.405-0.005 0.603 0.014 0.121 0 0.242 0.009 0.364 0.032s0.25 0.042 0.387 0.056c0.106 0.032 0.216 0.056 0.33 0.069s0.224 0.037 0.33 0.065c0.227 0.046 0.455 0.097 0.683 0.148 0.227 0.056 0.447 0.116 0.66 0.194 0.243 0.074 0.478 0.143 0.705 0.213s0.448 0.153 0.66 0.259c0.068 0.032 0.132 0.069 0.191 0.102-0.135-0.028-0.27-0.046-0.407-0.065-0.266-0.042-0.527-0.083-0.785-0.125-0.137-0.018-0.266-0.037-0.387-0.060-0.145-0.023-0.268-0.051-0.388-0.084l0.024 0.006c-0.103-0.012-0.223-0.019-0.344-0.019-0.007 0-0.014 0-0.021 0h-0.34c-0.288 0-0.561 0.023-0.819 0.079-0.258 0.051-0.516 0.139-0.774 0.259-0.091 0.046-0.178 0.083-0.261 0.125-0.083 0.037-0.171 0.079-0.262 0.12-0.091 0.060-0.193 0.12-0.307 0.171s-0.216 0.125-0.307 0.213l-0.205 0.204-0.25 0.162c-0.076 0.074-0.156 0.148-0.239 0.222-0.083 0.079-0.155 0.162-0.216 0.25-0.076 0.12-0.159 0.231-0.251 0.338s-0.167 0.222-0.227 0.343l-0.148 0.292c-0.053 0.106-0.103 0.213-0.148 0.315-0.061 0.139-0.121 0.278-0.182 0.421s-0.122 0.282-0.182 0.417c-0.061 0.106-0.117 0.213-0.171 0.315-0.053 0.106-0.103 0.222-0.148 0.343-0.031 0.074-0.057 0.148-0.080 0.227-0.023 0.074-0.049 0.148-0.080 0.222-0.046 0.093-0.076 0.181-0.091 0.273l-0.045 0.273c-0.015 0.134-0.034 0.264-0.057 0.38-0.023 0.125-0.034 0.25-0.034 0.384-0.015 0.167-0.022 0.338-0.022 0.509v1.19c0 0.106 0.007 0.204 0.022 0.292 0.015 0.093 0.031 0.19 0.046 0.296 0.030 0.148 0.061 0.305 0.091 0.463s0.069 0.319 0.114 0.486c0.045 0.167 0.106 0.333 0.182 0.509 0.076 0.171 0.152 0.343 0.227 0.509 0.076 0.194 0.159 0.375 0.251 0.542 0.091 0.162 0.205 0.329 0.341 0.495 0.137 0.153 0.288 0.292 0.455 0.417 0.167 0.13 0.334 0.245 0.5 0.352 0.167 0.12 0.337 0.236 0.512 0.352 0.175 0.111 0.353 0.208 0.535 0.282l0.182 0.088c0.061 0.032 0.122 0.056 0.182 0.069l0.319 0.046c0.106 0.014 0.205 0.023 0.295 0.023 0.319 0.014 0.618 0.018 0.899 0.009 0.137-0.005 0.251-0.014 0.343-0.028 0.042 0.014 0.091 0.023 0.146 0.028 0.061 0.009 0.121 0.014 0.182 0.014v-0.037l0.001-0.018c0.071 0.023 0.138 0.042 0.204 0.056 0.106 0.014 0.212 0.032 0.319 0.056s0.212 0.032 0.318 0.032c0.137 0 0.269-0.005 0.398-0.009 0.129-0.009 0.254-0.037 0.375-0.079l0.364-0.093c0.015 0 0.027-0.009 0.034-0.032s-0.004-0.097-0.034-0.218c-0.137 0.060-0.277 0.093-0.421 0.093s-0.284-0.009-0.421-0.023c-0.258-0.046-0.508-0.111-0.751-0.204-0.274-0.105-0.506-0.218-0.726-0.349l0.021 0.012c-0.135-0.073-0.251-0.159-0.353-0.259l0 0c-0.098-0.102-0.201-0.208-0.307-0.329-0.061-0.074-0.125-0.153-0.193-0.227-0.067-0.072-0.124-0.154-0.168-0.244l-0.003-0.006c-0.052-0.1-0.105-0.185-0.163-0.265l0.004 0.006c-0.056-0.075-0.109-0.16-0.155-0.249l-0.005-0.010c-0.041-0.093-0.080-0.206-0.11-0.322l-0.003-0.016c-0.019-0.068-0.030-0.146-0.030-0.227 0-0.039 0.003-0.078 0.008-0.115l-0 0.004c-0-0.004-0-0.009-0-0.013 0-0.164 0.017-0.324 0.048-0.479l-0.003 0.015c0.015-0.106 0.030-0.213 0.046-0.329 0.015-0.111 0.045-0.222 0.091-0.329 0.045-0.088 0.095-0.176 0.148-0.259s0.095-0.167 0.125-0.259c0.061-0.088 0.114-0.171 0.159-0.25 0.045-0.074 0.106-0.148 0.182-0.222 0.076-0.079 0.159-0.143 0.25-0.204 0.091-0.065 0.19-0.125 0.296-0.181 0.106-0.046 0.216-0.093 0.33-0.139s0.231-0.074 0.353-0.088c0.212-0.032 0.417-0.018 0.614 0.032s0.387 0.116 0.569 0.194c0.212 0.056 0.41 0.143 0.591 0.259 0.182 0.111 0.372 0.213 0.569 0.305 0.106 0.060 0.209 0.13 0.307 0.213s0.178 0.185 0.239 0.305c0.046 0.106 0.083 0.227 0.114 0.361s0.053 0.264 0.069 0.384c0 0.12-0.004 0.236-0.012 0.352-0.007 0.111-0.027 0.227-0.057 0.347l-0.091 0.273-0.091 0.181c-0.031 0.060-0.069 0.111-0.114 0.157-0.182 0.181-0.387 0.319-0.614 0.407-0.227 0.093-0.47 0.134-0.728 0.134-0.060-0.011-0.142-0.023-0.224-0.031l-0.015-0.001c-0.083-0.009-0.163-0.018-0.239-0.032-0.118-0.041-0.212-0.080-0.303-0.124l0.019 0.008c-0.124-0.053-0.217-0.098-0.309-0.146l0.024 0.012c-0.121-0.060-0.231-0.13-0.33-0.213s-0.178-0.185-0.239-0.305c-0.046-0.093-0.083-0.176-0.114-0.25-0.030-0.072-0.053-0.156-0.068-0.243l-0.001-0.007c-0.018-0.073-0.038-0.133-0.061-0.191l0.004 0.011c-0.021-0.054-0.034-0.116-0.034-0.18v-0c0.015-0.148 0.049-0.287 0.103-0.417s0.117-0.259 0.193-0.398l-0.091 0.069c-0.061 0.046-0.117 0.097-0.171 0.157s-0.103 0.12-0.148 0.181l-0.114 0.116c-0.031 0.028-0.061 0.074-0.091 0.134-0.022 0.041-0.049 0.098-0.073 0.155l-0.006 0.016c-0.022 0.051-0.034 0.116-0.034 0.19 0.015 0.074 0.034 0.157 0.057 0.25 0.023 0.088 0.057 0.171 0.103 0.25 0.046 0.088 0.099 0.171 0.159 0.245l0.182 0.227c0.061 0.093 0.122 0.176 0.182 0.25s0.129 0.148 0.205 0.227c0.061 0.028 0.114 0.065 0.159 0.111l0.137 0.134 0.273 0.139 0.273 0.181c0.054 0.042 0.119 0.073 0.19 0.087l0.003 0.001c0.069 0.018 0.14 0.032 0.216 0.046 0.061 0.014 0.125 0.023 0.193 0.023h0.216c0.091 0 0.171-0.009 0.239-0.023s0.148-0.037 0.239-0.069c0.243-0.134 0.463-0.305 0.66-0.509 0.197-0.199 0.379-0.417 0.546-0.643 0.030-0.060 0.065-0.125 0.103-0.19 0.038-0.069 0.072-0.139 0.103-0.218 0.061-0.102 0.087-0.208 0.080-0.315-0.007-0.093-0.012-0.202-0.012-0.312 0-0.001 0-0.002 0-0.003v0l-0.046-0.282c-0.015-0.097-0.030-0.194-0.045-0.282l-0.091-0.227-0.091-0.181-0.068-0.227c-0.036-0.087-0.078-0.161-0.128-0.23l0.002 0.003c-0.052-0.072-0.094-0.155-0.123-0.244l-0.002-0.006c-0.11-0.214-0.216-0.391-0.331-0.561l0.012 0.020c-0.028-0.044-0.062-0.080-0.102-0.11l-0.001-0.001c-0.038-0.032-0.080-0.060-0.125-0.093-0.084-0.070-0.182-0.126-0.289-0.165l-0.007-0.002c-0.106-0.042-0.212-0.079-0.319-0.125-0.121-0.060-0.247-0.125-0.375-0.194-0.112-0.060-0.243-0.116-0.38-0.161l-0.018-0.005c-0.045 0-0.091-0.005-0.137-0.014-0.051-0.007-0.098-0.019-0.142-0.034l0.005 0.002c-0.076 0-0.151-0.014-0.227-0.032-0.076-0.023-0.152-0.042-0.227-0.060-0.051-0.006-0.109-0.010-0.169-0.010-0.193 0-0.378 0.038-0.546 0.106l0.010-0.003c-0.243 0.088-0.455 0.204-0.637 0.338-0.061 0.046-0.114 0.093-0.159 0.134-0.046 0.046-0.099 0.093-0.159 0.139-0.061 0.060-0.125 0.111-0.193 0.157s-0.133 0.106-0.193 0.181c-0.061 0.060-0.121 0.125-0.182 0.194-0.061 0.065-0.106 0.139-0.137 0.213-0.106 0.167-0.205 0.347-0.296 0.542s-0.152 0.384-0.182 0.565c-0.015 0.106-0.034 0.213-0.057 0.315-0.023 0.106-0.049 0.204-0.080 0.296-0.015 0.060-0.034 0.116-0.057 0.171-0.021 0.048-0.034 0.103-0.034 0.162 0 0.002 0 0.003 0 0.005v-0l0.023 0.181v0.157l0.023 0.25 0.045 0.134c0.015 0.079 0.027 0.157 0.034 0.241s0.027 0.162 0.057 0.236c0.061 0.194 0.148 0.384 0.262 0.565s0.262 0.333 0.444 0.454c0.122 0.088 0.25 0.181 0.387 0.268 0.137 0.093 0.273 0.176 0.41 0.25 0.106 0.046 0.209 0.093 0.307 0.148 0.052 0.028 0.102 0.051 0.151 0.079h-0.003l-0.41-0.046-0.088-0.014-0.026-0.009c-0.103-0.017-0.194-0.044-0.281-0.082l0.008 0.003c-0.115-0.047-0.205-0.089-0.292-0.134l0.019 0.009-0.096-0.060zM16.911 21.624c0.015 0.12 0.034 0.241 0.059 0.356 0.031 0.143 0.069 0.292 0.114 0.44 0.091 0.227 0.189 0.458 0.295 0.69 0.106 0.236 0.228 0.449 0.364 0.643 0.091 0.139 0.189 0.268 0.295 0.398 0.106 0.125 0.212 0.25 0.319 0.37 0.091 0.093 0.178 0.185 0.261 0.273s0.178 0.167 0.285 0.227c0.091 0.060 0.182 0.111 0.273 0.157s0.174 0.097 0.25 0.157l0.178 0.12c-0.054-0.054-0.105-0.111-0.152-0.172l-0.003-0.004c-0.080-0.104-0.162-0.196-0.25-0.282l-0-0c-0.067-0.083-0.134-0.157-0.205-0.227l-0-0c-0.076-0.074-0.143-0.156-0.201-0.244l-0.003-0.006c-0.072-0.098-0.14-0.208-0.199-0.325l-0.006-0.013-0.182-0.361c-0.046-0.074-0.091-0.153-0.137-0.236-0.036-0.063-0.074-0.14-0.108-0.22l-0.006-0.016c-0.061-0.153-0.117-0.305-0.171-0.468-0.048-0.135-0.084-0.291-0.101-0.454l-0.001-0.009c-0.010-0.061-0.015-0.131-0.015-0.203 0-0.144 0.022-0.283 0.063-0.413l-0.003 0.010c0.015-0.139 0.042-0.273 0.080-0.407 0.038-0.139 0.072-0.273 0.103-0.407 0.015-0.093 0.034-0.181 0.057-0.273 0.023-0.088 0.041-0.171 0.057-0.25 0.030-0.074 0.057-0.143 0.080-0.213s0.049-0.134 0.080-0.19l0.068-0.204c0.046-0.093 0.091-0.181 0.137-0.264s0.106-0.162 0.182-0.236l0.205-0.134c0.061-0.032 0.118-0.069 0.171-0.116 0.053-0.042 0.11-0.079 0.171-0.111 0.045-0.028 0.091-0.065 0.137-0.102s0.091-0.069 0.137-0.102l0.25-0.134c0.076-0.060 0.163-0.116 0.261-0.171 0.099-0.051 0.201-0.079 0.307-0.079 0.198-0.014 0.395-0.014 0.592 0l0.592 0.046c0.061 0.014 0.121 0.023 0.182 0.032s0.129 0.014 0.205 0.014c0.045 0.014 0.083 0.023 0.114 0.032s0.068 0.018 0.114 0.032c0.061 0.032 0.129 0.056 0.205 0.069s0.144 0.037 0.205 0.065l-0.114-0.245c-0.030-0.046-0.065-0.093-0.103-0.134-0.038-0.046-0.080-0.083-0.125-0.116-0.061-0.028-0.117-0.056-0.171-0.079s-0.103-0.051-0.148-0.079l-0.228-0.111-0.227-0.093c-0.064-0.026-0.14-0.050-0.218-0.068l-0.009-0.002c-0.069-0.022-0.148-0.035-0.231-0.035-0.023 0-0.046 0.001-0.068 0.003l0.003-0c-0.106 0.009-0.205 0.009-0.296 0.009-0.137 0-0.273 0.005-0.41 0.014s-0.273 0.018-0.409 0.032-0.269 0.042-0.398 0.079c-0.129 0.037-0.261 0.079-0.398 0.125-0.152 0.046-0.292 0.097-0.421 0.148s-0.254 0.125-0.375 0.213c-0.137 0.106-0.258 0.222-0.364 0.338-0.106 0.125-0.205 0.25-0.295 0.384-0.122 0.153-0.228 0.305-0.319 0.468-0.091 0.157-0.159 0.333-0.205 0.528-0.046 0.167-0.083 0.343-0.114 0.532s-0.053 0.375-0.068 0.555c0 0.143 0.003 0.292 0.009 0.444z"></path>
</svg>
