<!-- Generated by IcoMoon.io -->
<svg version="1.1" xmlns="http://www.w3.org/2000/svg" width="32" height="32" viewBox="0 0 32 32">
<path d="M26.739 4.86c0.013 0.005 0.026 0.014 0.047 0.037 0 0-0.020-0.014-0.047-0.037zM22.364 30.254c-0.317 0.315-0.394 0.143-0.719 0.463l-0.611 0.324-0.036 0.032c-0.169 0-0.313 0.106-0.503 0.106l0.144-0.069c-0.576 0.069-0.652 0.074-1.294 0.287l0.036-0.074c-0.31 0.106-0.74 0.375-0.971 0.143l-0.216 0.074h-0.216c-0.647 0-0.573 0.056-1.187 0.176l-0.323 0.037-0.36 0.069h-0.288l-0.288 0.037-0.108-0.106c-0.439 0.060-0.359 0.194-0.791 0.25l0.108-0.069c-0.431 0.139-1.083-0.097-1.51-0.181l0.036-0.069c-0.179 0-0.36-0.074-0.539-0.074h-0.108c-0.309-0.204-0.874-0.463-1.258-0.463l-0.252-0.106c-0.271-0.134-0.611-0.287-0.827-0.5l-0.108 0.069-0.288-0.143c-0.042-0.042-0.101-0.065-0.144-0.106l-0.072-0.069h-0.054c-0.039 0-0.090-0.074-0.090-0.074h0.072c0.054-0.051-0.783-0.116-0.647-0.069l-0.431-0.143c-0.162-0.056-0.338-0.102-0.503-0.143l-0.431-0.287c-0.269-0.264-0.624-0.44-0.899-0.713 0 0-0.077-0.042-0.108-0.069l-0.108-0.111c-1.102-1.092-2.363-2.074-3.416-3.212l0.144 0.069-0.252-0.25c0-0.074-0.144-0.176-0.144-0.176-0.005-0.014 0-0.037 0-0.037-0.049-0.194-0.147-0.199-0.252-0.356l0.072 0.037c-0.508-0.505-1.114-1.801-1.114-2.18 0 0-0.036-0.046-0.036-0.069l-0.431-1.287 0.108 0.176c-0.188-0.37-0.088-0.759-0.216-1.139v0.356c0-0.301-0.108-0.597-0.108-0.893 0-0.069 0.108 0.245 0.108 0.176v-0.657c0-0.106-0.288-0.43-0.288-0.375-0.369-0.736-0.358-1.532-0.611-2.287v-0.25c0-0.051-0.036-0.093-0.036-0.143v-0.213c0-0.722 0.539-3.481 0.539-1.43 0.147-0.583 0.060-0.546 0.18-1.143l0.108-0.069c0-0.088 0.031-0.171 0.065-0.255l0.013-0.032c0.034-0.083 0.065-0.162 0.065-0.25v-0.037l-0.036 0.037c0.043-0.509-0.019-0.611 0.072-1.106v0.032c0.024-0.046 0.036-0.093 0.036-0.139v-0.25l0.036-0.074v-0.106c0.052 0 0.036-0.042 0.036-0.069l0.036-0.037-0.036 0.143-0.036 0.213c0.188 0 0.611-1.583 0.611-1.93l0.036 0.037c0.122-0.194 0.422-0.741 0.611-0.93l-0.036 0.074c0.077-0.079 0.072-0.125 0.18-0.181l0.072-0.106c0-0.037 0.036-0.106 0.036-0.106l0.252-0.25c0.096-0.241 0.18-0.75 0.18-0.75 0.267-0.796 1.043-1.213 1.618-1.787l0.108-0.213 0.288-0.287c-0.105 0.069 0.503-0.944 0.503-0.963l0.216-0.218c-0.185 0.231 0.425-0.407 0.647-0.606l0.108-0.032 0.108-0.106 0.072-0.037c0.19-0.38 0.973-0.292 1.259-0.574l-0.216 0.074c0.495-0.167 0.818-0.583 1.294-0.787l0.072 0.106c0.158 0 0.363-0.218 0.503-0.287l0.072-0.032c0.073-0.074-0.027-0.106 0.072-0.106l0.108-0.074-0.288 0.106-0.36 0.25c0.154-0.12 0.051-0.282 0.252-0.282 0 0 0.045-0.037 0.072-0.037h0.072c0-0.023 0.006-0.037 0.018-0.037h0.089c0.176 0 0.489-0.065 0.647-0.106l0.431-0.143c0.138 0 0.259-0.069 0.396-0.069h0.323c0.038-0.037 0.144-0.018 0.144-0.074h-0.18c0.422 0 1.259-0.143 1.259-0.143 0.027 0 0.072-0.032 0.072-0.032h0.216s0.008 0.028 0 0.032l-0.072 0.037-0.036 0.037h-0.072c0.017 0 0.036 0.037 0.036 0.037s0.045-0.037 0.072-0.037c0 0 0.441-0.407 0.719-0.5l-0.144 0.037c0.093-0.093 0.174-0.125 0.288-0.181l-0.179 0.106c0.225-0.111 0.616-0.319 0.863-0.319l0.072 0.032h0.144c-0.017 0-0.371 0.019-0.036 0.074 0.188 0 0.139 0.032 0.36 0.106 0.523 0 0.74-0.153 1.042 0h0.719c-0.428 0 0.418 0.023 0.467 0.037h-0.215c-0.087 0 0.13 0.13 0.215 0.143 0.184-0.023 0.088-0.111 0.306-0.111h0.647c0.325 0 0.692 0.227 0.989 0.324 0.683-0.171 0.655-0.153 1.69 0.106l-0.108 0.069c0.208 0 0.359 0.181 0.539 0.181l-0.216-0.143c0.371 0.093 0.816 0.417 1.151 0.606-0.61-0.301 0.085 0.181 0.288 0.181l0.072 0.069c-0.425 0 0.644 0.551 0.971 0.824l0.108 0.106 0.108 0.069c0.112 0.056 0.242 0.106 0.36 0.143l0.359 0.106c0.193 0.079 0.549 0.162 0.71 0.199 0.143 0.143 0.717 0.579 0.908 0.801 0.247 0.287 0.42 0.629 0.647 0.93l-0.18-0.106c0.033 0.032 0.092 0.079 0.133 0.106-0.015-0.005-0.031 0-0.061 0l0.216 0.181c0.013 0 0.323 0.069 0.611 0.356l0.108 0.069 0.108 0.106 0.072 0.111-0.072-0.037c0.087 0.13 0.118 0.153 0.216 0.25l0.144 0.213c-0.301-0.301 0.464 0.708 0.683 1.069 0.292 0.486 0.72 1.467 1.294 1.754 0.131 0.259 0.54 0.916 0.54 1.782l0.108 0.037-0.108 0.25 0.036 0.287c0.207 0.102 0.154 0.111 0.252 0.287l-0.036-0.037c0 0.111 0.629 1.088 0.288 0.75l0.144 0.213h-0.036c0.040 0.12 0.108 0.356 0.108 0.356l0.144 0.43-0.036-0.037 0.288 1.106-0.324 1.611v0.069h0.036l0.072 0.213c0.112 0 0.145-0.065 0.288 0.287 0.042 0.208-0.047 0.435 0 0.643l0.108 0.319 0.072 0.111-0.036 0.139v0.074h-0.036c-0.027 0.056-0.036 0.176-0.036 0.176-0.183-0.181-0.129 0.5-0.18 0.75l0.036-0.069c-0.062 0.87-0.283 0.764-0.431 1.574v0.389l-0.072 0.074v0.143c0 0.38-0.233 0.676-0.324 1.032l-0.108 0.287-0.072 0.287c-0.334 0.472-0.6 0.935-0.898 1.43l-0.467 0.463c-0.115 0.111-0.24 0.218-0.359 0.324 0 0 0.001-0.005 0-0.005h-0.001c-0.018 0.018-0.020 0.018-0.037 0.037-0.013 0.011-0.024 0.023-0.035 0.036l-0 0.001c-0.459 0.301-0.694 0.889-0.863 1.393l-0.108 0.176-0.108 0.218c-0.141 0.139-0.409 0.301-0.609 0.375 0.011-0.005 0.022-0.014 0.033-0.018l-0.072 0.032 0.039-0.014c-1.364 0.907-2.126 1.629-3.167 2.837-0.024 0.024-0.055 0.042-0.089 0.051l-0.001 0-0.089 0.018c0.027 0 0.059-0.005 0.089-0.018l0.090-0.014 0.252-0.287 0.036-0.037c0.027-0.051 0.108-0.143 0.108-0.143 0.072-0.069-0.062 0.194-0.108 0.287l-0.18 0.181c-0.024 0.023-0.036 0.046-0.036 0.069h-0.144c-0.125 0.065-0.405 0.143-0.539 0.143l0.036-0.037h-0.036c-0.081 0.028-0.899 0.218-0.899 0.356h-0.072v-0.032l-0.036-0.037s-0.082 0.023-0.108 0h0.036l0.036-0.037 0.54-0.176c-0.186 0-0.54 0.139-0.54 0.139l-0.072 0.074zM29.016 24.685c-0.001 0.005-0.002 0.009-0.003 0.009-0.003 0.009-0.006 0.018-0.013 0.023-0.015 0.018-0.036 0.023-0.055 0.032 0.023-0.018 0.047-0.042 0.071-0.065zM28.945 24.75c-0.012 0.014-0.024 0.026-0.037 0.037l-0 0 0.036-0.032 0.001-0.005zM0.934 12.789l-0.036 0.037c0-0.018 0.036-0.037 0.036-0.037zM25.231 3.129c-0.051-0.051-0.048-0.065 0.046-0.018l0.036 0.037s-0.031-0.009-0.082-0.018zM17.258 0.255l0.036-0.037c0.072 0.023 0.084 0.037 0.036 0.037h-0.072zM20.174 27.032c0-0.319-0.025-0.634-0.076-0.944s-0.084-0.625-0.101-0.944v-0.227c0-0.083-0.008-0.167-0.026-0.25-0.013-0.037-0.026-0.083-0.036-0.131l-0.001-0.008c-0.012-0.055-0.025-0.102-0.041-0.147l0.002 0.008c-0.032-0.107-0.054-0.232-0.063-0.36l-0-0.006c-0.010-0.143-0.023-0.269-0.041-0.393l0.003 0.027v-0.25c0-0.083-0.008-0.167-0.025-0.25 0-0.037-0.004-0.060-0.013-0.079-0.008-0.014-0.029-0.014-0.063 0-0.034 0.017-0.064 0.039-0.089 0.065l-0 0c-0.025 0.024-0.054 0.045-0.087 0.059l-0.002 0.001c-0.084 0.037-0.16 0.079-0.228 0.13-0.068 0.046-0.135 0.106-0.203 0.176-0.097 0.112-0.21 0.207-0.336 0.284l-0.006 0.003c-0.127 0.074-0.258 0.148-0.393 0.213-0.118 0.069-0.232 0.13-0.342 0.19s-0.224 0.12-0.342 0.19c-0.169 0.065-0.338 0.143-0.507 0.227s-0.329 0.167-0.481 0.25c-0.135 0.069-0.262 0.139-0.38 0.213-0.118 0.079-0.245 0.157-0.38 0.241-0.118 0.065-0.232 0.139-0.342 0.213s-0.224 0.157-0.342 0.241c-0.256 0.19-0.548 0.358-0.859 0.49l-0.028 0.010c-0.084 0.051-0.173 0.088-0.266 0.102-0.113 0.021-0.21 0.049-0.305 0.083l0.013-0.004c-0.152 0.032-0.304 0.060-0.456 0.088-0.152 0.023-0.304 0.046-0.456 0.060-0.084 0.018-0.173 0.037-0.266 0.051-0.093 0.018-0.181 0.032-0.266 0.051-0.034 0-0.076 0.005-0.126 0.014s-0.093 0.018-0.127 0.037h0.101c0.068 0 0.139 0.009 0.215 0.037 0.076 0.023 0.148 0.046 0.215 0.065 0.22 0.046 0.448 0.093 0.684 0.125l0.709 0.102c0.254 0.032 0.502 0.065 0.747 0.097 0.245 0.037 0.486 0.069 0.722 0.102 0.27 0.051 0.541 0.069 0.81 0.065 0.27-0.009 0.541-0.014 0.811-0.014 0.236 0 0.477 0.005 0.722 0.014 0.245 0.005 0.486 0.009 0.722 0.009 0.221-0.018 0.424-0.052 0.621-0.103l-0.025 0.005c0.194-0.051 0.384-0.111 0.57-0.176 0.084-0.051 0.181-0.088 0.291-0.102 0.11-0.018 0.165 0 0.165 0.051zM16.070 8.688c0.017 0.014 0.026 0.018 0.026 0.014 0-0.009 0.008-0.014 0.025-0.014 0.025-0.016 0.055-0.028 0.086-0.037l0.002-0c0.025-0.009 0.054-0.014 0.084-0.014 0.002 0 0.003 0 0.005 0h-0c0.118-0.032 0.233-0.060 0.342-0.074 0.11-0.018 0.215-0.028 0.317-0.028 0.185-0.032 0.376-0.046 0.57-0.037s0.384 0.014 0.57 0.014h0.557c0.017 0 0.029-0.005 0.038-0.014l0.038-0.037c0.034 0 0.055 0.005 0.063 0.014 0.008 0.005 0.013-0.014 0.013-0.065 0.017-0.018 0.025-0.051 0.025-0.102s-0.008-0.083-0.025-0.097h-1.393c-0.135 0-0.274-0.005-0.418-0.014-0.131-0.009-0.283-0.014-0.437-0.014-0.002 0-0.004 0-0.006 0h-3.457c-0.228 0-0.46-0.014-0.697-0.051-0.032-0.014-0.070-0.027-0.109-0.036l-0.005-0.001c-0.034-0.008-0.073-0.013-0.114-0.014h-0.076l-0.102-0.046c-0.034-0.018-0.076-0.018-0.126 0-0.034 0.014-0.047 0.083-0.038 0.199s0.030 0.194 0.063 0.227c0.017 0.018 0.038 0.018 0.063 0.014 0.019-0.008 0.040-0.013 0.063-0.014l0-0c0.034 0 0.068 0.005 0.101 0.014 0.034 0.005 0.076 0.009 0.127 0.009 0.051 0.018 0.106 0.028 0.165 0.028h0.19c0.084 0 0.173 0.005 0.266 0.014 0.093 0.005 0.19 0.009 0.291 0.009h0.165c0.059 0 0.123 0.009 0.19 0.028 0.084 0.014 0.165 0.023 0.24 0.023s0.157 0.009 0.241 0.028c0.101 0 0.207 0.005 0.316 0.023s0.224 0.023 0.342 0.023c0.051 0 0.11 0.005 0.178 0.014s0.126 0.014 0.177 0.014c0.135 0.014 0.266 0.018 0.393 0.014 0.126-0.009 0.257-0.014 0.392-0.014 0.034 0 0.068 0.005 0.102 0.014 0.034 0.005 0.093 0 0.177-0.014zM19.11 20.186v-1.583c0-0.083-0.004-0.167-0.013-0.241-0.008-0.064-0.012-0.138-0.013-0.212v-0c0-0.102-0.004-0.194-0.013-0.278-0.008-0.079-0.013-0.172-0.013-0.265 0-0.004 0-0.009 0-0.013v0.001c-0.011-0.063-0.017-0.136-0.017-0.21 0-0.037 0.002-0.073 0.005-0.11l-0 0.005c0.001-0.009 0.001-0.020 0.001-0.032 0-0.106-0.034-0.204-0.091-0.285l0.001 0.002c0-0.014-0.004-0.037-0.013-0.060-0.008-0.025-0.021-0.047-0.038-0.065l0 0c-0.034-0.051-0.059-0.074-0.076-0.074s-0.042 0.023-0.076 0.074c-0.068 0.102-0.139 0.194-0.215 0.278s-0.156 0.157-0.24 0.227c-0.034 0.051-0.068 0.097-0.102 0.139s-0.068 0.088-0.101 0.139l-0.279 0.273c-0.135 0.12-0.262 0.245-0.38 0.38s-0.245 0.268-0.38 0.403-0.283 0.245-0.443 0.338c-0.16 0.093-0.325 0.181-0.494 0.264-0.186 0.069-0.359 0.148-0.519 0.241s-0.325 0.19-0.494 0.292c-0.152 0.097-0.3 0.194-0.444 0.287s-0.3 0.171-0.468 0.241c-0.085 0.032-0.173 0.069-0.266 0.111s-0.182 0.079-0.266 0.116c-0.068 0-0.127 0.005-0.177 0.023l-0.152 0.051c-0.118 0.051-0.228 0.088-0.329 0.111-0.102 0.028-0.211 0.046-0.329 0.065-0.051 0.018-0.101 0.028-0.152 0.037s-0.101 0.023-0.152 0.037v0.255c0 0.148-0.004 0.301-0.013 0.454-0.008 0.148-0.021 0.305-0.038 0.477-0.034 0.116-0.055 0.236-0.063 0.366-0.008 0.125-0.013 0.255-0.013 0.389v0.301c0.017 0.032 0.029 0.065 0.038 0.088 0.008 0.028 0.013 0.056 0.013 0.088 0.017 0.032 0.021 0.074 0.013 0.116s0.013 0.069 0.063 0.088c0.017-0.018 0.029-0.028 0.038-0.028h0.013c0.067-0.014 0.126-0.032 0.177-0.051 0.051-0.014 0.101-0.023 0.152-0.023 0.169-0.051 0.329-0.106 0.481-0.162 0.152-0.060 0.304-0.134 0.456-0.218 0.152-0.065 0.3-0.134 0.444-0.199 0.144-0.069 0.291-0.143 0.443-0.227 0.169-0.102 0.338-0.204 0.507-0.315s0.338-0.213 0.507-0.315c0.135-0.069 0.274-0.134 0.418-0.204 0.144-0.065 0.283-0.134 0.418-0.199 0.118-0.051 0.241-0.111 0.367-0.176 0.127-0.069 0.258-0.134 0.393-0.204 0.084-0.046 0.16-0.093 0.228-0.134s0.144-0.097 0.228-0.167c0.085-0.065 0.178-0.12 0.279-0.162s0.203-0.088 0.304-0.139c0.050-0.032 0.097-0.065 0.139-0.102 0.042-0.032 0.089-0.065 0.139-0.097 0.050-0.051 0.093-0.111 0.126-0.176 0.034-0.069 0.076-0.13 0.127-0.181 0.017-0.032 0.055-0.056 0.114-0.074 0.059-0.014 0.139 0.060 0.24 0.227zM17.742 4.559l0.481 0.028c0-0.032-0.034-0.056-0.102-0.065s-0.118-0.019-0.152-0.037c-0.104-0-0.204-0.014-0.3-0.039l0.008 0.002c-0.093-0.028-0.19-0.056-0.291-0.088-0.084-0.032-0.173-0.074-0.266-0.116s-0.181-0.079-0.266-0.111l-0.152-0.051c-0.049-0.017-0.091-0.042-0.127-0.074l0 0c-0.047-0.031-0.089-0.065-0.126-0.102l0 0c-0.038-0.035-0.080-0.068-0.123-0.099l-0.004-0.003c-0.054-0.034-0.1-0.067-0.144-0.1l0.004 0.003c-0.050-0.043-0.095-0.086-0.139-0.13l-0-0c-0.034-0.032-0.063-0.069-0.087-0.109l-0.001-0.002c-0.039-0.065-0.069-0.11-0.099-0.155l0.010 0.016c-0.017-0.034-0.038-0.063-0.063-0.088l-0-0c-0.028-0.023-0.064-0.037-0.104-0.037-0.003 0-0.007 0-0.010 0l0-0h-0.342c-0.127 0-0.24 0.014-0.342 0.051-0.033 0-0.063 0.009-0.089 0.024l0.001-0c-0.025 0.018-0.047 0.032-0.063 0.051-0.034 0.018-0.072 0.037-0.114 0.065-0.042 0.023-0.089 0.046-0.139 0.060-0.050 0.032-0.105 0.060-0.165 0.079-0.059 0.014-0.123 0.032-0.19 0.046-0.068 0.037-0.139 0.065-0.215 0.088-0.076 0.028-0.156 0.046-0.24 0.065-0.068 0.032-0.139 0.060-0.215 0.074-0.058 0.016-0.139 0.034-0.222 0.048l-0.019 0.003c-0.034 0.018-0.074 0.028-0.117 0.028-0.003 0-0.006-0-0.010-0h0c-0.005-0-0.011-0.001-0.018-0.001-0.040 0-0.077 0.009-0.111 0.024l0.002-0.001-0.203 0.102c-0.055 0.016-0.101 0.033-0.146 0.053l0.006-0.003c-0.042 0.014-0.089 0.032-0.139 0.051-0.072 0.017-0.135 0.042-0.193 0.076l0.003-0.002c-0.059 0.032-0.122 0.065-0.19 0.102l-0.127 0.060c-0.048 0.024-0.084 0.065-0.101 0.114l-0 0.001h0.355c0.051 0 0.11 0.005 0.178 0.023 0.101 0 0.203 0.005 0.304 0.014s0.211 0.009 0.329 0.009h1.216c0.152 0 0.304 0.009 0.456 0.028s0.304 0.023 0.456 0.023h2.457zM16.907 7.906c0.22-0.032 0.371-0.088 0.456-0.162 0.078-0.063 0.127-0.158 0.127-0.264v-0c-0.017 0-0.025-0.009-0.025-0.023 0-0.019-0.008-0.037-0.025-0.051v-1.384c0-0.153 0.004-0.31 0.013-0.468s0.004-0.315-0.013-0.468v-0.097c-0.001-0.045-0.011-0.088-0.027-0.128l0.001 0.003c-0.017-0.019-0.021-0.032-0.013-0.037 0.008-0.009-0.013-0.014-0.063-0.014h-0.114c-0.045-0.001-0.085-0.021-0.114-0.051l-0-0c-0.019-0.021-0.036-0.046-0.050-0.072l-0.001-0.002c-0.016-0.034-0.042-0.062-0.075-0.078l-0.001-0c-0.017 0.032-0.017 0.065 0 0.088 0.017 0.028 0.025 0.056 0.025 0.088 0.017 0.037 0.021 0.069 0.013 0.102s-0.013 0.074-0.013 0.125c0.017 0.037 0.030 0.069 0.038 0.102s0.004 0.074-0.013 0.125l-0.102 0.704c-0.034 0.088-0.063 0.176-0.089 0.278s-0.047 0.194-0.063 0.278c-0.034 0.116-0.046 0.227-0.038 0.329 0.008 0.097 0.021 0.208 0.038 0.324 0 0.102 0.004 0.199 0.013 0.292s0.030 0.19 0.063 0.287c0 0.037 0.004 0.069 0.013 0.102s0.021 0.060 0.038 0.074zM14.086 7.804c-0.029 0-0.047-0.023-0.055-0.060-0.005-0.034-0.018-0.064-0.038-0.088l0 0c-0.030-0.084-0.056-0.185-0.074-0.289l-0.002-0.011c-0.017-0.102-0.034-0.208-0.051-0.329-0.017-0.116-0.029-0.236-0.038-0.366-0.008-0.125-0.013-0.255-0.013-0.389 0.017-0.102 0.038-0.199 0.063-0.287 0.026-0.093 0.047-0.199 0.063-0.315 0.017-0.134 0.021-0.282 0.013-0.444-0.005-0.156-0.078-0.294-0.189-0.388l-0.001-0.001c-0.026-0.013-0.056-0.021-0.088-0.023l-0.001-0h-0.089c-0.020-0.020-0.046-0.034-0.075-0.037l-0.001-0c-0.030-0.009-0.065-0.014-0.101-0.014h-0c-0.017 0-0.047-0.014-0.089-0.037-0.042-0.028-0.072-0.037-0.089-0.037-0.034 0-0.055 0.014-0.063 0.046-0.007 0.023-0.011 0.050-0.013 0.078l-0 0.001c-0.014 0.074-0.027 0.172-0.037 0.271l-0.001 0.016c-0.008 0.093-0.013 0.181-0.013 0.264v2.092c0 0.046-0.004 0.097-0.013 0.148-0.003 0.015-0.004 0.033-0.004 0.051 0 0.036 0.006 0.071 0.017 0.104l-0.001-0.002c0 0.032 0.004 0.051 0.013 0.051h0.063c0.084 0 0.182-0.005 0.291-0.014s0.313-0.005 0.612 0.009zM14.086 7.804c0.003 0.005 0.006 0.005 0.008 0.005-0.003 0-0.006-0.005-0.008-0.005zM17.667 10.146v-0.375c0-0.037 0.004-0.079 0.013-0.13 0.008-0.046 0.013-0.088 0.013-0.125 0-0.051 0.013-0.097 0.038-0.139 0.021-0.031 0.035-0.069 0.038-0.11l0-0.001c0-0.032-0.008-0.088-0.025-0.162-0.017-0.079-0.042-0.116-0.076-0.116-0.024 0.003-0.045 0.011-0.064 0.023l0.001-0c-0.025 0.018-0.047 0.037-0.063 0.051-0.034 0.018-0.072 0.037-0.114 0.051-0.042 0.018-0.080 0.032-0.114 0.051l-0.152 0.051c-0.045 0.017-0.098 0.028-0.152 0.028h-0c-0.067 0.014-0.13 0.028-0.19 0.037-0.059 0.005-0.123 0.009-0.19 0.009-0.068 0.018-0.135 0.028-0.203 0.028s-0.144 0.009-0.228 0.023c-0.068 0-0.139 0.014-0.215 0.037-0.076 0.028-0.156 0.037-0.24 0.037-0.152 0.018-0.304 0.046-0.456 0.079-0.126 0.030-0.281 0.056-0.439 0.073l-0.017 0.001c-0.118 0.032-0.237 0.056-0.355 0.065-0.118 0.005-0.237 0.018-0.355 0.037-0.102 0.018-0.203 0.028-0.304 0.037s-0.203 0.014-0.304 0.014c-0.065-0.002-0.127-0.007-0.187-0.015l0.010 0.001c-0.084-0.009-0.135-0.005-0.152 0.014-0.017 0.014-0.025 0.051-0.025 0.102v0.704c0 0.185 0.004 0.366 0.013 0.551s-0.004 0.37-0.038 0.555v0.148c0.118-0.032 0.228-0.065 0.329-0.097s0.203-0.079 0.304-0.125c0.135-0.069 0.266-0.134 0.392-0.204 0.127-0.065 0.258-0.125 0.393-0.176 0.118-0.051 0.232-0.102 0.342-0.153 0.11-0.046 0.224-0.097 0.342-0.148 0.186-0.083 0.38-0.167 0.583-0.255 0.202-0.083 0.397-0.176 0.582-0.273 0.135-0.069 0.291-0.12 0.468-0.153s0.444-0.051 0.798-0.051zM18.527 14.368c0.020 0.009 0.046 0.014 0.076 0.005-0.026 0-0.052 0-0.076-0.005zM18.527 14.368c-0.037-0.014-0.057-0.056-0.063-0.12-0.007-0.066-0.011-0.145-0.013-0.224l-0-0.002c-0.015-0.072-0.029-0.162-0.037-0.253l-0.001-0.010c-0.008-0.079-0.012-0.171-0.013-0.263v-0c0-0.102-0.004-0.199-0.013-0.287-0.008-0.093-0.021-0.19-0.038-0.292-0.014-0.051-0.027-0.115-0.037-0.181l-0.001-0.009c-0.008-0.054-0.013-0.116-0.013-0.179 0-0.002 0-0.004 0-0.007v0c0-0.069-0.008-0.134-0.026-0.19-0.022-0.083-0.040-0.138-0.058-0.193l0.008 0.027c0-0.046-0.008-0.106-0.026-0.176-0.015-0.052-0.024-0.113-0.025-0.175v-0.001c-0.011-0.019-0.017-0.041-0.017-0.064 0-0.012 0.002-0.023 0.004-0.034l-0 0.001c0.008-0.037-0.004-0.060-0.038-0.079-0.025 0.016-0.055 0.028-0.086 0.037l-0.002 0c-0.025 0.009-0.055 0.023-0.089 0.042-0.051 0.032-0.093 0.065-0.127 0.097l-0.101 0.102c-0.034 0.018-0.072 0.042-0.114 0.074-0.042 0.037-0.080 0.069-0.114 0.102-0.068 0.051-0.135 0.097-0.203 0.139s-0.135 0.088-0.202 0.139c-0.102 0.065-0.203 0.12-0.304 0.162s-0.203 0.097-0.304 0.167c-0.118 0.065-0.236 0.139-0.355 0.222l-0.355 0.255c-0.135 0.065-0.266 0.13-0.393 0.19-0.126 0.056-0.249 0.12-0.367 0.185-0.135 0.083-0.274 0.153-0.418 0.204s-0.283 0.111-0.418 0.176c-0.135 0.069-0.27 0.13-0.405 0.19-0.135 0.056-0.279 0.102-0.431 0.139-0.050 0.014-0.105 0.032-0.165 0.051-0.063 0.016-0.117 0.042-0.166 0.075l0.002-0.001c-0.036 0-0.071 0.005-0.104 0.015l0.003-0.001c-0.034 0.005-0.059 0.028-0.076 0.060-0.017 0.018-0.025 0.051-0.025 0.102v0.125c0 0.102-0.004 0.204-0.013 0.301-0.008 0.091-0.013 0.198-0.013 0.306v0 0.704c0 0.065-0.009 0.125-0.026 0.176s-0.025 0.106-0.025 0.176c0.017 0.083 0.025 0.176 0.025 0.278v0.273c-0.017 0.051-0.034 0.106-0.051 0.167-0.017 0.056-0.017 0.102 0 0.139h0.102c0.051-0.018 0.105-0.037 0.165-0.051 0.059-0.018 0.114-0.037 0.165-0.051 0.118-0.032 0.24-0.079 0.367-0.139s0.249-0.111 0.367-0.162c0.169-0.083 0.329-0.176 0.481-0.278s0.304-0.194 0.456-0.278c0.152-0.083 0.3-0.171 0.444-0.264s0.291-0.181 0.443-0.264c0.118-0.083 0.24-0.157 0.367-0.213 0.127-0.060 0.249-0.125 0.367-0.19 0.068-0.051 0.144-0.097 0.228-0.139s0.169-0.088 0.253-0.139c0.034-0.014 0.068-0.037 0.101-0.060 0.034-0.028 0.068-0.056 0.102-0.088l0.203-0.102c0.068-0.032 0.135-0.074 0.203-0.125 0.034-0.037 0.076-0.069 0.126-0.102l0.152-0.102c0.068-0.032 0.16-0.060 0.279-0.088 0.105-0.023 0.257-0.028 0.455-0.018z"></path>
</svg>
