<!-- Generated by IcoMoon.io -->
<svg version="1.1" xmlns="http://www.w3.org/2000/svg" width="32" height="32" viewBox="0 0 32 32">
<path d="M17.258 0.244l0.036-0.032c0.072 0.023 0.084 0.032 0.036 0.032h-0.072zM0.934 12.784l-0.036 0.032c0-0.014 0.036-0.032 0.036-0.032zM25.231 3.123c-0.051-0.051-0.048-0.065 0.046-0.018l0.036 0.032s-0.031-0.005-0.082-0.014zM26.739 4.854c0.013 0.005 0.026 0.014 0.047 0.032l-0.047-0.032zM22.364 30.248c-0.317 0.315-0.394 0.139-0.719 0.463l-0.611 0.319-0.036 0.037c-0.169 0-0.313 0.106-0.503 0.106l0.144-0.069c-0.576 0.069-0.652 0.069-1.294 0.282l0.036-0.069c-0.31 0.102-0.74 0.375-0.971 0.143l-0.216 0.069h-0.216c-0.647 0-0.573 0.060-1.187 0.181l-0.323 0.037-0.36 0.069h-0.288l-0.288 0.037-0.108-0.106c-0.439 0.060-0.359 0.194-0.791 0.25l0.108-0.074c-0.431 0.144-1.083-0.093-1.51-0.176l0.036-0.074c-0.179 0-0.36-0.069-0.539-0.069h-0.108c-0.309-0.204-0.874-0.468-1.258-0.468l-0.252-0.106c-0.271-0.134-0.611-0.282-0.827-0.5l-0.108 0.074-0.288-0.143c-0.042-0.042-0.101-0.065-0.144-0.106l-0.072-0.074h-0.054c-0.039 0-0.090-0.069-0.090-0.069h0.072c0.054-0.056-0.783-0.116-0.647-0.074l-0.431-0.139c-0.162-0.056-0.338-0.102-0.503-0.143l-0.431-0.287c-0.269-0.268-0.624-0.44-0.899-0.713 0 0-0.077-0.042-0.108-0.074l-0.108-0.106c-1.102-1.097-2.363-2.074-3.416-3.212l0.144 0.069-0.252-0.25c0-0.074-0.144-0.181-0.144-0.181-0.005-0.009 0-0.032 0-0.032-0.049-0.194-0.147-0.204-0.252-0.356l0.072 0.032c-0.508-0.505-1.114-1.796-1.114-2.176 0 0-0.036-0.046-0.036-0.074l-0.431-1.282 0.108 0.176c-0.188-0.375-0.088-0.759-0.216-1.143v0.356c0-0.296-0.108-0.592-0.108-0.893 0-0.065 0.108 0.25 0.108 0.181v-0.662c0-0.102-0.288-0.426-0.288-0.375-0.369-0.731-0.358-1.532-0.611-2.287v-0.25c0-0.046-0.036-0.093-0.036-0.139v-0.218c0-0.722 0.539-3.476 0.539-1.426 0.147-0.583 0.060-0.546 0.18-1.143l0.108-0.074c0-0.083 0.031-0.167 0.065-0.25l0.013-0.032c0.034-0.083 0.065-0.167 0.065-0.25v-0.037l-0.036 0.037c0.043-0.509-0.019-0.611 0.072-1.111v0.037c0.024-0.046 0.036-0.093 0.036-0.143v-0.25l0.036-0.069v-0.106c0.052 0 0.036-0.042 0.036-0.074l0.036-0.037-0.036 0.143-0.036 0.218c0.188 0 0.611-1.588 0.611-1.93l0.036 0.037c0.122-0.194 0.422-0.741 0.611-0.93l-0.036 0.074c0.077-0.079 0.072-0.125 0.18-0.181l0.072-0.106c0-0.037 0.036-0.106 0.036-0.106l0.252-0.25c0.096-0.241 0.18-0.75 0.18-0.75 0.267-0.796 1.043-1.217 1.618-1.787l0.108-0.213 0.288-0.287c-0.105 0.069 0.503-0.944 0.503-0.963l0.216-0.218c-0.185 0.231 0.425-0.412 0.647-0.606l0.108-0.037 0.108-0.106 0.072-0.032c0.19-0.38 0.974-0.292 1.259-0.574l-0.216 0.074c0.495-0.167 0.818-0.583 1.294-0.787l0.072 0.106c0.158 0 0.363-0.218 0.503-0.287l0.072-0.037c0.073-0.069-0.027-0.106 0.072-0.106l0.108-0.069-0.288 0.106-0.36 0.25c0.154-0.12 0.051-0.287 0.252-0.287 0 0 0.045-0.032 0.072-0.032h0.072c0-0.028 0.006-0.037 0.018-0.037h0.089c0.176 0 0.489-0.069 0.647-0.106l0.431-0.143c0.138 0 0.259-0.074 0.396-0.074h0.323c0.038-0.037 0.144-0.014 0.144-0.069h-0.18c0.422 0 1.259-0.143 1.259-0.143 0.027 0 0.072-0.037 0.072-0.037h0.216s0.008 0.028 0 0.037l-0.072 0.037-0.036 0.037h-0.072c0.017 0 0.036 0.032 0.036 0.032s0.045-0.032 0.072-0.032c0 0 0.441-0.412 0.719-0.5l-0.144 0.032c0.093-0.093 0.174-0.12 0.288-0.176l-0.179 0.106c0.225-0.111 0.616-0.324 0.863-0.324l0.072 0.037h0.144c-0.017 0-0.371 0.014-0.036 0.074 0.188 0 0.139 0.032 0.36 0.106 0.523 0 0.74-0.153 1.042 0h0.719c-0.428 0 0.418 0.023 0.468 0.032h-0.216c-0.087 0 0.13 0.134 0.216 0.143 0.184-0.023 0.087-0.106 0.305-0.106h0.647c0.325 0 0.692 0.222 0.989 0.324 0.683-0.171 0.655-0.153 1.69 0.106l-0.108 0.069c0.208 0 0.359 0.181 0.539 0.181l-0.216-0.143c0.371 0.093 0.816 0.417 1.151 0.606-0.61-0.301 0.085 0.181 0.288 0.181l0.072 0.069c-0.425 0 0.644 0.551 0.971 0.824l0.108 0.106 0.108 0.069c0.112 0.056 0.242 0.102 0.36 0.143l0.359 0.106c0.193 0.079 0.549 0.162 0.71 0.199 0.143 0.139 0.717 0.579 0.908 0.801 0.247 0.287 0.42 0.63 0.647 0.93l-0.18-0.106c0.033 0.032 0.092 0.074 0.133 0.106-0.015-0.005-0.031 0-0.061 0l0.216 0.176c0.013 0 0.323 0.074 0.611 0.356l0.108 0.074 0.108 0.106 0.072 0.106-0.072-0.032c0.087 0.125 0.118 0.153 0.216 0.25l0.144 0.213c-0.301-0.301 0.464 0.708 0.683 1.069 0.292 0.481 0.72 1.467 1.295 1.75 0.131 0.264 0.539 0.921 0.539 1.787l0.108 0.037-0.108 0.25 0.036 0.287c0.207 0.102 0.154 0.111 0.252 0.282l-0.036-0.032c0 0.111 0.629 1.088 0.288 0.75l0.144 0.213h-0.036c0.040 0.116 0.108 0.356 0.108 0.356l0.144 0.43-0.036-0.037 0.288 1.106-0.324 1.606v0.074h0.036l0.072 0.213c0.112 0 0.145-0.069 0.288 0.287 0.042 0.208-0.047 0.43 0 0.643l0.108 0.319 0.072 0.106-0.036 0.143v0.074h-0.036c-0.027 0.051-0.036 0.176-0.036 0.176-0.183-0.181-0.129 0.5-0.18 0.75l0.036-0.069c-0.062 0.866-0.283 0.759-0.431 1.569v0.393l-0.072 0.074v0.139c0 0.384-0.233 0.68-0.324 1.037l-0.108 0.287-0.072 0.287c-0.334 0.472-0.6 0.93-0.899 1.426l-0.467 0.468c-0.115 0.111-0.24 0.213-0.359 0.324 0-0.005 0.001-0.005 0-0.005h-0.001c-0.018 0.014-0.020 0.018-0.037 0.037-0.012 0.009-0.023 0.023-0.035 0.032-0.459 0.305-0.694 0.889-0.863 1.393l-0.108 0.181-0.108 0.213c-0.141 0.139-0.409 0.305-0.609 0.38 0.013-0.006 0.024-0.014 0.033-0.023l-0 0-0.072 0.037 0.039-0.014c-1.364 0.907-2.126 1.629-3.167 2.837-0.026 0.020-0.056 0.038-0.088 0.050l-0.002 0.001-0.089 0.018c0.027 0 0.059-0.005 0.089-0.018l0.090-0.018 0.252-0.282 0.036-0.037c0.032-0.054 0.068-0.101 0.108-0.144l-0 0c0.073-0.074-0.062 0.194-0.108 0.287l-0.18 0.176c-0.021 0.018-0.034 0.045-0.036 0.074v0h-0.144c-0.125 0.060-0.405 0.143-0.539 0.143l0.036-0.037h-0.036c-0.081 0.028-0.899 0.213-0.899 0.356h-0.072v-0.037l-0.036-0.032s-0.082 0.023-0.108 0h0.036l0.036-0.037 0.54-0.181c-0.186 0-0.54 0.143-0.54 0.143l-0.072 0.074zM29.016 24.679l-0.003 0.009c-0.003 0.009-0.008 0.017-0.013 0.023l0-0c-0.015 0.014-0.036 0.023-0.055 0.032 0.023-0.023 0.047-0.042 0.071-0.065zM28.945 24.744c-0.013 0.014-0.025 0.023-0.038 0.037l0.036-0.037h0.001zM26.436 19.25l-0.291-0.819-0.17-0.046-0.315-0.532-0.437-0.361-0.437-0.315-0.048-0.12-0.024-0.481-0.073-0.505-0.097-0.916 0.024-0.074h0.146l0.145-0.046 0.437-0.509 0.486-0.481 0.218-0.625 0.34-0.579-0.025-0.653 0.097-0.653-0.267-0.602-0.17-0.625-0.437-0.505v-0.074l-0.461-0.338-0.437-0.412-0.291-0.12-0.413-0.12-0.558-0.093-0.582-0.028-0.582 0.097-0.509 0.241-0.194 0.074-0.267 0.097-0.243-0.074-0.097-0.046-0.607-0.412-0.704-0.287-0.048-0.194-0.145-0.023 0.073-0.218-0.219-0.63-0.145-0.648-0.315-0.602-0.389-0.555-0.461-0.315-0.486-0.338-0.121 0.023-0.364-0.12 0.024-0.097-0.704-0.167-0.825 0.046-0.048 0.028-0.631 0.218-0.631 0.264-0.607 0.528-0.34 0.366-0.267 0.407v0.074l-0.122 0.167-0.097 0.241 0.048 0.023-0.073 0.028-0.024 0.069-0.122 0.509v0.505l-0.073 0.218-0.437 0.264-0.461 0.218-0.85 0.435-0.534-0.241-0.534-0.12h-0.17l-0.024 0.046-0.753-0.069h-0.486l-0.874 0.264-0.461 0.31-0.486 0.218-0.315 0.412-0.34 0.384-0.146 0.653-0.121 0.648-0.048 0.583 0.121 0.574-0.024 0.218 0.291 0.555 0.291 0.579 0.534 0.361 0.51 0.412 0.17 0.241 0.024 0.505-0.097 0.509 0.024 0.505v0.532l-0.291-0.051-0.486 0.481-0.437 0.509-0.315 0.602-0.243 0.625v0.653l0.024 0.653 0.17 0.625 0.121 0.653 0.971 0.916 0.582 0.333 0.534 0.389 0.898 0.143 0.558-0.264 0.582-0.074 0.558-0.194 0.267-0.241 0.364 0.435 0.364 0.389 0.509 0.12 0.486 0.19-0.048 0.241 0.121 0.676 0.024 0.699 0.486 0.509 0.461 0.505 0.534 0.384 0.51 0.435 0.68 0.097 0.679 0.023 0.655-0.046 0.679-0.074 0.607-0.338 0.582-0.361 0.218-0.338 0.315-0.579 0.243-0.602 0.17-0.893 0.024-0.074v-0.143l-0.024-0.069 0.412-0.268 0.461-0.218 0.412-0.31 0.437-0.268 0.218 0.097 0.631 0.171 0.582 0.241 0.509-0.023h0.34l0.801-0.12 0.461-0.245 0.486-0.19 0.534-0.435 0.413-0.435 0.073-0.167 0.146-0.532 0.121-0.555 0.097-0.31-0.073-0.602-0.048-0.63zM20.465 11.992l0.049-0.093-0.146-0.074 0.121-0.625 0.267-0.579 0.389-0.509 1.117-0.579 0.801-0.264 0.194 0.046 0.534 0.218 0.51 0.268 0.461 0.31 0.437 0.555 0.024 0.074 0.145 0.093 0.17 0.555 0.121 0.241-0.048 0.727 0.048 0.264-0.048 0.023 0.048 0.023-0.219 0.458-0.194 0.481-0.048-0.023 0.024 0.023-0.243 0.315-0.582 0.412-0.631 0.264-0.68 0.046-0.242 0.051-0.17-0.097-0.291-0.097-0.219-0.023-0.534-0.194-0.461-0.31-0.413-0.486-0.17-0.579-0.122-0.602v-0.315zM19.155 9.076l0.558 0.389 0.679 0.338-0.315 0.574-0.291 0.509-0.024 0.579-0.194 0.579-0.558 0.241-0.509 0.384-0.631 0.458-0.218 0.218-0.219 0.023 0.024-0.602-0.073-0.602 0.485 0.315 0.025 0.046-0.025-0.097 0.364-0.287-0.461-0.218-0.486-0.194-0.34 0.315 0.024 0.602 0.049 0.579-0.049 0.602 0.073 0.074-0.073 0.074 0.073 0.046v-0.023l0.655-0.338 0.51-0.194 0.437-0.264 0.558-0.315 0.558-0.264 0.121 0.722-0.558 0.315-0.631 0.315-0.534 0.384-0.534 0.435-0.68 0.241-0.607 0.361 0.024-0.722-0.073-0.699 0.024-0.653 0.024-0.676-0.024-0.676 0.048-0.676 0.582-0.143 0.607-0.218 0.291-0.287 0.364 0.361 0.218 0.194v0.046l0.219 0.074 0.048 0.046 0.097-0.12 0.218-0.241 0.461-0.722v-0.171l-0.34 0.171-0.219 0.287-0.17 0.194-0.073 0.023-0.219-0.287-0.218-0.148 0.315-0.167 0.291-0.602 0.315-0.509zM12.699 9.173l0.267 0.505 0.437 0.435 0.486 0.338 0.51 0.361 0.534 0.218 0.486 0.338v0.435l0.073 0.481-0.073 0.046-0.582 0.194-0.631 0.12-0.413 0.481 0.389 0.602 0.51 0.486 0.388-0.366-0.582-0.768 0.364-0.171 0.267-0.143h0.388v0.602l0.073 0.606-0.073 0.722 0.073 0.745-0.607-0.458-0.631-0.361-0.631-0.241-0.607-0.287-0.097-0.097 0.048-0.051 0.121-0.167 0.34-0.338 0.073-0.023-0.17-0.12-0.097-0.097-0.097 0.046-0.413 0.361-0.194 0.12-0.679-0.361 0.097-0.167 0.267-0.361 0.413-0.389 0.412-0.264 0.389-0.287 0.267-0.218 0.097-0.148-0.122-0.213-0.048-0.097-0.437-0.389-0.17-0.12h-0.048l-0.073-0.023-0.024-0.023v0.023l-0.024-0.023-0.267-0.435-0.17-0.167h-0.024l-0.121 0.046v0.023l-0.049 0.218 0.097 0.023 0.17 0.532 0.097 0.074v0.046l0.291 0.097 0.048 0.046 0.219 0.051 0.17 0.31-0.461 0.268-0.486 0.241-0.291 0.264v-0.097l-0.073-0.551-0.049-0.532-0.34-0.653-0.267-0.671 0.631-0.389 0.607-0.241h0.024zM14.835 5.535l0.582-0.171 0.631-0.12 0.631 0.12 0.582 0.264 0.534 0.366 0.315 0.579 0.073 0.046 0.097 0.074 0.121 0.264 0.194 0.602-0.024 0.338-0.097 0.218-0.219 0.819-0.389 0.699-0.582 0.505 0.049 0.12-0.049-0.023-0.558 0.361-0.656 0.051-0.631-0.051-0.582-0.31-0.315-0.028-0.437-0.551-0.558-0.435 0.024-0.218-0.267-0.555-0.097-0.602 0.122-0.602 0.219-0.555 0.315-0.532 0.412-0.43 0.558-0.241zM24.446 22.337l-0.704 0.287-0.777 0.194-0.243 0.046-0.121-0.069-0.607-0.194-0.461-0.435-0.558-0.407-0.048 0.023-0.097-0.167-0.194-0.097-0.048-0.699-0.146-0.676 0.024-0.241-0.024-0.12 0.146-0.509 0.097-0.528 0.17-0.12 0.388-0.481 0.486-0.366 0.558-0.241h0.631l0.364-0.093 0.753 0.143 0.704 0.287v0.074l0.51 0.579 0.267 0.407 0.17 0.458 0.048 0.699-0.097 0.653-0.219 0.653-0.412 0.551-0.558 0.389zM19.203 22.939l-0.291-0.505-0.412-0.435-0.461-0.315-0.437-0.31-0.122-0.028-0.364-0.31-0.413-0.097-0.145-0.051-0.194-0.069 0.097-0.676 0.024-0.676-0.073-0.653-0.048-0.671 0.024-0.699-0.073-0.75 0.558 0.384 0.582 0.338-0.121 0.268-0.073 0.648-0.145 0.63-0.073 0.625v0.12l0.534 0.051 0.51 0.19 0.146 0.051 0.364 0.046 0.121-0.167 0.122-0.218-0.048-0.028 0.218-0.768-0.267-0.12-0.218 0.12-0.219 0.625-0.34-0.069-0.194-0.051-0.048-0.12-0.024 0.023-0.024-0.069-0.122 0.069 0.073-0.407 0.048-0.241 0.097-0.579 0.097-0.361 0.437 0.19 0.461 0.148 0.607 0.333 0.534 0.412-0.121 0.602-0.121 0.653 0.073 0.361-0.437 0.241-0.412 0.264-0.51-0.241-0.558-0.143-0.607-0.12 0.024 0.046-0.073-0.023-0.048 0.023-0.024 0.148 0.048 0.069-0.024 0.023 0.752 0.194 0.194 0.171 0.315 0.069 0.122 0.074 0.121 0.023-0.024 0.023h0.024l0.194 0.435 0.17 0.241 0.267 0.338 0.243-0.194-0.267-0.796 0.534-0.333 0.145 0.458 0.267 0.333 0.219 0.606-0.607 0.338-0.582 0.287zM6.655 13.395l-0.243-0.245-0.219-0.889v-0.268l0.122 0.028 0.024-0.676 0.097-0.555 0.315-0.435 0.048-0.12 0.558-0.384 0.583-0.292 0.631-0.19 0.679-0.023 0.631 0.213 0.631 0.268 0.413 0.505 0.412 0.699-0.024 0.097 0.17 0.143v0.819l0.024 0.435-0.243 0.579-0.267 0.555-0.486 0.361-0.048 0.097-0.073 0.069-0.194 0.074-0.607 0.194-0.097 0.046-0.097 0.023-0.728 0.051-0.728-0.218-0.412-0.12-0.024 0.023-0.024-0.023-0.51-0.315-0.315-0.528zM10.66 17.25l-0.558-0.315-0.582-0.218v-0.097l0.485-0.31 0.461-0.361 0.267-0.194-0.34-0.194-0.582 0.412-0.51 0.458-0.291 0.287-0.679-0.097 0.024-0.551-0.048-0.653h0.509l0.898-0.143 0.825-0.361 0.558 0.287 0.777 0.435-0.679 0.528v0.051l-0.025-0.023-0.024 0.097-0.073 0.213 0.024-0.046 0.048 0.097 0.097 0.023 0.461-0.384 0.461-0.361 0.121-0.028 0.048-0.093h0.025l0.097-0.028 0.024-0.287-0.024-0.023-0.679-0.458-0.68-0.338 0.51-0.63 0.558 0.412 0.607 0.315 0.486 0.287 0.242 0.241 0.413 0.143h0.097l0.558 0.366 0.607 0.361-0.607 0.384-0.655 0.264-0.801 0.435-0.534-0.361 0.34-0.241 0.582-0.389v-0.023l0.025 0.023v-0.069l0.048-0.074 0.194-0.097-0.097-0.046-0.048-0.046-0.097 0.023h-0.146l-0.558 0.384-0.582 0.338-0.291 0.481 0.267 0.264 0.315 0.268-0.971 0.528-0.461-0.43-0.461-0.412 0.024-0.023zM11.995 18.616l0.17-0.065 0.024 0.023 0.048-0.023 0.655-0.361 0.631-0.412 0.509-0.31 0.51-0.292 0.534-0.167 0.461-0.241v0.551l0.049 0.583-0.413 0.167-0.048 0.046-0.073 0.051v-0.023l-0.267 0.241 0.073 0.241 0.607-0.148 0.17-0.069-0.024 0.528 0.073 0.532-0.121 0.676 0.024 0.699-0.656 0.12-0.607 0.218-0.485 0.384-0.461 0.435-0.048 0.046-0.219-0.069-0.51-0.268-0.242 0.315 0.437 0.338 0.219 0.097-0.267 0.699-0.631-0.412-0.607-0.407 0.315-0.676 0.437-0.579v-0.143l0.315 0.023 0.534 0.097 0.655-0.602 0.437-0.366 0.145 0.051 0.34 0.046 0.364-0.384-0.34-0.171-0.146 0.097-0.121-0.12-0.073-0.143 0.025-0.046-0.316-0.819-0.073-0.028-0.534 0.241-0.582 0.148-0.17 0.241 0.024 0.31 0.024-0.023 0.121 0.292 0.364-0.074-0.122-0.481 0.558-0.218 0.219 0.722-0.097 0.097-0.413 0.338-0.34 0.435-0.874-0.074 0.024-0.602-0.121-0.505-0.073-0.532-0.024-0.143v-0.13zM18.33 24.846l0.024 0.12-0.097 0.648-0.389 0.532-0.558 0.384-0.607 0.241h-0.655l-0.655-0.023-0.631-0.097-0.582-0.287-0.534-0.509-0.194-0.699-0.073-0.699-0.097-0.218 0.121-0.338v-0.143l0.048-0.653 0.34-0.574 0.437-0.509 0.607-0.287 0.631-0.218 0.655 0.046 0.656 0.074 0.582 0.264 0.607 0.315 0.219 0.602 0.121 0.074 0.17 0.648 0.121 0.699-0.267 0.606zM11.267 20.791l-0.219 0.458-0.121 0.509-0.364 0.384-0.388 0.361-0.51 0.097-0.534-0.046h-0.485l-0.486 0.046-0.461-0.194-0.486-0.19-0.291-0.435-0.34-0.361-0.219-0.63-0.219-0.648 0.267-0.602 0.146-0.676 0.461-0.532 0.413-0.579 0.704-0.097 0.679-0.213 0.68 0.19 0.704 0.143 0.437 0.555 0.558 0.435 0.097 0.532 0.17 0.505-0.024 0.505-0.17 0.481zM18.621 15.829l-0.073-0.028v0.051l-0.267 0.12-0.146 0.19h-0.048l0.437 0.148 0.024 0.069 0.219-0.12 0.073 0.051 0.097 0.046 0.267 0.218v-0.023l0.243 0.069 0.412 0.148-0.364 0.384-0.194 0.458-0.242-0.097-0.558-0.338-0.582-0.338-0.582-0.43-0.631-0.338 0.631-0.338 0.607-0.389 0.607-0.287 0.607-0.315 0.267-0.19 0.145 0.43 0.34 0.819 0.607 0.148 0.607 0.069h0.073l0.073-0.097 0.048-0.069v-0.12l-0.534-0.171-0.34-0.097-0.097-0.333-0.388-0.847 0.364-0.241 0.655 0.579-0.024 0.143 0.607 0.366 0.679 0.241 0.704 0.046 0.121 0.12 0.267-0.097 0.17 0.023 0.097 0.606 0.024 0.648-0.582 0.097-0.607 0.051-0.121-0.676-0.073-0.074-0.242 0.074-0.194 0.264-0.097 0.264-0.049-0.023-0.437 0.579v0.12l-0.437 0.338-0.461 0.338-0.753-0.315 0.437-0.505 0.364-0.75-0.073-0.023-0.558-0.167-0.486-0.292-0.073-0.143-0.291-0.287-0.267 0.241z"></path>
</svg>
