<!-- Generated by IcoMoon.io -->
<svg version="1.1" xmlns="http://www.w3.org/2000/svg" width="32" height="32" viewBox="0 0 32 32">
<path d="M0.934 12.784l-0.036 0.037c0-0.018 0.036-0.037 0.036-0.037zM25.23 3.124c-0.051-0.051-0.048-0.065 0.046-0.018l0.036 0.037s-0.031-0.009-0.082-0.018zM17.258 0.249l0.036-0.037c0.072 0.023 0.084 0.037 0.036 0.037h-0.072zM22.364 30.248c-0.317 0.315-0.394 0.143-0.719 0.463l-0.611 0.324-0.036 0.037c-0.169 0-0.313 0.106-0.503 0.106l0.144-0.074c-0.576 0.074-0.652 0.074-1.294 0.287l0.036-0.069c-0.31 0.102-0.74 0.37-0.971 0.139l-0.216 0.074h-0.216c-0.647 0-0.573 0.056-1.186 0.176l-0.324 0.037-0.359 0.074h-0.288l-0.288 0.032-0.108-0.106c-0.439 0.065-0.359 0.199-0.791 0.25l0.108-0.069c-0.431 0.143-1.084-0.097-1.51-0.181l0.036-0.069c-0.179 0-0.36-0.074-0.539-0.074h-0.108c-0.309-0.204-0.874-0.463-1.258-0.463l-0.252-0.106c-0.271-0.134-0.611-0.287-0.827-0.5l-0.108 0.069-0.288-0.143c-0.042-0.042-0.101-0.065-0.144-0.106l-0.072-0.069h-0.054c-0.039 0-0.090-0.074-0.090-0.074h0.072c0.054-0.051-0.783-0.116-0.647-0.069l-0.431-0.143c-0.162-0.056-0.338-0.102-0.503-0.143l-0.431-0.287c-0.269-0.264-0.623-0.44-0.899-0.713 0 0-0.077-0.042-0.108-0.069l-0.108-0.106c-1.103-1.097-2.363-2.074-3.416-3.217l0.144 0.074-0.252-0.25c0-0.079-0.144-0.181-0.144-0.181-0.005-0.009 0-0.037 0-0.037-0.049-0.194-0.147-0.199-0.252-0.356l0.072 0.037c-0.508-0.505-1.115-1.801-1.115-2.18 0 0-0.036-0.046-0.036-0.069l-0.431-1.287 0.108 0.176c-0.188-0.37-0.088-0.759-0.216-1.139v0.356c0-0.301-0.108-0.592-0.108-0.893 0-0.069 0.108 0.245 0.108 0.176v-0.657c0-0.106-0.288-0.426-0.288-0.375-0.369-0.736-0.358-1.532-0.611-2.287v-0.25c0-0.051-0.036-0.093-0.036-0.143v-0.213c0-0.722 0.54-3.481 0.54-1.43 0.146-0.583 0.059-0.546 0.179-1.143l0.108-0.069c0-0.088 0.032-0.171 0.065-0.255l0.013-0.032c0.034-0.083 0.065-0.162 0.065-0.25v-0.037l-0.036 0.037c0.043-0.509-0.019-0.611 0.072-1.106v0.032c0.024-0.046 0.036-0.093 0.036-0.139v-0.25l0.036-0.074v-0.106c0.052 0 0.036-0.037 0.036-0.069l0.036-0.037-0.036 0.143-0.036 0.213c0.189 0 0.611-1.583 0.611-1.93l0.036 0.037c0.122-0.194 0.422-0.741 0.611-0.926l-0.036 0.069c0.077-0.074 0.072-0.125 0.18-0.181l0.072-0.106c0-0.037 0.036-0.106 0.036-0.106l0.252-0.25c0.096-0.236 0.179-0.75 0.179-0.75 0.267-0.796 1.043-1.213 1.618-1.787l0.108-0.213 0.288-0.287c-0.105 0.069 0.503-0.944 0.503-0.963l0.216-0.213c-0.185 0.227 0.425-0.412 0.647-0.611l0.108-0.032 0.108-0.106 0.072-0.037c0.19-0.375 0.974-0.287 1.259-0.574l-0.216 0.074c0.495-0.167 0.818-0.583 1.295-0.787l0.072 0.106c0.158 0 0.363-0.213 0.503-0.282l0.072-0.037c0.073-0.074-0.027-0.106 0.072-0.106l0.108-0.074-0.288 0.106-0.36 0.25c0.154-0.12 0.051-0.282 0.252-0.282 0 0 0.045-0.037 0.072-0.037h0.072c0-0.023 0.006-0.037 0.018-0.037h0.090c0.175 0 0.489-0.065 0.647-0.106l0.431-0.143c0.138 0 0.259-0.069 0.396-0.069h0.324c0.038-0.037 0.144-0.018 0.144-0.074h-0.18c0.422 0 1.259-0.143 1.259-0.143 0.027 0 0.072-0.032 0.072-0.032h0.216s0.008 0.028 0 0.032l-0.072 0.037-0.036 0.037h-0.072c0.017 0 0.036 0.037 0.036 0.037s0.045-0.037 0.072-0.037c0 0 0.441-0.407 0.719-0.5l-0.144 0.037c0.094-0.093 0.174-0.125 0.288-0.181l-0.18 0.106c0.225-0.111 0.616-0.319 0.863-0.319l0.072 0.032h0.144c-0.017 0-0.372 0.019-0.036 0.074 0.188 0 0.139 0.032 0.36 0.106 0.523 0 0.74-0.153 1.043 0h0.719c-0.428 0 0.418 0.023 0.467 0.037h-0.216c-0.087 0 0.13 0.13 0.216 0.143 0.184-0.023 0.087-0.111 0.306-0.111h0.647c0.325 0 0.692 0.227 0.989 0.324 0.683-0.171 0.655-0.148 1.69 0.106l-0.108 0.069c0.209 0 0.359 0.181 0.539 0.181l-0.215-0.143c0.37 0.093 0.815 0.417 1.151 0.606-0.61-0.301 0.084 0.181 0.288 0.181l0.072 0.069c-0.425 0 0.644 0.555 0.971 0.824l0.108 0.106 0.108 0.074c0.112 0.051 0.242 0.102 0.36 0.139l0.359 0.106c0.193 0.079 0.549 0.162 0.71 0.199 0.143 0.143 0.717 0.583 0.909 0.801 0.247 0.287 0.419 0.629 0.647 0.93l-0.179-0.106c0.033 0.032 0.091 0.079 0.133 0.111-0.015-0.009-0.031-0.005-0.061-0.005l0.216 0.181c0.013 0 0.323 0.069 0.611 0.356l0.108 0.069 0.108 0.106 0.072 0.111-0.072-0.037c0.087 0.13 0.118 0.153 0.216 0.25l0.144 0.213c-0.301-0.296 0.464 0.708 0.683 1.074 0.292 0.481 0.72 1.463 1.295 1.75 0.131 0.259 0.539 0.916 0.539 1.787l0.108 0.032-0.108 0.25 0.036 0.287c0.207 0.102 0.154 0.111 0.252 0.287l-0.036-0.037c0 0.116 0.629 1.088 0.288 0.75l0.144 0.213h-0.036c0.040 0.12 0.108 0.356 0.108 0.356l0.144 0.43-0.036-0.037 0.288 1.111-0.323 1.606v0.069h0.036l0.072 0.213c0.112 0 0.145-0.065 0.288 0.287 0.042 0.208-0.047 0.435 0 0.643l0.108 0.319 0.072 0.111-0.036 0.139v0.074h-0.036c-0.027 0.056-0.036 0.176-0.036 0.176-0.183-0.181-0.129 0.5-0.18 0.755l0.036-0.074c-0.062 0.87-0.283 0.764-0.431 1.574v0.389l-0.072 0.074v0.143c0 0.38-0.233 0.676-0.324 1.037l-0.108 0.282-0.072 0.287c-0.334 0.472-0.6 0.935-0.899 1.43l-0.467 0.463c-0.115 0.111-0.24 0.218-0.359 0.324 0 0 0.001 0 0-0.005h-0.001c-0.018 0.018-0.020 0.018-0.037 0.037-0.012 0.014-0.023 0.023-0.035 0.037-0.459 0.305-0.694 0.889-0.863 1.393l-0.108 0.176-0.108 0.218c-0.141 0.139-0.409 0.301-0.608 0.38 0.009-0.009 0.020-0.017 0.032-0.023l0.001-0-0.072 0.032c0.013 0 0.026-0.009 0.039-0.009-1.365 0.907-2.127 1.629-3.167 2.833-0.024 0.024-0.055 0.042-0.089 0.051l-0.001 0-0.090 0.018c0.027 0 0.059-0.005 0.090-0.018l0.090-0.014 0.252-0.287 0.036-0.037c0.027-0.051 0.108-0.143 0.108-0.143 0.073-0.069-0.062 0.199-0.108 0.287l-0.18 0.181c-0.024 0.023-0.036 0.046-0.036 0.069h-0.144c-0.125 0.065-0.405 0.143-0.539 0.143l0.036-0.037h-0.036c-0.081 0.028-0.899 0.218-0.899 0.356h-0.072v-0.032l-0.036-0.037s-0.082 0.023-0.108 0h0.036l0.036-0.037 0.54-0.176c-0.186 0-0.54 0.143-0.54 0.143l-0.072 0.069zM29.016 24.68c-0.001 0.005-0.001 0.009-0.003 0.009-0.003 0.009-0.006 0.018-0.013 0.023-0.015 0.018-0.036 0.028-0.056 0.037l0.071-0.069zM28.945 24.749c-0.014 0.011-0.026 0.023-0.037 0.037l-0 0 0.036-0.037h0.001zM26.739 4.859c0.013 0 0.026 0.009 0.047 0.032l-0.047-0.032zM16.011 13.872c-0.911 0-1.76 0.176-2.549 0.523-0.802 0.353-1.488 0.82-2.072 1.39l0.001-0.001c-0.591 0.579-1.062 1.268-1.411 2.069-0.334 0.782-0.5 1.62-0.5 2.509 0 0.903 0.167 1.745 0.5 2.532 0.357 0.797 0.831 1.478 1.411 2.055l-0-0c0.579 0.573 1.266 1.039 2.029 1.363l0.042 0.016c0.789 0.347 1.638 0.518 2.549 0.518 0.895 0 1.737-0.171 2.526-0.518 0.804-0.333 1.498-0.792 2.082-1.379 0.573-0.578 1.044-1.259 1.382-2.012l0.017-0.043c0.349-0.787 0.523-1.629 0.523-2.532 0-0.889-0.174-1.727-0.523-2.509-0.349-0.801-0.815-1.49-1.399-2.069s-1.278-1.041-2.082-1.389c-0.789-0.347-1.631-0.523-2.526-0.523zM16.011 15.524c-0.971 0-1.885 0.176-2.742 0.532-0.857 0.352-1.612 0.829-2.264 1.435 0.501-0.861 1.191-1.555 2.071-2.078 0.88-0.532 1.858-0.792 2.935-0.792 1.062 0 2.036 0.259 2.924 0.792 0.887 0.523 1.582 1.217 2.082 2.078-0.645-0.587-1.398-1.070-2.224-1.416l-0.051-0.019c-0.849-0.356-1.76-0.532-2.73-0.532zM9.344 11.409c-0.015 0.032-0.034 0.060-0.057 0.093-0.021 0.027-0.048 0.049-0.078 0.064l-0.001 0.001c-0.015 0.032-0.034 0.060-0.057 0.083l0-0-0.080 0.079c-0.106 0.088-0.227 0.176-0.364 0.259s-0.281 0.143-0.432 0.19c0.137 0.093 0.266 0.185 0.387 0.282s0.227 0.208 0.319 0.329c0.015 0.032 0.034 0.056 0.057 0.079s0.041 0.051 0.057 0.079l0.091 0.181c0.030 0.060 0.053 0.125 0.069 0.194 0.015 0.065 0.022 0.13 0.022 0.19v0.204c0 0.060-0.007 0.12-0.022 0.181 0 0.003 0 0.006 0 0.009 0 0.071-0.017 0.138-0.047 0.197l0.001-0.003c-0.030 0.060-0.061 0.13-0.091 0.204-0.071 0.137-0.151 0.256-0.242 0.364l0.003-0.003c-0.099 0.12-0.209 0.236-0.33 0.343 0.076 0.014 0.152 0.032 0.227 0.056s0.152 0.046 0.228 0.079c0.075 0.014 0.148 0.037 0.216 0.069 0.069 0.028 0.133 0.065 0.193 0.111 0.061 0.028 0.118 0.069 0.171 0.111 0.053 0.046 0.102 0.093 0.148 0.139 0.046 0.042 0.087 0.088 0.125 0.134s0.072 0.097 0.102 0.157c0.106-0.148 0.224-0.292 0.353-0.43 0.129-0.134 0.254-0.268 0.376-0.407-0.106-0.255-0.193-0.518-0.262-0.787-0.060-0.226-0.112-0.503-0.145-0.785l-0.003-0.030c0-0.093-0.004-0.181-0.011-0.273-0.007-0.073-0.011-0.159-0.012-0.245v-0l0.023-0.546 0.068-0.518c0.015-0.093 0.034-0.176 0.057-0.259s0.049-0.171 0.080-0.259c0.091-0.333 0.216-0.657 0.376-0.972 0.159-0.319 0.345-0.62 0.557-0.907 0.213-0.268 0.448-0.523 0.706-0.768 0.258-0.241 0.539-0.458 0.842-0.653 0.303-0.181 0.618-0.338 0.944-0.463 0.326-0.13 0.664-0.231 1.013-0.306 0.349-0.060 0.701-0.097 1.058-0.102 0.356-0.009 0.709 0.028 1.058 0.102 0.349 0.060 0.69 0.153 1.024 0.282s0.652 0.282 0.956 0.463c0.288 0.181 0.565 0.393 0.83 0.634s0.505 0.495 0.717 0.768c0.228 0.282 0.421 0.588 0.58 0.903s0.285 0.639 0.376 0.972c0.106 0.347 0.174 0.694 0.205 1.041 0.031 0.343 0.031 0.699 0 1.060-0.015 0.287-0.061 0.569-0.137 0.847s-0.167 0.546-0.273 0.801c0.137 0.139 0.265 0.273 0.387 0.407 0.121 0.139 0.235 0.282 0.341 0.43 0.015 0 0.023-0.005 0.023-0.009v-0.037c0.030-0.060 0.064-0.116 0.103-0.167 0.038-0.056 0.080-0.102 0.125-0.148s0.095-0.088 0.148-0.134c0.053-0.046 0.11-0.083 0.171-0.116 0.121-0.074 0.258-0.139 0.41-0.19 0.151-0.056 0.303-0.097 0.455-0.125-0.121-0.106-0.231-0.218-0.33-0.338-0.088-0.105-0.167-0.224-0.233-0.35l-0.005-0.011c-0.076-0.139-0.129-0.268-0.159-0.398-0.019-0.079-0.030-0.169-0.030-0.262 0-0.046 0.003-0.092 0.008-0.137l-0.001 0.005c0.015-0.12 0.049-0.245 0.103-0.375s0.125-0.245 0.216-0.352c0.090-0.117 0.187-0.22 0.293-0.313l0.002-0.002c0.122-0.106 0.25-0.204 0.387-0.292-0.151-0.046-0.295-0.111-0.432-0.194-0.138-0.085-0.257-0.17-0.369-0.263l0.005 0.004c-0.061-0.046-0.11-0.093-0.148-0.148-0.040-0.055-0.082-0.103-0.126-0.149l0 0-0.091-0.181c-0.027-0.052-0.050-0.112-0.067-0.175l-0.001-0.006c-0.028-0.060-0.045-0.13-0.046-0.203v-0.181c0-0.074 0.004-0.143 0.011-0.213s0.027-0.134 0.057-0.194c0.015-0.074 0.038-0.143 0.069-0.213s0.061-0.13 0.091-0.19c0.030-0.079 0.069-0.148 0.114-0.218s0.091-0.13 0.137-0.19c-0.076 0-0.155-0.005-0.239-0.014-0.083-0.005-0.163-0.009-0.239-0.009-0.084-0.017-0.157-0.038-0.227-0.064l0.011 0.003c-0.068-0.018-0.14-0.037-0.216-0.056l-0.182-0.088c-0.070-0.037-0.129-0.075-0.185-0.118l0.003 0.002c-0.056-0.035-0.104-0.072-0.149-0.112l0.001 0.001c-0.053-0.046-0.095-0.093-0.125-0.134-0.041-0.052-0.078-0.112-0.111-0.174l-0.003-0.007-0.091-0.181c-0.015-0.060-0.031-0.125-0.046-0.194-0.014-0.057-0.022-0.122-0.023-0.189v-0c-0.007-0.068-0.011-0.147-0.011-0.227s0.004-0.159 0.012-0.237l-0.001 0.010c0.015-0.153 0.046-0.31 0.091-0.477-0.303 0.139-0.599 0.204-0.887 0.204s-0.546-0.065-0.774-0.204c-0.065-0.031-0.121-0.068-0.171-0.112l0.001 0.001c-0.053-0.046-0.095-0.093-0.125-0.134-0.045-0.046-0.087-0.102-0.125-0.157-0.028-0.045-0.062-0.106-0.094-0.167l-0.008-0.018c-0.075-0.12-0.134-0.259-0.169-0.407l-0.002-0.009c-0.035-0.139-0.056-0.298-0.057-0.462v-0c-0.122 0.106-0.25 0.204-0.387 0.292-0.137 0.093-0.266 0.162-0.387 0.204-0.116 0.055-0.25 0.096-0.391 0.115l-0.007 0.001c-0.129 0.014-0.262 0.005-0.398-0.023-0.14-0.014-0.268-0.059-0.379-0.127l0.004 0.002c-0.114-0.069-0.224-0.148-0.33-0.236-0.106-0.093-0.205-0.199-0.296-0.329-0.084-0.119-0.167-0.255-0.241-0.397l-0.009-0.020c-0.061 0.148-0.137 0.287-0.227 0.417-0.088 0.124-0.185 0.232-0.294 0.327l-0.002 0.002c-0.106 0.088-0.216 0.171-0.33 0.25-0.114 0.074-0.239 0.12-0.376 0.134-0.076 0.014-0.144 0.023-0.205 0.023h-0.205c-0.061-0.019-0.125-0.032-0.193-0.046-0.073-0.015-0.138-0.039-0.197-0.071l0.004 0.002c-0.157-0.068-0.287-0.136-0.412-0.212l0.014 0.008c-0.143-0.085-0.266-0.181-0.375-0.291l-0-0c0 0.074-0.007 0.153-0.023 0.236s-0.030 0.157-0.045 0.218l-0.080 0.236c-0.023 0.065-0.049 0.13-0.080 0.19-0.030 0.079-0.065 0.139-0.103 0.194-0.038 0.051-0.080 0.102-0.125 0.148-0.031 0.060-0.072 0.111-0.125 0.157s-0.11 0.083-0.171 0.111c-0.218 0.128-0.48 0.204-0.76 0.204-0.005 0-0.009-0-0.014-0h0.001c-0.137-0.014-0.281-0.032-0.432-0.056-0.171-0.029-0.323-0.080-0.464-0.152l0.009 0.004c0.046 0.167 0.076 0.324 0.091 0.477 0.015 0.148 0.022 0.301 0.022 0.449-0.015 0.139-0.045 0.264-0.091 0.384s-0.106 0.241-0.182 0.361c-0.031 0.046-0.072 0.093-0.125 0.139s-0.11 0.088-0.171 0.134c-0.046 0.032-0.099 0.065-0.159 0.102s-0.121 0.065-0.182 0.079c-0.075 0.032-0.148 0.056-0.216 0.069s-0.148 0.028-0.239 0.046c-0.076 0.014-0.152 0.023-0.228 0.032-0.075 0.005-0.151 0.009-0.227 0.009 0.106 0.12 0.193 0.25 0.262 0.384 0.068 0.139 0.125 0.273 0.171 0.407 0.015 0.074 0.030 0.148 0.046 0.218 0.015 0.065 0.022 0.13 0.022 0.19 0 0.074-0.004 0.143-0.011 0.204s-0.019 0.13-0.034 0.204c-0.015 0.060-0.038 0.12-0.069 0.181s-0.061 0.111-0.091 0.157z"></path>
</svg>
