<!-- Generated by IcoMoon.io -->
<svg version="1.1" xmlns="http://www.w3.org/2000/svg" width="39" height="32" viewBox="0 0 39 32">
<path d="M1.184 29.786c-0.045-0.118-0.055-0.538-0.023-0.934l0.059-0.72h36.794v1.868h-10.646c-8.33 0-10.737-0.052-11.066-0.24-0.26-0.148-0.42-0.166-0.42-0.047 0 0.127-1.354 0.193-3.957 0.193-3.689 0-3.984-0.025-4.351-0.37-0.393-0.369-0.396-0.369-1.104 0.010-0.586 0.314-1.1 0.387-2.957 0.417-1.546 0.025-2.273-0.030-2.329-0.177zM2.94 27.339c-0.042-0.077-0.060-0.476-0.040-0.887l0.037-0.747 2.13-0.055c1.864-0.048 2.238-0.004 2.999 0.35l0.869 0.405 1.175-0.397c0.887-0.3 1.632-0.397 3.039-0.397h1.864l-0.441 0.469c-0.291 0.309-0.378 0.532-0.256 0.654s0.401-0.038 0.819-0.469l0.634-0.654h20.679l-0.114 1.774-13.634 0.1-1.717-0.932-0.87 0.926h-8.548c-4.701 0-8.582-0.063-8.625-0.14zM5.514 23.561c0.052-0.721 0.139-1.909 0.192-2.639s0.217-1.499 0.364-1.709c0.225-0.321 0.228-0.46 0.021-0.868-0.22-0.433-0.125-3.713 0.256-8.844 0.024-0.32 1-0.113 1.319 0.28l0.341 0.42 0.448-0.42c0.378-0.354 0.656-0.42 1.773-0.42h1.325l0.133 1.592c0.073 0.876 0.081 1.849 0.018 2.163s-0.042 0.711 0.047 0.883c0.089 0.171 0.22 1.59 0.292 3.152l0.131 2.84-0.667 0.279c-0.367 0.153-0.666 0.346-0.664 0.428 0.003 0.156 0.615 1.196 1.148 1.951 0.171 0.242 0.339 0.818 0.374 1.281l0.063 0.84-7.007 0.102 0.095-1.312zM16.708 22.3c0.073-1.41 0.221-2.67 0.328-2.8 0.113-0.137 0.142-0.519 0.069-0.91-0.153-0.817 0.079-6.676 0.278-6.997 0.209-0.337 2.632 0.343 2.744 0.77 0.068 0.258 0.174 0.283 0.58 0.135 0.351-0.128 0.715-0.107 1.234 0.069 0.926 0.315 0.97 0.477 1.181 4.359 0.138 2.529 0.121 3.039-0.112 3.315-0.244 0.29-0.23 0.483 0.127 1.712 0.221 0.762 0.402 1.728 0.402 2.148v0.763h-6.965zM26.668 23.85c-0.679-0.978-0.874-1.659-0.536-1.868 0.134-0.083 6.482 0.945 8.007 1.297 0.584 0.135 0.56 0.889-0.040 1.282-0.561 0.367-3.077 0.424-3.424 0.077-0.174-0.174-0.224-0.174-0.224 0 0 0.156-0.466 0.223-1.541 0.222l-1.541-0.002-0.7-1.009zM5.469 7.812c-0.547-0.545-0.794-0.95-0.794-1.301v-0.51h8.591v0.427c0 0.263-0.344 0.766-0.894 1.307-0.81 0.798-0.976 0.88-1.774 0.88-0.695 0-0.881-0.065-0.881-0.309 0-0.288-0.024-0.288-0.342 0-0.255 0.231-0.694 0.308-1.728 0.303-1.377-0.006-1.391-0.011-2.18-0.797z"></path>
</svg>
