<!-- Generated by IcoMoon.io -->
<svg version="1.1" xmlns="http://www.w3.org/2000/svg" width="32" height="32" viewBox="0 0 32 32">
<path d="M5.489 29.589c-1.196-0.941-1.261-2.614-0.145-3.684 0.507-0.486 0.827-0.612 1.553-0.612s1.046 0.126 1.553 0.612c1.613 1.545 0.646 4.095-1.553 4.095-0.563 0-1.075-0.15-1.408-0.411zM7.83 28.496c0.235-0.252 0.427-0.661 0.427-0.909 0-0.602-0.646-1.181-1.044-0.936-0.188 0.116-0.412 0.095-0.594-0.056-0.231-0.191-0.376-0.14-0.687 0.244-0.494 0.611-0.507 1.256-0.028 1.404 0.201 0.062 0.601 0.245 0.889 0.406s0.543 0.295 0.567 0.298c0.024 0.003 0.236-0.2 0.471-0.452zM23.48 29.589c-1.196-0.941-1.262-2.614-0.145-3.684 0.507-0.486 0.827-0.612 1.553-0.612s1.046 0.126 1.553 0.612c1.613 1.545 0.646 4.095-1.553 4.095-0.563 0-1.075-0.15-1.408-0.411zM25.843 28.623c0.215-0.259 0.221-0.417 0.026-0.729-0.137-0.219-0.249-0.629-0.249-0.91 0-0.672-0.685-0.896-1.37-0.448-0.552 0.361-0.656 0.662-0.275 0.789 0.169 0.056 0.154 0.216-0.052 0.553-0.258 0.421-0.245 0.507 0.116 0.775 0.537 0.398 1.462 0.383 1.805-0.030zM10.91 29.655c-0.254-0.254-0.16-3.529 0.108-3.797 0.18-0.18 1.563-0.251 4.901-0.251 5.607 0 5.352-0.115 5.263 2.377l-0.060 1.703-5.035 0.056c-2.769 0.031-5.099-0.008-5.178-0.087zM12.325 27.681c-0.067-0.109-0.212-0.143-0.321-0.076s-0.143 0.212-0.076 0.321c0.067 0.109 0.212 0.143 0.321 0.076s0.143-0.212 0.076-0.321zM13.299 27.637c-0.268-0.268-0.541-0.061-0.342 0.261 0.077 0.125 0.236 0.167 0.353 0.095 0.143-0.088 0.139-0.205-0.011-0.356zM14.532 27.686c0-0.108-0.141-0.197-0.314-0.197-0.324 0-0.416 0.247-0.18 0.482 0.167 0.167 0.494-0.022 0.494-0.286zM15.73 27.572c-0.074-0.074-0.3-0.070-0.503 0.008-0.313 0.12-0.323 0.17-0.063 0.331 0.321 0.198 0.81-0.095 0.566-0.339zM16.947 27.894c0.193-0.312-0.031-0.481-0.431-0.327-0.185 0.071-0.277 0.224-0.206 0.34 0.17 0.274 0.463 0.269 0.637-0.012zM18.184 27.922c0.155-0.25-0.239-0.498-0.517-0.326-0.234 0.145-0.080 0.521 0.213 0.521 0.101 0 0.239-0.088 0.305-0.195zM19.344 27.803c0-0.173-0.141-0.314-0.314-0.314-0.327 0-0.415 0.247-0.174 0.488s0.488 0.152 0.488-0.174zM14.476 26.945c-0.069-0.070-0.25-0.077-0.401-0.017-0.167 0.067-0.117 0.116 0.126 0.126 0.221 0.009 0.344-0.040 0.275-0.11zM15.731 26.945c-0.069-0.070-0.25-0.077-0.401-0.017-0.167 0.067-0.117 0.116 0.126 0.126 0.221 0.009 0.344-0.040 0.275-0.11zM16.986 26.945c-0.070-0.070-0.25-0.077-0.401-0.017-0.167 0.067-0.117 0.116 0.126 0.126 0.221 0.009 0.344-0.040 0.275-0.11zM19.287 26.945c-0.070-0.070-0.25-0.077-0.401-0.017-0.167 0.067-0.117 0.116 0.126 0.126 0.221 0.009 0.344-0.040 0.275-0.11zM1.98 24.77c0-0.279 0.139-0.418 0.418-0.418s0.418 0.139 0.418 0.418c0 0.279-0.139 0.418-0.418 0.418s-0.418-0.139-0.418-0.418zM28.706 24.927c-0.156-0.424 0.058-0.785 0.465-0.785s0.627 0.361 0.48 0.785c-0.050 0.144-0.262 0.261-0.47 0.261s-0.422-0.118-0.475-0.261zM3.916 23.376c-0.204-0.082-0.261-2.147-0.258-9.345 0.002-5.082 0.078-9.358 0.17-9.503 0.132-0.208 2.73-0.252 12.287-0.209l12.12 0.054 0.054 9.4c0.043 7.381-0.002 9.436-0.209 9.568-0.282 0.179-23.724 0.213-24.165 0.035zM6.478 22.050c0.071-0.115-0.111-0.301-0.406-0.413s-0.536-0.347-0.536-0.523c0-0.175-0.141-0.319-0.314-0.319-0.219 0-0.314 0.221-0.314 0.732 0 0.695 0.037 0.732 0.72 0.732 0.396 0 0.778-0.094 0.849-0.21zM14.742 21.737c0.109-0.288 0.342-0.523 0.518-0.523 0.209 0 0.318-0.198 0.316-0.575-0.004-0.742-0.162-0.964-0.991-1.388-0.374-0.192-0.68-0.431-0.68-0.532s0.329-0.378 0.732-0.615c0.403-0.238 0.732-0.58 0.732-0.761s0.205-0.607 0.457-0.947l0.457-0.617-0.457-0.486c-0.251-0.267-0.457-0.739-0.457-1.048 0-0.546-0.034-0.562-1.239-0.562h-1.239l-0.583 1.151c-0.557 1.1-1.113 1.464-1.437 0.941-0.252-0.408-0.704-0.199-1.158 0.534-0.331 0.535-0.584 0.726-0.905 0.68-0.454-0.065-0.457-0.073-0.89-2.863-0.082-0.526-0.17-0.646-0.346-0.471-0.13 0.13-0.782 0.236-1.45 0.236h-1.213v3.145c0 3.069 0.011 3.149 0.471 3.324 0.322 0.123 0.575 0.087 0.801-0.112 0.513-0.452 0.668-0.064 0.181 0.454l-0.433 0.461 0.641 0.223c0.352 0.123 0.641 0.369 0.641 0.548 0 0.281 0.492 0.325 3.666 0.325h3.666zM27.084 20.474c0-1.745-0.010-1.78-0.436-1.552-0.528 0.282-0.864 0.045-0.346-0.245 0.2-0.112 0.364-0.382 0.364-0.6s0.094-0.454 0.209-0.525c0.115-0.071 0.209-0.642 0.209-1.268 0-1.126-0.007-1.138-0.63-1.138-0.567 0-0.697 0.136-1.304 1.368-0.851 1.726-1.259 1.745-2.070 0.096-0.311-0.633-0.649-1.377-0.752-1.654-0.185-0.5-0.189-0.499-0.637 0.261-0.725 1.228-1.544 0.985-1.83-0.543-0.139-0.746-0.186-0.784-0.955-0.784-0.638 0-0.876-0.11-1.127-0.523-0.175-0.288-0.478-0.782-0.674-1.098l-0.355-0.575-0.175 0.832c-0.096 0.458-0.313 0.91-0.482 1.004-0.443 0.248-0.377 0.991 0.137 1.538 0.483 0.514 0.433 1.262-0.12 1.816-0.167 0.167-0.368 0.562-0.448 0.879s-0.319 0.621-0.533 0.677c-0.458 0.12-0.523 0.471-0.087 0.471 0.166 0 0.446 0.206 0.622 0.457 0.289 0.413 0.371 0.43 0.848 0.174 0.785-0.42 0.843-0.14 0.12 0.583-0.35 0.35-0.637 0.794-0.637 0.986s-0.188 0.399-0.418 0.459c-0.23 0.060-0.418 0.24-0.418 0.399 0 0.24 1.025 0.289 5.962 0.289h5.962zM24.475 14.997c0.404-0.967 0.609-1.098 1.721-1.102l0.889-0.003v-2.615c0-2.379-0.034-2.615-0.377-2.615-0.207 0-0.489-0.113-0.627-0.25-0.292-0.292-0.752 0.18-1.122 1.15-0.251 0.657-0.856 0.698-0.978 0.067-0.044-0.23 0.014-0.333 0.143-0.254 0.282 0.174 1.287-1.3 1.287-1.886 0-0.247-0.14-0.565-0.311-0.707s-0.257-0.347-0.191-0.454c0.178-0.288 0.681 0.201 1.149 1.118 0.661 1.295 1.026 1.058 1.026-0.666v-1.464h-8.577c-8.438 0-8.577 0.007-8.577 0.418 0 0.23 0.109 0.418 0.242 0.418 0.378 0 1.641 1.035 1.641 1.345 0 0.153-0.141 0.395-0.314 0.538-0.449 0.372-0.389 0.609 0.209 0.837 0.288 0.109 0.523 0.359 0.523 0.554 0 0.578 0.645 1.12 1.34 1.125 0.356 0.003 0.883 0.187 1.171 0.409 0.447 0.345 0.486 0.464 0.271 0.814-0.203 0.329-0.194 0.431 0.045 0.523 0.211 0.081 0.336-0.11 0.432-0.661 0.389-2.217 0.398-2.239 0.935-2.239 0.421 0 0.675 0.284 1.404 1.569 0.489 0.863 0.991 1.603 1.114 1.644s0.409-0.124 0.635-0.366c0.46-0.494 0.445-0.489 0.901-0.314 0.21 0.081 0.331 0.381 0.331 0.824 0 0.853 0.312 1.095 0.671 0.521 0.581-0.93 1.584-0.367 2.038 1.143 0.402 1.339 0.411 1.36 0.524 1.36 0.060 0 0.254-0.35 0.433-0.777zM9.819 14.191c0.371-0.243 0.606-0.273 0.902-0.114 0.421 0.225 0.883-0.037 0.883-0.501 0-0.598 0.862-1.148 1.799-1.148 0.604 0 0.897-0.079 0.811-0.218-0.074-0.12-0.015-0.363 0.131-0.539 0.322-0.388-0.043-0.699-0.825-0.704-0.68-0.004-1.706-0.648-1.706-1.070 0-0.192-0.235-0.503-0.523-0.692-0.599-0.392-0.667-0.873-0.197-1.392 0.298-0.33 0.277-0.394-0.261-0.767-0.323-0.224-0.745-0.464-0.937-0.533s-0.381-0.343-0.418-0.609c-0.066-0.467-0.147-0.486-2.317-0.543l-2.249-0.059v7.336h0.9c0.861 0 0.92-0.041 1.364-0.955 0.371-0.764 0.557-0.942 0.93-0.889 0.413 0.059 0.5 0.274 0.768 1.897 0.166 1.007 0.335 1.83 0.375 1.83s0.298-0.148 0.574-0.329zM2.397 2.698c-0.198-0.238-0.21-0.393-0.045-0.558 0.317-0.317 0.929-0.039 0.847 0.385-0.094 0.484-0.475 0.567-0.802 0.173zM28.625 2.701c-0.072-0.189-0.031-0.444 0.091-0.566 0.319-0.319 0.923-0.027 0.839 0.405-0.093 0.482-0.763 0.598-0.931 0.161z"></path>
</svg>
