<!-- Generated by IcoMoon.io -->
<svg version="1.1" xmlns="http://www.w3.org/2000/svg" width="31" height="32" viewBox="0 0 31 32">
<path d="M14.378 30.964c-3.28-0.497-3.62-0.598-4.604-1.364-1.271-0.991-1.447-1.468-1.58-4.298-0.126-2.679-0.453-3.568-2.125-5.772-4.328-5.706-2.322-14.267 4.051-17.289 2.058-0.976 4.099-1.43 4.591-1.021 0.187 0.155 0.286 0.371 0.219 0.479-0.228 0.369 0.366 1.111 0.889 1.111 0.759 0 0.843 0.192 0.472 1.079-0.386 0.924-0.248 1.183 0.926 1.74 0.767 0.364 1.050 1.063 0.555 1.368-0.388 0.24-0.248 0.949 0.253 1.281l0.479 0.318-0.705 1.112c-0.388 0.612-0.705 1.405-0.705 1.763 0 0.542-0.083 0.638-0.501 0.578-0.365-0.053-0.543-0.281-0.658-0.844-0.086-0.424-0.319-0.862-0.518-0.973s-0.361-0.337-0.361-0.502c0-0.165-0.153-0.427-0.34-0.582-0.235-0.195-0.34-0.203-0.34-0.028 0 0.14 0.102 0.254 0.226 0.254s0.226 0.179 0.226 0.398c0 0.219 0.204 0.525 0.453 0.681 0.283 0.177 0.453 0.528 0.453 0.938 0 0.517 0.136 0.702 0.646 0.88 0.516 0.18 0.675 0.401 0.788 1.097 0.078 0.48 0.206 1.147 0.284 1.484 0.12 0.519 0.056 0.634-0.422 0.754-0.807 0.203-1.391 1.585-1.185 2.806 0.113 0.667 0.062 1.083-0.178 1.449-0.185 0.282-0.445 1.211-0.578 2.066s-0.355 1.664-0.493 1.8c-0.385 0.379-0.9-0.476-0.9-1.494 0-0.474-0.102-0.862-0.226-0.862s-0.226 0.446-0.226 0.991c0 1.085-0.416 1.672-0.866 1.222-0.146-0.146-0.266-0.704-0.266-1.24s-0.102-0.973-0.226-0.973c-0.124 0-0.226 0.446-0.226 0.991 0 1.085-0.416 1.672-0.866 1.222-0.146-0.146-0.266-0.704-0.266-1.24 0-0.814-0.072-0.973-0.441-0.973-0.416 0-0.422 0.046-0.113 0.785 0.18 0.432 0.336 1.374 0.346 2.094s0.076 1.156 0.147 0.969c0.43-1.13 1.193-0.533 1.193 0.933 0 0.607 0.102 1.104 0.226 1.104s0.226-0.497 0.226-1.104c0-1.11 0.413-1.804 0.896-1.505 0.13 0.080 0.236 0.7 0.236 1.378s0.102 1.232 0.226 1.232c0.124 0 0.226-0.439 0.226-0.975 0-2.084 1.187-2.288 1.269-0.218 0.062 1.55 0.542 1.534 0.542-0.019 0-0.699 0.115-1.321 0.261-1.412 0.42-0.259 0.871 0.595 0.871 1.649 0 0.536 0.102 0.975 0.226 0.975s0.226-0.497 0.226-1.104c0-0.64 0.126-1.209 0.3-1.353 0.488-0.405 0.832 0.162 0.832 1.37 0 0.598 0.102 1.086 0.226 1.086s0.226-0.489 0.226-1.086c0-1.486 0.698-2.182 1.125-1.12 0.16 0.397 0.208 0.229 0.219-0.765 0.008-0.701 0.169-1.643 0.357-2.094 0.328-0.784 0.323-0.82-0.113-0.82-0.395 0-0.456 0.148-0.456 1.108 0 0.732-0.106 1.148-0.312 1.227-0.522 0.2-0.82-0.332-0.82-1.463 0-0.833 0.127-1.212 0.566-1.685 0.311-0.336 0.559-0.825 0.552-1.087-0.013-0.433-0.034-0.426-0.238 0.083-0.123 0.308-0.297 0.613-0.387 0.679-0.477 0.349-0.945 1.455-0.945 2.234 0 0.994-0.432 1.551-0.866 1.117-0.146-0.146-0.266-0.704-0.266-1.24s-0.102-0.973-0.226-0.973c-0.124 0-0.226 0.363-0.226 0.807 0 1.021-0.355 1.706-0.796 1.537-0.251-0.096-0.336-0.512-0.336-1.637 0-1.232 0.103-1.659 0.562-2.334 0.531-0.781 0.544-0.87 0.231-1.619-0.284-0.68-0.287-0.879-0.017-1.397 0.469-0.903 1.387-1.314 2.137-0.956 0.718 0.343 0.959 1.299 0.327 1.299-0.228 0-0.533 0.191-0.679 0.425-0.211 0.338-0.19 0.532 0.101 0.948 0.262 0.374 0.29 0.549 0.098 0.613-0.148 0.049-0.269 0.199-0.269 0.332s0.205 0.057 0.455-0.169c0.411-0.372 0.421-0.448 0.108-0.795-0.427-0.471-0.213-1.128 0.367-1.128 0.339 0 0.428-0.166 0.428-0.792v-0.792l1.075-0.007c0.92-0.006 1.187-0.12 1.853-0.789 0.698-0.701 0.816-0.747 1.15-0.446 0.204 0.185 0.618 0.326 0.92 0.314l0.548-0.023-0.551-0.154c-0.634-0.177-1.021-1.227-0.683-1.857 0.119-0.222 0.216-0.96 0.216-1.641 0-1.149 0.045-1.253 0.627-1.456 0.544-0.19 0.739-0.122 1.471 0.511 0.652 0.564 0.844 0.897 0.844 1.466 0 0.554-0.082 0.704-0.332 0.608-0.183-0.070-0.392-0.030-0.466 0.089s0.090 0.216 0.364 0.216c0.472 0 0.491 0.069 0.36 1.302-0.076 0.716-0.31 1.803-0.519 2.415l-0.382 1.114-0.418-0.517c-0.23-0.284-0.418-0.386-0.418-0.226s0.16 0.467 0.356 0.683c0.326 0.36 0.307 0.47-0.219 1.303-0.773 1.225-1.954 2.55-2.16 2.423-0.265-0.164-0.922 3.683-0.926 5.424-0.004 1.748-0.182 2.102-1.633 3.243-0.578 0.455-1.297 0.744-2.263 0.911-1.978 0.342-3.133 0.448-3.793 0.348zM22.47 20.137c-0.218-0.159-0.41-0.533-0.427-0.83l-0.031-0.541-0.101 0.528c-0.099 0.522 0.555 1.532 0.821 1.266 0.073-0.073-0.045-0.263-0.263-0.422zM14.688 18.596c0.075-0.28 0.13-0.764 0.123-1.075-0.012-0.49-0.070-0.445-0.433 0.34-0.518 1.119-0.532 1.245-0.14 1.245 0.172 0 0.375-0.229 0.45-0.509zM23.308 17.654c-0.226-0.165-0.326-0.408-0.23-0.561 0.254-0.411-0.306-0.933-0.975-0.907l-0.595 0.023 0.565 0.157c0.358 0.1 0.607 0.365 0.679 0.724 0.129 0.641 0.751 1.407 0.873 1.074 0.044-0.12-0.099-0.349-0.318-0.509zM13.026 14.748c0.288-0.635 0.438-1.473 0.442-2.464 0.004-1.324-0.083-1.633-0.731-2.598-1.797-2.677-5.033-2.878-5.788-0.359-0.648 2.161-0.068 4.406 1.461 5.654 0.802 0.655 1.015 0.715 2.527 0.722l1.652 0.008zM25.551 12.202c-0.072-0.187-0.17-0.34-0.219-0.34s-0.089 0.153-0.089 0.34c0 0.187 0.099 0.34 0.219 0.34s0.161-0.153 0.089-0.34zM25.755 9.684c-0.437-0.543-0.541-0.572-1.211-0.338-0.403 0.14-0.751 0.229-0.774 0.198s-0.207-0.399-0.41-0.816c-0.352-0.725-0.349-0.763 0.078-0.875 0.287-0.075 0.447-0.31 0.447-0.656 0-0.32 0.133-0.539 0.328-0.539 0.181 0 0.417-0.159 0.526-0.353 0.151-0.27 0.364 0.011 0.903 1.188 1.165 2.548 1.218 3.566 0.113 2.193zM18.202 8.040c-0.474-0.384-0.482-0.437-0.137-0.931 0.464-0.662 0.23-1.14-0.876-1.792-0.85-0.501-0.867-0.579-0.429-1.987 0.132-0.423 0.043-0.526-0.597-0.692-0.602-0.156-0.782-0.339-0.9-0.918-0.141-0.691-0.116-0.723 0.559-0.72 1.476 0.005 2.388 0.278 2.744 0.82 0.269 0.41 0.296 0.648 0.112 0.991-0.203 0.38-0.153 0.492 0.322 0.708 0.31 0.141 0.608 0.421 0.661 0.621 0.065 0.245 0.106 0.202 0.124-0.129 0.017-0.31-0.143-0.548-0.427-0.638-0.349-0.111-0.421-0.271-0.314-0.697 0.081-0.321 0.014-0.704-0.159-0.912-0.271-0.326-0.227-0.329 0.484-0.026 2.291 0.974 2.39 1.056 2.294 1.882-0.052 0.448-0.217 0.773-0.392 0.773-0.166 0-0.364 0.101-0.439 0.223-0.088 0.142 0.051 0.154 0.383 0.032 0.33-0.121 0.547-0.41 0.592-0.789 0.090-0.75 0.28-0.749 1.172 0.001 0.538 0.453 0.639 0.646 0.413 0.789-0.213 0.135-0.154 0.19 0.203 0.193 0.568 0.004 1.037 0.698 0.832 1.232-0.076 0.197-0.399 0.356-0.724 0.356-0.456 0-0.527 0.060-0.315 0.272 0.405 0.405 0.329 0.811-0.181 0.973-0.691 0.219-1.415-0.085-1.261-0.53 0.113-0.326 0.089-0.323-0.178 0.020-0.46 0.59-1.276 0.518-1.281-0.113-0.002-0.28-0.097-0.657-0.211-0.837-0.136-0.216-0.166-0.020-0.087 0.57 0.114 0.85 0.078 0.918-0.682 1.28s-0.829 0.361-1.305-0.025z"></path>
</svg>
