<!-- Generated by IcoMoon.io -->
<svg version="1.1" xmlns="http://www.w3.org/2000/svg" width="32" height="32" viewBox="0 0 32 32">
<path d="M17.669 15.091c0.219-0.091 0.525-0.221 0.709-0.297 0.332 0.472 0.598 0.702 0.983 0.562 0.388-0.14 0.53-0.441 0.474-1.125 0.178-0.084 0.242-0.131 0.44-0.224-0.508-0.304-1.054-0.442-1.539-0.21-0.449 0.215-0.867 0.722-1.068 1.295zM14.958 15.082c-0.25-0.599-0.727-0.943-1.141-1.149-0.495-0.247-1.075-0.304-1.568 0.004 0.197 0.089 0.369 0.213 0.547 0.294-0.112 0.559 0.085 0.79 0.44 0.974s0.676 0.216 1.111-0.275c0.178 0.072 0.388 0.063 0.612 0.153zM17.194 17.635c-0.101 0.397-0.155 0.844-0.263 1.192-0.151 0.487-0.461 0.926-0.599 1.416-0.163 0.577-0.266 1.191-0.201 1.794 0.011 0.105 0.173 0.171 0.255 0.228 0.261 0.181 0.246 0.515 0.104 0.769-0.13 0.231-0.347 0.34-0.636 0.175-0.476-0.272-0.749-0.716-0.778-1.236-0.047-0.865 0.305-1.674 0.584-2.486 0.125-0.363 0.226-0.724 0.361-1.083-0.386 0.77-0.898 1.458-1.479 2.075-0.322 0.342-0.68 0.649-0.98 1.011-0.356 0.429-0.545 0.86-0.668 1.31-0.131 0.481-0.256 0.965-0.155 1.482 0.089 0.455 0.352 0.893 0.596 1.384 0.207 0.415 0.515 0.735 0.929 0.854 0.407 0.117 0.92 0.165 1.332-0.030 0.504-0.24 0.494-0.27 0.822 0.186 0.065-0.073 0.161-0.202 0.201-0.283 0.182-0.369 0.473-0.701 0.592-1.091 0.17-0.558 0.329-1.129 0.383-1.701s-0.072-1.158-0.102-1.738c-0.023-0.457 0.091-0.922 0.065-1.38s-0.18-0.907-0.216-1.364c-0.037-0.465-0.073-0.998-0.146-1.483zM16.38 14.665c0.197-0.472 0.336-0.966 0.639-1.327 0.311-0.371 0.754-0.601 1.166-0.877 0.376-0.252 0.753-0.453 1.166-0.595 0.412-0.142 0.828-0.348 1.288-0.334 0.562 0.018 0.94 0.361 1.228 0.699 0.292 0.343 0.493 0.761 0.386 1.317-0.083 0.435-0.235 0.886-0.431 1.292-0.109 0.227-0.44 0.331-0.587 0.539-0.235 0.334-0.235 0.736-0.14 1.146 0.139 0.599 0.351 1.174 0.526 1.76 0.176 0.589 0.311 1.184 0.551 1.749 0.239 0.561 0.545 1.082 0.876 1.607 0.233 0.37 0.395 0.79 0.666 1.136 0.27 0.345 0.625 0.625 0.893 0.971 0.428 0.555 0.651 1.193 0.716 1.904 0.063 0.693-0.207 1.3-0.595 1.839s-0.885 0.94-1.569 1.090c-0.314 0.069-0.635 0.185-0.957 0.17-0.304-0.014-0.438-0.278-0.42-0.543 0.020-0.295 0.19-0.386 0.508-0.381 0.522 0.008 0.953-0.249 1.301-0.503 0.364-0.265 0.735-0.612 0.838-1.113 0.107-0.522-0.149-1.016-0.446-1.437-0.372-0.527-0.843-0.978-1.241-1.486-0.448-0.572-0.664-1.283-0.985-1.92s-0.675-1.259-0.886-1.953c-0.245-0.808-0.426-1.635-0.674-2.442-0.089-0.29-0.343-0.41-0.621-0.284-0.436 0.197-0.526 0.31-0.439 0.777 0.153 0.822 0.474 1.616 0.591 2.443 0.081 0.572 0.099 1.151 0.151 1.725s0.138 1.148 0.151 1.725c0.014 0.576-0.13 1.147-0.164 1.724-0.044 0.721-0.037 1.448-0.18 2.155-0.123 0.612-0.427 1.149-0.966 1.512-0.653 0.439-1.557 0.344-1.995-0.232-0.169-0.223-0.059-0.46 0.133-0.645 0.185-0.179 0.44-0.272 0.654-0.083 0.294 0.261 0.465 0.275 0.754-0.002 0.346-0.33 0.512-0.748 0.556-1.201 0.082-0.84 0.215-1.685 0.195-2.527-0.015-0.637-0.063-1.274-0.102-1.911s-0.050-1.278-0.12-1.911c-0.054-0.486-0.24-0.954-0.339-1.435-0.098-0.48-0.093-0.981-0.186-1.462-0.013-0.065-0.145-0.087-0.167-0.15-0.023 0.004-0.010-0.017-0.033-0.014 0.012 0.091-0.088 0.197-0.076 0.288 0.063 0.465 0.175 0.925 0.241 1.391s0.133 0.927 0.17 1.394c0.052 0.656 0.254 1.31 0.25 1.967s-0.199 1.308-0.275 1.963c-0.059 0.513-0.070 1.032-0.224 1.513-0.154 0.479-0.369 0.953-0.697 1.369-0.113 0.143-0.223 0.309-0.359 0.431-0.426 0.383-0.71 0.203-0.988-0.26-0.354 0.082-0.74 0.328-1.090 0.353-0.551 0.040-1.055-0.082-1.487-0.294-0.434-0.213-0.828-0.542-1.101-1.033-0.316-0.568-0.428-1.194-0.547-1.807-0.118-0.61-0.29-1.24-0.149-1.888 0.096-0.443 0.379-0.808 0.618-1.172s0.496-0.722 0.787-1.054c0.519-0.594 1.069-1.164 1.554-1.785 0.201-0.258 0.318-0.589 0.456-0.893 0.082-0.18 0.061-0.362-0.148-0.472-0.176-0.093-0.394 0.011-0.508 0.191-0.179 0.283-0.361 0.563-0.534 0.849-0.329 0.542-0.683 1.073-1.082 1.56s-0.798 0.98-1.216 1.452c-0.319 0.36-0.789 0.603-1.050 1.001-0.26 0.397-0.442 0.859-0.586 1.328-0.157 0.51-0.109 1.009-0.034 1.484s0.191 0.961 0.498 1.396c0.074 0.105 0.203 0.207 0.317 0.267 0.252 0.131 0.47 0.36 0.391 0.61-0.082 0.261-0.464 0.498-0.732 0.384-0.254-0.108-0.439-0.388-0.6-0.602-0.329-0.436-0.597-0.85-0.746-1.311-0.159-0.491-0.277-0.989-0.237-1.505 0.037-0.484 0.208-0.97 0.414-1.472 0.194-0.471 0.343-0.973 0.631-1.383s0.748-0.692 1.082-1.069c0.408-0.46 0.713-1.006 1.097-1.484s0.719-0.974 1.024-1.513c0.027-0.049 0.124-0.057 0.15-0.107 0.095-0.18 0.1-0.377-0.076-0.474-0.186-0.103-0.37 0.033-0.461 0.196-0.131 0.237-0.208 0.504-0.343 0.739-0.247 0.428-0.624 0.721-0.975 1.036s-0.681 0.662-1.123 0.878c-0.485 0.237-0.993 0.436-1.422 0.748s-0.8 0.707-1.146 1.129c-0.307 0.374-0.51 0.809-0.732 1.227s-0.381 0.838-0.445 1.328c-0.042 0.319 0.033 0.636 0.117 0.952 0.093 0.353 0.272 0.647 0.623 0.754 0.322 0.098 0.549 0.275 0.46 0.573-0.087 0.293-0.411 0.326-0.722 0.232-0.891-0.27-1.401-0.825-1.564-1.707-0.147-0.792 0.047-1.552 0.383-2.261 0.27-0.568 0.66-1.037 1.028-1.509 0.377-0.485 0.801-0.896 1.284-1.275 0.47-0.369 0.887-0.862 1.461-1.126 0.777-0.358 1.525-0.71 1.946-1.468 0.323-0.581 0.268-1.24-0.172-1.736-0.428-0.483-0.732-0.991-0.909-1.62-0.197-0.7-0.218-1.332 0.139-1.75s1.004-0.666 1.729-0.571c0.58 0.076 1.055 0.383 1.528 0.613 0.499 0.242 1.036 0.43 1.421 0.832 0.364 0.381 0.555 0.919 0.821 1.434 0.029 0.056 0.19 0.123 0.241 0.227z"></path>
<path d="M1.176 17.056c0.39-0.539 0.869-0.974 1.193-1.482 0.205-0.321 0.464-0.327 0.833-0.378 0.531-0.073 0.99-0.381 1.462-0.544 0.498-0.172 0.978-0.333 1.405-0.612s0.821-0.604 1.172-0.998c0.329-0.37 0.551-0.828 0.808-1.306 0.068-0.126 0.143-0.243 0.202-0.374 0.138-0.31 0.165-0.639-0.104-0.771-0.266-0.131-0.631 0.043-0.772 0.352-0.284 0.623-0.545 1.27-1.040 1.748-0.413 0.398-0.944 0.613-1.437 0.846-0.494 0.233-0.991 0.526-1.548 0.63-0.029 0.005-0.099-0.107-0.164-0.107 0.142-0.83 0.12-1.56-0.223-2.125-0.341-0.562-1.021-0.94-1.742-1.303 0.447-0.276 0.836-0.656 1.255-0.898 0.609-0.353 1.269-0.625 1.911-0.902s1.336-0.384 2.033-0.519c0.45-0.087 0.901-0.2 1.361-0.221 0.349-0.016 0.549-0.167 0.553-0.464 0.005-0.3-0.176-0.523-0.53-0.538-0.652-0.027-1.289 0.049-1.904 0.195-0.616 0.146-1.174 0.475-1.768 0.724-0.531 0.223-1.125 0.31-1.629 0.584s-0.9 0.729-1.383 1.042c-0.039 0.025-0.125-0.039-0.226 0.017 0.060-0.251 0.17-0.421 0.231-0.611 0.178-0.553 0.408-1.043 0.726-1.505 0.319-0.463 0.652-0.915 1.052-1.323 0.587-0.598 1.215-1.14 1.95-1.559 0.464-0.265 0.907-0.572 1.391-0.628 0.482-0.056 0.953 0.163 1.454 0.412 0.505 0.251 0.995 0.479 1.283 0.889 0.287 0.409 0.33 0.944 0.385 1.51 0.050 0.512 0.145 1.026 0.344 1.464 0.198 0.437 0.632 0.724 1.029 1.069 0.065 0.056 0.114 0.269 0.11 0.367-0.018 0.365-0.123 0.726-0.16 1.090-0.006 0.060-0.041 0.175-0.090 0.202-0.612 0.343-0.929 0.871-1.098 1.498-0.16 0.594-0.127 1.211 0.113 1.872 0.111 0.305 0.13 0.655 0.287 0.94 0.080 0.145 0.134 0.224 0.063 0.384-0.195 0.44-0.371 0.887-0.614 1.298s-0.461 0.848-0.743 1.236c-0.055 0.076-0.234 0.039-0.313 0.087-0.499 0.308-0.859 0.783-1.276 1.177s-0.854 0.768-1.199 1.24c-0.031 0.042-0.161 0.121-0.221 0.19-0.053-0.283 0.080-0.599 0.022-0.844-0.112-0.469-0.286-0.929-0.508-1.334-0.221-0.403-0.549-0.764-0.943-1.067-0.711-0.547-1.553-0.733-2.433-0.689-0.134 0.007-0.36 0.022-0.559 0.039z"></path>
<path d="M30.817 17.101c-0.512 0-1.067-0.156-1.5-0.087-0.642 0.102-1.235 0.355-1.667 0.723-0.433 0.368-0.72 0.934-0.949 1.533-0.188 0.494-0.279 1.031-0.403 1.548-0.031 0.128 0.003 0.257-0.024 0.449-0.341-0.327-0.671-0.581-0.965-0.88-0.499-0.508-0.897-1.1-1.339-1.653s-0.89-1.095-1.252-1.712c-0.153-0.261-0.252-0.553-0.405-0.814-0.084-0.143-0.209-0.276-0.102-0.408 0.514-0.638 0.979-1.285 1.112-2.101 0.088-0.539-0.086-1.038-0.293-1.499s-0.483-0.889-0.945-1.182c-0.059-0.037-0.161-0.101-0.168-0.162-0.068-0.543-0.134-1.088-0.182-1.634-0.010-0.113 0.030-0.27 0.093-0.358 0.416-0.581 0.649-1.219 0.69-1.925 0.038-0.668 0.257-1.346 0.673-1.84 0.419-0.498 1.064-0.762 1.72-0.894 0.588-0.118 1.226-0.084 1.891 0.238 0.43 0.208 0.795 0.495 1.161 0.786 0.367 0.292 0.797 0.52 1.131 0.854 0.363 0.364 0.624 0.817 0.926 1.226s0.618 0.813 0.816 1.294c0.128 0.311 0.171 0.656 0.273 0.978-0.023 0.013-0.010-0.033-0.033-0.021-0.241-0.149-0.553-0.174-0.796-0.319-0.437-0.262-0.815-0.623-1.265-0.855-0.452-0.232-0.94-0.387-1.413-0.573-0.47-0.185-0.934-0.404-1.43-0.529-0.637-0.16-1.291-0.144-1.95-0.112-0.364 0.018-0.685 0.161-0.68 0.453 0.005 0.301 0.324 0.526 0.693 0.513 0.605-0.021 1.191 0.003 1.757 0.148 0.568 0.145 1.103 0.406 1.649 0.642 0.499 0.216 0.95 0.513 1.423 0.776s1.036 0.381 1.489 0.68c0.065 0.043 0.072 0.177 0.159 0.241-0.719 0.359-1.365 0.754-1.7 1.33-0.328 0.563-0.37 1.296-0.234 2.134-0.364-0.091-0.697-0.082-1.010-0.183-0.485-0.157-0.85-0.516-1.248-0.773-0.414-0.267-0.914-0.437-1.229-0.815-0.303-0.362-0.475-0.845-0.684-1.312-0.154-0.344-0.424-0.453-0.706-0.32-0.278 0.131-0.363 0.403-0.207 0.744 0.273 0.598 0.624 1.109 1.020 1.562 0.415 0.474 0.935 0.79 1.479 1.109 0.519 0.305 1.040 0.644 1.672 0.812 0.422 0.112 0.87 0.113 1.3 0.194 0.079 0.015 0.11 0.122 0.153 0.18 0.442 0.594 1.024 1.153 1.502 1.811z"></path>
<path d="M11.571 10.681c0.095-0.512 0.328-1.046 0.444-1.529 0.154-0.642 0.216-1.305 0.504-1.88s0.731-1.054 1.197-1.533c0.4-0.411 0.809-0.764 1.296-0.974 0.484-0.208 1.015-0.324 1.603-0.272 0.812 0.071 1.526 0.417 2.12 0.952 0.457 0.412 0.723 0.958 1.023 1.467 0.301 0.511 0.584 1.027 0.759 1.609 0.203 0.675 0.432 1.41 0.603 2.154-0.475-0.045-1.008-0.046-1.431 0.034-0.443 0.084-0.9 0.145-1.311 0.339-0.404 0.191-0.737 0.503-1.086 0.771-0.345 0.265-0.666 0.494-0.966 0.831-0.419-0.444-0.927-0.689-1.403-1.009-0.492-0.33-0.981-0.607-1.558-0.769-0.539-0.151-1.161-0.218-1.793-0.191z"></path>
</svg>
