<!-- Generated by IcoMoon.io -->
<svg version="1.1" xmlns="http://www.w3.org/2000/svg" width="32" height="32" viewBox="0 0 32 32">
<path d="M31.003 16.223c-0.018-0.028-0.058-0.053-0.081-0.080-0.066-0.076-0.114-0.134-0.194-0.199-0.128-0.104-0.229-0.233-0.349-0.344-0.036-0.034-0.087-0.058-0.121-0.093-0.047-0.047-0.092-0.1-0.14-0.147-0.088-0.088-0.194-0.146-0.292-0.225-0.17-0.137-0.327-0.282-0.503-0.412-0.183-0.134-0.356-0.278-0.529-0.424-0.050-0.042-0.112-0.065-0.16-0.112-0.044-0.042-0.086-0.069-0.133-0.105-0.063-0.049-0.108-0.089-0.18-0.128-0.065-0.035-0.119-0.077-0.186-0.113-0.051-0.027-0.068-0.066-0.111-0.1-0.050-0.039-0.105-0.076-0.158-0.111-0.12-0.078-0.218-0.169-0.346-0.234-0.084-0.042-0.165-0.090-0.245-0.132-0.099-0.052-0.173-0.117-0.273-0.166-0.085-0.042-0.171-0.089-0.252-0.138-0.107-0.066-0.229-0.113-0.331-0.18-0.081-0.053-0.169-0.093-0.251-0.139-0.104-0.059-0.202-0.115-0.314-0.159-0.081-0.032-0.17-0.061-0.251-0.093-0.090-0.036-0.171-0.075-0.258-0.113-0.18-0.079-0.359-0.122-0.532-0.199-0.195-0.087-0.392-0.174-0.584-0.259-0.084-0.037-0.176-0.054-0.266-0.072-0.018-0.004-0.046-0.018-0.058-0.021-0.025-0.005-0.049-0-0.074-0.004-0.047-0.008-0.099-0.041-0.138-0.049-0.047-0.009-0.094-0.022-0.14-0.030-0.022-0.004-0.044 0.003-0.066-0.001-0.030-0.005-0.050-0.024-0.080-0.030-0.044-0.008-0.088 0.007-0.133-0.004-0.056-0.015-0.106-0.032-0.158-0.048-0.090-0.028-0.197-0.054-0.293-0.052-0.053 0.001-0.082-0.019-0.133-0.028-0.055-0.010-0.117 0.010-0.172 0.002-0.025-0.004-0.042-0.015-0.066-0.022-0.037-0.010-0.070 0.002-0.106-0.005-0.051-0.008-0.103-0.023-0.153-0.034-0.017-0.004-0.034-0.018-0.058-0.021-0.034-0.004-0.073 0-0.107 0-0.053 0-0.106 0-0.159 0-0.215 0-0.466-0.033-0.664 0.040-0.080 0.029-0.145 0.098-0.212 0.146-0.018 0.013-0.029 0.017-0.046 0.033-0.032 0.031-0.017 0.038-0.032 0.074 0.001-0.003-0.022 0.034-0.021 0.032-0.007 0.043 0.007 0.047 0.015 0.080 0.023 0.106-0.007 0.216 0.066 0.307 0.032 0.040 0.129 0.156 0.174 0.162 0.025-0.083-0.006-0.143 0.050-0.217 0.041-0.054 0.181-0.124 0.247-0.126 0.027-0.001 0.048-0.001 0.074-0.005 0.008-0.001 0.017-0.022 0.031-0.023 0.028-0.002 0.053 0.026 0.081 0.031 0.017 0.003 0.038-0.007 0.054-0.003 0.024 0.006 0.026 0.024 0.050 0.029 0.018 0.004 0.038-0.007 0.056-0.003 0.036 0.008 0.078 0.033 0.111 0.048 0.069 0.032 0.117 0.094 0.16 0.158 0.032 0.048 0.088 0.135 0.1 0.192 0.019 0.088 0.012 0.177 0.024 0.267 0.006 0.041 0.022 0.064 0.028 0.105s0.011 0.119 0.001 0.161c-0.006 0.024-0.024 0.026-0.029 0.050-0.004 0.016 0.004 0.039 0.002 0.055-0.005 0.038-0.019 0.068-0.034 0.105-0.033 0.082-0.054 0.165-0.093 0.246-0.036 0.075-0.058 0.162-0.106 0.234-0.043 0.065-0.102 0.12-0.146 0.184s-0.109 0.115-0.146 0.186c-0.043 0.082-0.095 0.157-0.146 0.234-0.058 0.088-0.143 0.159-0.205 0.245-0.064 0.088-0.147 0.111-0.233 0.165-0.077 0.048-0.13 0.118-0.192 0.18-0.066 0.066-0.157 0.114-0.234 0.165-0.079 0.052-0.136 0.135-0.217 0.186s-0.177 0.066-0.26 0.106c-0.164 0.080-0.342 0.131-0.512 0.206-0.154 0.067-0.329 0.164-0.503 0.159-0.053-0.001-0.083 0.019-0.133 0.028-0.043 0.007-0.090-0.010-0.133-0.003-0.099 0.018-0.195 0.052-0.292 0.075-0.175 0.042-0.333 0.075-0.498 0.145-0.064 0.027-0.126 0.064-0.192 0.092-0.097 0.042-0.191 0.105-0.292 0.135-0.082 0.024-0.158 0.049-0.24 0.085-0.078 0.033-0.152 0.079-0.238 0.1-0.089 0.022-0.177 0.031-0.267 0.058-0.088 0.026-0.172 0.075-0.265 0.108-0.045 0.015-0.081 0.026-0.132 0.026-0.060 0-0.102 0.024-0.159 0.027-0.101 0.005-0.178 0.040-0.279 0.054-0.005 0.001-0.010-0.001-0.016-0.001-0.001-0-0.002-0.001-0.003-0.002-0.008-0.002-0.016-0.001-0.024 0-0.008-0.001-0.017-0.002-0.024-0-0.001 0-0.002 0.001-0.003 0.002-0.005 0-0.011 0.002-0.016 0.001-0.101-0.014-0.178-0.049-0.279-0.054-0.057-0.003-0.1-0.027-0.159-0.027-0.051 0-0.087-0.010-0.132-0.026-0.093-0.032-0.177-0.082-0.265-0.108-0.090-0.027-0.177-0.037-0.267-0.058-0.086-0.021-0.16-0.067-0.238-0.1-0.083-0.036-0.158-0.061-0.24-0.085-0.101-0.029-0.195-0.093-0.292-0.135-0.066-0.028-0.128-0.065-0.192-0.092-0.165-0.070-0.323-0.103-0.498-0.145-0.097-0.023-0.193-0.058-0.292-0.075-0.042-0.007-0.090 0.010-0.133 0.003-0.050-0.009-0.080-0.029-0.133-0.028-0.174 0.004-0.349-0.092-0.503-0.159-0.17-0.074-0.348-0.126-0.512-0.206-0.083-0.040-0.18-0.056-0.26-0.106s-0.138-0.133-0.217-0.186c-0.077-0.051-0.168-0.099-0.234-0.165-0.062-0.062-0.114-0.132-0.192-0.18-0.086-0.054-0.169-0.077-0.233-0.165-0.062-0.086-0.146-0.156-0.205-0.245-0.051-0.077-0.103-0.152-0.146-0.234-0.037-0.071-0.102-0.122-0.146-0.186s-0.103-0.119-0.146-0.184c-0.048-0.071-0.070-0.159-0.106-0.234-0.040-0.081-0.060-0.164-0.093-0.246-0.015-0.036-0.029-0.067-0.034-0.105-0.002-0.016 0.006-0.039 0.002-0.055-0.006-0.024-0.023-0.026-0.029-0.050-0.010-0.042-0.005-0.12 0.001-0.161s0.022-0.064 0.028-0.105c0.012-0.091 0.006-0.179 0.024-0.267 0.012-0.056 0.068-0.144 0.1-0.192 0.043-0.064 0.091-0.126 0.16-0.158 0.034-0.016 0.075-0.040 0.111-0.048 0.018-0.004 0.038 0.007 0.056 0.003 0.024-0.006 0.026-0.024 0.050-0.029 0.017-0.004 0.038 0.006 0.054 0.003 0.028-0.005 0.053-0.032 0.081-0.031 0.014 0.001 0.023 0.022 0.031 0.023 0.026 0.004 0.047 0.004 0.074 0.005 0.066 0.002 0.206 0.072 0.247 0.126 0.057 0.074 0.025 0.134 0.050 0.217 0.045-0.005 0.142-0.122 0.174-0.162 0.072-0.091 0.042-0.202 0.066-0.307 0.007-0.033 0.022-0.037 0.015-0.080 0 0.002-0.023-0.035-0.021-0.032-0.016-0.036-0.001-0.042-0.032-0.074-0.017-0.017-0.029-0.021-0.046-0.033-0.067-0.048-0.132-0.117-0.212-0.146-0.198-0.073-0.448-0.040-0.664-0.040-0.053 0-0.106 0-0.159 0-0.034 0-0.073-0.005-0.107-0-0.025 0.003-0.041 0.018-0.058 0.021-0.051 0.010-0.103 0.025-0.153 0.034-0.036 0.006-0.069-0.005-0.106 0.005-0.024 0.006-0.041 0.018-0.066 0.022-0.056 0.008-0.117-0.012-0.173-0.002-0.050 0.009-0.080 0.029-0.132 0.028-0.096-0.002-0.203 0.025-0.293 0.052-0.052 0.016-0.102 0.033-0.158 0.048-0.044 0.012-0.089-0.003-0.133 0.004-0.030 0.005-0.050 0.025-0.080 0.030-0.022 0.004-0.044-0.004-0.066 0.001-0.046 0.009-0.093 0.021-0.14 0.030-0.040 0.008-0.092 0.041-0.138 0.049-0.025 0.004-0.049-0.001-0.074 0.004-0.013 0.002-0.040 0.017-0.058 0.021-0.090 0.018-0.182 0.035-0.266 0.072-0.192 0.086-0.389 0.172-0.584 0.259-0.173 0.077-0.352 0.12-0.532 0.199-0.087 0.038-0.168 0.077-0.258 0.113-0.081 0.032-0.17 0.061-0.251 0.093-0.112 0.044-0.21 0.1-0.314 0.159-0.082 0.046-0.17 0.087-0.251 0.139-0.102 0.067-0.224 0.114-0.331 0.18-0.081 0.050-0.167 0.096-0.252 0.138-0.099 0.049-0.174 0.115-0.273 0.166-0.080 0.042-0.16 0.090-0.245 0.132-0.128 0.064-0.227 0.155-0.346 0.234-0.054 0.035-0.109 0.072-0.158 0.111-0.043 0.034-0.060 0.074-0.111 0.1-0.067 0.036-0.121 0.078-0.186 0.113-0.072 0.039-0.117 0.079-0.18 0.128-0.047 0.036-0.089 0.063-0.133 0.105-0.048 0.047-0.11 0.070-0.16 0.112-0.173 0.146-0.346 0.289-0.529 0.424-0.176 0.13-0.333 0.275-0.503 0.412-0.098 0.079-0.204 0.137-0.292 0.225-0.048 0.047-0.093 0.1-0.14 0.147-0.035 0.035-0.085 0.059-0.122 0.093-0.12 0.111-0.221 0.24-0.349 0.344-0.080 0.065-0.128 0.122-0.194 0.199-0.023 0.027-0.062 0.052-0.081 0.080-0.027 0.040-0.019 0.085-0.019 0.134 0.028-0.013 0.057-0.020 0.106-0.020 0.098 0 0.172 0.038 0.265 0.054 0.078 0.014 0.161-0.016 0.239 0.005 0.048 0.013 0.080 0.021 0.133 0.021 0.041-0 0.092-0.009 0.133-0.002 0.044 0.008 0.072 0.026 0.12 0.028s0.094-0.003 0.14-0.001c0.056 0.003 0.098 0.025 0.154 0.028 0.051 0.002 0.1-0.005 0.15 0.006 0.087 0.018 0.176 0.015 0.259 0.041 0.208 0.065 0.428 0.093 0.637 0.158 0.103 0.032 0.224 0.083 0.32 0.133 0.048 0.025 0.116 0.055 0.158 0.085 0.021 0.015 0.035 0.041 0.058 0.056 0.028 0.018 0.060 0.023 0.088 0.041 0.183 0.121 0.334 0.292 0.503 0.424 0.043 0.034 0.089 0.076 0.125 0.116s0.076 0.061 0.114 0.096c0.068 0.063 0.116 0.144 0.197 0.197 0.163 0.107 0.297 0.252 0.446 0.372 0.128 0.102 0.264 0.204 0.357 0.344 0.046 0.070 0.081 0.14 0.133 0.206 0.042 0.053 0.066 0.129 0.074 0.192 0.006 0.047-0.025 0.102 0.036 0.106 0.011 0 0.071-0.026 0.090-0.031 0.053-0.013 0.121-0.045 0.172-0.067 0.040-0.017 0.070-0.023 0.11-0.036 0.024-0.008 0.051-0.038 0.075-0.044 0.040-0.012 0.080-0.003 0.121-0.012 0.027-0.006 0.049-0.021 0.086-0.020 0.051 0.001 0.105 0.004 0.153-0.006 0.027-0.006 0.048-0.026 0.086-0.021 0.042 0.006 0.062 0.023 0.105 0.028s0.078 0.004 0.12 0.013c0.086 0.018 0.178-0.001 0.265 0.016 0.077 0.015 0.136 0.050 0.212 0.064 0.143 0.026 0.286 0.116 0.412 0.192 0.136 0.082 0.281 0.168 0.424 0.24 0.166 0.082 0.308 0.205 0.457 0.317 0.144 0.108 0.296 0.199 0.399 0.352 0.083 0.124 0.215 0.198 0.304 0.325 0.050 0.072 0.102 0.147 0.16 0.214 0.054 0.062 0.092 0.055 0.146-0.001 0.101-0.104 0.156-0.221 0.273-0.309 0.061-0.046 0.111-0.101 0.172-0.142 0.056-0.038 0.128-0.103 0.17-0.153s0.084-0.106 0.137-0.145c0.029-0.022 0.057-0.034 0.084-0.060s0.053-0.032 0.080-0.052c0.106-0.078 0.21-0.164 0.324-0.24 0.231-0.154 0.431-0.346 0.658-0.505 0.126-0.088 0.262-0.128 0.403-0.185 0.076-0.030 0.163-0.065 0.239-0.074 0.077-0.009 0.159-0.041 0.239-0.027 0.058 0.010 0.095 0.041 0.159 0.029 0.038-0.007 0.066-0.026 0.106-0.028 0.085-0.005 0.139 0.028 0.226 0.027 0.082-0.001 0.148 0.024 0.219 0.060 0.056 0.028 0.131 0.061 0.179 0.099s0.11 0.125 0.173 0.094c0.045-0.022 0.081-0.112 0.099-0.153 0.062-0.145 0.109-0.281 0.186-0.42 0.034-0.061 0.065-0.126 0.106-0.185 0.016-0.022 0.037-0.037 0.053-0.058 0.029-0.037 0.038-0.085 0.066-0.122 0.053-0.069 0.125-0.125 0.18-0.192 0.047-0.057 0.082-0.128 0.136-0.178 0.056-0.050 0.106-0.105 0.161-0.16 0.048-0.048 0.095-0.079 0.148-0.119 0.11-0.086 0.206-0.19 0.33-0.252 0.128-0.065 0.276-0.096 0.419-0.139 0.037-0.011 0.076-0.039 0.111-0.048 0.034-0.009 0.066-0.003 0.1-0.012 0.081-0.021 0.157-0.041 0.242-0.046 0.085 0.004 0.161 0.025 0.242 0.046 0.034 0.009 0.067 0.003 0.1 0.012 0.035 0.009 0.074 0.037 0.111 0.048 0.143 0.043 0.291 0.074 0.419 0.139 0.124 0.062 0.22 0.166 0.33 0.252 0.052 0.040 0.1 0.072 0.148 0.119 0.054 0.055 0.104 0.11 0.16 0.16s0.090 0.121 0.137 0.178c0.056 0.067 0.127 0.123 0.18 0.192 0.028 0.037 0.037 0.085 0.066 0.122 0.016 0.021 0.038 0.036 0.053 0.058 0.041 0.058 0.072 0.124 0.106 0.185 0.077 0.139 0.124 0.275 0.186 0.42 0.018 0.041 0.054 0.131 0.099 0.153 0.062 0.030 0.123-0.055 0.173-0.094s0.123-0.071 0.179-0.099c0.072-0.036 0.137-0.061 0.219-0.060 0.087 0.001 0.141-0.032 0.226-0.027 0.040 0.002 0.068 0.022 0.106 0.028 0.064 0.012 0.101-0.019 0.159-0.029 0.080-0.014 0.162 0.018 0.24 0.027 0.076 0.009 0.163 0.043 0.239 0.074 0.141 0.056 0.278 0.097 0.403 0.185 0.227 0.159 0.427 0.351 0.658 0.505 0.113 0.075 0.218 0.162 0.324 0.24 0.028 0.020 0.053 0.026 0.080 0.052s0.054 0.038 0.084 0.060c0.053 0.040 0.095 0.095 0.137 0.145s0.114 0.115 0.17 0.153c0.061 0.042 0.112 0.096 0.172 0.142 0.117 0.088 0.172 0.204 0.273 0.309 0.054 0.056 0.092 0.062 0.146 0.001 0.057-0.066 0.109-0.142 0.16-0.214 0.089-0.127 0.221-0.201 0.304-0.325 0.103-0.152 0.255-0.244 0.399-0.352 0.149-0.112 0.291-0.234 0.457-0.317 0.143-0.071 0.288-0.158 0.424-0.24 0.126-0.076 0.269-0.166 0.412-0.192 0.076-0.014 0.136-0.049 0.212-0.064 0.087-0.017 0.179 0.002 0.265-0.016 0.042-0.009 0.077-0.008 0.12-0.013s0.063-0.022 0.105-0.028c0.038-0.005 0.060 0.016 0.086 0.021 0.048 0.010 0.103 0.007 0.153 0.006 0.037-0.001 0.059 0.014 0.086 0.020 0.040 0.009 0.081 0 0.121 0.012 0.024 0.007 0.050 0.037 0.075 0.044 0.040 0.013 0.070 0.018 0.11 0.036 0.051 0.022 0.119 0.054 0.171 0.067 0.020 0.005 0.080 0.032 0.091 0.031 0.061-0.004 0.030-0.058 0.036-0.106 0.008-0.064 0.031-0.139 0.074-0.192 0.052-0.066 0.086-0.137 0.133-0.206 0.093-0.139 0.229-0.241 0.357-0.344 0.149-0.119 0.283-0.265 0.446-0.372 0.081-0.053 0.13-0.134 0.198-0.197 0.038-0.036 0.078-0.056 0.114-0.096s0.082-0.082 0.125-0.116c0.169-0.133 0.32-0.304 0.503-0.424 0.028-0.018 0.060-0.022 0.088-0.041 0.023-0.015 0.037-0.041 0.058-0.056 0.043-0.031 0.11-0.060 0.158-0.085 0.096-0.050 0.217-0.1 0.32-0.133 0.209-0.066 0.429-0.094 0.638-0.158 0.083-0.026 0.172-0.022 0.259-0.041 0.050-0.010 0.098-0.004 0.15-0.006 0.056-0.002 0.098-0.025 0.154-0.028 0.046-0.002 0.094 0.003 0.14 0.001s0.075-0.020 0.12-0.028c0.040-0.007 0.092 0.001 0.133 0.002 0.053 0 0.084-0.008 0.133-0.021 0.077-0.020 0.161 0.009 0.239-0.005 0.093-0.016 0.168-0.054 0.265-0.054 0.049 0 0.078 0.007 0.106 0.020 0-0.049 0.008-0.093-0.019-0.134z"></path>
<path d="M31.022 16.363c0.020 0.010 0.039 0.018 0.057 0.025-0.021-0.013-0.040-0.023-0.057-0.031 0 0.002-0 0.004-0 0.006z"></path>
<path d="M31.079 16.388c0.005 0.003 0.010 0.006 0.015 0.009 0.042 0.025 0.131 0.117 0.174 0.050 0.009 0.007 0.034 0.011 0.042 0.018 0.004-0.048-0.065-0.010-0.232-0.077z"></path>
<path d="M0.978 16.363c0-0.002-0-0.004-0-0.006-0.017 0.008-0.036 0.018-0.057 0.031 0.018-0.007 0.036-0.015 0.057-0.025z"></path>
<path d="M0.69 16.465c0.008-0.007 0.033-0.011 0.042-0.018 0.043 0.067 0.132-0.026 0.174-0.050 0.006-0.004 0.010-0.006 0.015-0.009-0.167 0.067-0.235 0.029-0.232 0.077z"></path>
</svg>
