<!-- Generated by IcoMoon.io -->
<svg version="1.1" xmlns="http://www.w3.org/2000/svg" width="32" height="32" viewBox="0 0 32 32">
<path d="M15.581 5.189c0.025-0.019 0.017-0.057 0.040-0.081 0.016-0.017 0.038-0.028 0.052-0.046 0.019-0.023 0.030-0.046 0.043-0.072 0.014-0.028 0.035-0.042 0.054-0.065 0.020-0.025 0.027-0.055 0.036-0.082 0.009-0.025 0.028-0.049 0.042-0.072 0.026-0.043 0.067-0.101 0.078-0.149 0.014-0.057-0-0.118-0.008-0.171-0.006-0.039-0.031-0.093-0.061-0.124-0.034-0.036-0.063-0.082-0.088-0.123-0.025-0.039-0.062-0.076-0.096-0.109-0.078-0.075-0.16-0.149-0.242-0.218-0.1-0.082-0.202-0.151-0.296-0.239-0.079-0.073-0.171-0.138-0.25-0.215-0.015-0.015-0.028-0.033-0.043-0.048-0.018-0.018-0.041-0.030-0.061-0.045-0.038-0.029-0.078-0.053-0.116-0.083-0.042-0.034-0.085-0.066-0.126-0.101-0.035-0.030-0.075-0.085-0.119-0.099-0.013-0.004-0.027-0.001-0.040-0.004s-0.019-0.012-0.035-0.015c-0.032-0.006-0.067-0.004-0.099-0.006-0.029-0.002-0.063-0.009-0.091-0.004-0.011 0.002-0.018 0.010-0.030 0.011-0.015 0.002-0.043-0-0.057-0.003-0.032-0.006-0.056-0.023-0.091-0.020s-0.063-0.003-0.099-0.005c-0.060-0.003-0.095 0.008-0.147 0.030s-0.090 0.042-0.147 0.052c-0.024 0.004-0.053 0.020-0.080 0.022-0.014 0.002-0.026-0.003-0.040 0-0.005 0.001-0.010 0.009-0.017 0.010-0.009 0.002-0.021-0.005-0.030-0.003-0.022 0.005-0.043 0.029-0.065 0.038-0.027 0.012-0.057 0.027-0.081 0.044-0.048 0.033-0.097 0.064-0.144 0.099-0.043 0.032-0.080 0.058-0.111 0.1-0.034 0.045-0.090 0.070-0.13 0.111-0.034 0.035-0.072 0.073-0.116 0.1-0.019 0.012-0.038 0.020-0.057 0.033-0.013 0.009-0.016 0.008-0.028 0.021s-0.016 0.026-0.025 0.038c-0.031 0.044-0.068 0.081-0.094 0.127-0.029 0.051-0.051 0.104-0.078 0.154-0.028 0.052-0.056 0.097-0.085 0.148-0.032 0.054-0.077 0.096-0.104 0.15-0.011 0.022-0.029 0.041-0.041 0.063s-0.023 0.046-0.034 0.067c-0.026 0.049-0.021 0.114-0.024 0.172-0.006 0.104 0.024 0.205 0.064 0.298 0.018 0.042 0.036 0.094 0.078 0.115 0.021 0.011 0.043 0.019 0.065 0.030 0.016 0.008 0.032 0.010 0.049 0.014s0.032 0.019 0.049 0.018c0.016-0.001 0.020-0.011 0.035-0.014 0.013-0.002 0.028 0.008 0.041 0.001 0.017-0.010 0.019-0.061 0.046-0.063 0.005 0.026 0.001 0.032 0.018 0.052 0.009 0.011 0.020 0.023 0.030 0.033 0.014 0.014 0.027 0.027 0.048 0.031 0.011 0.002 0.023-0.001 0.034 0.002 0.010 0.002 0.010 0.011 0.021 0.014 0.009 0.003 0.020-0.002 0.029 0 0.013 0.003 0.022 0.012 0.034 0.016 0.020 0.005 0.044 0.006 0.064 0.002 0.046-0.009 0.089-0.007 0.137-0.002-0.022 0.002-0.069-0.032-0.085-0.047-0.029-0.026-0.056-0.055-0.087-0.078-0.012-0.009-0.038-0.018-0.047-0.028s-0.016-0.028-0.024-0.041c-0.010-0.020-0.022-0.037-0.032-0.057-0.009-0.018-0.011-0.043-0.023-0.058 0.027 0 0.056 0.033 0.077 0.047 0.024 0.017 0.061 0.041 0.089 0.047 0.019 0.004 0.044 0.002 0.064 0.003 0.026 0.001 0.039 0.011 0.063 0.016 0.038 0.009 0.068-0.023 0.106-0.024-0.002-0.013-0.051-0.046-0.066-0.063-0.021-0.023-0.045-0.045-0.060-0.072-0.020-0.038-0.038-0.081-0.054-0.122-0.005-0.014-0.011-0.028-0.015-0.042-0.003-0.010-0.014-0.045-0.008-0.054 0.026 0.011 0.052 0.030 0.077 0.048 0.015 0.011 0.024 0.023 0.044 0.028 0.009 0.002 0.020-0.002 0.029 0s0.012 0.012 0.021 0.015c0.017 0.005 0.037 0.002 0.055 0.004 0.021 0.002 0.026 0.010 0.043 0.015 0.031 0.009 0.092-0.009 0.114 0.018-0.033 0.016-0.066-0.033-0.081-0.057-0.020-0.033-0.046-0.065-0.062-0.1-0.018-0.040-0.020-0.091-0.028-0.134-0.008-0.044-0.010-0.090-0.026-0.13 0.029-0.013 0.053 0.052 0.074 0.069 0.027 0.022 0.069 0.044 0.101 0.056 0.034 0.012 0.058 0.024 0.098 0.026 0.018 0.001 0.039 0 0.057 0.003 0.022 0.004 0.032 0.017 0.054 0.021-0.002 0.011-0.012 0.015-0.025 0.007-0.004-0.002-0.003-0.022-0.005-0.026-0.008-0.022-0.015-0.042-0.023-0.063-0.009-0.023-0.019-0.043-0.030-0.065-0.010-0.019-0.010-0.038-0.017-0.057-0.025-0.068-0.044-0.187 0-0.258 0.012 0.047 0.064 0.087 0.096 0.123 0.016 0.018 0.032 0.034 0.050 0.048 0.021 0.016 0.045 0.028 0.064 0.049 0.013 0.013 0.037 0.051 0.056 0.025 0.011-0.016-0.015-0.054-0.018-0.070-0.006-0.029 0-0.063 0.002-0.094 0.002-0.034-0.003-0.077 0.009-0.109 0.020 0.004 0.058 0.054 0.071 0.071 0.026 0.036 0.046 0.071 0.061 0.112 0.012 0.035 0.031 0.064 0.033 0.102 0.002 0.025-0.004 0.051-0.005 0.076-0 0.019 0.015 0.042 0.011 0.058-0.002-0.015 0.009-0.014 0.012-0.025s0.001-0.022 0.005-0.032c0.007-0.021 0.014-0.038 0.021-0.061s0.019-0.045 0.026-0.068c0.006-0.020 0.024-0.057 0.022-0.077 0.024 0.034 0.031 0.052 0.041 0.091 0.002 0.007 0.008 0.015 0.010 0.024s-0.001 0.022 0.001 0.032c0.001 0.006 0.009 0.014 0.010 0.024 0.002 0.012-0.005 0.024-0.003 0.036 0.004 0.024 0.018 0.026 0.008 0.055-0.006 0.018-0.017 0.034-0.026 0.049-0.011 0.019-0.014 0.032-0.020 0.052-0.004 0.013-0.015 0.054-0.025 0.062 0.020 0.003 0.055-0.024 0.071-0.035 0.020-0.015 0.030-0.034 0.045-0.052 0.030-0.036 0.089-0.060 0.103-0.108 0.007-0.025-0.010-0.080 0.042-0.051 0.013 0.008 0.034 0.036 0.043 0.048 0.030 0.042 0.045 0.106 0.030 0.158-0.002 0.009-0.011 0.017-0.013 0.030 0 0.010 0 0.019-0 0.029-0.001 0.008-0.006 0.013-0.013 0.016-0.007 0.020-0.009 0.044-0.024 0.062-0.009 0.010-0.047 0.040-0.044 0.056 0.004 0.026 0.064 0.018 0.083 0.015 0.050-0.007 0.087-0.049 0.118-0.090 0.014-0.018 0.039-0.046 0.047-0.067 0.005-0.014 0.001-0.024 0.005-0.038 0.004-0.018 0.019-0.030 0.018-0.050 0.018 0.026 0.025 0.037 0.036 0.067s0.010 0.051 0.016 0.084c0.008 0.040 0.012 0.058-0.012 0.096-0.012 0.018-0.032 0.037-0.039 0.056-0.005 0.014-0.011 0.029-0.016 0.041-0.004 0.010-0.019 0.006-0.017 0.020 0.006 0.036 0.058 0.013 0.071 0.011 0.037-0.006 0.061-0.006 0.097-0.022 0.025-0.010 0.058-0.023 0.079-0.040s0.026-0.048 0.037-0.071c0.016-0.032 0.017-0.040 0.044-0.018 0.020 0.016 0.028 0.037 0.039 0.058s0.026 0.035 0.029 0.060c0.007 0.058-0.013 0.127-0.056 0.167-0.018 0.016-0.036 0.030-0.056 0.042-0.021 0.013-0.048 0.020-0.069 0.034 0.017 0.021 0.041 0.020 0.065 0.021 0.027 0.002 0.039-0.003 0.060-0.007 0.020-0.004 0.040 0.002 0.061-0.001s0.040-0.017 0.059-0.022c0.038-0.009 0.071-0.014 0.104-0.040 0.020-0.016 0.061-0.060 0.088-0.045 0.031 0.017 0.013 0.102 0.003 0.123-0.013 0.030-0.042 0.048-0.058 0.076-0.018 0.032-0.052 0.079-0.090 0.092-0.037 0.013-0.091-0.004-0.122-0.016 0.001 0.013 0.051 0.035 0.066 0.043 0.029 0.014 0.057 0.017 0.084 0.032 0.017 0.010 0.020 0.013 0.038 0.013 0.004-0.007 0.010-0.010 0.018-0.011 0.010 0.001 0.019 0.002 0.029 0.002 0.036 0.003 0.043-0.010 0.072-0.023 0.031-0.014 0.063-0.012 0.092-0.033 0.019-0.014 0.038-0.043 0.059-0.052 0.035-0.015 0.052 0.006 0.063 0.032 0.014 0.035 0.034 0.053 0.059 0.081 0.046-0.016 0.080-0.012 0.121-0.046 0.028-0.024 0.105-0.094 0.094-0.064z"></path>
<path d="M12.363 5.389l-0.012-0.004c0.005-0.010 0.016-0.018 0.014-0.032 0.008 0.008 0.017 0.004 0.026-0.003 0.004 0.017 0 0.034 0.003 0.051 0.002 0.011 0.009 0.031 0.012 0.045 0.006 0.033 0.023 0.067 0.034 0.099 0.021 0.067 0.028 0.135 0.060 0.197 0.028 0.056 0.050 0.114 0.075 0.17 0.026 0.059 0.034 0.124 0.060 0.183s0.063 0.107 0.101 0.161c0.021 0.030 0.026 0.048 0.060 0.066 0.031 0.018 0.062 0.017 0.094 0.033 0.031 0.015 0.056 0.038 0.086 0.047 0.034 0.010 0.060 0.021 0.091 0.040 0.030 0.018 0.052 0.032 0.086 0.042s0.063 0.022 0.094 0.037c0.018 0.009 0.023 0.010 0.045 0.013s0.035 0.013 0.056 0.018c0.016 0.004 0.033-0 0.048 0.003 0.018 0.004 0.026 0.014 0.050 0.016 0.038 0.002 0.067 0.018 0.105 0.020 0.040 0.002 0.080 0.005 0.12 0.007 0.035 0.002 0.071 0.004 0.106 0.006 0.018 0.001 0.039-0 0.056 0.004 0.024 0.006 0.036 0.018 0.063 0.016s0.055-0.011 0.081-0.022c0.015-0.006 0.027-0.015 0.042-0.020 0.022-0.009 0.042-0 0.065-0.005 0.032-0.007 0.057-0.032 0.087-0.041 0.034-0.010 0.059-0.020 0.091-0.039 0.020-0.012 0.052-0.019 0.070-0.034 0.022-0.017 0.034-0.048 0.049-0.070 0.011-0.016 0.020-0.024 0.028-0.043 0.006-0.015 0.009-0.029 0.024-0.041 0.033-0.027 0.069-0.016 0.108-0.020 0.021-0.002 0.036-0.012 0.057-0.012 0.016 0 0.032 0.005 0.048 0.002 0.011-0.002 0.026-0.014 0.038-0.018 0.029-0.010 0.023 0.001 0.045 0.007s0.038-0.006 0.061-0.008c0.021-0.001 0.040 0.005 0.061 0.001 0.033-0.007 0.067-0.022 0.104-0.018 0.045 0.004 0.052-0.024 0.090-0.033s0.067-0.009 0.095-0.042c0.023-0.027 0.050-0.053 0.067-0.083 0.018-0.032 0.044-0.052 0.067-0.079s0.039-0.050 0.054-0.080c0.007-0.014 0.013-0.029 0.020-0.044 0.011-0.022 0.012-0.017 0.001-0.041 0.037-0.017-0.035-0.14-0.051-0.164-0.031-0.045-0.070-0.060-0.117-0.082-0.016 0.016-0.052 0.032-0.074 0.038-0.023 0.007-0.013 0.008-0.035-0.002-0.016-0.007-0.031-0.013-0.045-0.020-0.027-0.013-0.047-0.021-0.068-0.046-0.008-0.009-0.017-0.021-0.026-0.029-0.012-0.010-0.028-0.015-0.038-0.027-0.012 0.010-0.025 0.009-0.036-0.003-0.028 0.070-0.011 0.154 0.044 0.202-0.015 0.012-0.028 0.001-0.045 0.004s-0.023 0.011-0.042 0.012c-0.038 0.003-0.050-0.018-0.072-0.042-0.013-0.014-0.135-0.14-0.076-0.145 0.020 0.059-0.030 0.113-0.021 0.171 0.003 0.021 0.016 0.038 0.024 0.058 0.006 0.015 0.030 0.056 0.027 0.071-0.013-0.015-0.032-0.008-0.049-0.012-0.009-0.002-0.011-0.012-0.021-0.014s-0.021 0.002-0.030-0c-0.029-0.009-0.066-0.047-0.088-0.069-0.027-0.028-0.058-0.060-0.080-0.093-0.006-0.009-0.018-0.032-0.019-0.042-0.003-0.020 0.010-0.036-0.010-0.051-0.025 0.016-0.010 0.040-0.017 0.063-0.007 0.025-0.034 0.044-0.032 0.072 0 0.007 0.010 0.020 0.012 0.029 0.003 0.014-0 0.028 0.004 0.042 0.007 0.025 0.021 0.052 0.030 0.075-0.062 0.016-0.146-0.042-0.174-0.094-0.014-0.025-0.032-0.053-0.038-0.082-0.004-0.019-0.004-0.038-0.007-0.056-0.004-0.019-0.010-0.033-0.001-0.054 0.030 0.007-0.017 0.050-0.022 0.066-0.011 0.037-0.001 0.069-0.020 0.103-0.016 0.031-0.019 0.055-0.012 0.089 0.006 0.032 0.027 0.061 0.013 0.096-0.012-0.006-0.027-0.013-0.038-0.021-0.021-0.015-0.035-0.015-0.056-0.024-0.028-0.012-0.053-0.055-0.064-0.081-0.015-0.036-0.026-0.073-0.024-0.111 0.001-0.019 0.008-0.044 0.004-0.063s-0.013-0.032-0.015-0.054c-0.028 0.002-0.045 0.044-0.061 0.062-0.025 0.028-0.041 0.049-0.058 0.083-0.013 0.025-0.025 0.050-0.036 0.077-0.006 0.015-0.018 0.023-0.014 0.045 0.003 0.016 0.022 0.023 0.014 0.042-0.014 0.035-0.058-0.013-0.067-0.032-0.013-0.028-0.033-0.055-0.038-0.086-0.006-0.036-0.014-0.060-0.012-0.097 0.002-0.035 0.003-0.070 0.007-0.106-0.033 0.034-0.071 0.055-0.109 0.082-0.019 0.014-0.038 0.033-0.043 0.056-0.003 0.013-0.002 0.025-0.004 0.038-0.004 0.017-0.012 0.005-0.010 0.027 0 0.006 0.009 0.020 0.010 0.031 0.001 0.012-0 0.029-0.002 0.042-0.007 0.040-0.019 0.028-0.043 0.004-0.029-0.029-0.062-0.074-0.075-0.111-0.010-0.028-0.013-0.052-0.013-0.081s-0.020-0.056-0.010-0.084c0.004-0.014 0.042-0.058-0.002-0.054-0.010 0.001-0.044 0.033-0.050 0.041-0.030 0.035-0.045 0.090-0.064 0.132-0.002 0.005-0.016 0.026-0.017 0.030-0.003 0.017 0.005 0.016 0.007 0.028 0.003 0.022 0.007 0.062-0.026 0.063-0-0.024-0.020-0.059-0.027-0.083-0.008-0.025-0.030-0.051-0.035-0.074-0.006-0.030 0.060-0.159-0.024-0.137-0.037 0.010-0.081 0.066-0.101 0.095-0.006 0.009-0.014 0.022-0.019 0.032-0.006 0.006-0.010 0.012-0.013 0.019-0.003 0.008-0 0.014 0.008 0.017 0 0.029 0.006 0.063-0.005 0.092-0.067-0.034-0.081-0.079-0.104-0.149-0.009-0.028-0.022-0.054-0.022-0.085 0-0.038 0.004-0.069 0.018-0.101-0.055 0.014-0.080 0.066-0.107 0.113-0.022 0.038-0.028 0.041-0.019 0.085 0.007 0.034 0.010 0.079-0.036 0.066-0.049-0.013-0.088-0.083-0.107-0.122-0.009-0.020-0.034-0.072-0.031-0.093 0.002-0.013 0.015-0.024 0.018-0.039s0.004-0.038 0-0.054c-0.004 0.003-0.018 0.006-0.022 0.009-0.023-0.040-0.052 0.007-0.075 0.012-0.029 0.007-0.063-0.008-0.084 0.025-0.012 0.019-0.009 0.069-0.005 0.091 0.007 0.004 0.010 0.009 0.011 0.017-0.001 0.009-0.002 0.019-0.003 0.028 0.002 0.025 0.016 0.043 0.011 0.070z"></path>
<path d="M15.168 3.256c-0.010-0.024-0.025-0.044 0.013-0.038 0.012 0.002 0.031 0.022 0.041 0.030 0.012 0.011 0.022 0.025 0.033 0.037 0.020 0.020 0.043 0.030 0.065 0.048 0.044 0.037 0.076 0.084 0.124 0.115 0.035 0.023 0.070 0.043 0.106 0.068 0.072 0.052 0.133 0.12 0.203 0.174 0.071 0.056 0.148 0.119 0.206 0.189 0.052 0.063 0.11 0.118 0.163 0.179 0.025 0.029 0.052 0.066 0.068 0.1s0.040 0.082 0.050 0.117c0.006 0.023 0.008 0.041 0.017 0.064 0.008 0.022 0.002 0.037 0.006 0.060s0.014 0.026 0.012 0.055c-0.001 0.013 0 0.029-0.002 0.042s-0.010 0.020-0.013 0.030c-0.007 0.021-0.003 0.042-0.010 0.062s-0.022 0.047-0.029 0.071c-0.013 0.042-0.042 0.083-0.064 0.121-0.009 0.015-0.016 0.031-0.027 0.044-0.014 0.016-0.031 0.023-0.042 0.042-0.013 0.021-0.013 0.053-0.028 0.072-0.013 0.016-0.029 0.026-0.038 0.045-0.018 0.036-0.032 0.071-0.052 0.104-0.008 0.013-0.062 0.113-0.010 0.108 0.014-0.001 0.063-0.052 0.075-0.065 0.031-0.035 0.056-0.066 0.094-0.096 0.031-0.023 0.066-0.044 0.099-0.060 0.017-0.008 0.041-0.019 0.062-0.021 0.014-0.001 0.028 0.005 0.042 0.004 0.016-0.002 0.028-0.011 0.043-0.013 0.026-0.003 0.058 0.004 0.085 0.006 0.009 0.001 0.020 0.003 0.029 0.002 0.014-0.001 0.022-0.008 0.032-0.009 0.026-0.004 0.036 0.005 0.056 0.011 0.026 0.007 0.057-0 0.082 0.007 0.018 0.005 0.035 0.023 0.054 0.028 0.026 0.007 0.042 0.012 0.066 0.024 0.038 0.019 0.088 0.020 0.13 0.031 0.014 0.004 0.032 0.018 0.044 0.027s0.016 0.022 0.026 0.031c0.006 0.006 0.018 0.005 0.025 0.011 0.032 0.025 0.062 0.055 0.098 0.079 0.016 0.011 0.035 0.013 0.052 0.020 0.022 0.009 0.047 0.022 0.070 0.029 0.024 0.007 0.039 0.010 0.061 0.022s0.040 0.031 0.063 0.041c0.037 0.015 0.098-0.008 0.13-0.030 0.040-0.029 0.061-0.075 0.099-0.105 0.040-0.032 0.058-0.072 0.097-0.106 0.041-0.036 0.086-0.061 0.124-0.1 0.025-0.026 0.060-0.058 0.089-0.077 0.011-0.007 0.043-0.022 0.055-0.025 0.036-0.010 0.043 0.008 0.070 0.016 0.014 0.004 0.028 0 0.043 0.005 0.010 0.003 0.017 0.010 0.028 0.013 0.013 0.004 0.029-0.001 0.043 0.002s0.021 0.010 0.030 0.013c0.021 0.006 0.043 0.003 0.064 0.010 0.004 0.001 0.017 0.011 0.023 0.014 0.016 0.008 0.035 0.008 0.050 0.015 0.028 0.012 0.053 0.051 0.073 0.074 0.026 0.028 0.056 0.055 0.073 0.087 0.018 0.034 0.020 0.069 0.033 0.102 0.016 0.041 0.030 0.085 0.049 0.125 0.016 0.033 0.040 0.066 0.070 0.086 0.020 0.014 0.032 0.012 0.056 0.017 0.029 0.005 0.044 0.017 0.076 0.019 0.101 0.005 0.203 0.012 0.304 0.018 0.047 0.003 0.104-0.002 0.144 0.019s0.075 0.036 0.122 0.038c0.052 0.002 0.091 0.030 0.14 0.035 0.038 0.004 0.109 0.034 0.139 0.060 0.025 0.021 0.061 0.077 0.009 0.088-0.026 0.006-0.058-0.009-0.085-0.006-0.030 0.003-0.057 0.021-0.086 0.024-0.024 0.002-0.047-0.006-0.071-0.002-0.026 0.005-0.044 0.008-0.071 0.006-0.051-0.003-0.090-0.024-0.136-0.038-0.006-0.002-0.007-0.010-0.016-0.012-0.012-0.004-0.031-0.001-0.043-0.002-0.024-0.001-0.047-0.003-0.071-0.004-0.028-0.001-0.045-0.009-0.070-0.015-0.028-0.007-0.055 0.008-0.085 0.006-0.045-0.003-0.112-0.018-0.156-0.006-0.036 0.010-0.084 0.050-0.1 0.078-0.021 0.037-0.036 0.057-0.069 0.086-0.029 0.026-0.045 0.055-0.076 0.079-0.061 0.048-0.115 0.108-0.179 0.156-0.028 0.020-0.059 0.031-0.087 0.050-0.021 0.014-0.048 0.016-0.070 0.027-0.018 0.010-0.036 0.018-0.055 0.028-0.033 0.016-0.074 0.038-0.108 0.043-0.025 0.003-0.050 0-0.075-0.001-0.012-0.001-0.024-0.002-0.035-0.002-0.022-0.001-0.029-0.008-0.045-0.013-0.070-0.022-0.126-0.066-0.178-0.121-0.031-0.033-0.034-0.077-0.046-0.116-0.014-0.045-0.021-0.085-0.036-0.126-0.007-0.018-0.008-0.037-0.018-0.057-0.009-0.017-0.014-0.035-0.022-0.053-0.008-0.020-0.012-0.035-0.038-0.034s-0.039 0.025-0.058 0.036c-0.036 0.022-0.083 0.035-0.118 0.058-0.030 0.020-0.058 0.051-0.086 0.075-0.029 0.025-0.057 0.055-0.092 0.071s-0.039 0.024-0.064 0.052c-0.014 0.016-0.030 0.040-0.045 0.053-0.020 0.017-0.037 0.019-0.056 0.041-0.014 0.016-0.031 0.037-0.048 0.049-0.034 0.024-0.078 0.041-0.114 0.059-0.018 0.009-0.043 0.025-0.062 0.028-0.022 0.004-0.045-0.005-0.068-0.002-0.032 0.005-0.124 0.032-0.145-0.006-0.004 0.003-0.018 0.005-0.021 0.008-0.012-0.022-0.039-0.011-0.060-0.015-0.018-0.003-0.038-0.010-0.055-0.017-0.047-0.019-0.093-0.040-0.135-0.067-0.069-0.045-0.106-0.109-0.145-0.175-0.019-0.032-0.041-0.063-0.059-0.096-0.017-0.031-0.032-0.078-0.064-0.098-0.031-0.019-0.076-0.001-0.101 0.015-0.031 0.020-0.060 0.040-0.088 0.064s-0.042 0.047-0.061 0.079c-0.017 0.029-0.046 0.060-0.057 0.091-0.013 0.034-0.022 0.058-0.052 0.085-0.012 0.011-0.029 0.019-0.039 0.029-0.005 0.004-0.002 0.016-0.007 0.021-0.013 0.014-0.031 0.026-0.045 0.038-0.016 0.013-0.024 0.030-0.038 0.044s-0.029 0.016-0.045 0.028c-0.025 0.018-0.054 0.042-0.075 0.064-0.011 0.011-0.005 0.014-0.018 0.024-0.001 0.001-0.018 0.009-0.019 0.009-0.018 0.007-0.035 0.011-0.054 0.018-0.043 0.014-0.098 0.030-0.144 0.030-0.052-0-0.095-0.007-0.142 0.005-0.016 0.004-0.018-0.001-0.033 0.008-0.008 0.005-0.014 0.015-0.022 0.020-0.019 0.012-0.033 0.020-0.051 0.035s-0.041 0.021-0.060 0.035c-0.016 0.011-0.028 0.027-0.044 0.038-0.020 0.015-0.116 0.060-0.099 0.093 0.006 0.002 0.009 0 0.011-0.005 0.011 0.017 0.040-0.002 0.057-0.004 0.014-0.001 0.026 0.002 0.040-0 0.013-0.002 0.013-0.012 0.032-0.010 0.016 0.002 0.026 0.016 0.042 0.018 0.015 0.003 0.023-0.004 0.036-0.006 0.031-0.005 0.060-0.003 0.092-0.001 0.028 0.002 0.057 0.004 0.085 0.005s0.044 0.012 0.070 0.018c0.026 0.006 0.058 0.003 0.085 0.004 0.014 0.001 0.028 0.002 0.042 0.003 0.021 0.001 0.030 0.009 0.045 0.013 0.054 0.014 0.099-0.006 0.153-0.002 0.033 0.002 0.054-0.006 0.086-0.010 0.029-0.003 0.044 0.001 0.071-0.009 0.049-0.018 0.106-0.036 0.158-0.032 0.022 0.002 0.049 0.007 0.071 0.005 0.034-0.004 0.063-0.018 0.1-0.010 0.031 0.007 0.050 0.018 0.084 0.020 0.028 0.002 0.046-0.002 0.071-0.007 0.024-0.004 0.063-0.017 0.086-0.013 0.016 0.003 0.026 0.014 0.042 0.018 0.017 0.004 0.039 0.001 0.056 0.002 0.050 0.003 0.086-0.035 0.133-0.044 0.026-0.005 0.055 0 0.082 0.002 0.033 0.002 0.054-0.006 0.086-0.010 0.014-0.002 0.029 0.003 0.042 0.004 0.018 0 0.026-0.005 0.043-0.009 0.028-0.005 0.056 0.006 0.085 0.003 0.053-0.006 0.111-0.034 0.159-0.047 0.041-0.011 0.083-0.015 0.126-0.023 0.011-0.002 0.016-0.008 0.032-0.009 0.014-0.001 0.029 0.002 0.043 0.003s0.028 0.001 0.042 0.002c0.021 0.002 0.031-0.006 0.046-0.008 0.023-0.003 0.045 0.002 0.068-0.002 0.031-0.006 0.053-0.008 0.085-0.006 0.026 0.001 0.061 0.010 0.086 0.006 0.027-0.005 0.037-0.016 0.068-0.008 0.010 0.003 0.017 0.010 0.030 0.013s0.029 0.001 0.043 0.002c0.028 0.002 0.057 0.003 0.085 0.005 0.056 0.003 0.113 0.006 0.17 0.010 0.014 0.001 0.029 0.004 0.043 0.003 0.015-0.001 0.021-0.007 0.032-0.009 0.023-0.004 0.045-0.009 0.069-0.013 0.024-0.004 0.053-0.015 0.075-0.020 0.015-0.003 0.025-0 0.040-0 0.009-0.002 0.017-0.004 0.025-0.007 0.005 0.004 0.010 0.007 0.016 0.009 0.043-0.001 0.087-0.032 0.13-0.035 0.032-0.002 0.054 0.001 0.086-0.008 0.026-0.008 0.060-0.020 0.086-0.023s0.058 0.006 0.085 0.006c0.032 0 0.057-0.014 0.087-0.026 0.026-0.011 0.044-0.021 0.072-0.020 0.036 0 0.065 0.008 0.1-0.004 0.046-0.016 0.093-0.040 0.144-0.037 0.028 0.002 0.057 0.005 0.085 0.005 0.036 0 0.066-0.019 0.1-0.023 0.044-0.005 0.111 0.002 0.152 0.013 0.021 0.005 0.048 0.024 0.072 0.029 0.031 0.007 0.054 0.003 0.084 0.015 0.023 0.009 0.051 0.025 0.072 0.032 0.025 0.008 0.055 0.007 0.081 0.008 0.025 0.001 0.050 0.019 0.071 0.019 0.013 0 0.015-0.012 0.028-0.014 0.016-0.003 0.040 0.003 0.057 0.004 0.052 0.003 0.092 0.003 0.139-0.009 0.017-0.004 0.040-0.018 0.058-0.025 0.038-0.015 0.036-0.028 0.049-0.064 0.032-0.088 0.115-0.151 0.173-0.224 0.015-0.019 0.026-0.034 0.046-0.050s0.042-0.022 0.059-0.038c0.032-0.028 0.067-0.073 0.088-0.109 0.024-0.041 0.033-0.092 0.047-0.136 0.008-0.026 0.019-0.055 0.022-0.082 0.002-0.014 0-0.028 0.002-0.042 0.002-0.021 0.014-0.034 0.018-0.054s0.002-0.048 0.003-0.069c0.002-0.033 0.013-0.052 0.020-0.082 0.006-0.025 0.007-0.045 0.017-0.068 0.010-0.022 0.025-0.051 0.030-0.071 0.004-0.013 0.002-0.025 0.005-0.038s0.010-0.020 0.013-0.030c0.006-0.023 0.010-0.055 0.008-0.080-0.002-0.022-0.010-0.033-0.012-0.055-0.001-0.014 0.004-0.028 0.003-0.042-0.002-0.019-0.010-0.024-0.013-0.041-0.005-0.027-0.002-0.058-0.008-0.085-0.004-0.018-0.011-0.032-0.015-0.052-0.009-0.046-0.030-0.095-0.045-0.144-0.014-0.045-0.032-0.085-0.053-0.124s-0.035-0.079-0.060-0.118c-0.055-0.084-0.101-0.171-0.166-0.248-0.029-0.034-0.064-0.046-0.095-0.075s-0.055-0.075-0.097-0.086c-0.051-0.014-0.105-0.017-0.155-0.033-0.015-0.005-0.026-0.004-0.042-0.005-0.018-0.002-0.025-0.009-0.042-0.014-0.028-0.008-0.053-0.014-0.080-0.025-0.045-0.018-0.095-0.029-0.143-0.046-0.046-0.016-0.091-0.052-0.137-0.064-0.012-0.003-0.027-0.001-0.040-0.004-0.009-0.002-0.018-0.010-0.030-0.013-0.022-0.004-0.048-0.002-0.071-0.004-0.062-0.004-0.107-0.020-0.169-0.024-0.050-0.003-0.102-0.012-0.143-0.032-0.044-0.022-0.099-0.047-0.15-0.037-0.031 0.006-0.050 0.012-0.082 0.003-0.010-0.003-0.017-0.010-0.030-0.013s-0.029-0.002-0.043-0.002c-0.023-0.001-0.048-0.006-0.071-0.004-0.018 0.001-0.025 0.004-0.043 0.002s-0.032-0.014-0.045-0.017c-0.026-0.007-0.053-0.004-0.078-0.011-0.005-0.001-0.009-0.010-0.016-0.012-0.012-0.004-0.031-0.001-0.043-0.002-0.053-0.003-0.098-0.023-0.147-0.038-0.028-0.009-0.046-0.016-0.077-0.017-0.014-0-0.030 0-0.043-0.002-0.015-0.003-0.020-0.010-0.030-0.013-0.024-0.008-0.043-0.016-0.066-0.021-0.028-0.005-0.057 0.001-0.085-0.008-0.056-0.018-0.107-0.031-0.168-0.034-0.024-0.001-0.047-0.003-0.071-0.004-0.036-0.002-0.064-0.016-0.098-0.020-0.112-0.012-0.217-0.005-0.32 0.025-0.067 0.020-0.101-0.010-0.161-0.036-0.028-0.012-0.054-0.020-0.084-0.022-0.009-0-0.021 0-0.029-0.001-0.019-0.004-0.024-0.012-0.040-0.017-0.013-0.004-0.026-0-0.040-0.005-0.004-0.001-0.025-0.013-0.030-0.016-0.027-0.013-0.048-0.013-0.078-0.015-0.062-0.003-0.114-0.020-0.176-0.024-0.030-0.002-0.050 0.007-0.079 0.010-0.025 0.002-0.053-0.004-0.078-0.005-0.028-0.002-0.056-0.003-0.085-0.005-0.014-0.001-0.029-0.004-0.043-0.003s-0.022 0.008-0.032 0.009c-0.058 0.009-0.107-0.025-0.166-0.021-0.025 0.002-0.037 0.014-0.063 0.009-0.009-0.002-0.011-0.012-0.021-0.015-0.016-0.005-0.040-0.001-0.057-0.003-0.014-0.001-0.027 0.001-0.039 0.001-0.002 0.003-0.005 0.005-0.007 0.008-0.010 0.001-0.018-0.002-0.024-0.010-0.026-0.004-0.052-0.005-0.078-0.008-0.024-0.003-0.040-0.020-0.063-0.019-0.013 0.001-0.015 0.012-0.028 0.014s-0.046 0-0.058-0.003c-0.013-0.004-0.013-0.013-0.026-0.017-0.009-0.003-0.020 0.001-0.029-0.001-0.026-0.005-0.043-0.013-0.070-0.018-0.024-0.004-0.042-0.014-0.066-0.021-0.012-0.004-0.046-0.014-0.052-0.029 0.008 0.008 0.010 0.019 0.006 0.030z"></path>
<path d="M18.171 5.035c-0.004-0.028-0.027-0.029-0.025-0.064 0.001-0.014 0.008-0.058 0.030-0.039 0.026-0.024 0.052 0.009 0.066 0.028 0.016 0.021 0.031 0.042 0.046 0.065 0.012 0.018 0.026 0.041 0.035 0.060 0.008 0.015 0.005 0.040 0.014 0.054 0.008 0.013 0.017 0.018 0.024 0.031 0.005 0.011 0.005 0.029 0.011 0.043 0.008 0.016 0.011 0.023 0.012 0.042 0.002 0.031 0.006 0.053 0.012 0.084 0.006 0.036 0.022 0.062 0.020 0.098s-0.016 0.056-0.020 0.088c-0.006 0.061-0.037 0.11-0.055 0.167-0.006 0.020-0.021 0.049-0.032 0.070-0.015 0.027-0.039 0.044-0.054 0.070-0.025 0.044-0.077 0.089-0.12 0.118-0.032 0.021-0.144 0.088-0.173 0.058-0.020 0.026-0.033 0.003-0.050-0.002-0.010-0.003-0.024-0.001-0.032-0.004-0.014-0.005-0.012-0.008-0.023-0.016-0.020-0.013-0.043-0.019-0.055-0.041-0.008-0.014-0.019-0.030-0.026-0.046-0.010-0.022-0.005-0.041-0.017-0.061-0.009-0.014-0.024-0.025-0.033-0.039-0.020-0.032-0.051-0.067-0.058-0.104-0.017-0.086-0.021-0.195 0.015-0.278 0.013-0.030 0.024-0.060 0.049-0.085 0.030-0.029 0.041-0.066 0.061-0.102s0.036-0.076 0.051-0.116c0.012-0.030 0.045-0.106 0.063-0.038 0.008 0.032 0.020 0.066 0.029 0.098 0.007 0.025 0.009 0.045 0.014 0.070s0.005 0.049 0.008 0.075c0.002 0.017 0.012 0.028 0.010 0.050-0.002 0.023-0.003 0.046-0.004 0.069s-0.002 0.046-0.004 0.069c-0 0.008-0.003 0.020-0.002 0.028 0.001 0.016 0.010 0.024 0.011 0.036 0.003 0.024-0.008 0.090 0.038 0.092 0.042 0.002 0.066-0.082 0.078-0.108 0.007-0.017 0.014-0.035 0.017-0.054 0.002-0.013-0.002-0.029 0.001-0.042 0.004-0.015 0.014-0.025 0.018-0.040 0.011-0.046 0.005-0.104 0.008-0.152 0.002-0.027 0.007-0.057 0.002-0.083-0.005-0.024-0.012-0.044-0.007-0.070 0.008-0.041 0.049-0.064 0.086-0.075 0.009 0.015 0.027 0.014 0.043 0.016-0 0.026 0.015 0.038-0.082-0.021z"></path>
<path d="M16.734 5.103c-0.014-0.002-0.022-0.013-0.011-0.026 0.004-0.005 0.024-0.001 0.026-0.001 0.019-0.001 0.053 0 0.071 0.007 0.022 0.008 0.027 0.025 0.043 0.038s0.041 0.015 0.059 0.022c0.037 0.013 0.048 0.046 0.077 0.069 0.012 0.010 0.038 0.012 0.049 0.023 0.015 0.014 0.022 0.035 0.028 0.053 0.016 0.043 0.024 0.074 0.022 0.12-0.001 0.021-0.004 0.042-0.004 0.063 0 0.013 0.003 0.014 0.003 0.026-0.001 0.014-0.006 0.028-0.006 0.042-0.002 0.044-0.024 0.098-0.047 0.136-0.016 0.028-0.037 0.060-0.062 0.082-0.030 0.027-0.048 0.064-0.076 0.093-0.025 0.026-0.055 0.049-0.085 0.067-0.032 0.020-0.062 0.040-0.096 0.057-0.022 0.011-0.032 0.012-0.057 0.010-0.031-0.002-0.042-0.013-0.070-0.018-0.022-0.004-0.043 0.002-0.064-0.010-0.008-0.005-0.016-0.016-0.023-0.020-0.011-0.005-0.022-0.001-0.032-0.004-0.013-0.004-0.034-0.011-0.045-0.020-0.007-0.006-0.011-0.018-0.019-0.023-0.011-0.007-0.025-0-0.036-0.008-0.016-0.010-0.022-0.033-0.039-0.045-0.021-0.015-0.026-0.017-0.040-0.040-0.010-0.017-0.023-0.019-0.036-0.031-0.014-0.014-0.022-0.027-0.030-0.045-0.011-0.023-0.024-0.041-0.032-0.064-0.006-0.016-0.019-0.038-0.021-0.054-0.006-0.055 0.020-0.102 0.022-0.156 0.001-0.027 0.012-0.037 0.018-0.061 0.003-0.011-0.003-0.025 0.001-0.036s0.012-0.014 0.017-0.025c0.008-0.022 0.021-0.050 0.029-0.071 0.007-0.018 0.022-0.044 0.023-0.062 0.038-0.002 0.053-0.019 0.086-0.001 0.023 0.012 0.020 0.010 0.034 0.033 0.006 0.010 0.013 0.016 0.020 0.025 0.016 0.019 0.034 0.042 0.052 0.058 0.026 0.022 0.056 0.034 0.076 0.064 0.036 0.052 0.039 0.106 0.036 0.168-0.001 0.018-0.001 0.035-0.006 0.052-0.004 0.015-0.016 0.022-0.014 0.044 0.002 0.017 0.007 0.069 0.024 0.078 0.007 0.004 0.043-0.003 0.054-0.008 0.028-0.011 0.042-0.041 0.056-0.063 0.032-0.051 0.056-0.095 0.059-0.156 0.002-0.034 0.004-0.069 0.006-0.103 0.001-0.018 0.003-0.034 0-0.052-0.002-0.012-0.010-0.021-0.009-0.038 0.002-0.042 0.020-0.048 0.060-0.045 0.030 0.002 0.077-0.007 0.083 0.032z"></path>
<path d="M20.549 16.559l-0.375 1.114c0.002 0.030 0.022 0.028 0.049 0.014 0.019-0.051 0.040-0.101 0.056-0.153 0.101-0.32 0.225-0.641 0.27-0.975z"></path>
<path d="M21.028 4.809c-0.017-0.019-0.038-0.040-0.060-0.054 0.002-0.011 0.002-0.022 0.002-0.033zM25.865 8.947c-0.003-0.016 0.001-0.037 0.001-0.053 0-0.040 0-0.080 0-0.12-0-0.038 0.016-0.067 0.014-0.106-0.001-0.024-0.013-0.042-0.014-0.066-0.001-0.017 0.004-0.036 0.001-0.053-0.004-0.023-0.014-0.036-0.014-0.060-0-0.018-0-0.036 0-0.053 0.001-0.080-0.036-0.158-0.063-0.232-0.008-0.021-0.015-0.044-0.016-0.066-0.001-0.017 0.004-0.036 0.001-0.053-0.006-0.032-0.019-0.063-0.030-0.092-0.007-0.016-0.020-0.037-0.024-0.053-0.004-0.019-0.001-0.034-0.009-0.054-0.012-0.029-0.024-0.055-0.031-0.085-0.014-0.055-0.043-0.123-0.085-0.167-0.022-0.024-0.053-0.035-0.073-0.061-0.007-0.009-0.018-0.022-0.028-0.035-0-0.008-0-0.015-0.002-0.023-0.006-0.027-0.014-0.055-0.020-0.083-0.013-0.054-0.031-0.106-0.053-0.156-0.010-0.023-0.022-0.043-0.030-0.067-0.006-0.017-0.006-0.036-0.012-0.052-0.016-0.046-0.025-0.078-0.051-0.12-0.044-0.072-0.061-0.157-0.112-0.223-0.056-0.072-0.11-0.145-0.166-0.218-0.016-0.022-0.027-0.048-0.043-0.069-0.013-0.016-0.028-0.028-0.040-0.048-0.016-0.026-0.035-0.043-0.054-0.066-0.016-0.020-0.023-0.046-0.039-0.066-0.052-0.069-0.099-0.149-0.163-0.209-0.033-0.031-0.073-0.050-0.11-0.076-0.031-0.022-0.066-0.052-0.1-0.070-0.016-0.009-0.033-0.014-0.050-0.022-0.025-0.023-0.050-0.044-0.074-0.069-0.018-0.018-0.039-0.032-0.055-0.051-0.015-0.017-0.024-0.036-0.039-0.053-0.035-0.040-0.081-0.064-0.13-0.083-0.059-0.024-0.12-0.033-0.179-0.053s-0.118-0.033-0.179-0.046c-0.029-0.006-0.057-0.015-0.085-0.024-0.010-0.006-0.018-0.012-0.029-0.016-0.014-0.006-0.027-0.021-0.042-0.024-0.018-0.004-0.037-0.002-0.054-0.006-0.013-0.004-0.028-0.005-0.042-0.006-0.056-0.016-0.115-0.033-0.164-0.060-0.074-0.041-0.138-0.088-0.199-0.146-0.057-0.054-0.106-0.106-0.176-0.142-0.109-0.058-0.228-0.084-0.346-0.119-0.105-0.031-0.19-0.096-0.284-0.146s-0.197-0.104-0.302-0.128c-0.054-0.012-0.099-0.042-0.151-0.061-0.048-0.018-0.094-0.037-0.144-0.050-0.087-0.022-0.177-0.035-0.263-0.066-0.044-0.016-0.088-0.035-0.133-0.050-0.040-0.014-0.080-0.026-0.12-0.040-0.084-0.029-0.172-0.035-0.258-0.065-0.011-0.004-0.022-0.006-0.033-0.010-0.001-0.006 0-0.013-0.002-0.018-0.011-0.026-0.050-0.049-0.078-0.053l0.035 0.058c-0.047-0.013-0.094-0.026-0.138-0.043-0.001 0.001-0.001 0.003-0.002 0.004-0.001-0.001-0.002-0.002-0.004-0.003-0.026-0.014-0.068-0.019-0.097-0.028-0.025-0.008-0.046-0.018-0.069-0.025-0.018-0.005-0.040 0.002-0.058-0.002-0.013-0.003-0.017-0.009-0.028-0.014-0.024-0.011-0.056-0.024-0.078-0.031-0.049-0.015-0.098-0.051-0.15-0.053l0.175 0.162c-0.001 0.030-0.006 0.044 0.014 0.066s0.044 0.037 0.061 0.063c0.026 0.040 0.031 0.078 0.042 0.123 0.011 0.046 0.029 0.097 0.042 0.144 0.006 0.025 0.008 0.052 0.014 0.076 0.005 0.019 0.026 0.037 0.035 0.055 0.019 0.036 0.033 0.076 0.040 0.115 0.004 0.018 0.012 0.028 0.010 0.050-0.001 0.012-0.005 0.030-0.003 0.042 0.001 0.006 0.010 0.013 0.011 0.017 0.016 0.092-0.022 0.183-0.027 0.272-0.001 0.013 0.002 0.030-0.002 0.042-0.004 0.014-0.013 0.010-0.014 0.026-0 0.006 0.010 0.023 0.011 0.029 0.002 0.011-0.003 0.024-0.003 0.035-0 0.022 0.011 0.031 0.013 0.048 0.002 0.025-0.021 0.030-0.020 0.055 0.002 0.023 0.018 0.031 0.010 0.061-0.004 0.017-0.015 0.027-0.016 0.049-0.002 0.049-0.017 0.090-0.022 0.137-0.003 0.026-0.017 0.045-0.026 0.068-0.007 0.018-0.004 0.037-0.009 0.056-0.007 0.022-0.017 0.027-0.018 0.054-0.001 0.029-0.009 0.030-0.018 0.054s-0.010 0.052-0.025 0.076c-0.010 0.017-0.025 0.028-0.035 0.046-0.012 0.021-0.010 0.030-0.033 0.043-0.020 0.011-0.046 0.014-0.063 0.031-0.024 0.025-0.032 0.056-0.061 0.080-0.025 0.021-0.048 0.045-0.075 0.065-0.030 0.022-0.066 0.032-0.099 0.050-0.016 0.008-0.031 0.017-0.047 0.024-0.020 0.009-0.048 0.012-0.064 0.024 0.006 0.021 0.052 0.028 0.070 0.036 0.033 0.014 0.066 0.009 0.099 0.019 0.014 0.004 0.020 0.013 0.033 0.017 0.015 0.004 0.033-0.001 0.049 0.003 0.023 0.006 0.047 0.023 0.070 0.031 0.018 0.006 0.037 0.007 0.056 0.015 0.016 0.007 0.032 0.014 0.049 0.019 0.033 0.010 0.062 0.018 0.098 0.019 0.018 0.001 0.036 0 0.053 0.006 0.007 0.002 0.006 0.010 0.016 0.012 0.007 0.002 0.016-0.002 0.022 0 0.013 0.004 0.021 0.013 0.033 0.017 0.015 0.004 0.035 0 0.050 0.002 0.033 0.003 0.058 0.020 0.090 0.030 0.030 0.009 0.067 0.007 0.099 0.009 0.067 0.004 0.142 0 0.205 0.019 0.035 0.011 0.069 0.017 0.105 0.030 0.028 0.010 0.054 0.024 0.083 0.029 0.036 0.006 0.071 0.012 0.105 0.021 0.019 0.005 0.029 0.014 0.049 0.016 0.016 0.002 0.033-0.001 0.049 0.004 0.035 0.010 0.068 0.029 0.104 0.033 0.034 0.003 0.065 0.013 0.098 0.022 0.067 0.020 0.126 0.052 0.191 0.080 0.053 0.023 0.116 0.053 0.163 0.088 0.041 0.030 0.087 0.062 0.131 0.088 0.051 0.031 0.102 0.062 0.139 0.108 0.048 0.061 0.092 0.123 0.153 0.172 0.048 0.039 0.098 0.073 0.15 0.102 0.047 0.026 0.088 0.052 0.126 0.094 0.031 0.034 0.072 0.068 0.097 0.106 0.017 0.025 0.024 0.059 0.041 0.086 0.013 0.021 0.033 0.036 0.046 0.057 0.034 0.054 0.058 0.112 0.095 0.164 0.039 0.056 0.059 0.121 0.098 0.175 0.019 0.026 0.036 0.058 0.052 0.086 0.014 0.023 0.026 0.049 0.038 0.075 0.026 0.061 0.052 0.117 0.078 0.177 0.030 0.068 0.051 0.139 0.080 0.206 0.012 0.029 0.026 0.060 0.039 0.090s0.037 0.056 0.050 0.087c0.028 0.064 0.051 0.121 0.063 0.187 0.005 0.028 0.015 0.064 0.021 0.094 0.003 0.017 0.008 0.032 0.010 0.049 0.002 0.014 0.009 0.024 0.011 0.036 0.010 0.060 0.015 0.119 0.033 0.174 0.019 0.057 0.034 0.117 0.061 0.175 0.023 0.048 0.063 0.109 0.062 0.164-0.001 0.034 0.003 0.070 0.009 0.103 0.002 0.014 0.010 0.020 0.011 0.036s0.001 0.027 0.004 0.042c0.006 0.031-0.002 0.065 0.005 0.097 0.007 0.034 0.008 0.061 0.005 0.097-0.004 0.065 0.004 0.144-0.011 0.207-0.008 0.035-0.024 0.068-0.034 0.102-0.008 0.028 0.003 0.062-0.006 0.090-0.006 0.020-0.015 0.022-0.018 0.046-0.002 0.016-0.002 0.032-0.003 0.048-0.002 0.032-0.004 0.064-0.006 0.096-0.004 0.067-0.010 0.125-0.026 0.185-0.006 0.020-0.013 0.032-0.016 0.054-0.002 0.016-0.009 0.024-0.013 0.037-0.010 0.027-0.007 0.050-0.025 0.075s-0.032 0.050-0.044 0.076c-0.015 0.033-0.013 0.061-0.019 0.096-0.006 0.037-0.030 0.067-0.046 0.101-0.010 0.022-0.034 0.071-0.024 0.096 0.011 0.028 0.046 0 0.067-0.009 0.027-0.012 0.055-0.018 0.085-0.023 0.033-0.006 0.058-0.008 0.093-0.010 0.030-0.001 0.051-0.011 0.085-0.009 0.035 0.002 0.071 0.004 0.106 0.006 0.037 0.002 0.064 0.014 0.098 0.020s0.060 0.005 0.091 0.018c0.033 0.014 0.065 0.018 0.098 0.030 0.074 0.028 0.132 0.063 0.196 0.108 0.057 0.040 0.094 0.089 0.141 0.139 0.042 0.046 0.077 0.089 0.109 0.142 0.028 0.047 0.078 0.079 0.099 0.13 0.024 0.058 0.047 0.116 0.078 0.171 0.015 0.028 0.028 0.052 0.056 0.065 0.030 0.013 0.060 0.009 0.091-0.003 0.051-0.020 0.102-0.055 0.131-0.098 0.031-0.044 0.056-0.084 0.083-0.13 0.028-0.049 0.067-0.095 0.099-0.14 0.030-0.043 0.073-0.085 0.1-0.133 0.030-0.053 0.042-0.109 0.076-0.161 0.010-0.016 0.025-0.036 0.029-0.054 0.002-0.009-0.002-0.019 0-0.028s0.012-0.019 0.014-0.027c0.005-0.026-0.009-0.046-0.007-0.076 0.002-0.028 0-0.060 0.007-0.088 0.028-0.060 0.052-0.121 0.068-0.182 0.003-0.013 0.009-0.012 0.011-0.029 0.001-0.009-0.002-0.018-0.001-0.027 0.003-0.019 0.013-0.033 0.014-0.053 0.001-0.018-0.002-0.036-0-0.053 0.001-0.022 0.011-0.038 0.014-0.060 0.002-0.020-0.003-0.040-0.001-0.060s0.009-0.022 0.014-0.039c0.012-0.038 0.007-0.075 0.014-0.114 0.004-0.020 0.020-0.037 0.024-0.054 0.004-0.016 0.001-0.035 0.001-0.052-0-0.019-0.002-0.038 0.003-0.057 0.004-0.016 0.011-0.022 0.010-0.043-0.001-0.026 0.009-0.031 0.014-0.052 0.004-0.015-0-0.038-0.001-0.054-0-0.038 0.014-0.068 0.013-0.106-0-0.021-0.003-0.046-0-0.067 0.002-0.019 0.009-0.022 0.014-0.039 0.010-0.031 0.025-0.068 0.026-0.1 0.001-0.020-0.001-0.038 0.003-0.057 0.001-0.003 0.010-0.010 0.011-0.016 0.002-0.011-0.003-0.023-0.001-0.034 0.003-0.015 0.011-0.024 0.014-0.039 0.004-0.017-0-0.043-0-0.060 0-0.075 0.001-0.15 0-0.226-0-0.043 0.014-0.077 0.013-0.119-0-0.035 0-0.071 0-0.106 0-0.073 0.013-0.16-0.001-0.231-0.003-0.017-0.019-0.025-0.013-0.048 0.005-0.020 0.013-0.021 0.014-0.046 0.002-0.038-0-0.075-0-0.113 0-0.020 0-0.040 0-0.060 0-0.010-0.003-0.024-0.001-0.034 0.001-0.004 0.011-0.016 0.011-0.016 0.002-0.020-0.008-0.030-0.011-0.050z"></path>
<path d="M22.206 26.819c0.034-0.017 0.064-0.026 0.094-0.050 0.054-0.042 0.109-0.078 0.161-0.12 0.114-0.092 0.255-0.148 0.377-0.228 0.232-0.153 0.444-0.327 0.699-0.451 0.191-0.092 0.363-0.216 0.553-0.306 0.002-0.062 0.009-0.126 0.016-0.19 0.091-0.005 0.188-0.027 0.29-0.070 0.504-0.211 1.018-0.476 1.545-0.627 0.544-0.156 1.392-0.23 0.67 0.586-0.558 0.631-1.619 0.714-2.266 1.319-0.411 0.384-0.65 0.911-0.543 1.44 0.164 0.168 0.324 0.356 0.492 0.532 0.546 0.219 1.218 0.345 1.864 0.345 0.38-0.080 0.745-0.202 1.105-0.34-0.039-0.411-0.32-0.805-0.85-0.825-0.174 0.012-0.342-0.008-0.503-0.059 0.128-0.089 0.256-0.188 0.378-0.24 0.44-0.186 0.856-0.289 1.238-0.594 0.698-0.558 1.337-1.485 1.178-2.415-0.133-0.781-0.801-1.376-1.549-1.573-1.118-0.294-2.234 0.318-3.232 0.736-0.122 0.051-0.222 0.12-0.304 0.201-0.018 0.006-0.034 0.012-0.053 0.017-0.189 0.054-0.376 0.159-0.557 0.233-0.19 0.078-0.388 0.166-0.56 0.276-0.159 0.102-0.33 0.181-0.507 0.255-0.088 0.037-0.169 0.078-0.253 0.121-0.087 0.044-0.155 0.061-0.25 0.077-0.083 0.013-0.168 0.055-0.251 0.078-0.077 0.021-0.148 0.043-0.224 0.066-0.061 0.018-0.102 0.031-0.159 0.061-0.031 0.016-0.065 0.037-0.096 0.051-0.040 0.018-0.078 0.024-0.117 0.043-0.043 0.021-0.086 0.049-0.133 0.063-0.092 0.027-0.183 0.036-0.276 0.065-0.083 0.027-0.165 0.047-0.25 0.062-0.054 0.009-0.101 0.016-0.156 0.015-0.047-0.001-0.084 0.019-0.131 0.019-0.038-0-0.078-0.011-0.116-0.008-0.042 0.004-0.075 0.020-0.118 0.020-0.095-0-0.17-0.002-0.26 0.015-0.080 0.015-0.15 0.010-0.233 0.006-0.058-0.003-0.098-0.029-0.153-0.035-0.046-0.005-0.070-0.009-0.108-0.025-0.070-0.028-0.13-0.057-0.197-0.087-0.075-0.034-0.116-0.084-0.178-0.137-0.050-0.042-0.094-0.071-0.137-0.121-0.090-0.106-0.161-0.252-0.186-0.383-0.009-0.048-0.024-0.104-0.023-0.153 0-0.016 0.006-0.034 0.004-0.051-0.002-0.024-0.015-0.039-0.017-0.056-0.012-0.076 0.004-0.15 0.027-0.22 0.016-0.047 0.006-0.098 0.020-0.145 0.008-0.029 0.036-0.070 0.046-0.104 0.021-0.069 0.046-0.133 0.070-0.197 0.054-0.143 0.085-0.286 0.159-0.415 0.072-0.124 0.139-0.249 0.216-0.372 0.078-0.124 0.156-0.24 0.241-0.36 0.045-0.063 0.103-0.118 0.152-0.179 0.045-0.056 0.090-0.12 0.14-0.17 0.104-0.105 0.216-0.217 0.316-0.328 0.11-0.121 0.233-0.22 0.356-0.327 0.106-0.092 0.196-0.195 0.301-0.285 0.1-0.086 0.187-0.17 0.262-0.274 0.112-0.157 0.26-0.286 0.387-0.432 0.108-0.125 0.21-0.249 0.32-0.373 0.215-0.242 0.415-0.493 0.607-0.754 0.058-0.080 0.093-0.163 0.149-0.244 0.048-0.068 0.096-0.124 0.142-0.194 0.106-0.161 0.2-0.334 0.319-0.486 0.059-0.076 0.128-0.14 0.186-0.216 0.033-0.044 0.071-0.072 0.099-0.12 0.021-0.037 0.043-0.073 0.065-0.11 0.048-0.083 0.108-0.155 0.163-0.23 0.043-0.060 0.078-0.126 0.119-0.184 0.051-0.072 0.104-0.128 0.149-0.204s0.071-0.161 0.124-0.234c0.1-0.138 0.209-0.273 0.309-0.409 0.059-0.081 0.111-0.172 0.164-0.257 0.036-0.058 0.096-0.098 0.129-0.158 0.046-0.083 0.080-0.174 0.128-0.256s0.099-0.152 0.15-0.231c0.054-0.084 0.119-0.163 0.163-0.25 0.014-0.027 0.042-0.050 0.057-0.077 0.021-0.036 0.031-0.075 0.051-0.112 0.092-0.17 0.149-0.359 0.225-0.53 0.036-0.082 0.096-0.148 0.124-0.239 0.026-0.082 0.050-0.16 0.072-0.241 0.023-0.088 0.061-0.173 0.088-0.26 0.024-0.079 0.036-0.158 0.058-0.236 0.024-0.086 0.020-0.177 0.048-0.262 0.024-0.072 0.015-0.163 0.020-0.238 0.010-0.167 0.023-0.316-0.038-0.469-0.026-0.067-0.065-0.124-0.1-0.188-0.031-0.057-0.034-0.105-0.090-0.15-0.059-0.048-0.113-0.073-0.165-0.13-0.051-0.055-0.093-0.086-0.155-0.129-0.125-0.087-0.237-0.204-0.37-0.275-0.080-0.042-0.18-0.046-0.27-0.052-0.049-0.004-0.061 0.014-0.103 0.020-0.017 0.003-0.037-0.009-0.054-0.006-0.021 0.003-0.023 0.018-0.041 0.022-0.068 0.012-0.137 0.053-0.202 0.084-0.071 0.034-0.111 0.104-0.159 0.16-0.047 0.055-0.101 0.093-0.145 0.152-0.044 0.060-0.076 0.124-0.111 0.188-0.082 0.149-0.128 0.323-0.205 0.468-0.037 0.070-0.048 0.152-0.071 0.23-0.002 0.006-0.020 0.018-0.023 0.028-0.007 0.021-0.002 0.055-0.003 0.077-0.002 0.049-0.013 0.079-0.028 0.125-0.008 0.026-0.001 0.052-0.009 0.076-0.004 0.013-0.021 0.020-0.023 0.028-0.006 0.023-0.002 0.049-0.008 0.071-0.004 0.012-0.021 0.021-0.023 0.028-0.025 0.081-0.036 0.164-0.072 0.243-0.071 0.155-0.13 0.316-0.208 0.466-0.15 0.286-0.31 0.569-0.457 0.858-0.035 0.070-0.083 0.135-0.116 0.201-0.019 0.039-0.023 0.083-0.039 0.12-0.014 0.033-0.045 0.063-0.064 0.096-0.024 0.040-0.036 0.083-0.058 0.123-0.022 0.041-0.061 0.079-0.086 0.121-0.044 0.074-0.075 0.143-0.11 0.221-0.016 0.036-0.028 0.072-0.050 0.104-0.026 0.037-0.048 0.075-0.072 0.111-0.042 0.063-0.077 0.13-0.116 0.194-0.066 0.112-0.126 0.23-0.213 0.327-0.056 0.063-0.103 0.145-0.148 0.214-0.044 0.066-0.090 0.129-0.141 0.194-0.041 0.053-0.086 0.102-0.131 0.148-0.014 0.014-0.093 0.096-0.146 0.124-0.058 0.156-0.123 0.31-0.187 0.464-0.054 0.128-0.118 0.277-0.222 0.374-0.099 0.092-0.179 0.202-0.262 0.31-0.048 0.063-0.104 0.118-0.151 0.18-0.041 0.054-0.069 0.116-0.112 0.17-0.049 0.062-0.095 0.106-0.158 0.154-0.047 0.036-0.098 0.086-0.131 0.132-0.040 0.057-0.091 0.105-0.142 0.157-0.043 0.044-0.072 0.094-0.104 0.142-0.069 0.101-0.167 0.186-0.24 0.284-0.136 0.184-0.249 0.386-0.388 0.564-0.040 0.051-0.073 0.105-0.107 0.158-0.038 0.058-0.076 0.11-0.106 0.172-0.058 0.117-0.154 0.229-0.228 0.34-0.021 0.032-0.030 0.064-0.049 0.098-0.019 0.035-0.050 0.055-0.075 0.084-0.036 0.041-0.061 0.083-0.099 0.122-0.104 0.106-0.15 0.256-0.235 0.376-0.076 0.107-0.149 0.207-0.225 0.315-0.043 0.061-0.095 0.118-0.135 0.18s-0.064 0.135-0.104 0.199c-0.070 0.112-0.133 0.227-0.198 0.34-0.032 0.056-0.063 0.102-0.092 0.159s-0.049 0.114-0.075 0.172c-0.028 0.064-0.062 0.119-0.082 0.184-0.016 0.052-0.051 0.107-0.063 0.16-0.014 0.064-0.020 0.132-0.041 0.194-0.006 0.019-0.019 0.029-0.024 0.054-0.006 0.034 0.001 0.068-0.007 0.101-0.032 0.124-0.076 0.248-0.097 0.373-0.011 0.065-0.042 0.123-0.060 0.186-0.015 0.052 0.002 0.111-0.010 0.164-0.009 0.037-0.029 0.060-0.034 0.099-0.003 0.029-0.003 0.059-0.005 0.088-0.003 0.059-0.007 0.118-0.010 0.176-0.007 0.121-0.021 0.244-0.022 0.365-0 0.062 0.021 0.113 0.016 0.178-0.005 0.059 0.011 0.115 0.021 0.172 0.004 0.023 0.016 0.054 0.021 0.083 0.006 0.030 0.012 0.059 0.018 0.089 0.010 0.056 0.039 0.114 0.053 0.167 0.029 0.114 0.043 0.25 0.095 0.36 0.037 0.078 0.102 0.15 0.162 0.216 0.074 0.082 0.156 0.148 0.24 0.219 0.044 0.037 0.089 0.064 0.135 0.099s0.111 0.090 0.162 0.109c0.119 0.044 0.246 0.085 0.368 0.13 0.033 0.012 0.067 0.034 0.101 0.044 0.030 0.009 0.060 0.006 0.090 0.013 0.032 0.008 0.054 0.026 0.089 0.029s0.056 0.006 0.090 0.017c0.115 0.038 0.243 0.034 0.358 0.071 0.113 0.037 0.253 0.027 0.373 0.034 0.245 0.014 0.49 0.028 0.735 0.043 0.062 0.004 0.133 0.018 0.194 0.006 0.072-0.014 0.132-0.007 0.207-0.007 0.068-0 0.124-0.019 0.195-0.014 0.063 0.004 0.109 0.002 0.169-0.010 0.036-0.007 0.068 0.005 0.104 0.002 0.033-0.004 0.059-0.019 0.092-0.022 0.064-0.005 0.119-0.014 0.184-0.013 0.138 0.002 0.271-0.065 0.405-0.098 0.123-0.030 0.245-0.066 0.367-0.086 0.129-0.022 0.256-0.076 0.382-0.115 0.067-0.021 0.134-0.056 0.199-0.084 0.062-0.026 0.124-0.039 0.185-0.065s0.125-0.049 0.186-0.077c0.058-0.027 0.134-0.056 0.188-0.090 0.030-0.019 0.046-0.043 0.079-0.060z"></path>
<path d="M5.153 18.215c0.068-0.073 0.152-0.122 0.227-0.178 0.027-0.021 0.084-0.061 0.102-0.090 0.042-0.069-0.034-0.031-0.063-0.068-0.022 0.024-0.050 0.008-0.079 0.010-0.034 0.003-0.039 0.012-0.067 0.020-0.031 0.009-0.057 0.012-0.084 0.031-0.021 0.015-0.027 0.039-0.054 0.039-0.021-0.042 0.082-0.17 0.107-0.209 0.050-0.078 0.117-0.148 0.162-0.225-0.081-0.027-0.093 0.013-0.153 0.046-0.039 0.021-0.065 0.010-0.106 0.013-0.031 0.002-0.043 0.018-0.067 0.021-0.052 0.007-0.14 0.007-0.192-0.004-0.030-0.006-0.149-0.032-0.148-0.070 0-0.027 0.080-0.068 0.097-0.090 0.017-0.021 0.021-0.041 0.041-0.062 0.016-0.017 0.036-0.032 0.054-0.048 0.079-0.071 0.162-0.127 0.207-0.22-0.039-0.017-0.066 0.009-0.102 0.023-0.041 0.017-0.065 0.006-0.105 0.013-0.052 0.009-0.084 0.061-0.144 0.047-0.027-0.006-0.036-0.023-0.062-0.030-0.032-0.009-0.072 0.003-0.105-0.002-0.064-0.010-0.113-0.064-0.167-0.101 0.013-0.020 0.019-0.040 0.034-0.054 0.010-0.009 0.037-0.015 0.051-0.025 0.030-0.021 0.054-0.051 0.083-0.070 0.049-0.032 0.207-0.053 0.219-0.115-0.071-0.024-0.133 0.016-0.205 0.012-0.055-0.003-0.129 0.008-0.182-0.006-0.091-0.025-0.169-0.099-0.258-0.132-0.039-0.015-0.148-0.037-0.069-0.085 0.001-0.001 0.051-0.012 0.060-0.015 0.030-0.011 0.045-0.020 0.072-0.035 0.023-0.012 0.054-0.037 0.078-0.042 0.037-0.008 0.052 0.006 0.086-0.013 0.050-0.027 0.11-0.087 0.024-0.109-0.063-0.016-0.13 0.001-0.194-0.018-0.053-0.016-0.113-0.045-0.159-0.076-0.044-0.029-0.089-0.062-0.132-0.094-0.056-0.041-0.086-0.106-0.129-0.158-0.017-0.021-0.076-0.080-0.069-0.109 0.010-0.046 0.144-0.019 0.185-0.017 0.115 0.005 0.276 0.041 0.386 0.010-0.004-0.020-0.050-0.036-0.072-0.053-0.036-0.027-0.065-0.061-0.101-0.088-0.052-0.038-0.11-0.070-0.138-0.131-0.026-0.058-0.048-0.117-0.076-0.173-0.021-0.042-0.097-0.105-0.102-0.145 0.057-0.022 0.137 0.030 0.189 0.050 0.058 0.022 0.12 0.038 0.176 0.064 0.048 0.022 0.088 0.058 0.135 0.085 0.027 0.015 0.075 0.068 0.102 0.070 0.021-0.035-0.014-0.042-0.020-0.072-0.005-0.025 0.009-0.052 0.006-0.077-0.006-0.048-0.033-0.103-0.053-0.147-0.018-0.039-0.042-0.077-0.060-0.116-0.016-0.034-0.022-0.092-0.057-0.111 0.033 0.026 0.077 0.032 0.111 0.063 0.032 0.030 0.059 0.054 0.094 0.079 0.062 0.046 0.146 0.11 0.193 0.17 0.049 0.063 0.081 0.132 0.115 0.202 0.016 0.033 0.025 0.069 0.040 0.102 0.012 0.026 0.041 0.096 0.062 0.102 0.023-0.044 0.022-0.091 0.049-0.136s0.059-0.064 0.046-0.124c-0.012-0.053-0.024-0.078-0.021-0.139 0.002-0.048 0.005-0.096 0.005-0.144 0.025 0.073 0.082 0.1 0.125 0.158 0.033 0.046 0.054 0.105 0.073 0.156 0.028 0.075 0.035 0.146 0.066 0.219 0.022 0.052 0.058 0.134 0.042 0.193 0.061-0.038 0.086-0.158 0.113-0.214 0.021-0.042 0.031-0.079 0.045-0.124 0.010-0.032 0.037-0.097 0.003-0.129 0.042 0.043 0.066 0.095 0.106 0.14 0.042 0.046 0.076 0.104 0.104 0.16 0.016 0.031 0.018 0.052 0.028 0.086 0.006 0.019 0.032 0.044 0.038 0.063 0.009 0.033 0.019 0.075 0.025 0.109s-0.009 0.069-0.003 0.102c0.006 0.034 0.021 0.051 0.024 0.088 0.002 0.032-0.019 0.081 0.010 0.101 0.058 0.040 0.116-0.072 0.139-0.101 0.029-0.037 0.073-0.086 0.087-0.13 0.009-0.028 0.011-0.060 0.019-0.085 0.006-0.021 0.018-0.037 0.014-0.056 0.063 0.116 0.113 0.258 0.142 0.377 0.009 0.037 0.018 0.077 0.021 0.114 0.004 0.046 0.015 0.083 0.021 0.128 0.005 0.036-0 0.090-0.006 0.126-0.005 0.030-0.041 0.068-0.026 0.096 0.199-0.064 0.297-0.262 0.298-0.456-0.008 0.035 0.034 0.084 0.042 0.12 0.009 0.042-0.003 0.084 0.006 0.126 0.012 0.053 0.049 0.223-0.012 0.258 0.006 0.007 0.010 0.031 0.016 0.037-0.054 0.030-0.005 0.107-0.033 0.152-0.009 0.015-0.033 0.019-0.043 0.034-0.016 0.024 0.003 0.051-0.023 0.070 0.054 0.078 0.197-0.034 0.256-0.059 0.078-0.033 0.137-0.098 0.2-0.156 0.035-0.032 0.070-0.043 0.106-0.071 0.033-0.025 0.063-0.056 0.094-0.084 0.062-0.055 0.1-0.114 0.162-0.17 0.040-0.036 0.067-0.051 0.076-0.104 0.008-0.048 0.004-0.102 0.006-0.152 0.004-0.1-0.001-0.181-0.021-0.273-0.036-0.166-0.157-0.297-0.261-0.426-0.139-0.17-0.294-0.331-0.446-0.491-0.138-0.145-0.291-0.228-0.452-0.34-0.145-0.101-0.27-0.225-0.425-0.308-0.088-0.047-0.186-0.052-0.277-0.086-0.012-0.004-0.035-0.021-0.050-0.028-0.016-0.008-0.042-0.014-0.058-0.021-0.034-0.016-0.065-0.033-0.101-0.043-0.098-0.027-0.199-0.078-0.3-0.106-0.038-0.011-0.091-0.034-0.134-0.051s-0.081-0.019-0.128-0.028c-0.109-0.022-0.216-0.085-0.334-0.060-0.056 0.012-0.096 0.017-0.156 0.013-0.046-0.003-0.092-0.008-0.105 0.046l0.862 0.414c-0.143-0.058-0.3-0.112-0.455-0.12-0.086-0.004-0.157-0.006-0.237-0.029-0.061-0.017-0.112-0.043-0.18-0.039-0.058 0.004-0.097 0.040-0.147 0.070-0.097 0.058-0.198 0.12-0.296 0.17-0.096 0.050-0.198 0.101-0.244 0.201-0.025 0.053-0.046 0.116-0.060 0.172-0.008 0.030-0.002 0.058-0.012 0.088-0.010 0.034-0.022 0.049-0.024 0.087-0.004 0.058-0.007 0.118-0.007 0.176s0.022 0.105 0.019 0.165c-0.003 0.060-0.010 0.122 0.006 0.177 0.014 0.049 0.042 0.102 0.053 0.153 0.011 0.054 0.011 0.101 0.025 0.152 0.015 0.053 0.032 0.104 0.052 0.154 0.025 0.063 0.060 0.112 0.064 0.18 0.004 0.056 0.020 0.111 0.032 0.165 0.025 0.114 0.038 0.217 0.080 0.329 0.019 0.050 0.036 0.085 0.048 0.137 0.009 0.036 0.028 0.081 0.045 0.118 0.045 0.098 0.101 0.199 0.146 0.299 0.045 0.099 0.096 0.186 0.144 0.284s0.132 0.172 0.184 0.265c0.088 0.16 0.219 0.313 0.389 0.402 0.036 0.019 0.069 0.005 0.105 0.015 0.025 0.007 0.037 0.023 0.061 0.030 0.063 0.018 0.115-0.013 0.171-0.033 0.048-0.017 0.102-0.022 0.145-0.043s0.082-0.071 0.114-0.105z"></path>
<path d="M6.236 14.321l0.376 0.293c-0.006-0.067-0.056-0.117 0.050-0.093 0.027 0.006 0.045 0.022 0.082 0.023 0.007 0 0.014 0.001 0.020 0.001-0.045-0.027-0.090-0.052-0.133-0.080-0.162-0.108-0.344-0.175-0.516-0.245-0.001 0.036 0.090 0.1 0.121 0.102z"></path>
<path d="M7.306 14.887c0.060 0.069 0.135 0.121 0.187 0.196 0.019 0.027 0.030 0.068 0.047 0.098 0.020 0.036 0.040 0.066 0.060 0.102 0.043 0.076 0.085 0.142 0.134 0.214 0.007 0.011 0.003 0.029 0.010 0.040 0.010 0.014 0.028 0.023 0.038 0.037 0.028 0.038 0.047 0.085 0.072 0.125 0.018 0.027 0.041 0.046 0.062 0.071 0.033 0.041 0.047 0.088 0.072 0.13 0.092 0.154 0.245 0.259 0.394 0.35 0.068 0.042 0.139 0.085 0.208 0.129 0.071 0.045 0.161 0.060 0.229 0.109 0.138 0.099 0.289 0.195 0.419 0.306 0.183 0.157 0.344 0.354 0.491 0.546 0.064 0.082 0.099 0.188 0.142 0.282 0.023 0.048 0.042 0.101 0.053 0.154 0.006 0.032 0.009 0.144 0.038 0.151 0.022-0.098 0.076-0.175 0.096-0.272s0.016-0.211 0.063-0.301c0.043-0.081 0.055-0.183 0.083-0.273 0.028-0.092 0.018-0.214-0.002-0.303-0.011-0.050 0.006-0.101-0.005-0.152-0.004-0.018-0.017-0.032-0.019-0.051-0.003-0.025 0.010-0.052 0.006-0.077-0.018-0.095-0.091-0.219-0.137-0.308-0.033-0.062-0.071-0.119-0.109-0.178-0.053-0.083-0.119-0.156-0.173-0.235s-0.113-0.183-0.189-0.242c-0.069-0.055-0.146-0.106-0.207-0.172-0.112-0.12-0.265-0.163-0.397-0.25-0.155-0.102-0.335-0.172-0.507-0.254-0.091-0.043-0.189-0.068-0.28-0.112-0.029-0.014-0.050-0.012-0.078-0.021-0.022-0.008-0.025-0.023-0.048-0.029-0.025-0.007-0.054 0.005-0.079-0.001-0.028-0.006-0.048-0.025-0.076-0.031-0.065-0.014-0.117 0.003-0.181-0.025-0.050-0.023-0.1-0.041-0.152-0.063-0.124-0.052-0.244-0.060-0.38-0.066-0.13-0.006-0.243 0.042-0.369 0.035-0.019-0.001-0.038-0.002-0.057-0.002 0.114 0.067 0.23 0.131 0.348 0.188 0.078 0.038 0.136 0.090 0.193 0.156z"></path>
<path d="M14.506 26.307c-0.023-0.1-0.043-0.205-0.107-0.293-0.070-0.097-0.126-0.199-0.201-0.292-0.086-0.107-0.178-0.191-0.286-0.277-0.106-0.085-0.222-0.163-0.341-0.23-0.215-0.12-0.451-0.218-0.678-0.323-0.060-0.028-0.117-0.042-0.178-0.060-0.068-0.020-0.13-0.072-0.196-0.1-0.023-0.010-0.046-0.017-0.069-0.025-0.024 0.010-0.047 0.024-0.079 0.052-0.054 0.046-0.11 0.084-0.168 0.114-0.036 0.061-0.076 0.12-0.122 0.173-0.168 0.191-0.344 0.379-0.497 0.583-0.017 0.028-0.056 0.087-0.067 0.104-0.033 0.053-0.064 0.107-0.093 0.162-0.014 0.026-0.026 0.068-0.034 0.095 0.003 0.009 0.006 0.018 0.009 0.027 0 0 0.001-0 0.001-0 0.059-0.003 0.122 0.016 0.18 0.006 0.028-0.005 0.049-0.018 0.077-0.021 0.038-0.004 0.081 0.004 0.118 0.006 0.056 0.002 0.111 0.004 0.167 0.007s0.112 0.001 0.168 0.006c0.063 0.006 0.112 0.031 0.18 0.033 0.025 0.001 0.053-0.001 0.078 0.003 0.027 0.004 0.036 0.016 0.056 0.022 0.029 0.009 0.056 0.002 0.085 0.008 0.027 0.006 0.036 0.024 0.061 0.030 0.054 0.014 0.112 0.016 0.166 0.033 0.037 0.012 0.080 0.033 0.116 0.053 0.139 0.077 0.281 0.169 0.372 0.308 0.055 0.083 0.096 0.172 0.067 0.275-0.006 0.023-0.023 0.035-0.027 0.063-0.004 0.025-0 0.046-0.008 0.070-0.013 0.042-0.049 0.090-0.083 0.122-0.026 0.024-0.052 0.051-0.081 0.072-0.041 0.031-0.079 0.038-0.125 0.057-0.084 0.035-0.171 0.095-0.262 0.111-0.029 0.005-0.060-0.008-0.090-0.003-0.019 0.004-0.032 0.018-0.054 0.022-0.062 0.011-0.102-0.020-0.154-0.033-0.103-0.026-0.224 0.004-0.323-0.025-0.096-0.027-0.187-0.067-0.295-0.075-0.057-0.004-0.082-0.039-0.141-0.026-0.054 0.012-0.108 0.015-0.157 0.038-0.038 0.018-0.075 0.025-0.111 0.040s-0.1 0.018-0.128 0.040c0.031-0.021 0.072 0.032 0.097 0.048 0.046 0.029 0.091 0.056 0.134 0.094 0.081 0.070 0.163 0.18 0.264 0.216 0.045 0.016 0.086 0.023 0.132 0.039 0.054 0.018 0.111 0.061 0.171 0.075 0.123 0.029 0.244 0.037 0.373 0.043 0.12 0.005 0.242 0.017 0.362 0.015 0.062-0.001 0.117-0.017 0.182-0.018 0.058-0 0.113-0.030 0.162-0.039 0.117-0.020 0.242 0.006 0.345-0.054 0.114-0.066 0.239-0.113 0.357-0.161 0.104-0.043 0.211-0.136 0.292-0.209 0.090-0.081 0.142-0.194 0.213-0.294s0.127-0.226 0.151-0.341c0.026-0.124 0.046-0.238 0.016-0.365z"></path>
<path d="M12.263 24.035c-0.134 0.027-0.261 0.058-0.392 0.097-0.053 0.016-0.097 0.042-0.145 0.069-0.059 0.032-0.112 0.050-0.172 0.075-0.148 0.061-0.288 0.146-0.429 0.231-0.023 0.009-0.046 0.020-0.069 0.025-0.066 0.015-0.127 0.031-0.187 0.056-0.068 0.027-0.122 0.059-0.196 0.060-0.060 0-0.143-0.012-0.2 0.002-0.030 0.008-0.048 0.022-0.077 0.030-0.027 0.007-0.066 0-0.094 0.001-0.072 0.001-0.139 0.014-0.206 0.036-0.026 0.008-0.039 0.019-0.072 0.022-0.039 0.003-0.057 0.012-0.093 0.022-0.040 0.011-0.078 0.006-0.119 0.008-0.037 0.002-0.059 0.013-0.092 0.022-0.062 0.017-0.135 0.008-0.199 0.009-0.071 0.001-0.142 0.002-0.212 0.004-0.012 0-0.021-0.003-0.032-0.004 0.015-0.014 0.031-0.027 0.046-0.041 0.031-0.031 0.054-0.078 0.087-0.104s0.088-0.021 0.090-0.077c0-0.027-0.044-0.111-0.069-0.114-0.002 0.008-0.004 0.015-0.007 0.023l-0.159 0.312c-0.048-0.006-0.092-0.017-0.142-0.019-0.036-0.001-0.086 0.012-0.121 0.004-0.026-0.006-0.038-0.023-0.064-0.028s-0.066 0.002-0.094 0.002c-0.045 0.002-0.052-0.010-0.086-0.019s-0.066-0-0.101-0.004c-0.040-0.004-0.044-0.012-0.079-0.026-0.048-0.020-0.109-0.027-0.162-0.050-0.097-0.041-0.214-0.073-0.303-0.131-0.051-0.033-0.107-0.079-0.152-0.121-0.048-0.044-0.068-0.105-0.094-0.164-0.021-0.048-0.048-0.094-0.072-0.141-0.011-0.021-0.020-0.041-0.031-0.063-0.017-0.036-0.010-0.047-0.020-0.087-0.008-0.030-0.025-0.042-0.030-0.077-0.004-0.030-0-0.063-0.001-0.094-0.001-0.033-0.006-0.072 0-0.104 0.005-0.025 0.021-0.038 0.024-0.068 0.008-0.078 0.005-0.161 0-0.244 0.003-0.004 0.006-0.008 0.010-0.012 0.051-0.058 0.078-0.148 0.099-0.218 0.016-0.055 0.047-0.099 0.002-0.152-0.011-0.013-0.051-0.047-0.107-0.039-0.007-0.029-0.015-0.057-0.017-0.091-0.007-0.104-0.016-0.197-0.063-0.286 0.066-0.062 0.132-0.126 0.198-0.188 0.084-0.079 0.179-0.127 0.248-0.217 0.065-0.086 0.148-0.16 0.218-0.244 0.084-0.101 0.185-0.183 0.257-0.29 0.069-0.103 0.148-0.198 0.213-0.305 0.058-0.096 0.083-0.204 0.141-0.301 0.062-0.102 0.117-0.222 0.156-0.332 0.072-0.2 0.19-0.397 0.276-0.593 0.028-0.065 0.039-0.133 0.059-0.2 0.008-0.026 0.017-0.048 0.023-0.075 0.008-0.033 0.022-0.043 0.030-0.072 0.009-0.031-0.002-0.064 0.008-0.096 0.006-0.018 0.018-0.044 0.025-0.065 0.015-0.044 0.036-0.103 0.059-0.149 0.010-0.021 0.038-0.048 0.046-0.069 0.010-0.028 0.002-0.054 0.008-0.083 0.006-0.026 0.024-0.035 0.031-0.060 0.008-0.028-0.002-0.060 0.004-0.089 0.029-0.123 0.087-0.241 0.063-0.376-0.007-0.039-0.021-0.060-0.020-0.102 0.001-0.031 0.005-0.058-0.002-0.088-0.007-0.032-0.015-0.056-0.017-0.089-0.002-0.031-0.013-0.046-0.017-0.069-0.007-0.036 0.006-0.073-0-0.109-0.004-0.026-0.021-0.038-0.026-0.062-0.006-0.028 0.008-0.059 0.003-0.087-0.003-0.018-0.015-0.046-0.020-0.066-0.061-0.216-0.101-0.426-0.208-0.629-0.049-0.093-0.119-0.187-0.183-0.271-0.059-0.078-0.138-0.16-0.222-0.21s-0.163-0.109-0.248-0.155c-0.1-0.054-0.19-0.090-0.293-0.124-0.049-0.017-0.114-0.045-0.172-0.053-0.066-0.010-0.126-0.030-0.193-0.032-0.129-0.004-0.234-0.013-0.351 0.036-0.095 0.040-0.199 0.084-0.265 0.166-0.037 0.045-0.060 0.104-0.096 0.148-0.037 0.046-0.082 0.065-0.129 0.102-0.037 0.029-0.060 0.078-0.093 0.115-0.037 0.040-0.068 0.080-0.109 0.117-0.084 0.075-0.168 0.138-0.256 0.204s-0.173 0.129-0.266 0.191c-0.050 0.033-0.084 0.074-0.127 0.114-0.038 0.036-0.082 0.051-0.121 0.083-0.028 0.023-0.034 0.058-0.059 0.081-0.020 0.018-0.063 0.032-0.087 0.040-0.048 0.016-0.091 0.028-0.132 0.057-0.094 0.067-0.168 0.124-0.279 0.159-0.054 0.017-0.102 0.039-0.156 0.057-0.059 0.019-0.105 0.028-0.152 0.069-0.051 0.045-0.104 0.036-0.159 0.068-0.056 0.033-0.040 0.051-0.104 0.018-0.002 0.007-0.004 0.015-0.007 0.022-0.006-0.034-0.052 0.063-0.070 0.079 0.074 0.033 0.176 0.084 0.258 0.067 0.113-0.022 0.196-0.042 0.311 0 0.049 0.018 0.081 0.038 0.14 0.025 0.030-0.006 0.046-0.017 0.078-0.017 0.025 0 0.053 0.008 0.077 0.005 0.033-0.004 0.058-0.022 0.092-0.024 0.026-0.002 0.051 0.006 0.078 0.002 0.050-0.008 0.107-0.029 0.155-0.045 0.083-0.027 0.172-0.046 0.258-0.081 0.098-0.040 0.182-0.107 0.284-0.14 0.088-0.028 0.172-0.066 0.261-0.084 0.099-0.020 0.203-0.042 0.294-0.095 0.085-0.050 0.182-0.080 0.271-0.121 0.106-0.049 0.184-0.085 0.3-0.051 0.081 0.024 0.194 0.043 0.262 0.092 0.050 0.036 0.126 0.122 0.139 0.179 0.011 0.050 0.018 0.112 0.021 0.163 0.004 0.053 0.022 0.097 0.020 0.152-0.012 0.22-0.028 0.433-0.091 0.639-0.058 0.189-0.098 0.395-0.139 0.587-0.007 0.032-0.027 0.055-0.032 0.087-0.004 0.026 0.002 0.050-0.004 0.076-0.007 0.027-0.023 0.046-0.028 0.074-0.004 0.025 0.002 0.049-0.004 0.073-0.020 0.077-0.084 0.157-0.112 0.236-0.034 0.097-0.063 0.207-0.102 0.3-0.034 0.081-0.095 0.142-0.151 0.21-0.030 0.036-0.048 0.079-0.075 0.115-0.024 0.033-0.060 0.062-0.083 0.097-0.044 0.066-0.091 0.132-0.131 0.202-0.087 0.153-0.144 0.34-0.283 0.462-0.069 0.060-0.116 0.136-0.182 0.2s-0.128 0.127-0.196 0.188c-0.133 0.119-0.25 0.25-0.384 0.369-0.131 0.116-0.195 0.276-0.326 0.393-0.083 0.074-0.12 0.171-0.17 0.267-0.048 0.094-0.092 0.192-0.138 0.284-0.048 0.096-0.086 0.211-0.116 0.312-0.029 0.096-0.037 0.191-0.069 0.282-0.016 0.045-0.042 0.102-0.054 0.155-0.010 0.046-0.003 0.104-0.005 0.151-0.004 0.099-0.019 0.21 0.001 0.303 0.013 0.063 0.041 0.136 0.088 0.19-0.011 0.031-0.022 0.063-0.021 0.1 0.001 0.059 0.008 0.109 0.028 0.16 0.042 0.104 0.102 0.192 0.172 0.288 0.073 0.101 0.145 0.192 0.238 0.276 0.047 0.042 0.092 0.084 0.135 0.128 0.040 0.040 0.086 0.054 0.134 0.086 0.093 0.063 0.171 0.154 0.274 0.182 0.055 0.015 0.109 0.037 0.16 0.050 0.030 0.007 0.056 0.004 0.087 0.004 0.041-0 0.057 0.011 0.093 0.020 0.069 0.016 0.114 0.026 0.186 0.028 0.064 0.002 0.121 0.034 0.176 0.048 0.026 0.007 0.056 0.021 0.080 0.025 0.030 0.006 0.061-0.005 0.091-0.001 0.039 0.006 0.066 0.026 0.107 0.027 0.031 0.001 0.062-0.006 0.093 0 0.064 0.014 0.125 0.037 0.186 0.049 0.030 0.006 0.065-0.011 0.095-0.004 0.034 0.008 0.039 0.023 0.078 0.027 0.126 0.012 0.272 0.002 0.399-0.007 0.073-0.005 0.128-0.045 0.206-0.025 0.043 0.011 0.093 0.036 0.138 0.046 0.038 0.008 0.080-0.010 0.118-0.001 0.026 0.006 0.037 0.020 0.068 0.024 0.068 0.007 0.132 0.007 0.198 0.025 0.018 0.005 0.020 0.020 0.041 0.025 0.017 0.004 0.039-0.005 0.055-0.003 0.031 0.003 0.042 0.018 0.068 0.024 0.030 0.006 0.061-0.005 0.090-0.001 0.034 0.005 0.059 0.025 0.094 0.028 0.046 0.003 0.058-0.031 0.092-0.032 0.012-0 0.054 0.022 0.067 0.028 0.033 0.014 0.109 0.062 0.147 0.050l0.149-0.145c0.006 0 0.012-0.001 0.018-0 0.127 0.005 0.254 0.010 0.382 0.016 0.124 0.005 0.271 0.032 0.393 0.010 0.066-0.012 0.132-0.010 0.198-0.024 0.036-0.007 0.067-0.004 0.103-0.008s0.067-0.019 0.103-0.022c0.018-0.002 0.034-0.006 0.050-0.008 0.112-0.073 0.222-0.149 0.327-0.231 0.122-0.128 0.255-0.248 0.386-0.373 0.264-0.512 0.557-1.005 0.894-1.471-0.014-0.089-0.020-0.178-0.020-0.268-0.166 0.017-0.333 0.033-0.497 0.066z"></path>
<path d="M10.053 20.969c0-0.182 0.028-0.364 0.059-0.538 0.031-0.173 0.066-0.348 0.1-0.521 0.066-0.337 0.14-0.68 0.339-0.925 0.038-0.047 0.070-0.096 0.099-0.152 0.039-0.076 0.084-0.115 0.14-0.172 0.105-0.107 0.212-0.213 0.324-0.305 0.059-0.049 0.124-0.070 0.186-0.106 0.070-0.041 0.136-0.088 0.206-0.126 0.044-0.024 0.096-0.059 0.14-0.089 0.054-0.036 0.129-0.073 0.178-0.126 0.047-0.050 0.089-0.121 0.139-0.172 0.056-0.058 0.119-0.111 0.17-0.178 0.048-0.063 0.095-0.142 0.135-0.216 0.042-0.078 0.097-0.132 0.146-0.201 0.092-0.13 0.186-0.263 0.272-0.4 0.080-0.127 0.124-0.272 0.2-0.407 0.152-0.269 0.112-0.634 0.112-0.967v-0.169c0.073-0.006 0.144-0.017 0.216-0.027 0.308 0.080 0.605 0.162 0.933 0.178s0.643-0.052 0.933-0.181c-0.006 0.015-0.011 0.031-0.013 0.054s0.004 0.050 0.001 0.074c-0.004 0.040-0.017 0.050-0.021 0.079-0.014 0.085 0.002 0.174-0.005 0.261-0.009 0.106-0.052 0.209-0.087 0.305-0.063 0.171-0.131 0.369-0.226 0.512-0.072 0.108-0.142 0.213-0.212 0.32-0.164 0.254-0.326 0.521-0.525 0.725-0.117 0.119-0.246 0.221-0.358 0.346-0.11 0.123-0.242 0.215-0.339 0.359s-0.191 0.294-0.297 0.431c-0.093 0.12-0.184 0.259-0.279 0.373-0.083 0.1-0.159 0.232-0.238 0.344-0.087 0.124-0.139 0.29-0.193 0.439-0.030 0.084-0.040 0.177-0.072 0.261-0.035 0.092-0.044 0.179-0.066 0.268-0.022 0.095-0.041 0.191-0.055 0.288-0.007 0.046 0.011 0.1 0.003 0.146-0.007 0.041-0.024 0.058-0.028 0.105s0.008 0.098 0.002 0.144c-0.007 0.052-0.026 0.089-0.029 0.144-0.004 0.096-0.003 0.201 0.014 0.287 0.015 0.078 0.004 0.169 0.019 0.251 0.017 0.090 0.046 0.166 0.060 0.251s0.036 0.185 0.063 0.271c0.026 0.080 0.072 0.148 0.103 0.232 0.057 0.154 0.124 0.247 0.212 0.368 0.090 0.124 0.222 0.189 0.331 0.268 0.068 0.049 0.136 0.052 0.208 0.081 0.058 0.024 0.11 0.064 0.171 0.091 0.13 0.057 0.255 0.16 0.385 0.216 0.034 0.015 0.054 0.016 0.093 0.017 0.042 0.002 0.050 0.025 0.082 0.033 0.071 0.018 0.155-0.022 0.225 0.001 0.025 0.008 0.037 0.031 0.064 0.039 0.031 0.009 0.076-0.001 0.107-0.001 0.081-0 0.147 0.037 0.226 0.036 0.070-0.001 0.144 0.012 0.213 0.001 0.030-0.005 0.044-0.026 0.068-0.034 0.039-0.012 0.078 0.002 0.117-0.011 0.063-0.022 0.119-0.047 0.18-0.072 0.032-0.013 0.047-0.022 0.086-0.027 0.033-0.005 0.063-0.019 0.092-0.037 0.102-0.061 0.212-0.118 0.315-0.184 0.042-0.027 0.094-0.086 0.138-0.1 0.019-0.006 0.038-0.006 0.057-0.008-0.022-0.040-0.033-0.086-0.052-0.127-0.030-0.063-0.081-0.090-0.116-0.147-0.013-0.021-0.015-0.033-0.029-0.050-0.008-0.010-0.020-0.002-0.028-0.016-0.016-0.026-0.017-0.060-0.032-0.083-0.034-0.054-0.083-0.056-0.126-0.087s-0.085-0.088-0.132-0.103c-0.030-0.009-0.062 0.009-0.092-0.001-0.018-0.006-0.048-0.031-0.068-0.042-0.050-0.028-0.104-0.044-0.154-0.072-0.056-0.031-0.074-0.058-0.139-0.062-0.033-0.002-0.050-0.019-0.080-0.029-0.028-0.010-0.054 0.002-0.081-0.006-0.042-0.012-0.090-0.049-0.13-0.074-0.058-0.035-0.105-0.016-0.162-0.034-0.045-0.014-0.086-0.054-0.124-0.084-0.036-0.027-0.085-0.052-0.126-0.063-0.030-0.008-0.064 0.011-0.094 0.003-0.029-0.008-0.051-0.034-0.080-0.040-0.057-0.013-0.115-0.014-0.17-0.038-0.073-0.031-0.143-0.137-0.178-0.226-0.058-0.146-0.044-0.248-0.021-0.399 0.048-0.324 0.315-0.386 0.515-0.452 0.065-0.022 0.116-0.033 0.186-0.033 0.060 0.001 0.102-0.027 0.159-0.037 0.064-0.012 0.123 0.006 0.186-0.017 0.055-0.020 0.103-0.008 0.159-0.017 0.066-0.010 0.116-0.037 0.186-0.037 0.065 0 0.111 0.006 0.172 0.028 0.102 0.036 0.239 0.010 0.345 0.008 0.063-0.001 0.111 0.034 0.173 0.036 0.057 0.002 0.115-0.006 0.172-0.001 0.036 0.003 0.058 0.024 0.093 0.034 0.026 0.008 0.053-0.001 0.080 0.006 0.006 0.002 0.014 0.004 0.021 0.005-0.022-0.040 0.032-0.030 0.079 0.018 0.027 0.027 0.038 0.070 0.071 0.083 0.036 0.015 0.095-0.001 0.134-0.002 0.079-0.002 0.122 0.068 0.199 0.072 0.082 0.004 0.147 0.036 0.226 0.064 0.029 0.010 0.054-0.002 0.081 0.006 0.012 0.004 0.024 0.028 0.031 0.030 0.042 0.013 0.084 0.001 0.127 0.016 0.072 0.026 0.147 0.030 0.213 0.063 0.064 0.032 0.116 0.098 0.184 0.11 0.077 0.012 0.151 0.038 0.227 0.071 0.012 0.005 0.036 0.026 0.045 0.028 0.018 0.005 0.045-0.001 0.061 0.007 0.044 0.020 0.029 0.019 0.051 0.074 0.017 0.041 0.042 0.031 0.042 0.089 0 0.046-0.022 0.079-0.054 0.091-0.037 0.015-0.084-0.014-0.122-0.003-0.036 0.010-0.052 0.032-0.091 0.038-0.068 0.011-0.144-0.001-0.213-0.001-0.044 0-0.089-0.004-0.133-0.001-0.040 0.003-0.067 0.029-0.106 0.039-0.065 0.016-0.146-0.002-0.212-0.002-0.044 0-0.089 0.004-0.133 0.001-0.041-0.003-0.067-0.029-0.106-0.038-0.069-0.016-0.155 0.002-0.226 0.002-0.141 0-0.322-0.042-0.452 0.032-0.071 0.040-0.115 0.052-0.119 0.166-0.004 0.116 0.016 0.137 0.086 0.188 0.074 0.055 0.156 0.086 0.234 0.117 0.054 0.022 0.1 0.064 0.157 0.074 0.047 0.008 0.072 0.002 0.113 0.026 0.026 0.015 0.048 0.028 0.073 0.045 0.047 0.032 0.093 0.065 0.138 0.098 0.057 0.041 0.116 0.083 0.16 0.144 0.051 0.071 0.106 0.095 0.164 0.152 0.051 0.050 0.094 0.090 0.149 0.135 0.051 0.042 0.114 0.079 0.16 0.134 0.101 0.124 0.109 0.371 0.045 0.519-0.066 0.155-0.106 0.339-0.211 0.459-0.064 0.074-0.13 0.138-0.201 0.198-0.049 0.042-0.109 0.084-0.164 0.101-0.023 0.007-0.051-0.001-0.075 0.006-0.009 0.002-0.017 0.026-0.031 0.030-0.035 0.011-0.072 0.014-0.107 0.026-0.073 0.024-0.122 0.038-0.2 0.044-0.046 0.003-0.052 0.026-0.091 0.038-0.035 0.011-0.074 0.004-0.108 0.016-0.022 0.008-0.044 0.009-0.067 0.012-0.002 0.004-0.003 0.008-0.006 0.013-0.030 0.056-0.045 0.111-0.072 0.169-0.042 0.090-0.106 0.157-0.164 0.226-0.029 0.035-0.061 0.1-0.094 0.126-0.046 0.036-0.118 0.057-0.174 0.084-0.031 0.015-0.062 0.028-0.094 0.041-0.020 0.009-0.049 0.026-0.068 0.032-0.028 0.008-0.056 0-0.085 0.011-0.030 0.011-0.048 0.025-0.086 0.027-0.042 0.002-0.066 0.030-0.106 0.039-0.030 0.007-0.062-0.007-0.093 0.001-0.033 0.009-0.057 0.031-0.093 0.034s-0.071-0.001-0.106-0.001c-0.141 0-0.282 0-0.423 0-0.16 0-0.32 0-0.48 0-0.077 0-0.139-0.010-0.212-0.028-0.078-0.019-0.158-0.001-0.237-0.007-0.042-0.003-0.071-0.030-0.112-0.039-0.038-0.008-0.086 0.002-0.125 0.002-0.084 0-0.168-0.001-0.251 0-0.077 0-0.14-0.012-0.214-0.036-0.090-0.029-0.181-0.025-0.269-0.054-0.085-0.028-0.188-0.042-0.276-0.054-0.095-0.012-0.193-0.049-0.286-0.081-0.077-0.026-0.16-0.052-0.231-0.098-0.075-0.048-0.144-0.11-0.22-0.154-0.142-0.083-0.299-0.208-0.403-0.357-0.101-0.144-0.194-0.301-0.287-0.461-0.071-0.122-0.154-0.238-0.205-0.374-0.053-0.142-0.109-0.321-0.142-0.471-0.018-0.079-0.028-0.167-0.042-0.248-0.008-0.046-0.009-0.080-0.013-0.127-0.004-0.053-0.019-0.074-0.028-0.123-0.030-0.172-0.069-0.349-0.1-0.522-0.016-0.090-0.021-0.18-0.034-0.269s-0.048-0.176-0.052-0.269c-0.007-0.178 0-0.36 0.001-0.538z"></path>
<path d="M10.020 11.755c0.010 0.027 0.001 0.049 0.001 0.076 0 0.032 0.016 0.046 0.032 0.072 0.009 0.015 0.023 0.026 0.031 0.041 0.007 0.012 0.007 0.028 0.012 0.041 0.012 0.030 0.038 0.057 0.057 0.083 0.018 0.024 0.022 0.057 0.032 0.085 0.011 0.030 0.040 0.048 0.056 0.072 0.009 0.013 0.012 0.025 0.022 0.036 0.008 0.009 0.021 0.019 0.030 0.029 0.022 0.023 0.043 0.044 0.064 0.068 0.076 0.090 0.156 0.166 0.252 0.239 0.042 0.032 0.122 0.063 0.179 0.076 0.068 0.016 0.14 0.029 0.211 0.032 0.079 0.003 0.153-0.008 0.231-0.035 0.037-0.013 0.070-0.010 0.108-0.023 0.017-0.006 0.043-0.018 0.060-0.020 0.019-0.003 0.027 0.002 0.048-0.002 0.038-0.008 0.074-0.030 0.111-0.038 0.022-0.005 0.042-0.002 0.064-0.007s0.045-0.015 0.066-0.022c0.077-0.026 0.146-0.049 0.215-0.087 0.028-0.015 0.052-0.043 0.083-0.060 0.034-0.019 0.068-0.028 0.099-0.048 0.027-0.018 0.059-0.035 0.082-0.053 0.012-0.009 0.030-0.018 0.041-0.026 0.013-0.010 0.016-0.020 0.026-0.032 0.020-0.022 0.055-0.044 0.078-0.063 0.028-0.024 0.060-0.045 0.084-0.073 0.018-0.021 0.036-0.042 0.053-0.062 0.019-0.024 0.014-0.050 0.037-0.073 0.025-0.027 0.037-0.035 0.048-0.070 0.007-0.024 0.015-0.048 0.025-0.072 0.026-0.061 0.078-0.11 0.103-0.173 0.020-0.049 0.055-0.090 0.082-0.137 0.035-0.062 0.061-0.118 0.076-0.182 0.008-0.035 0.019-0.070 0.027-0.105 0.008-0.032 0-0.060 0.010-0.093 0.009-0.031 0.029-0.061 0.030-0.093 0.001-0.034-0.003-0.067 0.002-0.102 0.004-0.027 0.004-0.056 0.003-0.085-0-0.014 0.001-0.031-0-0.045-0.001-0.008-0.007-0.016-0.007-0.024s0.005-0.017 0.006-0.023c0.001-0.030-0.017-0.057-0.017-0.087-0-0.034-0.018-0.061-0.024-0.094-0.003-0.015 0.004-0.030 0.003-0.046s-0.012-0.032-0.016-0.046c-0.010-0.031-0.020-0.062-0.031-0.092-0.020-0.061-0.036-0.122-0.073-0.174-0.008-0.012-0.008-0.027-0.014-0.040-0.008-0.016-0.018-0.015-0.027-0.028-0.017-0.024-0.022-0.066-0.030-0.093-0.009-0.029-0.029-0.056-0.045-0.081-0.008-0.013-0.021-0.020-0.027-0.036-0.008-0.020-0.017-0.022-0.027-0.037-0.008-0.012-0.006-0.028-0.014-0.040-0.009-0.013-0.019-0.012-0.027-0.028-0.006-0.013-0.007-0.027-0.014-0.039-0.009-0.014-0.022-0.017-0.027-0.037-0.005-0.017-0.017-0.022-0.024-0.033s-0.010-0.024-0.017-0.036c-0.015-0.025-0.034-0.052-0.055-0.071s-0.036-0.043-0.055-0.065c-0.006-0.008-0.018-0.018-0.023-0.025-0.004-0.006-0.004-0.016-0.008-0.022s-0.015-0.011-0.018-0.016c-0.017-0.022-0.027-0.044-0.044-0.066-0.018-0.025-0.035-0.049-0.055-0.071-0.038-0.043-0.083-0.082-0.119-0.124-0.020-0.023-0.048-0.042-0.067-0.064s-0.030-0.046-0.047-0.068c-0.031-0.041-0.085-0.081-0.125-0.118-0.042-0.038-0.096-0.057-0.14-0.090-0.024-0.018-0.039-0.017-0.074-0.019-0.026-0.001-0.072-0.012-0.098 0.006s-0.021 0.052-0.031 0.076c-0.014 0.031-0.029 0.046-0.034 0.080-0.005 0.032-0.001 0.044 0.020 0.068 0.011 0.012 0.026 0.024 0.034 0.037 0.003 0.005 0.001 0.014 0.005 0.018 0.005 0.006 0.014 0.011 0.018 0.015 0.026 0.032 0.083 0.105 0.055 0.152-0.017 0.028-0.063 0.054-0.092 0.072-0.022 0.013-0.067 0.054-0.090 0.059 0.033-0.012 0.060-0.025 0.094-0.019 0.031 0.005 0.043 0.012 0.079 0.009 0.063-0.005 0.128-0.016 0.176-0.054 0.024 0.021 0.001 0.037-0.010 0.060-0.012 0.026-0.010 0.054-0.019 0.079-0.006 0.017-0.014 0.040-0.027 0.056-0.017 0.022-0.042 0.037-0.062 0.059-0.022 0.025-0.021 0.033-0.060 0.046-0.035 0.011-0.066 0.010-0.1 0.020-0.039 0.012-0.069 0.023-0.029 0.049 0.018 0.012 0.044 0.018 0.066 0.025 0.046 0.016 0.090 0.040 0.14 0.050 0.027 0.005 0.064 0.001 0.094-0.003 0.033-0.004 0.062-0.003 0.094-0.012s0.049-0.021 0.073-0.040c0.022-0.017 0.041-0.030 0.065-0.011 0.009 0.007 0.014 0.019 0.023 0.026 0.006 0.005 0.019 0.013 0.023 0.018 0.009 0.011 0.011 0.018 0.011 0.032-0 0.017 0.005 0.033 0.005 0.050 0 0.022-0.027 0.052-0.043 0.071-0.022 0.028-0.040 0.053-0.056 0.083-0.014 0.028-0.029 0.054-0.056 0.076-0.029 0.024-0.066 0.034-0.093 0.054-0.026-0.018-0.036 0.006-0.022 0.022 0.008 0.009 0.028 0.028 0.040 0.035 0.034 0.018 0.076 0.040 0.116 0.051 0.043 0.012 0.094 0.011 0.142-0.006 0.027-0.009 0.050-0.017 0.072-0.030 0.020-0.011 0.043-0.032 0.062-0.015 0.013 0.012 0.009 0.041 0.021 0.055 0.016 0.020 0.023 0.021 0.013 0.050-0.013 0.035-0.054 0.073-0.085 0.102-0.027 0.025-0.076 0.062-0.109 0.078-0.028 0.014-0.134 0.057-0.146 0.024 0.018-0.003 0.062 0.044 0.081 0.054 0.026 0.014 0.061 0.024 0.092 0.031 0.018 0.004 0.045 0.014 0.064 0.013 0.022-0.001 0.044-0.015 0.067-0.018 0.033-0.004 0.117-0.012 0.136-0.042-0.022 0.019-0.001 0.033-0.002 0.052-0.001 0.014-0.015 0.040-0.022 0.054-0.020 0.039-0.059 0.066-0.092 0.094s-0.090 0.048-0.137 0.059c-0.027 0.006-0.137-0.003-0.149 0.012-0.017 0.021 0.054 0.054 0.068 0.065 0.028 0.023 0.057 0.047 0.087 0.069 0.026 0.019 0.066 0.036 0.1 0.049 0.059 0.021 0.096-0.021 0.156-0.024 0.019 0.025-0.074 0.053-0.096 0.056-0.035 0.005-0.076-0.003-0.114 0.002s-0.068 0.014-0.106 0.016c-0.027 0.002-0.018-0.010-0.032 0.014-0.009 0.014-0.001 0.026-0.003 0.039-0.008 0.077 0.041 0.093 0.111 0.126 0.056 0.026 0.117 0.072 0.182 0.084-0.014 0.011-0.012-0.001-0.013 0.015-0.011-0.001-0.021-0.006-0.032-0.010-0.016-0.004-0.028-0.002-0.043-0.004-0.020-0.004-0.036-0.010-0.059-0.013s-0.035-0.009-0.059-0.008c-0.039 0.002-0.080 0.004-0.116-0.001-0.032-0.005-0.076-0.018-0.109-0.014-0.004 0.013 0.020 0.031 0.027 0.041 0.011 0.014 0.022 0.024 0.030 0.041s0.008 0.036 0.016 0.052c0.009 0.017 0.026 0.031 0.040 0.044 0.027 0.025 0.056 0.050 0.086 0.074 0.022 0.017 0.077 0.029 0.082 0.057-0.016-0.010-0.037-0.008-0.057-0.010-0.041-0.005-0.081-0.017-0.121-0.025-0.028-0.006-0.056-0.010-0.083-0.017-0.018-0.005-0.070-0.036-0.090-0.017 0.001-0.001-0.002 0.040-0.002 0.040 0.001 0.016 0.006 0.029 0.011 0.045 0.009 0.026 0.014 0.054 0.029 0.077 0.008 0 0.014 0.003 0.017 0.009 0.002 0.008 0.004 0.016 0.006 0.024 0.009 0.016 0.024 0.023 0.031 0.041 0.012 0.030 0.033 0.047 0.053 0.070-0.028 0.009-0.058-0.026-0.076-0.037-0.032-0.020-0.062-0.042-0.093-0.064-0.056-0.040-0.127-0.080-0.166-0.13 0.019-0.008 0.048 0.056 0.053 0.070 0.006 0.019-0 0.029 0 0.046s0.012 0.032 0.012 0.050c-0 0.017-0.003 0.026 0.003 0.047 0.006 0.022 0.001 0.022-0.007 0.043-0.012 0.032-0.028 0.054-0.016 0.086 0.008 0.021 0.008 0.064-0.027 0.067-0.030 0.003-0.058-0.039-0.068-0.054s-0.010-0.036-0.016-0.053c-0.007-0.016-0.020-0.034-0.032-0.047-0.011-0.012-0.019-0.021-0.028-0.035-0.010-0.015-0.029-0.032-0.033-0.049 0.020 0.051-0.020 0.101-0.043 0.154-0.012 0.028-0.023 0.053-0.044 0.078-0.014 0.017-0.030 0.030-0.039 0.048-0.006 0.014-0.006 0.026-0.016 0.039-0.001-0.016-0.017-0.015-0.028-0.024-0.021-0.016-0.019-0.025-0.019-0.046 0-0.031-0.005-0.065-0.004-0.098 0-0.011 0.003-0.026 0.003-0.040 0-0.005 0.008-0.010 0.008-0.018s-0.009-0.015-0.010-0.023c-0.002-0.019 0-0.038-0.002-0.057-0.002-0.017 0.010-0.042-0.004-0.055-0.040 0.030-0.070 0.065-0.098 0.105-0.029 0.041-0.079 0.084-0.116 0.122-0.018 0.018-0.050 0.046-0.078 0.047-0.027 0.002-0.044-0.011-0.040-0.027 0.002-0.009 0.016-0.020 0.020-0.029 0.005-0.010 0.005-0.022 0.009-0.032 0.008-0.021 0.021-0.044 0.032-0.065 0.026-0.045 0.078-0.107 0.065-0.156-0.003-0.012-0.017-0.014-0.021-0.021-0.007-0.011 0.004-0.019 0.001-0.026-0.008-0.022-0.002-0.018-0.033-0.012-0.012 0.002-0.035 0.009-0.046 0.015-0.012 0.007-0.012 0.016-0.024 0.022-0.016 0.009-0.042 0.014-0.060 0.019-0.030 0.010-0.059 0.020-0.089 0.030s-0.185 0.072-0.195 0.055c0.071-0.033 0.14-0.101 0.18-0.162 0.018-0.028 0.036-0.056 0.054-0.084 0.014-0.024 0.032-0.037 0.050-0.057 0.011-0.011 0.028-0.030 0.027-0.043-0.025 0.003-0.042 0.011-0.065 0.010-0.028-0.001-0.055-0.006-0.082-0.009-0.044-0.005-0.081-0.006-0.129-0.005-0.016 0.001-0.041-0.003-0.057-0.001-0.024 0.003-0.045 0.014-0.069 0.017-0.022 0.002-0.053 0-0.077 0.002-0.021 0.001-0.056 0.011-0.073 0.007 0.018-0.022 0.060-0.033 0.086-0.047 0.015-0.008 0.030-0.020 0.045-0.030s0.030-0.020 0.049-0.031c0.040-0.022 0.073-0.048 0.119-0.062 0.029-0.009 0.086-0.033 0.098-0.058-0.033-0.012-0.071-0.005-0.107-0.006-0.039-0.002-0.080-0.001-0.118 0.004-0.035 0.005-0.068 0.004-0.104 0.008-0.026 0.003-0.046 0.009-0.071 0.013s-0.032-0.007-0.058 0.006c0.015-0.003 0.042-0.025 0.056-0.033 0.009-0.005 0.009-0.013 0.019-0.019 0.014-0.008 0.030-0.009 0.045-0.017 0.048-0.027 0.086-0.059 0.138-0.081 0.024-0.010 0.045-0.031 0.070-0.037 0.033-0.008 0.058-0.005 0.093-0.017 0.023-0.008 0.050-0.021 0.074-0.025 0.031-0.006 0.059 0.003 0.087-0.018-0.013-0.022-0.056-0.018-0.082-0.025-0.019-0.005-0.037-0.013-0.055-0.020-0.035-0.013-0.080-0.018-0.12-0.019-0.052-0.002-0.108 0.011-0.164 0.011-0.024 0-0.044-0.001-0.069 0.001-0.022 0.002-0.058 0.008-0.076-0 0.012-0.022-0.001-0.022 0.030-0.036 0.023-0.010 0.054-0.012 0.076-0.024 0.010-0.005 0.010-0.014 0.019-0.019 0.012-0.006 0.024-0.007 0.036-0.013 0.023-0.010 0.032-0.021 0.054-0.032 0.020-0.009 0.040-0.015 0.058-0.025 0.016-0.009 0.033-0.026 0.048-0.034 0.021-0.011 0.044-0.018 0.063-0.028 0.013-0.007 0.051-0.020 0.055-0.032 0.008-0.021-0.072-0.055-0.090-0.062-0.034-0.014-0.067-0.023-0.105-0.029-0.040-0.006-0.079-0.014-0.12-0.018-0.028-0.002-0.108 0.004-0.12-0.018 0.038-0.026 0.096-0.027 0.137-0.049 0.018-0.010 0.025-0.020 0.050-0.028 0.022-0.007 0.044-0.015 0.067-0.022 0.025-0.008 0.050-0.016 0.074-0.024 0.023-0.008 0.039-0.006 0.058-0.010 0.026-0.004 0.032-0.009 0.048-0.024 0.025-0.023 0.017-0.016-0.003-0.034-0.054-0.049-0.108-0.1-0.188-0.125-0.034-0.011-0.066-0.015-0.104-0.016-0.035-0.002-0.078-0.015-0.114 0.002 0.017-0.006 0.041-0.009 0.056-0.018 0.017-0.010 0.020-0.018 0.039-0.027 0.018-0.008 0.041-0.013 0.060-0.019 0.022-0.008 0.034-0.004 0.051-0.007 0.034-0.005 0.067-0.021 0.101-0.031 0.032-0.009 0.079-0.004 0.087-0.040 0.005-0.023-0.038-0.051-0.051-0.064-0.017-0.016-0.032-0.031-0.054-0.042-0.055-0.028-0.143-0.027-0.208-0.009 0.027 0.015 0.080-0.012 0.11-0.023 0.043-0.015 0.081-0.031 0.126-0.042 0.035-0.009 0.064-0 0.099 0.003 0.031 0.002 0.096 0.012 0.126 0.001-0.020-0.005-0.012-0.022-0.020-0.034s-0.018-0.015-0.027-0.028c-0.016-0.026-0.033-0.045-0.065-0.059-0.027-0.012-0.051-0.014-0.080-0.018-0.010-0.001-0.020-0.005-0.030-0.006-0.006-0.001-0.044 0.002-0.047 0-0.015-0.012 0.009-0.045 0.023-0.060 0.019-0.020 0.074-0.040 0.106-0.045 0.024-0.004 0.057 0.003 0.082 0.002 0.044-0.001 0.078-0.005 0.121-0.017-0.044-0.007-0.039-0.044-0.051-0.073s-0.039-0.060-0.060-0.082c-0.017-0.018-0.042-0.034-0.071-0.040-0.023-0.005-0.080-0.015-0.103-0.004 0.037-0.011 0.077-0.031 0.114-0.038 0.034-0.006 0.079-0.008 0.113-0.008 0.055-0.001 0.131 0.015 0.176 0.036 0.020-0.020-0.002-0.016-0.007-0.031s0.010-0.022 0.002-0.039c-0.003-0.007-0.021-0.023-0.027-0.029-0.011-0.012-0.021-0.024-0.037-0.033-0.030-0.015-0.066-0.029-0.099-0.041-0.029-0.010-0.056-0.009-0.086-0.017 0.011-0.009 0.052-0.008 0.070-0.010 0.019-0.002 0.043 0 0.063 0.002 0.022 0.002 0.047 0.004 0.065 0.014 0.008 0.004 0.014 0.017 0.022 0.019s0.022-0.002 0.030-0c0.028-0.036 0.014-0.082 0.019-0.116 0.003-0.023 0.010-0.036 0.005-0.059-0.006-0.030 0.004-0.045-0.016-0.072-0.015-0.020-0.035-0.040-0.046-0.062-0.013-0.025-0.014-0.039-0.035-0.058-0.017-0.015-0.034-0.029-0.052-0.044-0.022-0.019-0.044-0.022-0.078-0.029-0.053-0.011-0.124 0.005-0.175 0.036-0.011 0.007-0.047 0.036-0.055 0.047-0.009 0.013-0.004 0.016-0.006 0.028-0.004 0.020-0.007 0.018-0.021 0.038-0.009 0.013-0.010 0.024-0.020 0.036-0.009 0.010-0.020 0.018-0.028 0.028-0.013 0.016-0.020 0.040-0.037 0.053-0.053 0.039-0.114 0.022-0.166 0.015-0.061-0.009-0.126-0.041-0.157-0.080-0.030-0.038-0.074-0.065-0.088-0.112 0.008 0.015-0.009 0.046-0.012 0.063-0.006 0.031-0.001 0.062-0.002 0.091-0.002 0.048-0.026 0.1-0.018 0.146 0.004 0.026 0.017 0.051 0.025 0.075 0.008 0.026 0.012 0.065 0.028 0.087 0.026 0.036 0.093 0.067 0.078 0.117-0.008 0.026-0.026 0.052-0.027 0.078-0.001 0.032 0.002 0.058-0.017 0.091-0.026 0.045-0.042 0.087-0.077 0.131-0.030 0.039-0.055 0.075-0.088 0.111-0.034 0.038-0.070 0.074-0.099 0.117-0.038 0.055-0.040 0.1-0.047 0.157-0.005 0.045-0.027 0.092-0.038 0.138-0.012 0.051-0.019 0.101-0.028 0.152-0.004 0.021-0.012 0.041-0.015 0.062-0.004 0.028 0.004 0.054-0.002 0.085-0.004 0.023-0.020 0.042-0.026 0.066-0.007 0.028 0 0.047 0 0.074 0 0.022-0.016 0.051-0.021 0.073-0.008 0.029-0.003 0.060-0.007 0.090s-0.012 0.051-0.002 0.080c0.009 0.027 0.018 0.054 0.027 0.080 0.004 0.013 0.006 0.028 0.013 0.041 0.008 0.014 0.021 0.021 0.030 0.035 0.014 0.023 0.018 0.056 0.026 0.081 0.009 0.028 0.014 0.065 0.033 0.088 0.010 0.012 0.018 0.014 0.024 0.033 0.004 0.013 0.009 0.027 0.014 0.040 0.011 0.033 0.006 0.065 0.016 0.097 0.004 0.015 0.008 0.033 0.015 0.046 0.008 0.016 0.023 0.025 0.031 0.041 0.006 0.012 0.004 0.030 0.012 0.041 0.010 0.014 0.020 0.013 0.028 0.031 0.016 0.038 0.036 0.072 0.063 0.105 0.022 0.027 0.051 0.054 0.066 0.085 0.006 0.013 0.013 0.033 0.014 0.048 0.001 0.025-0.018 0.047-0.008 0.073z"></path>
<path d="M13.020 10.018c-0.043 0.035-0.004 0.107 0.016 0.145 0.030 0.058 0.081 0.097 0.106 0.158 0.022 0.052 0.049 0.089 0.069 0.139 0.024 0.060 0.022 0.126 0.040 0.188 0.014 0.048 0.045 0.073 0.047 0.127 0.003 0.066 0 0.132-0 0.198 0 0.029 0.006 0.065 0.001 0.093-0.005 0.030-0.026 0.051-0.026 0.082-0 0.016 0.011 0.030 0.011 0.044 0 0.010-0.007 0.017-0.007 0.027 0 0.039-0.012 0.067-0.021 0.103-0.007 0.028-0.001 0.054-0.007 0.082-0.006 0.030-0.024 0.064-0.033 0.093-0.018 0.057-0.040 0.114-0.064 0.169-0.037 0.087-0.087 0.178-0.14 0.255-0.033 0.048-0.061 0.102-0.099 0.147-0.036 0.043-0.079 0.082-0.107 0.124-0.056 0.083-0.11 0.151-0.198 0.201-0.052 0.030-0.092 0.048-0.149 0.070-0.058 0.022-0.111 0.026-0.163 0.058-0.025 0.015-0.040 0.031-0.070 0.037s-0.065-0.009-0.094-0.002c-0.054 0.013-0.116 0.053-0.172 0.074-0.038 0.014-0.087 0.022-0.113 0.061-0.039 0.058 0.010 0.081 0.032 0.134 0.024 0.056 0.032 0.115 0.049 0.17 0.016 0.049 0.054 0.091 0.071 0.145 0.032 0.109 0.11 0.219 0.204 0.28 0.054 0.035 0.053 0.078 0.075 0.14 0.022 0.060 0.070 0.096 0.106 0.145 0.031 0.042 0.028 0.11 0.057 0.153 0.031 0.046 0.051 0.067 0.065 0.121 0.007 0.028 0.008 0.045 0.023 0.070 0.011 0.018 0.032 0.034 0.042 0.051 0.011 0.019 0.010 0.056 0.016 0.077 0.010 0.034 0.031 0.070 0.036 0.105 0.003 0.015-0.006 0.033-0.002 0.048 0.002 0.012 0.018 0.020 0.019 0.027 0.006 0.023 0.010 0.044 0.017 0.065 0.016 0.052 0.040 0.108 0.064 0.157 0.044 0.090 0.082 0.21 0.181 0.257 0.097 0.046 0.2 0.055 0.303 0.080 0.027 0.007 0.054 0.014 0.082 0.021 0.016 0.004 0.028 0.017 0.044 0.017 0.015 0 0.013-0.016 0.027-0.017 0.056-0.004 0.127-0.011 0.182-0 0.028 0.005 0.036 0.020 0.072 0.022 0.035 0.002 0.053-0.004 0.082-0.012 0.054-0.014 0.116-0.003 0.173-0.014 0.028-0.005 0.036-0.020 0.072-0.022 0.027-0.001 0.055-0 0.082 0 0.038 0 0.058-0.010 0.093-0.018 0.028-0.007 0.060-0.021 0.084-0.026 0.030-0.006 0.052-0.003 0.080-0.013 0.016-0.006 0.036-0.025 0.052-0.030 0.057-0.019 0.11-0.023 0.17-0.040 0.114-0.032 0.222-0.089 0.314-0.163 0.051-0.041 0.118-0.086 0.16-0.134 0.012-0.013 0.018-0.047 0.028-0.064 0.013-0.023 0.027-0.045 0.041-0.069 0.019-0.034 0.023-0.057 0.029-0.094 0.005-0.031 0.018-0.040 0.025-0.068 0.004-0.016-0.006-0.034-0.003-0.049 0.002-0.010 0.018-0.021 0.019-0.027 0.006-0.029 0.006-0.058 0.005-0.088-0.001-0.059 0.040-0.104 0.024-0.164-0.007-0.029-0.021-0.035-0.025-0.068-0.004-0.036-0.002-0.059-0.017-0.094-0.009-0.020-0.026-0.048-0.030-0.068-0.007-0.030 0.009-0.065 0.002-0.094-0.012-0.058-0.042-0.107-0.048-0.163-0.004-0.030 0.003-0.063 0.001-0.094-0.002-0.036-0.018-0.059-0.025-0.093-0.005-0.026 0.008-0.056 0.002-0.082-0.006-0.031-0.021-0.047-0.025-0.080-0.006-0.058-0.013-0.116-0.025-0.173-0.012-0.055-0.056-0.118-0.074-0.177-0.017-0.056-0.035-0.122-0.064-0.173s-0.068-0.101-0.093-0.152c-0.049-0.098-0.074-0.208-0.122-0.304-0.055-0.11-0.151-0.188-0.223-0.285-0.024-0.033-0.034-0.084-0.054-0.12-0.026-0.047-0.061-0.094-0.091-0.14-0.034-0.054-0.055-0.092-0.069-0.154s-0.044-0.126-0.079-0.176c-0.027-0.038-0.061-0.067-0.079-0.109-0.024-0.057-0.026-0.115-0.055-0.167-0.023-0.041-0.050-0.080-0.085-0.114-0.041-0.039-0.049-0.076-0.078-0.12-0.048-0.073-0.127-0.125-0.172-0.2-0.027-0.046-0.046-0.105-0.076-0.146-0.029-0.040-0.071-0.069-0.1-0.11-0.036-0.052-0.080-0.072-0.134-0.099-0.058-0.028-0.074-0.069-0.122-0.112-0.040-0.036-0.084-0.049-0.122-0.086-0.040-0.040-0.119-0.131-0.041 0.11z"></path>
</svg>
