<!-- Generated by IcoMoon.io -->
<svg version="1.1" xmlns="http://www.w3.org/2000/svg" width="32" height="32" viewBox="0 0 32 32">
<path d="M13.636 7.934c-0.006 0.008-0.012 0.016-0.017 0.024l0.002 0.012c0.003-0.017 0.009-0.026 0.015-0.036z"></path>
<path d="M13.636 7.934c0.005-0.007 0.010-0.014 0.015-0.022-0.006 0.005-0.010 0.014-0.015 0.022z"></path>
<path d="M26.119 6.245c-0.006-0.003-0.013-0.006-0.019-0.009-0.134-0.017-0.269-0.029-0.405-0.044z"></path>
<path d="M21.25 11.434c-0.149-0.022-0.306-0.014-0.449-0.071-0.279-0.111-0.57-0.196-0.851-0.275-0.069-0.019-0.133-0.049-0.198-0.073-0.027-0.010-0.063-0.034-0.086-0.040-0.035-0.009-0.068-0.009-0.1-0.019-0.134-0.042-0.254-0.1-0.385-0.133-0.069-0.017-0.141-0.039-0.205-0.060s-0.12-0.050-0.18-0.073c-0.058-0.022-0.119-0.026-0.18-0.045-0.057-0.018-0.125-0.051-0.181-0.070-0.064-0.023-0.118-0.047-0.177-0.076-0.050-0.025-0.115-0.073-0.168-0.084-0.031-0.007-0.062-0.008-0.091-0.016-0.035-0.009-0.066-0.014-0.106-0.013-0.036 0-0.071-0-0.106 0-0.050 0.001-0.073-0.014-0.119-0.024-0.071-0.016-0.15 0.012-0.22-0.008-0.032-0.009-0.044-0.021-0.086-0.020-0.039 0-0.081-0.006-0.119-0.001s-0.068 0.024-0.106 0.028c-0.048 0.006-0.074 0.004-0.119 0.019-0.034 0.011-0.072 0.028-0.106 0.034-0.039 0.007-0.080-0.008-0.12 0.001-0.047 0.010-0.068 0.031-0.12 0.025-0.034-0.004-0.047-0.021-0.078-0.028-0.035-0.008-0.072 0.004-0.108-0.004-0.039-0.010-0.081-0.029-0.117-0.047-0.056-0.028-0.117-0.050-0.155-0.106-0.034-0.051-0.069-0.089-0.113-0.133-0.1-0.1-0.192-0.205-0.292-0.305-0.094-0.094-0.143-0.21-0.238-0.305-0.067-0.067-0.193-0.168-0.292-0.16-0.040 0.003-0.080 0.021-0.12 0.028-0.032 0.006-0.048 0.021-0.078 0.028-0.070 0.017-0.154-0.015-0.225 0.001-0.062 0.014-0.133 0.056-0.201 0.072s-0.114 0.030-0.173 0.072c-0.041 0.030-0.105 0.072-0.152 0.087-0.067 0.021-0.144 0.022-0.207 0.046s-0.114 0.064-0.186 0.067c-0.073 0.003-0.146 0.023-0.212 0.039-0.032 0.008-0.071 0.025-0.106 0.034-0.036 0.009-0.070 0.003-0.106 0.012-0.080 0.020-0.153 0.021-0.239 0.021-0.15 0-0.301-0.001-0.451 0-0.072 0-0.118-0.019-0.186-0.026-0.073-0.008-0.139-0.048-0.212-0.074-0.139-0.051-0.279-0.099-0.418-0.145-0.117-0.039-0.218-0.102-0.317-0.186-0.091-0.077-0.192-0.175-0.266-0.266-0.069-0.085-0.158-0.169-0.219-0.258-0.043-0.064-0.069-0.135-0.133-0.187-0.058-0.047-0.108-0.108-0.126-0.185-0.009-0.039-0.009-0.068-0.025-0.106-0.013-0.029-0.046-0.060-0.055-0.086-0.023-0.065-0.005-0.164-0.005-0.233 0-0.067-0.015-0.134 0.032-0.186 0.046-0.050 0.108-0.082 0.147-0.139 0.045-0.065 0.082-0.123 0.139-0.18 0.034-0.034 0.075-0.066 0.101-0.106 0.028-0.045 0.042-0.094 0.078-0.134 0.106-0.116 0.246-0.115 0.372-0.19 0.114-0.069 0.232-0.145 0.344-0.214 0.108-0.066 0.24-0.103 0.351-0.152 0.060-0.027 0.123-0.054 0.187-0.053 0.034 0 0.072-0.005 0.107-0.001 0.042 0.006 0.062 0.022 0.105 0.028 0.128 0.016 0.256 0.026 0.372 0.085 0.061 0.031 0.121 0.071 0.159 0.127 0.046 0.067 0.109 0.1 0.161 0.159 0.049 0.056 0.075 0.11 0.131 0.158 0.086 0.073 0.062 0.12 0.086 0.214 0.017 0.067 0.048 0.116 0.047 0.186-0.001 0.088-0.010 0.142-0.046 0.219-0.024 0.051-0.042 0.103-0.066 0.153-0.037 0.077-0.111 0.091-0.181 0.125-0.116 0.056-0.222 0.121-0.364 0.081-0.032-0.009-0.044-0.021-0.086-0.021-0.036 0.001-0.072 0.004-0.106-0.005-0.032-0.009-0.092-0.041-0.103-0.074-0.020-0.065 0.029-0.053 0.076-0.053 0.070 0 0.112 0.027 0.186 0.026 0.036-0 0.073 0.007 0.107 0.007 0.033 0 0.067-0.007 0.105-0.007 0.139-0.001 0.24-0.078 0.312-0.192 0.001-0.002 0.003-0.004 0.004-0.006l-0.077-0.386c0.031 0.041 0.078 0.052 0.107 0.092 0.019 0.026 0.050 0.089 0.054 0.12 0.005 0.044-0.023 0.088-0.052 0.128 0.030-0.026 0.074-0.023 0.102-0.063 0.035-0.050-0.009-0.175-0.033-0.218-0.058-0.105-0.152-0.251-0.258-0.319-0.135-0.087-0.264-0.138-0.424-0.138-0.075 0-0.15 0-0.226 0-0.081-0-0.147 0.029-0.226 0.027-0.128-0.003-0.283 0.071-0.379 0.153-0.1 0.085-0.208 0.162-0.304 0.252-0.090 0.085-0.231 0.184-0.267 0.312-0.019 0.068-0.028 0.101-0.072 0.159-0.041 0.055-0.067 0.086-0.066 0.159 0.001 0.077-0.006 0.152 0.013 0.225s0.028 0.146 0.046 0.22c0.005 0.020 0.019 0.054 0.027 0.080 0.004 0.012 0.017 0.029 0.021 0.045s-0.002 0.035 0.002 0.052c0.012 0.052 0.068 0.109 0.097 0.154 0.079 0.123 0.129 0.239 0.247 0.334 0.106 0.085 0.245 0.152 0.369 0.198 0.136 0.050 0.28 0.102 0.425 0.127 0.142 0.025 0.316-0.004 0.451-0.026 0.044-0.007 0.072-0.026 0.119-0.028 0.035-0.001 0.071 0 0.106 0 0.081 0 0.149-0.014 0.226-0.032s0.152-0.058 0.226-0.088c0.065-0.027 0.14-0.045 0.2-0.086 0.047-0.032 0.098-0.077 0.142-0.112 0.056-0.045 0.090-0.119 0.147-0.166 0.107-0.086 0.233-0.162 0.346-0.24 0.061-0.042 0.105-0.068 0.174-0.096 0.027-0.011 0.049-0.026 0.078-0.031 0.039-0.006 0.084 0.012 0.122 0.002 0.040-0.010 0.043-0.026 0.091-0.028 0.035-0.001 0.072 0.005 0.106-0.002 0.042-0.009 0.061-0.024 0.106-0.024 0.044-0.001 0.089-0.002 0.133 0 0.142 0.007 0.271 0.092 0.398 0.159 0.091 0.048 0.19 0.145 0.249 0.229 0.069 0.097 0.132 0.199 0.215 0.288 0.045 0.048 0.097 0.104 0.133 0.16 0.037 0.056 0.072 0.12 0.119 0.173 0.086 0.098 0.157 0.194 0.268 0.262 0.051 0.031 0.114 0.073 0.169 0.097 0.064 0.027 0.154 0.012 0.226 0.012 0.037 0 0.062 0.004 0.094-0.012 0.028-0.014 0.032-0.030 0.064-0.041 0.073-0.024 0.146-0.050 0.213-0.080 0.060-0.026 0.115-0.026 0.186-0.027 0.035 0 0.071 0.002 0.106 0 0.044-0.002 0.068-0.025 0.105-0.025 0.033-0 0.069 0.025 0.107 0.025 0.034 0.001 0.072-0.005 0.106-0.001 0.068 0.008 0.14 0.034 0.199 0.067 0.054 0.030 0.118 0.056 0.17 0.093 0.057 0.040 0.109 0.099 0.162 0.144 0.104 0.088 0.21 0.175 0.32 0.254 0.14 0.1 0.295 0.145 0.449 0.213 0.278 0.122 0.576 0.272 0.876 0.342 0.151 0.035 0.301 0.071 0.451 0.109 0.138 0.034 0.303 0.014 0.428 0.076 0.050 0.025 0.102 0.056 0.091 0.123-0.012 0.074-0.113 0.089-0.174 0.080zM18.686 13.571c-0.032 0.049-0.13 0.052-0.182 0.051-0.078-0-0.13 0.001-0.198-0.030-0.127-0.057-0.266-0.151-0.399-0.156-0.066-0.003-0.149-0.011-0.214-0.001-0.061 0.010-0.14 0.054-0.199 0.080-0.119 0.053-0.288 0.027-0.423 0.027h-0.451c-0.137 0-0.279 0.015-0.398-0.038-0.061-0.027-0.112-0.089-0.172-0.121-0.057-0.030-0.107-0.056-0.153-0.1-0.105-0.099-0.226-0.18-0.332-0.279-0.096-0.089-0.188-0.17-0.305-0.226-0.059-0.028-0.121-0.057-0.18-0.086-0.027-0.013-0.048-0.038-0.078-0.048-0.018-0.006-0.039 0-0.055-0.004-0.018-0.005-0.025-0.022-0.041-0.025-0.033-0.006-0.068 0.002-0.102-0.004s-0.036-0.029-0.082-0.026c-0.071 0.006-0.146 0.030-0.209 0.058-0.050 0.021-0.108 0.040-0.161 0.051-0.071 0.015-0.15-0.016-0.221 0.005-0.045 0.014-0.093 0.056-0.138 0.074-0.067 0.028-0.14 0.012-0.213 0.032s-0.135 0.020-0.212 0.021c-0.036 0-0.059-0.015-0.086-0.021-0.013-0.003-0.035-0.002-0.047-0.006-0.009-0.003-0.052-0.019-0.059-0.021-0.034-0.008-0.065-0.004-0.1-0.005-0.041-0.002-0.067-0.022-0.106-0.029-0.018-0.003-0.037 0.007-0.054 0.003-0.013-0.003-0.023-0.020-0.031-0.022-0.031-0.008-0.062-0.024-0.089-0.030-0.124-0.028-0.263-0.124-0.363-0.208-0.042-0.035-0.053-0.081-0.092-0.119s-0.089-0.076-0.12-0.119c-0.032-0.043-0.044-0.092-0.079-0.133-0.047-0.055-0.098-0.115-0.154-0.16-0.047-0.039-0.076-0.069-0.131-0.092-0.040-0.016-0.069-0.009-0.108-0.018-0.051-0.012-0.030-0.030-0.091-0.015-0.073 0.018-0.148 0.014-0.226 0.014s-0.123 0.026-0.199 0.026c-0.086 0-0.092-0.012-0.123-0.090-0.023-0.058-0.051-0.108 0.136-0.149-0.002-0.082 0.029-0.103 0.1-0.14 0.060-0.031 0.124-0.072 0.192-0.092 0.138-0.042 0.306-0.050 0.452-0.034 0.060 0.007 0.109 0.041 0.158 0.080 0.064 0.051 0.139 0.102 0.197 0.16 0.105 0.104 0.156 0.246 0.235 0.366 0.071 0.108 0.172 0.217 0.286 0.278 0.122 0.064 0.226 0.172 0.371 0.18 0.035 0.002 0.066-0.003 0.1 0.005 0.016 0.004 0.004 0.022 0.031 0.024 0.019 0.001 0.039-0.019 0.054-0.024 0.072-0.019 0.152 0.009 0.223-0.008 0.056-0.014 0.121-0.070 0.175-0.097 0.040-0.020 0.065-0.026 0.107-0.033 0.036-0.006 0.057-0.019 0.091-0.027 0.071-0.017 0.142-0.030 0.213-0.056s0.149-0.051 0.226-0.050c0.071 0.001 0.142-0 0.212-0 0.035 0 0.071 0.001 0.106 0 0.053-0.001 0.083 0.018 0.133 0.028 0.034 0.007 0.074-0.011 0.108-0.003 0.031 0.008 0.042 0.025 0.078 0.029 0.075 0.008 0.129 0.011 0.194 0.045 0.025 0.014 0.043 0.027 0.072 0.040 0.034 0.016 0.070 0.032 0.101 0.054 0.071 0.048 0.118 0.106 0.178 0.166 0.116 0.115 0.236 0.229 0.339 0.353 0.088 0.105 0.192 0.205 0.31 0.277 0.062 0.038 0.143 0.077 0.214 0.094 0.036 0.009 0.071 0.018 0.106 0.026 0.045 0.012 0.088 0 0.133 0.005 0.064 0.008 0.112 0.036 0.186 0.028 0.059-0.006 0.112-0.042 0.172-0.056 0.072-0.018 0.126-0.052 0.199-0.050 0.080 0.001 0.148-0.011 0.223-0.029 0.034-0.008 0.038-0.022 0.082-0.024 0.035-0.002 0.071 0 0.106 0s0.071-0.002 0.106-0c0.047 0.002 0.052 0.019 0.091 0.028 0.032 0.008 0.068-0.003 0.102 0.004 0.028 0.006 0.048 0.018 0.086 0.020 0.074 0.003 0.13 0.043 0.192 0.074 0.046 0.022 0.093 0.048 0.134 0.078 0.051 0.039 0.109 0.158 0.068 0.222zM17.948 16.224c-0.017 0.054-0.063 0.066-0.107 0.078-0.055 0.015-0.107 0.039-0.17 0.024-0.025-0.006-0.038-0.022-0.068-0.025s-0.054-0.006-0.080-0.013c-0.052-0.013-0.108-0.021-0.159-0.039-0.058-0.021-0.125-0.045-0.186-0.055-0.030-0.005-0.053-0.005-0.080-0.012-0.035-0.009-0.068-0.005-0.106-0.012-0.034-0.006-0.058-0.025-0.093-0.029-0.031-0.003-0.057 0.002-0.087-0.005-0.023-0.005-0.040-0.018-0.072-0.021-0.036-0.004-0.052-0.015-0.082-0.024-0.11-0.031-0.207-0.063-0.304-0.129-0.108-0.073-0.24-0.114-0.371-0.113-0.031 0-0.062 0.002-0.093 0-0.030-0.001-0.051-0.017-0.072-0.021-0.064-0.011-0.126 0.008-0.193-0.005-0.111-0.022-0.185-0.125-0.246-0.214-0.064-0.094-0.153-0.166-0.212-0.266-0.027-0.045-0.042-0.079-0.086-0.105-0.040-0.024-0.089-0.050-0.132-0.067-0.099-0.037-0.251-0.017-0.345 0.013-0.13 0.042-0.27 0.013-0.4 0.053-0.025 0.008-0.037 0.022-0.064 0.028-0.028 0.007-0.064-0.004-0.094-0.002-0.060 0.004-0.144 0.026-0.2 0.050-0.107 0.046-0.211 0.074-0.331 0.043-0.054-0.014-0.114-0.022-0.172-0.043-0.060-0.021-0.12-0.017-0.172-0.050-0.079-0.050-0.146-0.13-0.223-0.186-0.086-0.062-0.104-0.174-0.175-0.252-0.040-0.044-0.083-0.055-0.133-0.079-0.025-0.012-0.048-0.036-0.074-0.048s-0.048-0.016-0.080-0.025c-0.025-0.008-0.038-0.027-0.073-0.022-0.027 0.004-0.040 0.017-0.064 0.028-0.062 0.027-0.121 0.081-0.187 0.101-0.097 0.029-0.295 0.023-0.386-0.018-0.059-0.026-0.11-0.053-0.12-0.123-0.007-0.049-0.018-0.176 0.293-0.199 0.013-0.051-0.071-0.099-0.002-0.134 0.023-0.012 0.064-0.010 0.092-0.025 0.025-0.013 0.050-0.032 0.074-0.046 0.044-0.023 0.088-0.066 0.133-0.081 0.028-0.009 0.059-0.013 0.087-0.019 0.053-0.013 0.035-0.002 0.082 0.011 0.028 0.008 0.046 0.012 0.070 0.023 0.034 0.015 0.036 0.023 0.062 0.046 0.047 0.041 0.089 0.092 0.143 0.126 0.098 0.063 0.204 0.135 0.293 0.205 0.078 0.062 0.154 0.139 0.226 0.213 0.085 0.089 0.17 0.131 0.279 0.178 0.127 0.056 0.256 0.069 0.398 0.061 0.118-0.006 0.224-0.086 0.331-0.108 0.031-0.006 0.062 0.003 0.094-0.005 0.030-0.008 0.062-0.024 0.093-0.034 0.069-0.021 0.131-0.050 0.199-0.066 0.066-0.016 0.115-0.027 0.186-0.027 0.074-0.001 0.142 0.014 0.212 0.025 0.053 0.008 0.111 0.039 0.158 0.054 0.060 0.019 0.115 0.039 0.171 0.056 0.044 0.014 0.072 0.049 0.108 0.077 0.018 0.014 0.045 0.018 0.060 0.031 0.029 0.024 0.057 0.073 0.081 0.103 0.153 0.192 0.279 0.417 0.523 0.5 0.122 0.041 0.222 0.080 0.345 0.107 0.061 0.013 0.124 0 0.186 0.016 0.033 0.008 0.060 0.008 0.094 0.012 0.035 0.004 0.046 0.021 0.078 0.029 0.063 0.016 0.105-0.021 0.16-0.028 0.064-0.008 0.135 0.013 0.197-0.002 0.026-0.006 0.037-0.021 0.068-0.025 0.025-0.003 0.084-0.007 0.108-0.001 0.022 0.005 0.029 0.024 0.050 0.029 0.038 0.009 0.080-0.009 0.118 0.001s0.1 0.045 0.136 0.063c0.047 0.024 0.084 0.053 0.124 0.086 0.090 0.077 0.224 0.187 0.182 0.327zM28.036 6.795c-0.063-0.032-0.133-0.064-0.204-0.085-0.061-0.019-0.116-0.047-0.175-0.067-0.066-0.023-0.138-0.026-0.204-0.052-0.213-0.081-0.419-0.159-0.642-0.213-0.137-0.033-0.276-0.063-0.414-0.093-0.099-0.022-0.198-0.036-0.297-0.048 0.006 0.003 0.013 0.006 0.019 0.009l-0.424-0.053c0.136 0.015 0.271 0.027 0.406 0.044-0.040-0.020-0.082-0.040-0.127-0.045-0.065-0.007-0.11-0.001-0.172-0.026-0.060-0.023-0.108-0.028-0.173-0.027-0.066 0.002-0.12 0.028-0.188 0.027-0.081-0.001-0.163-0-0.244 0-0.095 0-0.181-0.023-0.274-0.028-0.049-0.002-0.1 0.008-0.149 0.002-0.046-0.005-0.087-0.025-0.133-0.029-0.044-0.004-0.089 0.008-0.133 0.003-0.066-0.007-0.124-0.029-0.192-0.028-0.211 0.003-0.404-0.048-0.61-0.086-0.223-0.041-0.447-0.075-0.67-0.12-0.101-0.020-0.209-0.054-0.311-0.060-0.112-0.006-0.224-0.027-0.334-0.050-0.181-0.038-0.366-0.054-0.544-0.096-0.081-0.019-0.163-0.024-0.244-0.046-0.090-0.024-0.176-0.053-0.266-0.074-0.078-0.018-0.159-0.042-0.238-0.054-0.093-0.014-0.197-0.013-0.286-0.045-0.146-0.053-0.307-0.073-0.458-0.107-0.18-0.041-0.36-0.077-0.538-0.127-0.333-0.092-0.678-0.152-1.014-0.219-0.088-0.017-0.177-0.022-0.266-0.039-0.102-0.019-0.203-0.047-0.305-0.067-0.090-0.017-0.181-0.026-0.271-0.046-0.050-0.011-0.093-0.010-0.144-0.012-0.056-0.003-0.106-0.024-0.163-0.028-0.189-0.014-0.374-0.073-0.559-0.103-0.043-0.007-0.087 0.003-0.13-0.004-0.058-0.010-0.098-0.024-0.16-0.024-0.092 0-0.176-0.035-0.265-0.051-0.042-0.007-0.084 0.002-0.126-0.008-0.031-0.007-0.052-0.019-0.084-0.021-0.035-0.003-0.074 0.008-0.108 0.002-0.047-0.008-0.083-0.028-0.133-0.028-0.143-0.002-0.283-0.046-0.424-0.073-0.037-0.007-0.070-0.003-0.107-0.005-0.038-0.002-0.058-0.017-0.092-0.025-0.063-0.014-0.129-0.009-0.193-0.023-0.058-0.012-0.119-0.004-0.178-0.006-0.066-0.001-0.118-0.027-0.186-0.027-0.115 0.001-0.23-0-0.345-0-0.057 0-0.115 0-0.172 0-0.026 0-0.053-0.002-0.080-0-0.040 0.002-0.068 0.022-0.106 0.028-0.051 0.009-0.11-0.015-0.16-0.003-0.026 0.006-0.036 0.024-0.064 0.029-0.030 0.005-0.058-0.004-0.088 0.005-0.099 0.027-0.206 0.072-0.311 0.114-0.109 0.044-0.247 0.049-0.343 0.119-0.081 0.059-0.152 0.112-0.242 0.156-0.097 0.047-0.186 0.109-0.277 0.169-0.105 0.068-0.216 0.128-0.319 0.199-0.115 0.080-0.239 0.144-0.356 0.219-0.046 0.030-0.085 0.067-0.135 0.093-0.061 0.032-0.127 0.056-0.186 0.092-0.113 0.068-0.207 0.154-0.318 0.224-0.125 0.078-0.241 0.14-0.33 0.255-0.039 0.050-0.093 0.083-0.133 0.132-0.027 0.034-0.063 0.062-0.095 0.091-0.025 0.022-0.040 0.046-0.064 0.069s-0.053 0.028-0.075 0.051c-0.024 0.025-0.044 0.055-0.070 0.081-0.051 0.051-0.086 0.119-0.134 0.172-0.094 0.104-0.165 0.228-0.243 0.345-0.072 0.109-0.142 0.216-0.222 0.321-0.087 0.115-0.163 0.236-0.239 0.356-0.032 0.049-0.051 0.114-0.086 0.16-0.019 0.025-0.042 0.038-0.060 0.064-0.021 0.030-0.039 0.063-0.060 0.094-0.159 0.229-0.31 0.46-0.376 0.735-0.029 0.121-0.054 0.245-0.080 0.366-0.007 0.032 0 0.061-0.008 0.093s-0.020 0.049-0.021 0.086c-0.001 0.032 0.008 0.069 0.002 0.101-0.007 0.039-0.026 0.065-0.028 0.106-0.001 0.026 0.006 0.054 0.002 0.080-0.005 0.029-0.024 0.051-0.029 0.080-0.010 0.056 0.001 0.126 0.001 0.184v0.452c0 0.296 0.080 0.612 0.173 0.892 0.050 0.151 0.096 0.311 0.124 0.466 0.015 0.080 0.049 0.155 0.069 0.234 0.020 0.080 0.023 0.159 0.051 0.238 0.057 0.159 0.102 0.314 0.143 0.479 0.036 0.143 0.056 0.29 0.090 0.434 0.152 0.646 0.414 1.268 0.594 1.91 0.075 0.269 0.166 0.528 0.229 0.796 0.032 0.139 0.054 0.277 0.087 0.415 0.014 0.060 0.031 0.128 0.033 0.191 0.002 0.088 0.026 0.164 0.026 0.253-0.001 0.099 0 0.199 0 0.298 0 0.081-0.018 0.146-0.028 0.224-0.010 0.082 0.008 0.167-0.001 0.25-0.006 0.055-0.023 0.107-0.025 0.162-0.001 0.041 0.006 0.083-0.002 0.123-0.026 0.14-0.059 0.276-0.079 0.415-0.018 0.128-0.094 0.272-0.133 0.396-0.019 0.061-0.053 0.122-0.078 0.18-0.046 0.109-0.13 0.216-0.192 0.319-0.079 0.13-0.132 0.291-0.22 0.411-0.119 0.162-0.198 0.34-0.305 0.506-0.058 0.090-0.109 0.177-0.165 0.27-0.058 0.096-0.12 0.224-0.206 0.3-0.084 0.074-0.181 0.124-0.264 0.197-0.091 0.080-0.183 0.157-0.266 0.241-0.16 0.162-0.357 0.241-0.563 0.323-0.106 0.042-0.204 0.059-0.312 0.093-0.12 0.037-0.238 0.081-0.358 0.112-0.244 0.064-0.485 0.141-0.729 0.2-0.060 0.014-0.124 0.021-0.186 0.025-0.082 0.006-0.156 0.028-0.24 0.027-0.062-0.001-0.091 0.016-0.144 0.028-0.024 0.005-0.056-0.002-0.081-0.001-0.039 0.001-0.058 0.012-0.093 0.021-0.103 0.027-0.238 0.006-0.345 0.006-0.061 0-0.102 0.006-0.159 0.021-0.055 0.014-0.12 0.006-0.178 0.006 0.126 0.001 0.172 0.082 0.283 0.127 0.116 0.046 0.23 0.088 0.346 0.138 0.033 0.014 0.060 0.038 0.093 0.052 0.032 0.014 0.062 0.015 0.093 0.035 0.061 0.038 0.12 0.060 0.186 0.094 0.133 0.067 0.267 0.13 0.399 0.2 0.281 0.148 0.571 0.274 0.855 0.411 0.263 0.127 0.537 0.258 0.791 0.404 0.252 0.144 0.495 0.303 0.742 0.451 0.264 0.158 0.515 0.338 0.769 0.511 0.125 0.085 0.239 0.178 0.372 0.252 0.070 0.039 0.143 0.067 0.212 0.106 0.071 0.040 0.144 0.072 0.213 0.114 0.142 0.085 0.276 0.183 0.424 0.259 0.087 0.045 0.182 0.086 0.265 0.137 0.040 0.024 0.070 0.055 0.114 0.075 0.047 0.022 0.099 0.040 0.145 0.065 0.089 0.048 0.172 0.104 0.265 0.147 0.095 0.044 0.197 0.076 0.292 0.118s0.191 0.098 0.278 0.154c0.087 0.056 0.187 0.084 0.278 0.131 0.194 0.1 0.397 0.185 0.598 0.273 0.102 0.045 0.201 0.093 0.31 0.119 0.117 0.028 0.228 0.062 0.34 0.106 0.221 0.087 0.444 0.154 0.669 0.225 0.113 0.036 0.225 0.073 0.339 0.107 0.116 0.035 0.238 0.056 0.351 0.1 0.12 0.046 0.244 0.084 0.365 0.127 0.101 0.036 0.199 0.073 0.304 0.092 0.199 0.036 0.39 0.072 0.584 0.133 0.199 0.062 0.394 0.108 0.597 0.153 0.195 0.043 0.394 0.075 0.592 0.113 0.404 0.076 0.808 0.13 1.213 0.212 0.203 0.041 0.408 0.065 0.611 0.105 0.093 0.018 0.184 0.034 0.278 0.046 0.048 0.006 0.090 0.026 0.139 0.028 0.048 0.002 0.092-0.005 0.139 0.005 0.106 0.021 0.214 0.005 0.32 0.026 0.093 0.019 0.184 0.034 0.278 0.046 0.102 0.014 0.203 0.046 0.306 0.055 0.095 0.008 0.179-0.002 0.271 0.019 0.076 0.018 0.161 0.018 0.238 0.032s0.152 0.030 0.226 0.042c0.050 0.007 0.125-0.009 0.174-0.034 0.061-0.030 0.077-0.061 0.118-0.114 0.090-0.118 0.203-0.19 0.318-0.278 0.061-0.046 0.118-0.090 0.172-0.146 0.034-0.035 0.066-0.064 0.106-0.093 0.053-0.038 0.084-0.087 0.132-0.13 0.037-0.032 0.062-0.056 0.092-0.095 0.036-0.047 0.081-0.065 0.122-0.105 0.036-0.035 0.056-0.084 0.090-0.121 0.046-0.050 0.094-0.092 0.134-0.147 0.060-0.083 0.145-0.145 0.218-0.218 0.088-0.088 0.181-0.179 0.26-0.275 0.066-0.080 0.107-0.179 0.178-0.256 0.083-0.090 0.174-0.186 0.246-0.285 0.058-0.080 0.139-0.139 0.199-0.218 0.070-0.091 0.133-0.192 0.199-0.286 0.113-0.159 0.208-0.32 0.295-0.494 0.085-0.168 0.138-0.351 0.209-0.525 0.050-0.122 0.126-0.222 0.169-0.347 0.042-0.121 0.075-0.247 0.083-0.372 0.003-0.049 0.044-0.097 0.028-0.147-0.011-0.035-0.066-0.083-0.096-0.105-0.090-0.065-0.2-0.082-0.292-0.132-0.058-0.032-0.112-0.068-0.17-0.099-0.040-0.022-0.138-0.082-0.157-0.129-0.050-0.126 0.231-0.025 0.277-0.014 0.118 0.029 0.222 0.056 0.345 0.056 0.050 0 0.126 0.016 0.174 0.001 0.052-0.016 0.058-0.076 0.081-0.118s0.053-0.083 0.082-0.121c0.045-0.059 0.067-0.129 0.087-0.2 0.035-0.124 0.048-0.246 0.089-0.372 0.089-0.266 0.164-0.533 0.245-0.798 0.046-0.152 0.108-0.294 0.153-0.446 0.042-0.142 0.104-0.293 0.11-0.44 0.002-0.046 0.009-0.066 0.020-0.111 0.010-0.042-0.002-0.082 0.004-0.122s0.027-0.069 0.029-0.111c0.003-0.048-0.008-0.097 0.001-0.144 0.009-0.044 0.024-0.067 0.025-0.116 0.001-0.035-0.001-0.070-0.001-0.105 0-0.101 0-0.201 0-0.302 0-0.090-0.001-0.179 0-0.269 0.001-0.099-0.025-0.186-0.026-0.286-0.001-0.078-0.018-0.154-0.025-0.231-0.005-0.049-0.027-0.091-0.029-0.14-0.002-0.053 0.009-0.108-0.001-0.16-0.032-0.158-0.067-0.305-0.118-0.461-0.049-0.151-0.107-0.303-0.142-0.456-0.019-0.084-0.051-0.153-0.089-0.23-0.047-0.094-0.084-0.189-0.126-0.285-0.072-0.162-0.125-0.326-0.186-0.494-0.056-0.156-0.095-0.323-0.159-0.475-0.055-0.131-0.108-0.263-0.163-0.394-0.020-0.049-0.049-0.097-0.070-0.148-0.031-0.075-0.035-0.153-0.072-0.226-0.030-0.059-0.062-0.116-0.094-0.172s-0.070-0.124-0.092-0.186c-0.083-0.231-0.222-0.467-0.358-0.674-0.131-0.2-0.232-0.434-0.294-0.663-0.027-0.098-0.085-0.204-0.117-0.307-0.035-0.115-0.047-0.238-0.068-0.358-0.011-0.060-0.039-0.126-0.053-0.186-0.015-0.062-0.022-0.124-0.037-0.186-0.030-0.121-0.023-0.25-0.053-0.371-0.028-0.116-0.013-0.25-0.013-0.372 0-0.060 0.008-0.126 0.001-0.186-0.008-0.072-0.033-0.11-0.014-0.186 0.016-0.062 0.012-0.12 0.013-0.186 0.001-0.063 0.019-0.122 0.026-0.186 0.012-0.113 0.076-0.242 0.107-0.344 0.034-0.112 0.058-0.232 0.126-0.334 0.050-0.074 0.153-0.156 0.242-0.164-0.008-0.052-0.061-0.047-0.103-0.047-0.056-0-0.106-0.013-0.159-0.026-0.098-0.023-0.214-0.074-0.305-0.12-0.101-0.052-0.211-0.080-0.318-0.106-0.086-0.021-0.232-0.057-0.297-0.114 0.037-0.016 0.050 0.020 0.086 0.020 0.028-0 0.031-0.011 0.055-0.022 0.051-0.024 0.112-0.062 0.169-0.051 0.072 0.015 0.098 0.031 0.174-0.002 0.056-0.025 0.083-0.037 0.145-0.017 0.102 0.033 0.19 0.088 0.292 0.114 0.032 0.008 0.064-0.002 0.094 0.005 0.022 0.005 0.035 0.021 0.054 0.025 0.015 0.004 0.076 0.012 0.093 0.004 0.036-0.016 0.026-0.042 0.024-0.082-0.002-0.071 0.024-0.067 0.051-0.121 0.026-0.053 0.018-0.128 0.031-0.184 0.022-0.092 0.131-0.13 0.178-0.204 0.032-0.050 0.035-0.127 0.059-0.182 0.024-0.053 0.046-0.109 0.080-0.158 0.070-0.102 0.13-0.193 0.186-0.304 0.064-0.128 0.146-0.21 0.25-0.305 0.040-0.037 0.079-0.065 0.122-0.099 0.057-0.044 0.101-0.116 0.153-0.168 0.091-0.093 0.196-0.169 0.299-0.251 0.075-0.060 0.154-0.129 0.238-0.186 0.040-0.027 0.075-0.053 0.112-0.085 0.023-0.020 0.051-0.037 0.076-0.054 0.035-0.024 0.043-0.018 0.079-0.032 0.106-0.040 0.229-0.058 0.344-0.086 0.058-0.014 0.114-0.030 0.172-0.045 0.054-0.013 0.111-0.041 0.161-0.053 0.055-0.013 0.115-0.015 0.17-0.028 0.064-0.015 0.124-0.033 0.186-0.048 0.139-0.034 0.264-0.060 0.411-0.059 0.071 0.001 0.129-0.022 0.199-0.026 0.034-0.002 0.088-0.004 0.084-0.054-0.003-0.031-0.054-0.048-0.078-0.060z"></path>
<path d="M13.652 7.912c0.029-0.040 0.057-0.084 0.052-0.128-0.004-0.032-0.035-0.094-0.054-0.12-0.029-0.040-0.076-0.051-0.107-0.092l0.077 0.386c0.005-0.008 0.011-0.016 0.017-0.024 0.005-0.008 0.009-0.017 0.015-0.022z"></path>
</svg>
