<!-- Generated by IcoMoon.io -->
<svg version="1.1" xmlns="http://www.w3.org/2000/svg" width="32" height="32" viewBox="0 0 32 32">
<path d="M15.118 28.482c-0.136-0.355-0.251-2.351-0.254-4.434-0.008-4.738-0.129-4.962-2.282-4.202-2.683 0.947-4.013-0.313-1.631-1.545 0.646-0.334 1.175-0.876 1.175-1.204s0.528-0.896 1.173-1.263c0.967-0.55 1.173-0.92 1.175-2.105 0.001-0.79 0.089-1.672 0.194-1.959s0.024-0.785-0.18-1.107c-0.314-0.495-0.904-0.315-3.816 1.159-6.868 3.477-9.415 3.618-6.082 0.336 0.807-0.795 3.043-2.172 4.989-3.072 1.939-0.897 3.783-1.762 4.096-1.922s0.784-1.129 1.045-2.153c0.555-2.174 0.693-2.363 1.502-2.053 0.363 0.139 0.605 0.712 0.605 1.432 0 0.66 0.237 1.291 0.526 1.402s1.898-0.423 3.575-1.188c3.399-1.549 4.046-1.664 4.384-0.783 0.306 0.797-0.528 1.412-4.567 3.37-1.832 0.888-3.46 1.811-3.618 2.051-0.521 0.791-0.34 4.168 0.234 4.389 0.294 0.113 1.615-0.345 2.937-1.016 3.034-1.542 7.417-2.799 7.77-2.228 0.417 0.675-2.165 2.555-6.559 4.774-2.274 1.148-4.323 2.324-4.553 2.613s-0.512 2.791-0.626 5.56c-0.196 4.758-0.64 6.643-1.214 5.147zM18.505 22.709c-0.92-1.189-0.802-1.791 0.625-3.183 1.693-1.653 2.136-1.735 2.967-0.55 0.819 1.169 0.771 2.78-0.107 3.574-0.844 0.763-2.943 0.859-3.485 0.159z"></path>
</svg>
