<!-- Generated by IcoMoon.io -->
<svg version="1.1" xmlns="http://www.w3.org/2000/svg" width="32" height="32" viewBox="0 0 32 32">
<path d="M23.369 27.103c-0.756-0.274-1.721-0.809-2.144-1.189s-1.735-1.226-2.915-1.881c-1.179-0.654-3.048-1.796-4.152-2.538s-2.411-1.449-2.904-1.573c-0.873-0.219-1.7-1.448-1.7-2.526 0-0.295 0.479-0.81 1.065-1.145s1.248-1.051 1.473-1.592c0.649-1.561 1.608-1.226 4.209 1.47 1.302 1.349 3.734 3.581 5.404 4.959 3.9 3.218 4.57 3.968 4.71 5.276 0.098 0.919-0.013 1.084-0.779 1.154-0.491 0.045-1.512-0.142-2.268-0.416zM20.438 18.519c-1.056-1.056-1.074-1.278-0.193-2.398 0.376-0.479 1.836-3.114 3.243-5.856 3.46-6.743 5.722-8.972 5.722-5.64 0 1.374-3.217 11.135-4.128 12.525-0.601 0.917-2.552 2.242-3.304 2.244-0.255 0.001-0.858-0.393-1.34-0.876zM12.413 12.135c-0.098-0.096-1.867-0.264-3.931-0.373-3.687-0.194-6.076-0.521-6.076-0.832 0-0.087 0.16-0.456 0.355-0.82 0.436-0.815 1.468-1.151 7.151-2.327 8.708-1.801 10.467-2.078 11.015-1.732 0.716 0.451 1.445 3.031 1.111 3.932-0.47 1.27-2.709 2.061-6.23 2.2-1.769 0.070-3.297 0.049-3.395-0.048z"></path>
</svg>
