<!-- Generated by IcoMoon.io -->
<svg version="1.1" xmlns="http://www.w3.org/2000/svg" width="32" height="32" viewBox="0 0 32 32">
<path d="M4.343 28.572c-0.318-0.515 1.080-1.954 3.265-3.36 3.069-1.974 6.971-5.112 7.942-6.387l0.844-1.107-2.834 0.057c-1.559 0.031-3.468-0.118-4.243-0.332-1.892-0.523-3.144-2.029-3.144-3.782 0-4.064 5.208-10.235 9.519-11.279 1.354-0.328 2.824 1.245 3.142 3.362 0.215 1.431 0.135 1.752-0.744 3.003-0.541 0.77-1.585 1.741-2.319 2.156-1.579 0.895-1.802 0.925-2.050 0.277-0.114-0.297 0.359-1.011 1.198-1.809 1.444-1.373 1.545-2.104 0.418-3.012-0.758-0.611-1.671-0.519-2.795 0.281-1.998 1.422-3.009 4.998-1.731 6.117 0.716 0.627 3.686 1.949 4.379 1.949 0.801 0 4.573-1.908 5.976-3.023 2.397-1.905 2.477-1.156 0.317 2.941-2.211 4.192-4.437 7.211-5.968 8.092-0.693 0.399-0.675 0.413 0.271 0.215 1.129-0.235 4.82-2.496 5.745-3.518 0.678-0.75 1.843-0.887 1.843-0.217 0 0.814-4.68 5.1-7.306 6.691-2.999 1.817-5.494 2.354-7.081 1.522-0.88-0.461-1.028-0.431-2.358 0.484-1.49 1.025-1.98 1.171-2.285 0.679zM18.806 26.487c-0.122-0.198-0.169-0.412-0.104-0.476s1.29-1.090 2.722-2.28c1.432-1.19 2.937-2.607 3.345-3.149 1.32-1.756 2.751-3.156 3.042-2.976 0.545 0.337 0.278 2.514-0.441 3.597-0.892 1.344-3.985 3.866-5.99 4.885-1.658 0.843-2.243 0.933-2.573 0.399z"></path>
</svg>
