<!-- Generated by IcoMoon.io -->
<svg version="1.1" xmlns="http://www.w3.org/2000/svg" width="32" height="32" viewBox="0 0 32 32">
<path d="M4.036 21.249c-0.767-0.257-0.489-0.943 0.8-1.971 1.080-0.861 1.727-1.040 4.889-1.349 2.005-0.196 5.925-0.451 8.712-0.567 2.929-0.122 5.067-0.358 5.067-0.56 0-0.192-0.44-0.876-0.978-1.522s-1.235-1.547-1.55-2.003c-0.614-0.891-3.955-2.284-4.569-1.905-0.646 0.399-0.404 0.817 0.696 1.201 1.684 0.587 1.31 2.172-0.776 3.288-1.013 0.542-3.012 0.083-3.658-0.839-1.003-1.431-0.685-2.576 1.251-4.512l1.795-1.795h2.698c3.635 0 5.218 0.538 7.091 2.411 2.233 2.233 3.385 4.358 3.454 6.372 0.055 1.584-0.012 1.715-1.152 2.262-0.856 0.411-3.142 0.7-7.823 0.99-7.653 0.475-15.305 0.715-15.948 0.499z"></path>
</svg>
