<!-- Generated by IcoMoon.io -->
<svg version="1.1" xmlns="http://www.w3.org/2000/svg" width="32" height="32" viewBox="0 0 32 32">
<path d="M11.608 8.939c0.030 0 0.049 0.012 0.088 0.003 0.026-0.006 0.052-0.011 0.078-0.016 0.032-0.007 0.071-0.022 0.104-0.023 0.040-0.001 0.069 0.013 0.11 0.007 0.061-0.009 0.122-0.025 0.182-0.038 0.069-0.014 0.139-0.027 0.208-0.042 0.063-0.014 0.099 0.008 0.162-0.006 0.069-0.015 0.139-0.027 0.208-0.042 0.066-0.014 0.122 0.003 0.187-0.011 0.068-0.015 0.133-0.014 0.2-0.014 0.033-0 0.064 0.011 0.097 0.010 0.037-0.001 0.067-0.019 0.105-0.017 0.064 0.004 0.126-0 0.19 0.003 0.038 0.002 0.068-0.013 0.106-0.016s0.048 0.012 0.082 0.013c0.026 0.001 0.058-0.006 0.082-0.004s0.054 0.002 0.082 0.003c0.036 0.001 0.072 0.003 0.109 0.005s0.073-0.004 0.109-0.003c0.023 0.001 0.032 0.018 0.055 0.019 0.034 0.001 0.070-0.024 0.105-0.024 0.081-0.001 0.117 0.036 0.13 0.109 0.063-0 0.126-0.008 0.187-0.011 0.050-0.002 0.098 0.016 0.146 0.019-0.050 0.002-0.14 0.001-0.333-0.007-0-0.001-0-0.001-0-0.002-0.009 0-0.018 0.001-0.027 0.001-0.069-0.003-0.135-0.016-0.204-0.007-0.062 0.009-0.138 0.011-0.202 0.008-0.068-0.003-0.136-0.004-0.204-0.004-0.028-0-0.051 0.012-0.078 0.015-0.035 0.003-0.063-0.011-0.097-0.010-0.116 0.003-0.233 0.074-0.349 0.070-0.034-0.001-0.044-0.021-0.085-0.009-0.034 0.010-0.053 0.035-0.085 0.047-0.053 0.020-0.109 0.047-0.164 0.059-0.118 0.027-0.213 0.016-0.33 0.040-0.11 0.022-0.253 0.080-0.365 0.076-0.026-0.001-0.041-0.015-0.068-0.016-0.029-0.001-0.065 0.013-0.091 0.025-0.056 0.027-0.101 0.042-0.165 0.055-0.057 0.012-0.127 0.015-0.179 0.039-0.031 0.014-0.094 0.084-0.136 0.056-0.023-0.016-0.017-0.082-0.025-0.107-0.010-0.030-0.027-0.037-0.038-0.062-0.018-0.038-0.005-0.117-0.046-0.138 0.023-0.051 0.114-0.054 0.161-0.053zM15.409 12.958c-0.001-0.043 0.005-0.078 0.001-0.122-0.003-0.036 0.006-0.070 0.012-0.106 0.013-0.073 0.042-0.161 0.042-0.235-0-0.077-0.020-0.155-0.016-0.232 0.008-0.15 0.054-0.308 0.080-0.457 0.012-0.069 0.017-0.144 0.042-0.208 0.024-0.060 0.015-0.126 0.028-0.197 0.024-0.134 0.039-0.272 0.069-0.405 0.009-0.039 0.036-0.063 0.047-0.1 0.012-0.040-0.011-0.070-0.012-0.11 0-0.035 0.019-0.070 0.020-0.105 0.001-0.031-0.011-0.045-0.013-0.071-0.007-0.124 0.089-0.214 0.163-0.3 0.077-0.089 0.19-0.151 0.304-0.173 0.065-0.013 0.118-0.003 0.189 0.009 0.030 0.005 0.063 0.007 0.092 0.015 0.038 0.011 0.040 0.028 0.072 0.041 0.020 0.008 0.044 0.004 0.064 0.012 0.011 0.004 0.010 0.018 0.018 0.022 0.033 0.014 0.063 0.023 0.095 0.042 0.054 0.032 0.105 0.063 0.157 0.101 0.096 0.071 0.182 0.166 0.264 0.253 0.096 0.102 0.154 0.217 0.212 0.343 0.055 0.12 0.118 0.237 0.16 0.362 0.044 0.132 0.073 0.264 0.085 0.404 0.006 0.072 0.014 0.147 0.019 0.219 0.005 0.069 0.004 0.135 0.010 0.204 0.003 0.037-0.014 0.069-0.014 0.105-0 0.039 0.015 0.069 0.010 0.109-0.010 0.078-0.001 0.15-0.013 0.228-0.011 0.069-0.023 0.139-0.036 0.208-0.012 0.068 0.008 0.109-0.003 0.175-0.013 0.074 0.004 0.138-0.010 0.214-0.012 0.068-0.026 0.131-0.021 0.198 0.004 0.051-0.004 0.098-0.017 0.144 0.012-0.002 0.025-0.001 0.034-0.007 0.005 0.004 0.005 0.004 0.007 0.006 0.006-0.007 0.011-0.009 0.016-0.009-0.011 0.014-0.011 0.014-0.016 0.009-0.015 0.018-0.037 0.080-0.086 0.291 0.015-0.031-0.004-0.050-0.009-0.075 0.036-0.014 0.032-0.046 0.030-0.077-0.001-0.016-0.021-0.008-0.018-0.034 0.002-0.015 0.018-0.025 0.022-0.038 0.009-0.022 0.014-0.044 0.020-0.066-0.071 0.010-0.189-0.042-0.252-0.036-0.013 0.002-0.030 0.012-0.048 0.014-0.025 0.002-0.054-0.012-0.080-0.015-0.049-0.006-0.075 0.009-0.121 0.007-0.051-0.002-0.107-0.019-0.157-0.028-0.057-0.010-0.092-0.002-0.148-0.001-0.098 0.002-0.195-0.020-0.293-0.019-0.043 0-0.094 0.021-0.131 0.023-0.050 0.002-0.102-0.011-0.152-0.020-0.058-0.010-0.092-0.003-0.148-0.001-0.027 0.001-0.052-0.010-0.079-0.009-0.023 0.001-0.048 0.021-0.072 0.015-0.025-0.006-0.020-0.032-0.045-0.039-0.042-0.013-0.032 0.011-0.063 0.012-0.047 0.002-0.076-0.001-0.12 0.009-0.035 0.008-0.072 0.016-0.104 0.032-0.034 0.017-0.052 0.070-0.080 0.072-0.007-0.025 0.004-0.047 0-0.073-0.002-0.014-0.015-0.013-0.016-0.034-0.002-0.035 0.024-0.072 0.021-0.107-0.002-0.039-0.015-0.050-0.012-0.095s-0.009-0.056-0.012-0.095c-0.002-0.034 0.018-0.072 0.020-0.106 0.002-0.040-0.011-0.057-0.012-0.095zM9.476 4.765c0.030 0.047 0.056 0.079 0.093 0.12 0.071 0.079 0.137 0.167 0.198 0.252 0.038 0.052 0.070 0.108 0.106 0.159 0.046 0.066 0.067 0.144 0.112 0.207 0.030 0.042 0.069 0.069 0.092 0.118s0.038 0.093 0.068 0.14c0.058 0.090 0.118 0.177 0.173 0.269 0.037 0.063 0.076 0.122 0.107 0.189 0.028 0.060 0.038 0.125 0.064 0.186 0.051 0.117 0.117 0.23 0.174 0.345 0.067 0.133 0.158 0.273 0.193 0.418 0.031 0.128 0.073 0.259 0.124 0.38 0.113 0.269 0.203 0.545 0.29 0.823 0.168 0.539 0.292 1.093 0.414 1.645 0.029 0.131 0.056 0.263 0.076 0.396 0.018 0.117 0.056 0.228 0.077 0.345 0.046 0.258 0.107 0.515 0.172 0.77 0.036 0.138 0.056 0.284 0.086 0.424 0.027 0.123 0.026 0.252 0.058 0.373 0.059 0.222 0.102 0.461 0.113 0.688 0.006 0.123 0.034 0.253 0.057 0.374 0.020 0.106 0.023 0.21 0.044 0.316 0.022 0.114 0.023 0.229 0.031 0.345 0.007 0.11 0.038 0.23 0.054 0.339 0.008 0.060 0.027 0.111 0.028 0.172 0.001 0.044-0.006 0.088-0.002 0.132 0.005 0.061 0.027 0.116 0.029 0.178 0.002 0.054-0.007 0.108-0.002 0.162 0.005 0.058 0.027 0.106 0.028 0.165 0.001 0.040-0.001 0.080-0.001 0.12 0 0.046-0.003 0.093-0.001 0.139 0.002 0.051 0.022 0.097 0.028 0.147 0.028-0.004 0.057-0.007 0.083-0.012 0.024-0.005 0.034-0.024 0.058-0.026l0.060 0.011c0.016 0 0.028-0.007 0.037-0.021 0.145-0.012 0.292-0.016 0.436-0.046 0.126-0.026 0.264-0.035 0.398-0.045 0.074-0.006 0.148-0.029 0.222-0.033 0.034-0.002 0.066 0.014 0.1 0.012 0.038-0.003 0.063-0.020 0.104-0.016 0.080 0.007 0.151-0.006 0.233 0 0.035 0.003 0.056-0.009 0.089-0.014 0.041-0.006 0.075 0.012 0.115 0.009 0.044-0.002 0.074-0.022 0.119-0.018 0.034 0.003 0.052 0.010 0.087 0.005 0.070-0.010 0.14-0.030 0.207-0.030 0.064-0 0.114-0.018 0.176-0.008 0.059 0.009 0.114-0.027 0.161-0.012 0.031 0.034 0.039 0.079 0.054 0.121 0.022 0.064 0.053 0.058 0.086 0.107 0.032 0.048 0.005 0.124-0.002 0.18-0.010 0.070 0.009 0.108 0.008 0.172-0.001 0.036-0.015 0.072-0.015 0.108s0.013 0.062 0.015 0.096c0.002 0.032-0.009 0.061-0.010 0.092-0.001 0.040 0.016 0.072 0.018 0.111 0.002 0.070-0.021 0.132-0.013 0.201 0.009 0.074-0.006 0.141-0.013 0.217-0.005 0.061 0.015 0.095 0.010 0.157-0.006 0.072-0.018 0.144-0.028 0.215-0.007 0.058-0.026 0.125-0.021 0.182 0.002 0.023 0.017 0.040 0.019 0.066 0.002 0.037-0.012 0.086-0.017 0.124-0.009 0.072-0.002 0.119 0.003 0.188 0.002 0.035-0.009 0.067-0.004 0.102 0.004 0.032 0.031 0.042 0.010 0.083-0.029 0.058-0.077 0.042-0.117 0.019-0.059-0.034-0.079-0.059-0.151-0.066-0.087-0.009-0.102-0.008-0.088-0.105 0.010-0.066 0.017-0.133 0.025-0.2 0.008-0.061 0.033-0.141 0.027-0.201-0.002-0.026-0.022-0.036-0.024-0.062-0.003-0.033 0.012-0.076 0.016-0.109 0.008-0.072-0.014-0.131-0.004-0.203 0.009-0.061 0.031-0.14 0.027-0.201-0.004-0.063-0.018-0.1-0.008-0.172 0.004-0.031 0.007-0.061 0.012-0.092 0.007-0.048-0.004-0.063-0.010-0.102-0.008-0.051-0.018-0.1-0.017-0.151 0.001-0.031 0.014-0.062 0.013-0.093-0.001-0.058 0.004-0.043-0.042-0.075-0.085-0.058-0.184-0.127-0.278-0.153-0.117-0.032-0.253-0.031-0.373-0.047-0.124-0.016-0.248-0.032-0.372-0.047-0.134-0.017-0.285-0.058-0.417-0.037-0.042 0.006-0.076-0.004-0.117-0-0.030 0.003-0.045 0.021-0.073 0.025-0.066 0.008-0.135-0.030-0.202-0.020-0.075 0.010-0.15 0.032-0.224 0.043s-0.141-0.008-0.217-0.013c-0.051-0.004-0.11 0.007-0.164 0.019-0.002 0.104-0.005 0.207-0.005 0.308v0.487c0 0.32-0.001 0.639 0 0.958 0 0.044 0.008 0.092-0.002 0.134-0.010 0.044-0.024 0.064-0.025 0.113-0.002 0.072 0 0.145 0 0.217 0 0.087 0.007 0.173-0.013 0.256-0.019 0.080-0.001 0.156-0.012 0.236-0.009 0.065-0.026 0.117-0.027 0.186-0.001 0.073-0.026 0.132-0.027 0.209-0 0.084-0.028 0.155-0.027 0.24 0.001 0.072-0.022 0.132-0.027 0.202-0.006 0.077-0.010 0.15-0.029 0.226-0.008 0.033-0.022 0.056-0.025 0.091-0.003 0.037 0.004 0.070-0.005 0.108-0.019 0.083-0.035 0.17-0.047 0.255-0.007 0.047-0.020 0.091-0.027 0.138-0.004 0.028-0.014 0.043-0.020 0.064-0.020 0.073-0.019 0.143-0.035 0.216-0.008 0.037-0.023 0.067-0.025 0.106-0.002 0.043 0.004 0.081-0.005 0.123-0.033 0.156-0.028 0.325-0.068 0.478-0.016 0.063-0.007 0.141-0.006 0.206 0.001 0.078-0.027 0.146-0.026 0.224 0.001 0.074 0.013 0.163-0.006 0.234-0.018 0.065-0.021 0.114-0.021 0.184 0 0.141 0 0.283 0 0.424 0 0.078-0.016 0.172-0.001 0.247 0.006 0.032 0.023 0.054 0.029 0.084s-0.008 0.064-0.002 0.094c0.007 0.033 0.024 0.059 0.029 0.093 0.004 0.030-0.006 0.062-0.002 0.092 0.009 0.070 0.026 0.129 0.028 0.2 0.001 0.044 0.016 0.066 0.024 0.106 0.007 0.031-0.004 0.062 0.001 0.093 0.009 0.052 0.041 0.103 0.052 0.148 0.013 0.051 0.044 0.092 0.056 0.141 0.017 0.064 0.025 0.118 0.052 0.178 0.048 0.105 0.085 0.21 0.119 0.316 0.018 0.056 0.048 0.109 0.080 0.16 0.029 0.048 0.051 0.099 0.079 0.146 0.029 0.050 0.069 0.086 0.090 0.145s0.032 0.109 0.069 0.159c0.071 0.096 0.115 0.21 0.193 0.306 0.067 0.083 0.156 0.132 0.225 0.205 0.073 0.077 0.18 0.105 0.252 0.19 0.035 0.041 0.038 0.058 0.086 0.081 0.038 0.018 0.056 0.042 0.093 0.065 0.050 0.031 0.117 0.035 0.167 0.074 0.045 0.036 0.075 0.050 0.127 0.070 0.047 0.018 0.097 0.044 0.142 0.057 0.034 0.010 0.072 0.015 0.108 0.026 0.013 0.004 0.048 0.018 0.058 0.020 0.058 0.012 0.122 0.026 0.18 0.032 0.122 0.014 0.253 0.071 0.372 0.1 0.062 0.015 0.124 0.024 0.186 0.038 0.067 0.016 0.114 0.049 0.186 0.047 0.062-0.002 0.121 0.017 0.18 0.032 0.026 0.006 0.035 0.020 0.072 0.021 0.033 0.001 0.061-0.003 0.093 0.006 0.115 0.030 0.232 0.015 0.354 0.019 0.154 0.005 0.319 0.052 0.472 0.075 0.065 0.010 0.13 0.006 0.196 0.006 0.366 0 0.727 0.082 1.094 0.056 0.118-0.008 0.258 0.023 0.371-0.006 0.034-0.009 0.050-0.023 0.088-0.025 0.061-0.003 0.114 0.002 0.172-0.013 0.070-0.017 0.143 0 0.213-0.015 0.043-0.010 0.066-0.025 0.113-0.025 0.038-0 0.063-0.004 0.099-0.012 0.065-0.016 0.123-0.011 0.186-0.040 0.053-0.025 0.128-0.048 0.186-0.054 0.060-0.007 0.101-0.020 0.159-0.026 0.013-0.001 0.028 0.004 0.041 0.002 0.010-0.002 0.026-0.023 0.031-0.024 0.028-0.003 0.046 0.022 0.074 0.024 0.042 0.002 0.043-0.022 0.078-0.030 0.029-0.007 0.062 0.006 0.092-0.001 0.051-0.011 0.103-0.039 0.15-0.072 0.037-0.026 0.11-0.043 0.107-0.099-0.002-0.049-0.065-0.062-0.108-0.066-0.035-0.004-0.072 0.006-0.107 0.001-0.031-0.004-0.042-0.019-0.068-0.025-0.052-0.012-0.116-0.002-0.17-0.002-0.077 0-0.127 0.009-0.199 0.024-0.027 0.006-0.053 0.001-0.080 0.002-0.035 0.001-0.048 0.016-0.072 0.021-0.11 0.023-0.22 0.040-0.333 0.065-0.028 0.006-0.047 0.021-0.086 0.021-0.026-0-0.053-0.002-0.080-0.001-0.065 0.004-0.117 0.028-0.186 0.027-0.032-0-0.077-0.008-0.107-0.001-0.022 0.005-0.029 0.024-0.050 0.029-0.053 0.013-0.132-0.001-0.187-0.001h-0.73c-0.059 0-0.144 0.015-0.2 0.001-0.022-0.005-0.029-0.024-0.050-0.029-0.026-0.006-0.066 0.001-0.094 0.001-0.066 0-0.133-0.001-0.199 0-0.063 0.001-0.111-0.026-0.172-0.027-0.068-0.001-0.106-0.026-0.173-0.026-0.058 0-0.118-0.013-0.173-0.026-0.050-0.012-0.104-0.037-0.156-0.057-0.050-0.019-0.109-0.030-0.162-0.050-0.1-0.037-0.213-0.053-0.315-0.082-0.049-0.014-0.1-0.044-0.148-0.065-0.042-0.018-0.090-0.021-0.132-0.044-0.090-0.049-0.161-0.115-0.233-0.187-0.038-0.038-0.066-0.063-0.113-0.086-0.041-0.021-0.068-0.046-0.106-0.073-0.080-0.056-0.148-0.102-0.22-0.173-0.059-0.058-0.114-0.146-0.152-0.218-0.027-0.049-0.041-0.11-0.053-0.16-0.009-0.036-0.034-0.088-0.027-0.118 0-0.030 0.005-0.065 0.001-0.095-0.005-0.036-0.021-0.045-0.028-0.078-0.014-0.060 0.011-0.127-0.005-0.187-0.019-0.073-0.020-0.135-0.021-0.212-0-0.064 0.026-0.124 0.021-0.18-0.014-0.006-0.021-0.016-0.023-0.031 0.001-0.018 0.001-0.036 0.002-0.054 0-0.026-0-0.053-0-0.080 0-0.035-0.002-0.071-0-0.106 0.002-0.041 0.022-0.067 0.028-0.106 0.006-0.033-0.004-0.051 0.011-0.081 0.009-0.017 0.036-0.035 0.047-0.051 0.032-0.045 0.061-0.086 0.086-0.133s0.054-0.070 0.087-0.112c0.003-0.014 0.007-0.027 0.011-0.041 0.016-0.008 0.031-0.018 0.043-0.032 0.015-0.023 0.010-0.057 0.024-0.082 0.061-0.103 0.152-0.182 0.248-0.259 0.041-0.033 0.087-0.055 0.124-0.092 0.051-0.049 0.098-0.046 0.16-0.080 0.038-0.021 0.079-0.046 0.119-0.066 0.020-0.010 0.049-0.035 0.066-0.041 0.034-0.012 0.040-0.008 0.081 0.005 0.019-0.054 0.077-0.044 0.124-0.051 0.038-0.005 0.132-0.050 0.154-0.004 0.026-0.011 0.056-0.043 0.080 0 0.069-0.030 0.109-0.013 0.178 0.004 0.034 0.008 0.058 0.020 0.092 0.028 0.032 0.007 0.070-0.016 0.094 0.014 0.040-0.062 0.213 0.147 0.239 0.184 0.029 0.040 0.046 0.108-0.026 0.122-0.050 0.009-0.112-0.072-0.16-0.014-0.023-0.035-0.094 0.010-0.133 0.012-0.057 0.003-0.073 0.004-0.122 0.023-0.029 0.011-0.063 0.011-0.086 0.036-0.008 0.008-0.004 0.033-0.011 0.042-0.019 0.024-0.029 0.029-0.047 0.059-0.014 0.022-0.040 0.062-0.047 0.085-0.008 0.026 0.001 0.050-0.005 0.075s-0.024 0.026-0.029 0.050c-0.021 0.087 0 0.214 0.029 0.294 0.026 0.073 0.043 0.154 0.099 0.219 0.038 0.045 0.086 0.081 0.126 0.125 0.035 0.039 0.067 0.063 0.114 0.088 0.040 0.021 0.050 0.043 0.084 0.074 0.035 0.032 0.080 0.025 0.121 0.041 0.026 0.010 0.035 0.034 0.066 0.040 0.017 0.003 0.036-0.007 0.053-0.004 0.037 0.007 0.048 0.039 0.080 0.051 0.029 0.011 0.051-0.001 0.080 0.003 0.041 0.006 0.080 0.031 0.119 0.041 0.041 0.011 0.078 0.005 0.12 0.012 0.052 0.009 0.077 0.029 0.133 0.028s0.093 0.020 0.146 0.028c0.038 0.005 0.081-0 0.12-0.001 0.047-0.001 0.093 0.032 0.134 0.029 0.039-0.002 0.052-0.044 0.106-0.030 0.040 0.010 0.057 0.028 0.105 0.028 0.054-0 0.084-0.011 0.133-0.021 0.052-0.011 0.080 0.026 0.133 0.016 0.039-0.008 0.080-0.027 0.119-0.034 0.094-0.018 0.18-0.040 0.279-0.040 0.080 0 0.159-0.001 0.239 0 0.064 0 0.099-0.017 0.159-0.028 0.038-0.007 0.081 0.008 0.119 0.002 0.046-0.007 0.075-0.014 0.12-0.014 0.044 0 0.086 0.012 0.127 0.008 0.024-0.002 0.075-0.035 0.101-0.045 0.039-0.014 0.078-0.024 0.117-0.036 0.050-0.016 0.083-0.009 0.133-0.019 0.041-0.008 0.064-0.040 0.099-0.005 0.063-0.070 0.162-0.101 0.246-0.135 0.046-0.019 0.091-0.015 0.133-0.032 0.038-0.016 0.070-0.043 0.114-0.054 0.082-0.021 0.158-0.025 0.218-0.093 0.034-0.039 0.029-0.051 0.046-0.1 0.011-0.033 0.053-0.062 0.048-0.102-0.002 0.007-0.001 0.024-0.002 0.031 0.017 0.007 0.013 0.007 0.029-0.001 0.013-0.015 0.030-0.031 0.048-0.046-0.011-0.022-0.012-0.052-0.022-0.074-0.009-0.021-0.024-0.031-0.035-0.051-0.026-0.051-0.019-0.11-0.032-0.161-0.014-0.053-0.025-0.115-0.038-0.172-0.012-0.055 0.012-0.119-0.001-0.174-0.008-0.033-0.025-0.039-0.029-0.078-0.003-0.028 0.002-0.052-0.005-0.080-0.015-0.058-0.018-0.115-0.034-0.172-0.016-0.062-0.010-0.124-0.026-0.186-0.015-0.055-0.004-0.112-0.019-0.167-0.009-0.033-0.021-0.042-0.021-0.086 0-0.026-0-0.053 0-0.080 0.001-0.063-0.026-0.112-0.027-0.175-0.002-0.090-0.006-0.163-0.024-0.249-0.016-0.080-0.004-0.16-0.023-0.24-0.017-0.075-0.006-0.161-0.006-0.238 0-0.089-0.024-0.167-0.028-0.253-0.008-0.174-0.026-0.34-0.026-0.516 0-0.096 0.003-0.192 0.001-0.287-0.002-0.097-0.028-0.186-0.027-0.284 0.001-0.186-0.027-0.358-0.027-0.544s-0.026-0.359-0.026-0.545c0-0.084-0-0.167 0-0.251 0-0.099-0.026-0.189-0.027-0.286-0.002-0.152-0.026-0.29-0.026-0.443 0-0.189 0.012-0.381-0.021-0.566-0.030-0.172 0.005-0.36-0.005-0.534-0.004-0.064-0.027-0.123-0.028-0.188-0.001-0.048 0.001-0.096 0.001-0.144 0-0.094 0-0.187 0-0.28v-0.757c0-0.076 0-0.152-0-0.227-0.001-0.117 0.027-0.226 0.027-0.343-0-0.096-0.012-0.203-0.001-0.299 0.006-0.053 0.027-0.098 0.029-0.152 0.002-0.045-0.001-0.090-0.001-0.135 0-0.214 0.029-0.419 0.026-0.634-0.001-0.068 0.022-0.12 0.028-0.185 0.005-0.052-0.001-0.108-0.001-0.161 0-0.093-0.009-0.188 0.013-0.278 0.024-0.099 0.014-0.208 0.013-0.311s0.016-0.192 0.028-0.292c0.012-0.104 0-0.201 0.019-0.305 0.018-0.099 0.008-0.199 0.027-0.298 0.010-0.052-0-0.104 0.008-0.156 0.008-0.049 0.018-0.092 0.024-0.142 0.005-0.046 0.025-0.089 0.029-0.135 0.003-0.036-0.003-0.068 0.004-0.104 0.020-0.1 0.043-0.212 0.048-0.315 0.003-0.052-0.008-0.104 0.001-0.155 0.010-0.058 0.026-0.1 0.025-0.162-0.002-0.196 0.001-0.393 0.039-0.583 0.011-0.056 0.007-0.104 0.012-0.159 0.004-0.051 0.027-0.095 0.029-0.146 0.003-0.088 0.023-0.167 0.024-0.255-0.013 0.001-0.027 0.001-0.040-0.002-0.032-0.008-0.041-0.024-0.078-0.029-0.018-0.002-0.037 0.004-0.054 0.001-0.049-0.006-0.081-0.020-0.133-0.026-0.041-0.005-0.063-0.022-0.105-0.028s-0.091 0-0.133 0c-0.032 0-0.077 0.009-0.107 0.002-0.011-0.003-0.026-0.021-0.031-0.022-0.024-0.005-0.052 0.001-0.075-0.004-0.014-0.003-0.022-0.020-0.031-0.022-0.050-0.010-0.103 0.001-0.153-0.012-0.048-0.012-0.080-0.021-0.133-0.021-0.047 0-0.116 0.012-0.16 0.001-0.043-0.010-0.054-0.029-0.105-0.028-0.053 0.001-0.073-0.017-0.118-0.028-0.021-0.005-0.047 0.004-0.068 0.002-0.026-0.003-0.040-0.017-0.058-0.021-0.089-0.019-0.194-0.006-0.286-0.006-0.042 0-0.091 0.007-0.133 0-0.060-0.009-0.043-0.024-0.078-0.070-0.043-0.056-0.128-0.142-0.108-0.224 0.007-0.030 0.040-0.057 0.048-0.084 0.012-0.040 0.006-0.085 0.006-0.127-0-0.054 0.004-0.107-0.006-0.159-0.012-0.058 0.007-0.096 0.006-0.159-0.001-0.087 0.003-0.175 0.007-0.26 0.015-0.005 0.020-0.016 0.015-0.031-0.010-0.012-0.016-0.026-0.019-0.041-0.004-0.023-0.002-0.043-0.002-0.066-0.001-0.044-0-0.089-0-0.133 0-0.095 0.004-0.182-0.026-0.265-0.022-0.060-0.016-0.098-0.026-0.16-0.009-0.051-0.025-0.079-0.027-0.133-0.002-0.042-0.015-0.095-0.026-0.134-0.008-0.027-0.027-0.097-0.049-0.112 0.006-0.042 0.067-0.055 0.101-0.072 0.059-0.031 0.096-0.013 0.159-0.025 0.082-0.016 0.236-0.129 0.266 0.011 0.009 0.042 0.010 0.133 0 0.175-0.010 0.044-0.046 0.087-0.056 0.13-0.013 0.060-0.014 0.126-0.024 0.187s-0.028 0.106-0.028 0.173c0 0.056 0.008 0.118 0.001 0.173-0.005 0.036-0.021 0.046-0.028 0.078-0.006 0.026 0.009 0.056 0.003 0.082-0.014 0.060-0.038 0.080-0.022 0.152 0.006 0.025 0.020 0.023 0.022 0.058 0.003 0.042-0.022 0.067-0.029 0.107-0.019 0.11 0.011 0.216-0.025 0.318-0.032 0.093-0.045 0.194-0.076 0.288 0.042-0.007 0.092-0.057 0.134-0.070 0.044-0.013 0.083-0.027 0.126-0.033 0.065-0.010 0.12 0.028 0.186 0.027 0.052-0.001 0.109-0.007 0.159 0.006 0.036 0.009 0.054 0.019 0.093 0.021 0.029 0.001 0.066-0.008 0.094-0.002 0.022 0.005 0.028 0.024 0.050 0.029 0.026 0.006 0.056-0.009 0.082-0.003s0.036 0.024 0.064 0.029c0.029 0.005 0.059-0.001 0.088 0.005 0.034 0.006 0.075 0.040 0.111 0.048 0.026 0.006 0.055-0.007 0.081-0.003 0.034 0.006 0.059 0.024 0.093 0.029 0.054 0.007 0.098 0.006 0.147 0.025 0.094 0.036 0.201 0.062 0.297 0.1 0.049 0.020 0.098 0.026 0.147 0.039 0.006 0.013 0.017 0.020 0.031 0.022 0.014-0.001 0.027-0.002 0.041-0.002 0.008 0.002 0.016 0.005 0.024 0.007 0-0.011 0.003-0.022 0.003-0.033-0.001-0.097-0.008-0.195 0.013-0.289 0.012-0.054 0.012-0.1 0.013-0.156 0-0.057 0.017-0.103 0.025-0.159 0.006-0.045-0.001-0.090 0.004-0.135 0.007-0.056 0.024-0.106 0.025-0.163 0.004-0.196 0.042-0.398 0.077-0.589 0.010-0.055-0.002-0.112 0.008-0.168 0.009-0.053 0.018-0.098 0.020-0.152 0.003-0.098 0.033-0.202 0.048-0.299 0.027-0.181 0.052-0.361 0.112-0.537s0.093-0.358 0.139-0.537c0.074-0.289 0.197-0.55 0.315-0.818-0.309-0.048-0.646-0.116-0.965-0.145-0.19-0.018-0.334-0.036-0.536-0.063-0.178-0.023-0.318-0.018-0.497-0.036-0.169-0.017-0.356-0.043-0.519-0.042-0.066 0-0.096 0.009-0.183 0.006-0.081-0.003-0.175-0.018-0.254-0.017-0.126 0.002-0.255 0.025-0.378 0.031-0.169 0.008-0.353 0.018-0.532 0.018-0.166-0.001-0.372-0.006-0.532 0.010-0.061 0.006-0.098 0.021-0.169 0.028-0.074 0.008-0.175 0.007-0.252 0.011-0.21 0.012-0.342 0.036-0.537 0.062-0.078 0.010-0.169 0.012-0.249 0.021-0.102 0.012-0.153 0.028-0.246 0.045-0.166 0.032-0.362 0.050-0.536 0.075-0.188 0.027-0.315 0.067-0.491 0.103-0.198 0.042-0.382 0.066-0.573 0.121-0.163 0.047-0.314 0.080-0.489 0.121-0.201 0.048-0.343 0.089-0.525 0.153-0.118 0.041-0.326 0.081-0.402 0.134-0.115-0.005-0.242-0.002-0.337-0.016-0.055-0.008-0.065-0.019-0.137-0.018-0.056 0-0.132 0.017-0.147-0.002 0.101-0.037 0.134-0.070 0.221-0.104 0.111-0.042 0.216-0.077 0.327-0.119 0.201-0.075 0.401-0.153 0.605-0.22 0.202-0.067 0.413-0.12 0.616-0.18 0.184-0.054 0.366-0.13 0.538-0.175 0.181-0.047 0.389-0.088 0.577-0.124 0.178-0.034 0.314-0.069 0.503-0.095 0.13-0.017 0.16-0.037 0.257-0.052 0.081-0.013 0.164-0.017 0.246-0.030 0.185-0.027 0.36-0.070 0.547-0.091 0.184-0.022 0.406-0.022 0.594-0.028 0.216-0.008 0.425-0.024 0.636-0.032 0.361-0.014 0.731-0.037 1.101-0.011 0.216 0.015 0.383 0.005 0.593 0.024 0.182 0.017 0.365 0.039 0.547 0.062 0.368 0.047 0.764 0.124 1.126 0.182 0.192 0.031 0.341 0.043 0.543 0.089 0.013 0.003 0.026 0.006 0.038 0.009 0.016-0.035 0.032-0.070 0.046-0.106 0.029-0.075 0.075-0.148 0.101-0.222 0.054-0.157 0.082-0.325 0.138-0.482 0.050-0.141 0.112-0.277 0.164-0.417s0.121-0.258 0.196-0.385c0.059-0.101 0.103-0.204 0.165-0.306 0.051-0.084 0.112-0.223 0.218-0.247 0.021 0.028 0.053 0.046 0.087 0.049-0.091-0.068-0.060-0.071-0.052-0.105 0.005-0.021 0.002-0.060-0.001-0.082-0.006-0.054-0.034-0.080-0.080-0.112-0.094-0.066-0.233-0.092-0.346-0.127-0.045-0.014-0.095-0.034-0.138-0.046-0.060-0.017-0.122-0.018-0.181-0.031-0.033-0.008-0.040-0.024-0.078-0.029-0.026-0.003-0.054 0-0.080 0-0.068 0.001-0.123-0.022-0.186-0.046-0.049-0.019-0.094-0.033-0.138-0.053-0.057-0.026-0.084-0.051-0.127-0.007-0.144 0.148-0.18 0.39-0.344 0.533-0.037 0.032-0.075 0.066-0.113 0.098-0.017 0.014-0.043 0.023-0.057 0.035-0.022 0.020-0.030 0.046-0.049 0.072-0.070 0.094-0.182 0.063-0.266 0.013-0.073-0.044-0.185-0.1-0.245-0.166-0.082-0.091-0.092-0.214-0.093-0.333 0-0.066 0.001-0.133 0-0.199-0.001-0.058 0.024-0.089 0.027-0.146 0.004-0.105-0.018-0.265-0.096-0.342-0.049-0.048-0.073-0.070-0.143-0.069-0.058 0.001-0.115 0-0.172 0-0.066 0-0.133 0-0.199 0-0.064-0-0.112 0.019-0.172 0.027-0.125 0.017-0.255-0.014-0.371-0.041-0.067-0.016-0.129-0.041-0.199-0.040-0.065 0.001-0.111-0.010-0.172-0.024-0.054-0.012-0.145-0.010-0.199 0.004-0.058 0.015-0.114 0.022-0.172 0.034-0.067 0.013-0.128 0.042-0.199 0.040-0.060-0.002-0.114 0.016-0.17 0.029-0.054 0.013-0.112 0.049-0.175 0.051-0.062 0.003-0.090 0.002-0.12 0.065-0.028 0.059-0.040 0.122-0.039 0.187 0.001 0.068-0.025 0.12-0.027 0.186-0.001 0.035 0.005 0.072-0.002 0.106-0.006 0.029-0.022 0.049-0.025 0.080-0.007 0.063-0.024 0.124-0.026 0.186-0.001 0.035 0.005 0.072 0.001 0.106-0.003 0.030-0.019 0.051-0.025 0.080s-0.003 0.058-0.008 0.087c-0.002 0.008-0.019 0.066-0.022 0.073-0.020 0.040-0.044 0.030-0.079 0.051-0.015 0.010-0.025 0.030-0.041 0.041-0.055 0.038-0.12 0.026-0.184 0.026-0.124 0-0.248 0.005-0.372 0-0.061-0.002-0.099-0.035-0.157-0.056-0.048-0.018-0.098-0.024-0.148-0.037-0.096-0.024-0.176-0.075-0.239-0.161-0.041-0.057-0.066-0.126-0.106-0.184-0.032-0.046-0.063-0.096-0.087-0.144-0.052-0.106-0.093-0.216-0.152-0.32-0.046-0.081-0.074-0.19-0.158-0.245-0.060-0.039-0.13-0.060-0.2-0.044-0.059 0.013-0.11 0.049-0.172 0.052-0.066 0.003-0.105 0.027-0.173 0.026-0.027-0-0.068-0.008-0.094-0.001-0.022 0.005-0.029 0.024-0.050 0.029-0.063 0.015-0.139-0.018-0.202-0.002-0.025 0.006-0.039 0.023-0.064 0.029s-0.050-0.003-0.075 0.004c-0.030 0.008-0.048 0.018-0.086 0.020-0.036 0.002-0.060 0.018-0.093 0.025-0.057 0.011-0.116-0.007-0.172 0.008-0.126 0.033-0.25 0.058-0.366 0.133-0.177 0.115-0.36 0.191-0.543 0.279-0.189 0.091-0.126 0.432-0.126 0.617 0 0.112 0.028 0.265 0.002 0.373-0.008 0.030-0.025 0.043-0.029 0.078-0.003 0.024-0.003 0.057 0 0.081 0.005 0.048 0.031 0.084 0.051 0.127-0.090 0.028-0.221 0.006-0.316 0.006-0.106 0-0.213-0.006-0.318-0.001-0.099 0.005-0.21 0.050-0.305 0.084s-0.179 0.080-0.273 0.109c-0.092 0.029-0.145 0.064-0.243 0.020-0.105-0.047-0.196-0.1-0.278-0.186-0.076-0.080-0.141-0.168-0.227-0.238-0.074-0.060-0.157-0.109-0.22-0.182-0.090 0.036-0.168 0.112-0.257 0.155-0.109 0.053-0.22 0.082-0.32 0.153-0.089 0.062-0.155 0.15-0.232 0.225-0.066 0.065-0.139 0.127-0.186 0.206-0.043 0.073-0.109 0.164-0.133 0.244-0.018 0.061 0.006 0.13-0.008 0.191-0.005 0.020-0.020 0.032-0.025 0.054-0.006 0.027 0.001 0.065 0.001 0.094 0 0.058-0.007 0.11-0.026 0.16-0.008 0.021-0.018 0.046-0.027 0.066-0.006 0.013-0.029 0.054-0.029 0.066 0 0.010 0.031 0.070 0.035 0.080 0.011 0.024 0.027 0.038 0.040 0.059z"></path>
<path d="M15.122 23.491c-0.003-0.011-0.004-0.020 0.002-0.027-0.035-0.008-0.051 0.017-0.039 0.046 0.014 0 0.028-0.004 0.037-0.020z"></path>
<path d="M15.124 23.49c-0 0.001-0.002 0.001-0.002 0.002s0 0 0 0 0.001-0.001 0.002-0.002z"></path>
<path d="M15.112 23.208c0.002 0.005 0.002 0.011 0.004 0.016 0.015-0.022 0.030-0.043 0.042-0.066-0.015 0.017-0.030 0.034-0.045 0.051z"></path>
<path d="M15.122 23.492c0-0 0-0-0-0-0.009 0.015-0.022 0.020-0.037 0.020 0.001 0.002 0.001 0.003 0.002 0.005 0.016-0.007 0.025-0.008 0.036-0.024z"></path>
<path d="M25.191 24.647c-0.031-0.036-0.048-0.083-0.085-0.113s-0.074-0.045-0.107-0.080c-0.068-0.069-0.139-0.117-0.222-0.163-0.078-0.043-0.163-0.076-0.249-0.102-0.052-0.016-0.102-0.026-0.153-0.039-0.030-0.008-0.044-0.022-0.086-0.021-0.022 0.001-0.043 0.002-0.064-0.002-0.038-0.007-0.091-0.036-0.128-0.045-0.050-0.012-0.097-0.022-0.147-0.039-0.080-0.027-0.176-0.064-0.257-0.103-0.086-0.041-0.18-0.098-0.279-0.104-0.048-0.003-0.099 0.008-0.146-0.002-0.054-0.011-0.088-0.025-0.146-0.024-0.050 0-0.111-0.010-0.159-0.002s-0.080 0.029-0.133 0.028c-0.097-0.001-0.195 0-0.292 0-0.102 0-0.22 0.014-0.318-0.006-0.056-0.012-0.073 0.004-0.133 0.007-0.048 0.003-0.098-0.001-0.146-0.001-0.108 0-0.198 0.027-0.305 0.026-0.099-0-0.198 0.024-0.292 0.047-0.095 0.024-0.203 0.038-0.292 0.078-0.096 0.043-0.194 0.079-0.292 0.121-0.17 0.073-0.352 0.154-0.531 0.199-0.036 0.009-0.070 0.002-0.106 0.012-0.032 0.008-0.045 0.020-0.080 0.021-0.051 0.002-0.084 0.019-0.133 0.027-0.028 0.004-0.051-0.003-0.080 0.004-0.019 0.005-0.033 0.019-0.053 0.022-0.028 0.005-0.051-0.003-0.080 0.004-0.032 0.008-0.046 0.019-0.080 0.021-0.192 0.010-0.402-0.031-0.585 0.025-0.049 0.015-0.074 0.028-0.131 0.027s-0.081 0.020-0.132 0.027c-0.018 0.002-0.036-0.004-0.054-0.001-0.026 0.003-0.040 0.017-0.058 0.021-0.041 0.009-0.084 0.006-0.127 0.006-0.070 0-0.121 0.004-0.186 0.021-0.044 0.012-0.088-0.003-0.133 0.005-0.049 0.009-0.081 0.036-0.133 0.028-0.051-0.008-0.076-0.028-0.132-0.027-0.097 0.001-0.195 0-0.292 0-0.053 0-0.106-0.001-0.159 0-0.052 0-0.084-0.019-0.133-0.028-0.046-0.008-0.114-0.004-0.159 0.007-0.028 0.007-0.052 0.015-0.080 0.021-0.019 0.004-0.045 0.018-0.058 0.021-0.074 0.016-0.179 0.016-0.254 0-0.029-0.006-0.046-0.021-0.086-0.021-0.026 0-0.053-0-0.080 0-0.051 0-0.086-0.010-0.133-0.027-0.074-0.026-0.164-0.052-0.238-0.078-0.081-0.029-0.158-0.049-0.233-0.087-0.067-0.034-0.15-0.064-0.213-0.106-0.087-0.059-0.136-0.12-0.198-0.2-0.047-0.061-0.101-0.132-0.158-0.184-0.073-0.066-0.134-0.148-0.208-0.214-0.015-0.014-0.046-0.041-0.075-0.071 0.023 0.030 0.048 0.060 0.070 0.092 0.055 0.081 0.094 0.17 0.166 0.239l-0.425-0.398c-0.020-0.012-0.028-0.029-0.023-0.050 0.028 0.010 0.071 0.042 0.106 0.042-0.012-0.030 0.004-0.054 0.039-0.047-0.006 0.007-0.005 0.016-0.002 0.027 0-0.001 0.002-0.001 0.002-0.002-0.001 0.001-0.001 0.001-0.002 0.002 0.008 0.027 0.037 0.062 0.069 0.094-0.010-0.014-0.021-0.027-0.030-0.041-0.058-0.092-0.010-0.222-0.046-0.322-0.012 0.018-0.025 0.036-0.034 0.058-0.022 0.052-0.041 0.086-0.086 0.124-0.044 0.037-0.048 0.068-0.079 0.108-0.020 0.026-0.054 0.034-0.075 0.058-0.023 0.026-0.021 0.044-0.032 0.075-0.017 0.046-0.021 0.084-0.020 0.138 0.001 0.058-0.018 0.099-0.032 0.153-0.008 0.029-0.033 0.045-0.022 0.087 0.006 0.024 0.024 0.026 0.029 0.050s-0.001 0.050 0.004 0.075c0.004 0.019 0.018 0.032 0.021 0.058 0.008 0.067 0.009 0.107 0.058 0.16 0.036 0.038 0.068 0.074 0.1 0.113 0.063 0.075 0.126 0.154 0.192 0.226 0.068 0.074 0.154 0.127 0.226 0.199 0.070 0.070 0.164 0.134 0.251 0.173 0.090 0.040 0.171 0.095 0.258 0.139 0.084 0.042 0.179 0.064 0.267 0.1 0.192 0.077 0.398 0.086 0.61 0.086 0.106 0 0.212 0.001 0.318 0 0.099-0.001 0.196 0.038 0.292 0.054 0.033 0.006 0.072-0.004 0.106-0.002s0.048 0.013 0.080 0.021c0.043 0.011 0.088 0.006 0.133 0.006 0.063-0 0.1 0.018 0.159 0.028 0.049 0.008 0.11-0.002 0.159-0.002h0.371c0.053 0 0.107 0.004 0.159 0.001 0.048-0.002 0.085-0.025 0.133-0.028 0.117-0.006 0.227-0.027 0.345-0.026 0.117 0.001 0.234-0.032 0.345-0.059 0.107-0.026 0.216-0.043 0.324-0.068 0.035-0.008 0.067 0.002 0.101-0.004 0.025-0.004 0.042-0.021 0.066-0.026 0.022-0.004 0.044 0.003 0.066-0.001 0.030-0.005 0.050-0.025 0.080-0.030 0.060-0.010 0.124-0.027 0.186-0.025 0.054 0.002 0.083-0.019 0.133-0.028 0.026-0.004 0.054 0.007 0.080 0.003 0.030-0.005 0.050-0.024 0.080-0.029 0.053-0.009 0.106 0.009 0.159-0.004 0.057-0.015 0.098-0.017 0.159-0.020 0.056-0.003 0.101-0.024 0.159-0.026 0.099-0.004 0.191-0.056 0.292-0.054 0.066 0.001 0.1-0.020 0.159-0.027 0.050-0.006 0.085-0.008 0.133-0.020 0.106-0.026 0.214-0.033 0.318-0.058 0.058-0.014 0.097-0.028 0.159-0.027s0.124 0 0.186 0c0.097 0 0.194 0 0.291 0 0.121-0 0.225-0.026 0.346-0.026 0.106-0 0.212 0 0.318 0 0.055 0 0.11-0.002 0.165-0.001 0.072 0.002 0.132 0.028 0.206 0.027 0.123-0.002 0.229 0.013 0.347 0.026 0.065 0.007 0.116 0.028 0.184 0.027 0.051-0 0.102 0 0.153 0 0.065-0 0.104 0.017 0.165 0.028 0.049 0.009 0.109-0.002 0.159-0.001 0.104 0 0.193-0.021 0.292-0.047 0.043-0.011 0.088-0.006 0.133-0.006 0.063 0 0.101-0.018 0.159-0.028 0.034-0.006 0.072 0.006 0.107 0.002 0.026-0.003 0.040-0.017 0.058-0.021 0.041-0.009 0.088 0.005 0.128-0.004 0.036-0.008 0.077-0.042 0.111-0.049 0.052-0.010 0.096-0.004 0.145-0.034-0.105 0.006-0.161-0.068-0.257-0.079-0.094-0.011-0.147-0.042-0.213-0.118z"></path>
<path d="M15.086 23.516c-0.001-0.002-0.001-0.003-0.002-0.005-0.035-0.001-0.078-0.032-0.106-0.042-0.005 0.021 0.003 0.038 0.023 0.050l0.424 0.398c-0.071-0.068-0.11-0.158-0.166-0.239-0.022-0.032-0.046-0.062-0.070-0.092-0.032-0.032-0.061-0.068-0.069-0.094-0.011 0.016-0.020 0.017-0.036 0.024z"></path>
<path d="M29.277 22.723c-0.011-0.050 0.030-0.071 0.008-0.113-0.021-0.042-0.066-0.040-0.101-0.058-0.073-0.038-0.134-0.1-0.205-0.141-0.064-0.037-0.139-0.067-0.206-0.1-0.088-0.043-0.186-0.096-0.278-0.133-0.173-0.068-0.351-0.131-0.531-0.185-0.176-0.052-0.343-0.093-0.531-0.093-0.048-0-0.098-0.003-0.146-0.001s-0.085 0.025-0.133 0.028c-0.044 0.002-0.089-0-0.133-0.001-0.062-0-0.101 0.018-0.159 0.028-0.089 0.016-0.179 0.004-0.267 0.024-0.011 0.003-0.025 0.021-0.031 0.022-0.025 0.005-0.049 0-0.074 0.004-0.053 0.009-0.109 0.032-0.159 0.048-0.045 0.014-0.087 0.028-0.133 0.033s-0.085 0.025-0.133 0.027c-0.017 0.001-0.036-0.003-0.054-0.001-0.025 0.003-0.041 0.018-0.058 0.021-0.011 0.002-0.037 0.002-0.047 0.006-0.022 0.008-0.056 0.023-0.078 0.028-0.017 0.004-0.038-0.007-0.056-0.003-0.024 0.006-0.026 0.024-0.050 0.029-0.043 0.010-0.090-0.007-0.134 0.004-0.096 0.025-0.198 0.018-0.293 0.046-0.069 0.021-0.142 0.061-0.209 0.081-0.091 0.028-0.178 0.039-0.268 0.079-0.152 0.067-0.333 0.113-0.503 0.166-0.044 0.014-0.088 0.041-0.133 0.048-0.021 0.003-0.043-0.003-0.064 0.001-0.018 0.003-0.020 0.021-0.041 0.026-0.043 0.010-0.090-0.007-0.134 0.004-0.059 0.015-0.096 0.021-0.159 0.021-0.186 0-0.372-0.002-0.557 0-0.056 0.001-0.060-0.017-0.105-0.028-0.022-0.005-0.047 0.006-0.069 0.002-0.017-0.003-0.034-0.019-0.045-0.022-0.040-0.008-0.081-0.003-0.121-0.012-0.018-0.004-0.033-0.018-0.058-0.021-0.026-0.003-0.056 0.008-0.082 0.002-0.020-0.005-0.023-0.022-0.041-0.026-0.021-0.004-0.043 0.003-0.064-0.001-0.030-0.005-0.050-0.025-0.080-0.029-0.017-0.003-0.036 0.006-0.053 0.003-0.1-0.016-0.2-0.058-0.292-0.102-0.068-0.032-0.138-0.059-0.212-0.086-0.076-0.028-0.148-0.087-0.211-0.138-0.073-0.059-0.144-0.119-0.207-0.187-0.025-0.027-0.035-0.054-0.058-0.080-0.043-0.048-0.084-0.061-0.116-0.12-0.036-0.069-0.1-0.149-0.119-0.224-0.013-0.050 0.001-0.102-0.006-0.154-0.002-0.019-0.003-0.029-0.006-0.046-0.014-0.007-0.021-0.018-0.024-0.033 0.002-0.015 0.010-0.026 0.024-0.032 0.015-0.089 0.041-0.15 0.072-0.232 0.016-0.043 0.017-0.102 0.042-0.144 0.020-0.033 0.053-0.062 0.077-0.095 0.051-0.071 0.089-0.129 0.152-0.192 0.060-0.059 0.126-0.107 0.192-0.152 0.084-0.058 0.172-0.073 0.266-0.107 0.040-0.015 0.082-0.020 0.126-0.032 0.012-0.003 0.013-0.018 0.031-0.022 0.036-0.008 0.069 0.008 0.106-0.005-0.005-0.022-0.080-0.050-0.105-0.067-0.044-0.029-0.074-0.049-0.126-0.066-0.088-0.029-0.192-0.066-0.298-0.048-0.030 0.005-0.050 0.024-0.080 0.029-0.022 0.004-0.046-0.007-0.067-0.002-0.017 0.004-0.033 0.018-0.045 0.022-0.026 0.007-0.050-0.001-0.075 0.004-0.042 0.010-0.085 0.038-0.131 0.049-0.056 0.013-0.091 0.022-0.14 0.052-0.065 0.039-0.111 0.096-0.171 0.146-0.030 0.025-0.066 0.039-0.094 0.066-0.039 0.038-0.051 0.1-0.066 0.146-0.014 0.043-0.043 0.094-0.054 0.133-0.014 0.050 0.007 0.105-0.005 0.155-0.006 0.024-0.024 0.026-0.029 0.050-0.006 0.026 0.009 0.056 0.003 0.082-0.008 0.036-0.042 0.077-0.048 0.111-0.005 0.025-0.010 0.048-0.006 0.074 0.004 0.024 0.018 0.042 0.021 0.058 0.011 0.049 0.006 0.102 0.006 0.153-0 0.026-0.004 0.055-0.001 0.080s0.017 0.040 0.021 0.058c0.006 0.026 0.006 0.046 0.006 0.074 0 0.044 0.011 0.065 0.021 0.106 0.023 0.095 0.072 0.196 0.087 0.292 0.009 0.054 0.012 0.106 0.024 0.159 0.016 0.070 0.068 0.128 0.107 0.186 0.042 0.063 0.102 0.11 0.153 0.165 0.064 0.069 0.132 0.162 0.211 0.213 0.064 0.042 0.128 0.085 0.193 0.125 0.022 0.014 0.061 0.039 0.085 0.047 0.055 0.018 0.097 0.022 0.153 0.031 0.106 0.018 0.181 0.056 0.292 0.055 0.059-0.001 0.103 0.020 0.159 0.026 0.052 0.006 0.107 0.020 0.159 0.032 0.031 0.008 0.045 0.020 0.080 0.021 0.025 0.001 0.057-0.008 0.081-0.002s0.026 0.024 0.050 0.029c0.026 0.006 0.056-0.009 0.082-0.003 0.024 0.006 0.026 0.024 0.050 0.029 0.026 0.006 0.055-0.007 0.081-0.003 0.056 0.010 0.107 0.044 0.158 0.056 0.025 0.006 0.049-0.003 0.075 0.004 0.012 0.003 0.028 0.018 0.045 0.022 0.021 0.005 0.046-0.004 0.068-0.002 0.026 0.003 0.040 0.017 0.058 0.021 0.105 0.022 0.231 0.006 0.339 0.006 0.1 0 0.22 0.019 0.318 0.001 0.049-0.008 0.080-0.029 0.133-0.028 0.066 0.001 0.1-0.020 0.158-0.027 0.054-0.006 0.106-0.024 0.16-0.026 0.055-0.002 0.082-0.020 0.132-0.026 0.054-0.007 0.107 0.008 0.16-0.005s0.106-0.028 0.159-0.041c0.193-0.048 0.388-0.11 0.584-0.172 0.099-0.031 0.19-0.084 0.292-0.101 0.059-0.010 0.101-0.005 0.16-0.026 0.054-0.019 0.099-0.018 0.159-0.025 0.051-0.006 0.078-0.024 0.132-0.026 0.045-0.002 0.084-0.020 0.127-0.034 0.042-0.014 0.091-0.038 0.139-0.048 0.025-0.005 0.054 0.005 0.080 0.002 0.037-0.005 0.045-0.021 0.078-0.028 0.024-0.006 0.056 0.003 0.081 0.002 0.041-0.002 0.067-0.022 0.106-0.029 0.025-0.004 0.054 0.003 0.080 0.002 0.041-0.002 0.067-0.022 0.106-0.028 0.017-0.003 0.036 0.006 0.053 0.003 0.039-0.006 0.065-0.027 0.106-0.029 0.025-0.001 0.057 0.008 0.081 0.002 0.032-0.008 0.041-0.024 0.078-0.028 0.119-0.016 0.252 0 0.372 0 0.053 0 0.106 0 0.159 0 0.025 0 0.055-0.004 0.080-0 0.037 0.005 0.045 0.021 0.078 0.028 0.059 0.014 0.126-0.011 0.187 0.004 0.032 0.008 0.045 0.019 0.080 0.021s0.073-0.008 0.106-0.002c0.029 0.005 0.050 0.024 0.079 0.029 0.018-0.001 0.036-0.002 0.055-0.003 0.014 0.002 0.025 0.009 0.031 0.022 0.050 0.011 0.103-0.001 0.153 0.012 0.031 0.008 0.045 0.019 0.080 0.021s0.072-0.006 0.107-0.001c0.025 0.003 0.041 0.018 0.058 0.021 0.034 0.007 0.067-0.001 0.1 0.005 0.062 0.011 0.125 0.033 0.186 0.048 0.028 0.007 0.054-0.001 0.081 0.004 0.023 0.005 0.033 0.025 0.054 0.027-0.013-0.007-0.039-0.036-0.109-0.132z"></path>
<path d="M29.399 22.854c-0.005 0.002-0.009 0.001-0.014 0 0.007 0.004 0.010 0.002 0.014-0z"></path>
<path d="M10.34 18.569l0.416 0.359c-0.133-0.133-0.256-0.271-0.416-0.359z"></path>
<path d="M6.299 21.708c0.102 0.038 0.188 0.101 0.291 0.139 0.055 0.020 0.105 0.040 0.158 0.060 0.054 0.021 0.112 0.025 0.161 0.046 0.206 0.088 0.398 0.154 0.61 0.22 0.059 0.018 0.115 0.032 0.173 0.046 0.026 0.006 0.039 0.023 0.064 0.029 0.033 0.008 0.068-0.005 0.102 0.004 0.017 0.005 0.038 0.016 0.059 0.021s0.050 0.021 0.068 0.024c0.062 0.011 0.109 0.017 0.17 0.027 0.051 0.009 0.104 0.044 0.148 0.052 0.030 0.005 0.061-0.004 0.091 0.001 0.039 0.007 0.065 0.027 0.106 0.028 0.062 0.003 0.111 0.025 0.172 0.026 0.030 0.001 0.064-0.007 0.093-0.002 0.039 0.007 0.065 0.026 0.106 0.029 0.061 0.003 0.114 0 0.172 0.013 0.066 0.014 0.13 0.013 0.199 0.013 0.052 0 0.123 0.013 0.174 0.001 0.052-0.013 0.102-0.027 0.158-0.041 0.108-0.027 0.218-0.050 0.321-0.090 0.116-0.045 0.23-0.055 0.339-0.113 0.052-0.027 0.107-0.032 0.16-0.052 0.043-0.016 0.089-0.058 0.132-0.081 0.088-0.046 0.185-0.079 0.272-0.126 0.039-0.021 0.061-0.046 0.096-0.076 0.042-0.036 0.092-0.052 0.137-0.086 0.084-0.064 0.177-0.125 0.254-0.199 0.029-0.028 0.058-0.057 0.086-0.086 0.037-0.038 0.078-0.052 0.113-0.085 0.030-0.029 0.061-0.079 0.087-0.113 0.013-0.018 0.017-0.042 0.032-0.061s0.036-0.036 0.050-0.056c0.054-0.073 0.114-0.173 0.136-0.262 0.006-0.023 0.005-0.045 0.012-0.067 0.008-0.025 0.023-0.054 0.034-0.080 0.019-0.048 0.046-0.101 0.057-0.148 0.014-0.062-0.021-0.11-0.025-0.17-0.004-0.058 0.017-0.125 0.033-0.18 0.013-0.046 0.062-0.092 0.075-0.137 0.016-0.058-0.017-0.13-0.003-0.189 0.006-0.024 0.023-0.038 0.029-0.064 0.007-0.028-0.001-0.066-0.001-0.094-0-0.069-0.004-0.122-0.021-0.186-0.008-0.031-0.001-0.061-0.008-0.090-0.005-0.025-0.022-0.038-0.025-0.068-0.006-0.063-0.017-0.119-0.032-0.18-0.011-0.048-0.037-0.111-0.054-0.165-0.018-0.057-0.029-0.128-0.052-0.18-0.010-0.023-0.034-0.045-0.045-0.072-0.012-0.033-0.020-0.061-0.036-0.093-0.031-0.062-0.062-0.124-0.093-0.186-0.13-0.263-0.331-0.457-0.537-0.664-0.091-0.091-0.196-0.154-0.319-0.192-0.060-0.018-0.114-0.048-0.172-0.070-0.030-0.012-0.063-0.019-0.093-0.030-0.023-0.008-0.055-0.022-0.078-0.027-0.050-0.012-0.122-0-0.174 0.001-0.037 0.001-0.059 0.012-0.093 0.021-0.037 0.010-0.070 0.001-0.107 0.005-0.079 0.008-0.201 0.075-0.266 0.126-0.040 0.032-0.051 0.082-0.094 0.113-0.029 0.021-0.049 0.024-0.071 0.052-0.018 0.023-0.034 0.049-0.052 0.073-0.029 0.037-0.066 0.081-0.074 0.126-0.006 0.030 0.008 0.064 0.002 0.094-0.006 0.033-0.025 0.059-0.029 0.093-0.011 0.098-0.019 0.259 0.007 0.352 0.006 0.023 0.015 0.044 0.020 0.072 0.006 0.033 0.018 0.061 0.028 0.094 0.015 0.049 0.024 0.1 0.053 0.15-0.009-0.036 0.032-0.098 0.046-0.131 0.023-0.056 0.048-0.078 0.093-0.119 0.034-0.032 0.063-0.061 0.099-0.086 0.041-0.028 0.089-0.045 0.133-0.066 0.112-0.053 0.158-0.124 0.292-0.074 0.031 0.012 0.059 0.029 0.087 0.045l-0.168-0.145c0.011-0.043-0.027-0.087-0.071-0.080 0.054 0.011 0.094-0.026 0.151-0.026 0.065 0 0.084 0.029 0.139 0.047 0.056 0.018 0.094 0.016 0.14 0.059 0.039 0.037 0.073 0.076 0.112 0.113 0.080 0.073 0.129 0.171 0.2 0.254 0.074 0.087 0.126 0.163 0.152 0.27 0.024 0.098 0.095 0.165 0.126 0.266 0.016 0.053 0.034 0.11 0.046 0.159 0.007 0.026 0.011 0.048 0.013 0.080 0.002 0.041 0.022 0.067 0.029 0.106 0.020 0.112 0.005 0.269-0.027 0.373-0.006 0.021-0.024 0.029-0.029 0.050-0.007 0.030 0.006 0.064 0.002 0.094-0.004 0.034-0.023 0.060-0.029 0.093s0.005 0.066-0.004 0.1c-0.006 0.021-0.018 0.031-0.021 0.058-0.003 0.030 0.004 0.061-0.002 0.091-0.007 0.040-0.035 0.092-0.054 0.132-0.026 0.053-0.018 0.107-0.049 0.162-0.029 0.052-0.069 0.094-0.094 0.146-0.039 0.080-0.118 0.15-0.183 0.213-0.075 0.072-0.148 0.138-0.242 0.182-0.097 0.045-0.195 0.087-0.292 0.133-0.038 0.018-0.087 0.040-0.124 0.050-0.031 0.008-0.056 0.001-0.087 0.005-0.036 0.004-0.070 0.034-0.107 0.030-0.029-0.004-0.037-0.023-0.064-0.030-0.023-0.006-0.057 0.001-0.081 0.001-0.062 0-0.139 0.012-0.199-0.002-0.123-0.028-0.246-0.036-0.372-0.050-0.112-0.013-0.216-0.053-0.318-0.081-0.022-0.006-0.046-0.006-0.067-0.012-0.024-0.008-0.055-0.022-0.080-0.033-0.065-0.028-0.133-0.046-0.199-0.073-0.206-0.083-0.396-0.199-0.597-0.299-0.202-0.101-0.394-0.197-0.604-0.278-0.052-0.020-0.108-0.054-0.165-0.067-0.063-0.015-0.123-0.021-0.186-0.031-0.057-0.009-0.107-0.045-0.158-0.056-0.026-0.006-0.054 0.002-0.081-0.004-0.039-0.010-0.066-0.016-0.107-0.020-0.058-0.006-0.093-0.028-0.158-0.027-0.063 0.001-0.097-0.028-0.16-0.026-0.065 0.001-0.112-0.021-0.172-0.028-0.064-0.007-0.135 0.001-0.199 0.001-0.123 0-0.249-0.007-0.371-0.001-0.061 0.003-0.109 0.028-0.173 0.027-0.029-0-0.064-0.004-0.093-0.001-0.035 0.005-0.047 0.022-0.078 0.029-0.055 0.013-0.116 0.012-0.172 0.028-0.025 0.007-0.037 0.021-0.068 0.025-0.036 0.004-0.070-0.004-0.107 0.005-0.119 0.030-0.231 0.077-0.346 0.12-0.045 0.017-0.088 0.036-0.132 0.046-0.051 0.012-0.090 0.040-0.139 0.060s-0.098 0.033-0.143 0.056c-0.052 0.028-0.103 0.066-0.156 0.094-0.093 0.048-0.176 0.116-0.267 0.175-0.108 0.070-0.221 0.131-0.329 0.199-0.089 0.056-0.167 0.126-0.251 0.189-0.064 0.047-0.121 0.104-0.177 0.161-0.059 0.061-0.109 0.131-0.167 0.193-0.016 0.017-0.055 0.037-0.042 0.066 0.021 0.047 0.108-0.019 0.138-0.032 0.064-0.025 0.129-0.034 0.193-0.056 0.12-0.043 0.248-0.084 0.372-0.107 0.031-0.006 0.062 0.004 0.093-0.001 0.028-0.005 0.051-0.022 0.080-0.029 0.066-0.016 0.133-0.026 0.199-0.049 0.12-0.041 0.243-0.058 0.372-0.056 0.059 0.001 0.092-0.021 0.145-0.027 0.070-0.008 0.131-0.012 0.2-0.028 0.029-0.007 0.049-0.022 0.080-0.025 0.033-0.004 0.060 0.004 0.093-0.005 0.085-0.022 0.115-0.014 0.199 0.004 0.115 0.025 0.244-0.022 0.358 0.008 0.121 0.031 0.251 0.010 0.371 0.041 0.033 0.009 0.060 0.001 0.093 0.005 0.034 0.004 0.060 0.024 0.093 0.029 0.061 0.010 0.123 0.026 0.186 0.025 0.066-0.001 0.101 0.022 0.159 0.027 0.068 0.007 0.122 0.021 0.187 0.046z"></path>
<path d="M9.037 24.573c0.025 0.014 0.056 0.046 0.080 0.055s0.044 0.003 0.068 0.011c0.012 0.004 0.038 0.021 0.052 0.027 0.017 0.007 0.045 0.013 0.060 0.019 0.088 0.038 0.19 0.029 0.291 0.027 0.067-0.001 0.118 0.027 0.186 0.026 0.061-0.001 0.102 0.006 0.159 0.021 0.096 0.025 0.219 0.006 0.318 0.006 0.108 0 0.241 0.021 0.345-0.006 0.095-0.024 0.212-0.052 0.298-0.093 0.102-0.048 0.212-0.082 0.314-0.133 0.082-0.040 0.155-0.103 0.238-0.147 0.048-0.025 0.078-0.057 0.126-0.080 0.041-0.019 0.080-0.044 0.119-0.067 0.033-0.019 0.073-0.034 0.106-0.052s0.080-0.068 0.118-0.061c-0.121 0.004-0.242-0-0.363 0.001-0.030 0-0.062 0.003-0.091-0.002-0.018-0.003-0.020-0.021-0.041-0.026-0.059-0.014-0.13 0.017-0.188 0.003-0.033-0.008-0.040-0.024-0.078-0.029-0.029-0.003-0.051 0.002-0.080-0.005-0.047-0.013-0.097-0.027-0.138-0.041-0.114-0.039-0.224-0.084-0.339-0.119-0.178-0.055-0.333-0.172-0.504-0.239-0.089-0.035-0.177-0.071-0.265-0.106-0.092-0.036-0.192-0.096-0.293-0.1-0.058-0.002-0.103-0.024-0.159-0.026-0.052-0.003-0.107 0-0.159 0-0.099 0.001-0.198-0.023-0.292-0.047-0.104-0.027-0.237-0.006-0.345-0.006h-0.61c-0.053 0-0.107-0.004-0.159-0.001-0.056 0.003-0.101 0.024-0.159 0.026-0.056 0.002-0.102 0.024-0.159 0.026-0.034 0.002-0.048 0.013-0.080 0.021-0.029 0.007-0.052 0-0.080 0.004-0.092 0.015-0.174 0.061-0.26 0.087-0.192 0.059-0.377 0.16-0.563 0.253-0.104 0.052-0.208 0.084-0.318 0.119-0.054 0.017-0.211 0.060-0.186 0.153-0.069 0.16-0.032 0.136 0.027 0.113 0.042-0.016 0.089-0.052 0.131-0.061 0.11-0.025 0.259 0.001 0.373 0.001 0.060 0 0.127 0.008 0.186 0.001 0.058-0.008 0.093-0.028 0.159-0.027 0.062 0 0.124 0.001 0.186 0 0.064-0.001 0.096 0.027 0.159 0.026 0.116-0.002 0.21 0.019 0.318 0.047 0.053 0.014 0.106 0.013 0.159 0.027 0.052 0.013 0.106 0.002 0.159 0.005 0.041 0.002 0.067 0.022 0.106 0.029 0.028 0.005 0.051-0.003 0.080 0.004 0.054 0.014 0.106 0.024 0.159 0.041 0.106 0.034 0.215 0.054 0.32 0.085 0.095 0.029 0.201 0.063 0.296 0.1 0.076 0.030 0.142 0.068 0.212 0.106z"></path>
<path d="M24.082 26.485c-0.028-0.006-0.047-0.020-0.086-0.021-0.016 0-0.038 0.004-0.053 0.001-0.082-0.017-0.103-0.029-0.186-0.007-0.029 0.007-0.051 0.004-0.080 0.005-0.034 0.001-0.048 0.014-0.080 0.021-0.058 0.014-0.115 0.021-0.172 0.035-0.22 0.052-0.429 0.151-0.623 0.256-0.050 0.027-0.106 0.061-0.16 0.080-0.061 0.022-0.125 0.030-0.18 0.066-0.095 0.062-0.209 0.087-0.311 0.139-0.056 0.028-0.113 0.042-0.166 0.073-0.037 0.022-0.073 0.046-0.112 0.066-0.060 0.031-0.125 0.040-0.186 0.067-0.050 0.022-0.107 0.028-0.16 0.046-0.132 0.045-0.27 0.068-0.405 0.106s-0.261 0.084-0.398 0.113c-0.156 0.033-0.313 0.052-0.471 0.079-0.064 0.011-0.128 0.015-0.192 0.026-0.046 0.008-0.077 0.020-0.126 0.021-0.041 0.001-0.085-0.006-0.125-0.002-0.161 0.017-0.316 0.057-0.478 0.055-0.072-0.001-0.129 0.019-0.199 0.028-0.073 0.009-0.155-0.002-0.229-0.002-0.090 0-0.185 0.010-0.274 0.002-0.082-0.008-0.15-0.029-0.234-0.028-0.1 0.001-0.188-0.020-0.285-0.028-0.083-0.007-0.155-0.006-0.239-0.025-0.115-0.026-0.234-0.040-0.352-0.053-0.082-0.010-0.155-0.044-0.238-0.053-0.093-0.010-0.175-0.047-0.266-0.067-0.081-0.018-0.163-0.021-0.245-0.039-0.182-0.040-0.362-0.089-0.544-0.126-0.167-0.034-0.339-0.054-0.505-0.092-0.169-0.039-0.335-0.088-0.503-0.127-0.141-0.033-0.297-0.056-0.433-0.106-0.279-0.103-0.576-0.147-0.856-0.245-0.133-0.047-0.265-0.092-0.397-0.146-0.116-0.048-0.242-0.081-0.36-0.119-0.065-0.021-0.126-0.047-0.193-0.067-0.062-0.019-0.124-0.035-0.186-0.053-0.114-0.033-0.227-0.064-0.343-0.093-0.256-0.064-0.511-0.12-0.764-0.186-0.099-0.026-0.197-0.056-0.297-0.074-0.106-0.019-0.21-0.019-0.319-0.024-0.065-0.004-0.117-0.028-0.186-0.027-0.044 0-0.088 0-0.133 0-0.061 0-0.128-0.010-0.187 0.006-0.019 0.005-0.030 0.018-0.051 0.022-0.032 0.006-0.068-0.009-0.101-0.003-0.048 0.009-0.082 0.023-0.133 0.028-0.027 0.002-0.035 0-0.059 0.006-0.038 0.009-0.057 0.021-0.1 0.021-0.032 0-0.054-0.003-0.085 0.005-0.096 0.025-0.195 0.043-0.292 0.068-0.062 0.016-0.099 0.008-0.159 0.039-0.058 0.030-0.096 0.044-0.132 0.099-0.028 0.043-0.047 0.088-0.072 0.133-0.029 0.052-0.080 0.098-0.087 0.159-0.33-0.115-0.391-0.056-0.444 0.005-0.024 0.028-0.13 0.117-0.101 0.155 0.106-0.009 0.225-0.003 0.334-0.002 0.086 0.001 0.158-0.027 0.245-0.026s0.156-0.004 0.238-0.021c0.161-0.034 0.354-0.006 0.519-0.006 0.159 0 0.318 0.002 0.477 0 0.080-0.001 0.146 0.027 0.225 0.026 0.060-0.001 0.119 0.001 0.178 0 0.074-0.001 0.13 0.024 0.2 0.027 0.057 0.002 0.117-0.009 0.172 0.006 0.041 0.011 0.061 0.022 0.106 0.021 0.014-0 0.038-0.004 0.053-0.001 0.061 0.011 0.126 0.040 0.186 0.054 0.115 0.027 0.24 0.074 0.345 0.127 0.213 0.106 0.402 0.256 0.61 0.371 0.216 0.118 0.409 0.273 0.61 0.412 0.12 0.082 0.225 0.17 0.351 0.239 0.12 0.065 0.236 0.132 0.36 0.186 0.128 0.056 0.245 0.123 0.378 0.172 0.126 0.046 0.262 0.097 0.392 0.133 0.137 0.039 0.271 0.070 0.411 0.092 0.142 0.022 0.281 0.078 0.424 0.101 0.174 0.028 0.35 0.053 0.525 0.080 0.154 0.024 0.321 0.053 0.478 0.052 0.186-0.001 0.362 0.027 0.55 0.027 0.168 0 0.336 0 0.505 0 0.18 0 0.361-0.019 0.537-0.047 0.046-0.008 0.086-0.002 0.132-0.004 0.050-0.003 0.091-0.025 0.14-0.030 0.030-0.003 0.062 0.006 0.093 0.003 0.046-0.005 0.086-0.025 0.133-0.030 0.106-0.010 0.201-0.023 0.306-0.045 0.071-0.015 0.141-0.023 0.212-0.032 0.16-0.022 0.32-0.054 0.478-0.080 0.302-0.049 0.601-0.144 0.896-0.22 0.286-0.073 0.562-0.165 0.834-0.284 0.187-0.082 0.383-0.138 0.56-0.24 0.081-0.046 0.156-0.108 0.244-0.14 0.024-0.009 0.063-0.012 0.086-0.024 0.020-0.010 0.033-0.033 0.053-0.043 0.102-0.047 0.214-0.056 0.312-0.118 0.078-0.050 0.152-0.1 0.239-0.133 0.053-0.020 0.109-0.054 0.166-0.074 0.035-0.012 0.068-0.018 0.105-0.032 0.093-0.038 0.195-0.059 0.28-0.113 0.168-0.106 0.37-0.178 0.556-0.252 0.104-0.042 0.216-0.068 0.32-0.106 0.083-0.030 0.172-0.030 0.268-0.025-0.067-0.056-0.123-0.102-0.202-0.135-0.091-0.038-0.186-0.064-0.287-0.085z"></path>
<path d="M23.364 20.717c-0.026-0.009-0.052-0.015-0.075-0.010 0.030 0 0.053 0.005 0.075 0.010z"></path>
<path d="M28.719 21.164c0.080 0.053 0.143 0.113 0.206 0.186 0.023 0.026 0.071 0.084 0.096 0.136l-0.090-0.382c0.006-0.002 0.011-0.004 0.017-0.006-0.082-0.063-0.183-0.069-0.282-0.094-0.058-0.015-0.127-0.023-0.187-0.033-0.034-0.006-0.067-0.013-0.101-0.020 0.026 0.013 0.052 0.027 0.075 0.040 0.092 0.051 0.178 0.115 0.265 0.173z"></path>
<path d="M26.252 20.488c-0.094 0.024-0.198-0.012-0.292 0.004-0.107 0.019-0.181 0.055-0.292 0.054-0.094-0-0.2-0.013-0.292-0-0.051 0.007-0.076 0.028-0.132 0.027-0.015-0-0.038-0.003-0.054-0-0.036 0.005-0.046 0.021-0.078 0.029-0.027 0.006-0.053-0.003-0.081 0.004-0.031 0.008-0.045 0.019-0.080 0.021-0.044 0.002-0.089 0-0.132-0-0.056-0.001-0.081 0.021-0.132 0.027-0.026 0.003-0.056-0.008-0.082-0.002-0.023 0.006-0.028 0.024-0.050 0.029s-0.051-0-0.075 0.004c-0.019 0.004-0.056 0.020-0.080 0.026-0.021 0.005-0.030 0.018-0.058 0.021-0.026 0.004-0.054-0.003-0.080-0.001-0.034 0.002-0.048 0.013-0.080 0.021-0.048 0.013-0.050-0.007-0.086-0.015-0.050-0.011-0.103 0.004-0.153-0.005-0.030-0.005-0.050-0.024-0.080-0.029-0.032-0.006-0.073 0.001-0.106 0.001-0.055 0-0.117-0.008-0.17 0.002-0.018 0.003-0.020 0.021-0.041 0.026-0.026 0.006-0.081 0.003-0.108-0.001-0.029-0.004-0.052-0.011-0.075-0.017 0.053 0.018 0.106 0.055 0.149 0.076 0.030 0.015 0.056 0.035 0.085 0.053 0.051 0.031 0.104 0.048 0.154 0.080 0.074 0.047 0.132 0.093 0.218 0.119 0.102 0.032 0.191 0.060 0.292 0.093 0.049 0.016 0.084 0.010 0.133 0.018 0.030 0.005 0.050 0.024 0.080 0.029 0.026 0.004 0.054-0.007 0.080-0.003 0.049 0.008 0.080 0.028 0.133 0.028 0.048-0.001 0.112-0.010 0.159-0.001 0.059 0.010 0.096 0.029 0.159 0.028 0.052-0.001 0.084 0.019 0.133 0.028 0.094 0.017 0.21-0.001 0.305-0.001 0.099 0 0.182-0.028 0.279-0.027 0.053 0.001 0.073-0.016 0.118-0.027 0.055-0.014 0.117 0.010 0.173-0.005 0.091-0.024 0.184-0.028 0.276-0.050 0.031-0.007 0.072-0.038 0.101-0.045 0.049-0.012 0.1-0.014 0.147-0.038 0.086-0.044 0.142-0.111 0.245-0.128 0.040-0.007 0.092 0.001 0.133 0.001 0.023 0 0.058 0.007 0.081 0.002 0.024-0.006 0.026-0.024 0.050-0.029 0.026-0.006 0.055 0.007 0.081 0.003 0.030-0.005 0.050-0.024 0.080-0.029 0.040-0.007 0.092 0.002 0.133 0.002 0.1-0 0.22 0.018 0.318 0.001 0.058-0.010 0.097-0.028 0.159-0.028 0.051 0 0.109-0.007 0.16-0.001 0.025 0.003 0.041 0.018 0.058 0.021 0.026 0.005 0.048 0 0.074 0.004 0.057 0.010 0.115 0.030 0.172 0.041 0.032 0.006 0.064 0.012 0.097 0.019-0.021-0.010-0.042-0.020-0.063-0.026-0.036-0.011-0.066-0.011-0.101-0.025-0.036-0.015-0.069-0.041-0.106-0.054-0.099-0.035-0.193-0.082-0.292-0.118-0.054-0.020-0.104-0.050-0.159-0.067-0.062-0.020-0.125-0.024-0.186-0.039-0.060-0.015-0.123-0.040-0.186-0.048-0.045-0.006-0.087 0.007-0.131-0.005-0.057-0.015-0.098-0.022-0.159-0.021-0.056 0.001-0.082-0.020-0.132-0.027-0.104-0.014-0.218 0.021-0.319-0.005-0.109-0.028-0.179-0.056-0.292-0.026z"></path>
<path d="M29.022 21.486l0.016 0.069c0.005-0.019-0.004-0.044-0.016-0.069z"></path>
<path d="M22.219 19.3c-0.064 0-0.101-0.021-0.159-0.027-0.026-0.003-0.055 0.007-0.080 0.002-0.039-0.008-0.066-0.024-0.106-0.028-0.059-0.006-0.114-0.029-0.165-0.046-0.062-0.021-0.124-0.031-0.18-0.060-0.102-0.053-0.198-0.081-0.293-0.153-0.093-0.070-0.222-0.1-0.278-0.205-0.064-0.119-0.198-0.226-0.227-0.357-0.015-0.067-0.013-0.142-0.031-0.208-0.008-0.030-0.021-0.047-0.020-0.086 0-0.035 0-0.071 0-0.106-0-0.066 0.005-0.146 0.032-0.206 0.035-0.079 0.125-0.121 0.191-0.165 0.054-0.035 0.107-0.055 0.162-0.080 0.040-0.018 0.146-0.015 0.163-0.060-0.040-0.044-0.118-0.003-0.163 0.010-0.066 0.019-0.12 0.069-0.179 0.097-0.045 0.022-0.065 0.049-0.105 0.080-0.051 0.039-0.126 0.064-0.152 0.129-0.045 0.113-0.078 0.234-0.108 0.356-0.017 0.072-0.027 0.123-0.027 0.199 0 0.068-0.016 0.161-0.001 0.227 0.010 0.042 0.044 0.088 0.061 0.131 0.026 0.066 0.046 0.138 0.073 0.2 0.022 0.051 0.037 0.103 0.072 0.152 0.041 0.056 0.086 0.109 0.133 0.16 0.052 0.056 0.088 0.098 0.153 0.14 0.053 0.033 0.102 0.063 0.158 0.093 0.022 0.012 0.060 0.045 0.082 0.051 0.030 0.008 0.062-0.006 0.092 0 0.032 0.008 0.043 0.022 0.078 0.028 0.037 0.006 0.070 0.021 0.107 0.028 0.131 0.023 0.291-0.001 0.425-0.002 0.028 0 0.066-0.008 0.094-0.001 0.030 0.007 0.048 0.021 0.078 0.028 0.071 0.017 0.122-0.025 0.186-0.028 0.066-0.003 0.133 0 0.199 0 0.035 0 0.071-0 0.106 0 0.038 0 0.058-0.015 0.086-0.020 0.13-0.027 0.252-0.032 0.392-0.032 0.075 0 0.128-0.008 0.199-0.024 0.031-0.007 0.062 0.002 0.094-0.002 0.040-0.004 0.054-0.020 0.091-0.028 0.059-0.012 0.139 0.001 0.2 0.001 0.076 0 0.137-0.023 0.212-0.026 0.063-0.003 0.141-0.026 0.2-0.051 0.064-0.026 0.128-0.041 0.198-0.063 0.059-0.019 0.123-0.044 0.186-0.047 0.073-0.004 0.154 0.012 0.226-0.002 0.044-0.009 0.072-0.025 0.119-0.024 0.035 0 0.071 0 0.106 0h0.239c0.155 0 0.31-0.004 0.464-0 0.049 0.001 0.074 0.020 0.119 0.028 0.033 0.006 0.073-0.001 0.106-0.001 0.040-0 0.072 0.004 0.106 0.013s0.068 0.005 0.106 0.012c0.080 0.014 0.163 0.045 0.239 0.074 0.028 0.011 0.056 0.010 0.074 0.038 0.008 0.013 0.033 0.12 0.164 0.207-0.009-0.043-0.074-0.095-0.1-0.133-0.049-0.073-0.107-0.131-0.177-0.187-0.106-0.084-0.217-0.18-0.335-0.238-0.102-0.050-0.225-0.077-0.329-0.106-0.058-0.016-0.127-0.027-0.187-0.039-0.063-0.012-0.133-0.021-0.2-0.014-0.029 0.003-0.044 0.021-0.068 0.025-0.038 0.007-0.056-0.010-0.090-0.019-0.060-0.016-0.131-0.007-0.186 0.007-0.116 0.031-0.25-0.010-0.372 0.012-0.062 0.011-0.125 0.033-0.186 0.048-0.064 0.016-0.134 0.022-0.199 0.032-0.033 0.005-0.060 0.023-0.093 0.029-0.031 0.005-0.062-0.006-0.093 0.001-0.035 0.008-0.055 0.023-0.093 0.025-0.035 0.002-0.071-0.003-0.106-0.001-0.128 0.007-0.257 0.068-0.385 0.081-0.126 0.014-0.242 0.026-0.36 0.078-0.047 0.021-0.104 0.045-0.158 0.054-0.026 0.004-0.054-0.007-0.080-0.003-0.045 0.008-0.071 0.027-0.12 0.028-0.063 0.002-0.112-0.024-0.172-0.027-0.070-0.004-0.142 0-0.212 0.001z"></path>
<path d="M17.469 13.65c-0.003 0.026 0.017 0.018 0.018 0.034 0.002 0.032 0.006 0.063-0.030 0.077 0.005 0.025 0.024 0.044 0.009 0.075 0.048-0.212 0.071-0.273 0.086-0.291-0.002-0.002-0.002-0.002-0.007-0.006-0.008 0.006-0.022 0.005-0.034 0.007-0.006 0.022-0.011 0.043-0.020 0.066-0.005 0.012-0.021 0.023-0.022 0.038z"></path>
<path d="M17.569 13.536c-0.005 0-0.010 0.002-0.016 0.009 0.005 0.005 0.005 0.005 0.016-0.009z"></path>
<path d="M14.719 8.861c-0.049-0.004-0.097-0.022-0.146-0.019-0.062 0.003-0.125 0.011-0.187 0.011 0 0 0 0.001 0 0.001 0.193 0.008 0.284 0.009 0.333 0.007z"></path>
</svg>
