<!-- Generated by IcoMoon.io -->
<svg version="1.1" xmlns="http://www.w3.org/2000/svg" width="32" height="32" viewBox="0 0 32 32">
<path d="M11.223 25.016c-0.851-0.313-1.422-1.041-1.422-1.811 0-0.643 0.177-0.846 0.968-1.106 0.646-0.213 1.025-0.549 1.141-1.009 0.444-1.771 2.76-1.465 3.331 0.44 0.178 0.593 0.239 1.413 0.136 1.823-0.333 1.325-2.602 2.234-4.153 1.664zM17.408 24.771c-0.976-0.53-1.076-1.863-0.195-2.61 0.323-0.274 1.226-1.118 2.008-1.876 1.32-1.28 1.385-1.405 0.906-1.757-0.441-0.325-0.599-0.301-1.098 0.165-0.835 0.78-2.344 1.040-2.573 0.443-0.217-0.565 0.533-1.778 1.238-2.001 0.283-0.090 0.742-0.547 1.019-1.017 0.711-1.203 2.064-1.157 4.697 0.16 1.372 0.687 2.325 0.985 2.953 0.924 0.824-0.079 0.937-0.196 1.019-1.050 0.050-0.528-0.045-1.098-0.213-1.266-0.51-0.51-0.316-1.153 0.555-1.841 0.622-0.491 0.956-0.586 1.338-0.382 0.938 0.502 1.446 1.31 1.636 2.6 0.239 1.625-0.521 2.852-2.53 4.083-1.792 1.098-3.082 1.319-4.817 0.823-0.758-0.217-1.428-0.345-1.488-0.285s0.041 0.508 0.225 0.995c0.553 1.465 0.027 2.914-1.34 3.686-1.317 0.744-2.243 0.801-3.342 0.205zM4.17 20.336c-2.301-1.046-2.907-3.437-1.56-6.151 0.834-1.681 1.329-1.557 1.1 0.276-0.224 1.793 0.068 2.195 2 2.745 1.802 0.513 2.528 0.409 3.981-0.571 1.745-1.178 4.014-1.447 4.882-0.58 0.592 0.592 1.1 2.663 0.78 3.18-0.258 0.418-1.086 0.365-2.036-0.13-1.239-0.646-2.080-0.521-3.907 0.58-2.047 1.234-3.546 1.421-5.241 0.651zM8.763 13.527c-0.336-0.173-0.835-0.73-1.108-1.237-0.485-0.9-0.48-0.948 0.185-2.053 0.784-1.301 4.175-4.425 4.637-4.271 0.636 0.212 0.463 1.072-0.443 2.198-1.030 1.282-0.865 1.684 0.696 1.693 1.13 0.006 2.372 0.722 2.576 1.486 0.306 1.143 0.196 1.865-0.315 2.067-0.907 0.359-5.588 0.447-6.229 0.117zM17.824 13.187c-0.888-0.402-0.679-1.097 0.496-1.651 0.91-0.43 1.368-1.041 1.416-1.891 0.011-0.197-0.684-0.704-1.544-1.126s-1.564-0.923-1.564-1.113c0-0.19 0.394-0.739 0.875-1.221 0.729-0.729 1.096-0.874 2.204-0.871 1.727 0.005 2.634 0.482 3.248 1.706 0.771 1.537 0.659 3.352-0.266 4.317-0.42 0.439-0.9 0.798-1.066 0.799s-0.686 0.205-1.155 0.454c-1.486 0.788-1.974 0.898-2.642 0.595z"></path>
</svg>
