<!-- Generated by IcoMoon.io -->
<svg version="1.1" xmlns="http://www.w3.org/2000/svg" width="32" height="32" viewBox="0 0 32 32">
<path d="M9.871 28.458c-0.351-0.771-0.307-2.394 0.182-6.704 0.355-3.128 0.79-6.059 0.967-6.513 0.308-0.788 0.277-0.795-0.675-0.165-0.549 0.363-1.803 2.22-2.787 4.126s-2.056 3.736-2.383 4.067c-0.436 0.442-0.715 0.48-1.053 0.141s-0.326-0.879 0.045-2.045c0.278-0.872 1.488-3.72 2.689-6.33s2.311-5.179 2.467-5.71c0.233-0.793-0.056-1.282-1.613-2.732-1.043-0.971-1.896-1.953-1.896-2.181s0.245-0.619 0.545-0.868c0.418-0.347 0.918-0.070 2.147 1.187 0.881 0.902 1.824 1.64 2.097 1.64s0.992-0.846 1.597-1.88c0.606-1.034 1.54-2.079 2.076-2.323s1.265-0.333 1.62-0.196c0.479 0.184 0.645 0.843 0.645 2.553 0 1.268-0.214 3.604-0.476 5.191-0.476 2.885-0.476 2.885 1.115 4.515 0.875 0.896 1.797 1.63 2.049 1.63s2.024-1.962 3.939-4.36c1.915-2.398 3.992-5.025 4.616-5.837 1.135-1.478 1.135-1.478 1.103-0.076-0.017 0.771-0.249 1.959-0.516 2.64s-1.125 2.419-1.908 3.864c-0.783 1.444-2.241 3.536-3.241 4.647-1.708 1.899-1.781 2.077-1.211 2.944 0.334 0.507 1.3 1.752 2.148 2.765 0.945 1.129 1.35 1.907 1.047 2.008-0.272 0.091-1.387-0.714-2.477-1.787s-2.155-1.884-2.366-1.801c-0.211 0.083-1.913 1.855-3.781 3.937-2.016 2.247-3.914 3.966-4.669 4.229-0.699 0.244-1.341 0.443-1.425 0.443s-0.362-0.458-0.617-1.017zM16.045 19.796c1.628-2.046 1.628-2.046 0.753-3.406-0.482-0.748-1.144-1.313-1.471-1.254-0.374 0.067-0.932 1.414-1.498 3.613-0.497 1.928-0.81 3.663-0.697 3.855s0.449 0.099 0.746-0.206c0.297-0.305 1.272-1.476 2.168-2.601z"></path>
</svg>
