<!-- Generated by IcoMoon.io -->
<svg version="1.1" xmlns="http://www.w3.org/2000/svg" width="32" height="32" viewBox="0 0 32 32">
<path d="M9.701 28.979c-0.399-0.581 0.558-1.705 1.451-1.705 0.355 0 0.646-0.289 0.646-0.641s0.581-0.852 1.29-1.109c0.71-0.257 2.24-0.899 3.401-1.427 5.82-2.645 11.113-3.961 10.531-2.618-0.517 1.193-12.508 7.223-15.299 7.693-1.079 0.182-1.812 0.112-2.021-0.192zM5.744 27.728c-0.538-0.306-0.205-1.297 1.806-5.367 3.916-7.927 3.723-7.264 2.373-8.168-2.487-1.663-2.815-2.093-2.815-3.686 0-1.387 0.349-1.897 2.697-3.939 4.611-4.009 8.413-4.865 12.783-2.88 2.901 1.318 4.506 5.317 3.247 8.092-1.256 2.768-4.169 5.72-5.71 5.785-0.667 0.028-0.35-1.626 0.584-3.048 0.515-0.784 1.066-2.277 1.225-3.318 0.247-1.618 0.121-2.068-0.865-3.098-0.978-1.022-1.585-1.233-3.987-1.389-2.414-0.157-3.049-0.041-4.293 0.785-1.77 1.176-1.86 2.242-0.268 3.179 1.587 0.934 2.342 2.212 1.666 2.819-0.282 0.253-0.513 0.784-0.513 1.18 0 1.181-6.424 13.446-7.036 13.434-0.129-0.003-0.532-0.174-0.895-0.38zM11.799 23.869c0-2.222 10.568-6.898 10.882-4.815 0.035 0.232-1.924 1.509-4.354 2.837-4.175 2.283-6.528 2.996-6.528 1.977z"></path>
</svg>
