<!-- Generated by IcoMoon.io -->
<svg version="1.1" xmlns="http://www.w3.org/2000/svg" width="32" height="32" viewBox="0 0 32 32">
<path d="M26.977 4.747c2.181 1.426 2.088 10.467 0.307 15.736-1.153 3.41-6.010 7.377-11.267 8.169-3.004 0.452-5.579 0.422-8.314-0.9-1.353-0.654-3.855-2.881-4.468-4.081-1.775-3.48-1.853-3.305-1.451-7.577 0.056-0.592 0.325-1.719 0.723-2.499 0.812-1.591 4.364-5.446 5.019-5.446 0.679 0 0.495 1.232-0.441 2.947-0.485 0.89-0.967 2.544-1.096 3.764-0.278 2.636 0.339 4.089 2.608 6.138 3.31 2.99 6.998 3.888 10.962 2.669 2.964-0.911 4.69-1.754 5.086-2.482 0.742-1.365 1.471-5.678 1.255-7.414-0.439-3.517-2.999-7.746-5.561-9.186-1.19-0.669-3.835 0.522-4.696 0.916-0.631 0.289-1.215 0.599-0.151 1.643 0.41 0.41 1.371 0.858 2.134 0.995 1.18 0.211 1.541 0.109 2.403-0.681 0.781-0.715 1.083-0.82 1.309-0.454 1.162 1.88-2.44 5.375-5.122 4.971-1.673-0.252-4.015-1.795-4.33-2.853-0.566-1.9-0.323-2.901 1.052-4.333 0.748-0.779 1.749-2.117 2.557-2.662 4.388-2.225 11.481 2.619 11.481 2.619z"></path>
</svg>
