<!-- Generated by IcoMoon.io -->
<svg version="1.1" xmlns="http://www.w3.org/2000/svg" width="32" height="32" viewBox="0 0 32 32">
<path d="M19.688 27.953c-0.861-0.075-1.732-0.203-1.935-0.285-1.198-0.482-2.061-0.866-2.303-1.025-0.152-0.1-0.486-0.284-0.742-0.408-0.657-0.32-1.949-1.558-2.607-2.498-0.467-0.666-0.539-0.908-0.439-1.474 0.065-0.372 0.155-1.085 0.199-1.585 0.071-0.808 0.177-0.995 0.959-1.696 0.484-0.434 0.974-0.792 1.091-0.797 0.31-0.012 1.321 1.201 1.768 2.122 0.692 0.962 2.081 2.531 2.678 2.491 2.742 0.044 3.28-0.13 4.893-0.815 1.023-0.439 1.348-0.937 1.697-2.603 0.241-1.147 0.191-1.608-0.402-3.737-0.148-0.532-0.332-0.967-0.408-0.967s-0.549-0.376-1.050-0.835c-0.502-0.459-1.059-0.959-1.238-1.11-0.547-0.46-0.099-0.942 1.269-1.365 1.062-0.328 1.274-0.343 1.701-0.122 0.269 0.139 1.137 0.574 1.929 0.967 1.452 0.72 2.266 1.487 2.729 2.569 0.127 0.298 0.329 0.665 0.448 0.817 0.208 0.265 0.266 0.463 0.625 2.119 0.091 0.418 0.090 1.415-0.002 2.304-0.162 1.566-0.524 2.506-1.736 4.506-0.414 0.684-2.546 2.481-2.954 2.491-0.102 0.003-0.567 0.207-1.032 0.455-0.994 0.529-2.727 0.691-5.139 0.481zM26.302 23.538c0.576-0.538 0.738-0.94 0.378-0.94-0.303 0-1.464 0.987-1.464 1.244 0 0.392 0.487 0.255 1.086-0.304zM3.472 23.253c0-0.147 0.108-0.334 0.24-0.415s0.475-0.562 0.762-1.069c0.287-0.507 1.167-1.721 1.954-2.699s1.575-2.079 1.75-2.448c0.175-0.368 0.539-0.906 0.809-1.195s0.73-0.846 1.024-1.238c0.756-1.010 2.675-3.336 3.275-3.969 0.279-0.294 0.507-0.598 0.507-0.676 0-0.233 3.23-3.531 3.458-3.531 0.253 0 0.615 1.21 0.473 1.58-0.055 0.144-0.049 0.397 0.013 0.56 0.092 0.239 0.25 0.151 0.803-0.448 0.379-0.41 0.875-0.798 1.103-0.863 0.381-0.107 0.415-0.056 0.415 0.633 0 0.412 0.033 0.749 0.074 0.749s0.505-0.29 1.032-0.645c2.119-1.426 1.552-0.496-1.641 2.691-1.381 1.379-2.759 2.64-3.061 2.802s-1.039 0.791-1.638 1.398c-1.61 1.040-2.456 2.044-4.297 3.696-0.381 0.342-1.175 0.915-1.658 1.41-1.263 1.294-2.371 2.234-3.704 3.145-1.218 0.832-1.69 0.98-1.69 0.529zM1.767 15.12c-0.455-0.455-0.083-0.983 2.722-3.861 0.61-0.626 1.268-1.434 1.462-1.795s0.532-0.738 0.751-0.838c0.218-0.099 0.694-0.624 1.056-1.166s1.103-1.418 1.644-1.949c0.815-0.798 1.151-0.995 1.954-1.148 0.534-0.101 1.117-0.263 1.298-0.359 0.187-0.1 0.437-0.107 0.583-0.017 0.209 0.129 0.215 0.249 0.029 0.656-0.322 0.706-0.128 0.777 0.781 0.277 1.1-0.606 0.141-0.562 2.6-1.665 0.381-0.171 0.537 0.187 0.493 0.441-0.072 0.41-2.42 2.727-3.404 3.359-0.385 0.247-0.747 0.572-0.804 0.721s-0.634 0.567-1.281 0.929c-1.101 0.864-2.114 1.703-3.173 2.702-0.878 0.837-2.022 1.842-2.542 2.232-1.3 0.976-3.79 1.86-4.169 1.481z"></path>
</svg>
