<!-- Generated by IcoMoon.io -->
<svg version="1.1" xmlns="http://www.w3.org/2000/svg" width="32" height="32" viewBox="0 0 32 32">
<path d="M10.524 26.608c-1.251-0.26-1.703-0.504-3.032-1.638-1.127-0.961-1.557-2.176-1.542-4.355 0.013-1.807 0.274-2.328 2.223-4.438 1.319-1.428 1.568-1.572 2.416-1.402 1.365 0.273 1.712 0.673 1.948 2.252 0.192 1.281 0.136 1.469-0.626 2.126-0.95 0.817-0.899 1.797 0.148 2.844 1.188 1.188 4.752 0.391 6.615-1.479 1.142-1.147 1.633-1.233 1.614-0.286-0.022 1.093-0.651 2.229-2.055 3.715-2.033 2.151-5.090 3.206-7.71 2.662zM21.506 19.47c-0.794-0.194-1.311-0.609-1.91-1.532-0.452-0.697-0.821-1.454-0.821-1.682s0.51-1.026 1.134-1.772c0.831-0.994 1.356-1.357 1.965-1.357 0.812 0 1.791 0.68 1.791 1.244 0 0.156 0.206 0.284 0.458 0.284 0.66 0 0.59-1.763-0.134-3.399-1.147-2.591-3.733-4.398-6.908-4.829-1.817-0.247-2.251-0.479-1.777-0.952 0.388-0.388 3.592-0.993 4.969-0.939 1.194 0.047 3.538 0.786 4.523 1.426 2.915 1.892 4.319 6.928 2.872 10.302-0.459 1.070-0.923 1.545-2.216 2.268-2.042 1.142-2.584 1.271-3.946 0.939zM15.821 15.359c-1.039-0.202-2.296-1.531-2.185-2.309 0.053-0.373 0.539-0.955 1.078-1.294s0.987-0.711 0.993-0.826c0.016-0.282-2.494-0.646-4.572-0.663-1.836-0.015-3.229 0.554-4.737 1.933-1.348 1.232-1.986 1.385-1.986 0.474 0-1.253 3.364-3.979 6.645-5.386 2.928-1.255 6.588-0.57 7.765 1.455 0.632 1.087 0.996 3.419 0.725 4.65-0.131 0.597-0.568 1.158-1.213 1.556-1.001 0.619-1.243 0.658-2.514 0.41z"></path>
</svg>
