<!-- Generated by IcoMoon.io -->
<svg version="1.1" xmlns="http://www.w3.org/2000/svg" width="32" height="32" viewBox="0 0 32 32">
<path d="M15.955 8.389c0.703 0.010 1.27 0.582 1.27 1.288s-0.567 1.278-1.27 1.288c-0.703-0.010-1.27-0.583-1.27-1.288s0.567-1.278 1.27-1.288zM14.58 8.284c-0.77 0.77-0.77 2.017 0 2.787 0.38 0.38 0.877 0.572 1.375 0.576 0.498-0.005 0.995-0.196 1.375-0.576 0.77-0.77 0.77-2.017 0-2.787-0.114-0.114-0.282-0.282-0.463-0.481-0.020-0.010-0.039-0.021-0.059-0.030-0.010-0.028-0.024-0.053-0.038-0.079-0.057-0.065-0.114-0.132-0.171-0.201-0.031-0.022-0.064-0.043-0.1-0.059-0.029-0.060-0.058-0.122-0.088-0.183-0.22-0.299-0.4-0.616-0.455-0.903-0.055 0.286-0.235 0.603-0.455 0.903-0.029 0.061-0.058 0.122-0.088 0.183-0.036 0.017-0.070 0.037-0.1 0.059-0.057 0.069-0.114 0.136-0.171 0.201-0.014 0.026-0.028 0.051-0.038 0.079-0.020 0.009-0.040 0.020-0.059 0.030-0.181 0.198-0.349 0.367-0.463 0.481z"></path>
<path d="M22.883 9.699c-0.572 0.41-1.504 0.359-1.504 0.359s0.331-0.577 0.767-0.936c0.436-0.359 1.429-0.385 1.429-0.385s-0.12 0.552-0.692 0.962zM21.898 12.659c-0.799 0.647-2.398 0.535-2.398 0.535s0.123-0.746 1.045-1.59c0.922-0.844 2.244-0.774 2.244-0.774s-0.092 1.182-0.891 1.829zM10.011 12.659c-0.799-0.647-0.891-1.829-0.891-1.829s1.322-0.070 2.244 0.774c0.922 0.844 1.045 1.59 1.045 1.59s-1.598 0.112-2.398-0.535zM8.334 8.738c0 0 0.993 0.026 1.429 0.385s0.767 0.936 0.767 0.936-0.933 0.051-1.504-0.359c-0.572-0.41-0.692-0.962-0.692-0.962zM28.649 22.77l-0.010-0.040c-0.085-0.401-0.252-0.766-0.462-1.113-0.073-0.254-0.149-0.509-0.241-0.725-0.22-0.515-0.482-1.004-0.759-1.485-0.235-0.407-0.477-0.872-0.77-1.278 0.242-0.178 0.437-0.344 0.587-0.492 0 0 0 0 0 0 0.23-0.225 0.364-0.407 0.438-0.526 0.016-0.025 0.030-0.049 0.040-0.068-0.068-0.052-0.135-0.104-0.2-0.156-0.047-0.038-0.092-0.076-0.138-0.114-0.017-0.014-0.035-0.029-0.051-0.043-0.034-0.030-0.565-0.56-0.9-0.893-0.001-0.002-0.003-0.003-0.004-0.005-0.232-0.266-0.395-0.483-0.474-0.594-0.001-0.001-0.002-0.002-0.003-0.003-0.010-0.014-0.018-0.025-0.025-0.036-0.013-0.018-0.023-0.033-0.029-0.042-0-0-0-0.001-0-0.001s-0-0.001-0.001-0.001c-0.003-0.005-0.004-0.010-0.006-0.016-0.006-0.012-0.012-0.023-0.015-0.036-0.003-0.018-0.003-0.036 0-0.054 0-0 0-0.001 0-0.001 0.075-0.353 0.014-0.734 0.014-0.738-0.006-0.036 0.003-0.075 0.025-0.105 0.001-0.001 0.067-0.095 0.122-0.28 0.017-0.058 0.083-0.098 0.143-0.1 0.007-0 0.66-0.021 1.044-0.304 0.377-0.279 0.83-0.786 0.864-1.297 0.008-0.125 0.012-0.248 0.014-0.37 0.003-0.365-0.023-0.714-0.050-1.046-0.030-0.357-0.111-0.868-0.328-1.272-0.245-0.456-0.204-0.585 0.090-0.856 0.177-0.163 0.184-1.074 0.010-1.454-0.055-0.121-0.114-0.207-0.174-0.271-0.004-0.004-0.008-0.007-0.012-0.011-0.016-0.016-0.033-0.032-0.049-0.046-0.003-0.002-0.006-0.004-0.009-0.006-0.017-0.014-0.035-0.027-0.052-0.038-0.004-0.003-0.009-0.005-0.014-0.008-0.056-0.035-0.112-0.060-0.166-0.083l-0.096-0.041c-0.177-0.073-0.343-0.154-0.5-0.24-0.024-0.013-0.049-0.025-0.072-0.038-0.054-0.030-0.104-0.063-0.155-0.095-0.034-0.021-0.069-0.040-0.101-0.062-0.077-0.051-0.15-0.104-0.22-0.158-0.004-0.003-0.008-0.005-0.011-0.008-0.956 0.003-3.889-2.295-4.402-2.497-0.307-0.12-0.665-0.061-0.986-0.056-0.335 0.006-0.637 0.123-0.881 0.366-0.239 0.238-0.232 0.568-0.135 0.87 0.094 0.295 0.37 0.442 0.67 0.487 0.264 0.040 0.782-0.028 0.976-0.232 0.007-0.007 0.159-0.176 0.138-0.195-0.041-0.036-0.319 0.043-0.381 0.048-0.537 0.048-0.532-0.789 0-0.837 0.521-0.046 0.959-0.034 1.144 0.564 0.168 0.544-0.183 1.002-0.638 1.255-0.913 0.508-2.39 0.239-2.712-0.849-0.145-0.49-0.155-1.034 0.145-1.468 0.295-0.426 0.863-0.781 1.379-0.84 0.592-0.068 1.222-0.055 1.763 0.198 0.244 0.115 0.491 0.217 0.718 0.366 0.185 0.121 1.292 0.996 2.286 1.738-0.038-0.061-0.075-0.122-0.11-0.18-0.383-0.632-0.636-1.050-1.514-1.666-1.008-0.705-2.096-1.011-3.299-1.269-0.93 0.009-1.737 0.401-2.315 1.018-0.004 0.005-0.006 0.012-0.011 0.017-0.015 0.014-0.028 0.029-0.043 0.043-0.067 0.076-0.132 0.154-0.193 0.235-0.014 0.008-0.026 0.016-0.040 0.023-0.232 0.288-0.406 0.605-0.517 0.947-0.050 0.156-0.084 0.309-0.106 0.458 0.002 0.050 0.003 0.1 0.006 0.15-0.019 0.124-0.032 0.25-0.039 0.377 0.014 0.538 0.162 0.967 0.234 1.175 0.086 0.247 0.183 0.449 0.286 0.622 0.115 0.169 0.245 0.329 0.389 0.476 0.029 0.047 0.057 0.094 0.087 0.141 0.001 0.001 0.002 0.003 0.003 0.004 0.036 0.038 0.071 0.076 0.107 0.114 0.324 0.343 0.629 0.666 0.732 1.307 0.104 0.647-0.044 1.326-0.44 2.018-0.126 0.22-0.269 0.412-0.421 0.58-0.138 0.218-0.311 0.408-0.576 0.545-0.217 0.112-0.372 0.24-0.573 0.344-0.103 0.053-0.216 0.083-0.333 0.1-0.161 0.060-0.293 0.097-0.377 0.118l-0.014 0.002-0.014-0.002c-0.084-0.020-0.216-0.058-0.377-0.118-0.116-0.017-0.23-0.047-0.332-0.1-0.2-0.104-0.356-0.232-0.573-0.344-0.265-0.137-0.438-0.327-0.576-0.545-0.152-0.169-0.295-0.36-0.421-0.58-0.395-0.692-0.543-1.371-0.44-2.018 0.102-0.64 0.408-0.964 0.732-1.307 0.036-0.038 0.071-0.076 0.107-0.114 0.001-0.002 0.002-0.003 0.003-0.004 0.030-0.046 0.058-0.094 0.087-0.141 0.144-0.147 0.274-0.306 0.389-0.476 0.103-0.173 0.2-0.375 0.286-0.622 0.072-0.208 0.22-0.636 0.234-1.175-0.007-0.127-0.020-0.253-0.039-0.377 0.004-0.050 0.004-0.1 0.006-0.15-0.022-0.149-0.056-0.301-0.106-0.458-0.111-0.342-0.284-0.659-0.516-0.947-0.013-0.008-0.026-0.016-0.040-0.023-0.061-0.081-0.126-0.159-0.193-0.235-0.014-0.014-0.028-0.029-0.042-0.043-0.005-0.005-0.007-0.011-0.011-0.017-0.578-0.617-1.385-1.010-2.315-1.018-1.202 0.258-2.291 0.564-3.298 1.269-0.879 0.615-1.132 1.033-1.514 1.666-0.035 0.058-0.072 0.119-0.11 0.18 0.994-0.742 2.101-1.617 2.286-1.738 0.227-0.149 0.474-0.251 0.718-0.366 0.541-0.253 1.17-0.265 1.762-0.198 0.516 0.059 1.084 0.413 1.379 0.84 0.3 0.434 0.29 0.979 0.145 1.468-0.322 1.088-1.799 1.357-2.712 0.849-0.454-0.253-0.806-0.711-0.638-1.255 0.185-0.597 0.623-0.61 1.144-0.564 0.532 0.048 0.537 0.885 0 0.837-0.062-0.006-0.339-0.084-0.381-0.048-0.022 0.019 0.13 0.188 0.138 0.195 0.194 0.204 0.713 0.271 0.976 0.232 0.3-0.046 0.576-0.192 0.67-0.487 0.097-0.303 0.104-0.632-0.135-0.87-0.244-0.243-0.546-0.36-0.881-0.366-0.321-0.006-0.679-0.065-0.986 0.056-0.514 0.202-3.447 2.5-4.402 2.497-0.004 0.003-0.008 0.005-0.011 0.008-0.071 0.054-0.144 0.107-0.221 0.158-0.032 0.021-0.068 0.041-0.101 0.062-0.051 0.032-0.101 0.064-0.155 0.095-0.023 0.013-0.048 0.025-0.072 0.038-0.157 0.086-0.322 0.166-0.5 0.24l-0.096 0.041c-0.054 0.023-0.109 0.048-0.166 0.083-0.005 0.003-0.009 0.005-0.014 0.008-0.018 0.011-0.035 0.024-0.052 0.038-0.003 0.002-0.006 0.004-0.009 0.006-0.016 0.014-0.033 0.030-0.049 0.046-0.004 0.004-0.008 0.007-0.012 0.011-0.060 0.064-0.119 0.15-0.174 0.271-0.173 0.38-0.166 1.291 0.011 1.454 0.294 0.271 0.335 0.4 0.090 0.856-0.217 0.404-0.298 0.914-0.328 1.272-0.028 0.332-0.053 0.681-0.050 1.046 0.001 0.122 0.005 0.245 0.014 0.37 0.034 0.511 0.487 1.018 0.864 1.297 0.384 0.284 1.038 0.304 1.044 0.304 0.060 0.002 0.126 0.042 0.143 0.1 0.055 0.185 0.122 0.279 0.123 0.28 0.022 0.030 0.031 0.068 0.025 0.105-0.001 0.004-0.062 0.384 0.014 0.738 0 0-0 0.001 0 0.001 0.004 0.018 0.004 0.036 0 0.054-0.002 0.013-0.009 0.024-0.014 0.036-0.003 0.005-0.003 0.011-0.006 0.016 0 0-0 0.001-0.001 0.001s0 0.001-0 0.001c-0.006 0.009-0.016 0.024-0.029 0.042-0.007 0.010-0.016 0.022-0.025 0.036-0.001 0.001-0.002 0.002-0.002 0.003-0.079 0.111-0.242 0.328-0.474 0.594-0.001 0.002-0.003 0.003-0.004 0.005-0.334 0.333-0.865 0.863-0.9 0.893-0.017 0.014-0.034 0.028-0.052 0.043-0.045 0.038-0.090 0.076-0.137 0.114-0.065 0.052-0.132 0.105-0.2 0.156 0.011 0.019 0.025 0.043 0.040 0.068 0.074 0.119 0.208 0.301 0.438 0.526v0c0.1 0.098 0.22 0.204 0.359 0.316-0.565 0.586-1.048 1.247-1.372 1.977-0.485 1.095-1.080 2.312-0.99 3.505-0.002 0.117 0.001 0.235 0.013 0.356 0.008 0.152 0.031 0.299 0.064 0.44 0.033 0.058 0.063 0.116 0.071 0.133 0.135 0.066 0.264 0.173 0.394 0.25 0.788 0.466 0.938 0.435 1.779 0.79 0.047 0.020 0.094 0.042 0.141 0.063 1.109 0.295 2.029 1.016 2.427 2.245 0.218 0.672 0.199 1.327 0.010 1.924 0.099-0.021 0.188-0.057 0.266-0.107 0.121-0.032 0.246-0.057 0.361-0.109 0.161-0.073 0.303-0.172 0.438-0.284 0.268-0.221 0.461-0.495 0.647-0.779 0.11-0.167 0.258-0.285 0.326-0.485 0.068-0.203 0.046-0.428 0.037-0.638-0.015-0.38-0.094-0.803-0.254-1.15-0.075-0.163-0.154-0.339-0.245-0.494-0.090-0.153-0.224-0.264-0.345-0.39-0.237-0.246-0.518-0.417-0.794-0.613-0.327-0.232-0.642-0.44-0.994-0.635-0.278-0.154-0.525-0.444-0.74-0.692-0.076-0.168-0.171-0.323-0.247-0.494 0.002-0.042 0.001-0.083 0.004-0.124 0.040-0.538 0.159-1.083 0.365-1.587 0.17-0.518 0.478-0.98 0.877-1.343 0.098-0.090 0.202-0.174 0.31-0.251 0.065-0.046 0.131-0.091 0.199-0.132 0.095-0.060 0.192-0.118 0.295-0.169 0.448-0.222 0.908-0.345 1.361-0.375 0.591-0.039 1.167 0.082 1.68 0.363 0.295 0.161 0.568 0.374 0.812 0.639 0.016 0.004 0.030 0.012 0.046 0.017 0.196 0.382 0.355 0.789 0.442 1.268 0.107 0.59 0.029 1.204 0.133 1.77-0.019 0.052-0.040 0.105-0.063 0.158 0.057 1.865 1.299 4.182 2.927 4.911 1.099 0.436 2.506 0.648 3.635 0.391 0.604-0.167 1.147-0.515 1.624-0.922 0.544-0.469 1.534-1.649 0.996-2.012-0.039-0.014-0.080-0.022-0.122-0.028-0.348 0.152-0.751 0.239-1.21 0.239-0.161 0-0.312-0.014-0.459-0.034-0.058-0.004-0.117-0.009-0.176-0.019-0.171-0.024-0.339-0.071-0.498-0.137-0.098-0.044-0.192-0.094-0.282-0.151-1.239-0.674-1.674-2.229-1.307-3.526 0.054-0.303 0.144-0.592 0.275-0.85 0.181-0.307 0.417-0.504 0.683-0.618 0.443-0.346 1.022-0.562 1.736-0.568 0.010 0 0.019-0.001 0.029-0.001 0.169 0 0.328 0.014 0.482 0.036 0.101-0.016 0.206-0.027 0.318-0.027 0.26 0 0.488 0.048 0.687 0.13 0.165 0.068 0.311 0.16 0.435 0.271 0.407 0.206 0.781 0.46 1.097 0.816 0.39 0.44 0.664 0.931 0.936 1.446 0.162 0.307 0.232 0.629 0.22 0.942 0.008 0.024 0.018 0.046 0.025 0.070 0.403 1.195-0.204 2.728-0.737 3.818-0.208 0.452-0.291 0.696-0.090 0.695 0.59-0.109 1.394-0.592 1.998-0.896 1.776-0.925 3.189-2.166 2.699-4.206z"></path>
</svg>
