<!-- Generated by IcoMoon.io -->
<svg version="1.1" xmlns="http://www.w3.org/2000/svg" width="32" height="32" viewBox="0 0 32 32">
<path d="M30.508 23.844c-0.232 0.456-0.611 0.787-1.077 0.965-0.082 0.031-0.165 0.061-0.247 0.090-0.027 0.009-0.055 0.018-0.082 0.027-0.055 0.019-0.111 0.038-0.167 0.056-0.033 0.011-0.067 0.020-0.099 0.030-0.050 0.015-0.1 0.030-0.15 0.045-0.001 0.001-0.004 0.001-0.005 0.001-0.034 0.009-0.068 0.018-0.102 0.028-0.048 0.013-0.096 0.026-0.144 0.039-0.037 0.010-0.074 0.018-0.112 0.028-0.047 0.012-0.093 0.024-0.14 0.035-0.038 0.009-0.077 0.018-0.116 0.026-0.046 0.010-0.091 0.021-0.138 0.030-0.040 0.009-0.079 0.016-0.119 0.024-0.045 0.009-0.090 0.018-0.135 0.026-0.040 0.008-0.080 0.015-0.12 0.022-0.045 0.008-0.091 0.016-0.135 0.024-0.040 0.006-0.081 0.013-0.121 0.019-0.045 0.007-0.090 0.014-0.135 0.021-0.006 0.001-0.011 0.002-0.016 0.003-0.035 0.005-0.071 0.010-0.106 0.015-0.045 0.006-0.090 0.013-0.135 0.018-0.041 0.006-0.082 0.010-0.123 0.015-0.038 0.005-0.075 0.009-0.113 0.013-0.007 0.001-0.014 0.002-0.022 0.003-0.042 0.005-0.084 0.009-0.126 0.013-0.040 0.004-0.079 0.009-0.118 0.013-0.005 0-0.010 0.001-0.015 0.001-0.008 0.001-0.016 0.001-0.023 0.002-0.013 0.001-0.026 0.002-0.038 0.004-0.021 0.002-0.043 0.004-0.065 0.006-0.044 0.004-0.089 0.009-0.133 0.012-0.023 0.002-0.045 0.004-0.068 0.006-0.019 0.001-0.038 0.003-0.058 0.005-0.045 0.004-0.089 0.007-0.134 0.011-0.043 0.003-0.085 0.006-0.127 0.009-0.045 0.003-0.089 0.006-0.133 0.009-0.043 0.002-0.086 0.005-0.129 0.007-0.033 0.002-0.067 0.004-0.1 0.006-0.004 0.001-0.007 0.001-0.011 0.001-0.075 0.003-0.189-0.001-0.26-0.011-1.039-0.133-2.077-0.268-3.116-0.398-0.091-0.011-0.187 0.002-0.279 0.017-0.506 0.085-1.013 0.173-1.518 0.263-0.208 0.037-0.406 0.093-0.595 0.166-0.076 0.030-0.15 0.062-0.223 0.096s-0.144 0.072-0.214 0.113c-0.035 0.020-0.070 0.040-0.104 0.062-0.068 0.043-0.135 0.088-0.201 0.136-0.132 0.095-0.258 0.201-0.379 0.315-0.332 0.313-0.664 0.628-0.979 0.958-0.105 0.11-0.208 0.221-0.308 0.335-0.121 0.137-0.211 0.303-0.291 0.475-0.032 0.069-0.062 0.139-0.092 0.209-0.015 0.034-0.030 0.069-0.045 0.103-0.016 0.038-0.030 0.075-0.043 0.113-0.025 0.074-0.043 0.149-0.054 0.223-0.004 0.023-0.006 0.046-0.009 0.070l-0.014 0.017c-0.016 0.064-0.040 0.128-0.079 0.194-0.521 0.876-0.611 2.103-1.857 2.244-0.928 0.106-1.513-0.51-1.767-1.282 0.008-0.017 0.013-0.035 0.011-0.055-0.015-0.238-0.123-0.44-0.219-0.652-0.045-0.181-0.074-0.365-0.077-0.549 0.011-0.102 0.030-0.204 0.038-0.306 0.108-0.265 0.234-0.524 0.367-0.774 0.145-0.275 0.322-0.525 0.519-0.757 0.079-0.093 0.162-0.183 0.247-0.27 0.043-0.045 0.086-0.088 0.129-0.131 0.088-0.086 0.177-0.169 0.269-0.252s0.185-0.162 0.279-0.243c0.094-0.079 0.189-0.158 0.285-0.237s0.191-0.155 0.286-0.233c0.089-0.072 0.199-0.16 0.303-0.164 0.434-0.017 0.731-0.263 1.038-0.528 0.105-0.091 0.223-0.166 0.345-0.238 0.060-0.036 0.121-0.072 0.182-0.108s0.119-0.074 0.177-0.116c0.143-0.101 0.294-0.125 0.449-0.125 0.066 0 0.133 0.004 0.2 0.008 0.133 0.009 0.267 0.016 0.397-0.013 0.075-0.016 0.148 0.104 0.228 0.167 0.027 0.022 0.055 0.037 0.084 0.039 0.010 0.001 0.019 0 0.029-0.002 0.030-0.008 0.062-0.030 0.094-0.076 0.052-0.072 0.098-0.099 0.14-0.103 0.011-0.001 0.021 0 0.032 0.001 0.021 0.004 0.041 0.012 0.062 0.023 0.061 0.033 0.12 0.087 0.188 0.099 0.011 0.002 0.023 0.003 0.035 0.002 0.024-0.001 0.048-0.008 0.074-0.023 0.074-0.043 0.148-0.084 0.225-0.121 0.050-0.025 0.102-0.048 0.155-0.070s0.106-0.041 0.159-0.060c0.027-0.009 0.054-0.018 0.082-0.026 0.054-0.016 0.109-0.030 0.165-0.042 0.111-0.024 0.226-0.039 0.343-0.043 0.058-0.002 0.118-0.001 0.177 0.002 0.045 0.003 0.093-0.138 0.148-0.204 0.037-0.044 0.089-0.074 0.157-0.129 0.029 0.038 0.057 0.074 0.084 0.109 0.082 0.107 0.159 0.208 0.245 0.32 0.087-0.058 0.164-0.108 0.237-0.157s0.144-0.094 0.218-0.144c0.065 0.040 0.13 0.078 0.195 0.11s0.131 0.059 0.197 0.077c0.022 0.006 0.044 0.011 0.065 0.015 0.044 0.008 0.088 0.011 0.132 0.009 0.022-0.001 0.044-0.003 0.065-0.006s0.044-0.009 0.066-0.015c0.043-0.013 0.087-0.032 0.13-0.059 0.065-0.039 0.129-0.094 0.192-0.168 0.018 0.006 0.035 0.010 0.054 0.012 0.027 0.004 0.055 0.003 0.082 0 0.019-0.002 0.038-0.006 0.056-0.009 0.028-0.006 0.057-0.015 0.085-0.023 0.019-0.006 0.038-0.012 0.057-0.018 0.028-0.010 0.057-0.019 0.087-0.028 0.019-0.005 0.038-0.011 0.057-0.015 0.048-0.011 0.096-0.017 0.143-0.013 0.019 0.001 0.038 0.005 0.057 0.010 0.076 0.021 0.15 0.074 0.221 0.179 0.006 0.010 0.018 0.018 0.033 0.024s0.035 0.011 0.058 0.013c0.011 0.001 0.023 0.003 0.035 0.004s0.026 0.001 0.039 0.001c0.013-0.001 0.028-0.001 0.042-0.002 0.028-0.002 0.058-0.005 0.088-0.010s0.060-0.011 0.089-0.018c0.036-0.009 0.071-0.020 0.102-0.033s0.058-0.028 0.080-0.044c0.054-0.040 0.107-0.072 0.161-0.098 0.107-0.050 0.215-0.072 0.323-0.074 0.035 0 0.072 0.001 0.107 0.005 0.090 0.009 0.18 0.030 0.27 0.058 0.394 0.124 0.779 0.277 1.166 0.423 0.070 0.026 0.14 0.052 0.211 0.078 0.010 0.004 0.020 0.005 0.031 0.005 0.007 0 0.016-0.001 0.023-0.002 0.012-0.001 0.025-0.004 0.038-0.006 0.012-0.003 0.025-0.004 0.038-0.006 0.009-0.001 0.018-0.003 0.028-0.004 0.023-0.026 0.047-0.054 0.072-0.082 0.052-0.060 0.108-0.125 0.167-0.192 0.023-0.028 0.048-0.055 0.072-0.084 0.438 0.276 0.882 0.072 1.323 0.074 0.141 0.001 0.28-0.004 0.416-0.013s0.27-0.026 0.401-0.048c0.197-0.033 0.389-0.081 0.574-0.143 0.557-0.189 1.064-0.517 1.522-1.026-0.033 0.491-0.287 0.834-0.471 1.197zM11.837 28.122c-0.051 0.017-0.103 0.030-0.155 0.040-0.087 0.009-0.174 0.012-0.261 0.011l0.005-0.019c-0.137 0.013-0.274-0.014-0.389-0.096-0.703-0.503-1.947-1.477-1.887-2.494 0-0.001 0-0.001-0.001-0.002-0.011-0.061-0.019-0.122-0.023-0.183-0.006-0.101-0.004-0.2 0.005-0.299 0.003-0.034 0.006-0.068 0.011-0.102 0.008-0.068 0.018-0.136 0.030-0.204 0.040-0.238 0.092-0.474 0.109-0.713 0.007-0.092 0.014-0.189-0.006-0.277-0.31-1.305-0.672-2.559-1.828-3.442-0.212-0.162-0.424-0.319-0.64-0.467-0.378-0.258-0.767-0.487-1.184-0.663-0.299-0.126-0.611-0.224-0.945-0.288-0.41-0.077-0.781-0.052-1.162 0.11-0.626 0.266-0.989 0.77-1.24 1.361-0.070 0.164-0.127 0.328-0.172 0.494-0.030 0.11-0.055 0.22-0.074 0.33 0 0.001-0.001 0.001-0.001 0.001-0.020 0.111-0.034 0.221-0.043 0.332-0.001 0.017-0.002 0.034-0.003 0.050v0.001c-0.001 0.016-0.002 0.033-0.003 0.050-0.001 0.023-0.004 0.045-0.004 0.068-0.004 0.101-0.003 0.204 0.002 0.306 0.004 0.066 0.007 0.132 0.014 0.198 0.006 0.057 0.012 0.112 0.021 0.169 0.016 0.113 0.037 0.226 0.064 0.338 0.026 0.113 0.057 0.226 0.093 0.339 0.038 0.121 0.055 0.247 0.106 0.474-0.206-0.142-0.348-0.198-0.426-0.301-0.089-0.118-0.184-0.234-0.276-0.352-0.062-0.079-0.121-0.159-0.177-0.24-0.083-0.122-0.157-0.248-0.211-0.382-0.030-0.074-0.058-0.148-0.083-0.221-0.065-0.186-0.113-0.371-0.148-0.555s-0.054-0.367-0.060-0.55c-0.002-0.070-0.002-0.138 0-0.208 0.001-0.053 0.006-0.106 0.010-0.159 0.001-0.017 0.001-0.033 0.003-0.050s0.004-0.033 0.006-0.048c0.011-0.109 0.028-0.218 0.050-0.327 0.004-0.019 0.006-0.039 0.011-0.059 0.031-0.142 0.071-0.283 0.119-0.423 0.096-0.28 0.226-0.558 0.389-0.832 0.029-0.048 0.062-0.106 0.1-0.155 0.018-0.024 0.038-0.046 0.059-0.064s0.043-0.030 0.065-0.037c0.035-0.009 0.071-0.020 0.106-0.030 0.070-0.021 0.139-0.045 0.208-0.070 0.034-0.013 0.069-0.026 0.103-0.038 0.068-0.026 0.137-0.052 0.206-0.078 0.137-0.052 0.275-0.101 0.418-0.138s0.291-0.064 0.447-0.069c0.078-0.003 0.159-0.001 0.242 0.009 0.351 0.038 0.748 0.055 1.116-0.121 0.123-0.059 0.242-0.139 0.355-0.248 0.13-0.125 0.259-0.196 0.384-0.221 0.1-0.020 0.199-0.010 0.294 0.027 0.048 0.018 0.094 0.044 0.14 0.075 0.115 0.078 0.223 0.195 0.325 0.344 0.028 0.040 0.059 0.079 0.093 0.116 0.051 0.056 0.109 0.107 0.17 0.155s0.126 0.089 0.19 0.126c0.199 0.115 0.431 0.174 0.648 0.257 0.038 0.015 0.075 0.030 0.113 0.045 0.074 0.030 0.148 0.059 0.221 0.077 0.036 0.009 0.072 0.015 0.108 0.017 0.018 0.001 0.036 0.001 0.054 0.001 0.036-0.002 0.072-0.009 0.106-0.021 0.089-0.030 0.175-0.096 0.26-0.218 0.020-0.028 0.051-0.048 0.089-0.064 0.076-0.030 0.179-0.041 0.274-0.054 0.048-0.006 0.094-0.013 0.135-0.023 0.077 0.097 0.124 0.21 0.162 0.327 0.009 0.030 0.018 0.060 0.026 0.089 0.004 0.014 0.008 0.029 0.012 0.044 0.008 0.030 0.016 0.060 0.024 0.089 0.013 0.044 0.025 0.088 0.039 0.131 0.009 0.028 0.018 0.057 0.030 0.084 0.016 0.042 0.033 0.082 0.055 0.119 0.035 0.063 0.079 0.121 0.135 0.169 0.068 0.059 0.155 0.106 0.268 0.135 0.015 0.004 0.030 0.038 0.030 0.058 0.016 0.53 0.499 0.633 0.827 0.824 0.169 0.099 0.309 0.202 0.411 0.33 0.038 0.047 0.070 0.098 0.097 0.153 0.044 0.091 0.072 0.194 0.079 0.313 0.006 0.101 0.028 0.182 0.066 0.243 0.026 0.041 0.057 0.073 0.097 0.096 0.060 0.035 0.135 0.050 0.228 0.046 0.091-0.004 0.169 0.004 0.24 0.022 0.035 0.009 0.068 0.021 0.099 0.035 0.047 0.021 0.089 0.047 0.127 0.076 0.026 0.020 0.050 0.041 0.074 0.065 0.011 0.011 0.023 0.023 0.033 0.035 0.022 0.024 0.043 0.050 0.062 0.076s0.039 0.054 0.057 0.082c0.018 0.028 0.036 0.057 0.054 0.085 0.124 0.202 0.234 0.42 0.424 0.545 0.021 0.014 0.045 0.030 0.066 0.048 0.036 0.030 0.067 0.065 0.072 0.1 0.013 0.087-0.033 0.181-0.032 0.271 0.001 0.104-0.006 0.232 0.048 0.308 0.055 0.077 0.109 0.16 0.167 0.24 0.096 0.133 0.201 0.257 0.331 0.331 0.242 0.139 0.299 0.321 0.358 0.554 0.21 0.819 0.116 1.571-0.44 2.236-0.317 0.379-0.549 0.79-0.713 1.228-0.074-0.001-0.148 0.013-0.211 0.054-0.025 0.016-0.050 0.028-0.076 0.040zM4.607 13.578c-0.465-0.825-0.806-1.741-0.86-2.72-0.039-0.699-0.087-1.389 0.15-2.084 0.155-0.455 0.071-0.989 0.223-1.445 0.245-0.734 0.423-1.504 0.842-2.167 0.057-0.091 0.12-0.179 0.187-0.266 0.010-0.013 0.020-0.026 0.030-0.038s0.021-0.025 0.032-0.038c0.023-0.028 0.047-0.057 0.072-0.085 0.052-0.058 0.101-0.119 0.15-0.182 0.181-0.232 0.339-0.485 0.504-0.731 0.223-0.333 0.343-0.732 0.81-0.875 0.182-0.056 0.311-0.339 0.431-0.538 0.348-0.582 0.968-0.739 1.533-0.908 0.313-0.094 0.706 0.108 1.066 0.136 0.333 0.026 0.699 0.127 0.965-0.216 0.176 0.203 0.35 0.404 0.523 0.604 0.058 0.067 0.117 0.135 0.175 0.201 0.006 0.007 0.011 0.013 0.017 0.020 0.006 0 0.011 0 0.017-0.001 0.018 0 0.037 0 0.055-0.001 0.13-0.006 0.267-0.027 0.392-0.014 0.045 0.004 0.089 0.013 0.131 0.029 0.276 0.108 0.509 0.395 0.782 0.427 0.323 0.038 0.53 0.159 0.733 0.381 0.16 0.176 0.565 0.112 0.504 0.512 0.219-0.062 0.285 0.34 0.539 0.177 0.039-0.025 0.085-0.037 0.128-0.055 0.081 0.421 0.562 0.477 0.738 0.808 0.277 0.52 0.862 2.394 0.891 2.902 0.011 0.206-0.045 0.415-0.065 0.565 0.174 0.176 0.433 0.32 0.429 0.458-0.009 0.345 0.318 0.679-0.013 1.050-0.23 0.258-0.379 0.577-0.717 0.74-0.187 0.090-0.343 0.243-0.512 0.368-0.246 0.183-0.494 0.334-0.825 0.344-0.191 0.006-0.378 0.126-0.591 0.204 0.010-0.059 0.001-0.134 0.033-0.176 0.459-0.59 0.629-1.308 0.755-2.004 0.113-0.626-0.040-1.274-0.44-1.819-0.067-0.092-0.214-0.149-0.242-0.245-0.287-0.985-1.206-0.897-1.9-1.002-0.559-0.084-1.113 0.36-1.522 0.77-0.367 0.369-0.726 0.779-0.772 1.379-0.035 0.464-0.093 0.46-0.826 0.549-0.013 0.222-0.006 0.426-0.040 0.623-0.045 0.259-0.058 0.558-0.2 0.759-0.311 0.439-0.252 0.929-0.302 1.406-0.006 0.062 0.020 0.158 0.065 0.192 0.316 0.235 0.095 0.431-0.074 0.638 0.244 0.118 0.462 0.223 0.682 0.328-0.35 0.745-0.165 1.128 0.567 1.336 0.189 0.055 0.377 0.177 0.523 0.313 0.376 0.348 0.696 0.767 1.106 1.063 0.187 0.135 0.364 0.224 0.427 0.51 0.506-0.316 0.882-0.075 1.25 0.245 0.154 0.133 0.35 0.217 0.525 0.327 0.256 0.161 0.518 0.313 0.763 0.491 0.212 0.155 0.379 0.327 0.228 0.645-0.053 0.113 0.050 0.299 0.087 0.475 0.162-0.065 0.283-0.114 0.42-0.169 0.273 0.318 0.43 0.692 0.45 1.086 0.018 0.367 0.15 0.557 0.549 0.545-0.859 1.046-1.565 2.106-2.021 3.5-0.248-0.65-0.433-1.135-0.617-1.621-0.041-0.109-0.080-0.22-0.116-0.331-0.159-0.482-0.318-0.963-0.773-1.267-0.056-0.038-0.115-0.096-0.138-0.157-0.328-0.892-1.118-1.315-1.805-1.869-0.86-0.694-1.899-0.829-2.889-1.135-0.089-0.028-0.193-0.026-0.267-0.074-1.172-0.765-2.261-1.648-2.952-2.874zM17.2 19.483c0.562-0.613 1.278-1.091 1.95-1.596 0.39-0.294 0.819-0.539 1.25-0.772 0.304-0.165 0.635-0.28 0.961-0.402 0.4-0.15 0.791-0.321 1.046-0.675 0.421-0.588 0.831-1.187 0.874-1.95 0.010-0.184 0.079-0.365 0.107-0.55 0.093-0.613-0.104-0.986-0.678-1.227-0.31-0.13-0.64-0.215-0.96-0.32-0.218 0.396-0.525 0.111-0.751 0.092-0.113 0.138-0.184 0.274-0.296 0.349-0.212 0.143-0.457 0.235-0.671 0.377-0.485 0.321-0.562 0.417-0.867 0.952-0.031-0.277-0.068-0.557-0.091-0.84-0.009-0.114-0.025-0.25 0.026-0.342 0.217-0.393-0.008-0.917 0.412-1.257 0.174-0.14 0.318-0.362 0.389-0.577 0.15-0.456 0.487-0.532 0.883-0.506 0.392 0.025 0.782 0.082 1.173 0.122 0.137 0.013 0.3 0.068 0.409 0.016 0.245-0.117 0.426 0.039 0.636 0.069 0.206 0.030 0.379 0.239 0.644 0.045 0.169-0.123 1.633 0.591 1.735 0.794 0.082 0.163 0.113 0.354 0.204 0.511 0.201 0.348 0.39 0.709 0.578 1.055 0.23 0.426 0.228 0.982 0.31 1.484 0.030 0.182-0.009 0.36 0.238 0.444 0.082 0.028 0.155 0.235 0.146 0.352-0.050 0.627-0.050 1.272-0.558 1.843 0.17 0.095 0.269 0.15 0.421 0.235-0.265 0.042-0.404 0.453-0.73 0.084-0.192 0.196-0.443 0.345-0.315 0.689-0.353 0.512-0.304 1.242-0.89 1.633-0.331 0.22-0.639 0.473-0.968 0.697-0.614 0.419-1.254 0.804-1.847 1.251-0.233 0.175-0.448 0.223-0.709 0.206-1.395-0.090-2.596 0.452-3.722 1.187-0.975 0.635-1.921 1.317-2.94 2.020-0.017-0.835 0.091-1.56 0.351-2.329 0.442-1.309 1.376-2.214 2.25-3.167zM31.334 22.181c-0.134-0.099-0.29-0.167-0.445-0.239-0.052-0.024-0.104-0.048-0.155-0.074-0.037 0.045-0.071 0.087-0.104 0.126-0.048 0.058-0.091 0.111-0.133 0.16-0.027 0.033-0.053 0.066-0.079 0.098-0.013 0.016-0.026 0.032-0.038 0.048-0.488 0.625-1.421 0.998-2.228 0.903-0.358-0.043-0.71-0.106-1.058-0.185-0.142-0.033-0.283-0.068-0.424-0.106-0.006-0.002-0.011-0.004-0.017-0.005-0.083-0.022-0.166-0.044-0.249-0.068-0.013-0.004-0.026-0.008-0.038-0.011s-0.026-0.008-0.038-0.011c-0.089-0.026-0.177-0.052-0.266-0.079-0.087-0.027-0.173-0.055-0.259-0.084-0.067-0.021-0.133-0.043-0.199-0.065-0.074-0.026-0.149-0.050-0.224-0.077-0.132-0.046-0.267-0.085-0.402-0.121-0.065-0.017-0.129-0.035-0.194-0.050-0.071-0.017-0.142-0.033-0.213-0.050-0.463-0.108-0.932-0.214-1.441-0.331-0.106-0.024-0.215-0.049-0.325-0.074 0.217-0.169 0.405-0.335 0.588-0.485s0.358-0.284 0.55-0.388c0.132-0.072 0.26-0.148 0.384-0.229 0.062-0.040 0.123-0.082 0.184-0.123 0.12-0.085 0.237-0.173 0.351-0.265 0.626-0.504 1.156-1.11 1.659-1.73 0.059-0.072 0.116-0.145 0.171-0.219 0.018-0.025 0.036-0.050 0.055-0.075 0.036-0.050 0.072-0.099 0.107-0.149 0.021-0.030 0.040-0.061 0.061-0.091 0.030-0.045 0.062-0.091 0.091-0.137 0.022-0.033 0.042-0.067 0.062-0.101 0.027-0.044 0.055-0.087 0.082-0.132 0.021-0.035 0.040-0.070 0.060-0.106 0.025-0.044 0.050-0.088 0.074-0.132 0.020-0.036 0.038-0.073 0.057-0.109 0.023-0.044 0.047-0.089 0.069-0.133 0.018-0.037 0.035-0.074 0.053-0.112 0.021-0.045 0.043-0.089 0.064-0.134 0.017-0.038 0.033-0.077 0.050-0.116 0.020-0.045 0.040-0.089 0.058-0.134 0.016-0.040 0.031-0.079 0.047-0.119 0.018-0.045 0.036-0.089 0.053-0.135 0.015-0.040 0.028-0.080 0.043-0.121 0.016-0.045 0.033-0.091 0.048-0.137 0.014-0.041 0.027-0.082 0.040-0.123 0.015-0.046 0.030-0.091 0.044-0.138 0.013-0.042 0.024-0.084 0.036-0.126 0.013-0.046 0.026-0.091 0.039-0.138 0.011-0.043 0.021-0.086 0.032-0.128 0.012-0.047 0.024-0.093 0.035-0.14 0.010-0.043 0.019-0.087 0.029-0.13 0.010-0.047 0.021-0.094 0.030-0.14 0.009-0.044 0.016-0.088 0.025-0.132 0.009-0.048 0.018-0.094 0.026-0.142 0.008-0.045 0.015-0.089 0.022-0.134 0.006-0.039 0.013-0.077 0.018-0.116 0.001-0.007 0.002-0.015 0.004-0.023 0.016-0.122 0.025-0.301 0.021-0.423-0.001-0.006-0.001-0.011-0.001-0.016-0.001-0.033-0.004-0.066-0.006-0.099-0.002-0.038-0.004-0.077-0.007-0.115-0.003-0.040-0.006-0.080-0.009-0.121-0.004-0.038-0.006-0.076-0.010-0.113-0.004-0.040-0.008-0.080-0.012-0.12-0.004-0.038-0.008-0.075-0.012-0.113-0.005-0.040-0.011-0.080-0.016-0.12-0.005-0.038-0.010-0.074-0.015-0.112-0.006-0.040-0.013-0.079-0.019-0.119-0.001-0.010-0.003-0.019-0.004-0.028-0.005-0.028-0.009-0.055-0.013-0.082-0.006-0.040-0.014-0.079-0.022-0.119-0.003-0.013-0.005-0.027-0.008-0.040-0.004-0.023-0.008-0.046-0.013-0.069-0.008-0.040-0.017-0.080-0.026-0.12-0.002-0.011-0.005-0.024-0.008-0.035-0.005-0.023-0.010-0.046-0.015-0.069 0-0.001 0-0.002-0.001-0.003-0.005-0.023-0.011-0.045-0.016-0.068-0.004-0.017-0.009-0.034-0.013-0.051-0.009-0.035-0.017-0.070-0.026-0.106-0.010-0.040-0.021-0.079-0.033-0.118-0.010-0.035-0.019-0.069-0.029-0.104-0.012-0.040-0.025-0.079-0.037-0.119-0.002-0.008-0.004-0.015-0.007-0.023-0.009-0.026-0.016-0.052-0.025-0.079-0.013-0.040-0.027-0.080-0.041-0.12-0.011-0.033-0.023-0.066-0.034-0.099-0.010-0.027-0.021-0.054-0.030-0.080-0.005-0.013-0.011-0.027-0.016-0.040-0.013-0.032-0.024-0.064-0.037-0.096-0.016-0.041-0.034-0.082-0.052-0.123-0.013-0.030-0.025-0.061-0.038-0.091-0.019-0.043-0.039-0.084-0.058-0.127-0.013-0.028-0.026-0.057-0.039-0.085-0.023-0.047-0.047-0.092-0.070-0.139-0.012-0.023-0.023-0.047-0.035-0.070-0.037-0.069-0.074-0.139-0.113-0.207-0.117-0.206-0.241-0.401-0.374-0.584-0.070-0.096-0.142-0.189-0.216-0.278-0.085-0.102-0.174-0.199-0.266-0.291-0.013-0.013-0.026-0.025-0.038-0.038s-0.026-0.025-0.038-0.037c-0.086-0.081-0.174-0.157-0.266-0.23-0.626-0.491-1.393-0.755-2.353-0.692-0.026 0.001-0.052 0.002-0.079 0.003-0.052 0.001-0.106-0.001-0.158-0.003-0.079-0.002-0.159-0.006-0.238-0.007-0.026 0-0.053 0-0.079 0.001-0.027 0.001-0.052 0.002-0.079 0.005-0.696 0.065-1.416 0.057-2.050 0.401-0.762 0.413-1.496 0.874-1.858 1.728-0.008 0.019-0.016 0.037-0.027 0.055-0.019 0.035-0.043 0.069-0.067 0.102-0.012 0.016-0.025 0.033-0.038 0.049-0.038 0.049-0.077 0.098-0.11 0.15-0.011 0.017-0.021 0.035-0.030 0.052-0.126 0.247-0.302 0.496-0.33 0.758-0.037 0.347-0.062 0.696-0.077 1.045s-0.020 0.699-0.016 1.048c0 0.021 0.003 0.043 0.009 0.066 0.011 0.045 0.030 0.093 0.057 0.139s0.059 0.092 0.095 0.134 0.075 0.079 0.116 0.111c0.020 0.015 0.040 0.029 0.060 0.040 0.084 0.050 0.177 0.087 0.275 0.117 0.065 0.020 0.131 0.038 0.199 0.054 0.101 0.026 0.204 0.050 0.306 0.079 0.011-0.022 0.021-0.042 0.032-0.060 0.003-0.006 0.006-0.011 0.009-0.016 0.009-0.015 0.017-0.030 0.025-0.044-0.010-0.291 0.114-0.562 0.311-0.765 0.021-0.030 0.045-0.059 0.070-0.087 0.004-0.004 0.008-0.008 0.011-0.013 0.022-0.024 0.045-0.048 0.067-0.071 0.004-0.004 0.009-0.008 0.013-0.012 0.026-0.026 0.053-0.050 0.081-0.074 0.001 0 0.001-0.001 0.002-0.001 0.059-0.051 0.121-0.099 0.187-0.146 0.006-0.004 0.011-0.008 0.016-0.011 0.026-0.019 0.053-0.038 0.080-0.056 0.008-0.006 0.016-0.011 0.023-0.016 0.027-0.018 0.053-0.036 0.080-0.054 0.006-0.004 0.013-0.008 0.021-0.013 0.033-0.021 0.065-0.043 0.098-0.064 0.028-0.018 0.056-0.035 0.084-0.051 0.085-0.048 0.171-0.086 0.258-0.116 0.057-0.020 0.116-0.036 0.175-0.050s0.118-0.025 0.177-0.034c0.238-0.037 0.479-0.043 0.718-0.065 0.332-0.029 0.525 0.121 0.576 0.399 0.017 0.092 0.018 0.199 0.004 0.318-0.003 0.023-0.006 0.046-0.007 0.069-0.006 0.071-0.009 0.143-0.015 0.213-0.004 0.048-0.009 0.094-0.016 0.14s-0.018 0.091-0.032 0.135c-0.038 0.116-0.076 0.231-0.116 0.345-0.021 0.057-0.041 0.113-0.062 0.169-0.011 0.028-0.021 0.056-0.033 0.084-0.022 0.055-0.045 0.11-0.068 0.164-0.119 0.269-0.262 0.517-0.455 0.724-0.038 0.041-0.078 0.081-0.121 0.118s-0.087 0.074-0.133 0.108c-0.023 0.017-0.048 0.033-0.072 0.049-0.098 0.064-0.206 0.119-0.325 0.165s-0.25 0.082-0.392 0.106c-0.084 0.014-0.166 0.048-0.246 0.087-0.032 0.016-0.063 0.033-0.094 0.049-0.016 0.009-0.031 0.017-0.046 0.025-0.122 0.065-0.243 0.131-0.362 0.199-0.84 0.471-1.638 1.002-2.348 1.662-0.108 0.1-0.237 0.178-0.347 0.26-0.235-0.824-0.457-1.605-0.687-2.384-0.016-0.054-0.050-0.102-0.087-0.15-0.014-0.019-0.029-0.038-0.043-0.057-0.006-0.010-0.013-0.019-0.020-0.029-0.197-0.304-0.406-0.597-0.623-0.885s-0.443-0.57-0.674-0.85c-0.189-0.228-0.387-0.44-0.596-0.635-0.126-0.116-0.255-0.226-0.39-0.328-0.090-0.069-0.182-0.133-0.276-0.195s-0.191-0.119-0.289-0.173c-0.050-0.027-0.099-0.053-0.15-0.078-0.152-0.075-0.309-0.141-0.472-0.198-0.34-0.118-0.618-0.29-0.857-0.497-0.052-0.046-0.104-0.094-0.153-0.143-0.196-0.196-0.366-0.417-0.525-0.647-0.020-0.029-0.040-0.057-0.060-0.087-0.058-0.087-0.116-0.175-0.173-0.264-0.038-0.059-0.076-0.118-0.113-0.177s-0.077-0.118-0.115-0.177-0.155-0.234-0.236-0.348c-0.021-0.028-0.041-0.057-0.062-0.084-0.026-0.036-0.031-0.087-0.050-0.13-0.255-0.584-0.201-1.196-0.128-1.796 0.008-0.065 0.021-0.127 0.037-0.187s0.037-0.118 0.061-0.174c0.035-0.084 0.080-0.162 0.13-0.238 0.033-0.050 0.070-0.098 0.11-0.145 0.020-0.023 0.040-0.046 0.061-0.068 0.104-0.111 0.223-0.213 0.349-0.306 0.025-0.018 0.051-0.037 0.077-0.055 0.256-0.177 0.511-0.316 0.802-0.348 0.174-0.019 0.362 0 0.569 0.073 0.328 0.115 0.62 0.184 0.772 0.485 0.021 0.043 0.040 0.091 0.056 0.145 0.014 0.050 0.055 0.092 0.1 0.134s0.092 0.082 0.121 0.132c0.091 0.157 0.218 0.326 0.224 0.494 0.034 0.817 0.097 1.643-0.453 2.356-0.063 0.082-0.118 0.169-0.17 0.262s-0.101 0.19-0.152 0.29c-0.035 0.067-0.070 0.134-0.108 0.203 0.13 0.168 0.231 0.37 0.393 0.485 0.099 0.071 0.233 0.145 0.359 0.178 0.050 0.013 0.099 0.020 0.143 0.018 0.022-0.001 0.043-0.005 0.063-0.011 0.53-0.162 1.045-0.379 1.548-0.616 0.125-0.059 0.235-0.146 0.346-0.235 0.055-0.045 0.111-0.090 0.167-0.132s0.115-0.082 0.176-0.114c0.098-0.052 0.188-0.111 0.27-0.175 0.124-0.096 0.231-0.206 0.325-0.329 0.046-0.061 0.089-0.126 0.129-0.194 0.040-0.067 0.077-0.139 0.11-0.213 0.095-0.213 0.195-0.422 0.295-0.632s0.199-0.42 0.294-0.632c0.023-0.051 0.049-0.103 0.075-0.155s0.053-0.104 0.079-0.157c0.035-0.069 0.068-0.14 0.096-0.21 0.041-0.105 0.070-0.211 0.070-0.316 0.001-0.108 0.004-0.216 0.009-0.323 0.009-0.269 0.023-0.538 0.033-0.808 0.004-0.108 0.006-0.216 0.008-0.323s0.001-0.216-0.001-0.324c-0.002-0.108-0.007-0.216-0.014-0.324-0.011-0.162-0.028-0.325-0.055-0.488-0.089-0.556-0.411-0.984-0.596-1.479-0.514-1.374-1.672-2.087-2.801-2.831-0.134-0.089-0.272-0.165-0.414-0.231-0.094-0.044-0.19-0.084-0.288-0.121-0.090-0.033-0.181-0.064-0.272-0.092-0.006-0.002-0.013-0.004-0.018-0.006-0.002-0.001-0.004-0.001-0.005-0.001-0.090-0.028-0.18-0.052-0.272-0.075-0.014-0.004-0.028-0.007-0.043-0.011s-0.029-0.007-0.044-0.011c-0.031-0.007-0.063-0.015-0.095-0.023-0.070-0.016-0.141-0.031-0.212-0.046-0.031-0.006-0.063-0.013-0.095-0.019-0.070-0.014-0.14-0.028-0.211-0.042-0.084-0.016-0.167-0.032-0.251-0.048-0.051-0.010-0.102-0.020-0.153-0.030-0.095-0.019-0.192-0.033-0.289-0.043-0.195-0.020-0.392-0.026-0.589-0.028-0.099-0.001-0.197-0.002-0.296-0.004-0.16-0.003-0.321 0.087-0.481 0.082-0.289-0.007-0.565 0.018-0.831 0.067-0.032 0.006-0.064 0.012-0.096 0.019-0.127 0.027-0.25 0.060-0.372 0.097-0.082 0.026-0.162 0.052-0.241 0.082s-0.158 0.061-0.235 0.094c-0.078 0.033-0.155 0.069-0.231 0.106s-0.151 0.077-0.226 0.117c-0.074 0.040-0.149 0.082-0.222 0.125-0.036 0.022-0.073 0.043-0.109 0.066-0.145 0.089-0.288 0.182-0.428 0.28-0.070 0.048-0.14 0.098-0.21 0.148-0.173 0.126-0.344 0.255-0.513 0.386-0.099 0.076-0.195 0.154-0.29 0.234-0.19 0.161-0.374 0.331-0.549 0.509-0.088 0.089-0.173 0.181-0.257 0.274s-0.164 0.19-0.243 0.289c-0.235 0.295-0.448 0.611-0.633 0.946-0.004 0.007-0.007 0.014-0.011 0.021-0.096 0.177-0.189 0.362-0.316 0.515-0.026 0.031-0.051 0.063-0.076 0.095-0.068 0.087-0.133 0.176-0.194 0.267-0.008 0.013-0.016 0.025-0.025 0.038s-0.017 0.026-0.026 0.038c-0.055 0.087-0.108 0.176-0.157 0.266-0.351 0.637-0.557 1.34-0.721 2.033-0.054 0.228-0.106 0.455-0.156 0.685-0.082 0.382-0.154 0.767-0.205 1.156-0.020 0.155-0.037 0.311-0.050 0.467-0.038 0.47-0.037 0.944 0.021 1.423 0.084 0.691 0.243 1.354 0.484 1.985 0.054 0.14 0.112 0.279 0.174 0.416s0.129 0.272 0.2 0.406c0.071 0.134 0.146 0.266 0.226 0.396 0.040 0.065 0.081 0.13 0.123 0.194 0.209 0.319 0.467 0.605 0.719 0.896 0.084 0.097 0.167 0.195 0.248 0.294 0.074 0.091 0.103 0.178 0.091 0.252-0.016 0.096-0.099 0.173-0.245 0.216-0.37 0.107-0.743 0.201-1.111 0.311-0.123 0.036-0.245 0.074-0.367 0.116-0.289 0.097-0.57 0.211-0.84 0.345-0.162 0.079-0.319 0.167-0.471 0.262-0.101 0.064-0.199 0.131-0.294 0.201-0.144 0.106-0.28 0.221-0.409 0.345s-0.249 0.257-0.36 0.4c-0.268 0.345-0.489 0.716-0.657 1.107-0.056 0.131-0.106 0.263-0.15 0.398-0.016 0.051-0.031 0.104-0.046 0.155-0.024 0.084-0.047 0.169-0.066 0.255-0.004 0.016-0.006 0.031-0.009 0.047s-0.006 0.030-0.009 0.045c-0.003 0.015-0.006 0.030-0.009 0.045-0.018 0.095-0.035 0.19-0.047 0.286-0.001 0.013-0.002 0.027-0.004 0.040-0.032 0.273-0.040 0.552-0.021 0.837 0.011 0.179 0.033 0.362 0.063 0.543s0.072 0.36 0.123 0.535c0.034 0.116 0.074 0.231 0.118 0.343 0.026 0.065 0.054 0.127 0.084 0.189 0.061 0.123 0.131 0.241 0.21 0.354 0.118 0.169 0.255 0.326 0.407 0.474 0.101 0.098 0.208 0.192 0.321 0.281 0.030 0.025 0.062 0.049 0.094 0.074 0.030 0.023 0.061 0.046 0.091 0.070 0.065 0.050 0.128 0.101 0.189 0.156 0.072 0.065 0.138 0.137 0.193 0.217 0.070 0.101 0.166 0.177 0.275 0.222 0.070 0.029 0.145 0.047 0.221 0.050 0.016 0.001 0.030-0.001 0.045-0.001 0.013 0 0.025 0.001 0.038-0.001h0.001l0.004-0.001c0.011-0.021 0.023-0.040 0.033-0.060 0.123-0.221 0.211-0.384 0.266-0.52 0.096-0.235 0.094-0.393 0-0.642-0.050-0.133-0.124-0.291-0.224-0.501-0.016-0.033-0.028-0.067-0.042-0.101-0.013-0.031-0.026-0.062-0.038-0.094-0.014-0.040-0.026-0.080-0.038-0.121-0.025-0.083-0.047-0.168-0.062-0.255-0.005-0.028-0.008-0.057-0.012-0.086-0.003-0.021-0.006-0.041-0.009-0.062-0.002-0.018-0.006-0.036-0.008-0.055-0.001-0.003-0.001-0.005-0.001-0.007-0.013-0.128-0.016-0.258-0.012-0.389 0.001-0.007 0-0.013 0.001-0.021 0.005-0.14 0.021-0.28 0.046-0.418s0.059-0.276 0.102-0.409c0.065-0.2 0.15-0.392 0.253-0.568s0.227-0.336 0.367-0.474c0.040-0.040 0.082-0.078 0.126-0.112 0.065-0.051 0.132-0.096 0.201-0.133 0.139-0.074 0.285-0.118 0.438-0.131 0.127-0.010 0.258 0.004 0.392 0.041 0.077 0.021 0.154 0.042 0.231 0.062 0.543 0.14 1.096 0.267 1.52 0.716 0.164 0.173 0.351 0.321 0.552 0.451 0.56 0.362 0.959 0.79 1.233 1.27 0.005 0.009 0.011 0.018 0.015 0.026 0.118 0.211 0.213 0.431 0.287 0.66 0.008 0.026 0.016 0.051 0.023 0.077 0.018 0.059 0.035 0.119 0.050 0.179s0.030 0.123 0.043 0.184c0.014 0.070 0.027 0.14 0.038 0.211 0.008 0.050 0.016 0.101 0.022 0.152 0.016 0.131 0.028 0.265 0.035 0.399 0.010 0.181 0.011 0.364 0.006 0.55-0.001 0.023-0.001 0.045-0.003 0.067v0.011c-0.001 0.017-0.001 0.034-0.002 0.050-0.001 0.004-0.001 0.006-0.001 0.010-0.001 0.016-0.001 0.030-0.003 0.045-0.001 0.003-0.001 0.005-0.001 0.008-0.001 0.014-0.003 0.028-0.005 0.040 0 0.001-0.001 0.004-0.001 0.006-0.002 0.013-0.004 0.025-0.007 0.037-0.001 0.001-0.001 0.002-0.001 0.004-0.003 0.012-0.006 0.023-0.011 0.034v0.001c-0.008 0.023-0.018 0.042-0.031 0.059h-0.001c0.001 0.051-0.001 0.103-0.004 0.154l-0.070-0.070c-0.116 0.358-0.179 0.898-0.102 1.364 0.055 0.125 0.115 0.246 0.196 0.358 0.195 0.268 0.392 0.422 0.544 0.633h0.024l2.053 2.035 0.006-0.024c0.172 0.161 0.379 0.287 0.578 0.407 0.037 0.023 0.077 0.034 0.117 0.043 0.005 0.012 0.006 0.027 0.011 0.038 0.023 0.052 0.052 0.099 0.089 0.145 0.006 0.007 0.014 0.014 0.021 0.021 0.023 0.111 0.051 0.22 0.089 0.324 0.113 0.313 0.353 0.504 0.625 0.678l-0.007 0.047 0.47 0.46c0.814 0.452 1.625 0.487 2.515 0.027l1.508-1.549c0.099-0.12 0.129-0.265 0.077-0.461-0.033-0.124-0.062-0.25-0.084-0.377s-0.041-0.254-0.051-0.382c-0.010-0.126 0.063-0.259 0.099-0.389 0.023 0.004 0.047 0.008 0.071 0.011 0.021-0.054 0.045-0.107 0.074-0.159 0.038-0.067 0.082-0.133 0.131-0.195 0.017-0.031 0.035-0.062 0.055-0.093 0.169-0.266 0.4-0.414 0.617-0.626 0.325-0.316 0.649-0.585 1.045-0.727 0.204-0.12 0.406-0.215 0.608-0.293 0.001-0.001 0.002-0.001 0.003-0.001 0.065-0.025 0.13-0.048 0.195-0.070 0.004-0.001 0.008-0.003 0.012-0.004 0.063-0.021 0.126-0.041 0.19-0.060 0.006-0.001 0.011-0.004 0.016-0.005 0.063-0.018 0.126-0.036 0.189-0.052 0.006-0.001 0.012-0.003 0.018-0.004 0.063-0.016 0.126-0.033 0.19-0.048 0.005-0.001 0.009-0.002 0.014-0.004 0.065-0.015 0.131-0.030 0.197-0.045 0.311-0.070 0.618-0.093 0.923-0.091 0.101 0 0.203 0.004 0.304 0.009 0.152 0.008 0.303 0.020 0.454 0.034 0.101 0.009 0.201 0.019 0.302 0.030 0.151 0.016 0.302 0.031 0.453 0.044 0.214 0.019 0.428 0.042 0.641 0.065 0.143 0.015 0.285 0.030 0.428 0.043s0.284 0.027 0.426 0.037c0.072 0.006 0.143 0.011 0.213 0.014 0.143 0.008 0.285 0.013 0.427 0.013 0.214 0.001 0.428-0.007 0.642-0.028 0.004-0.001 0.007-0.001 0.011-0.001 0.065-0.006 0.129-0.014 0.194-0.023 0.003 0 0.006 0 0.009-0.001 0.021-0.003 0.042-0.007 0.062-0.011 0.013-0.001 0.026-0.004 0.038-0.006s0.026-0.004 0.038-0.006c0.089-0.015 0.177-0.032 0.266-0.053 0.008-0.001 0.016-0.003 0.023-0.004 0.045-0.011 0.091-0.013 0.139-0.012s0.095 0.004 0.142 0.004c0.955-0.001 1.821-0.396 2.727-0.614 0.027-0.007 0.053-0.017 0.079-0.030s0.051-0.028 0.075-0.045 0.098-0.070 0.148-0.101c0.21-0.133 0.394-0.285 0.556-0.452 0.122-0.125 0.232-0.258 0.332-0.399 0.067-0.094 0.129-0.19 0.188-0.289s0.113-0.201 0.165-0.304c0.052-0.104 0.101-0.21 0.148-0.318 0.070-0.162 0.135-0.326 0.196-0.494 0.121-0.331 0.014-0.609-0.254-0.806z"></path>
</svg>
