<!-- Generated by IcoMoon.io -->
<svg version="1.1" xmlns="http://www.w3.org/2000/svg" width="32" height="32" viewBox="0 0 32 32">
<path d="M28.622 25.681c-0.287-0.076-0.783-0.206-0.982-0.466-0.121-0.156-0.134-0.345-0.127-0.537 0.004-0.134-0.023-0.186-0.117-0.29 0.376-0.092 0.833 0.072 1.187 0.19 0.139 0.039 0.274 0.090 0.405 0.152 0.021 0.004 0.044 0.008 0.065 0.012 0.069-0.024 0.102-0.045 0.102-0.129 0.004-0.266-0.533-0.466-0.718-0.516-0.396-0.109-1.904-0.162-2.312-0.135-0.259 0.017-0.51 0.075-0.767 0.105-0.252 0.030 0.517 0.002 0.267 0.035-0.197 0.025-0.386 0.095-0.58 0.141-0.245 0.060-0.474 0.055-0.726 0.052-0.325-0.004-0.673 0.034-0.993-0.024-0.16-0.029-1.304-0.129-1.444-0.206-0.225-0.124-0.384-0.314-0.362-0.453-0.215 0.024-0.465-0.112-0.635-0.225-0.201-0.132-0.387-0.287-0.571-0.441-0.115-0.096-0.126-0.224-0.196-0.347-0.065-0.116-0.172-0.204-0.244-0.316-0.069-0.112-0.085-0.259-0.144-0.381-0.076-0.16-0.104-0.33-0.154-0.496-0.032-0.107-0.072-0.222-0.13-0.317-0.082-0.135-0.214-0.244-0.265-0.391-0.054-0.157-0.026-0.33-0.067-0.495-0.021-0.085-0.037-0.17-0.079-0.249-0.034-0.067-0.096-0.124-0.119-0.194-0.056-0.166-0.040-0.344-0.042-0.517-0.002-0.176-0.041-0.339-0.091-0.506-0.034-0.112-0.032-0.227-0.089-0.334-0.040-0.072-0.075-0.136-0.104-0.215-0.071-0.199-0.149-0.392-0.239-0.585-0.159-0.34-0.241-0.758-0.24-1.134 0-0.097-0.019-0.204 0.021-0.295 0.026-0.061 0.079-0.104 0.115-0.159 0.074-0.11 0.146-0.255 0.2-0.377 0.027-0.060 0.074-0.114 0.096-0.172 0.019-0.046 0.020-0.102 0.037-0.15 0.039-0.111 0.072-0.211 0.1-0.322 0.021-0.089 0.021-0.216 0.070-0.297 0.054-0.092 0.156-0.179 0.244-0.244 0.074-0.056 0.1-0.061 0.199-0.060 0.117 0.001 0.235-0.001 0.351 0 0.185 0.002 0.384-0.079 0.547-0.16 0.072-0.036 0.142-0.064 0.224-0.090 0.102-0.034 0.209-0.008 0.31-0.039 0.1-0.031 0.214-0.072 0.312-0.112 0.107-0.044 0.204-0.040 0.32-0.040 0.086 0 0.172 0 0.259 0 0.051 0 0.114-0.011 0.165-0.002 0.059 0.011 0.096 0.040 0.157 0.044 0.099 0.005 0.201-0.001 0.3-0.001 0.136 0 0.252 0.031 0.382 0.041 0.107 0.008 0.164 0.004 0.259 0.044 0.115 0.050 0.227 0.091 0.341 0.146 0.171 0.082 0.319 0.185 0.483 0.28 0.112 0.066 0.161 0.114 0.219 0.231 0.072 0.142 0.061 0.255 0.061 0.416 0 0.091-0.026 0.227 0.006 0.311 0.109-0.031 0.309-0.244 0.347-0.347 0.025-0.069 0.006-0.167 0.006-0.24 0-0.089 0.016-0.194 0.002-0.281-0.015-0.091-0.089-0.165-0.134-0.241-0.050-0.086-0.11-0.169-0.18-0.241-0.049-0.051-0.11-0.081-0.17-0.119-0.076-0.049-0.164-0.107-0.247-0.15-0.102-0.051-0.179-0.102-0.271-0.169-0.059-0.042-0.109-0.084-0.154-0.141-0.045-0.059-0.13-0.135-0.159-0.197-0.081-0.18-0.109-0.485 0.090-0.603 0.047-0.027 0.091-0.026 0.139-0.060 0.061-0.041 0.072-0.066 0.149-0.084 0.13-0.029 0.256-0.081 0.389-0.079 0.342 0.004 0.696-0.037 1.028 0.044 0.299 0.074 0.561 0.276 0.838 0.4 0.262 0.116 0.535 0.246 0.806 0.327 0.106 0.033 0.212 0.080 0.315 0.12 0.050 0.020 0.107 0.026 0.156 0.049 0.050 0.024 0.085 0.072 0.132 0.097 0.039 0.020 0.142 0.062 0.181 0.065 0.049-0.086 0.021-0.272 0.016-0.371-0.006-0.145-0.054-0.272-0.139-0.39-0.28-0.385-0.74-0.535-1.188-0.635-0.139-0.031-0.245-0.116-0.39-0.139-0.056-0.010-0.112-0.004-0.167-0.016-0.072-0.018-0.136-0.060-0.216-0.070-0.077-0.009-0.155 0-0.234 0-0.11-0.001-0.186-0.026-0.289-0.057-0.166-0.051-0.347-0.054-0.513-0.096-0.224-0.056-0.485-0.177-0.515-0.434-0.017-0.162 0.065-0.242 0.172-0.346 0.092-0.090 0.155-0.207 0.255-0.287 0.081-0.065 0.175-0.157 0.276-0.182 0.141-0.033 0.276-0.071 0.41-0.124 0.109-0.042 0.22-0.040 0.329-0.070 0.116-0.033 0.261-0.009 0.381-0.009 0.294 0 0.587 0 0.882 0 0.14 0 0.265 0.018 0.404 0.036 0.077 0.010 0.279 0.035 0.336-0.008-0.062-0.194-0.322-0.261-0.483-0.347-0.15-0.081-0.274-0.16-0.442-0.206-0.196-0.052-0.392-0.006-0.587-0.044-0.189-0.035-0.352-0.091-0.547-0.107-0.177-0.015-0.357-0.006-0.535-0.006-0.134 0-0.27-0.009-0.404-0.001-0.058 0.004-0.069 0.019-0.121 0.033-0.059 0.016-0.114-0.002-0.172 0.015-0.056 0.016-0.099 0.065-0.15 0.091-0.049 0.024-0.102 0.031-0.152 0.052-0.070 0.030-0.089 0.049-0.144 0.107-0.087 0.090-0.195 0.155-0.28 0.245-0.090 0.096-0.181 0.23-0.259 0.339-0.075 0.106-0.14 0.245-0.176 0.369-0.065 0.215-0.19 0.402-0.261 0.616-0.050 0.152-0.164 0.256-0.251 0.386-0.051 0.079-0.087 0.161-0.147 0.234-0.056 0.070-0.125 0.126-0.179 0.196-0.121 0.159-0.259 0.247-0.44 0.334-0.284 0.134-0.56 0.25-0.835 0.401-0.171 0.092-0.38 0.201-0.585 0.155-0.22-0.049-0.249-0.374-0.27-0.553-0.027-0.239-0.070-0.452-0.070-0.693 0-0.097-0.015-0.204 0.006-0.3 0.025-0.119 0.067-0.186 0.074-0.312 0.015-0.24 0.060-0.472 0.079-0.711 0.017-0.221 0.13-0.412 0.244-0.598 0.106-0.177 0.212-0.395 0.351-0.548 0.084-0.092 0.192-0.22 0.294-0.286 0.095-0.062 0.21-0.090 0.296-0.165 0.086-0.076 0.169-0.157 0.257-0.231 0.066-0.056 0.122-0.127 0.194-0.176 0.081-0.056 0.176-0.095 0.26-0.147 0.115-0.072 0.197-0.159 0.33-0.221 0.131-0.062 0.249-0.11 0.39-0.14 0.259-0.054 0.518-0.076 0.778-0.119 0.076-0.012 0.146-0.034 0.221-0.052 0.171-0.041 0.334-0.027 0.506-0.047 0.101-0.011 0.192-0.049 0.291-0.064 0.076-0.012 0.15-0.006 0.226-0.018 0.209-0.030 0.41-0.074 0.607-0.147 0.246-0.092 0.498-0.139 0.748-0.212 0.131-0.039 0.232-0.070 0.34-0.142 0.096-0.064 0.189-0.104 0.265-0.187 0.085-0.094 0.152-0.189 0.207-0.302 0.029-0.060 0.031-0.097 0.049-0.161 0.019-0.067 0.039-0.096 0.072-0.159 0.026-0.049 0.119-0.326 0.075-0.35-0.115 0.039-0.237 0.112-0.346 0.167-0.085 0.042-0.177 0.075-0.261 0.121-0.045 0.025-0.076 0.065-0.117 0.090-0.086 0.055-0.204 0.081-0.301 0.109-0.124 0.034-0.242 0.094-0.361 0.141-0.116 0.046-0.26 0.095-0.384 0.117-0.097 0.019-0.189 0.011-0.287 0.035-0.17 0.039-0.444 0.030-0.62 0-0.155-0.026-0.244-0.1-0.376-0.174-0.144-0.080-0.195-0.136-0.26-0.287-0.096-0.221-0.040-0.541-0.040-0.785 0-0.077 0.008-0.159 0.002-0.236-0.009-0.121-0.066-0.235-0.101-0.351-0.040-0.129-0.075-0.25-0.131-0.374-0.025-0.054-0.064-0.224-0.122-0.229-0.014 0.046-0.001 0.091-0.010 0.139-0.010 0.046-0.036 0.074-0.055 0.116-0.036 0.085-0.060 0.189-0.091 0.281-0.104 0.296-0.3 0.516-0.505 0.75-0.096 0.109-0.239 0.19-0.359 0.269-0.182 0.117-0.361 0.251-0.546 0.362-0.217 0.13-0.495 0.164-0.742 0.166-0.1 0-0.211 0.018-0.3-0.037-0.090-0.056-0.186-0.177-0.24-0.26-0.089-0.136-0.185-0.32-0.204-0.481s-0.004-0.336-0.004-0.498c0-0.114 0.067-0.657-0.082-0.681-0.052 0.056-0.045 0.164-0.059 0.237-0.017 0.105-0.002 0.214-0.042 0.314-0.060 0.147-0.142 0.31-0.216 0.455-0.065 0.13-0.117 0.266-0.199 0.389-0.162 0.247-0.34 0.478-0.427 0.766-0.059 0.19-0.015 0.441-0.016 0.64-0.001 0.19 0.031 0.349 0.11 0.522 0.056 0.122 0.157 0.211 0.22 0.33 0.111 0.214 0.209 0.475 0.194 0.718-0.015 0.215-0.126 0.371-0.225 0.553-0.166 0.309-0.346 0.61-0.497 0.927-0.090 0.186-0.16 0.381-0.242 0.57-0.072 0.165-0.157 0.321-0.221 0.49-0.047 0.126-0.122 0.235-0.171 0.36-0.040 0.097-0.069 0.195-0.132 0.281-0.131 0.177-0.265 0.355-0.497 0.381-0.274 0.030-0.502-0.077-0.648-0.31-0.122-0.194-0.276-0.356-0.409-0.54-0.172-0.24-0.191-0.528-0.255-0.808-0.072-0.315-0.214-0.627-0.259-0.948-0.029-0.206-0.012-0.416-0.016-0.623-0.009-0.513 0.216-0.988 0.367-1.465 0.109-0.341 0.216-0.682 0.292-1.032 0.041-0.186 0.091-0.377 0.104-0.567 0.014-0.229 0-0.46 0.002-0.69 0.002-0.221-0.008-0.426-0.080-0.638-0.055-0.157-0.085-0.322-0.137-0.478-0.029-0.082-0.075-0.137-0.115-0.209-0.045-0.080-0.064-0.17-0.114-0.245-0.055-0.084-0.141-0.139-0.199-0.221-0.071 0.384-0.071 0.785-0.116 1.173-0.046 0.404-0.264 0.772-0.523 1.077-0.065 0.077-0.131 0.247-0.23 0.274-0.166 0.042-0.431-0.099-0.568-0.194-0.27-0.186-0.322-0.602-0.367-0.899-0.145 0.125-0.214 0.377-0.279 0.553-0.029 0.079-0.071 0.155-0.097 0.235-0.025 0.074-0.024 0.15-0.030 0.229-0.039 0.431-0.056 0.82 0.149 1.213 0.122 0.235 0.286 0.436 0.399 0.676 0.105 0.225 0.064 0.505 0.064 0.747v0.618c0 0.091 0.011 0.191 0.001 0.282-0.011 0.1-0.082 0.145-0.154 0.215-0.242 0.242-0.728 0.167-1.043 0.172-0.259 0.004-0.452-0.050-0.658-0.2-0.099-0.072-0.217-0.139-0.284-0.244-0.054-0.082-0.074-0.174-0.101-0.269-0.027 0.067-0.030 0.139-0.008 0.215 0.001 0.141 0.001 0.282-0.001 0.424 0.006 0.169 0.052 0.325 0.13 0.473 0.176 0.334 0.482 0.551 0.811 0.718 0.279 0.141 0.555 0.282 0.838 0.412 0.204 0.095 0.416 0.181 0.595 0.32 0.196 0.152 0.516 0.342 0.586 0.595 0.079 0.286 0.081 0.55-0.094 0.793-0.081 0.112-0.124 0.226-0.222 0.325-0.145 0.142-0.26 0.121-0.455 0.122-0.24 0.001-0.476 0.026-0.708-0.062-0.125-0.059-0.247-0.122-0.366-0.194-0.267-0.142-0.525-0.302-0.771-0.48-0.251-0.207-0.429-0.473-0.698-0.66-0.21-0.145-0.421-0.271-0.598-0.456-0.18-0.19-0.351-0.422-0.482-0.648-0.271-0.465-0.44-1.004-0.452-1.544-0.005-0.266-0.024-0.566 0.001-0.832 0.012-0.135 0.094-0.249 0.117-0.385 0.004-0.105 0.020-0.209 0.049-0.31 0.026-0.052 0.041-0.109 0.045-0.169 0.016-0.169-0.067-0.302-0.129-0.455-0.165-0.402-0.426-0.695-0.758-0.967-0.132-0.109-0.29-0.186-0.431-0.281-0.104-0.069-0.199-0.154-0.306-0.215-0.162-0.094-0.347-0.141-0.511-0.232-0.192-0.109-0.366-0.245-0.526-0.396-0.171-0.162-0.261-0.271-0.356-0.496-0.065-0.155-0.111-0.291-0.146-0.455-0.036 0.005-0.050 0.642-0.051 0.721-0.006 0.256 0.012 0.471 0.169 0.685 0.137 0.186 0.247 0.391 0.435 0.531 0.197 0.146 0.402 0.271 0.58 0.444 0.42 0.41 0.491 1.089 0.565 1.638 0.044 0.34 0.11 0.678-0.047 0.999-0.094 0.191-0.266 0.325-0.449 0.426-0.115 0.062-0.206 0.066-0.335 0.065-0.23-0.004-0.46 0.002-0.69 0-0.211-0.002-0.379-0.036-0.572-0.125-0.246-0.111-0.542-0.279-0.711-0.502-0.069-0.090-0.104-0.211-0.152-0.312-0.061-0.126-0.136-0.244-0.199-0.367-0.109-0.217-0.127-0.445-0.146-0.683-0.011-0.16-0.002-0.319-0.006-0.477-0.002-0.097-0.046-0.165-0.042-0.261-0.182 0.11-0.262 0.453-0.307 0.655-0.046 0.207-0.131 0.417-0.166 0.627-0.075 0.456-0.064 0.931 0.091 1.369 0.077 0.22 0.244 0.439 0.399 0.611 0.115 0.126 0.28 0.222 0.422 0.32 0.175 0.119 0.451 0.184 0.652 0.229 0.265 0.057 0.491 0.157 0.745 0.255 0.22 0.085 0.409 0.187 0.616 0.299 0.111 0.060 0.232 0.12 0.317 0.215 0.177 0.2 0.175 0.603-0.001 0.812-0.251 0.296-0.597 0.469-0.996 0.502-0.245 0.020-0.5 0.005-0.746 0.005-0.157 0-0.302-0.016-0.456-0.054-0.266-0.065-0.501-0.217-0.767-0.282-0.070 0.131 0.042 0.361 0.134 0.456 0.084 0.086 0.21 0.129 0.315 0.182 0.21 0.106 0.401 0.215 0.625 0.291 0.234 0.081 0.502 0.111 0.745 0.175 0.216 0.055 0.429 0.131 0.646 0.186 0.382 0.096 0.792 0.156 1.184 0.205 0.46 0.057 0.913 0.092 1.369 0.181 0.469 0.091 0.934 0.205 1.405 0.277 0.15 0.023 0.272 0.047 0.412 0.116 0.166 0.081 0.284 0.202 0.432 0.307 0.17 0.12 0.379 0.174 0.545 0.302 0.107 0.082 0.191 0.192 0.267 0.304 0.206 0.297 0.439 0.586 0.683 0.852 0.15 0.162 0.261 0.291 0.285 0.516 0.029 0.259 0.089 0.522 0.091 0.782 0.005 0.395-0.004 0.79-0.002 1.184 0 0.296-0.001 0.59-0.037 0.884s-0.126 0.575-0.185 0.866c-0.029 0.14-0.030 0.285-0.055 0.426-0.023 0.131-0.072 0.23-0.116 0.35-0.033 0.090-0.039 0.176-0.064 0.266-0.039 0.134-0.119 0.27-0.191 0.389-0.106 0.175-0.229 0.341-0.352 0.503-0.116 0.152-0.217 0.332-0.385 0.437-0.347 0.219-0.782 0.311-1.174 0.414-0.414 0.11 0.224 0.271-0.205 0.3-0.136 0.009-0.261 0.041-0.394 0.064-0.16 0.027-0.314 0.021-0.473 0.020-0.426-0.004-0.851 0-1.276-0.001-0.452-0.002-0.883 0.016-1.332 0.061-0.301 0.031-0.605 0.019-0.907 0.019-0.32-0.001-0.636-0.009-0.954 0.036-0.185 0.025-0.364 0.072-0.547 0.106-0.14 0.025-0.281 0.036-0.418 0.076-0.505 0.15-1.069 0.269-1.462 0.63-0.036 0.034-0.091 0.096-0.116 0.136-0.025 0.039-0.020 0.070-0.037 0.111-0.069 0.166-0.249 0.291-0.36 0.436-0.132 0.171-0.257 0.351-0.386 0.525-0.099 0.134-0.224 0.306-0.257 0.472 0.094-0.002 0.212-0.131 0.274-0.181 0.107-0.089 0.204-0.184 0.305-0.277 0.117-0.107 0.229-0.23 0.35-0.332 0.060-0.051 0.094-0.060 0.165-0.080 0.167-0.049 0.329-0.107 0.495-0.16 0.137-0.042 0.282-0.067 0.425-0.085 0.115-0.015 0.239-0.001 0.351-0.039 0.096-0.032 0.171-0.064 0.275-0.091 0.227-0.061 0.435-0.2 0.668-0.236 0.117-0.019 0.231-0.006 0.347-0.042 0.097-0.031 0.171-0.079 0.274-0.085 0.204-0.012 0.387-0.030 0.586-0.079 0.080-0.019 0.225-0.071 0.309-0.052 0.094 0.023 0.154 0.216 0.16 0.289 0.010 0.142-0.070 0.221-0.15 0.327-0.069 0.092-0.122 0.147-0.229 0.2-0.114 0.055-0.229 0.096-0.307 0.199-0.090 0.115-0.157 0.242-0.219 0.374-0.122 0.259-0.309 0.449-0.495 0.658-0.205 0.23-0.464 0.409-0.701 0.602-0.364 0.296-0.745 0.597-1.097 0.907-0.081 0.071-0.205 0.17-0.262 0.266 0.029 0.104 0.244 0.069 0.302 0.044 0.164-0.070 0.334-0.271 0.482-0.366 0.361-0.229 0.681-0.512 1.027-0.762 0.216-0.157 0.397-0.305 0.575-0.506 0.216-0.245 0.426-0.532 0.681-0.737 0.274-0.22 0.665-0.365 0.994-0.472 0.267-0.087 0.548-0.050 0.801-0.166 0.182-0.084 0.372-0.17 0.558-0.244 0.206-0.081 0.46-0.11 0.677-0.159 0.189-0.044 0.345-0.097 0.42 0.135 0.049 0.149 0.020 0.305-0.059 0.437-0.141 0.239-0.219 0.505-0.359 0.746-0.081 0.14-0.146 0.281-0.211 0.429-0.044 0.1-0.104 0.192-0.127 0.3-0.045 0.194-0.052 0.451-0.027 0.647 0.012 0.104 0.041 0.18 0.041 0.289 0 0.19 0.025 0.305-0.145 0.416-0.119 0.079-0.33 0.142-0.473 0.13 0.382-0.009 1.151 0.096 1.386-0.336 0.261-0.482 0.074-1.047 0.287-1.54 0.064-0.147 0.147-0.285 0.222-0.426 0.075-0.137 0.122-0.286 0.199-0.422 0.066-0.119 0.147-0.176 0.279-0.22 0.191-0.064 0.421-0.058 0.622-0.084 0.197-0.025 0.4-0.025 0.598-0.025 0.115 0.186 0.112 0.474 0.115 0.686 0.004 0.23 0.019 0.481 0.002 0.711-0.018 0.265-0.146 0.518-0.204 0.778-0.061 0.275-0.117 0.556-0.125 0.838-0.011 0.44-0.067 0.877 0.204 1.247 0.225 0.306 0.47 0.55 0.827 0.687 0.132-0.089 0.035-0.402 0.024-0.543-0.018-0.23-0.010-0.459-0.011-0.688-0.001-0.322 0.002-0.631 0.069-0.947 0.042-0.197 0.11-0.385 0.174-0.575 0.066-0.2 0.112-0.404 0.17-0.605 0.055-0.195 0.119-0.372 0.142-0.572 0.039-0.327 0.042-0.66 0.077-0.988 0.016-0.145 0.021-0.219 0.17-0.257 0.126-0.034 0.279-0.004 0.409-0.006 0.165-0.002 0.277-0.058 0.371 0.097 0.195 0.326 0.44 0.608 0.532 0.984 0.041 0.165 0.095 0.332 0.092 0.505-0.002 0.222-0.026 0.417-0.094 0.636 0.054 0.070 0.214-0.005 0.274-0.044 0.164-0.105 0.27-0.322 0.384-0.477 0.117-0.122 0.191-0.267 0.221-0.435 0.030-0.13 0.059-0.26 0.087-0.39 0.059-0.239 0.13-0.444 0.249-0.653 0.137-0.241 0.266-0.304 0.522-0.225 0.146 0.045 0.177 0.040 0.219 0.179 0.064 0.217 0.172 0.376 0.265 0.573 0.104 0.221 0.134 0.495 0.174 0.733 0.030 0.182 0.037 0.36 0.020 0.545-0.029 0.3-0.169 0.53-0.261 0.805-0.092 0.28-0.155 0.527-0.172 0.825-0.009 0.16-0.014 0.327-0.011 0.486 0.306-0.172 0.54-0.477 0.736-0.762 0.090-0.131 0.179-0.262 0.252-0.402 0.035-0.072 0.076-0.142 0.124-0.209 0.080-0.131 0.17-0.256 0.272-0.372 0.096-0.172 0.102-0.304 0.117-0.498 0.020-0.266 0.052-0.536 0.136-0.791 0.096-0.29 0.291-0.478 0.441-0.733 0.22 0.182 0.42 0.402 0.623 0.602 0.087 0.086 0.147 0.171 0.221 0.27 0.074 0.1 0.194 0.176 0.259 0.284 0.101 0.166 0.090 0.439 0.146 0.623 0.044 0.142 0.026 0.282 0.070 0.424 0.054 0.176 0.142 0.341 0.196 0.52 0.064 0.216 0.189 0.421 0.371 0.558 0.279 0.212 0.638 0.344 0.962 0.472 0.192 0.077 0.385 0.155 0.568 0.254 0.127 0.070 0.266 0.114 0.395 0.18 0.062 0.031 0.109 0.075 0.167 0.109 0.131 0.072 0.314 0.064 0.46 0.1 0.152 0.037 0.122 0.025 0.156 0.129 0.020 0.062 0.037 0.124 0.030 0.19-0.006-0.311-0.005-0.626 0-0.937 0.004-0.25 0.052-0.488-0.104-0.701-0.102-0.139-0.229-0.312-0.376-0.404-0.236-0.145-0.52-0.211-0.767-0.335-0.215-0.106-0.289-0.277-0.435-0.456-0.090-0.11-0.195-0.206-0.286-0.314-0.165-0.195-0.221-0.451-0.257-0.697-0.036-0.235-0.042-0.471-0.020-0.706-0.001-0.174 0.020-0.344 0.062-0.511 0.012-0.021 0.025-0.041 0.039-0.062 0.12 0.004 0.239-0.004 0.359-0.021 0.251-0.029 0.419-0.027 0.651 0.1 0.226 0.125 0.478 0.241 0.653 0.44 0.122 0.14 0.196 0.341 0.299 0.5 0.217 0.339 0.467 0.65 0.656 1.009 0.071 0.136 0.171 0.224 0.269 0.342 0.077 0.094 0.137 0.204 0.22 0.294 0.102-0.167 0.106-0.375 0.11-0.568 0.010-0.401-0.025-0.803-0.029-1.206-0.002-0.279 0.055-0.618-0.129-0.852-0.070-0.087-0.17-0.161-0.211-0.266-0.059-0.152-0.099-0.312 0.040-0.429 0.084-0.069 0.187-0.082 0.309-0.039 0.136 0.001 0.272 0.001 0.409 0.002 0.202 0.006 0.372 0.024 0.556 0.117 0.079 0.026 0.139 0.076 0.181 0.15 0.106 0.094 0.161 0.215 0.166 0.365 0.023 0.066 0.045 0.132 0.067 0.197 0.059 0.046 0.119 0.092 0.177 0.137 0.091 0.064 0.269 0.175 0.386 0.22 0.14 0.054 0.335 0.029 0.485 0.025 0.269-0.008 0.452-0.074 0.687-0.185 0.249-0.117 0.523-0.171 0.781-0.266-0.356 0.025-0.692-0.080-1.034-0.171z"></path>
<path d="M4.331 16.159c-0.040 0.125-0.099 0.32-0.207 0.407 0.066-0.041 0.127-0.081 0.192-0.126 0.109-0.075 0.239-0.082 0.346-0.16 0.159-0.112 0.309-0.256 0.49-0.332 0.026-0.011 0.058-0.018 0.081-0.029 0.049-0.023 0.042-0.031 0.081-0.060 0.071-0.051 0.167-0.092 0.259-0.102 0.17-0.018 0.355 0.031 0.522 0.002 0.084-0.014 0.187-0.079 0.257-0.13 0.139-0.1 0.199-0.224 0.202-0.39 0.002-0.134 0.021-0.296-0.029-0.412-0.059-0.136-0.185-0.211-0.251-0.392-0.074 0.012-0.152-0.041-0.221-0.060-0.075-0.020-0.139-0.020-0.219-0.020-0.187 0-0.346 0.001-0.523 0.070-0.139 0.055-0.264 0.144-0.369 0.251-0.047 0.049-0.105 0.079-0.151 0.119-0.051 0.045-0.111 0.111-0.151 0.171-0.035 0.054-0.081 0.126-0.091 0.191-0.014 0.085 0.005 0.125-0.039 0.2-0.030 0.050-0.071 0.1-0.082 0.161-0.006 0.039 0.011 0.081 0.004 0.12-0.006 0.044-0.036 0.076-0.044 0.12-0.021 0.129-0.019 0.281-0.058 0.401z"></path>
<path d="M2.958 12.553c0.076 0.197 0.095 0.425 0.109 0.638 0.011 0.18 0.106 0.326 0.187 0.483 0.075 0.146 0.227 0.332 0.39 0.381 0.166 0.050 0.335 0.056 0.507 0.089 0.090 0.018 0.179 0.008 0.269 0.009 0.127 0.002 0.151-0.027 0.252-0.091 0.065-0.042 0.146-0.061 0.21-0.106 0.072-0.052 0.126-0.134 0.191-0.194 0.114-0.105 0.079-0.265-0.122-0.41-0.001 0.011-0.004 0.023-0.006 0.034-0.247 0.089-0.466-0.154-0.475-0.374-0.006-0.15 0.002-0.284-0.039-0.424-0.029-0.102-0.109-0.164-0.181-0.237-0.082-0.085-0.182-0.149-0.3-0.162-0.125-0.016-0.225-0.040-0.361-0.040h-0.361c-0.149 0-0.384-0.045-0.518 0.008-0.002 0.071 0.111 0.097 0.15 0.152 0.047 0.070 0.069 0.166 0.099 0.244z"></path>
<path d="M5.393 11.068c0.001-0.131-0.036-0.169-0.15-0.241-0.106-0.069-0.222-0.106-0.331-0.169-0.142-0.081-0.295-0.23-0.461-0.232-0.152-0.001-0.364-0.035-0.51 0.008-0.089 0.026-0.18 0.102-0.257 0.149-0.064 0.040-0.161 0.066-0.217 0.124-0.033 0.034-0.041 0.079-0.076 0.112-0.033 0.031-0.096 0.040-0.125 0.080-0.090 0.122 0.114 0.062 0.182 0.112 0.080 0.060 0.134 0.151 0.229 0.207 0.124 0.072 0.246 0.146 0.375 0.206 0.081 0.037 0.141 0.095 0.219 0.146 0.13 0.086 0.29 0.102 0.436 0.15 0.104 0.034 0.197 0.029 0.307 0.029 0.091 0 0.212 0.023 0.3-0.006 0.075-0.025 0.472-0.215 0.284-0.347-0.040-0.027-0.117-0.031-0.165-0.057-0.040-0.021-0.066-0.040-0.099-0.070-0.061-0.055-0.109-0.082 0.060-0.2z"></path>
<path d="M8.214 17.099c0.075-0.091 0.149-0.204 0.245-0.276 0.102-0.075 0.237-0.149 0.35-0.175 0.155-0.035 0.315-0.106 0.446-0.205 0.181-0.137 0.402-0.294 0.459-0.525 0.023-0.094 0.033-0.274 0.011-0.372-0.023-0.107-0.18-0.16-0.242-0.39-0.266 0-0.536-0.029-0.77 0.107-0.107 0.062-0.225 0.151-0.312 0.237-0.054 0.055-0.065 0.066-0.090 0.132-0.033 0.086-0.085 0.181-0.109 0.266-0.016 0.057-0.016 0.1-0.042 0.159-0.033 0.069-0.025 0.107-0.039 0.18-0.014 0.080-0.059 0.154-0.074 0.234-0.012 0.065 0 0.127-0.011 0.191-0.024 0.131-0.037 0.241-0.037 0.377 0 0.11-0.025 0.255 0.009 0.357 0.087-0.016 0.152-0.231 0.207-0.299z"></path>
<path d="M10.483 10.006c-0.001 0.121 0.029 0.224 0.040 0.342 0.008 0.081 0.049 0.090 0.074 0.159 0.023 0.060-0.015 0.114 0.046 0.16 0.21 0.095 0.257 0.147 0.311 0.115 0.057-0.035 0.106-0.154 0.15-0.206 0.1-0.12 0.206-0.235 0.302-0.359 0.117-0.151 0.16-0.405 0.11-0.592-0.057-0.214-0.024-0.446-0.080-0.663-0.018-0.069-0.080-0.159-0.111-0.221-0.042-0.084-0.076-0.2-0.129-0.28-0.025-0.037-0.092-0.119-0.146-0.072-0.024 0.019-0.005 0.101-0.005 0.124-0.001 0.105-0.040 0.225-0.089 0.32-0.061 0.117-0.161 0.201-0.226 0.315-0.039 0.067-0.019 0.059-0.087 0.115-0.050 0.042-0.051 0.076-0.079 0.122-0.037 0.064-0.076 0.087-0.084 0.161-0.004 0.039 0.002 0.081 0.002 0.12 0 0.114 0.001 0.227 0 0.341z"></path>
<path d="M12.639 8.334c-0.106-0.051-0.2-0.087-0.311-0.121-0.064-0.020-0.159-0.051-0.204-0.096 0.019 0.199 0.004 0.407 0.002 0.607-0.001 0.189 0.070 0.355 0.191 0.502 0.046 0.056 0.099 0.096 0.139 0.156 0.054 0.080 0.11 0.161 0.161 0.242 0.040 0.062 0.086 0.125 0.159 0.154 0.041 0.015 0.079 0.015 0.112 0.031 0.041 0.019 0.049 0.065 0.114 0.064 0.001 0.011 0.004 0.023 0.126 0.072-0.011-0.064 0.034-0.125 0.050-0.185 0.026-0.090 0.045-0.189 0.062-0.281 0.018-0.095 0.008-0.197 0.008-0.295 0-0.090 0.020-0.196 0.002-0.282-0.016-0.082-0.082-0.131-0.121-0.197-0.12-0.202-0.284-0.27-0.491-0.371z"></path>
<path d="M12.18 6.298c0.112 0.027 0.216 0.060 0.326 0.099 0.215 0.077 0.472 0.067 0.703 0.101-0.002-0.076 0.009-0.136-0.019-0.211-0.020-0.055-0.047-0.096-0.062-0.151-0.026-0.092-0.041-0.17-0.040-0.279 0.002-0.092-0.006-0.129-0.040-0.21-0.025-0.065-0.025-0.101-0.039-0.162-0.019-0.086-0.055-0.134-0.11-0.197-0.089-0.101-0.122-0.151-0.252-0.202-0.079-0.031-0.159-0.099-0.24-0.111-0.051-0.009-0.1 0.004-0.15-0.008-0.037-0.008-0.070-0.031-0.121-0.032-0.084-0.001-0.097 0.001-0.17-0.039-0.054-0.030-0.079-0.070-0.139-0.020-0.070 0.059-0.010 0.274-0.045 0.361-0.027 0.067-0.050 0.069-0.056 0.149-0.005 0.067-0.026 0.11-0.037 0.172-0.044 0.246 0.065 0.415 0.217 0.596 0.081 0.096 0.159 0.116 0.274 0.145z"></path>
<path d="M10.683 17.742c-0.001 0.062-0.005 0.104-0.020 0.164-0.030 0.122 0.004 0.256-0.042 0.375 0.044-0.029 0.067-0.112 0.102-0.157 0.037-0.049 0.087-0.091 0.121-0.144 0.075-0.119 0.145-0.204 0.28-0.259 0.136-0.055 0.3-0.125 0.421-0.212 0.089-0.064 0.172-0.129 0.265-0.189 0.041-0.027 0.096-0.065 0.126-0.106 0.182-0.249 0.271-0.568 0.271-0.871 0-0.077 0.011-0.169 0.001-0.246-0.006-0.040-0.021-0.14-0.049-0.17-0.041-0.046-0.144-0.074-0.2-0.089-0.151-0.037-0.222-0.066-0.355 0.040-0.024 0.109-0.241 0.11-0.321 0.16-0.1 0.062-0.202 0.149-0.271 0.244-0.050 0.067-0.1 0.154-0.12 0.239-0.012 0.054-0.002 0.105-0.018 0.159-0.020 0.075-0.054 0.145-0.071 0.222-0.026 0.114-0.034 0.205-0.039 0.324-0.004 0.070-0.035 0.129-0.044 0.197-0.006 0.052 0.010 0.107-0.001 0.16-0.014 0.060-0.036 0.095-0.037 0.16z"></path>
<path d="M3.478 8.575c0.097 0.027 0.219 0.008 0.32 0.008h0.485c0.236 0 0.508 0.010 0.51-0.561-0.004-0.152-0.040-0.231-0.121-0.362-0.032-0.052-0.052-0.085-0.101-0.117-0.031-0.009-0.060-0.021-0.087-0.037-0.041-0.036-0.082-0.072-0.124-0.109-0.101-0.056-0.224-0.084-0.327-0.145-0.129-0.075-0.251-0.109-0.394-0.151-0.224-0.066-0.496-0.055-0.731-0.041-0.049 0.004-0.075 0.021-0.12 0.032-0.055 0.014-0.105 0.004-0.16 0.018-0.107 0.027-0.23 0.002-0.177 0.131 0.019 0.047 0.070 0.101 0.095 0.147 0.052 0.091 0.096 0.187 0.152 0.276 0.085 0.132 0.172 0.246 0.242 0.39 0.102 0.216 0.294 0.453 0.538 0.522z"></path>
<path d="M8.268 5.376c0.062 0.134 0.165 0.175 0.291 0.16 0.094 0.026 0.224-0.147 0.282-0.2 0.094-0.084 0.157-0.16 0.19-0.281 0.067-0.252 0.134-0.51 0.169-0.768 0.019-0.149 0.041-0.282 0.041-0.435 0-0.104-0.001-0.207 0-0.311 0.001-0.119-0.042-0.217-0.071-0.33-0.019-0.070 0.031-0.27-0.111-0.195-0.046 0.024-0.087 0.142-0.119 0.186-0.034 0.046-0.072 0.087-0.101 0.139-0.035 0.060-0.049 0.132-0.087 0.191-0.037 0.059-0.087 0.1-0.122 0.161-0.109 0.185-0.26 0.335-0.351 0.53-0.034 0.072-0.049 0.145-0.070 0.224-0.012 0.050-0.040 0.080-0.051 0.125-0.026 0.102 0.002 0.254 0.001 0.361-0.002 0.162 0.042 0.299 0.11 0.444z"></path>
<path d="M17.459 5.298c0.145-0.026 0.317-0.069 0.452-0.121 0.155-0.060 0.215-0.164 0.335-0.265 0.075-0.064 0.131-0.116 0.192-0.187 0.071-0.082 0.166-0.136 0.225-0.23 0.049-0.077 0.065-0.162 0.106-0.242 0.029-0.058 0.075-0.095 0.094-0.156 0.020-0.067 0.026-0.171 0.039-0.245 0.011-0.065 0.034-0.134 0.041-0.2 0.014-0.126-0.009-0.259 0.001-0.386-0.025 0.025-0.065 0.036-0.094 0.055-0.045 0.027-0.054 0.054-0.11 0.082-0.124 0.062-0.232 0.102-0.369 0.139-0.182 0.046-0.382 0.077-0.555 0.15-0.061 0.026-0.109 0.070-0.17 0.095-0.074 0.030-0.155 0.026-0.23 0.050-0.109 0.034-0.286 0.102-0.365 0.187-0.024 0.018-0.037 0.040-0.042 0.069-0.029 0.036-0.065 0.062-0.107 0.081-0.044 0.052-0.030 0.066-0.054 0.13-0.024 0.062-0.075 0.102-0.095 0.17-0.020 0.065-0.019 0.124-0.017 0.191 0.001 0.13 0 0.261 0 0.391-0.019 0.299 0.626 0.26 0.722 0.242z"></path>
<path d="M13.999 3.566c0.018 0.045 0.044 0.066 0.054 0.116 0.009 0.054-0.005 0.109 0.006 0.162 0.005 0.024 0.025 0.056 0.031 0.089 0.020 0.109 0.037 0.206 0.095 0.301 0.121 0.199 0.432 0.305 0.651 0.361 0.095 0.025 0.195 0.002 0.287 0.029 0.030 0.008 0.050 0.026 0.089 0.032 0.050 0.006 0.109-0.001 0.321-0.001 0-0.082 0.015-0.182-0.002-0.261-0.019-0.080-0.071-0.164-0.096-0.244-0.076-0.239-0.22-0.395-0.424-0.528-0.175-0.116-0.377-0.152-0.561-0.251-0.101-0.054-0.212-0.111-0.322-0.161-0.091-0.041-0.179-0.060-0.24-0.144 0.006 0.122 0.041 0.197 0.074 0.315 0.018 0.064 0.014 0.122 0.037 0.185z"></path>
<path d="M22.229 10.546c-0.008-0.036-0.031-0.064-0.039-0.099s0.006-0.067 0-0.101c-0.012-0.066-0.072-0.116-0.112-0.169-0.044-0.057-0.094-0.116-0.131-0.175-0.050-0.079-0.092-0.111-0.161-0.176-0.061-0.057-0.116-0.124-0.161-0.192-0.032-0.051-0.062-0.132-0.136-0.069-0.044 0.037-0.059 0.186-0.064 0.241-0.010 0.109-0.066 0.194-0.082 0.301-0.025 0.17 0.002 0.37 0.002 0.543 0 0.081-0.010 0.17 0.010 0.247 0.012 0.049 0.058 0.119 0.081 0.17 0.049 0.102 0.071 0.12 0.19 0.121 0.094 0.001 0.187-0.001 0.561-0.081-0.019-0.185 0.079-0.372 0.042-0.562z"></path>
<path d="M27.707 12.103c-0.016-0.047-0.050-0.066-0.079-0.102-0.036-0.046-0.047-0.081-0.070-0.134-0.049-0.109-0.059-0.231-0.085-0.355-0.054-0.247-0.286-0.431-0.497-0.545-0.215-0.117-0.435-0.204-0.658-0.289-0.129-0.050-0.227-0.051-0.364-0.051-0.159-0.001-0.277-0.031-0.401 0.080-0.074 0.387 0.15 0.895 0.627 1.117 0.102 0.047 0.189 0.092 0.305 0.115 0.132 0.026 0.274 0.054 0.395 0.121 0.1 0.055 0.146 0.049 0.272 0.050 0.096 0 0.191-0.001 0.287 0 0.077 0 0.196 0.024 0.267-0.008z"></path>
<path d="M26.055 14.238c0.017 0.076 0.024 0.152 0.049 0.227 0.021 0.062 0.064 0.116 0.084 0.179 0.024 0.071 0.014 0.135 0.046 0.204 0.027 0.059 0.077 0.121 0.121 0.169 0.167 0.187 0.425 0.339 0.675 0.381 0.075 0.014 0.129 0.033 0.206 0.047 0.094 0.019 0.226 0.162 0.32 0.146-0.021-0.050-0.086-0.090-0.117-0.15-0.051-0.099-0.095-0.191-0.156-0.284-0.082-0.124-0.147-0.237-0.186-0.384-0.024-0.092-0.002-0.186-0.021-0.279-0.011-0.052-0.035-0.085-0.037-0.141-0.002-0.046 0.008-0.092-0.002-0.14-0.023-0.107-0.079-0.231-0.127-0.331-0.056-0.115-0.139-0.139-0.261-0.18-0.104-0.036-0.197-0.052-0.299-0.1-0.12-0.056-0.222-0.050-0.352-0.050 0.11 0.002 0.099 0.005 0.089 0.008-0.004 0.049-0.040 0.066-0.050 0.109-0.012 0.047 0.001 0.114 0.001 0.162 0.001 0.137-0.010 0.272 0.020 0.406z"></path>
<path d="M24.682 17.292c-0.040 0.076-0.058 0.152-0.089 0.23-0.019 0.045-0.087 0.107-0.079 0.155 0.119 0.040 0.266-0.137 0.36-0.187 0.116-0.062 0.166-0.136 0.249-0.24 0.024-0.011 0.045-0.026 0.062-0.047 0.006-0.026 0.012-0.054 0.016-0.081 0.020-0.055 0.051-0.106 0.071-0.161 0.040-0.107 0.065-0.21 0.090-0.32 0.058-0.257 0.115-0.537 0.041-0.803-0.039-0.137-0.069-0.219-0.171-0.32-0.095-0.094-0.169-0.144-0.441-0.521-0.29 0.329-0.239 0.895-0.080 1.263 0.079 0.184 0.040 0.446 0.040 0.652 0 0.156 0.005 0.235-0.070 0.381z"></path>
<path d="M22.756 16.587c0.062-0.050 0.112-0.189 0.152-0.26 0.050-0.089 0.122-0.161 0.172-0.251 0.101-0.182 0.109-0.356 0.107-0.56 0-0.106 0.014-0.219-0.017-0.321-0.017-0.056-0.049-0.1-0.072-0.15-0.008-0.016-0.027-0.071-0.036-0.081-0.029-0.029-0.080-0.037-0.114-0.057-0.040-0.024-0.071-0.061-0.111-0.082-0.075-0.041-0.16-0.029-0.25-0.029 0.019-0.052 0.027-0.076 0.031-0.086-0.035 0.006-0.081-0.006-0.114 0.012-0.039 0.021-0.046 0.084-0.075 0.115-0.052 0.055-0.082 0.040-0.126 0.115-0.030 0.054-0.040 0.124-0.039 0.184 0.001 0.086 0.035 0.152 0.051 0.241 0.017 0.096 0.056 0.166 0.11 0.244 0.050 0.072 0.096 0.151 0.152 0.22 0.012 0.015 0.050 0.050 0.060 0.066 0.029 0.046 0.020 0.071 0.037 0.13 0.031 0.109 0.074 0.164 0.071 0.281-0.001 0.084-0.017 0.191 0.009 0.27z"></path>
<path d="M22.619 14.709c0.001 0 0.001 0 0.002 0 0.001-0.006 0.001-0.011-0.002 0z"></path>
<path d="M27.218 8.583c-0.149 0-0.304-0.023-0.444 0.039-0.059 0.026-0.107 0.047-0.167 0.070-0.055 0.021-0.099 0.062-0.15 0.084-0.082 0.034-0.159 0.046-0.239 0.095-0.081 0.051-0.151 0.124-0.231 0.176-0.087 0.056-0.189 0.079-0.272 0.137 0.249 0.012 0.165 0.171 0.344 0.257 0.052 0.025 0.109 0.025 0.162 0.047 0.067 0.030 0.101 0.050 0.177 0.056 0.117 0.011 0.209 0.041 0.335 0.040 0.091 0 0.194 0.012 0.284 0.001 0.096-0.011 0.209-0.055 0.301-0.080 0.111-0.030 0.217-0.092 0.314-0.152 0.037-0.024 0.062-0.059 0.094-0.080 0.054-0.037 0.12-0.050 0.176-0.089 0.059-0.040 0.095-0.084 0.169-0.114 0.055-0.023 0.115-0.029 0.167-0.057-0.076-0.171-0.194-0.311-0.362-0.41-0.075-0.044-0.19-0.021-0.276-0.021-0.126 0-0.254 0-0.381 0z"></path>
<path d="M25.034 6.056c0.015 0.049-0.002 0.072 0.026 0.122 0.046 0.080 0.156 0.195 0.334 0.080 0.145 0.087 0.299 0.035 0.401-0.097 0.1-0.13 0.072-0.274 0.111-0.424 0.031-0.12 0.026-0.315 0.011-0.439-0.025-0.204-0.119-0.395-0.264-0.545-0.040-0.042-0.125-0.171-0.179-0.182-0.11-0.024-0.135 0.154-0.181 0.225-0.124 0.189-0.149 0.396-0.241 0.598-0.075 0.166-0.090 0.418-0.056 0.6 0.004 0.024 0.030 0.035 0.037 0.061z"></path>
<path d="M26.797 7.381c0.079 0.016 0.18-0.050 0.245-0.069 0.109-0.034 0.22-0.062 0.317-0.121 0.072-0.042 0.096-0.106 0.159-0.161 0.059-0.051 0.145-0.115 0.182-0.189 0.079-0.151 0.006-0.416-0.051-0.552-0.032-0.075-0.074-0.14-0.114-0.212-0.081-0.152-0.205-0.255-0.289-0.399-0.054 0.047-0.084 0.116-0.129 0.171-0.035 0.040-0.085 0.070-0.121 0.109-0.080 0.082-0.117 0.209-0.12 0.321-0.001 0.056 0.011 0.125 0.002 0.18-0.015 0.085-0.064 0.166-0.082 0.251-0.036 0.166-0.101 0.246-0.24 0.35z"></path>
<path d="M22.676 3.537c0.071 0.027 0.127 0.105 0.175 0.16 0.077 0.095 0.16 0.191 0.22 0.297 0.052 0.095 0.114 0.212 0.149 0.309 0.032 0.089 0.052 0.177 0.091 0.264 0.023 0.051 0.061 0.129 0.070 0.175 0.031 0.147 0.010 0.322 0.010 0.475 0.244 0.161 0.365 0.184 0.471 0.11 0.135-0.091 0.23-0.225 0.3-0.367 0.076-0.152 0.070-0.276 0.070-0.442 0-0.167 0.010-0.342-0.047-0.502-0.055-0.149-0.165-0.216-0.272-0.322-0.107-0.105-0.244-0.125-0.38-0.16-0.067-0.018-0.16-0.034-0.231-0.041-0.046-0.005-0.095 0.009-0.141 0.004-0.058-0.005-0.11-0.030-0.167-0.039-0.104-0.014-0.352-0.041-0.422 0.037 0.014 0.061 0.061 0.026 0.106 0.044z"></path>
<path d="M22.147 5.657c-0.049-0.067-0.087-0.066-0.142-0.119-0.036-0.036-0.046-0.115-0.067-0.161-0.039-0.084-0.082-0.159-0.112-0.245-0.021-0.056-0.026-0.114-0.042-0.176-0.035-0.142-0.036-0.271-0.036-0.421 0-0.156 0.036-0.367-0.005-0.517-0.126-0.050-0.171 0.062-0.26 0.116-0.111 0.069-0.186 0.137-0.252 0.256-0.109 0.191-0.064 0.387-0.115 0.586-0.047 0.182-0.014 0.376 0.102 0.522 0.111 0.14 0.357 0.201 0.931 0.159z"></path>
<path d="M20.264 4.535c-0.011 0.134-0.099 0.259-0.081 0.401l-0.040 0.2c0.105-0.001 0.192 0 0.282-0.069 0.058-0.044 0.104-0.136 0.146-0.197 0.054-0.079 0.155-0.197 0.175-0.294 0.017-0.086-0.004-0.195-0.002-0.282 0.002-0.12-0.029-0.177-0.080-0.28-0.042-0.085-0.070-0.146-0.16-0.181-0.067-0.025-0.151-0.029-0.221-0.062-0.066-0.033-0.176-0.167-0.255-0.154-0.056 0.249 0.142 0.401 0.216 0.617 0.031 0.090 0.027 0.206 0.020 0.301z"></path>
<path d="M17.815 7.289c0.145 0.079 0.355 0.189 0.685 0.131 0.066-0.055 0.040-0.164 0.040-0.239-0.001-0.129-0.001-0.257 0-0.386 0.001-0.166-0.074-0.237-0.217-0.312-0.136-0.072-0.277-0.089-0.425-0.134-0.15-0.047-0.347-0.164-0.404-0.324 0.012 0.206 0.010 0.394 0.062 0.597 0.020 0.081 0.056 0.152 0.062 0.236 0.004 0.066-0.005 0.134-0.002 0.2 0.006 0.14 0.089 0.17 0.199 0.23z"></path>
<path d="M21.275 15.447c0.081-0.074 0.201-0.107 0.294-0.169 0.131-0.086 0.261-0.235 0.327-0.374 0.061-0.13 0.072-0.27 0.131-0.39l-0.041-0.2c-0.135 0.002-0.269-0.055-0.399-0.091-0.16-0.045-0.254-0.024-0.402 0.011-0.191 0.046-0.477 0.162-0.553 0.377-0.037 0.106-0.009 0.274-0.008 0.385 0 0.049-0.006 0.1-0.002 0.149 0.009 0.112 0.059 0.141 0.146 0.215 0.032 0.027 0.072 0.087 0.105 0.107 0.045 0.029 0.106 0.025 0.154 0.057 0.102 0.072 0.116 0.142 0.119 0.26-0.010-0.060 0.020-0.134 0.039-0.187 0.023-0.064 0.041-0.105 0.091-0.151z"></path>
<path d="M24.931 13.722c0.059-0.023 0.146-0.012 0.207-0.004-0.031-0.033-0.052-0.187-0.066-0.245-0.020-0.085-0.030-0.13-0.087-0.2-0.116-0.141-0.245-0.267-0.452-0.242-0.145 0.018-0.284 0.097-0.42 0.121-0.059 0.011-0.062 0.006-0.109 0.039-0.069 0.047-0.085 0.074-0.176 0.085-0.075 0.009-0.159-0.023-0.231 0.004-0.001 0.011-0.004 0.023-0.006 0.034 0.189 0.265 0.351 0.37 0.521 0.482 0.079 0.054 0.206 0.117 0.3 0.12 0.106 0.001 0.251-0.042 0.341-0.080 0.065-0.026 0.114-0.089 0.179-0.114z"></path>
<path d="M6.356 8.184c-0.042 0.044-0.102 0.092-0.151 0.129-0.056 0.044-0.174 0.062-0.171 0.15l0.121 0.080c-0.001 0.107-0.002 0.101 0.087 0.159 0.079 0.050 0.136 0.101 0.224 0.134 0.116 0.044 0.27 0.045 0.394 0.025 0.175-0.029 0.246-0.096 0.377-0.199 0.072-0.059 0.094-0.054 0.125-0.139 0.025-0.065 0.036-0.107 0.036-0.18-0.002-0.141 0.008-0.284 0-0.425-0.004-0.084-0.035-0.3-0.089-0.369-0.034-0.044-0.102-0.086-0.142-0.13-0.054-0.059-0.115-0.101-0.189-0.139-0.13-0.065-0.241-0.149-0.359-0.236-0.060-0.044-0.129-0.111-0.21-0.109 0.042 0.049 0.044 0.126 0.069 0.184 0.036 0.081 0.076 0.106 0.077 0.201 0.001 0.126-0.002 0.254 0 0.38 0.001 0.18-0.074 0.352-0.2 0.483z"></path>
<path d="M9.47 6.421c0.025 0.035 0.056 0.042 0.084 0.077 0.039 0.050 0.018 0.152 0.127 0.121 0.25 0.137 0.34 0.059 0.401 0.009 0.084-0.069 0.114-0.116 0.17-0.211 0.056-0.091 0.072-0.126 0.070-0.237-0.001-0.126 0.008-0.245-0.019-0.367-0.034-0.15-0.024-0.209-0.117-0.337-0.049-0.069-0.114-0.107-0.155-0.177-0.1-0.169-0.2-0.371-0.272-0.551 0.019 0.222-0.004 0.453-0.087 0.661-0.037 0.095-0.079 0.176-0.149 0.25-0.070 0.072-0.179 0.139-0.2 0.24-0.031 0.149 0.023 0.282 0.089 0.4 0.021 0.039 0.033 0.087 0.059 0.124z"></path>
<path d="M5.081 4.896c0.016 0.094 0.045 0.192 0.081 0.281 0.031 0.076 0.071 0.242 0.135 0.277 0.031 0.018 0.16 0.026 0.182 0.031 0.085 0.016 0.169 0.029 0.252 0.051 0.112 0.030 0.236 0.069 0.354 0.081 0.164 0.019 0.344-0.001 0.75-0.082-0.008-0.001-0.016-0.004-0.025-0.005 0.069-0.090 0.1-0.185 0.106-0.295 0.005-0.094-0.045-0.132-0.047-0.212-0.077-0.011-0.137-0.060-0.21-0.085-0.075-0.026-0.151-0.025-0.225-0.041-0.047-0.011-0.079-0.040-0.122-0.059-0.056-0.022-0.109-0.020-0.167-0.032-0.085-0.018-0.165-0.064-0.251-0.072-0.086-0.010-0.122 0-0.209-0.039-0.072-0.031-0.144-0.062-0.211-0.1-0.064-0.036-0.141-0.067-0.202-0.11-0.072-0.050-0.119-0.13-0.192-0.179-0.021 0.076-0.006 0.172-0.006 0.252 0 0.112-0.011 0.227 0.009 0.337z"></path>
<path d="M16.453 8.221c-0.009 0.049 0.011 0.104 0.004 0.152-0.015 0.107-0.1 0.186-0.131 0.29-0.065 0.211-0.115 0.431-0.181 0.641-0.027 0.087-0.041 0.162-0.1 0.23-0.051 0.059-0.15 0.13-0.15 0.211 0.117 0.179 0.232 0.152 0.319 0.111 0.101-0.047 0.19-0.085 0.282-0.142 0.091-0.057 0.207-0.081 0.311-0.089 0.114-0.009 0.146-0.064 0.2-0.16 0.129-0.235 0.086-0.533 0.090-0.796 0-0.047 0-0.074-0.009-0.117-0.020-0.010-0.031-0.026-0.034-0.047 0.001-0.029 0.004-0.056 0.005-0.085-0.016-0.069-0.050-0.137-0.101-0.182-0.061-0.054-0.13-0.109-0.201-0.14-0.056-0.025-0.195-0.074-0.255-0.030-0.015 0.011-0.045 0.132-0.049 0.154z"></path>
<path d="M24.464 8.633c-0.041-0.026-0.094-0.031-0.132-0.056-0.069-0.044-0.082-0.127-0.161-0.17-0.070-0.039-0.139-0.025-0.217-0.025-0.161 0.001-0.322 0-0.485 0h-0.367c-0.095 0-0.325-0.046-0.392 0.041-0.241 0.331-0.226 0.445-0.097 0.561 0.067 0.060 0.146 0.092 0.235 0.11 0.086 0.018 0.14 0.011 0.222 0.047 0.069 0.030 0.129 0.077 0.201 0.101 0.169 0.056 0.399 0.026 0.58 0.023 0.287-0.006 0.523-0.149 0.781-0.259 0.054-0.023 0.226-0.065 0.179-0.155-0.021-0.039-0.147-0.074-0.186-0.096-0.056-0.035-0.104-0.087-0.159-0.122z"></path>
</svg>
