<!-- Generated by IcoMoon.io -->
<svg version="1.1" xmlns="http://www.w3.org/2000/svg" width="32" height="32" viewBox="0 0 32 32">
<path d="M11.137 11.103c0.022-0.044 0.090-0.069 0.117-0.111 0.031-0.049 0.042-0.125 0.068-0.177s0.039-0.102 0.061-0.151c0.025-0.056 0.054-0.111 0.070-0.172 0.031-0.12 0.090-0.232 0.158-0.343 0.065-0.106 0.156-0.196 0.244-0.284 0.082-0.081 0.172-0.139 0.253-0.22 0.155-0.156 0.291-0.323 0.447-0.479 0.025 0.018 0.050 0.035 0.076 0.055 0.132 0.105 0.266 0.196 0.406 0.289 0.091 0.061 0.173 0.134 0.261 0.199 0.052 0.038 0.080 0.072 0.121 0.115 0.043 0.044 0.098 0.064 0.141 0.113 0.141 0.161 0.318 0.289 0.487 0.42 0.072 0.056 0.148 0.098 0.213 0.162 0.064 0.063 0.125 0.125 0.194 0.181 0.062 0.051 0.116 0.112 0.168 0.175-0.12 0.118-0.228 0.248-0.356 0.356-0.087 0.074-0.17 0.131-0.268 0.194-0.055 0.035-0.090 0.090-0.147 0.125-0.050 0.031-0.1 0.053-0.147 0.088-0.183 0.134-0.334 0.293-0.528 0.423-0.094 0.063-0.193 0.11-0.284 0.178-0.1 0.075-0.19 0.148-0.279 0.237-0.002 0.002-0.004 0.003-0.005 0.005-0.209-0.192-0.401-0.407-0.622-0.584-0.074-0.059-0.149-0.106-0.22-0.169-0.078-0.069-0.139-0.142-0.211-0.214-0.12-0.12-0.262-0.246-0.399-0.348-0.009-0.007-0.018-0.016-0.027-0.023-0.001-0.015 0-0.031 0.008-0.045zM13.419 8.497c0.067-0.040 0.113-0.025 0.188-0.038 0.066-0.011 0.131-0.044 0.196-0.060 0.073-0.018 0.149-0.026 0.221-0.047 0.057-0.017 0.124-0.057 0.186-0.074 0.073-0.020 0.152-0.047 0.228-0.049 0.077-0.002 0.138-0.030 0.212-0.033 0.076-0.003 0.137-0.030 0.212-0.032 0.070-0.002 0.144 0.011 0.212-0.007 0.13-0.034 0.295-0.042 0.424-0.009 0.059 0.015 0.131 0.039 0.196 0.050 0.066 0.012 0.133-0.002 0.195 0.015 0.129 0.034 0.255 0.046 0.391 0.090 0.108 0.034 0.213 0.071 0.319 0.112-0.050 0.051-0.096 0.105-0.124 0.173-0.035 0.083-0.072 0.164-0.12 0.237-0.057 0.086-0.148 0.138-0.212 0.217-0.065 0.081-0.117 0.17-0.156 0.261-0.080 0.187-0.263 0.34-0.407 0.49-0.129 0.134-0.231 0.287-0.352 0.425-0.001-0.001-0.002-0.002-0.004-0.003-0.072-0.057-0.147-0.112-0.215-0.17-0.151-0.128-0.281-0.272-0.422-0.408-0.135-0.13-0.287-0.238-0.433-0.357-0.144-0.118-0.294-0.22-0.448-0.326-0.136-0.094-0.201-0.26-0.332-0.359-0.018-0.014-0.034-0.028-0.052-0.042 0.033-0.019 0.067-0.037 0.099-0.056zM18.723 9.655c0.094 0.066 0.176 0.156 0.252 0.244 0.037 0.044 0.052 0.091 0.097 0.13 0.058 0.051 0.105 0.098 0.156 0.156 0.036 0.041 0.075 0.080 0.114 0.118-0.029 0.018-0.056 0.036-0.080 0.060-0.032 0.033-0.053 0.078-0.082 0.113-0.034 0.042-0.090 0.098-0.139 0.124-0.044 0.023-0.108 0.021-0.149 0.047-0.076 0.048-0.124 0.144-0.161 0.221-0.049 0.099-0.112 0.199-0.179 0.287-0.023 0.030-0.061 0.048-0.082 0.079-0.024 0.034-0.033 0.064-0.064 0.098-0.080 0.086-0.122 0.182-0.181 0.286-0.054 0.097-0.098 0.186-0.179 0.261-0.086 0.080-0.169 0.158-0.261 0.236-0.091 0.077-0.182 0.155-0.271 0.236-0.031-0.027-0.062-0.056-0.094-0.081-0.084-0.064-0.146-0.141-0.23-0.204-0.048-0.036-0.055-0.085-0.095-0.125-0.044-0.044-0.103-0.065-0.148-0.112-0.042-0.043-0.089-0.076-0.132-0.114s-0.070-0.087-0.112-0.13c-0.081-0.085-0.155-0.194-0.245-0.261-0.2-0.15-0.369-0.333-0.555-0.502-0.068-0.062-0.13-0.128-0.194-0.195-0-0-0.001-0.001-0.002-0.001 0.112-0.084 0.236-0.156 0.345-0.239 0.093-0.070 0.17-0.163 0.266-0.227 0.082-0.054 0.183-0.078 0.261-0.129 0.071-0.046 0.11-0.132 0.179-0.182 0.057-0.042 0.118-0.075 0.172-0.128 0.135-0.136 0.213-0.332 0.334-0.473 0.102-0.12 0.222-0.208 0.291-0.348 0.038 0.030 0.078 0.057 0.116 0.087 0.205 0.163 0.474 0.264 0.693 0.398 0.128 0.078 0.238 0.186 0.36 0.27zM19.724 15.845c-0.024 0.053-0.039 0.107-0.065 0.163-0.014 0.029-0.016 0.040-0.025 0.073-0.008 0.031-0.022 0.056-0.029 0.084-0.011 0.039-0.002 0.075-0.026 0.113-0.023 0.035-0.062 0.049-0.092 0.079-0.048 0.048-0.074 0.108-0.113 0.161-0.067 0.091-0.137 0.182-0.226 0.254-0.124 0.1-0.261 0.163-0.394 0.245-0.059 0.037-0.111 0.091-0.168 0.13-0.054 0.037-0.117 0.050-0.172 0.074-0.121 0.053-0.256 0.094-0.375 0.163-0.117 0.068-0.263 0.052-0.392 0.099-0.034 0.012-0.069 0.020-0.104 0.029-0.019-0.021-0.038-0.042-0.059-0.062-0.175-0.175-0.363-0.33-0.538-0.505-0.074-0.074-0.15-0.145-0.212-0.228-0.080-0.107-0.177-0.172-0.275-0.26-0.071-0.064-0.126-0.157-0.197-0.228-0.084-0.085-0.166-0.185-0.26-0.258-0.061-0.047-0.119-0.094-0.175-0.147 0.009-0.010 0.018-0.021 0.028-0.035 0.020-0.028 0.039-0.056 0.064-0.084 0.081-0.090 0.17-0.158 0.254-0.242 0.066-0.065 0.102-0.148 0.17-0.212 0.073-0.068 0.166-0.107 0.235-0.178 0.059-0.060 0.082-0.127 0.131-0.191 0.019-0.024 0.042-0.066 0.060-0.084 0.026-0.027 0.068-0.053 0.102-0.076 0.060-0.041 0.085-0.081 0.132-0.133 0.054-0.060 0.119-0.131 0.186-0.178 0.099-0.068 0.126-0.12 0.188-0.222 0.055-0.088 0.133-0.156 0.195-0.236 0.045-0.058 0.082-0.126 0.121-0.192 0.051 0.041 0.1 0.084 0.14 0.137 0.060 0.079 0.15 0.13 0.228 0.195 0.071 0.058 0.138 0.122 0.203 0.188 0.060 0.061 0.134 0.108 0.195 0.17 0.089 0.090 0.182 0.176 0.274 0.261 0.031 0.029 0.059 0.068 0.084 0.097 0.028 0.032 0.061 0.065 0.098 0.098 0.072 0.065 0.138 0.133 0.209 0.197 0.149 0.132 0.299 0.271 0.443 0.402 0.076 0.069 0.15 0.143 0.225 0.215-0.026 0.040-0.051 0.080-0.070 0.123zM16.408 17.937c-0.057 0.022-0.099 0.025-0.162 0.041-0.141 0.036-0.29 0.026-0.44 0.025-0.084-0-0.148 0.025-0.228 0.034-0.068 0.008-0.144-0.001-0.212-0.001-0.070 0-0.142 0.003-0.212 0s-0.106-0.035-0.179-0.033c-0.072 0.002-0.124-0.024-0.196-0.032-0.066-0.007-0.105-0.032-0.178-0.033-0.047-0.001-0.071-0.015-0.114-0.026-0.039-0.010-0.075-0.002-0.114-0.010-0.057-0.012-0.115-0.049-0.166-0.060-0.043-0.009-0.084-0.007-0.128-0.019-0.027-0.008-0.057-0.026-0.081-0.033-0.048-0.015-0.097-0.029-0.145-0.052 0.051-0.045 0.105-0.086 0.164-0.126 0.105-0.072 0.13-0.108 0.183-0.221 0.039-0.082 0.109-0.138 0.172-0.203 0.082-0.084 0.111-0.197 0.188-0.287 0.050-0.059 0.115-0.102 0.163-0.161 0.084-0.102 0.142-0.196 0.25-0.276 0.050-0.037 0.1-0.070 0.151-0.103 0.015 0.015 0.031 0.030 0.046 0.045 0.074 0.080 0.159 0.145 0.227 0.227 0.124 0.15 0.249 0.29 0.379 0.424 0.126 0.129 0.27 0.25 0.405 0.375 0.054 0.050 0.095 0.103 0.161 0.138 0.088 0.046 0.163 0.096 0.238 0.163 0.042 0.038 0.081 0.077 0.123 0.112-0.029 0.013-0.058 0.023-0.099 0.033-0.065 0.016-0.138 0.035-0.196 0.057zM11.514 15.991c-0.079-0.080-0.165-0.151-0.22-0.249-0.060-0.106-0.144-0.189-0.22-0.286-0.040-0.052-0.070-0.121-0.106-0.176-0.008-0.013-0.019-0.028-0.029-0.043 0.036-0.039 0.060-0.085 0.101-0.132 0.074-0.086 0.149-0.118 0.189-0.229 0.032-0.090 0.058-0.2 0.117-0.277 0.070-0.092 0.13-0.155 0.181-0.257 0.039-0.079 0.085-0.123 0.151-0.183 0.125-0.114 0.229-0.248 0.368-0.351 0.105-0.078 0.212-0.15 0.321-0.219 0.016 0.009 0.033 0.019 0.049 0.032 0.043 0.032 0.073 0.077 0.117 0.108 0.041 0.029 0.080 0.046 0.111 0.088 0.030 0.040 0.043 0.083 0.084 0.116 0.050 0.042 0.1 0.064 0.148 0.112 0.072 0.072 0.113 0.136 0.195 0.196 0.089 0.064 0.165 0.133 0.244 0.212 0.078 0.077 0.131 0.174 0.212 0.246 0.073 0.064 0.146 0.13 0.205 0.211 0.036 0.050 0.051 0.086 0.105 0.123 0.037 0.026 0.061 0.035 0.090 0.072 0.065 0.082 0.156 0.15 0.235 0.228 0.067 0.066 0.132 0.13 0.196 0.194 0.018 0.018 0.031 0.033 0.045 0.048-0.036 0.038-0.072 0.077-0.111 0.116-0.088 0.087-0.174 0.166-0.28 0.228-0.092 0.054-0.17 0.091-0.242 0.169-0.077 0.084-0.122 0.19-0.227 0.246-0.113 0.060-0.212 0.1-0.286 0.211-0.061 0.092-0.104 0.136-0.196 0.197s-0.155 0.143-0.236 0.213c-0.044 0.038-0.099 0.056-0.147 0.088-0.027 0.018-0.043 0.037-0.056 0.057-0.053-0.036-0.103-0.074-0.146-0.114-0.088-0.082-0.184-0.152-0.269-0.236-0.089-0.088-0.138-0.192-0.195-0.296-0.114-0.206-0.339-0.3-0.497-0.461zM19.617 11.892c0.125-0.104 0.246-0.252 0.359-0.372 0.036-0.039 0.064-0.081 0.089-0.124 0.013 0.024 0.025 0.049 0.041 0.074 0.046 0.072 0.102 0.136 0.139 0.213 0.057 0.12 0.124 0.232 0.163 0.359 0.042 0.136 0.115 0.249 0.167 0.377s0.112 0.272 0.136 0.404c0.012 0.065-0.002 0.146-0.002 0.212 0 0.069 0.010 0.146-0.007 0.212-0.020 0.076-0.031 0.152-0.051 0.228-0.018 0.070-0.006 0.142-0.024 0.212s-0.017 0.137-0.016 0.212c0.001 0.080-0.020 0.136-0.033 0.212s-0.026 0.152-0.048 0.228c-0.020 0.071-0.058 0.141-0.075 0.212-0.030 0.129-0.069 0.243-0.146 0.35-0.013 0.018-0.023 0.036-0.034 0.054-0.028-0.024-0.057-0.048-0.090-0.077-0.045-0.040-0.087-0.087-0.129-0.13-0.048-0.050-0.096-0.067-0.148-0.106-0.099-0.073-0.186-0.164-0.275-0.253-0.087-0.087-0.174-0.174-0.261-0.261-0.106-0.106-0.196-0.215-0.293-0.327-0.086-0.1-0.202-0.165-0.293-0.259-0.048-0.050-0.106-0.083-0.156-0.129-0.065-0.059-0.1-0.134-0.17-0.189-0.055-0.043-0.104-0.094-0.152-0.147 0.072-0.075 0.137-0.158 0.217-0.222 0.087-0.069 0.161-0.136 0.237-0.218 0.129-0.139 0.264-0.28 0.406-0.407 0.084-0.075 0.18-0.126 0.269-0.187 0.062-0.042 0.119-0.1 0.178-0.149zM14.82 11.625c0.068-0.103 0.179-0.163 0.246-0.268 0.009-0.014 0.017-0.029 0.026-0.044 0.078 0.079 0.151 0.165 0.233 0.239 0.068 0.062 0.13 0.131 0.196 0.196 0.076 0.076 0.12 0.191 0.203 0.261 0.041 0.035 0.061 0.055 0.096 0.096 0.039 0.046 0.092 0.056 0.134 0.097s0.046 0.060 0.096 0.090c0.048 0.029 0.085 0.068 0.13 0.105 0.088 0.072 0.159 0.146 0.226 0.23 0.045 0.056 0.114 0.083 0.167 0.13 0.056 0.050 0.108 0.109 0.161 0.163 0.041 0.041 0.085 0.077 0.127 0.115-0.055 0.074-0.136 0.109-0.201 0.169-0.086 0.079-0.108 0.186-0.154 0.286-0.043 0.093-0.152 0.13-0.222 0.212-0.059 0.070-0.102 0.145-0.137 0.225-0.054 0.126-0.097 0.199-0.221 0.272-0.076 0.044-0.159 0.101-0.212 0.178-0.117 0.173-0.236 0.322-0.408 0.439-0.086 0.059-0.147 0.147-0.203 0.233-0.003 0.004-0.006 0.006-0.009 0.010-0.054-0.058-0.096-0.127-0.152-0.179-0.036-0.034-0.078-0.043-0.113-0.088s-0.062-0.088-0.101-0.131c-0.058-0.063-0.1-0.138-0.154-0.204-0.061-0.074-0.131-0.121-0.204-0.185-0.080-0.070-0.175-0.159-0.237-0.246-0.060-0.084-0.129-0.182-0.202-0.253-0.119-0.118-0.246-0.241-0.366-0.364-0.074-0.075-0.146-0.155-0.221-0.23-0.032-0.032-0.060-0.068-0.088-0.104 0.039-0.033 0.076-0.068 0.114-0.1 0.072-0.061 0.14-0.112 0.221-0.154 0.177-0.092 0.354-0.162 0.494-0.302 0.066-0.066 0.13-0.124 0.205-0.18 0.092-0.069 0.139-0.134 0.202-0.228 0.056-0.084 0.144-0.144 0.196-0.226 0.050-0.079 0.075-0.18 0.13-0.262zM9.755 13.598c0.044-0.014 0.101-0.038 0.145-0.051 0.066-0.019 0.137-0.028 0.205-0.043 0.041-0.009 0.070-0.028 0.114-0.030 0.032-0.002 0.066 0.005 0.098 0.001 0.061-0.007 0.115-0.047 0.169-0.059 0.075-0.015 0.096-0.006 0.155-0.056 0.033-0.028 0.058-0.036 0.069-0.081 0.007-0.030-0.004-0.060 0.005-0.091 0.009-0.033 0.036-0.043 0.027-0.090-0.005-0.028-0.027-0.043-0.032-0.067-0.016-0.082 0.051-0.121 0.064-0.191 0.006-0.032-0.006-0.066 0.002-0.099 0.009-0.040 0.023-0.074 0.030-0.115 0.006-0.035 0.023-0.054 0.030-0.084 0.008-0.037-0.002-0.074 0.002-0.112 0.006-0.056 0.026-0.105 0.040-0.162 0.001-0.004 0.002-0.008 0.003-0.013 0.213 0.198 0.442 0.381 0.629 0.6 0.113 0.132 0.246 0.252 0.387 0.358 0.032 0.024 0.062 0.050 0.094 0.075-0.077 0.084-0.16 0.164-0.233 0.253-0.123 0.151-0.235 0.281-0.398 0.389-0.115 0.077-0.201 0.154-0.288 0.262-0.056 0.070-0.097 0.139-0.16 0.203-0.070 0.070-0.149 0.131-0.229 0.191-0.023-0.051-0.046-0.102-0.073-0.154-0.034-0.066-0.051-0.122-0.068-0.19-0.009-0.035-0.029-0.112-0.061-0.136-0.013 0.016-0.105 0.047-0.129 0.053-0.063 0.015-0.133-0.011-0.197 0.006-0.039 0.010-0.055 0.024-0.098 0.026-0.019 0.001-0.047-0.007-0.067-0.002-0.032 0.007-0.103 0.044-0.122 0.073-0.030 0.047-0.006 0.166-0.006 0.221-0.001 0.069 0.021 0.073 0.034 0.129 0.015 0.062-0.018 0.137-0.003 0.199 0.007 0.029 0.029 0.032 0.036 0.062s-0.004 0.069-0.002 0.099c0.003 0.070 0.033 0.123 0.033 0.195 0 0.053 0.010 0.119 0.032 0.164 0.022 0.044 0.045 0.085 0.066 0.131 0.026 0.058 0.024 0.098 0.040 0.161 0.018 0.069 0.030 0.131 0.058 0.194 0.020 0.046 0.059 0.115 0.067 0.165 0.005 0.032-0.010 0.068-0.003 0.099 0.007 0.029 0.026 0.034 0.035 0.062 0.016 0.054 0.041 0.121 0.057 0.172 0.061 0.195 0.196 0.382 0.332 0.546 0.055 0.067 0.127 0.116 0.164 0.194 0.026 0.053 0.032 0.081 0.073 0.124 0.073 0.076 0.151 0.13 0.229 0.196 0.17 0.144 0.325 0.31 0.489 0.456 0.174 0.154 0.336 0.31 0.544 0.406 0.22 0.102 0.418 0.238 0.652 0.293 0.068 0.016 0.141 0.067 0.203 0.083 0.032 0.008 0.062-0.002 0.092 0.006 0.014 0.003 0.032 0.026 0.038 0.027 0.066 0.013 0.126 0.011 0.19 0.040 0.045 0.020 0.092 0.042 0.136 0.057 0.062 0.021 0.119 0.033 0.181 0.048 0.042 0.010 0.103 0.040 0.145 0.051 0.1 0.026 0.194 0.067 0.293 0.098 0.064 0.020 0.117 0.030 0.181 0.047 0.026 0.007 0.036 0.022 0.072 0.026 0.021 0.002 0.045-0.006 0.066-0.002 0.126 0.022 0.232 0.068 0.358 0.067 0.13-0.001 0.261 0.001 0.391 0 0.077-0 0.123 0.020 0.196 0.034 0.059 0.012 0.081-0.025 0.129-0.036 0.074-0.017 0.158-0.012 0.231-0.029 0.050-0.011 0.070-0.035 0.129-0.034 0.075 0.001 0.126-0.007 0.195-0.026 0.065-0.017 0.13 0.002 0.196-0.006 0.064-0.008 0.091-0.034 0.162-0.033 0.065 0.001 0.13-0.001 0.195-0 0.077 0 0.124-0.022 0.196-0.034 0.050-0.009 0.113 0.002 0.163 0.002 0.039 0 0.094 0.011 0.132 0.002 0.030-0.007 0.032-0.029 0.062-0.036 0.048-0.012 0.114 0.002 0.165 0.002 0.063 0 0.134 0.009 0.196 0.001 0.060-0.008 0.099-0.025 0.163-0.032s0.093-0.030 0.162-0.032c0.064-0.003 0.132-0.026 0.195-0.041 0.053-0.012 0.114-0.040 0.162-0.057 0.054-0.019 0.115-0.030 0.165-0.057 0.078-0.042 0.149-0.107 0.223-0.157l0.199 0.017c0.018 0 0.037 0.001 0.055 0.002-0.051-0.018-0.101-0.046-0.152-0.075 0.085-0.038 0.159-0.080 0.235-0.146s0.181-0.104 0.261-0.162c0.058-0.042 0.134-0.121 0.178-0.178 0.139-0.181 0.266-0.36 0.399-0.547 0.068-0.096 0.146-0.151 0.237-0.22 0.080-0.061 0.146-0.141 0.219-0.211 0.171-0.162 0.325-0.307 0.465-0.507 0.050-0.071 0.106-0.14 0.156-0.211 0.109 0.001 0.113-0.107 0.115-0.221 0.005-0.011 0.009-0.022 0.014-0.032 0.022-0.044 0.054-0.081 0.074-0.129 0.008-0.019 0.016-0.040 0.024-0.059 0.011-0.001 0.018-0.007 0.032-0.006 0-0.010-0.005-0.017-0.008-0.025 0.009 0.009 0.019 0.018 0.028 0.028-0.009-0.009-0.019-0.019-0.028-0.028-0.002-0.004-0.002-0.010-0.005-0.014 0.031-0.078 0.064-0.155 0.111-0.222 0.056-0.079 0.090-0.169 0.13-0.259 0.020-0.044 0.019-0.091 0.032-0.134 0.003-0.010 0.025-0.032 0.026-0.038 0.012-0.060 0.002-0.121 0.014-0.181 0.004-0.017 0.021-0.048 0.025-0.072 0.007-0.035 0.016-0.064 0.025-0.099 0.014-0.055-0.001-0.108 0.006-0.164 0.006-0.045 0.026-0.056 0.035-0.095 0.007-0.029-0.001-0.062 0.006-0.092 0.004-0.021 0.022-0.041 0.026-0.072 0.004-0.032-0.006-0.067-0.002-0.099 0.007-0.052 0.028-0.077 0.034-0.129 0.004-0.032-0.009-0.068-0.002-0.099 0.008-0.036 0.030-0.062 0.036-0.098 0.007-0.044-0.006-0.085 0.006-0.13 0.006-0.024 0.022-0.040 0.027-0.065 0.010-0.060-0.002-0.134-0.002-0.196 0-0.119 0-0.239 0-0.358-0-0.085-0.005-0.149-0.025-0.228-0.016-0.062-0.002-0.126-0.015-0.188-0.001-0.007-0.024-0.024-0.027-0.038-0.007-0.030 0.004-0.069 0.002-0.1-0.002-0.042-0.016-0.059-0.026-0.098-0.009-0.035 0-0.063-0.005-0.098-0.011-0.070-0.037-0.142-0.051-0.212-0.005-0.026-0.011-0.057-0.016-0.082-0.005-0.023-0.022-0.055-0.025-0.072-0.022-0.108-0.026-0.203-0.047-0.311-0.005-0.026-0.024-0.072-0.032-0.105-0.007-0.028-0.017-0.073-0.025-0.099-0.015-0.052-0.048-0.107-0.067-0.162-0.035-0.102-0.056-0.22-0.097-0.325-0.046-0.118-0.055-0.232-0.106-0.351-0.039-0.092-0.098-0.177-0.147-0.267-0.006-0.010-0.010-0.020-0.016-0.031 0.001-0.006 0.006-0.012 0.006-0.018 0.001-0.027-0.028-0.054-0.033-0.082-0.004-0.020 0.008-0.047 0.004-0.067-0.009-0.036-0.031-0.040-0.033-0.078-0.001-0.030 0.034-0.050 0.034-0.083 0-0.038-0.038-0.112-0.051-0.147-0.041-0.103-0.076-0.206-0.115-0.31-0.040-0.108-0.048-0.211-0.179-0.229-0.096-0.013-0.198 0.032-0.275 0.084-0.020-0.019-0.040-0.039-0.059-0.058-0.033-0.034-0.066-0.039-0.098-0.065-0.113-0.088-0.195-0.22-0.3-0.319-0.082-0.077-0.156-0.135-0.22-0.228-0.117-0.17-0.295-0.316-0.448-0.456-0.1-0.092-0.231-0.127-0.335-0.202-0.031-0.022-0.049-0.061-0.080-0.083-0.035-0.025-0.093-0.043-0.13-0.063-0.071-0.039-0.154-0.077-0.235-0.109 0.006-0.010 0.014-0.020 0.016-0.029 0.012-0.043-0.004-0.096-0.018-0.132-0.024-0.060-0.030-0.042-0.074-0.072-0.017-0.011-0.063-0.038-0.075-0.049-0.025-0.023-0.017-0.032-0.035-0.054-0.031-0.038-0.042-0.040-0.086-0.061-0.067-0.031-0.106-0.080-0.162-0.13-0.121-0.107-0.144 0.001-0.236 0.067-0.031 0.022-0.089 0.026-0.123 0.046s-0.075 0.049-0.107 0.074c-0.012 0.010-0.022 0.021-0.032 0.031-0.065-0.026-0.129-0.052-0.194-0.072-0.132-0.040-0.263-0.060-0.392-0.107-0.105-0.038-0.214-0.043-0.325-0.072-0.123-0.031-0.23-0.056-0.358-0.058-0.064-0.001-0.128 0.012-0.192 0.028-0.205-0.040-0.415-0.079-0.616-0.095-0.13-0.010-0.267 0.002-0.398 0.002-0.099 0-0.231-0.024-0.327-0.002-0.081 0.019-0.161 0.087-0.243 0.117-0.050 0.018-0.093 0.016-0.147 0.015-0.055-0.001-0.075 0.022-0.117 0.030-0.091 0.016-0.148 0.030-0.234 0.077-0.064 0.035-0.14 0.095-0.21 0.114-0.086 0.022-0.165 0.014-0.246 0.046-0.070 0.028-0.129 0.101-0.203 0.133-0.073 0.031-0.146 0.055-0.214 0.089-0.146 0.074-0.289 0.112-0.437 0.187-0.006 0.003-0.012 0.006-0.017 0.008-0.028-0.018-0.056-0.033-0.080-0.035-0.052-0.005-0.054 0.026-0.097 0.037-0.047 0.011-0.116-0.001-0.164-0.002-0.127-0.002-0.106 0.032-0.129 0.132-0.014 0.063-0.052 0.114-0.063 0.177-0.1 0.078-0.202 0.156-0.313 0.213-0.079 0.040-0.162 0.085-0.22 0.154-0.041 0.049-0.068 0.101-0.114 0.147-0.065 0.064-0.129 0.118-0.188 0.189-0.042 0.050-0.074 0.107-0.121 0.153-0.062 0.060-0.127 0.108-0.179 0.179-0.050 0.067-0.085 0.143-0.139 0.205-0.098 0.112-0.201 0.182-0.257 0.326-0.033 0.084-0.047 0.157-0.101 0.231-0.045 0.061-0.091 0.12-0.123 0.185-0.033 0.067-0.070 0.144-0.074 0.22-0.005 0.096-0.021 0.14-0.056 0.229-0.012 0.030-0.036 0.066-0.042 0.095-0.010 0.042 0.012 0.090 0.003 0.132-0.017 0.085-0.050 0.165-0.084 0.245-0.028 0.066-0.056 0.126-0.084 0.191s-0.041 0.137-0.069 0.208c-0.064 0.163-0.104 0.328-0.148 0.496-0.042 0.159 0.013 0.342-0.006 0.505-0.006 0.053-0.032 0.092-0.035 0.146-0.002 0.037 0.007 0.077 0.002 0.114-0.006 0.046-0.029 0.084-0.035 0.13-0.005 0.036 0.001 0.077 0.001 0.114 0 0.149 0.034 0.354-0.029 0.482 0.053 0.025 0.134-0.017 0.185-0.033z"></path>
<path d="M9.314 15.722c-0.042-0.087-0.056-0.168-0.071-0.26-0.014-0.090-0.073-0.178-0.098-0.26-0.014-0.045-0.048-0.098-0.059-0.138s-0.006-0.077-0.015-0.116c-0.004-0.022-0.022-0.040-0.026-0.071-0.003-0.022 0.008-0.046 0.002-0.068-0.006-0.025-0.027-0.028-0.032-0.050-0.007-0.035-0.004-0.074-0.003-0.111 0.002-0.129-0.097-0.406-0.235-0.449-0.030-0.009-0.060-0.022-0.090-0.032 0.001-0.036 0.002-0.071 0-0.106-0.004-0.070-0.034-0.122-0.033-0.195 0.001-0.048-0.012-0.118-0.002-0.165 0.008-0.036 0.049-0.070 0.059-0.103 0.017-0.057 0.005-0.105-0.009-0.156-0.019-0.071-0.014-0.105 0.012-0.179 0.020-0.058 0.060-0.12 0.071-0.179 0-0.001-0.001-0.002-0-0.004 0.017-0.023 0.035-0.046 0.056-0.070 0.061-0.068 0.046-0.169 0.072-0.252 0.016-0.052 0.021-0.099 0.033-0.149s0.046-0.093 0.059-0.146c0.022-0.090 0.012-0.192 0.006-0.276-0.004-0.059 0.012-0.095 0.026-0.148 0.016-0.061 0.007-0.132 0.007-0.196 0-0.216 0.065-0.384 0.159-0.574 0.021-0.043 0.032-0.062 0.038-0.109 0.003-0.026-0.008-0.058-0.002-0.084 0.005-0.022 0.022-0.038 0.027-0.055 0.030-0.096 0.038-0.195 0.073-0.285 0.028-0.072 0.058-0.155 0.080-0.229 0.031-0.105 0.094-0.167 0.156-0.252 0.046-0.062 0.080-0.133 0.13-0.196 0.062-0.078 0.114-0.191 0.139-0.286 0.023-0.089 0.044-0.162 0.081-0.243 0.044-0.097 0.051-0.21 0.090-0.303 0.034-0.081 0.1-0.149 0.155-0.221 0.060-0.080 0.114-0.172 0.179-0.252 0.052-0.065 0.135-0.108 0.187-0.177 0.072-0.094 0.093-0.178 0.19-0.253 0.042-0.033 0.084-0.058 0.119-0.097 0.042-0.047 0.056-0.113 0.096-0.157 0.064-0.070 0.163-0.099 0.23-0.162 0.070-0.066 0.126-0.134 0.213-0.18 0.081-0.043 0.157-0.099 0.235-0.154 0.065-0.046 0.118-0.11 0.194-0.131 0.058-0.017 0.088-0.024 0.139-0.056 0.047-0.030 0.092-0.060 0.138-0.090 0.174-0.11 0.366-0.177 0.546-0.236 0.198-0.065 0.39-0.122 0.578-0.204 0.049-0.021 0.113-0.058 0.164-0.067 0.042-0.007 0.088 0.011 0.13 0.003 0.121-0.022 0.239-0.064 0.358-0.092 0.092-0.022 0.161-0.040 0.261-0.040 0.116 0 0.216-0.005 0.326-0.032 0.054-0.013 0.105-0.050 0.165-0.035 0.051 0.013 0.065 0.035 0.129 0.034 0.105-0.002 0.223-0.014 0.326-0.001 0.052 0.007 0.077 0.027 0.129 0.034 0.048 0.006 0.099-0.003 0.147-0.001 0.058 0.003 0.092 0.025 0.147 0.035 0.075 0.014 0.101-0.021 0.161-0.036 0.047-0.011 0.103 0.014 0.15 0.003 0.045-0.011 0.064-0.028 0.112-0.034 0.105-0.013 0.221 0.001 0.327 0.001 0.053 0 0.111-0.007 0.164-0.001s0.076 0.028 0.129 0.034c0.111 0.012 0.213 0.032 0.326 0.032 0.064-0 0.087 0.011 0.138 0.025 0.046 0.014 0.095-0.005 0.141 0.006 0.098 0.024 0.198 0.066 0.308 0.066 0.083 0.001 0.153 0.033 0.226 0.065 0.107 0.047 0.221 0.081 0.327 0.114 0.182 0.056 0.354 0.158 0.513 0.252 0.084 0.049 0.175 0.11 0.254 0.168s0.162 0.098 0.241 0.158c0.168 0.125 0.315 0.288 0.491 0.401 0.144 0.092 0.308 0.176 0.449 0.284 0.029 0.022 0.051 0.057 0.080 0.082 0.031 0.026 0.058 0.034 0.090 0.056 0.069 0.049 0.11 0.124 0.153 0.189 0.050 0.076 0.116 0.148 0.164 0.226 0.055 0.089 0.108 0.184 0.171 0.267 0.048 0.063 0.087 0.119 0.122 0.19 0.041 0.082 0.094 0.138 0.147 0.211 0.102 0.139 0.208 0.288 0.309 0.433 0.049 0.071 0.117 0.129 0.164 0.203 0.049 0.078 0.073 0.175 0.12 0.254 0.039 0.064 0.086 0.122 0.116 0.194 0.034 0.082 0.053 0.172 0.089 0.262 0.063 0.161 0.151 0.31 0.228 0.463 0.037 0.074 0.062 0.146 0.089 0.22 0.031 0.085 0.090 0.172 0.115 0.259 0.029 0.097 0.032 0.191 0.032 0.295 0 0.115 0.034 0.212 0.033 0.326-0.003 0.434 0 0.869 0 1.303 0 0.106-0 0.195 0.025 0.293 0.027 0.102 0.001 0.22 0.006 0.326 0.003 0.057 0.043 0.105 0.036 0.163-0.006 0.055-0.028 0.106-0.034 0.164-0.006 0.048-0.026 0.067-0.035 0.112-0.006 0.027 0.009 0.058 0.003 0.084-0.007 0.029-0.027 0.034-0.035 0.062-0.031 0.102-0.068 0.207-0.094 0.312-0.027 0.108-0.063 0.199-0.11 0.309-0.033 0.076-0.063 0.146-0.097 0.22-0.015 0.034-0.040 0.080-0.050 0.113-0.005 0.018-0.001 0.041-0.006 0.057-0.013 0.037-0.037 0.065-0.051 0.098-0.142 0.337-0.284 0.687-0.479 1.003-0.041 0.066-0.088 0.132-0.13 0.194-0.026 0.038-0.055 0.077-0.081 0.116-0.031 0.044-0.046 0.084-0.073 0.135-0.101 0.191-0.239 0.353-0.351 0.54-0.189 0.314-0.508 0.423-0.81 0.582-0.089 0.047-0.189 0.108-0.266 0.176-0.081 0.070-0.154 0.15-0.267 0.155-0.116 0.005-0.169 0.031-0.269 0.090-0.081 0.048-0.167 0.1-0.254 0.138-0.067 0.028-0.124 0.072-0.185 0.107-0.098 0.057-0.22 0.076-0.326 0.123-0.137 0.061-0.248 0.148-0.38 0.215-0.063 0.032-0.114 0.055-0.182 0.037-0.086-0.024-0.076-0.022-0.163 0-0.055 0.014-0.108 0.018-0.163 0.033s-0.108-0.001-0.164 0.006c-0.052 0.007-0.077 0.028-0.129 0.034-0.053 0.006-0.096 0.019-0.147 0.029-0.058 0.011-0.124-0.013-0.181 0.001-0.051 0.012-0.065 0.035-0.129 0.034-0.047-0.001-0.1-0.008-0.146-0.001-0.053 0.008-0.092 0.032-0.147 0.034-0.064 0.004-0.131-0.001-0.196-0.001-0.089 0-0.209-0.022-0.295-0.002-0.056 0.014-0.060 0.035-0.129 0.034-0.053-0.001-0.105 0.003-0.156-0.007-0.038-0.008-0.093-0.040-0.138-0.051-0.052-0.013-0.109-0.007-0.163-0.007-0.111 0-0.186-0.027-0.293-0.032-0.059-0.003-0.104-0.031-0.163-0.034-0.048-0.002-0.088-0.005-0.13-0.016-0.097-0.024-0.189-0.057-0.293-0.082-0.222-0.054-0.468-0.032-0.7-0.032-0.043 0-0.106 0.012-0.148 0.002-0.056-0.014-0.060-0.035-0.129-0.034-0.177 0.003-0.353-0.042-0.519-0.108-0.195-0.077-0.355-0.252-0.556-0.323-0.083-0.029-0.149-0.091-0.219-0.132-0.075-0.045-0.169-0.088-0.237-0.139-0.032-0.024-0.069-0.088-0.098-0.12-0.030-0.033-0.059-0.065-0.090-0.098-0.059-0.063-0.101-0.133-0.163-0.195-0.128-0.128-0.281-0.226-0.406-0.35-0.131-0.131-0.298-0.215-0.429-0.346-0.113-0.113-0.189-0.248-0.312-0.346-0.184-0.148-0.295-0.326-0.432-0.514-0.058-0.080-0.13-0.148-0.188-0.228-0.071-0.099-0.112-0.198-0.163-0.307-0.038-0.081-0.080-0.164-0.122-0.247-0.054-0.105-0.079-0.219-0.131-0.326zM6.666 10.561c0.005 0.049 0.005 0.101-0.006 0.144-0.015 0.056-0.022 0.105-0.033 0.163-0.016 0.075 0.020 0.139 0.002 0.22l-0.059-0.513c0.036 0.001 0.069 0.005 0.097-0.014zM6.661 10.516c-0.001-0.002-0.001-0.004-0.001-0.006 0 0.002 0 0.004 0.001 0.006zM26.116 23.053c0.020-0.116 0.086-0.204-0.047-0.261-0.1-0.042-0.208-0.045-0.308-0.106-0.097-0.059-0.204-0.108-0.31-0.155-0.060-0.027-0.116-0.058-0.178-0.066s-0.103-0.008-0.164-0.032c-0.104-0.040-0.223-0.084-0.325-0.098-0.248-0.036-0.291 0.234-0.399 0.384-0.013 0.018-0.032 0.032-0.047 0.047-0.071-0.039-0.149-0.072-0.206-0.105-0.182-0.106-0.366-0.16-0.553-0.236-0.227-0.092-0.466-0.14-0.686-0.245-0.102-0.049-0.219-0.072-0.327-0.104-0.096-0.029-0.188-0.075-0.292-0.107-0.020-0.006-0.038-0.013-0.057-0.020 0.002-0.017 0.004-0.035 0.008-0.054 0.014-0.055 0.007-0.108 0.019-0.163 0.006-0.029 0.026-0.051 0.031-0.081 0.006-0.032-0.011-0.068-0.003-0.1 0.012-0.051 0.035-0.067 0.034-0.129-0.001-0.054-0-0.108 0-0.163 0-0.021 0.003-0.045 0.001-0.066-0.005-0.035-0.021-0.046-0.026-0.072-0.011-0.051-0.008-0.103-0.007-0.156 0-0.021 0.004-0.045 0.001-0.066-0.005-0.037-0.020-0.045-0.026-0.072-0.020-0.090-0.013-0.2 0.020-0.277-0.061-0.035-0.016-0.099 0.006-0.139 0.030-0.056 0.033-0.097 0.033-0.163-0.001-0.112-0.021-0.251 0.007-0.358 0.033-0.126 0.058-0.24 0.058-0.375 0-0.106-0.003-0.213-0.001-0.319 0.121-0.112 0.212-0.267 0.318-0.388 0.059-0.068 0.107-0.15 0.156-0.22 0.064-0.095 0.121-0.192 0.188-0.287 0.103-0.146 0.178-0.302 0.26-0.463 0.046-0.090 0.069-0.209 0.13-0.287s0.081-0.144 0.122-0.236c0.086-0.194 0.106-0.417 0.187-0.618 0.015-0.038 0.035-0.074 0.042-0.112 0.009-0.050-0.007-0.098 0.006-0.148 0.014-0.054 0.038-0.108 0.051-0.163 0.012-0.048 0.031-0.085 0.041-0.129 0.011-0.047-0.001-0.115-0.002-0.165-0-0.038 0.003-0.060 0.009-0.083 0.015 0.008 0.031 0.014 0.049 0.012 0.022-0.002 0.053-0.028 0.089-0.028 0.070-0 0.106 0.034 0.179 0.033 0.032-0.001 0.067-0.004 0.098-0.001 0.034 0.004 0.046 0.019 0.072 0.026 0.062 0.018 0.14 0.009 0.205 0.008 0.11-0.003 0.058-0.028 0.084-0.112 0.018-0.060 0.084-0.101 0.096-0.164 0.014-0.071 0.002-0.125 0.028-0.197 0.026-0.075 0.037-0.132 0.036-0.212-0.001-0.131 0.023-0.286 0.002-0.416 0.073-0.053 0.161-0.137 0.226-0.202 0.098-0.098 0.132-0.205 0.186-0.327 0.045-0.101 0.075-0.206 0.107-0.309 0.032-0.106 0.026-0.198 0.032-0.31 0.003-0.059 0.031-0.104 0.034-0.163 0.002-0.048-0.001-0.098-0.001-0.147s0.003-0.098 0.001-0.147c-0.003-0.054-0.027-0.094-0.035-0.146-0.014-0.098 0.001-0.211 0.001-0.31-0-0.054 0.007-0.111-0.007-0.163-0.007-0.025-0.029-0.035-0.029-0.065 0-0.031 0.027-0.052 0.033-0.082 0.038-0.184 0.003-0.414 0.003-0.603-0-0.114-0.040-0.213-0.033-0.326 0.006-0.1 0.055-0.182 0.026-0.286-0.012-0.041-0.031-0.094-0.042-0.138-0.010-0.040-0.013-0.086-0.024-0.13-0.019-0.080-0.069-0.194-0.115-0.262-0.104-0.154-0.297-0.231-0.464-0.292-0.009-0.003-0.018-0.007-0.027-0.010-0.001-0.008-0.004-0.015-0.004-0.023-0.004-0.039-0.023-0.052-0.031-0.084-0.009-0.039-0.003-0.086-0.003-0.127 0-0.080 0.004-0.153-0.016-0.228-0.021-0.078 0.001-0.163-0.021-0.24-0.039-0.008-0.080-0.029-0.112-0.035-0.025-0.004-0.057 0.005-0.080-0.001-0.016-0.004-0.028-0.025-0.038-0.027-0.046-0.010-0.092-0.008-0.139-0.007-0.054 0.001-0.078-0.013-0.121-0.025-0.045-0.013-0.092-0.008-0.139-0.007-0.058 0.001-0.092-0.011-0.147-0.025-0.049-0.013-0.097 0-0.146-0.010-0.043-0.009-0.085-0.044-0.121-0.055-0.076-0.023-0.155-0.044-0.236-0.059-0.072-0.176-0.176-0.352-0.311-0.468-0.076-0.065-0.138-0.152-0.202-0.229-0.060-0.070-0.142-0.144-0.213-0.204-0.113-0.096-0.21-0.205-0.312-0.311 0.014-0.053 0.027-0.106 0.042-0.155 0.017-0.055 0.046-0.105 0.069-0.16 0.032-0.078 0.039-0.163 0.067-0.238 0.020-0.054 0.084-0.119 0.116-0.171 0.038-0.062 0.040-0.105 0.057-0.178 0.015-0.064 0.043-0.116 0.050-0.178 0.008-0.071 0.001-0.146-0.017-0.213-0.020-0.076-0.004-0.152-0.019-0.228-0.012-0.058-0.042-0.129-0.061-0.18-0.037-0.101-0.11-0.191-0.188-0.268-0.086-0.085-0.113-0.19-0.204-0.273-0.092-0.084-0.145-0.231-0.261-0.29-0.108-0.056-0.217-0.105-0.325-0.146-0.055-0.021-0.119-0.034-0.18-0.048-0.049-0.011-0.158 0.003-0.189-0.043-0.012-0.004-0.019 0-0.022 0.011-0.030-0.033-0.064-0.007-0.1-0.016-0.040-0.010-0.050-0.029-0.095-0.035-0.084-0.011-0.177 0.002-0.261 0.001-0.055-0.001-0.080 0.012-0.13 0.025-0.045 0.012-0.086 0.001-0.131 0.006s-0.056 0.026-0.095 0.035c-0.051 0.012-0.083-0.008-0.134 0.022-0.074 0.044-0.075 0.124-0.104 0.197-0.012 0.031-0.044 0.068-0.050 0.105-0.005 0.027 0.007 0.052 0.016 0.077-0.071-0.047-0.144-0.091-0.218-0.126-0.206-0.099-0.397-0.248-0.594-0.367-0.070-0.042-0.147-0.050-0.22-0.089-0.084-0.045-0.176-0.075-0.259-0.122-0.033-0.019-0.066-0.037-0.1-0.054-0.009-0.028-0.023-0.055-0.029-0.084-0.009-0.040-0.018-0.075-0.028-0.114-0.019-0.070 0.009-0.062 0.022-0.117 0.039-0.159-0.056-0.299-0.063-0.453-0.003-0.065 0.027-0.164-0.039-0.205s-0.182 0.013-0.256-0.005c-0.031-0.008-0.045-0.029-0.078-0.036-0.036-0.007-0.071 0.004-0.108-0.006-0.020-0.006-0.037-0.013-0.056-0.019-0.015-0.024-0.030-0.048-0.048-0.072-0.036-0.049-0.086-0.089-0.123-0.137-0.034-0.044-0.049-0.108-0.081-0.149-0.050-0.064-0.186-0.139-0.261-0.163-0.056-0.018-0.1-0.021-0.155-0.047-0.063-0.030-0.128-0.067-0.196-0.083-0.099-0.023-0.192-0.075-0.293-0.072-0.11 0.003-0.185-0.065-0.293-0.065-0.117-0-0.218-0.054-0.325-0.066-0.111-0.012-0.232 0.001-0.343 0.001-0.125 0-0.25-0.001-0.375 0-0.11 0-0.185-0.033-0.293-0.033-0.239 0.002-0.478 0.002-0.717 0-0.029-0-0.070-0.009-0.099-0.002s-0.032 0.029-0.062 0.036c-0.045 0.011-0.118-0.002-0.165-0.002-0.054 0-0.108 0-0.163 0-0.071-0.001-0.113 0.017-0.179 0.030-0.038 0.008-0.076-0.003-0.115 0.002-0.035 0.004-0.046 0.020-0.072 0.026-0.050 0.013-0.105 0.032-0.156 0.041-0.094 0.016-0.187 0.004-0.268 0.054s-0.163 0.178-0.22 0.254c-0.061 0.079-0.074 0.197-0.121 0.284-0.010 0.019-0.018 0.036-0.025 0.054-0.011 0.001-0.022 0.001-0.033 0.003-0.036 0.005-0.072 0.032-0.107 0.028-0.006-0.001-0.027-0.026-0.038-0.029-0.018-0.004-0.050 0.002-0.067 0.002-0.075 0.001-0.174-0.019-0.246-0.001-0.045 0.011-0.063 0.030-0.112 0.035-0.046 0.005-0.079-0.019-0.101 0.029-0.016 0.035 0.001 0.094-0.014 0.133-0.010 0.027-0.039 0.056-0.046 0.084-0.023 0.084 0.013 0.182-0.010 0.267-0.010 0.036-0.046 0.079-0.055 0.121s-0.004 0.088-0.003 0.13c0.002 0.075 0.023 0.149 0.043 0.222-0.136 0.045-0.268 0.098-0.4 0.154-0.081 0.034-0.185 0.043-0.275 0.067-0.1 0.027-0.195 0.091-0.28 0.16-0.069 0.056-0.155 0.091-0.235 0.122-0.101 0.039-0.183 0.1-0.286 0.138-0.089 0.033-0.184 0.050-0.26 0.098-0.074 0.047-0.152 0.088-0.235 0.122-0.102 0.042-0.15 0.113-0.24 0.171-0.052 0.033-0.104 0.049-0.145 0.098-0.036 0.042-0.061 0.085-0.104 0.122-0.058 0.049-0.13 0.085-0.194 0.13-0.095 0.066-0.191 0.152-0.27 0.237-0.052 0.057-0.089 0.119-0.122 0.187-0.037 0.077-0.103 0.132-0.155 0.204-0.062 0.086-0.085 0.165-0.114 0.261-0.033 0.109-0.106 0.198-0.18 0.285-0.128 0.151-0.185 0.355-0.309 0.513-0.11 0.141-0.336 0.23-0.343 0.44-0.002 0.066-0.009 0.1-0.032 0.163-0.017 0.045-0.055 0.087-0.067 0.129-0.011 0.041 0.012 0.090 0.003 0.132-0.013 0.065-0.045 0.136-0.075 0.195-0.041 0.082-0.112 0.175-0.123 0.26-0.013 0.099-0.015 0.196-0.029 0.294-0.001 0-0.002-0-0.003-0.001-0.031-0.001-0.070 0.010-0.1 0.002s-0.032-0.029-0.062-0.036c-0.027-0.007-0.070-0.001-0.099 0.001-0.070 0.004-0.123 0.034-0.196 0.033-0.081-0.002-0.136 0.024-0.212 0.034-0.079 0.011-0.138-0.017-0.208 0.040-0.002 0.012 0.003 0.020 0.013 0.024-0.004 0.007-0.010 0.012-0.017 0.017-0.036-0.023-0.070 0.029-0.106 0.041-0.078 0.025-0.102-0.002-0.083 0.098 0.004 0.020 0.022 0.042 0.026 0.072 0.004 0.027 0.004 0.072 0 0.099-0.008 0.062-0.034 0.094-0.033 0.162 0 0.022 0.002 0.040 0.004 0.059-0.012 0.002-0.023 0.005-0.036 0.007-0.052 0.007-0.112-0.012-0.164-0.002-0.071 0.014-0.086 0.054-0.138 0.092-0.034 0.025-0.070 0.023-0.099 0.064-0.020 0.027-0.040 0.062-0.052 0.093-0.018 0.043-0.022 0.095-0.044 0.137-0.014 0.026-0.040 0.039-0.051 0.072-0.012 0.034 0.003 0.067-0.005 0.1-0.010 0.042-0.030 0.081-0.042 0.129-0.013 0.055-0.050 0.107-0.060 0.163-0.008 0.045 0.001 0.1 0.002 0.146 0.001 0.071-0.023 0.114-0.034 0.179-0.018 0.1 0.002 0.223 0.002 0.326v0.342c0 0.11 0.002 0.206-0.025 0.31-0.029 0.112-0 0.243-0.006 0.358-0.006 0.106-0.052 0.193-0.030 0.307 0.008 0.040 0.030 0.065 0.030 0.117-0.001 0.064-0.004 0.131-0.001 0.195 0.006 0.115 0.059 0.219 0.098 0.326s0.072 0.216 0.106 0.326c0.070 0.23 0.204 0.446 0.31 0.66 0.050 0.102 0.121 0.18 0.199 0.251 0.001 0.045 0.005 0.091 0.005 0.134 0 0.062-0.009 0.132-0.001 0.194 0.015 0.113 0.068 0.203 0.066 0.325-0.002 0.109 0.103 0.208 0.194 0.269 0.061 0.041 0.123 0.048 0.19 0.064 0.025 0.006 0.037 0.022 0.072 0.026 0.022-0.002 0.045-0.002 0.068-0.002 0.018 0.002 0.030 0.011 0.038 0.027 0.070 0.015 0.143 0.004 0.215 0.007 0.002 0.022 0.005 0.045 0.007 0.066 0.006 0.072 0.030 0.139 0.033 0.211 0.007 0.141 0 0.286-0.001 0.427-0.001 0.070 0.017 0.074 0.030 0.13 0.014 0.060 0.013 0.114 0.035 0.176 0.085 0.237 0.202 0.434 0.334 0.645 0.096 0.153 0.202 0.313 0.268 0.479 0.072 0.18 0.198 0.355 0.317 0.504 0.070 0.087 0.156 0.157 0.24 0.229 0.089 0.076 0.189 0.15 0.281 0.221 0.078 0.060 0.126 0.087 0.181 0.172 0.061 0.095 0.128 0.198 0.223 0.26 0.050 0.033 0.096 0.071 0.143 0.107-0.001 0.086-0.010 0.181 0.003 0.265 0.009 0.056 0.032 0.028 0.014 0.1-0.012 0.048-0.018 0.079-0.017 0.13 0.003 0.095 0.033 0.177 0.033 0.277 0 0.087 0 0.174 0 0.26 0 0.185 0 0.369 0 0.554 0 0.052-0.006 0.107 0.007 0.156 0.011 0.040 0.026 0.054 0.025 0.105-0 0.043 0.001 0.087 0 0.13-0.001 0.049 0.016 0.069 0.025 0.105s0.032 0.080 0.037 0.11c0.007 0.042-0.004 0.085 0.006 0.127 0.001 0.005 0.002 0.008 0.003 0.012-0.033 0.015-0.067 0.028-0.104 0.036-0.067 0.015-0.13 0.043-0.195 0.059-0.059 0.014-0.106 0.008-0.164 0.032-0.092 0.037-0.158 0.108-0.253 0.146-0.089 0.036-0.217 0.070-0.293 0.13-0.002 0.002-0.003 0.004-0.005 0.005-0.024-0.027-0.049-0.054-0.075-0.078-0.075-0.068-0.146-0.141-0.22-0.212-0.099-0.095-0.211-0.172-0.302-0.272-0.068 0.033-0.154 0.050-0.227 0.085-0.062 0.030-0.124 0.062-0.187 0.090-0.118 0.051-0.418 0.062-0.43 0.239-0.078 0.016-0.135 0.027-0.186 0.091-0.030 0.038-0.032 0.050-0.082 0.078-0.028 0.015-0.057 0.031-0.084 0.047-0.066 0.039-0.137 0.133-0.133 0.212 0.002 0.041 0.054 0.073 0.054 0.106 0.001 0.032-0.041 0.056-0.049 0.083 0.133 0.019 0.206 0.089 0.095 0.202-0.107 0.109-0.129 0.177-0.131 0.326-0.001 0.059 0.013 0.11 0.032 0.162 0.022 0.062 0.018 0.104 0.032 0.165 0.021 0.094 0.090 0.205 0.133 0.29 0.022 0.044 0.022 0.107 0.039 0.157 0.011 0.032 0.042 0.073 0.058 0.105 0.046 0.091 0.099 0.18 0.155 0.268 0.060 0.095 0.098 0.208 0.162 0.295 0.073 0.099 0.175 0.175 0.246 0.277 0.126 0.182 0.27 0.358 0.413 0.528 0.146 0.173 0.29 0.344 0.432 0.52 0.147 0.183 0.342 0.308 0.521 0.45 0.090 0.071 0.204 0.098 0.296 0.163 0.074 0.052 0.147 0.113 0.226 0.163 0.104 0.065 0.211 0.121 0.319 0.179 0.096 0.051 0.16 0.13 0.26 0.179 0.413 0.206 0.793 0.421 1.213 0.586 0.105 0.041 0.208 0.054 0.311 0.080 0.049 0.012 0.116 0.039 0.171 0.059 0.041 0.015 0.087 0.019 0.13 0.032 0.055 0.016 0.103 0.025 0.163 0.040 0.054 0.014 0.108 0.019 0.163 0.033 0.118 0.030 0.239 0.036 0.358 0.065 0.118 0.029 0.239 0.052 0.357 0.083 0.046 0.012 0.090-0.004 0.134 0.006 0.035 0.007 0.061 0.027 0.096 0.035 0.051 0.012 0.109 0.030 0.163 0.032 0.116 0.006 0.213 0.028 0.326 0.057 0.065 0.017 0.131-0.002 0.196 0.014 0.061 0.016 0.096 0.026 0.163 0.025 0.062-0 0.134-0.009 0.196-0.001 0.051 0.007 0.078 0.027 0.129 0.034 0.072 0.010 0.127 0.007 0.196 0.025 0.025 0.006 0.043 0.002 0.066 0.007s0.056 0.022 0.072 0.025c0.062 0.013 0.126-0.002 0.188 0.014 0.065 0.017 0.109 0.026 0.179 0.025 0.056-0 0.124-0.011 0.179-0.002 0.060 0.011 0.097 0.035 0.163 0.034 0.078-0.001 0.123 0.007 0.195 0.026 0.060 0.016 0.12-0.002 0.179 0.010 0.108 0.022 0.228 0.052 0.342 0.023 0.122-0.032 0.245-0.025 0.375-0.025 0.054 0 0.129 0.014 0.181 0.002s0.065-0.035 0.129-0.034c0.063 0.001 0.134 0.009 0.196 0.001 0.057-0.008 0.086-0.030 0.146-0.034 0.112-0.006 0.23-0.006 0.342-0 0.070 0.004 0.123 0.034 0.195 0.033 0.060-0.001 0.12 0 0.179 0 0.056 0 0.124 0.011 0.179 0.002 0.064-0.011 0.094-0.035 0.163-0.034 0.137 0.002 0.261-0.010 0.391-0.031 0.025-0.004 0.042-0.021 0.065-0.027 0.036-0.009 0.063 0 0.098-0.006 0.031-0.005 0.052-0.026 0.081-0.032 0.027-0.005 0.057 0.005 0.083-0.001 0.052-0.012 0.105-0.046 0.161-0.060 0.058-0.014 0.11-0.020 0.162-0.039 0.109-0.040 0.217-0.046 0.326-0.073 0.243-0.062 0.5-0.104 0.75-0.156 0.101-0.021 0.23-0.055 0.326-0.097 0.092-0.040 0.193-0.059 0.292-0.091 0.059-0.019 0.116-0.042 0.17-0.065 0.062-0.027 0.105-0.066 0.163-0.098 0.086-0.048 0.177-0.077 0.26-0.13 0.097-0.061 0.178-0.118 0.262-0.196 0.076-0.070 0.153-0.135 0.244-0.179 0.090-0.044 0.174-0.102 0.244-0.178 0.082-0.088 0.176-0.142 0.285-0.196 0.211-0.106 0.38-0.253 0.579-0.375 0.093-0.057 0.173-0.124 0.267-0.178 0.096-0.056 0.2-0.109 0.285-0.18 0.165-0.137 0.338-0.283 0.523-0.392 0.168-0.099 0.353-0.212 0.505-0.341 0.083-0.071 0.134-0.168 0.211-0.244 0.078-0.077 0.128-0.155 0.171-0.254 0.038-0.088 0.080-0.201 0.154-0.267 0.065-0.058 0.13-0.12 0.188-0.186 0.073-0.084 0.142-0.174 0.211-0.261 0.082-0.103 0.135-0.223 0.213-0.328 0.126-0.17 0.28-0.351 0.311-0.569 0.017-0.121-0.024-0.254-0.003-0.375z"></path>
</svg>
