<!-- Generated by IcoMoon.io -->
<svg version="1.1" xmlns="http://www.w3.org/2000/svg" width="32" height="32" viewBox="0 0 32 32">
<path d="M11.487 19.364c0.005 0.119-0.004 0.211 0.067 0.311 0.058 0.084 0.11 0.191 0.203 0.257 0.080 0.056 0.172 0.106 0.26 0.156 0.051 0.029 0.081 0.064 0.122 0.099 0.056 0.044 0.129 0.056 0.188 0.094 0.037 0.024 0.057 0.049 0.1 0.067 0.063 0.025 0.134 0.032 0.195 0.062 0.027 0.014 0.039 0.025 0.064 0.038 0.021 0.012 0.047 0.023 0.071 0.036 0.058 0.032 0.12 0.058 0.182 0.088 0.082 0.039 0.191 0.095 0.235 0.171 0.026 0.046 0.049 0.105 0.067 0.153 0.021 0.058 0.052 0.127 0.070 0.188 0.026 0.093 0.018 0.204 0.001 0.296-0.008 0.049-0.024 0.095-0.038 0.144-0.018 0.056-0.052 0.096-0.070 0.146-0.023 0.058-0.039 0.283-0.173 0.242-0.045-0.014-0.046-0.071-0.070-0.109-0.037-0.058-0.094-0.118-0.141-0.169-0.072-0.080-0.129-0.166-0.202-0.241-0.101-0.106-0.223-0.166-0.354-0.238-0.058-0.031-0.109-0.082-0.171-0.105-0.068-0.025-0.138-0.032-0.201-0.070-0.091-0.055-0.179-0.094-0.268-0.153-0.107-0.071-0.184-0.175-0.264-0.268-0.056-0.065-0.089-0.148-0.115-0.224-0.025-0.075-0.067-0.157-0.081-0.235-0.017-0.090-0.034-0.257-0.006-0.344 0.030-0.088 0.162-0.246 0.33-0.388z"></path>
<path d="M10.912 20.216c0.024 0.251 0.189 0.463 0.34 0.658 0.072 0.094 0.144 0.188 0.254 0.251 0.11 0.062 0.223 0.11 0.348 0.154 0.223 0.080 0.443 0.158 0.601 0.322 0.070 0.071 0.116 0.16 0.156 0.253 0.051 0.12 0.063 0.243 0.102 0.365-0.080 0.024-0.194 0.024-0.278 0.025-0.087 0.002-0.137-0.026-0.206-0.057-0.034-0.015-0.062-0.029-0.093-0.046-0.025-0.014-0.065-0.059-0.093-0.067-0.090-0.023-0.062 0.074-0.068 0.138-0.020 0.192-0.034 0.381 0.031 0.565 0.013 0.038 0.004 0.081 0.023 0.118 0.018 0.025 0.039 0.046 0.063 0.065 0.012 0.020 0.014 0.040 0.011 0.063 0.020 0.074 0.102 0.127 0.118 0.206-0.178 0.027-0.309 0.122-0.449 0.219-0.058 0.039-0.122 0.086-0.159 0.145-0.026 0.043-0.037 0.086-0.059 0.129-0.019 0.040-0.030 0.049-0.028 0.097 0.001 0.051 0.037 0.154-0.005 0.186-0.053 0.042-0.165-0.012-0.228 0.040-0.062 0.052-0.008 0.129-0.017 0.2-0.007 0.064-0.067 0.125-0.065 0.188-0.084 0.015-0.156 0.045-0.235 0.077-0.097 0.039-0.086 0.049-0.103 0.141-0.008 0.044-0.046 0.147-0.084 0.177-0.051 0.042-0.151 0.018-0.21 0.063-0.122 0.094 0.017 0.248-0.059 0.353-0.036 0.051-0.103 0.027-0.146 0.080-0.044 0.052-0.036 0.121-0.030 0.183 0.001 0.025 0.017 0.071 0.009 0.095-0.014 0.050-0.097 0.063-0.141 0.096-0.036 0.027-0.086 0.065-0.096 0.107-0.015 0.059 0.013 0.157 0.018 0.22 0.006 0.077-0.002 0.167 0.015 0.243 0.044 0.178 0.162 0.322 0.277 0.468 0.034 0.044 0.044 0.091 0.068 0.14 0.026 0.052 0.064 0.080 0.108 0.121 0.034 0.031 0.123 0.128 0.104 0.169-0.132-0.017-0.229-0.128-0.329-0.186-0.074-0.043-0.151-0.094-0.22-0.146-0.086-0.067-0.169-0.14-0.26-0.201-0.133-0.087-0.274-0.192-0.372-0.314-0.091-0.114-0.153-0.254-0.228-0.377s-0.144-0.267-0.186-0.401c-0.043-0.131-0.061-0.257-0.108-0.385-0.043-0.119-0.044-0.239-0.052-0.365-0.008-0.12-0.018-0.239-0.026-0.359-0.009-0.128-0.040-0.273-0.021-0.4 0.006-0.038 0.020-0.068 0.021-0.107 0.001-0.055-0.018-0.102-0.006-0.158 0.014-0.069 0.058-0.133 0.084-0.198 0.070-0.169 0.159-0.312 0.259-0.469 0.157-0.246 0.41-0.422 0.662-0.58 0.126-0.078 0.255-0.158 0.371-0.247 0.104-0.082 0.217-0.21 0.252-0.334 0.074-0.259 0.126-0.523 0.198-0.79 0.025-0.090-0.001-0.162 0.006-0.251 0.002-0.031 0.017-0.057 0.023-0.084 0.006-0.030-0.004-0.056 0-0.086 0.004-0.026 0.020-0.040 0.025-0.063 0.009-0.046-0.008-0.091 0.004-0.137 0.023-0.087 0.129-0.107 0.15-0.185-0.044-0.009-0.088-0.008-0.037-0.128z"></path>
<path d="M9.639 15.198c0.57 0.577 1.501 0.582 2.077 0.012 0.577-0.571 0.582-1.501 0.012-2.079-0.57-0.576-1.501-0.582-2.077-0.011-0.577 0.57-0.582 1.5-0.012 2.077z"></path>
<path d="M13.998 9.741c0.216-0.046 0.469 0.064 0.521 0.297 0.049 0.209-0.061 0.462-0.285 0.518 0.027 0.203-0.094 0.426-0.303 0.474-0.221 0.050-0.463-0.067-0.523-0.297-0.107-0.42 0.151-0.899 0.589-0.992z"></path>
<path d="M13.057 8.704c-0.002-0.167 0.116-0.257 0.246-0.271 0.137-0.141 0.359-0.15 0.548-0.164 0.232-0.018 0.463-0.024 0.695-0.015 0.322 0.009 0.643 0.046 0.96 0.103 0.188-0.089 0.42-0.067 0.605 0.040 0.284 0.164 0.369 0.492 0.397 0.795 0.031 0.336 0.036 0.676 0.052 1.013l0.026 0.52c0.007 0.151 0.034 0.319-0.004 0.468-0.020 0.083-0.062 0.15-0.114 0.201 0.042 0.133 0.068 0.272 0.105 0.4 0.049 0.169 0.031 0.378 0.043 0.553 0.015 0.203 0.030 0.406 0.044 0.609 0.031 0.417 0.061 0.834 0.090 1.252 0.013 0.171 0.072 0.413-0.081 0.555-0.037 0.033-0.084 0.027-0.123 0.053-0.019 0.012-0.040 0.042-0.055 0.058-0.012 0.014-0.012 0.028-0.027 0.040-0.024 0.018-0.053 0.014-0.076 0.031-0.031 0.021-0.031 0.050-0.069 0.123-0.005-0.061 0.002-0.131-0.020-0.188-0.024-0.056-0.084-0.093-0.12-0.141-0.038-0.051-0.053-0.109-0.106-0.158-0.065-0.059-0.119-0.094-0.163-0.166-0.076-0.123-0.169-0.235-0.251-0.355-0.090-0.131-0.197-0.234-0.278-0.368-0.069-0.115-0.175-0.209-0.278-0.303-0.144-0.131-0.253-0.28-0.385-0.422-0.083-0.089-0.146-0.195-0.23-0.281-0.091-0.094-0.184-0.196-0.261-0.305-0.071-0.101-0.121-0.222-0.157-0.338-0.051-0.171-0.186-0.31-0.264-0.47-0.1-0.206-0.3-0.396-0.328-0.62-0.005-0.043-0.028-0.134-0.006-0.175 0.001-0.004 0.006-0.007 0.009-0.011-0.008-0.014-0.015-0.028-0.021-0.044-0.095-0.233-0.172-0.472-0.234-0.714-0.049-0.112-0.093-0.224-0.116-0.343-0.026-0.135-0.034-0.277-0.019-0.413-0.020-0.182-0.031-0.366-0.033-0.55z"></path>
<path d="M9.909 15.907c0.123 0.020 0.251 0.026 0.378 0.019 0.047 0.006 0.096 0.011 0.148 0.011 0.177 0 0.33-0.038 0.461-0.102 0.495-0.123 0.956-0.398 1.107-0.912 0.176-0.597-0.198-1.201-0.767-1.39-0.084-0.062-0.178-0.114-0.279-0.154-0.086-0.082-0.181-0.154-0.278-0.204-0.163-0.103-0.338-0.159-0.526-0.167-0.126-0.033-0.251-0.033-0.377 0-0.001 0-0.002 0-0.004 0-0.027-0.037-0.058-0.072-0.093-0.104-0.006-0.007-0.013-0.013-0.019-0.020 0.202-0.764 0.571-1.499 1.118-2.157 0 0 0.001-0.001 0.001-0.002 0.137-0.261 0.291-0.515 0.464-0.757 0.129-0.179 0.355-0.171 0.472-0.013 0.001 0.008 0.004 0.018 0.005 0.026 0.086 0.020 0.162 0.081 0.191 0.194 0.259 1.006 0.519 2.011 0.779 3.017 0.001 0.005 0.002 0.009 0.005 0.015 0.045 0.106 0.090 0.211 0.138 0.315 0.051 0.116 0.122 0.215 0.207 0.3 0.005 0.011 0.009 0.019 0.013 0.030 0.018 0.047 0.028 0.102 0.045 0.152 0.023 0.068 0.083 0.114 0.112 0.182 0.047 0.11 0.104 0.204 0.172 0.308 0.071 0.107 0.113 0.222 0.197 0.323 0.056 0.068 0.097 0.127 0.143 0.196 0.033 0.050 0.088 0.068 0.128 0.104 0.064 0.059 0.103 0.143 0.167 0.206 0.047 0.046 0.086 0.095 0.14 0.139 0.039 0.032 0.097 0.045 0.145 0.065 0.075 0.031 0.12 0.082 0.192 0.113s0.145 0.055 0.213 0.095c0.056 0.034 0.090 0.087 0.147 0.116 0.141 0.072 0.293 0.106 0.449 0.129 0.088-0.020 0.179-0.061 0.246-0.114 0.135-0.106 0.214-0.214 0.285-0.371 0.002-0.006 0.008-0.021 0.009-0.025 0.009-0.024 0.018-0.049 0.025-0.072 0.015-0.050 0.028-0.1 0.039-0.15 0.019-0.089 0.028-0.179 0.033-0.271 0.009-0.221-0.009-0.443-0.033-0.663-0.013-0.121 0.097-0.242 0.208-0.273 0.12-0.032 0.255 0.023 0.319 0.131 0.194 0.33 0.24 0.719 0.219 1.096-0.015 0.251-0.056 0.499-0.075 0.748 0.074-0.005 0.147-0.012 0.221-0.020 0.004 0.011 0.008 0.020 0.012 0.031 0.012 0.040-0.008 0.089 0.005 0.129 0.012 0.034 0.034 0.058 0.046 0.094 0.037 0.115 0.018 0.278 0.027 0.4 0.008 0.125 0.089 1.239 0.099 1.365 0.004 0.058-0.002 0.125 0.011 0.181 0.018 0.070 0.047 0.116 0.051 0.191 0.008 0.137 0.020 0.272 0.030 0.409 0.036 0.489 0.068 0.979 0.106 1.468 0.006 0.065-0.004 0.113-0.014 0.175-0.013 0.070 0.002 0.146 0.008 0.216 0.009 0.141 0.020 0.284 0.030 0.425 0.009 0.122 0.020 0.246 0.027 0.368 0.004 0.067 0.032 0.101 0.049 0.16 0.018 0.064 0.008 0.146 0.013 0.213 0.011 0.148 0.021 0.296 0.032 0.444 0.005 0.070 0.011 0.141 0.015 0.211 0.005 0.058 0.042 0.173 0.019 0.228-0.026 0.068-0.342 0.055-0.422 0.061-0.186 0.013-0.373 0.027-0.559 0.040-0.182 0.435-0.781 0.635-1.152 0.249-0.277-0.289-0.571-0.451-0.974-0.476-0.55-0.033-0.798-0.514-0.637-0.993-0.018-0.018-0.036-0.038-0.051-0.061-0.027-0.040-0.076-0.488-0.119-0.823-0.381-0.423-1.095-0.753-1.405-1.035-0.327-0.297-0.546-0.635-0.662-1.010-0.047-0.072-0.096-0.144-0.154-0.214-0.050-0.062-0.101-0.151-0.164-0.202-0.069-0.057-0.15-0.1-0.216-0.163-0.044-0.043-0.166-0.178-0.12-0.242 0.026-0.037 0.069-0.042 0.116-0.033-0.48-0.551-0.83-1.162-1.057-1.801 0.042-0.030 0.082-0.061 0.119-0.095z"></path>
<path d="M16.951 14.244c0.2-0.024 0.299-0.166 0.43-0.296 0.096-0.093 0.179-0.188 0.265-0.287 0.105-0.12 0.223-0.234 0.322-0.355 0.050-0.062 0.084-0.131 0.126-0.196 0.063-0.099 0.157-0.181 0.22-0.28 0.107-0.17 0.201-0.348 0.29-0.524 0.052-0.101 0.077-0.211 0.139-0.31 0.086-0.134 0.17-0.223 0.219-0.372 0.158-0.481 0.463-0.916 0.599-1.406 0.026-0.095 0.056-0.146 0.109-0.23 0.076-0.119 0.056-0.245 0.102-0.369 0.039-0.108 0.108-0.2 0.131-0.314 0.029-0.146 0.057-0.297 0.081-0.443 0.013-0.088 0.026-0.17 0.049-0.257 0.019-0.075 0.011-0.14 0.023-0.22 0.036-0.227 0.175-0.431 0.213-0.657 0.038-0.224 0.093-0.438 0.101-0.657 0.008-0.185 0.108-0.374 0.14-0.556 0.011-0.065-0.018-0.123-0.004-0.189 0.014-0.071 0.059-0.185 0.094-0.248 0.091-0.159 0.455-0.204 0.638-0.165 0.179 0.039 0.292 0.192 0.454 0.258 0.186 0.075 0.394 0.129 0.568 0.223 0.127 0.070 0.242 0.153 0.366 0.224 0.082 0.046 0.166 0.081 0.234 0.145 0.119 0.113 0.254 0.152 0.4 0.246 0.183 0.118 0.373 0.204 0.564 0.31 0.211 0.115 0.346 0.286 0.538 0.416 0.197 0.133 0.384 0.297 0.569 0.447 0.145 0.116 0.347 0.151 0.51 0.252 0.097 0.059 0.183 0.131 0.27 0.2 0.255 0.202 0.48 0.42 0.727 0.626 0.198 0.165 0.387 0.327 0.536 0.521 0.157 0.204 0.455 0.303 0.626 0.508 0.175 0.21 0.305 0.448 0.483 0.659 0.074 0.087 0.192 0.158 0.251 0.252 0.069 0.11 0.132 0.239 0.189 0.357 0.076 0.153 0.165 0.284 0.21 0.441 0.026 0.089 0.1 0.129 0.14 0.201 0.020 0.034 0.011 0.075 0.018 0.113 0.012 0.064 0.052 0.099 0.075 0.156 0.064 0.162 0.143 0.328 0.185 0.496 0.036 0.143 0.12 0.268 0.16 0.411 0.019 0.067 0.015 0.141 0.034 0.208 0.034 0.113 0.121 0.202 0.164 0.314 0.204 0.532 0.214 1.162 0.291 1.723 0.094 0.679 0.188 1.359 0.282 2.038 0.015 0.115 0.034 0.232 0.049 0.347 0.021 0.166-0.020 0.31-0.037 0.474-0.012 0.112 0.037 0.216 0.024 0.325-0.007 0.059-0.061 0.12-0.069 0.182-0.011 0.072 0.014 0.139 0.008 0.211-0.009 0.11-0.049 0.23-0.069 0.343-0.017 0.095 0.014 0.318-0.051 0.396-0.059 0.071-0.188 0.074-0.255 0.146-0.082 0.087-0.144 0.223-0.19 0.327 0.013-0.074 0.071-0.126 0.097-0.192 0.018-0.047 0.027-0.101 0.049-0.151 0.077-0.183 0.171-0.319 0.14-0.515-0.013-0.087 0.012-0.292-0.134-0.289-0.103 0.002-0.283 0.171-0.361 0.23 0.096-0.144 0.169-0.353 0.204-0.513 0.027-0.116 0.101-0.221 0.112-0.337 0.007-0.074 0.005-0.139 0.024-0.216 0.037-0.14 0.001-0.245 0.008-0.38 0.007-0.108 0.16-0.359 0.084-0.451-0.167 0.034-0.329 0.204-0.48 0.278 0.031-0.102 0.096-0.19 0.131-0.289 0.040-0.12 0.063-0.26 0.075-0.384 0.021-0.208-0.047-0.437-0.075-0.643-0.061-0.43-0.224-0.825-0.287-1.258 0.045 0.166-0.146 0.42-0.314 0.506-0.093-0.177-0.089-0.479-0.108-0.677-0.013-0.151 0.020-0.29-0.002-0.442-0.018-0.128-0.034-0.257-0.052-0.386-0.024-0.17-0.051-0.34-0.071-0.51-0.012-0.109-0.020-0.166-0.139-0.090-0.1 0.065-0.213 0.264-0.245 0.36 0.176-0.192 0.080-0.561 0.034-0.776-0.053-0.249-0.228-0.451-0.365-0.671-0.268-0.43-0.367-0.913-0.607-1.359-0.178 0.11-0.047 0.38-0.131 0.523-0.045-0.061-0.043-0.163-0.072-0.234-0.031-0.075-0.059-0.132-0.113-0.195-0.194-0.221-0.474-0.382-0.671-0.603-0.238-0.266-0.417-0.583-0.562-0.893-0.087 0.049-0.099 0.227-0.118 0.305-0.012 0.045-0.020 0.215-0.076 0.233-0.109-0.154-0.186-0.329-0.273-0.494-0.027-0.053-0.070-0.118-0.090-0.163-0.084-0.186-0.166-0.287-0.34-0.422-0.176-0.138-0.384-0.253-0.574-0.369-0.080-0.049-0.133-0.088-0.202-0.145-0.058-0.047-0.143-0.095-0.217-0.109-0.015 0.089 0.043 0.236-0.082 0.292-0.165-0.068-0.323-0.232-0.448-0.342-0.091-0.081-0.185-0.152-0.28-0.23-0.258-0.213-0.491-0.442-0.729-0.665-0.090-0.084-0.184-0.175-0.276-0.248-0.192-0.154-0.181 0.017-0.216 0.176-0.020 0.091-0.037 0.34-0.158 0.371-0.215 0.055-0.144-0.195-0.253-0.184-0.097 0.108-0.076 0.272-0.109 0.394-0.050 0.19-0.173 0.349-0.207 0.548-0.030 0.175-0.148 0.305-0.182 0.483-0.013 0.070 0.004 0.151-0.014 0.216-0.024 0.082-0.093 0.153-0.119 0.24-0.039 0.125-0.065 0.261-0.076 0.38-0.019 0.207-0.097 0.416-0.126 0.628-0.012 0.090-0.027 0.166-0.050 0.255-0.023 0.087-0.006 0.178-0.038 0.264-0.088 0.229-0.113 0.476-0.171 0.719-0.051 0.215-0.122 0.425-0.17 0.639-0.042 0.182-0.181 0.404-0.276 0.576-0.042 0.076-0.090 0.143-0.132 0.219-0.056 0.104-0.157 0.185-0.204 0.292-0.078 0.177-0.176 0.343-0.302 0.495-0.082 0.097-0.128 0.22-0.215 0.319-0.062 0.071-0.139 0.122-0.195 0.194-0.064 0.084-0.121 0.189-0.178 0.277-0.017 0.025-0.025 0.059-0.042 0.083-0.046 0.063-0.090 0.070-0.141 0.122-0.082 0.083-0.076 0.194-0.184 0.266-0.134 0.090-0.322 0.127-0.485 0.148-0.213 0.028-0.416 0.042-0.586-0.086-0.12-0.089-0.146-0.248-0.163-0.382-0.020-0.154-0.077-0.321-0.025-0.474 0.045-0.128 0.122-0.35 0.293-0.381 0.001-0.013 0.002-0.026-0.28-0.047z"></path>
<path d="M15.714 14.244c-0.2-0.024-0.299-0.166-0.43-0.296-0.096-0.093-0.179-0.188-0.265-0.287-0.104-0.12-0.223-0.234-0.322-0.355-0.050-0.062-0.084-0.131-0.126-0.196-0.063-0.099-0.156-0.181-0.22-0.28-0.107-0.17-0.201-0.348-0.29-0.524-0.052-0.101-0.077-0.211-0.139-0.31-0.086-0.134-0.17-0.223-0.219-0.372-0.158-0.481-0.463-0.916-0.599-1.406-0.026-0.095-0.056-0.146-0.109-0.23-0.076-0.119-0.056-0.245-0.102-0.369-0.039-0.108-0.108-0.2-0.131-0.314-0.028-0.146-0.057-0.297-0.081-0.443-0.013-0.088-0.026-0.17-0.049-0.257-0.019-0.075-0.011-0.14-0.023-0.22-0.036-0.227-0.175-0.431-0.213-0.657-0.038-0.224-0.093-0.438-0.101-0.657-0.008-0.185-0.108-0.374-0.14-0.556-0.011-0.065 0.018-0.123 0.004-0.189-0.014-0.071-0.059-0.185-0.094-0.248-0.091-0.159-0.455-0.204-0.638-0.165-0.179 0.039-0.292 0.192-0.454 0.258-0.186 0.075-0.394 0.129-0.568 0.223-0.127 0.070-0.242 0.153-0.366 0.224-0.082 0.046-0.166 0.081-0.234 0.145-0.119 0.113-0.254 0.152-0.4 0.246-0.183 0.118-0.373 0.204-0.564 0.31-0.211 0.115-0.346 0.286-0.538 0.416-0.197 0.133-0.384 0.297-0.569 0.447-0.145 0.116-0.347 0.151-0.51 0.252-0.097 0.059-0.183 0.131-0.27 0.2-0.255 0.202-0.48 0.42-0.727 0.626-0.198 0.165-0.387 0.327-0.536 0.521-0.157 0.204-0.455 0.303-0.626 0.508-0.175 0.21-0.305 0.448-0.483 0.659-0.074 0.087-0.192 0.158-0.251 0.252-0.069 0.11-0.132 0.239-0.189 0.357-0.076 0.153-0.165 0.284-0.21 0.441-0.026 0.089-0.1 0.129-0.14 0.201-0.020 0.034-0.011 0.075-0.018 0.113-0.012 0.064-0.052 0.099-0.075 0.156-0.064 0.162-0.143 0.328-0.185 0.496-0.036 0.143-0.12 0.268-0.16 0.411-0.019 0.067-0.015 0.141-0.034 0.208-0.034 0.113-0.121 0.202-0.164 0.314-0.204 0.532-0.214 1.162-0.291 1.723-0.094 0.679-0.188 1.359-0.281 2.038-0.015 0.115-0.034 0.232-0.049 0.347-0.021 0.166 0.020 0.31 0.037 0.474 0.012 0.112-0.037 0.216-0.024 0.325 0.007 0.059 0.061 0.12 0.069 0.182 0.011 0.072-0.015 0.139-0.008 0.211 0.009 0.11 0.049 0.23 0.069 0.343 0.015 0.095-0.014 0.318 0.051 0.396 0.059 0.071 0.188 0.074 0.255 0.146 0.082 0.087 0.144 0.223 0.19 0.327-0.013-0.074-0.071-0.126-0.097-0.192-0.018-0.047-0.027-0.101-0.049-0.151-0.077-0.183-0.171-0.319-0.14-0.515 0.013-0.087-0.012-0.292 0.134-0.289 0.103 0.002 0.283 0.171 0.361 0.23-0.096-0.144-0.169-0.353-0.204-0.513-0.027-0.116-0.101-0.221-0.112-0.337-0.007-0.074-0.005-0.139-0.024-0.216-0.037-0.14-0.001-0.245-0.008-0.38-0.007-0.108-0.16-0.359-0.084-0.451 0.167 0.034 0.329 0.204 0.48 0.278-0.031-0.102-0.096-0.19-0.131-0.289-0.040-0.12-0.063-0.26-0.075-0.384-0.021-0.208 0.047-0.437 0.075-0.643 0.061-0.43 0.224-0.825 0.287-1.258-0.045 0.166 0.146 0.42 0.314 0.506 0.093-0.177 0.089-0.479 0.107-0.677 0.014-0.151-0.019-0.29 0.004-0.442 0.018-0.128 0.034-0.257 0.052-0.386 0.024-0.17 0.051-0.34 0.070-0.51 0.013-0.109 0.021-0.166 0.14-0.090 0.1 0.065 0.213 0.264 0.245 0.36-0.176-0.192-0.080-0.561-0.034-0.776 0.053-0.249 0.228-0.451 0.365-0.671 0.268-0.43 0.367-0.913 0.607-1.359 0.178 0.11 0.048 0.38 0.131 0.523 0.045-0.061 0.043-0.163 0.072-0.234 0.031-0.075 0.059-0.132 0.113-0.195 0.194-0.221 0.474-0.382 0.671-0.603 0.238-0.266 0.417-0.583 0.562-0.893 0.087 0.049 0.099 0.227 0.118 0.305 0.012 0.045 0.020 0.215 0.076 0.233 0.109-0.154 0.186-0.329 0.273-0.494 0.027-0.053 0.070-0.118 0.090-0.163 0.084-0.186 0.166-0.287 0.34-0.422 0.176-0.138 0.384-0.253 0.574-0.369 0.080-0.049 0.133-0.088 0.202-0.145 0.058-0.047 0.143-0.095 0.217-0.109 0.015 0.089-0.043 0.236 0.082 0.292 0.165-0.068 0.323-0.232 0.448-0.342 0.091-0.081 0.185-0.152 0.28-0.23 0.258-0.213 0.491-0.442 0.729-0.665 0.090-0.084 0.184-0.175 0.276-0.248 0.192-0.154 0.181 0.017 0.216 0.176 0.020 0.091 0.037 0.34 0.158 0.371 0.215 0.055 0.144-0.195 0.253-0.184 0.097 0.108 0.076 0.272 0.109 0.394 0.050 0.19 0.173 0.349 0.207 0.548 0.030 0.175 0.148 0.305 0.182 0.483 0.013 0.070-0.004 0.151 0.014 0.216 0.024 0.082 0.093 0.153 0.119 0.24 0.039 0.125 0.064 0.261 0.076 0.38 0.019 0.207 0.097 0.416 0.126 0.628 0.012 0.090 0.027 0.166 0.050 0.255 0.023 0.087 0.006 0.178 0.038 0.264 0.088 0.229 0.113 0.476 0.171 0.719 0.051 0.215 0.122 0.425 0.17 0.639 0.042 0.182 0.181 0.404 0.276 0.576 0.042 0.076 0.090 0.143 0.132 0.219 0.056 0.104 0.157 0.185 0.204 0.292 0.078 0.177 0.176 0.343 0.302 0.495 0.082 0.097 0.128 0.22 0.215 0.319 0.062 0.071 0.139 0.122 0.195 0.194 0.064 0.084 0.121 0.189 0.178 0.277 0.017 0.025 0.025 0.059 0.042 0.083 0.046 0.063 0.090 0.070 0.141 0.122 0.082 0.083 0.076 0.194 0.184 0.266 0.134 0.090 0.322 0.127 0.485 0.148 0.213 0.028 0.416 0.042 0.586-0.086 0.12-0.089 0.146-0.248 0.163-0.382 0.020-0.154 0.077-0.321 0.025-0.474-0.045-0.128-0.122-0.35-0.293-0.381-0.001-0.013-0.002-0.026 0.28-0.047z"></path>
<path d="M21.218 19.364c-0.005 0.119 0.004 0.211-0.067 0.311-0.058 0.084-0.11 0.191-0.203 0.257-0.080 0.056-0.172 0.106-0.26 0.156-0.051 0.029-0.081 0.064-0.122 0.099-0.056 0.044-0.129 0.056-0.188 0.094-0.037 0.024-0.057 0.049-0.1 0.067-0.063 0.025-0.134 0.032-0.195 0.062-0.027 0.014-0.039 0.025-0.064 0.038-0.021 0.012-0.047 0.023-0.071 0.036-0.058 0.032-0.12 0.058-0.182 0.088-0.082 0.039-0.191 0.095-0.235 0.171-0.026 0.046-0.049 0.105-0.067 0.153-0.021 0.058-0.052 0.127-0.070 0.188-0.026 0.093-0.018 0.204-0.001 0.296 0.008 0.049 0.024 0.095 0.038 0.144 0.018 0.056 0.052 0.096 0.070 0.146 0.023 0.058 0.039 0.283 0.173 0.242 0.045-0.014 0.045-0.071 0.070-0.109 0.037-0.058 0.094-0.118 0.141-0.169 0.072-0.080 0.129-0.166 0.202-0.241 0.101-0.106 0.223-0.166 0.354-0.238 0.058-0.031 0.109-0.082 0.171-0.105 0.068-0.025 0.138-0.032 0.201-0.070 0.091-0.055 0.179-0.094 0.268-0.153 0.107-0.071 0.184-0.175 0.264-0.268 0.056-0.065 0.089-0.148 0.115-0.224 0.025-0.075 0.067-0.157 0.081-0.235 0.017-0.090 0.034-0.257 0.006-0.344-0.030-0.088-0.162-0.246-0.33-0.388z"></path>
<path d="M21.793 20.216c-0.024 0.251-0.189 0.463-0.34 0.658-0.072 0.094-0.144 0.188-0.254 0.251-0.11 0.062-0.223 0.11-0.348 0.154-0.223 0.080-0.443 0.158-0.601 0.322-0.070 0.071-0.116 0.16-0.156 0.253-0.051 0.12-0.063 0.243-0.102 0.365 0.080 0.024 0.194 0.024 0.278 0.025 0.087 0.002 0.137-0.026 0.206-0.057 0.034-0.015 0.062-0.029 0.093-0.046 0.025-0.014 0.065-0.059 0.093-0.067 0.090-0.023 0.062 0.074 0.068 0.138 0.020 0.192 0.034 0.381-0.031 0.565-0.013 0.038-0.004 0.081-0.023 0.118-0.018 0.025-0.039 0.046-0.063 0.065-0.012 0.020-0.014 0.040-0.011 0.063-0.020 0.074-0.102 0.127-0.118 0.206 0.178 0.027 0.309 0.122 0.449 0.219 0.058 0.039 0.122 0.086 0.159 0.145 0.026 0.043 0.037 0.086 0.059 0.129 0.019 0.040 0.030 0.049 0.029 0.097-0.001 0.051-0.037 0.154 0.005 0.186 0.053 0.042 0.165-0.012 0.228 0.040 0.062 0.052 0.008 0.129 0.017 0.2 0.007 0.064 0.067 0.125 0.065 0.188 0.084 0.015 0.156 0.045 0.235 0.077 0.097 0.039 0.086 0.049 0.103 0.141 0.008 0.044 0.046 0.147 0.084 0.177 0.051 0.042 0.151 0.018 0.21 0.063 0.122 0.094-0.017 0.248 0.059 0.353 0.036 0.051 0.103 0.027 0.146 0.080 0.044 0.052 0.036 0.121 0.030 0.183-0.001 0.025-0.017 0.071-0.009 0.095 0.014 0.050 0.097 0.063 0.141 0.096 0.036 0.027 0.086 0.065 0.096 0.107 0.015 0.059-0.013 0.157-0.018 0.22-0.006 0.077 0.002 0.167-0.015 0.243-0.044 0.178-0.162 0.322-0.277 0.468-0.034 0.044-0.044 0.091-0.068 0.14-0.026 0.052-0.064 0.080-0.108 0.121-0.034 0.031-0.123 0.128-0.105 0.169 0.132-0.017 0.229-0.128 0.329-0.186 0.074-0.043 0.151-0.094 0.22-0.146 0.086-0.067 0.169-0.14 0.26-0.201 0.133-0.087 0.274-0.192 0.372-0.314 0.091-0.114 0.153-0.254 0.228-0.377s0.143-0.267 0.186-0.401c0.043-0.131 0.061-0.257 0.108-0.385 0.043-0.119 0.044-0.239 0.052-0.365 0.008-0.12 0.018-0.239 0.026-0.359 0.009-0.128 0.040-0.273 0.021-0.4-0.006-0.038-0.020-0.068-0.021-0.107-0.001-0.055 0.018-0.102 0.006-0.158-0.014-0.069-0.058-0.133-0.084-0.198-0.070-0.169-0.159-0.312-0.259-0.469-0.157-0.246-0.41-0.422-0.662-0.58-0.126-0.078-0.257-0.158-0.371-0.247-0.105-0.082-0.217-0.21-0.252-0.334-0.074-0.259-0.126-0.523-0.198-0.79-0.025-0.090 0.001-0.162-0.006-0.251-0.002-0.031-0.018-0.057-0.023-0.084-0.006-0.030 0.004-0.056 0-0.086-0.004-0.026-0.020-0.040-0.025-0.063-0.009-0.046 0.008-0.091-0.004-0.137-0.023-0.087-0.129-0.107-0.15-0.185 0.044-0.009 0.088-0.008 0.037-0.128z"></path>
<path d="M23.065 15.198c-0.57 0.577-1.501 0.582-2.077 0.012-0.577-0.571-0.582-1.501-0.012-2.079 0.57-0.576 1.501-0.582 2.077-0.011 0.577 0.57 0.582 1.5 0.012 2.077z"></path>
<path d="M18.707 9.741c-0.216-0.046-0.469 0.064-0.521 0.297-0.049 0.209 0.061 0.462 0.285 0.518-0.027 0.203 0.094 0.426 0.303 0.474 0.221 0.050 0.463-0.067 0.523-0.297 0.107-0.42-0.151-0.899-0.589-0.992z"></path>
<path d="M19.648 8.704c0.002-0.167-0.116-0.257-0.246-0.271-0.137-0.141-0.359-0.15-0.548-0.164-0.232-0.018-0.463-0.024-0.695-0.015-0.322 0.009-0.643 0.046-0.96 0.103-0.188-0.089-0.42-0.067-0.605 0.040-0.284 0.164-0.369 0.492-0.397 0.795-0.031 0.336-0.036 0.676-0.052 1.013-0.008 0.173-0.018 0.347-0.026 0.52-0.007 0.151-0.034 0.319 0.004 0.468 0.020 0.083 0.062 0.15 0.114 0.201-0.042 0.133-0.068 0.272-0.105 0.4-0.049 0.169-0.031 0.378-0.043 0.553-0.015 0.203-0.030 0.406-0.044 0.609-0.031 0.417-0.061 0.834-0.090 1.252-0.013 0.171-0.072 0.413 0.081 0.555 0.037 0.033 0.084 0.027 0.123 0.053 0.019 0.012 0.040 0.042 0.055 0.058 0.012 0.014 0.013 0.028 0.027 0.040 0.024 0.018 0.053 0.014 0.076 0.031 0.031 0.021 0.031 0.050 0.069 0.123 0.005-0.061-0.002-0.131 0.020-0.188 0.024-0.056 0.084-0.093 0.12-0.141 0.038-0.051 0.053-0.109 0.106-0.158 0.065-0.059 0.119-0.094 0.163-0.166 0.076-0.123 0.169-0.235 0.251-0.355 0.090-0.131 0.197-0.234 0.278-0.368 0.069-0.115 0.175-0.209 0.278-0.303 0.144-0.131 0.253-0.28 0.385-0.422 0.083-0.089 0.146-0.195 0.23-0.281 0.091-0.094 0.184-0.196 0.261-0.305 0.071-0.101 0.121-0.222 0.157-0.338 0.051-0.171 0.186-0.31 0.264-0.47 0.1-0.206 0.3-0.396 0.328-0.62 0.005-0.043 0.029-0.134 0.006-0.175-0.001-0.004-0.006-0.007-0.009-0.011 0.008-0.014 0.015-0.028 0.021-0.044 0.095-0.233 0.172-0.472 0.234-0.714 0.049-0.112 0.093-0.224 0.116-0.343 0.026-0.135 0.034-0.277 0.019-0.413 0.020-0.182 0.031-0.366 0.033-0.55z"></path>
<path d="M22.795 15.907c-0.123 0.020-0.251 0.026-0.378 0.019-0.047 0.006-0.096 0.011-0.148 0.011-0.177 0-0.33-0.038-0.461-0.102-0.495-0.123-0.956-0.398-1.107-0.912-0.176-0.597 0.198-1.201 0.767-1.39 0.084-0.062 0.178-0.114 0.279-0.154 0.086-0.082 0.181-0.154 0.278-0.204 0.163-0.103 0.338-0.159 0.526-0.167 0.126-0.033 0.251-0.033 0.377 0 0.001 0 0.002 0 0.004 0 0.027-0.037 0.058-0.072 0.093-0.104 0.006-0.007 0.013-0.013 0.019-0.020-0.202-0.764-0.571-1.499-1.118-2.157 0 0-0.001-0.001-0.001-0.002-0.137-0.261-0.29-0.515-0.464-0.757-0.129-0.179-0.355-0.171-0.472-0.013-0.001 0.008-0.004 0.018-0.005 0.026-0.086 0.020-0.162 0.081-0.191 0.194-0.259 1.006-0.519 2.011-0.779 3.017-0.001 0.005-0.002 0.009-0.005 0.015-0.045 0.106-0.090 0.211-0.137 0.315-0.052 0.116-0.123 0.215-0.208 0.3-0.005 0.011-0.009 0.019-0.013 0.030-0.018 0.047-0.029 0.102-0.045 0.152-0.023 0.068-0.083 0.114-0.112 0.182-0.047 0.11-0.105 0.204-0.172 0.308-0.071 0.107-0.113 0.222-0.197 0.323-0.056 0.068-0.097 0.127-0.143 0.196-0.033 0.050-0.088 0.068-0.128 0.104-0.064 0.059-0.103 0.143-0.167 0.206-0.047 0.046-0.086 0.095-0.14 0.139-0.039 0.032-0.097 0.045-0.145 0.065-0.075 0.031-0.12 0.082-0.192 0.113s-0.145 0.055-0.213 0.095c-0.056 0.034-0.090 0.087-0.147 0.116-0.141 0.072-0.293 0.106-0.449 0.129-0.088-0.020-0.179-0.061-0.246-0.114-0.135-0.106-0.214-0.214-0.285-0.371-0.002-0.006-0.008-0.021-0.009-0.025-0.009-0.024-0.018-0.049-0.025-0.072-0.015-0.050-0.029-0.1-0.039-0.15-0.019-0.089-0.029-0.179-0.033-0.271-0.009-0.221 0.009-0.443 0.033-0.663 0.013-0.121-0.097-0.242-0.208-0.273-0.12-0.032-0.255 0.023-0.319 0.131-0.194 0.33-0.24 0.719-0.219 1.096 0.015 0.251 0.056 0.499 0.075 0.748-0.074-0.005-0.147-0.012-0.221-0.020-0.004 0.011-0.008 0.020-0.012 0.031-0.012 0.040 0.008 0.089-0.005 0.129-0.012 0.034-0.034 0.058-0.046 0.094-0.037 0.115-0.018 0.278-0.027 0.4-0.008 0.125-0.089 1.239-0.099 1.365-0.004 0.058 0.002 0.125-0.011 0.181-0.018 0.070-0.047 0.116-0.051 0.191-0.008 0.137-0.020 0.272-0.030 0.409-0.036 0.489-0.068 0.979-0.106 1.468-0.006 0.065 0.004 0.113 0.014 0.175 0.013 0.070-0.002 0.146-0.008 0.216-0.009 0.141-0.020 0.284-0.030 0.425-0.009 0.122-0.020 0.246-0.027 0.368-0.004 0.067-0.032 0.101-0.049 0.16-0.018 0.064-0.008 0.146-0.013 0.213-0.011 0.148-0.021 0.296-0.032 0.444-0.005 0.070-0.011 0.141-0.015 0.211-0.005 0.058-0.042 0.173-0.019 0.228 0.026 0.068 0.342 0.055 0.422 0.061 0.186 0.013 0.373 0.027 0.559 0.040 0.182 0.435 0.782 0.635 1.152 0.249 0.277-0.289 0.571-0.451 0.974-0.476 0.55-0.033 0.798-0.514 0.637-0.993 0.018-0.018 0.036-0.038 0.051-0.061 0.027-0.040 0.076-0.488 0.119-0.823 0.381-0.423 1.095-0.753 1.405-1.035 0.327-0.297 0.546-0.635 0.662-1.010 0.047-0.072 0.096-0.144 0.154-0.214 0.050-0.062 0.101-0.151 0.164-0.202 0.069-0.057 0.15-0.1 0.216-0.163 0.044-0.043 0.166-0.178 0.12-0.242-0.026-0.037-0.069-0.042-0.116-0.033 0.48-0.551 0.83-1.162 1.057-1.801-0.042-0.030-0.082-0.061-0.119-0.095z"></path>
</svg>
