<!-- Generated by IcoMoon.io -->
<svg version="1.1" xmlns="http://www.w3.org/2000/svg" width="32" height="32" viewBox="0 0 32 32">
<path fill="#7c14b6" d="M15.71 1.011c-6.454 0.233-12.255 4.187-14.136 10.539-2.715 9.17 4.323 19.879 14.373 19.437 2.603-0.114 5.366-0.747 7.595-2.127 12.474-7.723 7.511-28.403-7.832-27.849zM15.235 2.599c1.652-0.195 3.429 0.183 4.984 0.726 12.16 4.246 11.909 24.064-1.899 25.744-4.266 0.519-8.383-0.392-11.589-3.383-6.065-5.658-5.355-16.144 1.621-20.757 2.099-1.388 4.412-2.039 6.883-2.33zM14.523 10.014c-7.903 1.824-4.723 13.655 3.085 11.853 7.662-1.768 4.444-13.59-3.085-11.853z"></path>
</svg>
