<!-- Generated by IcoMoon.io -->
<svg version="1.1" xmlns="http://www.w3.org/2000/svg" width="30" height="32" viewBox="0 0 30 32">
<path d="M15.704 30.538c-0.192-0.775-0.556-2.056-0.953-3.352-0.066-0.216-0.201-0.662-0.299-0.991-0.593-1.985-1.010-2.947-1.607-3.712-0.382-0.49-0.745-0.812-1.882-1.668-0.835-0.629-1.18-0.959-1.419-1.355-0.21-0.349-0.213-0.596-0.012-0.841 0.197-0.239 0.826-0.6 1.334-0.765 0.274-0.089 0.21-0.094-0.159-0.012-0.53 0.117-0.571 0.092-0.536-0.327 0.040-0.494 0.242-1.538 0.304-1.577 0.016-0.010 0.029-0.039 0.029-0.065 0-0.069 0.21-0.505 0.323-0.671 0.234-0.344 0.809-0.832 0.908-0.771 0.024 0.015 0.030 0.010 0.015-0.013-0.012-0.020-0.007-0.036 0.011-0.036 0.022 0 0.026 0.045 0.010 0.134-0.040 0.224-0.022 0.778 0.036 1.078 0.054 0.279 0.206 0.768 0.412 1.321 0.058 0.156 0.171 0.467 0.25 0.692s0.165 0.459 0.19 0.519c0.056 0.139 0.364 0.942 0.596 1.557 0.098 0.26 0.219 0.578 0.27 0.708 0.424 1.097 0.881 2.45 1.526 4.515 0.392 1.256 0.587 2.196 0.753 3.634 0.041 0.355 0.076 0.631 0.078 0.613s0.046-0.308 0.098-0.645c0.24-1.56 0.442-2.442 0.835-3.634 0.952-2.892 1.043-3.446 1.071-6.513 0.008-0.882 0.025-1.702 0.037-1.82l0.023-0.216 0.271 0.254c0.378 0.354 0.928 1.084 1.177 1.561 0.121 0.233 0.133 0.303 0.059 0.364-0.058 0.048-0.435 0.058-0.815 0.020l-0.252-0.025 0.184 0.078c0.265 0.112 0.735 0.381 1.205 0.69 0.5 0.329 0.741 0.573 0.815 0.826 0.094 0.325-0.013 0.543-0.532 1.081-1.037 1.074-2.033 2.703-2.733 4.47-0.192 0.484-0.448 1.205-0.526 1.479-0.032 0.112-0.167 0.58-0.3 1.038-0.367 1.265-0.573 2.163-0.652 2.833-0.005 0.044-0.069-0.161-0.142-0.456zM11.204 17.758c-0.022-0.009-0.057-0.009-0.079 0s-0.004 0.016 0.039 0.016c0.043 0 0.061-0.007 0.039-0.016zM15.053 23.83l-0.814-2.441 0.213-0.759c0.117-0.417 0.283-0.977 0.369-1.243s0.164-0.561 0.173-0.654l0.018-0.17-0.256-0.239c-0.141-0.132-0.256-0.257-0.256-0.279 0-0.112 0.392-0.235 0.747-0.235 0.392 0 0.857 0.121 0.857 0.223 0 0.018-0.1 0.147-0.223 0.286-0.267 0.303-0.266 0.272-0.009 0.865 0.097 0.222 0.218 0.503 0.27 0.624s0.15 0.338 0.217 0.482c0.067 0.144 0.122 0.268 0.122 0.276s0.062 0.153 0.138 0.321c0.076 0.168 0.19 0.421 0.252 0.563l0.114 0.257-0.094 0.388c-0.052 0.213-0.23 0.954-0.396 1.646-0.522 2.179-0.589 2.453-0.609 2.492-0.011 0.021-0.386-1.061-0.834-2.403zM13.399 17.946c-0.197-0.103-0.228-0.283-0.094-0.547 0.095-0.187 0.134-0.38 0.095-0.48-0.035-0.091-0.106-0.131-0.616-0.339-0.401-0.164-0.527-0.335-0.411-0.559 0.091-0.176 0.336-0.205 0.819-0.098 0.485 0.107 0.666 0.218 1.381 0.844 0.293 0.257 0.481 0.357 0.702 0.376 0.34 0.028 0.588-0.090 1.065-0.51 0.451-0.397 0.669-0.522 0.91-0.522 0.3 0 0.284 0.116-0.065 0.448-0.307 0.294-0.401 0.452-0.351 0.596 0.038 0.11 0.131 0.175 0.35 0.246 0.205 0.067 0.272 0.164 0.213 0.308-0.058 0.14-0.2 0.195-0.501 0.195-0.184 0-0.323-0.022-0.508-0.080-0.399-0.126-0.709-0.175-1.119-0.176-0.405-0.002-0.345-0.015-1.052 0.243-0.309 0.113-0.661 0.136-0.818 0.055zM15.21 16.456c-0.452-0.113-1.734-0.876-2.178-1.297-0.255-0.242-0.451-0.524-0.554-0.797-0.066-0.176-0.070-0.233-0.072-1.145-0.002-0.919-0.006-0.975-0.085-1.321-0.121-0.528-0.207-0.754-0.515-1.351-0.22-0.426-0.29-0.536-0.341-0.536-0.035 0-0.156 0.045-0.268 0.1-0.175 0.085-0.241 0.1-0.456 0.102-0.205 0.002-0.277-0.011-0.387-0.069-0.496-0.263-0.696-0.807-0.468-1.273 0.15-0.307 0.428-0.502 0.93-0.654l0.233-0.070-0.019-0.287c-0.049-0.726-0.292-1.867-0.601-2.819-0.076-0.234-0.211-0.668-0.3-0.965-0.154-0.511-0.16-0.547-0.123-0.673 0.14-0.468 1.313-1.173 2.796-1.681 0.742-0.254 1.889-0.54 2.659-0.663 0.824-0.132 1.747-0.019 2.024 0.247 0.21 0.202 0.283 0.438 0.367 1.186 0.177 1.583 0.406 2.671 0.753 3.574 0.079 0.206 0.144 0.385 0.144 0.398s-0.091 0.024-0.202 0.024c-0.703 0-3.611 0.527-4.786 0.867-0.356 0.103-1.903 0.646-1.954 0.686-0.003 0.002 0.747 0.003 1.667 0.002 1.371-0.002 1.758-0.011 2.145-0.056 1.116-0.128 1.685-0.253 2.533-0.555 1.454-0.518 1.819-0.609 2.382-0.593 0.304 0.009 0.362 0.019 0.414 0.073 0.117 0.12 0.098 0.295-0.049 0.458-0.2 0.221-1.033 0.577-1.616 0.69l-0.174 0.034-0.039 0.329c-0.050 0.423-0.081 0.355 0.631 1.379 0.297 0.426 0.37 0.553 0.37 0.639 0 0.241-0.16 0.387-0.498 0.453-0.109 0.021-0.219 0.059-0.244 0.084-0.059 0.059-0.057 0.264 0.002 0.407 0.069 0.166 0.059 0.215-0.065 0.315-0.111 0.089-0.111 0.091-0.063 0.184 0.063 0.122 0.063 0.126-0.026 0.211-0.12 0.114-0.239 0.31-0.239 0.392 0 0.042 0.028 0.131 0.063 0.199 0.12 0.235 0.058 0.604-0.13 0.777-0.041 0.038-0.146 0.102-0.232 0.142-0.147 0.068-0.197 0.072-0.765 0.072-0.566 0-0.611 0.004-0.653 0.061-0.059 0.081-0.057 0.352 0.005 0.647 0.062 0.293 0.043 0.506-0.066 0.75-0.066 0.147-0.161 0.263-0.451 0.546-0.426 0.417-0.582 0.546-0.831 0.685-0.201 0.112-0.45 0.147-0.666 0.093z"></path>
</svg>
