<!-- Generated by IcoMoon.io -->
<svg version="1.1" xmlns="http://www.w3.org/2000/svg" width="32" height="32" viewBox="0 0 32 32">
<path d="M22.961 16.687c-0.034 0-0.074-0.007-0.107 0.002-0.032 0.008-0.046 0.032-0.073 0.043-0.029 0.013-0.053 0.007-0.082 0.008-0.033 0.001-0.040 0.001-0.071 0.018-0.048 0.025-0.088 0.036-0.137 0.053s-0.064 0.043-0.124 0.042c-0.049-0.001-0.142-0.018-0.185 0.005-0.019 0.010-0.031 0.038-0.051 0.049s-0.051 0.023-0.073 0.029c-0.052 0.016-0.114 0.007-0.166 0.023-0.047 0.015-0.096 0.040-0.141 0.060-0.098 0.042-0.174 0.096-0.262 0.155-0.041 0.028-0.090 0.041-0.132 0.071-0.038 0.028-0.072 0.056-0.112 0.077-0.111 0.059-0.203 0.138-0.328 0.168-0.052 0.012-0.101 0.038-0.148 0.048-0.055 0.012-0.095 0.007-0.146 0.032-0.057 0.028-0.103 0.045-0.169 0.044-0.062-0.001-0.122 0.006-0.18 0.023-0.035 0.011-0.040 0.022-0.082 0.025-0.028 0.001-0.056-0-0.084-0-0.062-0-0.097 0.024-0.154 0.024-0.066 0.001-0.122-0.025-0.19-0.024-0.062 0.001-0.119-0.014-0.178-0.029-0.063-0.015-0.126-0.032-0.19-0.048-0.030-0.007-0.052-0.016-0.084-0.018-0.028-0.003-0.044-0.014-0.064-0.019-0.112-0.023-0.224-0.052-0.34-0.074-0.034-0.007-0.072-0.002-0.107-0.002s-0.052 0.013-0.077 0.018c-0.051 0.011-0.105-0-0.156 0.010-0.024 0.005-0.060 0.024-0.089 0.030-0.027 0.006-0.055 0.010-0.083 0.017-0.059 0.014-0.101 0.038-0.155 0.064-0.099 0.047-0.232 0.026-0.344 0.026-0.063 0-0.127 0.004-0.19 0s-0.112-0.033-0.178-0.025c-0.074 0.009-0.113 0.034-0.19 0.013-0.020-0.006-0.063-0.010-0.063-0.036 0-0.016 0.042-0.039 0.056-0.042 0.027-0.007 0.060 0.003 0.085-0.010 0.016-0.008 0.036-0.032 0.052-0.043 0.035-0.022 0.078-0.032 0.113-0.053 0.106-0.064 0.221-0.083 0.328-0.149 0.055-0.034 0.104-0.079 0.154-0.119 0.035-0.028 0.068-0.045 0.1-0.077 0.017-0.017 0.034-0.039 0.053-0.054 0.017-0.013 0.039-0.017 0.054-0.029 0.025-0.019 0.029-0.044 0.046-0.067 0.020-0.025 0.037-0.028 0.064-0.047 0.089-0.064 0.145-0.144 0.234-0.208 0.042-0.030 0.089-0.051 0.132-0.083 0.030-0.023 0.050-0.062 0.081-0.084 0.041-0.030 0.091-0.045 0.131-0.082 0.030-0.029 0.057-0.065 0.091-0.089 0.055-0.039 0.087-0.077 0.126-0.134 0.025-0.037 0.048-0.088 0.079-0.123 0.036-0.040 0.093-0.066 0.132-0.106 0.040-0.041 0.082-0.048 0.126-0.077 0.020-0.013 0.031-0.042 0.052-0.055s0.056-0.018 0.079-0.029c0.026-0.012 0.044-0.026 0.066-0.042 0.032-0.023 0.029-0.015 0.065-0.029 0.1-0.037 0.224-0.052 0.32-0.096 0.098-0.044 0.214-0.057 0.322-0.071 0.031-0.004 0.041-0.019 0.070-0.026s0.066 0.004 0.096 0.002c0.053-0.004 0.102-0.033 0.148-0.043 0.058-0.013 0.124-0.005 0.185-0.005s0.098 0.022 0.154 0.024c0.069 0.002 0.125 0.020 0.19 0.035 0.026 0.006 0.052 0.011 0.078 0.017 0.007 0.002 0.016 0.017 0.028 0.020 0.016 0.004 0.034-0.006 0.050-0.002 0.028 0.006 0.038 0.022 0.069 0.026 0.037 0.004 0.059 0.006 0.096 0.017 0.060 0.019 0.119 0.035 0.178 0.051 0.102 0.028 0.198 0.079 0.296 0.121 0.102 0.044 0.197 0.066 0.292 0.113 0.090 0.045 0.178 0.099 0.265 0.151 0.052 0.032 0.115 0.058 0.167 0.092 0.044 0.029 0.085 0.068 0.133 0.090 0.102 0.048 0.205 0.080 0.299 0.147 0.048 0.035 0.094 0.068 0.143 0.096 0.021 0.012 0.048 0.022 0.064 0.041 0.020 0.024 0.015 0.056 0.040 0.078-0.21 0.008-0.429 0.048-0.499 0.048zM15.685 17.52c-0.031 0-0.065 0.004-0.096 0s-0.042-0.019-0.070-0.026c-0.121-0.029-0.263 0.021-0.382-0.011-0.056-0.015-0.116-0.009-0.178-0.012-0.055-0.002-0.084-0.025-0.142-0.024-0.053 0-0.128 0.014-0.18 0.001-0.023-0.005-0.033-0.021-0.057-0.026s-0.058 0.001-0.084 0.001c-0.12 0-0.213-0.026-0.333-0.024-0.059 0.001-0.094-0.023-0.155-0.023-0.063-0.001-0.113-0.025-0.178-0.024-0.059 0.001-0.093-0.024-0.155-0.024-0.055 0-0.111 0-0.166 0-0.060 0-0.119 0-0.178 0-0.065-0-0.116 0.023-0.178 0.024-0.106 0.002-0.243 0.021-0.345-0.006-0.056-0.015-0.304-0.059-0.339 0.001-0.127-0.051-0.325-0.020-0.469-0.020-0.072 0-0.169 0.018-0.239 0.001-0.058-0.014-0.107-0.048-0.158-0.079-0.025-0.015-0.053-0.026-0.078-0.041s-0.045-0.035-0.071-0.053c-0.051-0.036-0.099-0.081-0.153-0.114-0.096-0.058-0.194-0.133-0.287-0.201-0.108-0.079-0.226-0.153-0.328-0.244-0.045-0.040-0.076-0.079-0.131-0.108-0.052-0.027-0.119-0.057-0.167-0.094-0.092-0.072-0.175-0.156-0.266-0.231s-0.188-0.219-0.3-0.261c-0.058-0.021-0.119-0.030-0.176-0.050s-0.119-0.041-0.179-0.069c-0.035-0.016-0.069-0.030-0.107-0.044-0.030-0.011-0.040-0.021-0.064-0.036-0.031-0.019-0.103-0.071-0.142-0.065 0.051 0.010 0.047-0.012 0.081-0.030 0.027-0.014 0.056-0.023 0.084-0.035 0.055-0.024 0.098-0.044 0.155-0.059 0.061-0.015 0.114-0.040 0.184-0.042 0.042-0.001 0.047-0.017 0.082-0.025 0.023-0.006 0.050 0.008 0.074 0.002 0.011-0.002 0.022-0.018 0.028-0.020 0.065-0.015 0.141-0.005 0.209-0.005 0.039 0 0.080-0.003 0.119-0.001s0.069 0.020 0.107 0.025c0.146 0.020 0.309-0.032 0.453-0.002 0.058 0.012 0.115 0.037 0.177 0.050 0.030 0.006 0.066-0.010 0.096-0.002 0.028 0.007 0.038 0.022 0.070 0.026 0.074 0.008 0.138 0.023 0.214 0.023 0.028-0 0.069-0.008 0.096-0.001 0.029 0.007 0.036 0.021 0.070 0.026 0.035 0.005 0.071-0.005 0.105 0.002 0.027 0.005 0.040 0.018 0.073 0.022 0.060 0.006 0.1 0.024 0.166 0.024 0.070-0 0.113 0.020 0.178 0.023 0.037 0.002 0.060 0.020 0.095 0.026 0.030 0.005 0.060-0.003 0.090 0.004 0.006 0.001 0.045 0.016 0.053 0.018 0.013 0.004 0.028 0.002 0.042 0.005 0.011 0.003 0.011 0.016 0.028 0.020 0.015 0.004 0.034-0.005 0.049-0.002 0.035 0.006 0.058 0.024 0.095 0.026 0.039 0.002 0.059 0.009 0.095 0.018 0.063 0.016 0.131 0.022 0.19 0.041 0.053 0.016 0.098 0.062 0.148 0.078 0.099 0.031 0.192 0.082 0.289 0.127 0.088 0.041 0.172 0.11 0.258 0.157 0.104 0.057 0.204 0.117 0.304 0.173 0.094 0.053 0.199 0.116 0.286 0.178 0.084 0.059 0.153 0.139 0.238 0.197 0.088 0.061 0.152 0.154 0.242 0.214 0.098 0.064 0.197 0.151 0.303 0.196 0.118 0.051 0.229 0.116 0.343 0.169 0.101 0.048 0.193 0.1 0.3 0.14 0.031 0.011 0.073 0.035 0.1 0.042s0.056 0.004 0.084 0.011c0.027 0.007 0.064 0.024 0.099 0.042-0.008 0-0.014-0-0.022-0zM24.463 24.913c0-0.050 0.010-0.11 0.002-0.158-0.004-0.026-0.021-0.047-0.025-0.073-0.005-0.031 0.008-0.066 0.003-0.098-0.009-0.058-0.024-0.096-0.023-0.158 0.001-0.057 0.001-0.114 0.001-0.17 0-0.024-0.003-0.050-0-0.073 0.004-0.029 0.027-0.057 0.027-0.085 0-0.025-0.022-0.048-0.026-0.073-0.005-0.031 0.008-0.066 0.003-0.097-0.018-0.113-0.057-0.214-0.068-0.329-0.003-0.032-0.020-0.055-0.025-0.086-0.004-0.025 0.003-0.047-0.003-0.073-0.008-0.033-0.016-0.050-0.018-0.086-0.002-0.032-0.011-0.042-0.018-0.066-0.013-0.048-0.027-0.103-0.028-0.153-0-0.027 0.008-0.061 0.002-0.087-0.005-0.023-0.020-0.034-0.025-0.059-0.020-0.099 0.002-0.228 0.003-0.33 0.001-0.114 0.001-0.227 0.002-0.341 0.001-0.107-0.024-0.2-0.043-0.305-0.018-0.102-0-0.225 0-0.329 0.001-0.11 0.002-0.219 0.002-0.329 0.001-0.12 0.023-0.216 0.049-0.329 0.012-0.053 0.024-0.102 0.024-0.158 0-0.028-0.003-0.058 0-0.086 0.003-0.029 0.017-0.039 0.022-0.062 0.011-0.050-0.010-0.108 0.002-0.158 0.006-0.023 0.021-0.034 0.026-0.059 0.006-0.028-0.008-0.060-0.002-0.087 0.006-0.024 0.022-0.032 0.026-0.059 0.004-0.028-0.003-0.052 0.005-0.081 0.005-0.019 0.016-0.028 0.019-0.054 0.004-0.031-0-0.066 0-0.098 0.001-0.117-0.022-0.218-0.042-0.329-0.009-0.049-0.002-0.108-0.001-0.158 0.001-0.058-0.013-0.114-0.021-0.171-0.008-0.054-0.042-0.103-0.048-0.159s0.002-0.115 0.002-0.17c0-0.053 0.001-0.106 0.001-0.158-0-0.061 0.024-0.109 0.024-0.17-0.001-0.11 0-0.22 0.002-0.329 0.002-0.112-0.046-0.218-0.044-0.329 0.005-0.247-0.002-0.494 0.004-0.741 0.002-0.057 0.022-0.102 0.024-0.159 0.003-0.063 0.017-0.133 0.030-0.195 0.024-0.115 0.067-0.235 0.067-0.354-0-0.111-0.006-0.224 0.020-0.329 0.025-0.098 0.006-0.226 0.007-0.329 0.002-0.114-0.046-0.214-0.044-0.329 0.001-0.053 0-0.106 0.001-0.158 0.001-0.074-0.018-0.136-0.022-0.207-0.006-0.098-0.016-0.234 0.005-0.329 0.021-0.098 0.041-0.224 0.024-0.329-0.004-0.026-0.023-0.047-0.026-0.073-0.004-0.034 0.018-0.055 0.024-0.085 0.010-0.057 0.018-0.113 0.026-0.17 0.004-0.027 0.017-0.047 0.022-0.073 0.006-0.028-0.003-0.057 0.001-0.085 0.005-0.026 0.022-0.046 0.026-0.073 0.006-0.031-0.007-0.066-0.002-0.097s0.022-0.054 0.026-0.085c0.003-0.024-0.006-0.051-0.001-0.074 0.009-0.044 0.026-0.089 0.037-0.133 0.022-0.094 0.054-0.193 0.078-0.292 0.013-0.051 0.009-0.084 0.032-0.131 0.022-0.045 0.042-0.073 0.045-0.124 0.002-0.053 0.001-0.106 0.001-0.159 0-0.077-0.008-0.112-0.034-0.183-0.081-0.216-0.158-0.418-0.287-0.609-0.062-0.092-0.124-0.192-0.178-0.289-0.056-0.1-0.119-0.201-0.178-0.301-0.023-0.039-0.055-0.067-0.081-0.103-0.029-0.041-0.059-0.085-0.092-0.129-0.063-0.083-0.135-0.16-0.196-0.243-0.119-0.164-0.214-0.354-0.333-0.515-0.123-0.166-0.242-0.348-0.363-0.519-0.071-0.101-0.144-0.188-0.226-0.276-0.043-0.045-0.082-0.090-0.126-0.136-0.026-0.027-0.056-0.039-0.082-0.063s-0.034-0.056-0.056-0.084c-0.023-0.030-0.056-0.038-0.080-0.063-0.016-0.017-0.032-0.041-0.048-0.059-0.036-0.040-0.075-0.088-0.118-0.123-0.081-0.066-0.164-0.131-0.241-0.202-0.084-0.077-0.166-0.163-0.248-0.245-0.068-0.068-0.15-0.12-0.225-0.181-0.066-0.053-0.116-0.118-0.178-0.174-0.095-0.086-0.197-0.16-0.297-0.24-0.162-0.13-0.346-0.243-0.52-0.366-0.169-0.119-0.333-0.242-0.521-0.317-0.102-0.041-0.208-0.074-0.314-0.106s-0.209-0.045-0.313-0.087c-0.095-0.038-0.198-0.093-0.292-0.121-0.050-0.015-0.1-0.026-0.15-0.046-0.044-0.018-0.090-0.049-0.138-0.057-0.051-0.009-0.1-0.014-0.151-0.026-0.025-0.006-0.051-0.019-0.076-0.028-0.020-0.008-0.041-0.011-0.064-0.018-0.087-0.026-0.177-0.058-0.266-0.081-0.108-0.028-0.215-0.085-0.325-0.113-0.098-0.025-0.196-0.054-0.288-0.083-0.018-0.006-0.028-0.018-0.048-0.023-0.023-0.006-0.050 0.001-0.075 0.001-0.004-0.012-0.008-0.023-0.015-0.032-0.018-0.026-0.074-0.054-0.096-0.068-0.046-0.030-0.079-0.054-0.135-0.074-0.036-0.013-0.091-0.014-0.123-0.034-0.045-0.027-0.067-0.051-0.123-0.060-0.187-0.029-0.388-0.003-0.578-0.005-0.090-0.001-0.176 0.019-0.266 0.024-0.127 0.006-0.232 0.031-0.352 0.062-0.096 0.024-0.192 0.049-0.288 0.074-0.079 0.021-0.144 0.060-0.22 0.088-0.063 0.023-0.121 0.043-0.183 0.069-0.011 0.007-0.022 0.007-0.034-0.001l-0.247 0.096c-0.221 0.093-0.438 0.194-0.653 0.301l-0.018 0.077c-0.057 0.015-0.114 0.023-0.17 0.044-0.055 0.021-0.108 0.051-0.163 0.072-0.063 0.024-0.124 0.023-0.186 0.048-0.109 0.043-0.208 0.089-0.315 0.144-0.102 0.053-0.2 0.101-0.292 0.169-0.091 0.067-0.167 0.131-0.268 0.171-0.056 0.022-0.107 0.062-0.163 0.082-0.054 0.019-0.106 0.025-0.157 0.052-0.044 0.024-0.072 0.057-0.111 0.085-0.048 0.035-0.101 0.046-0.147 0.084-0.16 0.132-0.357 0.201-0.548 0.276-0.086 0.034-0.165 0.096-0.247 0.142-0.088 0.048-0.178 0.099-0.271 0.147-0.206 0.106-0.4 0.221-0.607 0.337-0.040 0.022-0.077 0.043-0.11 0.072-0.037 0.033-0.063 0.061-0.104 0.084-0.089 0.048-0.149 0.129-0.228 0.188-0.077 0.058-0.146 0.107-0.216 0.175-0.078 0.076-0.173 0.106-0.264 0.163-0.041 0.026-0.071 0.060-0.114 0.085s-0.088 0.041-0.132 0.065c-0.051 0.028-0.104 0.082-0.14 0.128-0.043 0.053-0.084 0.082-0.135 0.127-0.153 0.138-0.352 0.224-0.512 0.362-0.143 0.122-0.383 0.264-0.423 0.459-0.005 0.026-0.002 0.052-0.008 0.078-0.005 0.024-0.019 0.034-0.022 0.062-0.008 0.062-0 0.132-0.001 0.196 0 0.024 0.002 0.049 0 0.073-0.002 0.038-0.019 0.061-0.026 0.097-0.010 0.058 0.009 0.123-0.002 0.181-0.005 0.024-0.019 0.031-0.022 0.062-0.003 0.032-0.003 0.054-0.012 0.086s-0.012 0.051-0.012 0.085c-0 0.036-0.011 0.050-0.019 0.078-0.014 0.052-0.002 0.111-0.006 0.165-0.002 0.034-0.015 0.053-0.022 0.085s-0.001 0.065-0.002 0.098c-0.002 0.053-0.015 0.117-0.026 0.168-0.005 0.022-0.019 0.035-0.022 0.062-0.004 0.032 0 0.066 0 0.098-0 0.057-0.001 0.114-0.001 0.171-0 0.028 0 0.057-0 0.085-0.001 0.041-0.014 0.060-0.022 0.097-0.006 0.028 0.005 0.059-0.001 0.087-0.006 0.023-0.021 0.034-0.026 0.058-0.012 0.059 0.010 0.124-0.006 0.184-0.031 0.123-0.020 0.261-0.021 0.39-0 0.060-0.013 0.135-0.002 0.194 0.006 0.031 0.021 0.054 0.025 0.085s-0.001 0.066-0.002 0.098c-0.001 0.123-0.018 0.232-0.025 0.353-0.004 0.058-0.021 0.11-0.024 0.17s-0.032 0.126-0.051 0.182c-0.020 0.060-0.022 0.107-0.022 0.17 0 0.066-0.025 0.117-0.024 0.183 0.001 0.063-0.022 0.111-0.025 0.17-0.004 0.066-0.010 0.15 0.004 0.214 0.008 0.035 0.017 0.053 0.018 0.091 0 0.030-0.003 0.056 0.004 0.085 0.015 0.061 0.014 0.122 0.028 0.183 0.028 0.124 0.048 0.254 0.084 0.378 0.016 0.055 0.034 0.114 0.040 0.171 0.003 0.032 0.015 0.055 0.021 0.085 0.006 0.032-0.003 0.064 0.003 0.095 0.005 0.024 0.018 0.034 0.021 0.063s-0.001 0.058-0.001 0.086c-0 0.061-0.001 0.122-0.001 0.183-0.001 0.122-0 0.244-0.002 0.366-0.001 0.068-0.025 0.126-0.024 0.195s0.004 0.14-0.013 0.207c-0.030 0.117-0.014 0.26-0.014 0.383 0 0.070-0.025 0.125-0.024 0.195 0 0.076-0.007 0.151 0.010 0.224 0.029 0.123-0.013 0.256 0.008 0.38 0.005 0.032 0.021 0.055 0.025 0.088 0.004 0.035-0.001 0.073-0.002 0.108-0.001 0.070 0.024 0.126 0.022 0.194-0.001 0.026-0.001 0.048 0.005 0.073 0.009 0.036 0.010 0.061 0.016 0.098 0.004 0.028 0.021 0.050 0.025 0.079 0.007 0.047-0.002 0.082 0.010 0.129 0.014 0.056 0.002 0.112 0.012 0.168 0.004 0.024 0.018 0.032 0.021 0.063 0.003 0.032-0.008 0.066-0.002 0.098s0.021 0.054 0.025 0.085c0.003 0.029-0.004 0.056 0.004 0.085 0.015 0.061 0.023 0.123 0.040 0.183 0.016 0.056 0.024 0.114 0.034 0.171s0.036 0.1 0.034 0.159c-0.002 0.058 0.024 0.089 0.022 0.146-0.002 0.060 0.020 0.098 0.022 0.159 0.001 0.055 0.024 0.088 0.022 0.146-0.001 0.061-0.001 0.122-0.001 0.183-0.001 0.122-0.002 0.244-0.002 0.365-0 0.028 0.004 0.058 0 0.085-0.004 0.032-0.020 0.054-0.026 0.085-0.010 0.056 0 0.126 0 0.183-0 0.065-0.001 0.13-0.001 0.195-0 0.054 0.012 0.132 0 0.184-0.005 0.023-0.020 0.035-0.026 0.059-0.006 0.028 0.003 0.057-0.005 0.086-0.016 0.063-0.019 0.114-0.019 0.182-0.001 0.123-0.025 0.23-0.026 0.353-0 0.063-0.004 0.112-0.019 0.17-0.015 0.060-0.006 0.132-0.006 0.195-0.001 0.119-0.021 0.261-0 0.378 0.005 0.031 0.020 0.053 0.021 0.086 0.001 0.028-0.001 0.057-0.001 0.085-0.001 0.067 0.020 0.12 0.023 0.183 0.006 0.137 0.045 0.27 0.066 0.402 0.020 0.126 0.052 0.25 0.069 0.38 0.019 0.146 0.026 0.297 0.060 0.438 0.014 0.056-0.005 0.115 0.009 0.171 0.008 0.030 0.017 0.045 0.018 0.078 0.002 0.055 0.009 0.079 0.020 0.131 0.013 0.063 0.001 0.14 0.001 0.205-0 0.062 0.007 0.13-0.006 0.19-0.005 0.022-0.017 0.034-0.019 0.066-0.001 0.027 0.007 0.060 0.001 0.087-0.005 0.023-0.020 0.035-0.026 0.059-0.007 0.030 0.006 0.067 0.001 0.098s-0.021 0.055-0.026 0.085c-0.005 0.028 0.004 0.057-0.001 0.085-0.006 0.031-0.021 0.052-0.022 0.085-0.002 0.034-0.012 0.053-0.018 0.078-0.013 0.053-0.030 0.109-0.030 0.165 0.001 0.065-0.024 0.117-0.024 0.183 0 0.118-0.019 0.253 0.009 0.365 0.014 0.057 0.009 0.114 0.022 0.171s0.030 0.103 0.051 0.159c0.034 0.094 0.078 0.181 0.143 0.258 0.066 0.078 0.116 0.17 0.185 0.243s0.116 0.135 0.15 0.232c0.034 0.098 0.082 0.202 0.079 0.305-0.001 0.062 0.011 0.093 0.023 0.145 0.012 0.055-0.026 0.115 0.027 0.156 0.098-0.041 0.173-0.126 0.263-0.19 0.114-0.080 0.235-0.129 0.362-0.186s0.234-0.102 0.373-0.102c0.029 0 0.065 0.007 0.093 0.002 0.035-0.006 0.057-0.024 0.093-0.026 0.065-0.003 0.133 0.010 0.198 0.003 0.033-0.004 0.060-0.021 0.093-0.026 0.027-0.004 0.059 0.001 0.087 0.002 0.082 0 0.164 0.001 0.245 0.002 0.058 0 0.122 0.009 0.18 0.002 0.033-0.004 0.060-0.022 0.093-0.026 0.042-0.005 0.088 0.002 0.129 0.002 0.067 0 0.121 0.002 0.184 0.020 0.071 0.020 0.149-0.004 0.222 0.006 0.068 0.010 0.126 0.027 0.197 0.027 0.046-0 0.075 0.009 0.118 0.020 0.045 0.011 0.094 0.006 0.14 0.006 0.124 0.001 0.247 0.002 0.371 0.002 0.062 0 0.124 0.005 0.186 0.002 0.065-0.003 0.135-0.032 0.198-0.048 0.059-0.015 0.116-0.027 0.175-0.042 0.032-0.008 0.061-0.002 0.093-0.010 0.042-0.011 0.070-0.020 0.116-0.018 0.063 0.002 0.111-0.025 0.174-0.023 0.084 0.002 0.16-0.021 0.244-0.022 0.045-0.001 0.074-0.018 0.116-0.025 0.036-0.006 0.080 0.002 0.118 0.002 0.078 0 0.142 0.026 0.218 0.026 0.061-0 0.135 0.013 0.194 0.002 0.070-0.013 0.139-0.040 0.215-0.025 0.029 0.006 0.051 0.023 0.081 0.027s0.063-0.001 0.093-0c0.063 0 0.137-0.010 0.198 0.007 0.112 0.031 0.265 0.036 0.384 0.022 0.040-0.005 0.064-0.029 0.105-0.020 0.039 0.008 0.062 0.020 0.105 0.020 0.070-0 0.14 0.001 0.209 0.002 0.14 0.001 0.28 0.002 0.421 0.003 0.060 0.014 0.121 0.029 0.183 0.037 0.082 0.010 0.168 0.005 0.25 0.004 0.104-0.001 0.209-0 0.314-0h0.532c0.121 0 0.242-0.003 0.362 0 0.011 0 0.020-0.003 0.031-0.004 0.009 0.006 0.016 0.015 0.026 0.020 0.039 0.023 0.061 0.016 0.103 0.026 0.035 0.008 0.076 0.040 0.11 0.057s0.056 0.019 0.098 0.018c0.045-0 0.074 0.008 0.116 0.020 0.037 0.010 0.075 0.008 0.111 0.001 0.028-0.006 0.075-0.032 0.104-0.037 0.084-0.017 0.162-0.028 0.251-0.028 0.038 0 0.075-0.002 0.111 0.006s0.075 0.033 0.122 0.021c0.036-0.009 0.047-0.026 0.092-0.025 0.048 0.001 0.071 0.007 0.116 0.020 0.039 0.011 0.078-0.002 0.116 0.005 0.051 0.010 0.085 0.026 0.139 0.026 0.17-0 0.341 0.002 0.512 0.003 0.079 0.001 0.133-0.024 0.209-0.023 0.041 0.001 0.088-0.006 0.128 0 0.050 0.008 0.086 0.026 0.139 0.026 0.081-0 0.163 0.001 0.244 0.002 0.039 0 0.078 0.001 0.116 0.001 0.057 0 0.086 0.016 0.139 0.027 0.075 0.014 0.168-0 0.244 0 0.089 0.001 0.178 0.001 0.267 0.002 0.078 0.001 0.155 0.001 0.233 0.002 0.034 0 0.084 0.010 0.117 0.002 0.021-0.005 0.023-0.022 0.044-0.027 0.018-0.004 0.052 0.001 0.071 0.002 0.085 0.001 0.17 0.001 0.256 0.002 0.039 0 0.077 0.001 0.116 0.001 0.054 0 0.089 0.018 0.139 0.027 0.015 0.003 0.032-0.005 0.046-0.002 0.026 0.005 0.044 0.023 0.070 0.028 0.018 0.003 0.038-0.002 0.056 0.001 0.016 0.003 0.018 0.019 0.036 0.024 0.034 0.009 0.082-0 0.117-0 0.051-0 0.090 0.019 0.14 0.025 0.080 0.010 0.154 0.051 0.232 0.050 0.039-0 0.077 0.001 0.116 0.001 0.051-0 0.070 0.019 0.116 0.026 0.028 0.004 0.091 0.008 0.118 0.001 0.021-0.005 0.023-0.022 0.044-0.027 0.015-0.004 0.034 0.006 0.049 0.003 0.030-0.007 0.062-0.030 0.092-0.037 0.041-0.010 0.082-0.011 0.128-0.011 0.048-0 0.064 0.016 0.103 0.026 0.014 0.004 0.034-0.004 0.048-0.002 0.024 0.003 0.034 0.016 0.051 0.020 0.054 0.013 0.192 0.030 0.234-0.010 0.016-0.015 0.034-0.057 0.046-0.079 0.026-0.046 0.040-0.082 0.042-0.135 0.004-0.085 0.001-0.171 0.002-0.256 0-0.089 0.001-0.178 0.002-0.267 0.001-0.177-0.008-0.337 0.001-0.22 0.005 0.026 0.046 0.072 0.068 0.086 0.055 0.036 0.076-0.004 0.094-0.049 0.017-0.042 0.027-0.087 0.042-0.134 0.018-0.059 0.021-0.113 0.035-0.17 0.013-0.053 0.017-0.106 0.031-0.158 0.014-0.055 0.033-0.125 0.037-0.182 0.003-0.056 0.005-0.094 0.018-0.146 0.008-0.030 0.004-0.055 0.006-0.086 0.001-0.037 0.015-0.045 0.022-0.075 0.022-0.097 0.004-0.226 0.004-0.327 0-0.053 0.002-0.106 0.001-0.158-0.001-0.060-0.023-0.109-0.022-0.171 0.002-0.103 0.020-0.228 0.003-0.329-0.005-0.030-0.021-0.054-0.025-0.085-0.003-0.027 0.001-0.058 0.001-0.086 0-0.058-0.008-0.126 0.003-0.183 0.006-0.031 0.021-0.052 0.022-0.085 0.001-0.025-0-0.044 0.005-0.068 0.005-0.023 0.017-0.034 0.019-0.066 0.001-0.028 0-0.057 0-0.086 0-0.053 0.001-0.106 0.001-0.158-0-0.063 0.023-0.11 0.025-0.17 0.003-0.114 0.001-0.228 0.002-0.341z"></path>
<path d="M9.16 4.054c0.006 0.008 0.012 0.015 0.018 0.022l-0.004-0.019c-0.004-0-0.009-0.003-0.014-0.004z"></path>
<path d="M9.022 3.95c0.004 0.045 0.090 0.094 0.138 0.104-0.001-0.001-0.002-0.002-0.002-0.003-0.030-0.037-0.081-0.11-0.136-0.101z"></path>
<path d="M12.397 2.339c0.012 0.004 0.019 0.011 0.029 0.016 0.005-0 0.011-0.001 0.016-0.001-0.016-0.002-0.031-0.007-0.045-0.014z"></path>
<path d="M25.327 29.238c-0.004-0-0.008 0-0.012-0 0.003 0.004 0.007 0.007 0.012 0z"></path>
<path d="M6.339 25.439c0.035 0.009 0.042-0.018 0.069-0.024 0.013-0.003 0.026-0.002 0.039-0-0 0.007-0.002 0.014-0.002 0.021-0.001 0.042-0.001 0.084-0.001 0.128 0 0.008-0.002 0.016-0.002 0.024-0.021-0.036-0.052-0.082-0.104-0.149zM29.184 18.637c-0.060 0.016-0.137-0.025-0.202-0.024-0.035 0-0.071-0.001-0.106 0-0.039 0-0.057-0.015-0.086-0.021-0.066-0.014-0.138-0.034-0.206-0.032-0.080 0.001-0.144-0.028-0.223-0.027-0.082 0.001-0.151-0.023-0.228-0.027-0.070-0.004-0.142 0-0.212 0s-0.141-0-0.212 0c-0.073 0.001-0.129-0.024-0.199-0.027-0.154-0.007-0.31 0-0.464 0h-0.259c-0.084 0-0.19-0.017-0.272-0.001-0.074 0.014-0.134 0.034-0.212 0.028-0.041-0.003-0.067-0.022-0.106-0.028-0.032-0.006-0.073 0.001-0.106 0.001s-0.096-0.007-0.163-0.009c-0.006-0.076-0.012-0.151-0.014-0.223-0.003-0.096-0.004-0.189-0.002-0.278 0.002-0.082 0.009-0.159 0.006-0.248-0.002-0.048-0.013-0.104-0.012-0.15 0-0.022 0.001-0.043 0.002-0.064s0.002-0.043 0-0.067c-0.005-0.088-0.007-0.172-0.008-0.255-0.002-0.248 0.012-0.476 0.017-0.711 0.002-0.068 0.004-0.135 0.005-0.204 0.001-0.054-0.004-0.114-0.007-0.172-0.001-0.018-0.002-0.038-0.002-0.055 0.001-0.036 0.003-0.071 0.005-0.107 0.004 0 0.008 0.001 0.012 0.001 0.139 0 0.26 0.028 0.398 0.026 0.137-0.002 0.264 0.075 0.398 0.080 0.143 0.006 0.278 0.054 0.424 0.052 0.049-0.001 0.080 0.012 0.126 0.021 0.050 0.010 0.096-0.001 0.146 0.004 0.088 0.011 0.171 0.046 0.257 0.055 0.142 0.016 0.286 0.028 0.426 0.051 0.148 0.024 0.272 0.081 0.424 0.081 0.071 0 0.142 0 0.212 0 0.045 0 0.159-0.021 0.188 0.017-0.002-0.028-0.010-0.071-0.003-0.098 0.009-0.031 0.040-0.045 0.050-0.078 0.013-0.046-0.011-0.067-0.029-0.107-0.016-0.036-0.018-0.064-0.024-0.102-0.035-0.002-0.054-0.026-0.087-0.032s-0.074 0.001-0.107 0.001c-0.071 0-0.142-0-0.212 0-0.028 0-0.067 0.008-0.094 0.001-0.032-0.008-0.042-0.024-0.078-0.028-0.035-0.004-0.072 0.003-0.107 0.001-0.040-0.002-0.068-0.022-0.106-0.029-0.034-0.006-0.072 0.009-0.106 0.003s-0.059-0.025-0.093-0.029c-0.055-0.007-0.116 0.001-0.172 0.001-0.064 0-0.136 0.010-0.199 0.001-0.034-0.005-0.060-0.023-0.093-0.029-0.031-0.005-0.062 0.006-0.093-0.001-0.124-0.026-0.242-0.078-0.372-0.077-0.066 0-0.133-0.001-0.199-0s-0.111-0.015-0.173-0.027c-0.067-0.013-0.128-0.027-0.199-0.026-0.064 0.001-0.112-0.021-0.172-0.028-0.063-0.007-0.135 0-0.199 0.001-0.054 0-0.1-0.013-0.148-0.021-0.002-0.015-0.004-0.030-0.004-0.043-0.001-0.034 0.005-0.055 0.002-0.092s-0.010-0.077-0.010-0.111c-0-0.017 0.001-0.031 0.001-0.046s0-0.030-0.001-0.050c-0.006-0.077-0.011-0.149-0.017-0.226-0.002-0.020-0.001-0.034 0-0.049s0.002-0.029 0.002-0.046c-0.001-0.017-0.003-0.038-0.006-0.058s-0.005-0.041-0.006-0.058c-0.001-0.021 0-0.037 0.002-0.054s0.002-0.034 0.001-0.057c-0.004-0.047-0.010-0.087-0.009-0.127 0.001-0.056 0.003-0.108 0.005-0.163 0.001-0.031 0.003-0.061 0.005-0.092s0.003-0.063 0.002-0.098v0c-0.001-0.040-0.010-0.092-0.011-0.131-0-0.029 0.002-0.053 0.003-0.080 0-0.001 0-0.002 0-0.003 0.001-0.042 0.005-0.075 0.010-0.108s0.009-0.066 0.009-0.108c0-0.013 0.001-0.024 0.003-0.034 0.003-0.019 0.007-0.033 0.010-0.050 0.002-0.009 0.003-0.018 0.004-0.030 0.003-0.043-0.001-0.104 0.003-0.144 0.003-0.029 0.011-0.047 0.019-0.065 0.003-0.006 0.005-0.012 0.008-0.018 0.024-0.065 0.047-0.129 0.068-0.198 0.009-0.029 0.020-0.047 0.032-0.059 0.006-0.006 0.013-0.010 0.019-0.013s0.013-0.006 0.019-0.007c0.103 0.009 0.195-0.028 0.298-0.028 0.321 0.001 0.641 0.002 0.962 0 0.093-0 0.173 0.022 0.264 0.028 0.094 0.006 0.191-0.001 0.285-0.001 0.088-0 0.159 0.012 0.244 0.024s0.174-0.009 0.26 0.001c0.076 0.009 0.141 0.028 0.22 0.028 0.048-0 0.097 0 0.145 0 0.094 0 0.192-0.010 0.272 0.023 0.003-0.041 0.036-0.067 0.053-0.103 0.014-0.030 0.020-0.064 0.032-0.093 0.014-0.032 0.020-0.076 0.041-0.107 0.020-0.029 0.057-0.042 0.082-0.067-0.138 0.008-0.277 0-0.415 0.001-0.068 0-0.121-0.024-0.186-0.027-0.070-0.004-0.142 0.001-0.212 0-0.079 0-0.136-0.018-0.212-0.028-0.084-0.011-0.18 0.001-0.265 0.001h-1.008c-0.089 0-0.178 0.001-0.267 0-0.084-0.001-0.154 0.027-0.238 0.026-0.044-0-0.090-0.004-0.133-0-0.026 0.002-0.049 0.009-0.073 0.016-0.027-0.155-0.059-0.311-0.094-0.44-0.021-0.079-0.042-0.177-0.064-0.262-0.012-0.047-0.025-0.094-0.038-0.141s-0.028-0.093-0.041-0.137c-0.018-0.062-0.036-0.131-0.056-0.189-0.014-0.042-0.027-0.075-0.042-0.12-0.017-0.054-0.031-0.101-0.049-0.15-0.017-0.046-0.037-0.090-0.055-0.138-0.014-0.037-0.025-0.071-0.036-0.105s-0.024-0.067-0.038-0.101c-0.018-0.042-0.037-0.084-0.056-0.126-0.021-0.047-0.043-0.092-0.065-0.14-0.023-0.051-0.040-0.105-0.062-0.156-0.006-0.014-0.014-0.026-0.020-0.040 0.011 0.001 0.023 0.002 0.034 0 0.038-0.007 0.066-0.022 0.106-0.024 0.039-0.002 0.057-0.011 0.093-0.021 0.037-0.010 0.070 0.002 0.106-0.004 0.072-0.012 0.141-0.038 0.212-0.055 0.267-0.064 0.525-0.1 0.798-0.159 0.142-0.031 0.281-0.074 0.423-0.118 0.172-0.053 0.343-0.105 0.518-0.147 0.039-0.009 0.080-0.020 0.119-0.033s0.066-0.012 0.106-0.019c0.074-0.012 0.153-0.039 0.226-0.057 0.146-0.035 0.284-0.079 0.436-0.11-0.010-0.043-0.082-0.020-0.157-0.312l0.002-0.014c-0.039 0.002-0.066-0.035-0.108-0.040-0.072-0.008-0.119 0.016-0.185 0.028-0.068 0.013-0.139-0.012-0.208 0.005s-0.136 0.031-0.206 0.044c-0.246 0.049-0.489 0.078-0.729 0.136-0.108 0.026-0.221 0.068-0.331 0.080-0.039 0.004-0.075-0.004-0.114 0.005-0.032 0.008-0.052 0.019-0.086 0.021-0.064 0.004-0.11 0.022-0.172 0.039-0.225 0.063-0.455 0.095-0.677 0.166-0.124 0.040-0.247 0.081-0.371 0.119-0.025 0.008-0.047 0.018-0.070 0.027-0.022-0.036-0.043-0.074-0.064-0.11-0.059-0.101-0.124-0.196-0.186-0.3-0.017-0.028-0.032-0.058-0.048-0.088s-0.032-0.060-0.049-0.087c-0.030-0.046-0.060-0.087-0.091-0.131-0.141-0.2-0.289-0.394-0.445-0.58-0.091-0.108-0.176-0.234-0.271-0.336-0.033-0.036-0.066-0.070-0.098-0.105 0.102-0.093 0.237-0.166 0.352-0.244 0.262-0.177 0.496-0.399 0.783-0.541 0.148-0.073 0.281-0.173 0.424-0.253 0.138-0.077 0.292-0.121 0.424-0.205 0.139-0.088 0.296-0.157 0.425-0.258 0.030-0.023 0.032-0.056 0.058-0.082 0.021-0.022 0.062-0.040 0.088-0.058 0.039-0.028 0.134-0.076 0.143-0.128-0.029-0.008-0.058-0.009-0.088-0.003s-0.028 0.036-0.387-0.215c0.040-0.007 0.082-0.065 0.125-0.081-0.057 0-0.11 0.041-0.164 0.052-0.060 0.013-0.102-0-0.156 0.032-0.041 0.024-0.080 0.058-0.121 0.083-0.029 0.018-0.064 0.028-0.094 0.046-0.046 0.027-0.082 0.067-0.13 0.092-0.085 0.045-0.156 0.084-0.229 0.149-0.062 0.055-0.143 0.091-0.212 0.138-0.118 0.082-0.25 0.154-0.385 0.203-0.111 0.040-0.218 0.13-0.305 0.209-0.090 0.082-0.198 0.147-0.298 0.212-0.102 0.066-0.198 0.135-0.299 0.202-0.1 0.067-0.199 0.118-0.299 0.182-0.018 0.011-0.034 0.024-0.052 0.036-0.032-0.039-0.064-0.077-0.1-0.11-0.107-0.098-0.208-0.204-0.317-0.3-0.053-0.046-0.102-0.098-0.154-0.146-0.018-0.017-0.036-0.035-0.055-0.050-0.028-0.021-0.056-0.041-0.084-0.062s-0.056-0.044-0.083-0.070c-0.118-0.116-0.24-0.197-0.367-0.28-0.039-0.026-0.076-0.057-0.112-0.088s-0.073-0.063-0.112-0.089c-0.059-0.039-0.119-0.073-0.179-0.11-0.062-0.037-0.122-0.072-0.182-0.108s-0.12-0.076-0.181-0.123c-0.013-0.010-0.027-0.018-0.040-0.027 0.057-0.083 0.122-0.162 0.18-0.242 0.181-0.254 0.334-0.534 0.558-0.756 0.115-0.115 0.171-0.264 0.278-0.385 0.083-0.094 0.176-0.181 0.254-0.279 0.099-0.124 0.214-0.235 0.296-0.372 0.038-0.063 0.096-0.117 0.134-0.178 0.012-0.019 0.041-0.046 0.004-0.060-0.033-0.013-0.049 0.038-0.436-0.133 0-0.001 0-0.002 0-0.003-0.044 0.055-0.085 0.109-0.134 0.162-0.027 0.029-0.051 0.059-0.078 0.085-0.032 0.032-0.079 0.051-0.109 0.080-0.051 0.048-0.083 0.124-0.125 0.18-0.083 0.113-0.182 0.214-0.278 0.316-0.115 0.123-0.213 0.264-0.312 0.399-0.087 0.119-0.197 0.215-0.273 0.346-0.069 0.119-0.164 0.219-0.225 0.344-0.043 0.088-0.105 0.165-0.165 0.242-0.113-0.054-0.227-0.105-0.34-0.154-0.040-0.018-0.082-0.034-0.123-0.051-0.098-0.042-0.196-0.084-0.296-0.123-0.066-0.026-0.133-0.048-0.199-0.074-0.068-0.028-0.13-0.076-0.199-0.103-0.146-0.059-0.289-0.125-0.439-0.17-0.075-0.022-0.152-0.042-0.229-0.063-0.049-0.013-0.098-0.026-0.146-0.042-0.081-0.026-0.153-0.072-0.236-0.092-0.069-0.016-0.142-0.028-0.212-0.053 0.001-0.003 0.002-0.007 0.002-0.010 0.027-0.112 0.067-0.223 0.125-0.323 0.040-0.069 0.060-0.153 0.096-0.224 0.045-0.088 0.076-0.182 0.123-0.269 0.067-0.126 0.144-0.23 0.228-0.338 0.102-0.131 0.174-0.3 0.25-0.451 0.058-0.117 0.115-0.222 0.162-0.343 0.042-0.106 0.12-0.215 0.153-0.323 0.034-0.109 0.083-0.208 0.132-0.317 0.024-0.053 0.046-0.101 0.077-0.152 0.027-0.044 0.057-0.102 0.026-0.147-0.069-0.1-0.275-0.061-0.508-0.084-0.087 0.045-0.119 0.119-0.169 0.21-0.073 0.134-0.146 0.264-0.212 0.398-0.075 0.153-0.172 0.292-0.245 0.445s-0.11 0.315-0.172 0.471c-0.026 0.067-0.060 0.132-0.086 0.198-0.032 0.080-0.082 0.149-0.114 0.228-0.060 0.149-0.123 0.282-0.199 0.422-0.071 0.131-0.128 0.264-0.184 0.398-0.010 0.024-0.025 0.047-0.040 0.070-0.246-0.054-0.491-0.12-0.739-0.128-0.127-0.004-0.247-0.039-0.369-0.060-0.041-0.007-0.082-0.013-0.123-0.015-0.133-0.008-0.266-0.018-0.399-0.021-0.075-0.002-0.14 0.024-0.214 0.026-0.070 0.003-0.144-0.004-0.214-0.004-0.123 0-0.246 0.003-0.37 0.006-0.038 0.001-0.072 0.005-0.105 0.010s-0.066 0.013-0.102 0.021c-0.030 0.007-0.060 0.009-0.089 0.011-0.037 0.002-0.073 0.005-0.11 0.014-0.12 0.028-0.23 0.039-0.353 0.050-0.030 0.003-0.061 0.004-0.091 0.006s-0.062 0.005-0.091 0.011c-0.068 0.015-0.12 0.044-0.19 0.054-0.119 0.017-0.239 0.031-0.357 0.049-0.126 0.019-0.251 0.042-0.376 0.064-0.024 0.004-0.047 0.013-0.070 0.020-0.033-0.050-0.069-0.1-0.092-0.154-0.057-0.134-0.113-0.267-0.184-0.398-0.076-0.14-0.139-0.273-0.199-0.422-0.032-0.080-0.081-0.148-0.113-0.228-0.027-0.066-0.060-0.131-0.086-0.198-0.061-0.156-0.099-0.318-0.172-0.471s-0.17-0.292-0.245-0.444c-0.066-0.135-0.139-0.264-0.212-0.399-0.050-0.092-0.082-0.165-0.169-0.21-0.233 0.023-0.44-0.016-0.508 0.084-0.031 0.045-0.001 0.102 0.026 0.147 0.031 0.050 0.053 0.099 0.077 0.151 0.049 0.109 0.098 0.208 0.132 0.317 0.033 0.108 0.112 0.218 0.153 0.323 0.048 0.12 0.104 0.226 0.162 0.343 0.076 0.152 0.147 0.32 0.25 0.451 0.084 0.108 0.161 0.211 0.228 0.338 0.046 0.087 0.078 0.182 0.123 0.269 0.037 0.072 0.056 0.155 0.096 0.224 0.058 0.1 0.099 0.21 0.125 0.323 0.008 0.036 0.021 0.090 0.038 0.134-0.015 0.003-0.030 0.006-0.044 0.009-0.107 0.027-0.219 0.047-0.323 0.092-0.114 0.050-0.229 0.090-0.344 0.128-0.058 0.019-0.115 0.037-0.173 0.056s-0.115 0.037-0.172 0.057c-0.109 0.038-0.205 0.106-0.311 0.144-0.115 0.042-0.218 0.129-0.335 0.166-0.065 0.021-0.123 0.023-0.189 0.051-0.049 0.021-0.098 0.045-0.146 0.068-0.101 0.047-0.191 0.112-0.287 0.165-0.038-0.036-0.064-0.082-0.096-0.123-0.070-0.091-0.148-0.18-0.199-0.285-0.061-0.126-0.156-0.225-0.225-0.344-0.076-0.131-0.186-0.227-0.274-0.346-0.099-0.135-0.197-0.276-0.312-0.399-0.096-0.102-0.195-0.203-0.278-0.316-0.042-0.057-0.074-0.133-0.125-0.18-0.030-0.029-0.077-0.048-0.109-0.080-0.027-0.027-0.051-0.056-0.078-0.085-0.049-0.052-0.090-0.107-0.134-0.162 0 0.001 0 0.002 0 0.003-0.387 0.171-0.403 0.12-0.436 0.133-0.036 0.014-0.007 0.041 0.004 0.060 0.038 0.061 0.096 0.115 0.134 0.178 0.083 0.136 0.197 0.247 0.296 0.372 0.078 0.098 0.171 0.185 0.254 0.279 0.107 0.121 0.162 0.27 0.278 0.385 0.224 0.222 0.376 0.502 0.558 0.756 0.071 0.099 0.158 0.194 0.22 0.299 0.024 0.041 0.050 0.072 0.078 0.112 0.002 0.002 0.003 0.005 0.005 0.008-0.007 0.004-0.014 0.007-0.020 0.012-0.053 0.039-0.093 0.082-0.148 0.116-0.052 0.033-0.090 0.074-0.139 0.114-0.044 0.035-0.091 0.048-0.134 0.085-0.043 0.035-0.075 0.073-0.118 0.103-0.045 0.031-0.093 0.054-0.136 0.089-0.021 0.017-0.042 0.036-0.063 0.056-0.062 0.060-0.122 0.128-0.184 0.177-0.024 0.019-0.044 0.036-0.064 0.054s-0.039 0.037-0.062 0.060c-0.037 0.036-0.073 0.062-0.109 0.093-0.011 0.009-0.022 0.017-0.033 0.028-0.044 0.046-0.087 0.084-0.13 0.12s-0.086 0.071-0.13 0.112c-0.042 0.038-0.076 0.089-0.117 0.13-0.046 0.047-0.1 0.087-0.146 0.128-0.022 0.020-0.043 0.044-0.064 0.066-0.017-0.011-0.034-0.022-0.052-0.032-0.049-0.025-0.096-0.035-0.142-0.059-0.054-0.028-0.099-0.068-0.149-0.1-0.1-0.065-0.2-0.116-0.299-0.182-0.101-0.067-0.198-0.137-0.299-0.202s-0.208-0.13-0.298-0.212c-0.087-0.080-0.194-0.169-0.305-0.209-0.134-0.049-0.266-0.121-0.385-0.203-0.069-0.048-0.151-0.083-0.212-0.138-0.072-0.065-0.144-0.104-0.229-0.149-0.047-0.025-0.084-0.065-0.13-0.092-0.030-0.018-0.064-0.027-0.094-0.046-0.041-0.026-0.080-0.059-0.121-0.083-0.054-0.032-0.096-0.019-0.156-0.032-0.055-0.012-0.107-0.052-0.165-0.052 0.042 0.017 0.084 0.074 0.125 0.081-0.359 0.25-0.357 0.22-0.387 0.215s-0.058-0.006-0.088 0.003c0.009 0.052 0.104 0.099 0.143 0.128 0.025 0.018 0.066 0.037 0.088 0.058 0.026 0.026 0.028 0.058 0.058 0.082 0.13 0.101 0.287 0.17 0.425 0.258 0.132 0.084 0.286 0.128 0.425 0.205 0.144 0.080 0.276 0.18 0.424 0.253 0.288 0.142 0.521 0.363 0.783 0.541 0.117 0.079 0.255 0.153 0.358 0.249 0.079 0.074 0.15 0.133 0.235 0.185-0.003 0.003-0.006 0.006-0.010 0.010-0.078 0.084-0.162 0.164-0.235 0.265-0.040 0.054-0.071 0.108-0.112 0.157-0.039 0.048-0.076 0.088-0.113 0.145-0.036 0.056-0.071 0.107-0.106 0.155s-0.070 0.095-0.106 0.145c-0.077 0.105-0.143 0.227-0.215 0.334-0.068 0.102-0.128 0.225-0.192 0.328-0.028 0.045-0.055 0.090-0.082 0.137-0.023-0.002-0.044-0.005-0.067-0.008-0.002-0.015-0.006-0.029-0.010-0.044-0.033-0.002-0.045-0.027-0.073-0.033-0.027-0.006-0.057-0.006-0.081-0.012-0.054-0.013-0.102-0.042-0.159-0.060-0.124-0.038-0.247-0.080-0.371-0.119-0.222-0.070-0.451-0.102-0.677-0.166-0.062-0.017-0.108-0.036-0.173-0.039-0.033-0.002-0.054-0.014-0.085-0.021-0.039-0.009-0.075-0.001-0.114-0.005-0.11-0.012-0.223-0.054-0.331-0.080-0.24-0.058-0.483-0.087-0.729-0.136-0.070-0.014-0.137-0.028-0.206-0.044s-0.14 0.008-0.208-0.005c-0.066-0.012-0.113-0.036-0.185-0.028-0.042 0.004-0.068 0.041-0.108 0.040l0.002 0.014c-0.075 0.292-0.147 0.269-0.157 0.312 0.152 0.031 0.29 0.075 0.436 0.11 0.073 0.018 0.152 0.045 0.226 0.057 0.040 0.007 0.067 0.006 0.106 0.019s0.080 0.024 0.119 0.033c0.174 0.042 0.346 0.094 0.518 0.147 0.142 0.044 0.281 0.087 0.423 0.118 0.273 0.059 0.531 0.095 0.798 0.159 0.071 0.017 0.14 0.043 0.212 0.055 0.036 0.006 0.070-0.005 0.106 0.004s0.054 0.018 0.093 0.021c0.040 0.002 0.068 0.017 0.106 0.024 0.030 0.006 0.065-0.006 0.094 0.001 0.028 0.007 0.049 0.021 0.078 0.028 0.027 0.007 0.044 0.014 0.069 0.023 0.052 0.020 0.099 0.025 0.149 0.027-0.026 0.048-0.052 0.096-0.076 0.144-0.053 0.106-0.099 0.229-0.149 0.34-0.036 0.080-0.071 0.163-0.105 0.246-0.023 0.023-0.044 0.046-0.063 0.069-0.061 0.075-0.088 0.143-0.124 0.231-0.034 0.082-0.113 0.135-0.165 0.204-0.019 0.19-0.020 0.377-0.012 0.562-0.005 0.024-0.010 0.049-0.014 0.068-0.020 0.096-0.043 0.208-0.057 0.306-0.002 0.012-0.003 0.024-0.004 0.036-0.011-0.001-0.022-0-0.032-0.001-0.033-0.002-0.053-0.014-0.086-0.021-0.046-0.011-0.087 0-0.132-0.004s-0.082-0.025-0.126-0.028c-0.043-0.004-0.090 0-0.133 0-0.084 0.001-0.155-0.027-0.238-0.026-0.089 0.001-0.178 0-0.267 0h-1.008c-0.085 0-0.181-0.013-0.265-0.001-0.076 0.010-0.133 0.028-0.212 0.028-0.070 0-0.142-0.004-0.212-0-0.064 0.003-0.118 0.028-0.186 0.027-0.138-0.001-0.277 0.006-0.415-0.001 0.025 0.025 0.062 0.038 0.082 0.067 0.021 0.031 0.027 0.075 0.041 0.107 0.013 0.029 0.018 0.063 0.032 0.093 0.017 0.036 0.050 0.062 0.053 0.103 0.081-0.034 0.179-0.023 0.273-0.023 0.048 0 0.097-0 0.145 0 0.078 0 0.144-0.019 0.22-0.028 0.086-0.010 0.174 0.012 0.26-0.001s0.156-0.024 0.244-0.024c0.094 0 0.192 0.007 0.285 0.001 0.091-0.005 0.171-0.028 0.264-0.028 0.321 0.002 0.641 0.001 0.962 0 0.108-0 0.204 0.042 0.313 0.027 0.047-0.006 0.075-0.024 0.123-0.026 0.002 0.012 0.006 0.018 0.008 0.033 0.003 0.020-0.001 0.064 0.002 0.083 0.001 0.004 0.005-0.011 0.006-0.005 0.001 0.009-0 0.028 0.001 0.038 0.002 0.018 0.008 0.020 0.010 0.039 0.002 0.018-0.002 0.056 0.001 0.072 0.005 0.034 0.012 0.062 0.018 0.096s0.010 0.072 0.011 0.127c0.001 0.107 0.011 0.159 0.012 0.263 0.001 0.060-0.009 0.138-0.008 0.197 0.001 0.048 0.001 0.098 0.002 0.146 0 0.058 0.002 0.109-0.003 0.182-0.005 0.066-0.012 0.137-0.018 0.206-0.002 0.025-0.005 0.053-0.007 0.080s-0.005 0.054-0.007 0.077c-0.002 0.034 0.002 0.049 0 0.084-0.003 0.043-0.012 0.099-0.009 0.127 0.001 0.010 0.003 0.014 0.005 0.020 0.003 0.009 0.006 0.017 0.007 0.036 0.002 0.047 0 0.101-0.002 0.158-0.001 0.018-0.001 0.037-0.002 0.056-0.002 0.049-0.005 0.099-0.008 0.148-0.004 0.006-0.006 0.013-0.010 0.019-0.001 0.021-0.002 0.042-0.002 0.062s0.004 0.035 0.006 0.056c-0.001 0.025-0.003 0.053-0.005 0.081s-0.005 0.056-0.005 0.080c0 0.033 0.001 0.064 0.001 0.096 0 0.040 0 0.080 0 0.121-0.062 0.003-0.121 0.009-0.152 0.009-0.033 0-0.074-0.007-0.106-0.001-0.039 0.007-0.065 0.026-0.106 0.028-0.078 0.006-0.138-0.015-0.212-0.028-0.083-0.016-0.188 0.001-0.273 0.001h-0.259c-0.154 0-0.31-0.007-0.464-0-0.070 0.003-0.126 0.027-0.199 0.027-0.071-0.001-0.142 0-0.212 0s-0.142-0.005-0.212-0.001c-0.077 0.004-0.146 0.028-0.228 0.027-0.080-0.001-0.143 0.028-0.223 0.027-0.068-0.001-0.14 0.019-0.206 0.032-0.029 0.006-0.046 0.021-0.086 0.021-0.035-0.001-0.071 0-0.106 0-0.066-0-0.142 0.040-0.202 0.025 0.041 0.027-0.008 0.084-0.011 0.122-0.004 0.050 0.029 0.070 0.034 0.116 0.049-0.022 0.083-0.047 0.14-0.050 0.072-0.004 0.147 0 0.219 0 0.18 0 0.355 0.050 0.537 0.021 0.208-0.034 0.419-0.047 0.631-0.047 0.095 0 0.197 0.011 0.291 0.001 0.049-0.005 0.090-0.026 0.139-0.028 0.039-0.002 0.078 0.001 0.117 0.001h1.151c0 0.012 0 0.024 0 0.037 0 0.040-0.001 0.080-0.002 0.122s-0.004 0.086-0.007 0.132c-0.007 0.086-0.011 0.165-0.011 0.238s-0.011 0.164-0.011 0.237v0c0 0.064 0.002 0.126 0 0.194-0.002 0.070-0.017 0.161-0.010 0.215 0.002 0.014 0.004 0.024 0.007 0.036s0.004 0.024 0.004 0.045c0 0.011-0.001 0.026-0.001 0.040s-0.001 0.027 0.001 0.035c0.004 0.023 0.012 0.026 0.013 0.056 0.001 0.023-0.002 0.052 0.001 0.070 0.003 0.023 0.010 0.030 0.011 0.061 0 0.025-0.001 0.048 0.003 0.066 0.008 0.044 0.013 0.095 0.022 0.136 0.018 0.075 0.025 0.176 0.027 0.286 0.001 0.037 0.009 0.054 0.013 0.085 0.002 0.020-0.002 0.052 0.001 0.071 0.003 0.024 0.008 0.045 0.014 0.066s0.010 0.042 0.014 0.067c0.006 0.042-0.005 0.115 0.002 0.157 0.007 0.048 0.013 0.103 0.023 0.146 0.001 0.006 0.002 0.013 0.002 0.020-0.065 0.002-0.132 0.009-0.187 0.009h-0.372c-0.139 0-0.293-0.018-0.431-0.001-0.045 0.006-0.081 0.025-0.126 0.029-0.033 0.003-0.068-0-0.101-0.001-0.065-0.001-0.114 0.024-0.178 0.027-0.114 0.005-0.23-0-0.345-0-0.137 0-0.26-0.026-0.398-0.026-0.292 0-0.588 0.014-0.88-0.001 0.030 0.031 0.070 0.047 0.103 0.074 0.048 0.039 0.056 0.068 0.077 0.127 0.028 0.082-0.033 0.18 0.002 0.276 0.030-0.014 0.034-0.020 0.068-0.018 0 0 0.052 0.021 0.059 0.022 0.059 0.008 0.126-0.001 0.186-0.001 0.072 0 0.148 0.008 0.218-0.006 0.097-0.020 0.185-0.017 0.286-0.020 0.096-0.003 0.181-0.028 0.279-0.027 0.084 0.001 0.161-0.023 0.245-0.026s0.159-0.028 0.247-0.027c0.070 0 0.142 0.005 0.212 0 0.065-0.004 0.117-0.028 0.185-0.027 0.058 0 0.115 0 0.172 0 0.119 0 0.24 0.007 0.358 0.001 0.066-0.004 0.117-0.028 0.186-0.027 0.052 0 0.105 0 0.157 0 0 0.017 0 0.035 0 0.052 0.001 0.033 0.006 0.059 0.012 0.083s0.014 0.047 0.018 0.076c0.003 0.022 0.002 0.050 0.001 0.078s-0.002 0.057 0.001 0.078c0.004 0.027 0.015 0.033 0.017 0.064 0.001 0.023 0 0.050 0.001 0.074 0 0.014-0 0.029-0 0.044s-0 0.029 0.001 0.041c0.002 0.012 0.005 0.020 0.008 0.028s0.007 0.015 0.009 0.027c0.004 0.025-0.002 0.058 0.004 0.082s0.012 0.028 0.013 0.060c0.005 0.153 0.006 0.311 0.008 0.468 0.001 0.052 0.001 0.105 0.002 0.157 0.001 0.080 0.011 0.138 0.017 0.207 0.002 0.023 0.003 0.047 0.004 0.074s0.003 0.055 0.004 0.084c0.001 0.029 0 0.058-0.004 0.090s-0.007 0.057-0.009 0.082c-0.001 0.025-0.002 0.050-0.001 0.078 0.004 0.23 0.007 0.46 0.011 0.69-0.083 0.005-0.177-0.004-0.222-0.009-0.161-0.017-0.312-0.054-0.477-0.054-0.152 0-0.304-0.001-0.456 0-0.106 0.001-0.2-0.027-0.307-0.026-0.078 0-0.145-0.004-0.218-0.021-0.153-0.036-0.346-0.005-0.503-0.006-0.034 0-0.075-0.008-0.108-0.001-0.042 0.009-0.066 0.026-0.111 0.028-0.075 0.004-0.152-0-0.227-0h-0.43c-0.080 0-0.314-0.039-0.362 0.027 0.117-0.024 0.11 0.22 0.122 0.279 0.012 0.064 0.029 0.090 0.094 0.092 0.066 0.002 0.133-0 0.199-0 0.129 0 0.241 0.026 0.371 0.026 0.142 0 0.269-0.026 0.411-0.026 0.070-0 0.119 0.019 0.186 0.028 0.070 0.009 0.155 0.004 0.226-0 0.036-0.002 0.059-0.018 0.093-0.025 0.037-0.008 0.076-0.002 0.114-0.002 0.073-0.001 0.131 0.027 0.205 0.026 0.062-0.001 0.124 0 0.186 0 0.031 0 0.062-0.002 0.093-0.001 0.041 0.002 0.067 0.022 0.106 0.029 0.114 0.020 0.254-0.002 0.371-0.002 0.216 0 0.434 0.005 0.65 0.002 0 0.009 0 0.018 0 0.027 0.001 0.072 0.002 0.145 0.003 0.216 0.002 0.065-0.016 0.134-0.014 0.199s0.002 0.13 0.003 0.194c0 0.031 0.003 0.060 0.002 0.092-0.001 0.036-0.014 0.070-0.018 0.105-0.014 0.13 0.005 0.259 0.006 0.381 0 0.034-0.001 0.071-0.002 0.107s-0 0.072 0.004 0.103c0.004 0.032 0.018 0.053 0.021 0.086 0.002 0.029 0 0.062 0.001 0.092 0.002 0.141 0.004 0.282 0.006 0.424l0.007 0.481c0.001 0.078 0.008 0.159 0.011 0.241s0.004 0.165-0.008 0.246c-0.001 0.009-0.001 0.016-0.002 0.024-0.016 0.001-0.029 0.002-0.035 0.003-0.064 0.003-0.12 0.023-0.186 0.026-0.065 0.003-0.118 0.028-0.186 0.027-0.064-0-0.136-0.008-0.199-0.001-0.061 0.007-0.108 0.028-0.172 0.028-0.071-0.001-0.132 0.013-0.199 0.026-0.062 0.012-0.107 0.028-0.172 0.027s-0.133 0.001-0.199 0c-0.13-0.001-0.248 0.051-0.372 0.077-0.031 0.007-0.062-0.004-0.093 0.001-0.033 0.006-0.059 0.024-0.093 0.029-0.062 0.009-0.135-0.001-0.199-0.001-0.056 0-0.117-0.008-0.172-0.001-0.034 0.004-0.060 0.023-0.093 0.029s-0.072-0.009-0.106-0.003c-0.038 0.007-0.066 0.026-0.106 0.029-0.035 0.002-0.072-0.005-0.107-0.001-0.036 0.004-0.046 0.021-0.078 0.028-0.027 0.007-0.066-0.001-0.094-0.001-0.071-0-0.142 0-0.212 0-0.033 0-0.075-0.006-0.107-0.001s-0.052 0.030-0.087 0.032c-0.005 0.038-0.007 0.066-0.024 0.102-0.018 0.040-0.042 0.061-0.029 0.107 0.010 0.032 0.041 0.047 0.050 0.078 0.007 0.026-0.001 0.070-0.003 0.098 0.028-0.038 0.143-0.017 0.188-0.017 0.071 0 0.142 0 0.212 0 0.152 0 0.277-0.057 0.424-0.081 0.14-0.023 0.284-0.035 0.426-0.051 0.086-0.009 0.169-0.044 0.257-0.055 0.050-0.006 0.096 0.005 0.146-0.004 0.046-0.009 0.078-0.022 0.126-0.021 0.146 0.002 0.281-0.046 0.424-0.052 0.135-0.005 0.261-0.082 0.398-0.080 0.139 0.002 0.26-0.026 0.398-0.026 0.066 0 0.147-0.013 0.212-0.002 0.009 0.002 0.027 0.008 0.043 0.010 0 0.001 0 0.002 0 0.002-0.004 0.042-0.009 0.084-0.008 0.126 0.001 0.044 0.002 0.086 0 0.128s-0.005 0.084-0.012 0.129c-0 0.001 0 0.002-0 0.003-0.006 0.038-0.001 0.071-0.002 0.108-0.001 0.040-0.018 0.080-0.021 0.121-0.003 0.046-0.004 0.090-0.002 0.134 0.004 0.088 0.015 0.173 0.022 0.26 0.004 0.043 0.007 0.087 0.007 0.132 0.002 0.184-0.038 0.367-0.035 0.548v0c0 0.024 0.002 0.049 0.003 0.073s0.002 0.049-0 0.074c-0.005 0.054-0.023 0.096-0.021 0.15 0.002 0.076 0.002 0.153 0.003 0.229 0 0.039 0.006 0.081 0.002 0.12-0.004 0.041-0.021 0.076-0.022 0.117-0.001 0.018 0.001 0.037 0.002 0.055s0.001 0.037-0.002 0.055c-0.003 0.019-0.008 0.037-0.012 0.055s-0.007 0.036-0.008 0.056c-0.001 0.034-0.006 0.067-0.010 0.1-0.005 0.040-0.010 0.079-0.010 0.119 0.001 0.027 0 0.055 0.001 0.082s0 0.053 0 0.080c0 0.038-0.002 0.074-0.005 0.109-0.006 0.026-0.018 0.050-0.046 0.078-0.033 0.034-0.059 0.072-0.107 0.086-0.034 0.010-0.067 0.004-0.1 0.011-0.025 0.005-0.067 0.036-0.091 0.041-0.065 0.014-0.139 0.006-0.206 0.006-0.035 0-0.071-0.002-0.106-0.001-0.044 0.002-0.077 0.023-0.12 0.028-0.069 0.008-0.143-0.003-0.212-0.001-0.078 0.002-0.144 0.028-0.226 0.027-0.075-0.001-0.136 0.027-0.212 0.026-0.075-0-0.15 0-0.226 0-0.138 0-0.303 0.025-0.438 0.002-0.039-0.007-0.066-0.026-0.106-0.029-0.037-0.002-0.075 0.001-0.112 0.001h-0.259c-0.146 0-0.293 0.006-0.438 0-0.041-0.002-0.050-0.019-0.082-0.024-0.034-0.006-0.070 0.003-0.104-0.005-0.042-0.009-0.061-0.024-0.106-0.024-0.040-0.001-0.080 0-0.119 0-0.064-0-0.162-0.024-0.113 0.060 0.015 0.026 0.027 0.038 0.039 0.068 0.040 0.098 0.050 0.197 0.068 0.3 0.009 0.052 0.017 0.144 0.085 0.157 0.038 0.007 0.048-0.022 0.079-0.030 0.033-0.008 0.087-0 0.121 0.001 0.041 0.002 0.050 0.018 0.082 0.024 0.030 0.006 0.060 0 0.090 0.002 0.078 0.004 0.156 0.049 0.24 0.029 0.033-0.008 0.041-0.024 0.078-0.029 0.034-0.004 0.073 0 0.107 0.001 0.045 0 0.065-0.010 0.106-0.021 0.040-0.010 0.079 0 0.119-0.008 0.071-0.015 0.141-0.033 0.212-0.048s0.153 0.002 0.226-0.002c0.041-0.002 0.067-0.022 0.106-0.029 0.036-0.006 0.070 0.005 0.106-0.004 0.080-0.021 0.154-0.021 0.239-0.021 0.033 0 0.074-0.007 0.106-0.001 0.040 0.007 0.064 0.029 0.106 0.029s0.067-0.022 0.106-0.029c0.036-0.006 0.082 0.001 0.119 0.001 0.071 0 0.142-0.001 0.212 0 0.080 0.001 0.145-0.028 0.226-0.026 0.016 0 0.038 0.003 0.054 0 0.032-0.004 0.034-0.015 0.058-0.021 0.029-0.007 0.065-0.026 0.089-0.030 0.076-0.014 0.159 0.009 0.236-0.001 0.081-0.010 0.128-0.060 0.198-0.087s0.171-0.039 0.234-0.079c0.097-0.062 0.227-0.229 0.245-0.339 0.001-0.003 0-0.006 0.001-0.010 0.016-0.006 0.033-0.012 0.049-0.018 0.020-0.006 0.039-0.012 0.058-0.021 0.009 0.014 0.019 0.021 0.031 0.023 0.024 0.004 0.051-0.010 0.073-0.027 0.011-0.008 0.020-0.017 0.027-0.025 0.068-0.072 0.102-0.142 0.124-0.24 0.012-0.051 0.019-0.108 0.025-0.165 0.008-0.074 0.013-0.149 0.015-0.218 0.002-0.059 0.001-0.116 0.001-0.173s0.001-0.115 0.005-0.174c0.002-0.031 0.001-0.061-0.002-0.091-0.005-0.046-0.013-0.091-0.020-0.137-0.005-0.030-0.008-0.060-0.010-0.091-0.004-0.12 0.016-0.242 0.010-0.364-0.003-0.057-0.003-0.113-0.002-0.169s0.005-0.112 0.011-0.171c0.012-0.12 0.014-0.216-0.002-0.332s-0.020-0.229-0.024-0.348c-0.010-0.273-0.053-0.53-0.037-0.809 0.004-0.068 0.006-0.137 0.008-0.206 0.006-0.208 0.010-0.421 0.046-0.632 0.013-0.076 0.023-0.152 0.032-0.228 0.017-0.152 0.028-0.303 0.039-0.455 0.006-0.076 0.011-0.152 0.018-0.229 0.013-0.149 0.025-0.297 0.036-0.446s0.020-0.297 0.026-0.447c0.004-0.084 0.004-0.165 0.002-0.246s-0.006-0.16-0.010-0.241c-0.003-0.066-0.003-0.134-0.003-0.201s0.002-0.135 0-0.202c-0.002-0.124-0.016-0.24-0.035-0.352s-0.045-0.218-0.071-0.321c-0.032-0.128-0.049-0.27-0.074-0.401-0.012-0.059-0.025-0.116-0.038-0.173s-0.028-0.112-0.042-0.168c-0.017-0.069-0.038-0.131-0.060-0.192v-0.122c0-0.136-0.028-0.309 0.005-0.44 0.036-0.14 0.018-0.303 0.018-0.451 0-0.097-0-0.195 0-0.292 0-0.090-0.025-0.168-0.024-0.256 0.001-0.082-0.032-0.158-0.024-0.237 0.007-0.073 0.024-0.137 0.024-0.213-0-0.071 0-0.142 0-0.214 0-0.032 0.002-0.064 0.001-0.095-0.002-0.037-0.018-0.060-0.026-0.095-0.009-0.043 0.002-0.099 0.001-0.144-0.001-0.040-0.009-0.058-0.018-0.094-0.015-0.056-0.009-0.132-0.006-0.19 0.002-0.039 0.020-0.069 0.025-0.107 0.006-0.042-0.013-0.059-0.019-0.089-0.016-0.071 0.008-0.118 0.020-0.185 0.022-0.125-0.001-0.277-0.001-0.404 0-0.066-0.008-0.137-0.001-0.202 0.004-0.033 0.026-0.062 0.026-0.095s-0.022-0.062-0.026-0.095c-0.015-0.13 0.001-0.273 0.001-0.404 0-0.126-0.019-0.276 0.012-0.392 0.015-0.058 0.013-0.125 0.012-0.19-0.001-0.037 0.010-0.048 0.018-0.077 0.010-0.034-0-0.067 0.004-0.102 0.005-0.038 0.026-0.068 0.026-0.108-0-0.012-0.014-0.018-0.014-0.028-0-0.012 0.013-0.029 0.014-0.042 0.006-0.066 0.020-0.125 0.022-0.191 0.002-0.043 0.026-0.075 0.026-0.119 0-0.037-0.020-0.060-0.026-0.095-0.010-0.058 0.001-0.13 0.001-0.19 0-0.067 0.013-0.148 0.001-0.214-0.006-0.034-0.024-0.059-0.026-0.095-0.002-0.031 0-0.064 0-0.095 0-0.125 0.026-0.284-0.005-0.404-0.018-0.070-0.023-0.139-0.019-0.214 0.002-0.036 0.019-0.060 0.026-0.095 0.005-0.029-0.001-0.065-0.001-0.095 0-0.071 0-0.143 0-0.214-0-0.033-0.003-0.064 0.005-0.095 0.008-0.030 0.038-0.055-0.001-0.078 0.026-0.059 0.020-0.126 0.020-0.196 0-0.032-0.002-0.064-0-0.095 0.002-0.042 0.017-0.047 0.025-0.082 0.015-0.061-0.001-0.152-0.001-0.215 0-0.036-0.001-0.071-0-0.107 0.001-0.038 0.014-0.060 0.022-0.095 0.016-0.073-0.004-0.146-0.020-0.214s0.011-0.146-0.001-0.215c-0.001-0.006-0.004-0.012-0.006-0.017 0-0 0-0.001 0.001-0.001 0.045-0.082 0.093-0.157 0.138-0.242 0.046-0.089 0.089-0.153 0.142-0.227 0.054-0.077 0.098-0.158 0.154-0.236 0.034-0.049 0.064-0.11 0.099-0.157 0.030-0.040 0.062-0.072 0.092-0.114 0.032-0.046 0.059-0.099 0.093-0.142 0.031-0.039 0.064-0.075 0.095-0.11 0.035-0.040 0.072-0.089 0.109-0.139s0.074-0.103 0.108-0.15c0.043-0.059 0.087-0.094 0.131-0.15 0.046-0.060 0.083-0.106 0.134-0.156 0.053-0.051 0.104-0.107 0.155-0.163s0.103-0.11 0.158-0.159c0.093-0.083 0.187-0.165 0.283-0.243 0.061-0.050 0.107-0.1 0.166-0.159 0.056-0.056 0.115-0.083 0.172-0.137 0.061-0.058 0.11-0.103 0.174-0.152 0.056-0.043 0.104-0.102 0.162-0.143 0.115-0.082 0.229-0.171 0.345-0.257 0.094-0.070 0.19-0.135 0.288-0.195 0.023-0.014 0.045-0.029 0.068-0.042 0.038-0.021 0.072-0.046 0.106-0.071s0.067-0.051 0.105-0.076c0.030-0.020 0.061-0.033 0.092-0.047s0.062-0.027 0.092-0.047c0.031-0.020 0.059-0.042 0.087-0.063s0.057-0.041 0.090-0.056c0.061-0.029 0.125-0.053 0.185-0.094 0.080-0.055 0.161-0.094 0.242-0.132 0.041-0.019 0.082-0.038 0.123-0.058s0.082-0.042 0.123-0.068c0.101-0.064 0.21-0.090 0.317-0.126 0.036-0.012 0.071-0.025 0.106-0.041 0.042-0.019 0.082-0.041 0.121-0.062s0.080-0.040 0.124-0.054c0.069-0.023 0.139-0.040 0.207-0.074 0.075-0.037 0.149-0.065 0.224-0.089s0.151-0.044 0.229-0.065c0.085-0.023 0.162-0.070 0.246-0.095 0.067-0.020 0.137-0.032 0.205-0.048 0.073-0.016 0.135-0.029 0.206-0.060 0.038-0.016 0.073-0.026 0.108-0.034s0.071-0.014 0.11-0.023c0.050-0.012 0.098-0.031 0.147-0.048 0.031-0.011 0.062-0.022 0.094-0.027 0.068-0.011 0.14-0.015 0.208-0.031s0.139-0.038 0.21-0.061c0.070-0.023 0.141-0.048 0.208-0.071 0.074-0.026 0.145-0.022 0.219-0.045 0.069-0.021 0.123-0.035 0.196-0.041 0.133-0.010 0.248-0.034 0.378-0.056 0.034-0.006 0.068-0.013 0.102-0.021 0.101-0.024 0.202-0.051 0.306-0.052 0.066-0.001 0.134 0.002 0.202 0.003s0.136 0.002 0.202-0.003c0.152-0.011 0.305-0.047 0.458-0.048 0.16-0.001 0.324 0.020 0.484 0.035 0.161 0.014 0.322 0.031 0.483 0.052s0.32 0.044 0.48 0.072c0.154 0.027 0.3 0.024 0.454 0.056 0.067 0.014 0.133 0.027 0.2 0.043 0.054 0.013 0.102 0.038 0.153 0.059 0.017 0.007 0.033 0.015 0.051 0.021 0.048 0.015 0.097 0.027 0.146 0.038s0.098 0.022 0.146 0.036c0.079 0.022 0.148 0.066 0.224 0.095 0.068 0.026 0.134 0.033 0.201 0.066 0.070 0.035 0.126 0.064 0.199 0.088 0.15 0.049 0.298 0.101 0.444 0.163s0.288 0.134 0.428 0.223c0.036 0.023 0.072 0.038 0.108 0.054s0.072 0.030 0.108 0.051c0.067 0.040 0.135 0.082 0.201 0.124 0.067 0.043 0.13 0.104 0.197 0.15 0.070 0.048 0.139 0.095 0.208 0.145 0.26 0.189 0.515 0.378 0.759 0.598 0.068 0.061 0.136 0.129 0.203 0.196s0.134 0.133 0.201 0.192c0.055 0.048 0.109 0.103 0.164 0.151 0.023 0.020 0.046 0.036 0.070 0.052s0.047 0.032 0.069 0.053c0.056 0.052 0.101 0.111 0.158 0.158 0.041 0.034 0.082 0.069 0.123 0.104 0.078 0.067 0.155 0.136 0.23 0.205 0.045 0.041 0.088 0.088 0.13 0.136s0.084 0.096 0.129 0.14c0.083 0.082 0.164 0.181 0.241 0.279 0.128 0.164 0.253 0.348 0.373 0.529 0.040 0.060 0.080 0.12 0.119 0.178 0.122 0.181 0.232 0.388 0.34 0.597 0.036 0.069 0.071 0.139 0.106 0.208 0.066 0.13 0.131 0.259 0.193 0.389s0.123 0.262 0.181 0.396c0.028 0.064 0.054 0.126 0.082 0.189s0.056 0.128 0.082 0.189c0.010 0.023 0.018 0.042 0.026 0.061s0.016 0.039 0.025 0.063c0.011 0.028 0.042 0.085 0.049 0.115 0.017 0.077-0.010 0.108-0.022 0.116-0.017 0.012-0.038 0.006-0.058 0.010-0.034 0.007-0.063 0.026-0.088 0.062-0.014 0.020-0.026 0.043-0.037 0.074-0.014 0.043-0.043 0.050-0.055 0.097-0.001 0.006-0.001 0.016-0 0.026s0.001 0.020-0 0.026c-0.003 0.012-0.011-0.002-0.013 0.006-0.003 0.010-0.005 0.023-0.006 0.037s-0.001 0.029-0.002 0.044c-0.003 0.068-0.002 0.137-0.001 0.207s0.002 0.14-0.001 0.208c-0.002 0.036-0.002 0.069-0.002 0.104s0.003 0.071 0.007 0.113c0.008 0.086 0.012 0.168 0.021 0.254 0.005 0.048 0.007 0.092 0.008 0.133s0 0.081-0.001 0.121c-0.001 0.031-0.004 0.062-0.006 0.094s-0.003 0.066-0.001 0.102c0.003 0.051 0.010 0.090 0.009 0.135-0.001 0.039-0.003 0.077-0.005 0.116-0 0.002-0 0.005-0 0.007-0.002 0.058-0.005 0.116-0.007 0.174-0.001 0.017-0.002 0.031-0.004 0.045-0.002 0.019-0.005 0.036-0.009 0.053-0.005 0.026-0.009 0.052-0.010 0.084-0.003 0.066 0.010 0.142 0.007 0.209-0.002 0.041-0.006 0.074-0.012 0.103s-0.014 0.055-0.024 0.081c-0.008 0.020-0.017 0.039-0.025 0.061s-0.015 0.044-0.018 0.073c-0.010 0.122-0.011 0.261-0.016 0.39-0.003 0.076-0.006 0.153-0.010 0.229-0.002 0.035-0.008 0.069-0.006 0.108 0.003 0.041 0.015 0.082 0.014 0.119-0.002 0.043-0.019 0.056-0.022 0.098-0.002 0.022-0.003 0.038-0.006 0.052s-0.006 0.027-0.011 0.043c-0.001 0.002-0.001 0.006-0.002 0.008-0.006 0.023-0.008 0.053-0.009 0.086 0 0.001-0 0.002-0 0.004-0.001 0.037-0 0.076-0.002 0.109-0.001 0.025-0.002 0.050-0.003 0.074s-0.003 0.049-0.004 0.074c-0.001 0.046 0.009 0.092 0.013 0.141 0.006 0.080-0.008 0.158-0.011 0.229-0.007 0.172-0.009 0.336 0.020 0.539 0.009 0.060 0.021 0.123 0.031 0.183s0.017 0.12 0.017 0.173c-0.001 0.082 0.007 0.163 0.006 0.245-0 0.047 0.010 0.109 0.016 0.161 0.003 0.024 0.004 0.046 0.004 0.067s0.001 0.042 0.003 0.065c0.002 0.022 0.006 0.043 0.009 0.063s0.005 0.040 0.005 0.062c-0.001 0.032-0.003 0.062-0.004 0.094-0.005 0.14 0.007 0.282 0.002 0.422-0.005 0.128-0.010 0.255-0.014 0.382-0.002 0.064-0.004 0.128-0.007 0.191-0.002 0.046 0.011 0.103 0.013 0.15 0 0.016-0 0.030-0.004 0.043-0.013 0.052-0.024 0.105-0.032 0.162s-0.014 0.116-0.016 0.182c-0.001 0.034-0.007 0.059-0.012 0.083s-0.012 0.049-0.012 0.083c-0.002 0.066-0.024 0.104-0.026 0.172-0 0.025 0.003 0.049 0.006 0.073s0.007 0.048 0.007 0.072c0 0.030-0.002 0.060-0.004 0.089-0.003 0.073 0.013 0.144 0.010 0.217-0.002 0.036-0.001 0.074 0.001 0.112 0.006 0.114 0.023 0.232 0.019 0.341-0.006 0.152-0.028 0.29-0.056 0.425-0.006 0.030-0.016 0.060-0.028 0.089s-0.024 0.056-0.035 0.082c-0.020 0.047-0.051 0.096-0.065 0.149-0.009 0.033-0.020 0.066-0.024 0.103-0.003 0.028 0.004 0.068-0.002 0.093-0.006 0.023-0.017 0.030-0.023 0.056-0.005 0.022-0.012 0.042-0.018 0.063-0.002 0.006-0.004 0.012-0.006 0.018-0.008 0.028-0.020 0.058-0.030 0.089-0.005 0.015-0.010 0.031-0.013 0.048s-0.005 0.033-0.004 0.050c0.001 0.036 0.005 0.073 0.010 0.111s0.011 0.076 0.017 0.112c0.008 0.046 0.002 0.087 0.009 0.134 0.006 0.037 0.008 0.059 0.006 0.095-0.003 0.061-0.005 0.122-0.008 0.183-0.003 0.072-0.006 0.144-0.009 0.217-0.002 0.039 0.001 0.080-0.009 0.114s-0.022 0.040-0.015 0.085c0.009 0.052 0.008 0.092 0.009 0.144 0.001 0.039 0.015 0.077 0.017 0.116 0.002 0.036-0.006 0.065-0.001 0.103 0.003 0.023 0.006 0.042 0.009 0.060s0.003 0.037 0.002 0.059c-0.001 0.021-0.003 0.042-0.004 0.063-0.004 0.061-0.008 0.122-0.007 0.183 0.002 0.068 0.018 0.147 0.029 0.216 0.005 0.033 0.007 0.072 0.006 0.11s-0.005 0.075-0.012 0.105c-0.014 0.067-0.024 0.125-0.027 0.199-0.002 0.042 0.002 0.087-0.010 0.125-0.010 0.034-0.018 0.053-0.020 0.091 0 0.003-0.001 0.004-0.001 0.006-0.002 0.072-0.027 0.128-0.029 0.2-0.004 0.142-0.060 0.252-0.097 0.382-0.069 0.244-0.036 0.535-0.061 0.798-0.006 0.064-0.035 0.129-0.053 0.189-0.009 0.031-0.016 0.059-0.021 0.088s-0.008 0.059-0.009 0.093c-0.001 0.033-0.006 0.064-0.012 0.094s-0.015 0.060-0.024 0.089c-0.019 0.058-0.043 0.114-0.063 0.172-0.010 0.028-0.021 0.057-0.032 0.086s-0.020 0.060-0.027 0.090c-0.012 0.056-0.005 0.128-0.008 0.186-0.002 0.039 0 0.079-0.010 0.116-0 0.001-0.001 0.003-0.001 0.004-0.002 0.009-0.005 0.022-0.009 0.036-0.005 0.019-0.010 0.038-0.016 0.047-0.012 0.017-0.038 0.027-0.065 0.029-0.013 0.001-0.026 0-0.038-0.003s-0.022-0.009-0.028-0.017c-0.015 0.001-0.008 0.004-0.025-0.001 0 0 0 0 0 0s0 0 0 0c0.006 0.007 0.015 0.012 0.025 0.014l0.070 0.402c0.054-0.068 0.092-0.036 0.159-0.014 0.046 0.016 0.091 0.033 0.137 0.048 0.128 0.043 0.261 0.093 0.386 0.141 0.045 0.017 0.088 0.039 0.132 0.060-0.012 0.073-0.020 0.104-0.027 0.113 0.214 0.012 0.431 0.007 0.647 0.004 0.001 0 0.002 0 0.004 0 0.052 0.004 0.139 0.014 0.2-0.003 0.001 0 0.003 0 0.004 0 0.117 0 0.257 0.022 0.372 0.001 0.039-0.007 0.065-0.026 0.106-0.029 0.030-0.002 0.062 0.001 0.093 0.001 0.062 0 0.124-0.001 0.186 0 0.074 0.001 0.132-0.027 0.205-0.026 0.038 0 0.077-0.005 0.114 0.002 0.033 0.007 0.057 0.022 0.092 0.025 0.070 0.005 0.156 0.009 0.226 0 0.066-0.008 0.115-0.028 0.186-0.028 0.143 0 0.269 0.026 0.411 0.026 0.13 0 0.242-0.026 0.371-0.026 0.066 0 0.133 0.002 0.199 0 0.064-0.002 0.081-0.028 0.094-0.092 0.012-0.059 0.005-0.303 0.122-0.279-0.047-0.066-0.281-0.027-0.362-0.027h-0.43c-0.075 0-0.152 0.005-0.227 0-0.045-0.002-0.069-0.019-0.111-0.028-0.032-0.007-0.074 0.001-0.108 0.001-0.157 0.001-0.35-0.030-0.503 0.006-0.073 0.017-0.141 0.021-0.218 0.021-0.107-0-0.201 0.027-0.307 0.026-0.152-0.001-0.304 0-0.456 0-0.021 0-0.042 0.002-0.063 0.003-0.035-0.092-0.072-0.184-0.112-0.274-0.081-0.181-0.143-0.368-0.192-0.559s-0.087-0.388-0.12-0.587c-0.008-0.051-0.010-0.102-0.012-0.153s-0.004-0.102-0.012-0.153c-0.008-0.049-0.009-0.096-0.008-0.142s0.001-0.093-0.004-0.141c-0.010-0.096-0.012-0.19-0.011-0.283s0.004-0.187 0.005-0.282c0.001-0.058 0.013-0.103 0.022-0.156 0.007-0.037 0-0.079 0.005-0.117 0.015-0.12 0.052-0.233 0.076-0.348 0.049 0 0.099 0 0.148 0 0.069-0 0.12 0.024 0.186 0.027 0.118 0.006 0.24-0.001 0.358-0.001 0.058 0 0.115 0 0.173 0 0.068-0 0.12 0.023 0.185 0.027 0.070 0.004 0.142-0 0.211-0 0.088-0 0.162 0.024 0.247 0.027s0.161 0.028 0.245 0.026c0.098-0.002 0.184 0.024 0.279 0.027 0.101 0.003 0.189 0 0.286 0.020 0.070 0.014 0.146 0.006 0.218 0.006 0.060 0 0.127 0.008 0.186 0.001 0.007-0.001 0.059-0.022 0.059-0.022 0.034-0.001 0.037 0.005 0.068 0.018 0.035-0.095-0.026-0.194 0.002-0.276 0.020-0.058 0.028-0.088 0.077-0.127 0.033-0.027 0.073-0.043 0.103-0.074-0.292 0.016-0.588 0.001-0.88 0.001-0.137 0-0.261 0.026-0.398 0.026-0.115 0-0.231 0.005-0.345 0-0.064-0.003-0.113-0.028-0.178-0.027-0.033 0-0.068 0.003-0.101 0.001-0.044-0.004-0.081-0.023-0.125-0.029-0.138-0.017-0.292 0.002-0.431 0.002h-0.372c-0.047 0-0.103-0.005-0.158-0.008 0.006-0.026 0.015-0.049 0.018-0.077 0.002-0.019 0.003-0.040 0.002-0.060s-0.001-0.042-0.001-0.062c0.002-0.11 0.018-0.207 0.024-0.312 0.003-0.046 0.012-0.088 0.022-0.129s0.019-0.083 0.021-0.129c0.003-0.050 0.018-0.090 0.022-0.138 0.004-0.050 0-0.107 0.001-0.159 0.001-0.048 0.003-0.096 0.003-0.144s-0.001-0.098-0.008-0.149c-0.010-0.073-0.003-0.134-0.008-0.205-0.004-0.057-0.015-0.114-0.015-0.17 0-0.053 0.004-0.104 0.006-0.157s0.003-0.106-0.004-0.163c-0.017-0.134-0.010-0.252-0.008-0.376 0.002-0.101-0.009-0.201-0.013-0.305-0.002-0.049-0.001-0.095 0.002-0.14 0.002-0.028 0.006-0.054 0.009-0.080 0.134-0.002 0.269-0.005 0.402-0.005 0.117 0 0.257 0.022 0.372 0.002 0.039-0.007 0.065-0.026 0.106-0.029 0.030-0.002 0.062 0.001 0.093 0.001 0.062 0 0.124-0.001 0.186 0 0.074 0.001 0.132-0.027 0.205-0.026 0.038 0 0.077-0.005 0.114 0.002 0.033 0.007 0.057 0.022 0.093 0.025 0.070 0.005 0.156 0.009 0.226 0 0.066-0.008 0.115-0.028 0.186-0.028 0.143 0 0.269 0.026 0.411 0.026 0.13 0 0.242-0.026 0.371-0.026 0.066 0 0.133 0.002 0.199 0 0.064-0.002 0.081-0.028 0.094-0.092 0.012-0.059 0.005-0.303 0.122-0.279-0.047-0.066-0.281-0.027-0.362-0.027h-0.43c-0.075 0-0.152 0.005-0.227 0-0.044-0.002-0.068-0.019-0.111-0.028-0.032-0.007-0.074 0.001-0.108 0.001-0.157 0.001-0.35-0.030-0.503 0.006-0.073 0.017-0.141 0.021-0.218 0.021-0.108-0-0.201 0.027-0.307 0.026-0.152-0.001-0.304 0-0.456 0-0.144 0-0.277 0.027-0.416 0.046 0.006-0.044 0.012-0.088 0.013-0.139 0.001-0.084 0.002-0.169 0.004-0.253 0.001-0.082 0.003-0.164 0.004-0.246 0-0.032-0.001-0.065 0.001-0.095 0.002-0.038 0.015-0.059 0.019-0.094 0.007-0.065 0.008-0.14 0.008-0.217s-0.003-0.155-0.002-0.228c0.002-0.152 0.004-0.306 0.007-0.458 0.003-0.164-0.030-0.364-0.038-0.541-0.004-0.090-0.010-0.18-0.015-0.27s-0.008-0.178-0.006-0.263c0.002-0.087-0.001-0.181-0.006-0.279-0.001-0.024-0.004-0.050-0.006-0.074h1.138c0.039 0 0.078-0.002 0.117-0 0.049 0.002 0.090 0.024 0.139 0.028 0.094 0.010 0.196-0.001 0.291-0.001 0.212 0 0.423 0.014 0.631 0.047 0.182 0.030 0.357-0.020 0.537-0.021 0.073 0 0.147-0.004 0.219-0 0.057 0.003 0.091 0.028 0.14 0.050 0.005-0.046 0.038-0.066 0.034-0.116-0.003-0.037-0.052-0.095-0.011-0.122z"></path>
<path d="M23.088 3.95c-0.055-0.010-0.106 0.064-0.136 0.101-0.001 0.001-0.001 0.002-0.002 0.003 0.048-0.010 0.135-0.058 0.138-0.104z"></path>
<path d="M22.936 4.057l-0.004 0.019c0.006-0.008 0.012-0.015 0.018-0.022-0.004 0.001-0.010 0.003-0.014 0.004z"></path>
<path d="M19.668 2.324c0.006 0.001 0.011 0.001 0.016 0.001 0.010-0.005 0.017-0.012 0.029-0.016-0.014 0.007-0.029 0.012-0.045 0.014z"></path>
</svg>
