<!-- Generated by IcoMoon.io -->
<svg version="1.1" xmlns="http://www.w3.org/2000/svg" width="32" height="32" viewBox="0 0 32 32">
<path d="M19.481 18.803c-0.113 0.034-0.225 0.119-0.341 0.137-0.081 0.013-0.174-0.004-0.256-0.004-0.211 0-0.405 0.046-0.614 0.046-0.524 0-1.050 0-1.574 0h-1.287c-0.137 0-0.273 0.001-0.411 0-0.058 0-0.209-0.034-0.237 0.036 0.089 0.043 0.252 0.010 0.349 0.010 0.131-0.001 0.229 0.046 0.365 0.045 0.383-0.003 0.75 0.098 1.121 0.174 0.169 0.035 0.338 0.003 0.506 0.045 0.158 0.041 0.327-0.013 0.488 0.021 0.417 0.086 0.871 0.036 1.295 0.036 0.161 0 0.338 0.024 0.497-0.009 0.179-0.037 0.366-0.106 0.542-0.155 0.111-0.032 0.2-0.094 0.303-0.138 0.122-0.053 0.259-0.006 0.384-0.053 0.139-0.050 0.393-0.128 0.407-0.305 0.004-0.052 0.001-0.113-0.001-0.166-0.004-0.102-0.018-0.086-0.080-0.146-0.063-0.063-0.088-0.171-0.157-0.225-0.072-0.058-0.158-0.035-0.237-0.068-0.125-0.055-0.196-0.062-0.329-0.064-0.099-0.001-0.192-0.043-0.291-0.049-0.134-0.010-0.271 0.023-0.405-0.008-0.107-0.026-0.187-0.037-0.296-0.036-0.139 0.001-0.291 0.014-0.438 0.008 0.027 0.012 0.053 0.023 0.080 0.031 0.13 0.031 0.247-0.001 0.378 0.055 0.106 0.045 0.186 0.104 0.294 0.137 0.045 0.013 0.085 0.023 0.125 0.054 0.106 0.079 0.236 0.116 0.241 0.265 0.009 0.251-0.255 0.277-0.419 0.326z"></path>
<path d="M18.134 17.785c-0.367-0.022-0.732-0.088-1.099-0.086-0.148 0-0.295 0-0.442 0 0.232 0.058 0.224 0.071 0.218 0.084 0.139 0.059 0.375 0.009 0.523 0.006 0.101-0.001 0.183 0.036 0.278 0.049 0.153 0.019 0.325 0 0.479-0.003 0.098-0.001 0.17 0.037 0.265 0.049 0.075 0.010 0.134 0 0.206 0.021 0.070 0.021 0.144 0.027 0.22 0.031-0.053-0.022-0.104-0.048-0.155-0.067-0.144-0.058-0.33-0.073-0.495-0.084z"></path>
<path d="M16.708 17.010c-0.084 0-0.169 0-0.253 0-0.128-0.001-0.206 0.027-0.321 0.048-0.045 0.008-0.097-0.005-0.142-0.004-0.067 0.003-0.124 0.027-0.188 0.037-0.179 0.030-0.371 0.010-0.553 0.010-0.353 0-0.688 0.014-1.031 0.081-0.146 0.030-0.294-0.013-0.438 0.008-0.071 0.009-0.111 0.039-0.175 0.068-0.122 0.053-0.281 0.080-0.41 0.11-0.093 0.021-0.162 0.037-0.251 0.077-0.111 0.050-0.24 0.066-0.347 0.115-0.046 0.022-0.061 0.057-0.104 0.082-0.048 0.027-0.133 0.018-0.184 0.030-0.147 0.035-0.278 0.108-0.414 0.177-0.167 0.084-0.352 0.146-0.501 0.274-0.12 0.103-0.219 0.241-0.182 0.424 0.030 0.144 0.128 0.291 0.197 0.411 0.049 0.086 0.071 0.12 0.131 0.188 0.046 0.053 0.061 0.104 0.126 0.14 0.035 0.019 0.080 0.010 0.113 0.027 0.125 0.062 0.205 0.225 0.316 0.303 0.102 0.071 0.198 0.165 0.305 0.227 0.174 0.102 0.376 0.179 0.564 0.233 0.117 0.034 0.252 0.018 0.375 0.044 0.161 0.032 0.334 0.010 0.496 0.010h2.466c0.307 0 0.626 0.031 0.931 0.001 0.121-0.012 0.233-0.052 0.357-0.048 0.058 0.001 0.481 0.021 0.492-0.106-0.053-0.061-0.202-0.036-0.271-0.055-0.084-0.023-0.16-0.023-0.246-0.023-0.173 0.001-0.345 0-0.518 0h-0.558c-0.218 0-0.465 0.040-0.679-0.003-0.362-0.075-0.728-0.155-1.094-0.179-0.072-0.005-0.151-0.034-0.22-0.052-0.072-0.019-0.149-0.030-0.222-0.052-0.113-0.034-0.227-0.073-0.336-0.128-0.101-0.049-0.241-0.088-0.31-0.18-0.071-0.093-0.13-0.243-0.111-0.37 0.008-0.050 0.035-0.089 0.044-0.138 0.006-0.030-0.009-0.062-0.004-0.091 0.013-0.079 0.039-0.183 0.066-0.254 0.063-0.171 0.166-0.282 0.287-0.402 0.156-0.153 0.398-0.211 0.602-0.262 0.295-0.072 0.599-0.121 0.881-0.232 0.375-0.147 0.81-0.147 1.193-0.263 0.133-0.041 0.277 0.006 0.414-0.021 0.134-0.028 0.267-0.050 0.402-0.072 0.071-0.010 0.133-0.005 0.204-0.008 0.117-0.004 0.215-0.068 0.329-0.098-0.010 0.001-0.021 0.003-0.031 0.004-0.639-0.091-0.92-0.091-1.199-0.091z"></path>
<path d="M19.074 21.049c0.004-0.001 0.008-0.001 0.012-0.003h-0.412c0.129 0 0.273 0.023 0.401 0.003z"></path>
<path d="M20.864 21.048c0.262 0.005 0.497-0.143 0.761-0.14 0.13 0.001 0.238-0.040 0.363-0.089 0.093-0.036 0.177-0.079 0.274-0.090 0.135-0.015 0.264-0.004 0.399-0.036 0.167-0.039 0.309-0.073 0.468-0.139 0.139-0.057 0.287-0.058 0.428-0.112 0.115-0.045 0.234-0.080 0.348-0.128 0.058-0.024 0.11-0.064 0.166-0.091 0.113-0.057 0.238-0.072 0.353-0.121 0.174-0.075 0.343-0.128 0.501-0.234 0.13-0.086 0.269-0.13 0.39-0.229 0.108-0.089 0.229-0.133 0.34-0.219 0.122-0.094 0.234-0.207 0.361-0.294 0.129-0.089 0.164-0.157 0.227-0.313 0.106-0.262 0.11-0.529 0.11-0.814 0.001-0.053 0.022-0.164 0.008-0.21-0.023-0.070-0.121-0.103-0.175-0.126-0.075-0.031-0.152-0.044-0.231-0.054-0.098-0.012-0.178-0.068-0.274-0.089-0.211-0.045-0.423-0.049-0.633-0.119-0.095-0.031-0.178-0.058-0.28-0.063-0.259-0.010-0.492-0.053-0.743-0.122-0.332-0.093-0.68-0.122-1-0.268-0.124-0.055-0.24-0.054-0.362-0.095-0.122-0.040-0.228-0.095-0.354-0.116-0.124-0.022-0.246-0.071-0.368-0.103-0.133-0.035-0.264-0.046-0.399-0.075-0.179-0.040-0.366-0.059-0.545-0.097-0.057-0.013-0.079-0.035-0.131-0.064-0.197-0.108-0.492-0.064-0.705-0.073-0.223-0.009-0.429-0.064-0.647-0.113-0.161-0.035-0.326-0.037-0.488-0.058-0.335-0.041-0.666-0.115-1-0.155-0.214-0.027-0.414-0.043-0.631-0.043h-0.523c-0.25 0-0.501-0.010-0.748 0.046-0.259 0.059-0.522 0.111-0.783 0.161-0.22 0.043-0.419 0.068-0.64 0.068-0.090 0-0.182-0.010-0.269 0.010-0.059 0.014-0.188 0.028-0.388 0.081h4.26c0.28 0 0.593-0.049 0.866 0.034 0.362 0.11 0.736 0.094 1.105 0.174 0.122 0.027 0.249 0.041 0.37 0.077 0.152 0.045 0.29 0.148 0.444 0.175 0.2 0.036 0.407 0.019 0.596 0.102 0.134 0.058 0.282 0.111 0.415 0.157 0.254 0.088 0.509 0.165 0.764 0.246 0.164 0.052 0.348 0.098 0.496 0.195 0.055 0.036 0.125 0.086 0.174 0.134 0.124 0.119 0.152 0.184 0.151 0.357-0.001 0.202 0 0.405 0 0.605 0 0.106 0.012 0.22-0.008 0.323-0.012 0.064-0.045 0.115-0.063 0.174-0.022 0.076-0.021 0.157-0.055 0.229-0.041 0.088-0.113 0.179-0.162 0.265-0.061 0.106-0.138 0.182-0.231 0.249-0.175 0.125-0.356 0.165-0.537 0.264-0.218 0.121-0.426 0.223-0.654 0.323-0.469 0.206-0.978 0.34-1.469 0.459-0.362 0.088-0.756 0.142-1.127 0.138-0.111-0.001-0.189 0.027-0.291 0.045h1.273c0.169 0 0.336-0.003 0.505 0.001z"></path>
<path d="M19.559 15.308c-0.251-0.054-0.517-0.182-0.772-0.182-0.242 0.001-0.479-0.044-0.724-0.044-0.214 0-0.403-0.044-0.617-0.070-0.645-0.079-1.32-0.022-1.969-0.022-0.51 0-1.022 0-1.532 0-0.122 0-0.249-0.014-0.371 0.001-0.12 0.017-0.232 0.084-0.353 0.094-0.281 0.021-0.571-0.004-0.852-0.004h-0.961c-0.456 0-0.953-0.067-1.395 0.089-0.195 0.068-0.366 0.187-0.568 0.222s-0.401 0.054-0.589 0.152c-0.263 0.135-0.474 0.366-0.748 0.483-0.246 0.106-0.441 0.278-0.663 0.437-0.179 0.128-0.338 0.269-0.49 0.442-0.108 0.124-0.204 0.251-0.283 0.401-0.098 0.18-0.184 0.401-0.233 0.607-0.039 0.165-0.008 0.383-0.008 0.553 0 0.148-0.013 0.307 0.004 0.454 0.010 0.094 0.032 0.178 0.035 0.273 0.005 0.106 0.034 0.147 0.109 0.214 0.073 0.067 0.164 0.104 0.24 0.169 0.072 0.062 0.131 0.144 0.204 0.206 0.079 0.066 0.179 0.089 0.267 0.138 0.12 0.068 0.224 0.169 0.335 0.253 0.303 0.228 0.66 0.349 0.974 0.549 0.249 0.158 0.533 0.193 0.782 0.338 0.295 0.17 0.614 0.272 0.924 0.399 0.193 0.080 0.392 0.139 0.578 0.237 0.185 0.098 0.358 0.067 0.548 0.13 0.122 0.041 0.24 0.104 0.365 0.13 0.113 0.023 0.228 0.028 0.341 0.054 0.263 0.059 0.524 0.124 0.787 0.173 0.169 0.031 0.329 0.066 0.497 0.106 0.183 0.044 0.366 0.036 0.55 0.054 0.295 0.027 0.589 0.125 0.883 0.165 0.318 0.044 0.652 0.008 0.971 0.008h1.945c0.555 0 1.108 0.009 1.659-0.050 0.12-0.013 0.227-0.044 0.348-0.043 0.148 0.003 0.298 0.010 0.446-0.008 0.578-0.070 1.126-0.309 1.708-0.362-0.192 0.008-0.384 0.010-0.576 0.005-0.12-0.003-0.228-0.040-0.348-0.053-0.303-0.030-0.598-0.095-0.901-0.128-0.122-0.014-0.246 0.008-0.368-0.009-0.183-0.023-0.349-0.043-0.536-0.041-0.301 0.001-0.603-0.001-0.904 0-0.18 0.001-0.344-0.024-0.522-0.043-0.353-0.035-0.714 0.005-1.068-0.001-0.121-0.003-0.209-0.081-0.326-0.099-0.111-0.017-0.241 0.005-0.352 0.005-0.188 0-0.367 0.008-0.551-0.036-0.148-0.035-0.304-0.001-0.454-0.008-0.129-0.005-0.251-0.048-0.381-0.048-0.295 0-0.58-0.095-0.876-0.094-0.174 0.001-0.356 0.022-0.53 0.005-0.502-0.052-0.983-0.173-1.464-0.338-0.218-0.075-0.442-0.115-0.652-0.227-0.126-0.067-0.256-0.133-0.381-0.207-0.064-0.039-0.106-0.095-0.166-0.14-0.054-0.040-0.122-0.044-0.178-0.077-0.138-0.082-0.24-0.201-0.358-0.321-0.116-0.115-0.245-0.215-0.372-0.31-0.063-0.048-0.171-0.090-0.219-0.16-0.063-0.090-0.028-0.265-0.028-0.381v-0.318c0-0.486-0.091-1.109 0.149-1.515 0.066-0.111 0.146-0.186 0.229-0.274 0.081-0.088 0.148-0.107 0.264-0.133 0.304-0.068 0.597-0.156 0.889-0.262 0.298-0.107 0.575-0.268 0.857-0.42 0.137-0.075 0.268-0.14 0.403-0.219 0.086-0.050 0.182-0.064 0.268-0.113 0.075-0.041 0.138-0.101 0.219-0.129 0.073-0.027 0.143-0.043 0.211-0.084 0.076-0.046 0.134-0.050 0.214-0.072 0.098-0.027 0.179-0.094 0.276-0.12 0.082-0.022 0.167-0.037 0.251-0.055 0.468-0.098 0.921-0.091 1.395-0.091h4.096l0.678 0.046c0.023-0.187-0.139-0.254-0.26-0.28z"></path>
<path d="M30.976 18.64c0-0.294 0.010-0.54-0.095-0.814-0.103-0.263-0.251-0.527-0.406-0.755-0.072-0.107-0.125-0.232-0.207-0.331s-0.186-0.147-0.282-0.223c-0.050-0.040-0.067-0.093-0.11-0.137-0.067-0.067-0.157-0.095-0.238-0.126-0.271-0.101-0.54-0.206-0.81-0.304-0.191-0.070-0.379-0.12-0.567-0.2-0.241-0.103-0.505-0.243-0.759-0.301-0.259-0.059-0.518-0.077-0.769-0.18-0.247-0.103-0.502-0.175-0.76-0.236-0.314-0.076-0.629-0.165-0.937-0.272-0.358-0.125-0.725-0.231-1.087-0.345-0.335-0.106-0.688-0.115-1.032-0.167-0.371-0.058-0.75-0.128-1.107-0.264-0.197-0.076-0.419-0.063-0.625-0.094-0.294-0.045-0.585-0.048-0.881-0.046-0.696 0.003-1.393 0-2.088 0-0.323 0-0.647-0.001-0.969 0.001-0.232 0.001-0.456-0.036-0.687-0.049-0.522-0.030-1.051 0.003-1.576 0.003-0.483 0-0.966 0.003-1.449-0.001-0.070 0-0.161-0.023-0.227 0.003-0.054 0.021-0.094 0.063-0.149 0.091-0.098 0.049-0.213 0.071-0.316 0.103-0.12 0.036-0.246 0.054-0.372 0.077-0.138 0.027-0.274 0.062-0.411 0.094 0.201-0.001 0.392 0.041 0.591 0.046 0.425 0.013 0.853-0.001 1.278-0.001 0.294 0 0.577 0.024 0.868 0.046 0.135 0.009 0.262 0.048 0.398 0.046 0.157-0.003 0.318-0.014 0.474-0.001 0.081 0.005 0.146 0.045 0.229 0.048 0.196 0.005 0.385-0.008 0.578 0.022 0.273 0.040 0.557 0.024 0.832 0.023 0.142-0.001 0.269 0.040 0.41 0.046 0.231 0.012 0.478 0.043 0.706 0.089 0.119 0.024 0.232 0.068 0.352 0.085 0.156 0.021 0.314 0.013 0.47 0.032 0.178 0.021 0.354 0.008 0.527 0.055 0.229 0.063 0.455 0.049 0.689 0.067 0.317 0.026 0.625 0.101 0.939 0.155 0.201 0.035 0.397 0.036 0.6 0.084 0.277 0.064 0.562 0.115 0.843 0.157 0.129 0.019 0.246 0.014 0.374 0.054 0.064 0.019 0.128 0.045 0.192 0.061 0.241 0.057 0.491 0.048 0.734 0.101 0.16 0.035 0.3 0.116 0.454 0.153 0.085 0.021 0.166 0.001 0.251 0.005 0.102 0.004 0.202 0.035 0.3 0.061 0.133 0.035 0.268 0.019 0.398 0.066 0.070 0.024 0.131 0.071 0.202 0.094 0.098 0.034 0.201 0.045 0.299 0.079 0.205 0.071 0.428 0.099 0.624 0.189 0.202 0.093 0.415 0.177 0.629 0.238 0.301 0.088 0.593 0.169 0.868 0.336 0.129 0.077 0.237 0.146 0.376 0.183 0.126 0.035 0.241 0.122 0.33 0.234 0.076 0.097 0.14 0.202 0.218 0.299 0.101 0.124 0.131 0.22 0.129 0.385-0.001 0.106 0.004 0.192 0.021 0.291 0.019 0.113-0.001 0.236 0.017 0.349 0.014 0.080 0.044 0.135 0.043 0.227-0.001 0.099 0.014 0.207-0.004 0.303-0.018 0.107-0.032 0.215-0.054 0.32-0.026 0.125-0.089 0.232-0.129 0.349-0.093 0.272-0.273 0.584-0.435 0.806-0.151 0.207-0.34 0.367-0.499 0.566-0.152 0.188-0.286 0.372-0.459 0.54-0.12 0.116-0.243 0.2-0.353 0.323-0.112 0.125-0.254 0.175-0.398 0.242-0.128 0.059-0.245 0.14-0.379 0.179-0.129 0.037-0.258 0.044-0.384 0.091-0.158 0.059-0.335 0.139-0.479 0.234-0.291 0.193-0.605 0.263-0.928 0.358-0.134 0.040-0.271 0.063-0.403 0.112-0.075 0.028-0.143 0.070-0.216 0.098-0.093 0.036-0.189 0.014-0.285 0.027-0.207 0.026-0.407 0.073-0.616 0.084-0.151 0.008-0.294 0.022-0.439 0.068-0.165 0.054-0.291 0.062-0.461 0.073-0.245 0.015-0.488 0.072-0.727 0.135-0.129 0.034-0.249 0.032-0.376 0.054-0.271 0.046-0.538 0.031-0.81 0.059-0.296 0.030-0.591 0.023-0.889 0.023h-1.524c-0.286 0-0.567-0.017-0.845 0.041-0.245 0.052-0.538 0.004-0.788 0.004h-3.226c-0.228 0-0.461 0.026-0.681-0.052-0.149-0.053-0.301-0.062-0.461-0.095-0.149-0.031-0.265-0.084-0.42-0.081-0.161 0.004-0.325-0.053-0.484-0.082-0.097-0.018-0.193 0.001-0.29-0.018-0.185-0.037-0.359-0.121-0.551-0.131-0.193-0.010-0.375-0.045-0.572-0.044-0.153 0-0.326 0.028-0.477-0.008 0.17 0.063 0.335 0.142 0.509 0.188 0.214 0.055 0.417 0.082 0.622 0.179 0.11 0.052 0.215 0.063 0.33 0.097 0.185 0.054 0.361 0.131 0.545 0.189 0.526 0.162 1.064 0.265 1.601 0.363 0.359 0.066 0.718 0.037 1.078 0.081 0.3 0.036 0.611 0.010 0.912 0.010 0.229 0 0.46-0.013 0.689-0.003 0.278 0.013 0.553 0.052 0.832 0.050 0.537-0.001 1.073-0.001 1.61-0.001h4.020c0.526 0 1.058 0.027 1.582-0.023 0.776-0.073 1.569-0.161 2.329-0.374 0.213-0.059 0.403-0.186 0.613-0.25 0.202-0.062 0.415-0.124 0.621-0.17 0.349-0.080 0.653-0.183 0.96-0.397 0.272-0.189 0.584-0.357 0.768-0.661 0.055-0.091 0.119-0.125 0.192-0.198 0.095-0.098 0.183-0.213 0.273-0.318 0.281-0.323 0.56-0.64 0.778-1.020 0.142-0.249 0.304-0.473 0.423-0.739 0.113-0.258 0.259-0.478 0.313-0.765 0.027-0.144 0.104-0.277 0.121-0.423 0.012-0.103-0.005-0.222-0.005-0.326z"></path>
<path d="M11.652 14.119c-0.439 0.174-0.33 0.197-0.207 0.162 0.057-0.017 0.11-0.048 0.169-0.061 0.089-0.019 0.189-0.004 0.278-0.019 0.057-0.009 0.112-0.023 0.169-0.036-0.001 0-0.001 0-0.003 0-0.14 0-0.273 0.017-0.406-0.046z"></path>
<path d="M3.682 17.732c0.005 0.050-0.012 0.066 0.015 0.106 0.022 0.034 0.082 0.032 0.108 0.064 0.030 0.036 0.041 0.098 0.062 0.14 0.052 0.112 0.133 0.282 0.278 0.249 0.039-0.062 0.001-0.119 0.013-0.183 0.006-0.037 0.026-0.055 0.034-0.089 0.019-0.084 0.005-0.169 0.027-0.253 0.046-0.175 0.086-0.356 0.142-0.528 0.077-0.245 0.189-0.51 0.349-0.688 0.077-0.086 0.144-0.201 0.228-0.271 0.097-0.080 0.224-0.144 0.331-0.229 0.057-0.044 0.113-0.093 0.167-0.142 0.027-0.024 0.045-0.063 0.079-0.084 0.026-0.017 0.059-0.009 0.089-0.028 0.076-0.048 0.147-0.131 0.222-0.187 0.052-0.039 0.112-0.076 0.157-0.124 0.088-0.094 0.133-0.149 0.253-0.2 0.066-0.026 0.098-0.063 0.153-0.102 0.182-0.121 0.408-0.153 0.585-0.283 0.076-0.057 0.111-0.153 0.184-0.214 0.044-0.036 0.097-0.052 0.144-0.077 0.044-0.023 0.063-0.043 0.098-0.073 0.211-0.183 0.446-0.289 0.687-0.406 0.115-0.057 0.211-0.106 0.329-0.148 0.085-0.031 0.158-0.082 0.249-0.107 0.259-0.072 0.52-0.113 0.776-0.205 0.587-0.21 1.197-0.325 1.804-0.437 0.196-0.036 0.385-0.034 0.58-0.079 0.223-0.050 0.451-0.061 0.678-0.093 0.473-0.064 0.94-0.158 1.416-0.207 0.245-0.024 0.483-0.032 0.725-0.080 0.187-0.036 0.363-0.015 0.551-0.028 0.070-0.005 0.137-0.021 0.202-0.036-0.998 0.031-2.128 0.031-3.259 0.031-0.484 0-0.968 0.003-1.452 0-0.138 0-0.258 0.015-0.394 0.036-0.16 0.024-0.308-0.008-0.463 0.055-0.188 0.079-0.385 0.041-0.584 0.045-0.119 0.003-0.227 0.027-0.343 0.059-0.345 0.093-0.71 0.144-1.047 0.263-0.21 0.075-0.419 0.151-0.627 0.237-0.137 0.055-0.256 0.143-0.397 0.178-0.128 0.031-0.236 0.090-0.357 0.149-0.24 0.115-0.495 0.209-0.721 0.354-0.101 0.063-0.21 0.082-0.312 0.14-0.101 0.055-0.162 0.14-0.264 0.188-0.466 0.218-1.032 0.446-1.371 0.902-0.086 0.116-0.14 0.263-0.22 0.385-0.064 0.099-0.121 0.174-0.157 0.295-0.055 0.188-0.036 0.472 0.006 0.654 0.041 0.171 0.075 0.339 0.12 0.509 0.036 0.134 0.070 0.268 0.099 0.401 0.008 0.041 0.024 0.084 0.030 0.138z"></path>
<path d="M16.070 12.649c-0.167-0.001-0.326-0.003-0.491 0.022-0.062 0.010-0.122 0.026-0.183 0.041 0.441-0.014 0.858-0.034 1.237-0.061-0.188 0-0.376 0-0.563-0.003z"></path>
<path d="M20.925 26.461c-0.482 0.001-0.959 0.097-1.439 0.094-0.52-0.004-1.041-0.003-1.561-0.003-0.225 0-0.452 0.005-0.678 0.003-0.238-0.004-0.473-0.043-0.711-0.049-0.402-0.012-0.787-0.128-1.187-0.137-0.124-0.003-0.236-0.003-0.354-0.046-0.080-0.030-0.128-0.040-0.209-0.045-0.309-0.015-0.609-0.095-0.916-0.134-0.298-0.036-0.587-0.113-0.885-0.143-0.173-0.017-0.334-0.057-0.499-0.111-0.508-0.167-1.022-0.329-1.545-0.407-0.271-0.041-0.544-0.099-0.806-0.173-0.129-0.036-0.269-0.099-0.398-0.146-0.125-0.045-0.245-0.073-0.372-0.107-0.151-0.040-0.282-0.134-0.43-0.183-0.158-0.053-0.322-0.041-0.474-0.112-0.236-0.11-0.482-0.255-0.733-0.31-0.227-0.050-0.416-0.124-0.613-0.262-0.101-0.071-0.2-0.138-0.292-0.22-0.081-0.071-0.156-0.077-0.246-0.122-0.091-0.046-0.166-0.115-0.264-0.153-0.128-0.049-0.253-0.113-0.378-0.169-0.228-0.102-0.5-0.227-0.684-0.411-0.169-0.167-0.317-0.379-0.491-0.533-0.162-0.143-0.304-0.298-0.461-0.451-0.149-0.147-0.323-0.332-0.416-0.533-0.363 0.586-0.295 1.040-0.231 1.339 0.061 0.277 0.131 0.603 0.237 0.862 0.041 0.099 0.11 0.173 0.144 0.277 0.017 0.048 0.023 0.102 0.037 0.151 0.050 0.166 0.139 0.287 0.179 0.459 0.035 0.152 0.147 0.229 0.233 0.347 0.108 0.148 0.24 0.186 0.37 0.301 0.233 0.209 0.528 0.304 0.776 0.488 0.241 0.179 0.535 0.246 0.795 0.375 0.133 0.066 0.243 0.189 0.372 0.254 0.112 0.055 0.232 0.089 0.343 0.149 0.124 0.067 0.256 0.099 0.386 0.148 0.147 0.054 0.299 0.13 0.448 0.165 0.147 0.035 0.304 0.015 0.454 0.043 0.064 0.012 0.129 0.013 0.193 0.023 0.332 0.050 0.667 0.034 1.004 0.034h8.444c0.402 0 0.817 0.030 1.217 0.003 0.171-0.010 0.33-0.050 0.502-0.048 0.119 0.001 0.229-0.024 0.345-0.055 0.466-0.125 0.944-0.195 1.418-0.264 0.164-0.023 0.362-0.094 0.505-0.186 0.076-0.049 0.169-0.147 0.263-0.139-0.206 0.012-0.39 0.006-0.594 0.061-0.259 0.067-0.535 0.079-0.799 0.079z"></path>
<path d="M11.048 11.467c0.169-0.028 0.335-0.043 0.504-0.079 0.144-0.031 0.29-0.053 0.434-0.089 0.024-0.005 0.049-0.015 0.073-0.023-0.68 0-1.362-0.001-2.042-0.001 0.696 0.276 0.857 0.222 1.031 0.192z"></path>
<path d="M23.194 11.145c-0.124-0.030-0.262-0.027-0.389-0.048-0.258-0.044-0.523-0.030-0.776-0.11-0.398-0.125-0.817-0.126-1.225-0.191-0.497-0.079-1.022-0.027-1.523-0.027h-4.202c-0.11 0-0.22-0.001-0.331-0.001-0.292-0.003-0.548 0.090-0.834 0.133-0.079 0.012-0.14 0.004-0.216 0.004-0.166 0-0.332 0.055-0.493 0.094-0.205 0.050-0.405 0.067-0.608 0.101-0.182 0.030-0.358 0.121-0.536 0.178 1.337 0.001 2.676 0.004 4.014-0.003 0.389-0.003 0.765 0.039 1.149 0.119 0.456 0.095 0.904 0.161 1.369 0.157 0.822-0.006 1.671-0.049 2.481 0.137 0.171 0.040 0.343 0.044 0.518 0.050 0.216 0.009 0.423 0.076 0.638 0.089 0.309 0.018 0.624 0.084 0.926 0.16 0.237 0.061 0.483 0.073 0.724 0.113 0.255 0.043 0.51 0.084 0.764 0.13 0.224 0.040 0.442 0.035 0.665 0.062 0.090 0.012 0.182 0.039 0.269 0.061 0.179 0.048 0.361 0.054 0.542 0.081 0.514 0.077 1.055 0.169 1.545 0.365 0.099 0.040 0.184 0.095 0.289 0.119 0.121 0.026 0.232 0.054 0.349 0.093 0.068 0.022 0.113 0.041 0.178 0.073 0.066 0.035 0.113 0.015 0.183 0.024 0.167 0.022 0.308 0.111 0.465 0.165 0.188 0.067 0.381 0.054 0.566 0.137 0.188 0.085 0.39 0.115 0.575 0.207 0.084 0.041 0.134 0.043 0.225 0.044 0.070 0 0.204 0.054 0.254 0.008-0.001-0.195-0.412-0.317-0.54-0.384-0.102-0.053-0.174-0.108-0.283-0.148-0.158-0.059-0.317-0.138-0.461-0.234-0.385-0.254-0.843-0.379-1.244-0.603-0.108-0.061-0.187-0.124-0.308-0.146-0.093-0.018-0.155-0.067-0.242-0.094-0.289-0.088-0.582-0.187-0.88-0.223-0.273-0.032-0.541-0.097-0.814-0.137-0.237-0.034-0.51-0.049-0.736-0.148-0.2-0.089-0.403-0.151-0.614-0.196-0.317-0.067-0.66-0.113-0.98-0.128-0.080-0.003-0.146 0.010-0.229-0.006-0.076-0.014-0.147-0.058-0.222-0.076z"></path>
<path d="M6.509 9.808c0.28 0.004 0.5-0.094 0.77-0.164 0.211-0.055 0.426-0.079 0.639-0.119 0.271-0.049 0.487-0.225 0.77-0.225 0.227 0 0.437-0.088 0.663-0.091 0.268-0.005 0.522-0.045 0.787-0.089 0.433-0.072 0.855-0.126 1.292-0.139 0.29-0.008 0.58-0.057 0.867-0.103 0.354-0.057 0.712-0.128 1.071-0.13 0.335-0.001 0.661-0.021 0.995-0.043 0.252-0.015 0.502-0.084 0.755-0.093 0.21-0.008 0.421 0.001 0.631 0.001h1.056c0.323 0 0.662-0.035 0.984 0.005-0.21-0.022-0.407-0.124-0.616-0.158-0.129-0.021-0.255-0.031-0.384-0.030-0.227 0.003-0.455 0-0.681 0h-4.696c-0.2 0-0.425-0.036-0.621 0.009-0.12 0.027-0.214 0.080-0.34 0.084-0.104-0.006-0.209-0.004-0.313 0.006-0.108 0.027-0.218 0.052-0.326 0.073-0.252 0.041-0.502 0.101-0.755 0.139-0.183 0.028-0.366 0.031-0.542 0.099-0.263 0.099-0.54 0.201-0.812 0.267-0.093 0.023-0.166 0.070-0.258 0.094-0.075 0.022-0.144 0.017-0.22 0.043-0.135 0.046-0.246 0.14-0.371 0.215-0.076 0.045-0.17 0.088-0.236 0.151-0.034 0.032-0.049 0.079-0.086 0.108 0.019-0.001 0.039-0.003 0.058-0.004l-0.598 0.091c0.171 0 0.344-0.001 0.515 0.001z"></path>
<path d="M17.11 6.87c0.093 0 0.189-0.010 0.282 0.004 0.133 0.019 0.258 0.073 0.393 0.085 0.376 0.032 0.758-0.010 1.134 0.001 0.274 0.008 0.536 0.076 0.806 0.12 0.22 0.035 0.444 0.019 0.666 0.019s0.444 0 0.666 0c0.273 0 0.567-0.043 0.835-0.003 0.103 0.015 0.211 0.049 0.314 0.070 0.273 0.057 0.549 0.055 0.822 0.103 0.17 0.031 0.308 0.080 0.468 0.138-0.327-0.149-0.639-0.25-0.988-0.26-0.169-0.004-0.327-0.085-0.497-0.095-0.255-0.013-0.508-0.071-0.765-0.097-0.304-0.031-0.603-0.032-0.908-0.039-0.11-0.001-0.207-0.044-0.313-0.071-0.231-0.058-0.491-0.022-0.725-0.022-1.141 0-2.283 0-3.146 0.046 0.32 0 0.639 0 0.957 0z"></path>
<path d="M13.542 6.36c0.139-0.040 0.28-0.037 0.425-0.073 0.198-0.050 0.393-0.059 0.595-0.058 0.264 0 0.528 0 0.791 0h0.443c0.133 0 0.313 0.035 0.442-0.008-0.036-0.144-0.374-0.138-0.487-0.156-0.151-0.023-0.299-0.021-0.451-0.021-0.268 0.001-0.535 0.001-0.803 0-0.227-0.001-0.434 0.080-0.66 0.091-0.339 0.017-0.617 0.224-1.192 0.414 0.112 0 0.218-0.082 0.322-0.117 0.182-0.059 0.385-0.019 0.573-0.072z"></path>
</svg>
