<!-- Generated by IcoMoon.io -->
<svg version="1.1" xmlns="http://www.w3.org/2000/svg" width="32" height="32" viewBox="0 0 32 32">
<path d="M2.718 29.88c0-1.409 0.787-3.030 1.926-3.969 0.83-0.684 2.534-1.361 5.625-2.235 1.83-0.517 2.381-0.899 2.83-1.962 0.446-1.054 0.374-1.634-0.29-2.327-0.45-0.47-0.617-0.907-0.692-1.813-0.090-1.080-0.035-1.266 0.572-1.957 0.369-0.42 1.632-1.295 2.807-1.944s2.137-1.253 2.137-1.342c0-0.089-0.111-0.274-0.248-0.41-0.355-0.355-0.042-0.732 0.606-0.732 1.269 0 2.536 1.229 2.536 2.46 0 0.263-0.355 0.833-0.788 1.266-1.863 1.863-1.707 2.311 1.433 4.136 1.818 1.056 3.26 2.451 3.493 3.378 0.281 1.12-0.109 2.868-0.823 3.685-1.097 1.257-1.821 2.848-1.682 3.7 0.123 0.757-0.141 1.024-0.384 0.389-0.394-1.027 0.17-2.534 1.617-4.317 0.736-0.907 0.808-1.12 0.808-2.381 0-1.281-0.058-1.445-0.779-2.189-0.429-0.442-1.752-1.402-2.94-2.132-1.927-1.184-2.177-1.412-2.307-2.103-0.105-0.557-0.035-0.944 0.248-1.375 0.266-0.407 0.311-0.627 0.138-0.685-0.181-0.060-0.189-0.209-0.026-0.512 0.19-0.355 0.153-0.427-0.216-0.427-0.244 0-0.652 0.223-0.906 0.495-0.434 0.466-0.438 0.506-0.064 0.667 0.237 0.102 0.111 0.121-0.312 0.047-0.478-0.084-0.914 0.005-1.336 0.275-0.534 0.341-0.584 0.346-0.336 0.033 0.246-0.311 0.228-0.383-0.111-0.471-0.221-0.057 0.017-0.116 0.529-0.13 0.548-0.015 1.085-0.181 1.307-0.403 0.354-0.354 0.352-0.387-0.040-0.541-0.284-0.112-0.116-0.169 0.529-0.179 0.52-0.009 0.946-0.116 0.946-0.238s0.106-0.223 0.236-0.223c0.13 0 0.174 0.1 0.098 0.223s-0.031 0.223 0.1 0.223c0.157 0 0.145 0.148-0.034 0.435-0.149 0.239-0.201 0.506-0.115 0.592 0.201 0.201 0.999-0.514 1.167-1.046 0.184-0.578-0.485-1.744-1.144-1.995-0.761-0.289-0.754-0.293-0.757 0.399-0.003 0.545-0.229 0.73-2.059 1.688-2.45 1.282-3.247 1.927-3.508 2.838-0.23 0.801 0.009 1.549 0.791 2.478 0.59 0.702 0.694 1.546 0.313 2.553-0.45 1.19-1.253 1.771-3.174 2.295-2.758 0.752-4.773 1.545-5.515 2.169-0.953 0.802-1.759 2.508-1.759 3.724 0 0.555-0.1 1.009-0.223 1.009s-0.223-0.504-0.223-1.12zM15.492 30.174c0.083-0.148 0.024-0.474-0.132-0.723-0.389-0.624-1.958-0.617-3.044 0.013-0.706 0.409-0.74 0.414-0.279 0.035l0.527-0.432-1.223-0.040c-0.673-0.022-1.491 0.062-1.819 0.187-0.39 0.148-0.549 0.15-0.459 0.005 0.084-0.136-0.271-0.222-0.912-0.222h-1.049l0.513-0.445c0.606-0.526 0.837-0.583 0.445-0.111-0.243 0.293-0.014 0.334 1.865 0.334 1.563 0 2.143-0.075 2.145-0.278s0.055-0.197 0.195 0.025c0.276 0.436 3.733 0.271 4.061-0.194 0.198-0.281 0.216-0.274 0.114 0.045-0.093 0.29 0.043 0.397 0.591 0.465 0.469 0.059 0.311 0.101-0.465 0.124-1.123 0.034-1.165 0.057-0.925 0.505 0.191 0.356 0.184 0.53-0.025 0.723s-0.239 0.188-0.124-0.015zM8.616 29.887c0.076-0.122 0.182-0.223 0.236-0.223s0.098 0.1 0.098 0.223c0 0.122-0.106 0.223-0.236 0.223s-0.174-0.1-0.098-0.223zM18.811 29.812c-0.098-0.164-0.378-0.411-0.623-0.55-0.395-0.223-0.358-0.25 0.334-0.241 0.429 0.006 0.655 0.061 0.503 0.122-0.201 0.081-0.214 0.228-0.048 0.539 0.257 0.48 0.111 0.593-0.166 0.129zM4.721 29.678c0-0.115 0.099-0.271 0.22-0.345 0.126-0.078 0.163 0.011 0.087 0.209-0.148 0.386-0.308 0.456-0.308 0.136zM5.932 29.566c0.238-0.19 0.53-0.346 0.649-0.346 0.283 0 0.157 0.103-0.525 0.427-0.525 0.25-0.532 0.245-0.124-0.081zM20.525 29.234c0-0.114-0.275-0.25-0.612-0.301-0.57-0.086-0.562-0.095 0.111-0.126 0.509-0.023 0.723 0.065 0.723 0.301 0 0.184-0.050 0.334-0.111 0.334s-0.111-0.093-0.111-0.208zM5.113 28.839c0.277-0.053 0.678-0.051 0.89 0.004s-0.014 0.099-0.503 0.097-0.664-0.048-0.387-0.101zM19.687 27.884c0-0.429 0.046-0.604 0.102-0.39s0.056 0.565 0 0.779c-0.056 0.214-0.102 0.039-0.102-0.39zM4.944 27.563c0-0.176 0.091-0.377 0.202-0.446s0.149 0.076 0.085 0.321c-0.136 0.52-0.287 0.585-0.287 0.125zM18.182 27.049c0.143-0.488 0.103-0.501-1.51-0.501-1.213 0-1.733 0.091-1.939 0.339-0.155 0.187-0.335 0.286-0.401 0.22s0.074-0.265 0.31-0.443c0.389-0.295 0.288-0.325-1.103-0.332-1.161-0.005-1.727 0.106-2.337 0.46-0.763 0.443-0.776 0.444-0.256 0.018l0.55-0.449-0.772-0.093c-0.48-0.058-0.24-0.107 0.633-0.129 0.773-0.020 1.612-0.146 1.863-0.28 0.333-0.178 0.416-0.178 0.306 0-0.216 0.349 1.493 0.318 1.847-0.033 0.225-0.223 0.251-0.201 0.132 0.111-0.128 0.335-0.008 0.39 0.859 0.39 0.597 0 1.053-0.113 1.119-0.278 0.090-0.223 0.116-0.223 0.13 0 0.026 0.409 2.441 0.37 2.902-0.047 0.319-0.289 0.359-0.276 0.359 0.111 0 0.372-0.155 0.436-1.053 0.436-0.834 0-1.129 0.104-1.42 0.501l-0.367 0.501zM5.611 26.909c0-0.046 0.175-0.222 0.39-0.39 0.353-0.277 0.361-0.269 0.084 0.084-0.291 0.371-0.474 0.489-0.474 0.306zM7.949 26.771c0.076-0.122 0.238-0.223 0.36-0.223s0.161 0.1 0.085 0.223c-0.076 0.122-0.238 0.223-0.36 0.223s-0.161-0.1-0.085-0.223zM6.683 26.396c0.161-0.064 0.353-0.056 0.427 0.018s-0.058 0.127-0.292 0.117c-0.259-0.011-0.312-0.063-0.135-0.134zM7.949 26.326c-0.623-0.158-0.603-0.172 0.291-0.196 0.589-0.016 0.906 0.060 0.822 0.196-0.151 0.244-0.153 0.244-1.113 0zM21.664 25.157c-0.023-0.34-0.28-0.39-2.044-0.39-1.11 0-2.209 0.102-2.444 0.228-0.343 0.184-0.4 0.162-0.295-0.111 0.072-0.186 0.27-0.339 0.44-0.339s0.31-0.1 0.31-0.223c0-0.122 0.106-0.223 0.236-0.223s0.169 0.108 0.087 0.241c-0.099 0.161 0.174 0.228 0.822 0.202 1.529-0.061 4.139 0.053 3.6 0.158-0.268 0.052-0.532 0.264-0.586 0.471-0.090 0.341-0.102 0.34-0.125-0.014zM11.459 24.97c0.217-0.126 0.336-0.324 0.265-0.438-0.074-0.12 0.325-0.198 0.941-0.183l1.070 0.026-0.846 0.164c-0.465 0.090-0.961 0.279-1.102 0.42s-0.361 0.253-0.489 0.249c-0.129-0.004-0.056-0.11 0.161-0.236zM13.847 24.664c0-0.057 0.212-0.217 0.472-0.356 0.291-0.156 0.417-0.164 0.33-0.022-0.084 0.136 0.157 0.267 0.585 0.32 0.564 0.070 0.49 0.098-0.33 0.126-0.582 0.020-1.057-0.011-1.057-0.068zM20.080 24.235c0-0.048 0.15-0.145 0.334-0.216s0.334-0.031 0.334 0.087c0 0.119-0.15 0.216-0.334 0.216s-0.334-0.039-0.334-0.087zM16.857 23.446c-0.075-0.237-0.307-0.476-0.516-0.531s0.053-0.111 0.58-0.126c0.704-0.019 0.915-0.1 0.792-0.304-0.129-0.215-0.094-0.22 0.154-0.023 0.177 0.141 0.962 0.264 1.745 0.274s1.476 0.070 1.54 0.134c0.064 0.064-0.248 0.116-0.693 0.116-0.668 0-0.788 0.068-0.688 0.39 0.115 0.371 0.109 0.371-0.129 0-0.189-0.294-0.553-0.39-1.479-0.39-1.127 0-1.217 0.037-1.087 0.445 0.078 0.245 0.091 0.445 0.030 0.445s-0.173-0.194-0.248-0.431zM14.685 23.052c0.277-0.053 0.678-0.051 0.89 0.005s-0.014 0.099-0.503 0.097c-0.49-0.002-0.664-0.048-0.387-0.101zM21.623 22.857c-0.367-0.442-0.202-0.519 0.418-0.195 0.398 0.208 0.439 0.296 0.183 0.395-0.182 0.070-0.452-0.020-0.601-0.199zM19.265 21.748c-0.114-0.298-0.506-0.331-2.72-0.228-1.444 0.067-2.34 0.041-2.030-0.060 0.306-0.099 0.957-0.131 1.447-0.070 0.81 0.1 0.863 0.077 0.585-0.26-0.18-0.218-0.208-0.37-0.069-0.37 0.13 0 0.296 0.096 0.369 0.214s0.771 0.203 1.552 0.19c1.194-0.020 1.402-0.081 1.309-0.381-0.091-0.296-0.055-0.291 0.211 0.033 0.199 0.242 0.65 0.396 1.187 0.407 0.476 0.010 0.716 0.075 0.532 0.145s-0.407 0.237-0.497 0.372c-0.113 0.169-0.165 0.159-0.167-0.033-0.002-0.171-0.314-0.278-0.806-0.278-0.622 0-0.774 0.075-0.675 0.334 0.070 0.184 0.078 0.334 0.017 0.334s-0.171-0.157-0.245-0.348zM16.63 20.075c-0.735-0.071-1.185-0.153-1.002-0.183 0.244-0.039 0.214-0.105-0.111-0.244-0.429-0.184-0.428-0.192 0.043-0.207 0.268-0.009 0.55 0.085 0.625 0.207s0.338 0.223 0.583 0.223c0.267 0 0.385-0.098 0.294-0.245-0.103-0.166 0.004-0.161 0.335 0.016 0.268 0.143 0.806 0.239 1.195 0.212 1.152-0.078 2.241 0.006 2.086 0.161-0.19 0.19-2.374 0.223-4.048 0.060zM14.582 19.346c-0.098-0.166-0.328-0.358-0.512-0.428-0.276-0.105-0.27-0.129 0.035-0.144 0.258-0.012 0.341-0.167 0.276-0.518-0.052-0.283-0.029-0.355 0.054-0.167 0.081 0.184 0.254 0.403 0.384 0.488 0.332 0.216 2.392 0.177 2.256-0.043-0.061-0.099 0.132-0.066 0.429 0.075s0.505 0.29 0.462 0.333c-0.043 0.043-0.783 0.072-1.644 0.064-1.292-0.012-1.544 0.043-1.44 0.314 0.158 0.412-0.061 0.431-0.3 0.027zM14.96 17.822c0-0.127-0.341-0.186-0.779-0.135-0.906 0.106-0.97-0.033-0.282-0.62 0.445-0.38 0.464-0.381 0.182-0.019-0.294 0.378-0.258 0.401 0.54 0.334 0.611-0.051 0.871-0.183 0.911-0.461 0.041-0.284-0.104-0.394-0.537-0.405-0.326-0.009-0.793-0.1-1.038-0.202-0.319-0.134-0.193-0.167 0.445-0.118 0.49 0.038 1.078 0.078 1.307 0.091 0.362 0.020 0.377 0.071 0.111 0.391-0.309 0.373-0.302 0.541 0.033 0.748 0.101 0.063-0.058 0.229-0.355 0.369-0.346 0.163-0.54 0.174-0.54 0.029zM16.477 17.715c0.161-0.064 0.353-0.056 0.427 0.018s-0.058 0.127-0.292 0.117c-0.259-0.011-0.312-0.063-0.134-0.134zM16.738 16.319c0.304-0.234 0.605-0.368 0.668-0.298s-0.011 0.171-0.165 0.226c-0.154 0.055-0.223 0.191-0.154 0.303s-0.105 0.201-0.388 0.199l-0.514-0.005zM18.689 12.822c0.153-0.062 0.403-0.062 0.556 0s0.028 0.112-0.278 0.112c-0.306 0-0.431-0.051-0.278-0.112zM20.277 11.467c0.484-0.888 1.798-1.85 3.402-2.491 1.457-0.582 1.997-0.681 3.695-0.681 1.952 0 3.391 0.293 3.391 0.69 0 0.28-0.245 0.253-1.363-0.152-2.253-0.816-6.342 0.294-8.196 2.225-0.816 0.85-1.28 1.054-0.928 0.409zM14.498 10.727c-2.019-1.513-5.342-3.273-6.92-3.666-1.655-0.412-2.935-0.259-4.818 0.574-0.979 0.433-1.455 0.427-1.015-0.013 0.121-0.121 0.816-0.439 1.543-0.705 1.638-0.6 3.78-0.634 5.329-0.085 2.155 0.764 7.596 4.284 7.217 4.669-0.071 0.072-0.672-0.276-1.336-0.774zM23.772 7.015c-3.553-2.936-5.781-3.829-8.786-3.522-1.77 0.181-3.334 0.816-4.872 1.975-1.333 1.005-1.868 0.942-0.704-0.082 1.354-1.192 3.611-2.158 5.44-2.33 2.617-0.245 4.534 0.283 6.946 1.912 2.493 1.684 3.872 2.862 3.362 2.873-0.207 0.005-0.83-0.367-1.386-0.826z"></path>
</svg>
