<!-- Generated by IcoMoon.io -->
<svg version="1.1" xmlns="http://www.w3.org/2000/svg" width="32" height="32" viewBox="0 0 32 32">
<path d="M25.927 19.362c-0.028 0.192-0.148 0.375-0.168 0.56 0.139 0.094 0.296 0.114 0.365 0.078 0.068-0.036 0.077-0.074 0.129-0.121 0.138-0.124 0.276-0.249 0.398-0.381 0.082-0.090 0.18-0.196 0.242-0.303 0.041-0.070 0.030-0.101 0.088-0.163 0.031-0.034 0.075-0.057 0.105-0.088 0.117-0.122 0.271-0.188 0.426-0.277 0.202-0.118 0.416-0.078 0.635-0.027 0.136 0.033 0.203 0.092 0.323 0.152 0.148 0.074 0.344 0.061 0.472 0.178 0.085 0.078 0.067 0.104 0.195 0.109 0.060 0.001 0.121-0.001 0.18-0.001 0.141-0.001 0.281-0.004 0.423-0.001 0.395 0.009 0.458-0.408 0.271-0.702-0.259-0.409-0.32-0.929-0.584-1.347-0.122-0.193-0.323-0.362-0.475-0.531-0.094-0.104-0.145-0.217-0.223-0.334-0.156-0.23-0.325-0.46-0.448-0.715-0.193-0.398-0.523-0.644-0.787-0.982-0.2-0.254-0.45-0.502-0.725-0.681-0.253-0.168-0.49-0.269-0.769-0.135-0.111 0.054-0.105-0.004-0.166 0.146-0.058 0.146-0.078 0.24-0.077 0.395 0.001 0.261-0.034 0.54 0.045 0.784 0.041 0.126 0.050 0.233 0.072 0.358 0.014 0.085 0.058 0.162 0.067 0.247 0.007 0.080-0.009 0.144 0.010 0.226 0.126 0.553 0.107 1.124 0.107 1.702 0 0.409 0.065 0.871-0.013 1.272-0.038 0.196-0.092 0.382-0.121 0.581z"></path>
<path d="M10.62 2.414c0.151 0.038 0.314 0.044 0.465 0.085 0.121 0.034 0.225 0.099 0.351 0.128 0.092 0.020 0.198 0.030 0.286 0.068 0.074 0.033 0.125 0.099 0.202 0.128 0.063 0.023 0.126 0.023 0.19 0.041 0.132 0.038 0.266 0.067 0.402 0.119 0.152 0.060 0.297 0.162 0.449 0.215 0.107 0.037 0.203 0.018 0.31 0.070 0.094 0.044 0.196 0.135 0.29 0.188 0.122 0.070 0.247 0.107 0.375 0.163 0.33 0.146 0.658 0.287 0.965 0.485 0.28 0.179 0.594 0.323 0.845 0.544 0.271 0.237 0.524 0.548 0.841 0.722 0.254 0.138 0.311 0.327 0.477 0.553 0.091 0.125 0.212 0.23 0.293 0.365 0.085 0.141 0.159 0.283 0.252 0.419 0.166 0.25 0.352 0.493 0.558 0.706 0.114 0.118 0.144 0.247 0.227 0.369 0.099 0.145 0.23 0.304 0.362 0.435 0.239 0.233 0.446 0.48 0.651 0.742 0.166 0.21 0.358 0.392 0.496 0.614 0.078 0.125 0.138 0.216 0.24 0.318 0.088 0.087 0.183 0.169 0.256 0.264 0.078 0.104 0.118 0.234 0.213 0.331 0.090 0.092 0.186 0.112 0.29 0.188 0.169 0.124 0.3 0.298 0.479 0.409 0.196 0.124 0.378 0.274 0.581 0.389 0.234 0.132 0.435 0.284 0.662 0.429 0.306 0.198 0.514 0.465 0.765 0.723 0.21 0.217 0.527 0.267 0.797 0.404 0.105 0.053 0.206 0.080 0.298 0.148 0.122 0.089 0.22 0.242 0.848-0.011-0.016-0.075-0.169-0.209-0.24-0.257-0.124-0.085-0.222-0.172-0.364-0.24-0.159-0.080-0.307-0.175-0.469-0.243-0.085-0.037-0.139-0.081-0.219-0.128-0.121-0.070-0.271-0.075-0.394-0.145-0.098-0.054-0.199-0.139-0.293-0.207-0.054-0.038-0.107-0.095-0.165-0.136-0.067-0.048-0.119-0.097-0.179-0.152-0.199-0.183-0.46-0.304-0.657-0.483-0.239-0.219-0.547-0.354-0.757-0.604-0.105-0.125-0.176-0.22-0.306-0.314-0.142-0.101-0.254-0.244-0.362-0.378-0.090-0.111-0.182-0.222-0.271-0.333-0.108-0.134-0.195-0.26-0.301-0.399-0.108-0.141-0.19-0.313-0.301-0.446-0.097-0.117-0.213-0.209-0.32-0.313-0.098-0.098-0.193-0.207-0.277-0.32-0.080-0.107-0.188-0.192-0.263-0.298-0.045-0.063-0.075-0.146-0.121-0.213-0.063-0.098-0.152-0.169-0.216-0.264-0.097-0.141-0.129-0.313-0.205-0.463-0.070-0.138-0.195-0.256-0.261-0.395-0.045-0.098-0.054-0.17-0.118-0.253-0.047-0.063-0.087-0.122-0.132-0.193-0.094-0.146-0.236-0.286-0.348-0.419-0.126-0.149-0.237-0.281-0.358-0.425-0.070-0.085-0.193-0.138-0.277-0.212-0.101-0.090-0.207-0.136-0.32-0.21-0.188-0.125-0.293-0.286-0.497-0.379-0.267-0.119-0.503-0.29-0.722-0.469-0.244-0.2-0.601-0.34-0.904-0.412-0.369-0.087-0.702-0.314-1.056-0.436-0.104-0.036-0.195-0.097-0.294-0.139-0.105-0.044-0.229-0.063-0.342-0.088-0.165-0.037-0.34-0.064-0.493-0.141-0.317-0.159-0.651-0.259-1.013-0.29s-0.735-0.088-1.089-0.166c-0.037-0.009-0.074-0.011-0.112-0.013 0.135 0 0.27 0.001 0.404 0 0.178-0.001 0.323 0.045 0.493 0.058 0.112 0.009 0.199 0.045 0.307 0.065 0.078 0.014 0.156-0.009 0.236 0.009 0.109 0.024 0.205 0.095 0.317 0.112 0.134 0.020 0.274 0.006 0.411 0.027 0.242 0.037 0.476 0.043 0.709 0.088 0.119 0.024 0.207 0.061 0.331 0.064 0.122 0.003 0.223 0 0.342 0.028 0.232 0.054 0.465 0.007 0.701 0.043 0.149 0.021 0.287 0.080 0.433 0.108 0.068-0.014 0.135-0.004 0.198 0.028 0.067 0.053 0.144 0.082 0.227 0.090 0.104-0.186-0.325-0.223-0.408-0.236-0.145-0.021-0.303-0.128-0.436-0.183-0.384-0.161-0.787-0.107-1.192-0.173-0.139-0.023-0.283-0.060-0.422-0.070-0.082 0.009-0.162 0.006-0.243-0.009-0.078-0.030-0.156-0.063-0.232-0.101-0.19-0.040-0.404-0.057-0.598-0.070-0.487-0.034-0.963-0.182-1.764 0.121h0.091c-0.098 0.003-0.198 0.013-0.296 0.001-0.1-0.010-0.202-0.047-0.301-0.070-0.169-0.038-0.314-0.055-0.496-0.053 0.344 0.001 0.669 0.104 1.003 0.195 0.162 0.043 0.323 0.112 0.483 0.153z"></path>
<path d="M2.246 13.119c-0.168-0.037-1.114-0.333-1.103-0.009 0.001 0.028 0.072 0.115 0.084 0.152 0.004 0.014-0.013 0.094-0.011 0.109 0 0.020 0.036 0.048 0.034 0.080-0.006 0.139-0.072 0.169 0.095 0.259 0.296 0.156 0.632 0.215 0.954 0.286 0.327 0.071 0.664 0.129 0.988 0.216 0.263 0.072 0.499 0.223 0.746 0.338 0.203 0.095 0.374 0.253 0.588 0.331s0.398 0.216 0.604 0.334c0.185 0.107 0.371 0.185 0.561 0.277 0.104 0.051 0.169 0.136 0.267 0.188s0.19 0.080 0.288 0.136c0.563 0.321 1.103 0.685 1.619 1.083 0.176 0.135 0.352 0.298 0.516 0.452 0.195 0.183 0.385 0.378 0.537 0.598 0.091 0.132 0.097 0.284 0.145 0.432 0.054 0.169 0.149 0.304 0.23 0.456 0.038 0.074 0.058 0.158 0.102 0.227 0.091 0.144 0.236 0.267 0.342 0.401 0.209 0.263 0.33 0.578 0.523 0.85 0.078 0.109 0.132 0.229 0.239 0.32 0.043 0.037 0.163 0.126 0.814-0.055-0.122 0.004-0.29-0.267-0.321-0.377-0.037-0.134-0.023-0.298-0.051-0.446-0.031-0.159-0.074-0.344-0.138-0.496-0.033-0.077-0.092-0.124-0.114-0.206-0.026-0.101 0.037-0.178 0.023-0.276-0.014-0.104-0.072-0.182-0.080-0.296-0.004-0.092 0.001-0.148 0.023-0.239 0.050-0.21 0.071-0.399 0.183-0.58 0.094-0.156 0.217-0.284-0.007-0.342-0.196-0.050-0.395-0.087-0.591-0.131-0.097-0.021-0.195-0.040-0.291-0.063-0.109-0.027-0.098-0.047-0.178-0.102-0.173-0.121-0.372-0.144-0.551-0.253-0.374-0.229-0.817-0.442-1.127-0.759-0.121-0.124-0.257-0.215-0.395-0.327-0.070-0.055-0.136-0.118-0.209-0.171-0.081-0.060-0.166-0.077-0.249-0.129-0.372-0.236-0.624-0.61-0.981-0.868-0.182-0.132-0.421-0.173-0.581-0.313-0.082-0.071-0.115-0.087-0.222-0.111-0.145-0.033-0.249-0.107-0.387-0.151-0.571-0.183-1.108-0.426-1.698-0.557-0.406-0.089-0.814-0.18-1.222-0.27z"></path>
<path d="M3.922 6.047c0.135-0.001 0.291 0.020 0.422-0.013 0.149-0.040 0.267-0.036 0.422-0.047 0.148-0.010 0.31-0.065 0.436-0.107 0.156-0.050 0.311-0.102 0.469-0.151 0.149-0.045 0.213-0.098 0.317-0.21 0.179-0.198 0.35-0.399 0.347-0.679-0.001-0.139 0.017-0.801-0.209-0.789 0.098-0.021 0.203-0.117 0.281-0.159 0.072-0.038 0.151-0.088 0.216-0.136 0.099-0.075 0.128-0.163 0.203-0.244 0.070-0.075 0.195-0.099 0.281-0.149 0.099-0.058 0.195-0.128 0.303-0.169 0.126-0.048 0.287-0.072 0.432-0.118 0.161-0.048 0.254-0.151 0.423-0.165 0.384-0.036 0.696-0.234 1.086-0.242-0.001-0.107-0.058-0.144-0.119-0.18-0.085-0.048-0.087-0.081-0.158-0.146-0.121-0.111-0.266-0.097-0.418-0.095-0.31 0.001-0.571 0.078-0.846 0.209-0.293 0.141-0.568 0.325-0.848 0.489-0.151 0.088-0.303 0.169-0.422 0.287-0.080 0.080-0.135 0.145-0.203 0.236-0.078 0.105-0.192 0.159-0.271 0.257-0.088 0.107-0.179 0.334 0.019 0.334-0.503 0.189-0.612 0.148-0.774 0.175-0.17 0.030-0.317 0.162-0.483 0.188-0.338 0.053-0.684 0.156-0.858 0.463-0.060 0.104-0.193 0.244-0.223 0.352-0.021 0.075-0.006 0.169-0.018 0.249-0.021 0.135-0.051 0.243-0.045 0.385 0 0.036-0.023 0.136 0.009 0.168 0.037 0.037 0.182 0.009 0.232 0.009z"></path>
<path d="M26.725 20.947c0.007 0 0.014 0 0.020 0 0.017-0.004 0.034-0.009 0.053-0.014z"></path>
<path d="M26.797 20.933l0.23-0.045c-0.070-0.013-0.153 0.020-0.23 0.045z"></path>
<path d="M30.317 19.796c-0.058-0.010-0.112 0.040-0.163 0.053-0.078 0.018-0.152 0.007-0.232 0.010-0.166 0.006-0.271 0.109-0.423 0.156-0.102 0.033-0.193 0.027-0.301 0.027l-0.24 0.182c0.003 0.016 0.006 0.033 0.010 0.050 0.212 0.028 0.21 0.118 0.328 0.28 0.105 0.144 0.166 0.335 0.257 0.492 0.010 0.016 0.017 0.037 0.026 0.057l-0.078 0.026c0.016 0.004 0.033 0.007 0.050 0.011 0.094 0.277-0.001 0.762-0.254 0.902-0.182 0.101-0.173-0.036-0.247-0.189-0.060-0.128-0.159-0.237-0.227-0.36-0.091-0.163-0.144-0.263-0.286-0.378-0.124-0.099-0.166-0.247-0.287-0.364-0.081-0.075-0.075-0.102-0.196-0.107-0.105-0.004-0.18 0.013-0.274 0.054-0.124 0.055-0.317 0.090-0.423 0.183-0.084-0.037-0.253 0.040-0.314 0.053-0.098 0.020-0.196 0.014-0.296 0.013-0.009 0.003-0.017 0.006-0.026 0.007-0.107 0.021-0.223 0.034-0.327 0.060-0.162 0.038-0.473 0.075-0.587 0.178 0.146-0.006 0.237 0.053 0.377 0.060 0.115 0.006 0.23-0.030 0.331 0.030 0.267 0.156 0.243 0.385 0.333 0.632 0.067 0.182 0.036 0.352 0.072 0.539 0.013 0.061 0.077 0.166 0.095 0.244 0.013 0.054 0.016 0.105 0.028 0.153-0.045 0.151-0.081 0.254-0.107 0.34 0.044-0.040 0.082-0.085 0.094-0.128 0.017-0.055-0.004-0.124 0.011-0.183 0.001-0.007 0.003-0.011 0.004-0.016 0.009 0.026 0.020 0.053 0.041 0.077 0.095 0.111 0.084 0.048 0.119-0.061 0.075-0.225 0.122-0.394 0.122-0.634 0-0.222-0.006-0.443 0-0.664 0.003-0.128 0.051-0.239 0.063-0.365 0.004-0.036 0.016-0.142 0.011-0.223 0.121 0.075 0.362 0.077 0.463 0.094 0.108 0.017 0.206 0.037 0.314 0.044 0.047 0.001 0.098-0.016 0.142 0.003 0.142 0.058 0.162 0.232 0.212 0.355 0.077 0.188 0.131 0.388 0.21 0.574 0.040 0.091 0.109 0.156 0.156 0.242 0.038 0.071 0.043 0.175 0.099 0.229 0.098 0.091 0.313 0.038 0.441 0.043 0.152 0.004 0.156-0.004 0.212-0.142 0.036-0.087 0.080-0.168 0.121-0.25 0.115-0.229 0.192-0.439 0.213-0.701 0.003-0.023 0.001-0.050 0-0.078 0.020-0.016 0.040-0.034 0.058-0.054v1.386c0 0.176-0.001 0.352 0 0.529 0 0.102 0.020 0.22-0.013 0.32-0.023 0.070-0.078 0.125-0.109 0.19-0.047 0.095-0.060 0.19-0.101 0.287-0.048 0.109-0.128 0.2-0.186 0.304-0.099 0.178-0.222 0.345-0.318 0.529-0.053 0.099-0.288 0.934-0.507 0.797-0.057-0.036-0.034-0.118-0.033-0.18 0.003-0.098-0.023-0.126-0.045-0.21-0.037-0.138-0.090-0.264-0.134-0.392-0.028-0.082-0.085-0.161-0.111-0.243-0.023-0.081-0.004-0.159-0.024-0.24-0.040-0.152-0.045-0.304-0.101-0.453-0.027-0.074-0.054-0.149-0.070-0.226 0.010-0.053 0.007-0.105-0.010-0.156-0.027-0.017-0.048-0.038-0.065-0.067-0.090-0.189-0.158-0.399-0.24-0.594-0.153-0.36-0.304-0.692-0.517-1.009-0.057 0.149-0.010 0.388-0.010 0.551 0 0.175-0.016 0.358 0.014 0.529 0.067 0.396 0.117 0.79 0.288 1.152 0.080 0.168 0.053 0.337 0.119 0.513s0.182 0.342 0.237 0.517c0.053 0.168 0.074 0.341 0.139 0.506 0.037 0.092 0.094 0.176 0.132 0.267 0.038 0.088 0.044 0.193 0.065 0.281 0.028 0.115 0.072 0.246 0.105 0.372 0.037 0.146 0.053 0.421 0.225 0.399 0.102-0.013 0.35-0.256 0.399-0.334 0.050-0.080 0.058-0.173 0.097-0.257 0.058-0.128 0.175-0.237 0.219-0.368 0.027-0.078 0.043-0.156 0.071-0.236 0.038-0.104 0.047-0.233 0.097-0.328 0.044-0.085 0.058-0.128 0.082-0.215 0.030-0.102 0.048-0.205 0.078-0.307 0.099-0.348 0.206-0.743 0.227-1.106 0.007-0.098 0.010-0.193 0.028-0.28 0.017-0.080 0.020-0.178 0.036-0.27 0.037-0.219 0.055-0.408 0.055-0.635 0-0.199-0.001-0.399 0-0.6 0-0.183-0.041-0.333-0.081-0.77 0.014-0.018 0.027-0.036 0.037-0.053 0.064-0.105 0.041-0.21 0.043-0.33 0.001-0.114 0.045-0.18 0.064-0.29 0.020-0.112-0.017-0.209 0.026-0.318 0.041-0.109 0.112-0.202 0.141-0.318 0.027-0.112 0.041-0.179-0.075-0.199z"></path>
<path d="M5.453 15.273c0.159 0.063 0.313 0.145 0.476 0.186 0.303 0.075 0.593 0.225 0.887 0.334 0.28 0.105 0.634 0.252 0.881 0.414 0.274 0.182 0.507 0.418 0.747 0.638 0.185 0.168 0.384 0.337 0.593 0.47 0.28 0.18 0.537 0.372 0.797 0.578 0.119 0.094 0.247 0.169 0.377 0.249 0.095 0.057 0.162 0.129 0.24 0.196 0.078 0.065 0.188 0.102 0.26 0.169 0.091 0.082 0.158 0.24 0.236 0.341 0.081 0.105 0.185 0.169 0.261 0.274 0.088 0.118 0.162 0.217 0.281 0.315 0.249 0.203 0.509 0.398 0.743 0.618 0.057 0.054 0.161 0.128 0.193 0.195 0.036 0.074 0.023 0.192 0.063 0.277 0.040 0.084 0.050 0.111 0.058 0.21 0.017 0.215 0.132 0.404 0.186 0.612 0.061 0.239 0.145 0.453 0.206 0.689 0.064 0.244 0.183 0.48 0.364 0.657 0.188 0.182 0.239 0.402 0.391 0.603 0.141 0.186 0.209 0.392 0.35 0.573 0.2 0.259 0.391 0.988 0.811 0.938 0.253-0.028 0.466-0.212 0.607-0.411 0.168-0.24 0.104-0.571-0.439-0.617-0.264 0-0.431 0.026-0.618-0.178-0.128-0.139-0.074-0.22-0.102-0.384-0.011-0.065-0.038-0.148-0.063-0.207-0.034-0.088-0.108-0.165-0.126-0.257-0.040-0.2-0.058-0.404-0.055-0.617 0.001-0.244-0.092-0.544-0.182-0.77-0.085-0.217 0.006-0.495-0.104-0.681-0.048-0.082-0.145-0.145-0.215-0.209-0.088-0.081-0.107-0.162-0.162-0.26-0.048-0.085-0.121-0.139-0.168-0.239-0.057-0.118-0.134-0.2-0.196-0.298-0.034-0.053 0.003-0.061-0.055-0.126-0.045-0.050-0.121-0.070-0.172-0.117-0.098-0.087-0.151-0.163-0.27-0.227-0.222-0.117-0.477-0.195-0.696-0.331-0.226-0.142-0.453-0.277-0.666-0.439-0.303-0.233-0.612-0.441-0.915-0.661-0.134-0.098-0.284-0.25-0.377-0.391-0.136-0.207-0.276-0.384-0.453-0.561-0.114-0.114-0.233-0.206-0.36-0.301-0.1-0.072-0.213-0.107-0.32-0.165-0.102-0.058-0.195-0.141-0.3-0.199-0.206-0.112-0.399-0.22-0.603-0.33-0.121-0.065-0.246-0.138-0.368-0.196-0.057-0.027-0.117-0.045-0.173-0.074-0.055-0.043-0.117-0.075-0.183-0.097-0.063-0.014-0.125-0.017-0.189-0.009-0.118-0.037-0.223-0.138-0.35-0.171-0.097-0.026-0.205-0.021-0.304-0.043-0.075-0.017-0.178-0.006-0.246-0.027-0.105-0.033-0.212-0.085-0.328-0.111-0.088-0.018-0.172-0.006-0.26-0.026-0.094-0.023-0.148-0.080-0.247-0.038-0.026 0.149 0.159 0.19 0.257 0.229z"></path>
<path d="M16.936 26.255c0.195 0.294 0.422 0.016 0.597-0.144 0.119-0.108 0.368-0.263 0.374-0.442-0.078 0.085-0.090 0.18-0.185 0.27-0.091 0.084-0.155 0.136-0.287 0.138-0.25 0.003-0.304-0.405-0.301-0.607 0.003-0.225 0.044-0.503 0.003-0.723-0.027-0.152-0.092-0.303-0.118-0.453-0.010-0.058 0.010-0.125-0.003-0.182-0.013-0.053-0.045-0.080-0.057-0.124-0.080-0.287-0.2-0.577-0.25-0.87-0.010-0.058 0.020-0.126 0.006-0.185-0.013-0.054-0.053-0.060-0.067-0.112-0.033-0.126 0.006-0.297 0.003-0.428-0.004-0.242-0.087-0.55-0.301-0.688-0.094-0.063-0.229-0.071-0.33-0.129-0.101-0.060-0.149-0.132-0.273-0.152-0.038-0.006-0.081-0.004-0.122-0.001-0.027-0.058-0.051-0.118-0.060-0.175 0.301-0.061-0.030-0.129-0.172 0.010-0.050 0.051-0.165 0.219-0.192 0.288-0.084 0.222-0.058 0.487-0.058 0.728 0 0.253 0 0.506 0 0.759 0 0.277 0.075 0.485 0.136 0.746 0.125-0.047 0.166-0.422 0.165-0.544-0.003-0.223 0.048-0.414 0.058-0.635 0.010-0.254 0.246-0.416 0.243-0.688 0-0.031 0-0.058-0.001-0.084 0.247 0.422 0.426 0.762 0.531 0.935 0.067 0.108 0.057 0.138 0.080 0.264 0.017 0.097 0.082 0.203 0.102 0.286 0.058 0.242 0.179 0.522 0.195 0.77 0.016 0.239-0.001 0.485-0.001 0.725 0 0.523-0.010 1.002 0.286 1.447z"></path>
<path d="M20.449 23.057c-0.037-0.095-0.016-0.114-0.129-0.163-0.125-0.053-0.247-0.071-0.378-0.107-0.183-0.050-0.344-0.162-0.529-0.229-0.080-0.028-0.152-0.026-0.232-0.048-0.074-0.021-0.117-0.064-0.179-0.102-0.044-0.026-0.082-0.041-0.121-0.054 0-0.007 0.001-0.014 0.001-0.023-0.001-0.159 0-0.32 0-0.479-0.301-0.016-0.426 0.047-0.544 0.060-0.084 0.010-0.19 0.024-0.266 0.068-0.169 0.095-0.232 0.22-0.217 0.415 0.013 0.186 0.101 0.358 0.122 0.543 0.010 0.097 0.053 0.176 0.063 0.271 0.006 0.050-0.017 0.105-0.006 0.153 0.007 0.033 0.044 0.048 0.050 0.071 0.048 0.168 0.014 0.384 0.014 0.56 0 0.182-0.001 0.365 0 0.549 0.003 0.266-0.149 0.49-0.185 0.752-0.013 0.098-0.031 0.171-0.053 0.269-0.016 0.074 0.020 0.156-0.037 0.219 0.074-0.101 0.114-0.256 0.166-0.369 0.071-0.151 0.168-0.28 0.244-0.421 0.040-0.070 0.067-0.168 0.090-0.244 0.030-0.097 0.094-0.153 0.125-0.24 0.023-0.063 0.038-0.139 0.055-0.195 0.023-0.070 0.051-0.134 0.075-0.202 0.070-0.196 0.117-0.426 0.168-0.628 0.026-0.102 0-0.203 0.027-0.306 0.027-0.099 0.050-0.142 0.047-0.252-0.001-0.072 0.007-0.139 0.016-0.205 0.129 0.271 0.279 0.379 0.406 0.443 0.105 0.053 0.209 0.107 0.317 0.151 0.148 0.060 0.183 0.097 0.273 0.23 0.094 0.138 0.179 0.34 0.198 0.509 0.023 0.219 0.092 0.416 0.121 0.637 0.016 0.117-0.010 0.243-0.004 0.361 0.006 0.126 0.048 0.236 0.063 0.361 0.017 0.179 0.036 0.357 0.206 0.429 0.18 0.077 0.239 0.038 0.367-0.098 0.080-0.084 0.178-0.146 0.257-0.225 0.094-0.092 0.334-0.385 0.338-0.51-0.195 0.128-0.263 0.159-0.504 0.161-0.202 0.003-0.281-0.108-0.304-0.3-0.044-0.391 0.003-0.813 0.001-1.208 0-0.223-0.041-0.396-0.122-0.604z"></path>
<path d="M25.217 24.378c-0.107 0.033-0.136-0.037-0.195-0.109-0.090-0.114-0.111-0.161-0.107-0.306 0.003-0.104-0.011-0.243-0.065-0.334-0.057-0.095-0.159-0.097-0.261-0.148-0.067-0.034-0.125-0.087-0.192-0.121-0.099-0.053-0.237-0.061-0.327-0.131-0.107-0.080-0.099-0.21-0.163-0.308-0.065-0.097-0.171-0.119-0.26-0.178-0.125-0.084-0.222-0.193-0.35-0.277-0.097-0.061-0.132-0.198-0.219-0.244-0.080-0.043-0.276-0.009-0.367-0.009-0.111 0-0.325-0.030-0.502-0.020-0.053-0.051-0.107-0.092-0.192-0.105-0.109-0.017-0.192-0.014-0.3-0.043-0.281-0.072-0.638-0.013-0.928-0.013-0.254 0-0.507 0-0.701 0.060 0.171-0.004 0.314 0.057 0.482 0.061 0.156 0.003 0.313 0 0.468 0 0.166 0 0.333 0.001 0.499 0 0.057 0 0.129-0.016 0.183-0.003 0.064 0.013 0.092 0.070 0.166 0.075-0.001 0.094 0.063 0.081 0.097 0.144 0.034 0.064 0.033 0.098 0.037 0.173 0.003 0.088-0.020 0.189-0.004 0.276 0.014 0.080 0.057 0.142 0.067 0.226 0.013 0.121-0.003 0.253-0.003 0.375 0 0.129 0.026 0.294-0.006 0.418-0.077 0.297-0.233 0.54-0.404 0.793-0.071 0.105-0.372 0.476-0.307 0.594 0.111 0.011 0.222-0.169 0.293-0.237 0.094-0.088 0.159-0.136 0.227-0.242 0.155-0.242 0.317-0.483 0.439-0.746 0.057-0.128 0.080-0.244 0.118-0.372 0.027-0.088 0.057-0.139 0.061-0.237 0.009-0.21-0.003-0.422 0-0.634 0-0.078-0.017-0.151-0.043-0.219 0.102 0.064 0.145 0.101 0.19 0.129 0.091 0.055 0.192 0.080 0.274 0.149 0.082 0.067 0.051 0.087 0.156 0.117 0.082 0.024 0.136 0.021 0.21 0.064 0.102 0.060 0.153 0.161 0.234 0.244 0.165 0.168 0.409 0.178 0.576 0.325 0.121 0.107 0.156 0.232 0.216 0.367 0.043 0.095 0.115 0.185 0.175 0.273 0.054 0.078 0.138 0.165 0.171 0.254 0.041 0.119 0 0.148 0.118 0.229 0.171 0.117 0.384 0.080 0.53-0.092 0.121-0.141 0.099-0.342 0.091-0.53 0 0 0 0.003-0.001 0.004-0.013 0.090-0.082 0.276-0.183 0.307z"></path>
<path d="M26.453 23.3c-0.162 0-0.31 0.044-0.334-0.151-0.030-0.236 0.021-0.476-0.132-0.681-0.055-0.074-0.107-0.126-0.151-0.207-0.071-0.131-0.105-0.253-0.199-0.374-0.159-0.203-0.368-0.308-0.603-0.414-0.024-0.011-0.045-0.020-0.065-0.027 0-0.003-0.001-0.006-0.001-0.009-0.182-0.048-0.46-0.027-0.627 0.051-0.189 0.090-0.286 0.243-0.452 0.362l-0.301 0.121c0.142 0.003 0.226 0.040 0.361 0.064 0.144 0.026 0.264-0.013 0.409 0.040 0.226 0.084 0.325 0.246 0.438 0.442 0.102 0.182 0.216 0.371 0.307 0.563 0.045 0.097 0.162 0.286 0.294 0.388v0.493c0 0.034 0.001 0.068 0.003 0.104 0.027-0.188 0.010-0.395 0.001-0.594 0.054 0.040 0.111 0.067 0.168 0.065 0.065-0.161-0.084-0.337-0.115-0.476-0.014-0.063-0.020-0.122-0.031-0.182 0.156 0.198 0.288 0.428 0.469 0.601 0.060 0.058 0.122 0.082 0.172 0.149 0.045 0.064 0.048 0.139 0.121 0.186 0.075 0.047 0.358 0.058 0.445 0.023 0.159-0.065 0.185-0.244 0.222-0.382 0.014-0.053 0.040-0.092 0.053-0.152 0.009-0.037 0.020-0.074 0.031-0.115-0.038 0.036-0.082 0.067-0.118 0.082-0.109 0.051-0.244 0.028-0.364 0.028z"></path>
<path d="M31.021 17.913c-0.023-0.159-0.014-0.32-0.014-0.482 0.003-0.212-0.036-0.368-0.104-0.568-0.141-0.415-0.384-0.789-0.604-1.165-0.141-0.24-0.338-0.439-0.482-0.674-0.080-0.132-0.142-0.215-0.256-0.318-0.119-0.108-0.192-0.244-0.304-0.352-0.253-0.243-0.547-0.45-0.816-0.679-0.226-0.19-0.452-0.389-0.674-0.584-0.092-0.080-0.2-0.112-0.301-0.178-0.168-0.108-0.337-0.22-0.502-0.337-0.091-0.064-0.186-0.131-0.281-0.19-0.149-0.095-0.247-0.2-0.382-0.308-0.185-0.148-0.408-0.29-0.614-0.402-0.213-0.117-0.423-0.206-0.638-0.318-0.117-0.061-0.23-0.125-0.341-0.195-0.172-0.108-0.362-0.163-0.522-0.29-0.182-0.144-0.354-0.236-0.553-0.357-0.219-0.135-0.402-0.304-0.624-0.431-0.276-0.156-0.509-0.372-0.718-0.598-0.139-0.151-0.243-0.264-0.334-0.452-0.099-0.203-0.084-0.433-0.195-0.634-0.061-0.112-0.161-0.198-0.273-0.234 0.081-0.48 0.034-0.752-0.028-1.029-0.080-0.357-0.25-0.655-0.409-0.969-0.092-0.183-0.156-0.35-0.304-0.509-0.121-0.131-0.291-0.182-0.443-0.276-0.081-0.050-0.156-0.081-0.244-0.124-0.148-0.071-0.254-0.205-0.394-0.284-0.115-0.067-0.234-0.134-0.351-0.2-0.082-0.045-0.153-0.084-0.249-0.045 0.024 0.104 0.054 0.18 0.055 0.291 0 0.098 0.034 0.136 0.054 0.216 0.031 0.124 0.040 0.213 0.114 0.334 0.045 0.075 0.065 0.118 0.101 0.205 0.084 0.202 0.254 0.379 0.396 0.537 0.114 0.126 0.193 0.269 0.301 0.399 0.236 0.287 0.466 0.573 0.706 0.856 0.122 0.142 0.273 0.298 0.379 0.455 0.030 0.041 0.064 0.088 0.097 0.136-0.044 0.011-0.090 0.028-0.132 0.058-0.237 0.159-0.119 0.32 0.018 0.503 0.097 0.126 0.179 0.264 0.27 0.391 0.243 0.335 0.539 0.652 0.783 0.978 0.121 0.162 0.293 0.223 0.458 0.315 0.125 0.071 0.195 0.182 0.327 0.243 0.261 0.122 0.469 0.274 0.702 0.423 0.276 0.178 0.55 0.368 0.84 0.529 0.109 0.060 0.217 0.107 0.32 0.179 0.112 0.080 0.18 0.192 0.298 0.259 0.243 0.139 0.445 0.324 0.686 0.465 0.161 0.094 0.308 0.202 0.456 0.315 0.060 0.045 0.134 0.070 0.188 0.108 0.058 0.040 0.058 0.065 0.114 0.122 0.065 0.064 0.169 0.098 0.244 0.148 0.19 0.124 0.381 0.226 0.558 0.347 0.122 0.084 0.23 0.132 0.344 0.226 0.105 0.087 0.222 0.162 0.331 0.244 0.18 0.139 0.354 0.257 0.517 0.421 0.186 0.186 0.382 0.396 0.527 0.615 0.105 0.161 0.159 0.304 0.243 0.47 0.085 0.172 0.151 0.362 0.24 0.543 0.041 0.085 0.099 0.158 0.136 0.239 0.016 0.036 0.014 0.088 0.034 0.124 0.017 0.034 0.078 0.075 0.102 0.118 0.072 0.122 0.090 0.27 0.162 0.395 0.058 0.099 0.105 0.161 0.138 0.27 0.072 0.25 0.216 0.47 0.273 0.726 0.045 0.206 0.013 0.449 0.013 0.662 0 0.146 0.067 0.506-0.060 0.603 0.534-0.475 0.618-0.598 0.652-0.723 0.050-0.186-0.010-0.379-0.036-0.561z"></path>
<path d="M2.579 12.393c0.023-0.063 0.125-0.286 0.21-0.306 0.126-0.031 0.156 0.209 0.183 0.293 0.036 0.117 0.077 0.222 0.107 0.331 0.033 0.117 0.036 0.21 0.055 0.333 0.014 0.084 0.057 0.287 0.121 0.308 0.081 0.026 0.108-0.038 0.165-0.067 0.082-0.043 0.166-0.044 0.253-0.071 0.036-0.155-0.045-0.264-0.054-0.412-0.007-0.135 0.014-0.249-0.043-0.378-0.101-0.232-0.132-0.489-0.24-0.722-0.038-0.082-0.068-0.111-0.077-0.219-0.010-0.125-0.051-0.182-0.108-0.296-0.061-0.124-0.108-0.246-0.149-0.375-0.090-0.288-0.182-0.541-0.334-0.8-0.119-0.202-0.196-0.441-0.090-0.662 0.026-0.053 0.058-0.115 0.090-0.168 0.044-0.071 0.074-0.144 0.114-0.21 0.080-0.139 0.182-0.23 0.234-0.389 0.088-0.273 0.256-0.516 0.301-0.8 0.023-0.146 0.063-0.257 0.061-0.409-0.001-0.222 0-0.442 0-0.664-0.064 0.179-0.237 0.439-0.303 0.604-0.047 0.119-0.132 0.217-0.166 0.344-0.041 0.156-0.054 0.304-0.129 0.45-0.050 0.095-0.139 0.189-0.175 0.291-0.031 0.088-0.034 0.198-0.055 0.291-0.071 0.308-0.199 0.601-0.196 0.918 0.001 0.135 0.021 0.291-0.014 0.421-0.024 0.089-0.044 0.092-0.048 0.193-0.003 0.081 0.014 0.146-0.009 0.226-0.044 0.155-0.166 0.253-0.172 0.423-0.006 0.152-0.051 0.271-0.057 0.422-0.007 0.149-0.064 0.267-0.063 0.422 0 0.121 0 0.242 0 0.362 0 0.283 0.006 0.567 0 0.848-0.004 0.19 0.037 0.173 0.212 0.23 0.071 0.024 0.136 0.028 0.198 0.081 0.047 0.041 0.037 0.111 0.124 0.102 0.085-0.301-0.057-0.642 0.054-0.948z"></path>
<path d="M23.735 28.012c0.043-0.072 0.074-0.166 0.111-0.249 0.084-0.189 0.111-0.408 0.176-0.604 0.027-0.084 0.090-0.155 0.124-0.239 0.051-0.126 0.047-0.227 0.045-0.367-0.001-0.239 0.053-0.45 0.060-0.689 0.004-0.146 0.058-0.274 0.063-0.421 0.004-0.151-0.001-0.303-0.001-0.453 0-0.141-0.001-0.283 0-0.423 0-0.061 0.013-0.153 0.001-0.215-0.011-0.065-0.047-0.126-0.239-0.458 0.003 0.082-0.011 0.168 0.009 0.249 0.027 0.104 0.048 0.156 0.047 0.271-0.001 0.182 0 0.362 0 0.544 0 0.19-0.003 0.381 0 0.573 0.003 0.203-0.090 0.387-0.171 0.57-0.091 0.206-0.216 0.398-0.311 0.607-0.040 0.088-0.092 0.172-0.138 0.257-0.043 0.081-0.098 0.118-0.151 0.192-0.115 0.162-0.186 0.352-0.315 0.5-0.134 0.153-0.22 0.323-0.304 0.51 0.006-0.117-0.017-0.145-0.044-0.236-0.027-0.094-0.013-0.193-0.013-0.293-0.003-0.134-0.023-0.176-0.077-0.298-0.050-0.109-0.057-0.232-0.090-0.35-0.051-0.188-0.125-0.364-0.185-0.557-0.064-0.206-0.058-0.426-0.139-0.631-0.071-0.18-0.225-0.405-0.389-0.514-0.298-0.198-0.207 0.333-0.206 0.499 0 0.449 0.171 0.888 0.314 1.312 0.047 0.135 0.129 0.254 0.162 0.395 0.027 0.115 0.051 0.227 0.081 0.342 0.055 0.212 0.128 0.389 0.18 0.604 0.024 0.095 0.036 0.192 0.060 0.286 0.030 0.119 0.031 0.207 0.044 0.334 0.016 0.151 0.074 0.523 0.242 0.576 0.266 0.085 0.355-0.283 0.406-0.452 0.094-0.313 0.304-0.568 0.441-0.863 0.058-0.126 0.141-0.198 0.207-0.31z"></path>
<path d="M24.010 23.782c0.024 0.043 0.045 0.078 0.065 0.114-0.001-0.037-0.004-0.072-0.016-0.107-0.017-0.003-0.033-0.004-0.050-0.007z"></path>
<path d="M21.78 28.175c-0.018-0.126-0.065-0.225-0.108-0.345-0.024-0.064-0.030-0.128-0.057-0.19-0.031-0.078-0.088-0.136-0.112-0.22-0.048-0.169-0.132-0.365-0.27-0.485-0.22-0.193-0.415 0.013-0.647 0.084-0.094 0.030-0.19 0.072-0.284 0.095-0.092 0.024-0.192 0.011-0.287 0.011-0.146 0-0.26-0.020-0.401-0.060-0.142-0.040-0.406-0.041-0.509-0.148-0.054-0.057-0.134-0.176-0.165-0.247-0.038-0.088-0.031-0.19-0.067-0.283-0.036-0.088-0.071-0.179-0.109-0.264-0.105 0.004-0.274 0.225-0.36 0.298-0.124 0.107-0.199 0.243-0.344 0.334-0.168 0.105-0.293 0.182-0.497 0.179-0.136-0.001-0.273 0.001-0.409 0-0.165-0.001-0.27-0.085-0.404-0.168-0.061-0.037-0.121-0.051-0.165-0.101-0.037-0.038-0.014-0.082-0.080-0.109-0.094-0.040-0.261 0.063-0.352 0.082-0.104 0.021-0.304-0.026-0.385-0.108-0.196-0.202-0.202-0.513-0.278-0.767-0.027-0.090-0.084-0.27-0.178-0.306-0.121-0.048-0.3 0.159-0.392 0.227-0.114 0.082-0.233 0.165-0.352 0.236-0.054 0.031-0.18 0.155-0.25 0.105-0.064-0.047 0.013-0.085 0.016-0.145 0.001-0.060-0.040-0.136-0.068-0.188-0.058-0.105-0.145-0.195-0.21-0.296-0.146-0.232-0.321-0.459-0.441-0.692-0.139-0.271-0.323-0.497-0.486-0.753-0.054-0.082-0.074-0.165-0.146-0.24-0.045-0.048-0.1-0.081-0.148-0.125-0.152-0.138-0.288-0.307-0.414-0.47-0.065-0.085-0.148-0.146-0.223-0.219-0.081-0.078-0.125-0.178-0.196-0.263-0.107-0.126-0.259-0.206-0.389-0.301-0.087-0.063-0.152-0.146-0.229-0.219-0.071-0.067-0.153-0.111-0.227-0.176-0.108-0.094-0.196-0.179-0.318-0.256-0.135-0.084-0.246-0.19-0.377-0.281-0.071-0.050-0.142-0.101-0.215-0.146-0.024-0.016-0.065-0.037-0.091-0.055-0.119-0.087-0.244-0.173-0.358-0.263-0.129-0.101-0.179-0.256-0.26-0.395-0.038-0.065-0.077-0.072-0.128-0.122-0.047-0.045-0.075-0.112-0.122-0.163-0.107-0.111-0.225-0.206-0.338-0.31-0.118-0.108-0.171-0.256-0.264-0.381-0.091-0.124-0.199-0.233-0.291-0.358-0.070-0.095-0.148-0.183-0.217-0.279 0.016 0.021 0.031 0.044 0.044 0.065 0.048 0.071 0.060 0.131 0.091 0.21 0.051 0.131 0.098 0.202 0.117 0.34 0.007 0.065 0.031 0.122 0.043 0.188 0.026 0.138 0.001 0.223-0.057 0.331-0.091 0.173 0.021 0.259 0.119 0.384 0.105 0.135 0.234 0.249 0.337 0.382 0.068 0.091 0.117 0.148 0.213 0.205 0.107 0.061 0.176 0.138 0.274 0.215 0.080 0.061 0.162 0.118 0.244 0.175 0.092 0.067 0.158 0.155 0.254 0.219 0.408 0.27 0.735 0.637 1.034 1.023 0.227 0.294 0.422 0.607 0.638 0.907 0.115 0.159 0.18 0.335 0.308 0.482 0.114 0.134 0.23 0.234 0.321 0.387 0.156 0.267 0.368 0.507 0.566 0.745 0.152 0.182 0.287 0.36 0.428 0.551 0.112 0.152 0.276 0.26 0.432 0.361 0.192 0.124 0.387 0.247 0.59 0.347 0.097 0.047 0.183 0.104 0.288 0.135 0.075 0.021 0.148 0.016 0.226 0.031 0.077 0.016 0.156 0.027 0.233 0.044 0.121 0.028 0.227 0.124 0.348 0.158 0.212 0.061 0.401 0.156 0.618 0.217 0.159 0.044 0.276 0.153 0.432 0.185 0.19 0.038 0.374 0.105 0.57 0.102 0.145-0.004 0.28 0.027 0.418 0.055 0.114 0.024 0.232 0.067 0.341 0.099 0.097 0.028 0.139 0.027 0.246 0.033 0.252 0.013 0.502 0.151 0.745 0.207 0.18 0.041 0.33 0.081 0.516 0.081 0.237-0.001 0.476 0 0.713 0h0.426c0.171 0 0.347-0.013 0.517-0.003 0.107 0.007 0.117 0.021 0.183 0.119 0.092 0.139 0.158 0.288 0.26 0.412 0.095 0.115 0.206 0.253 0.269 0.381 0.048 0.102 0.115 0.176 0.161 0.28 0.047 0.107 0.105 0.19 0.165 0.288 0.107 0.179 0.172 0.342 0.171 0.55 0-0.132-0.001-0.264 0-0.396 0.001-0.128-0.034-0.239-0.047-0.362-0.030-0.304-0.149-0.593-0.192-0.887z"></path>
<path d="M8.177 18.929c-0.018-0.027-0.036-0.054-0.054-0.081 0.017 0.027 0.034 0.055 0.054 0.081z"></path>
<path d="M7.881 18.422c-0.146-0.179-0.227-0.372-0.396-0.539-0.105-0.104-0.205-0.219-0.273-0.35-0.060-0.111-0.091-0.161-0.188-0.242-0.099-0.082-0.173-0.172-0.243-0.279-0.074-0.114-0.192-0.242-0.213-0.381 0.014-0.148-0.74-0.853-0.813-0.479-0.031 0.158 0.024 0.327 0.045 0.479 0.026 0.198 0.027 0.431 0.192 0.573 0.085 0.075 0.195 0.099 0.28 0.179 0.078 0.071 0.151 0.115 0.24 0.171 0.209 0.128 0.416 0.259 0.628 0.375 0.085 0.048 0.139 0.125 0.21 0.175 0.061 0.041 0.091 0.023 0.161 0.087 0.028 0.028 0.055 0.058 0.084 0.088 0.129 0.132 0.284 0.256 0.402 0.398 0.043 0.053 0.084 0.111 0.125 0.171-0.014-0.023-0.030-0.044-0.041-0.068-0.064-0.119-0.115-0.253-0.2-0.358z"></path>
<path d="M25.842 27.645c0.114 0.016 0.203-0.331 0.22-0.405 0.034-0.141 0.061-0.274 0.094-0.415 0.057-0.246 0.060-0.473 0.060-0.725 0-0.216-0.003-0.431-0.001-0.645 0.001-0.111-0.011-0.227-0.057-0.331-0.026-0.061-0.058-0.139-0.087-0.198-0.014-0.031-0.021-0.063-0.055-0.081-0.092-0.055-0.497-0.031-0.591 0.020-0.091 0.050-0.236 0.21-0.296 0.304-0.031 0.045-0.037 0.095-0.057 0.142-0.023 0.055-0.058 0.092-0.087 0.144-0.075 0.142-0.139 0.271-0.189 0.433-0.047 0.153-0.148 0.279-0.205 0.423-0.080 0.206-0.033 0.445-0.080 0.659-0.031 0.139-0.060 0.25-0.109 0.344 0.121 0.043 0.195-0.068 0.263-0.144 0.054-0.058 0.115-0.102 0.168-0.153 0.070-0.067 0.094-0.163 0.119-0.256 0.014-0.054 0.007-0.114 0.020-0.165 0.018-0.067 0.071-0.111 0.091-0.178 0.026-0.092 0.028-0.156 0.068-0.249 0.047-0.107 0.078-0.225 0.119-0.334 0.037-0.101 0.078-0.537 0.192-0.522 0.031 0.198 0.144 0.369 0.151 0.568 0.004 0.094 0.044 0.168 0.050 0.263 0.006 0.108 0.043 0.2 0.047 0.31 0.007 0.126 0.058 0.215 0.087 0.334 0.016 0.067-0.006 0.128 0.007 0.193 0.009 0.051 0.043 0.088 0.053 0.141 0.028 0.163-0.050 0.362 0.006 0.52z"></path>
<path d="M26.548 25.493c0.003 0.188 0.003 0.374 0.001 0.561-0.001 0.232 0.031 0.453 0.084 0.676 0.020 0.090 0.006 0.216 0.104 0.254 0.071 0.028 0.209-0.003 0.576-0.146v0.031c0-0.118 0.016-0.249-0.011-0.364-0.020-0.087-0.054-0.176-0.078-0.263-0.026-0.095-0.082-0.189-0.099-0.284-0.011-0.063 0.009-0.128-0.006-0.189-0.013-0.055-0.041-0.077-0.044-0.146-0.003-0.063 0.013-0.134 0.001-0.193-0.010-0.054-0.074-0.109-0.054-0.168 0.040-0.117 0.186-0.031 0.325 0.087-0.018-0.036-0.036-0.072-0.054-0.108-0.074-0.142-0.090-0.317-0.158-0.456-0.018-0.037-0.061-0.136-0.088-0.162-0.048-0.048-0.195-0.030-0.26-0.028-0.239 0.007-0.179 0.304-0.188 0.477-0.009 0.144-0.053 0.273-0.051 0.421z"></path>
<path d="M27.792 26.147c0.034 0.108 0.078 0.244 0.145 0.296-0.038-0.108-0.090-0.203-0.145-0.296z"></path>
<path d="M27.792 26.147c-0.011-0.037-0.023-0.070-0.033-0.095-0.054-0.135-0.085-0.298-0.146-0.416-0.021-0.040-0.141-0.178-0.267-0.286 0.074 0.148 0.144 0.3 0.227 0.443 0.071 0.124 0.148 0.237 0.219 0.354z"></path>
<path d="M3.469 17.682c0.35 0.001 0.62-0.115 0.915-0.273 0.117-0.061 0.209-0.145 0.276-0.252 0.080-0.128 0.048-0.303 0.048-0.453 0-0.080 0.003-0.159 0-0.239-0.003-0.075-0.036-0.101-0.050-0.163-0.020-0.077 0.021-0.168 0.004-0.244-0.016-0.064-0.044-0.105-0.057-0.179-0.007-0.031-0.026-0.078-0.041-0.126-0.030-0.095-0.060-0.347-0.129-0.404-0.168 0.21-0.256 0.389-0.252 0.664 0.001 0.144-0.067 0.247-0.098 0.382-0.019 0.088-0.021 0.114-0.082 0.193-0.038 0.050-0.070 0.097-0.104 0.149-0.091 0.141-0.222 0.222-0.334 0.335-0.099 0.099-0.244 0.199-0.384 0.229-0.091 0.020-0.108 0.034-0.19 0.084-0.078 0.048-0.156 0.045-0.242 0.070-0.064 0.018-0.264 0.054-0.279 0.121 0.072 0.010 0.139 0.063 0.213 0.084 0.087 0.024 0.168 0.023 0.259 0.023 0.175-0.001 0.351 0 0.526 0z"></path>
<path d="M20.616 29.414c-0.075-0.003-0.122-0.030-0.192-0.044-0.080-0.017-0.175-0.006-0.257-0.004-0.142 0.001-0.273-0.040-0.418-0.045-0.084-0.004-0.152-0.044-0.233-0.051-0.080-0.009-0.141-0.004-0.219-0.021-0.165-0.036-0.335-0.082-0.497-0.115-0.168-0.034-0.334-0.084-0.504-0.124-0.097-0.021-0.189-0.057-0.281-0.085-0.111-0.034-0.229-0.038-0.342-0.071-0.149-0.041-0.297-0.090-0.448-0.131-0.072-0.020-0.148-0.040-0.219-0.068-0.139-0.055-0.236-0.067-0.372-0.095-0.125-0.026-0.249-0.098-0.374-0.135-0.115-0.036-0.222-0.044-0.34-0.063-0.128-0.021-0.254-0.082-0.381-0.117-0.104-0.028-0.21-0.051-0.314-0.080-0.139-0.040-0.264-0.114-0.406-0.148-0.131-0.030-0.261-0.060-0.392-0.091-0.134-0.034-0.242-0.112-0.369-0.153-0.175-0.057-0.364-0.043-0.534-0.122-0.355-0.166-0.723-0.3-1.089-0.441-0.26-0.102-0.499-0.25-0.743-0.371-0.273-0.136-0.541-0.297-0.804-0.449-0.281-0.162-0.554-0.327-0.853-0.459-0.2-0.088-0.398-0.205-0.585-0.327-0.087-0.055-0.153-0.126-0.237-0.195-0.071-0.057-0.101-0.122-0.162-0.185-0.060-0.060-0.131-0.088-0.192-0.149-0.256-0.253-0.423-0.594-0.678-0.85-0.192-0.192-0.409-0.352-0.561-0.581-0.17-0.254-0.365-0.49-0.523-0.76-0.114-0.193-0.216-0.396-0.325-0.593-0.084-0.152-0.144-0.306-0.225-0.459-0.169-0.325-0.308-0.674-0.401-1.025-0.057-0.215-0.162-0.426-0.254-0.63-0.088-0.196-0.124-0.48-0.244-0.658-0.080-0.117-0.23-0.145-0.345-0.215-0.109-0.068-0.213-0.129-0.328-0.192-0.28-0.152-0.553-0.311-0.848-0.419-0.122-0.044-0.244-0.094-0.368-0.132-0.085-0.027-0.176-0.033-0.263-0.057-0.084-0.023-0.173-0.072-0.263-0.061-0.541-0.016-0.482 0.081-0.429 0.189 0.061 0.128 0.072 0.233 0.192 0.291 0.048 0.024 0.114 0.033 0.165 0.044 0.090 0.021 0.172 0.057 0.263 0.085 0.414 0.131 0.844 0.202 1.239 0.389 0.146 0.071 0.287 0.148 0.436 0.213 0.082 0.037 0.095 0.061 0.149 0.125 0.095 0.112 0.188 0.207 0.274 0.334 0.104 0.151 0.223 0.276 0.298 0.439 0.071 0.153 0.162 0.293 0.244 0.438 0.108 0.192 0.185 0.428 0.269 0.634 0.102 0.253 0.192 0.502 0.311 0.743 0.071 0.144 0.077 0.307 0.115 0.46 0.030 0.119 0.077 0.234 0.109 0.354 0.058 0.215 0.104 0.443 0.179 0.652 0.065 0.182 0.131 0.345 0.168 0.536 0.043 0.226 0.111 0.433 0.165 0.655 0.026 0.107 0.081 0.199 0.109 0.306 0.034 0.126 0.047 0.257 0.084 0.384 0.017 0.061 0.026 0.162 0.055 0.219 0.020 0.036 0.054 0.030 0.077 0.057 0.019 0.023 0.003 0.045 0.031 0.072 0.045 0.044 0.117 0.041 0.168 0.068 0.071 0.036 0.129 0.095 0.2 0.132 0.163 0.084 0.341 0.175 0.516 0.229 0.242 0.075 0.483 0.173 0.729 0.239 0.111 0.030 0.199 0.057 0.303 0.112 0.105 0.055 0.183 0.070 0.294 0.099 0.126 0.034 0.259 0.104 0.375 0.161 0.144 0.068 0.291 0.114 0.436 0.173 0.115 0.047 0.21 0.125 0.321 0.178 0.098 0.047 0.209 0.053 0.308 0.097 0.672 0.303 1.411 0.445 2.11 0.671 0.239 0.077 0.485 0.102 0.722 0.192 0.217 0.082 0.462 0.105 0.676 0.192 0.75 0.303 1.579 0.371 2.342 0.627 0.396 0.134 0.807 0.291 1.218 0.372 0.419 0.081 0.834 0.169 1.252 0.25 0.156 0.030 0.313 0.041 0.468 0.082 0.135 0.034 0.223 0.048 0.357 0.047 0.146-0.001 0.294 0 0.441 0 0.101 0 0.513 0.054 0.57-0.044 0.058-0.099-0.077-0.223-0.131-0.291-0.2-0.26-0.499-0.226-0.793-0.236z"></path>
<path d="M29.461 27.4c-0.037-0.050-0.132-0.134-0.188-0.166-0.043 0.092 0.071 0.146 0.091 0.222 0.014 0.053 0.011 0.195-0.010 0.244-0.006 0.010-0.090 0.090-0.098 0.101-0.048 0.061-0.072 0.126-0.132 0.185-0.070 0.068-0.142 0.119-0.239 0.142-0.441 0.098-0.908 0.111-1.361 0.192-0.085 0.014-0.151 0.077-0.237 0.090-0.068 0.010-0.126 0.003-0.196 0.023-0.266 0.081-0.537 0.146-0.803 0.233-0.156 0.050-0.263 0.112-0.423 0.138-0.222 0.036-0.428 0.125-0.655 0.136-0.26 0.013-0.551 0.043-0.8 0.142-0.163 0.065-0.355 0.129-0.523 0.149-0.003 0.014-0.006 0.027-0.009 0.040-0.504 0.234-0.47 0.29-0.419 0.324 0.050 0.034 0.162 0.010 0.217 0.010 0.129 0 0.26 0 0.391 0 0.168 0.001 0.301-0.043 0.465-0.047 0.114-0.001 0.226-0.021 0.337-0.047 0.087-0.020 0.171-0.070 0.253-0.088 0.091-0.021 0.179-0.016 0.27-0.043 0.134-0.038 0.249-0.098 0.389-0.111 0.129-0.013 0.263-0.053 0.389-0.095 0.23-0.078 0.509-0.109 0.76-0.178 0.060-0.016 0.131-0.053 0.188-0.061 0.082-0.014 0.165-0.001 0.249-0.020 0.213-0.045 0.463-0.047 0.661-0.132 0.333-0.144 0.696-0.229 1.039-0.369 0.24-0.099 0.48-0.249 0.487-0.526 0.003-0.124-0.045-0.216-0.050-0.334-0.003-0.090 0.006-0.090-0.043-0.153z"></path>
<path d="M16.108 10.632c-0.053-0.142-0.175-0.29-0.254-0.422-0.101-0.168-0.249-0.369-0.377-0.513-0.098-0.109-0.173-0.169-0.232-0.306-0.030-0.068-0.053-0.142-0.085-0.21-0.097-0.193-0.203-0.398-0.304-0.6-0.077-0.155-0.172-0.306-0.263-0.445-0.122-0.189-0.306-0.341-0.432-0.519-0.195-0.274-0.422-0.558-0.647-0.817-0.136-0.156-0.315-0.207-0.507-0.222-0.006-0.003-0.010-0.006-0.014-0.009-0.192-0.121-0.384-0.22-0.588-0.311-0.078-0.036-0.146-0.085-0.233-0.118-0.111-0.041-0.2-0.063-0.297-0.119-0.229-0.132-0.507-0.179-0.765-0.179-0.462 0-0.922 0-1.384 0-0.111 0-0.223-0.004-0.334-0.001-0.107 0.004-0.185 0.041-0.287 0.050-0.25 0.023-0.426 0.071-0.584 0.276-0.266 0.341-0.574 0.655-0.811 1.009-0.060 0.090-0.077 0.198-0.128 0.288-0.064 0.111-0.134 0.223-0.193 0.334-0.129 0.236-0.216 0.506-0.297 0.763-0.058 0.183-0.121 0.378-0.131 0.573-0.006 0.138-0.095 0.216-0.135 0.334-0.016 0.044-0.004 0.055-0.009 0.095-0.007 0.071-0.036 0.119-0.051 0.19-0.047 0.22 0.081 0.375 0.26 0.476 0.151 0.085 0.331 0.131 0.495 0.179 0.091 0.028 0.175 0.050 0.269 0.070 0.023 0.004 0.043 0.013 0.064 0.018 0.026 0.014 0.051 0.030 0.081 0.044 0.165 0.084 0.341 0.136 0.516 0.199 0.176 0.061 0.315 0.138 0.507 0.134 0.112-0.003 0.226-0.013 0.335 0.013 0.128 0.031 0.236 0.024 0.365 0.044 0.158 0.026 0.287 0.146 0.415 0.236 0.114 0.081 0.219 0.108 0.294 0.234 0.051 0.087 0.094 0.125 0.155 0.2 0.107 0.132 0.117 0.314 0.303 0.36 0.172 0.043 0.425 0.006 0.604-0.001 0.161-0.006 0.328-0.081 0.487-0.128 0.075-0.021 0.151-0.045 0.226-0.070 0.186 0.063 0.365 0.155 0.561 0.23 0.219 0.084 0.418 0.179 0.63 0.284 0.139 0.068 0.269 0.159 0.422 0.168 0.121 0.006 0.243-0.001 0.362-0.001 0.29 0 0.554-0.063 0.841-0.061 0.189 0.001 0.321-0.003 0.487-0.104 0.097-0.060 0.172-0.134 0.254-0.196 0.094-0.071 0.199-0.158 0.286-0.237 0.146-0.134 0.179-0.277 0.182-0.456 0-0.001 0.001-0.003 0.003-0.004 0.058-0.058 0.152-0.119 0.202-0.183 0.065-0.081 0.085-0.188-0.264-0.568z"></path>
</svg>
