<!-- Generated by IcoMoon.io -->
<svg version="1.1" xmlns="http://www.w3.org/2000/svg" width="32" height="32" viewBox="0 0 32 32">
<path d="M17.236 21.561c-0.088-0.225-0.195-0.424-0.402-0.55-0.232-0.142-0.54-0.156-0.767 0.008-0.045 0.032-0.085 0.071-0.123 0.113-0.024 0.019-0.050 0.035-0.072 0.057-0.029 0.030-0.054 0.062-0.079 0.096-0.108-0.181-0.307-0.306-0.494-0.333-0.267-0.038-0.541 0.094-0.68 0.348-0.075 0.138-0.126 0.278-0.165 0.42-0.125 0.092-0.222 0.226-0.26 0.393-0.021 0.094-0.042 0.188-0.063 0.281-0.031 0.066-0.062 0.133-0.090 0.201-0.093 0.23-0.165 0.453-0.2 0.701-0.066 0.463-0.056 0.915-0.023 1.381 0.002-0 0.005-0.001 0.008-0.001 0.002 0.064 0.008 0.129 0.017 0.195 0.021 0.161 0.184 0.363 0.313 0.436 0.095 0.054 0.192 0.083 0.294 0.090 0.068 0.059 0.144 0.109 0.237 0.137 0.197 0.058 0.394 0.012 0.558-0.104 0.155 0.006 0.361-0.096 0.461-0.212 0.116-0.136 0.215-0.326 0.2-0.516-0.001-0.010 0.001-0.020 0-0.030 0.078 0.038 0.158 0.074 0.237 0.107 0.032 0.014 0.065 0.027 0.098 0.040 0.004 0.004 0.012 0.008 0.018 0.012 0.060 0.324 0.363 0.599 0.672 0.584 0.386-0.018 0.661-0.321 0.682-0.73 0.002-0.044-0.001-0.086-0.006-0.129 0.002-0.020 0.001-0.041 0.002-0.062 0.234-0.173 0.328-0.465 0.278-0.789-0.077-0.503-0.222-0.988-0.393-1.463-0.082-0.229-0.17-0.456-0.258-0.682z"></path>
<path d="M10.336 26.374l-0.002-0.007c-0.042-0.308-0.085-0.616-0.127-0.924-0.021-0.156-0.044-0.311-0.064-0.467-0.006-0.044-0.009-0.088-0.014-0.133-0-0.002-0-0.003-0.001-0.005 0.004-0.105-0.003-0.22-0.008-0.324-0.011-0.199-0.048-0.396-0.083-0.59-0.028-0.156-0.059-0.316-0.107-0.461-0.122 0.332-0.347 0.534-0.663 0.411-0.076-0.030-0.152-0.054-0.228-0.076-0.436 0.021-0.886-0.016-1.305-0.272-0.352-0.1-0.69-0.268-1.006-0.631-0.401-0.46-0.64-1.266-0.485-2.013 0.016-0.074 0.035-0.144 0.056-0.213-0.068-0.472 0.053-0.846 0.256-1.052-0.062-0.044-0.127-0.070-0.199-0.063-0.125 0.012-0.241 0.115-0.318 0.269-0.008 0.015-0.013 0.032-0.020 0.047-0.022 0.010-0.043 0.021-0.065 0.031-0.231 0.11-0.275 0.556-0.207 0.919-0.044 0.177-0.082 0.358-0.11 0.544-0.004 0.030-0.009 0.060-0.014 0.091 0 1.041 0.072 2.166 0.602 2.493 0.388 0.239 0.81 0.33 1.207 0.58 0.199 0.125 0.482 0.406 0.741 0.577 0.002-0.006 0.006-0.012 0.008-0.019 0.088 0.043 0.175 0.080 0.266 0.083 0.083 0.003 0.161-0.018 0.239-0.058 0.027-0.016 0.054-0.032 0.080-0.050 0.006-0.003 0.010-0.005 0.014-0.008 0.004 0.001 0.008 0.003 0.012 0.004 0.001 0.001 0.001 0.002 0.003 0.003 0.003 0.004 0.007 0.010 0.012 0.017 0 0.002 0.001 0.004 0.001 0.006 0.318-0.095 0.68 0.142 0.825 0.79 0.109 0.488 0.22 0.974 0.328 1.46 0.057 0.010 0.115 0 0.168-0.038 0.204-0.142 0.308-0.537 0.206-0.922z"></path>
<path d="M25.63 21.073c0.077-0.362 0.045-0.808-0.183-0.924-0.022-0.011-0.043-0.022-0.064-0.032-0.006-0.016-0.011-0.032-0.019-0.048-0.073-0.156-0.186-0.261-0.311-0.277-0.071-0.009-0.136 0.016-0.2 0.058 0.198 0.212 0.309 0.588 0.229 1.059 0.019 0.069 0.036 0.139 0.050 0.214 0.136 0.751-0.124 1.551-0.537 2-0.325 0.354-0.667 0.514-1.022 0.605-0.426 0.246-0.876 0.271-1.312 0.239-0.076 0.020-0.153 0.042-0.23 0.070-0.319 0.115-0.539-0.092-0.653-0.428-0.052 0.144-0.086 0.303-0.119 0.458-0.040 0.193-0.082 0.389-0.098 0.588-0.008 0.103-0.018 0.218-0.016 0.323-0 0.002-0 0.003-0.001 0.005-0.006 0.044-0.011 0.088-0.018 0.132-0.024 0.156-0.050 0.311-0.076 0.466-0.050 0.307-0.101 0.614-0.151 0.921l-0.002 0.007c-0.112 0.383-0.018 0.78 0.182 0.928 0.053 0.039 0.11 0.050 0.168 0.042 0.121-0.483 0.244-0.966 0.365-1.451 0.161-0.645 0.529-0.872 0.845-0.769 0-0.002 0.001-0.004 0.001-0.006 0.005-0.006 0.009-0.012 0.013-0.016 0.001-0.001 0.002-0.002 0.003-0.003 0.004-0.001 0.008-0.003 0.012-0.004 0.005 0.003 0.008 0.004 0.014 0.008 0.026 0.018 0.052 0.036 0.079 0.052 0.077 0.042 0.154 0.065 0.237 0.064 0.091-0.001 0.18-0.036 0.268-0.077 0.002 0.007 0.005 0.012 0.008 0.019 0.263-0.165 0.553-0.438 0.755-0.558 0.403-0.24 0.828-0.32 1.222-0.549 0.539-0.313 0.639-1.436 0.666-2.476-0.004-0.030-0.007-0.061-0.011-0.091-0.023-0.187-0.057-0.369-0.096-0.547z"></path>
<path d="M20.295 27.588c-0.059 0.096-0.377 1.308-0.245 1.289-0.29 0.042-0.588 0.083-0.873 0.014s-0.556-0.275-0.612-0.563c-0.037-0.193 0.017-0.422-0.114-0.568-0.398 0.083-0.251 0.694-0.409 1.069-0.155 0.37-0.697 0.474-1.018 0.234s-0.398-0.725-0.228-1.089c-0.266 0.234-0.342 0.612-0.529 0.914s-0.635 0.521-0.88 0.265c-0.016-0.387-0.031-0.773-0.046-1.16-0.393 0.223-0.657 0.658-0.674 1.11-0.228 0.001-0.456 0.002-0.684 0.004 0.032-0.414 0.065-0.828 0.097-1.242-0.307-0.111-0.684 0.026-0.849 0.308-0.11 0.189-0.142 0.44-0.324 0.561-0.236 0.158-0.58-0.033-0.672-0.301s-0.004-0.564 0.108-0.824c-0.287-0.096-0.61 0.047-0.813 0.271s-0.312 0.515-0.417 0.799c-0.394-0.232-0.454-0.871-0.109-1.172-0.172 0.122-0.349 0.248-0.48 0.411-0.031 0.038-0.059 0.078-0.084 0.121-0.131 0.225-0.149 0.538 0.029 0.728 0.097 0.103 0.235 0.155 0.368 0.202 2.8 0.986 5.862 1.138 8.788 0.637 0.499-0.085 1.359-0.297 1.345-0.964-0.010-0.477-0.544-0.59-0.677-1.052z"></path>
<path d="M18.354 19.017c0.112 0.064 0.244 0.078 0.372 0.090 0.537 0.052 1.073 0.103 1.61 0.155 0.361 0.035 0.726 0.069 1.086 0.027 0.609-0.072 1.17-0.362 1.698-0.674 0.304-0.18 0.608-0.375 0.833-0.648 0.37-0.45 0.483-1.078 0.374-1.65-0.059-0.311-0.178-0.607-0.296-0.901-0.078-0.195-0.157-0.391-0.235-0.586-0.067-0.097-0.107-0.21-0.126-0.327-1.048-0.292-2.186-0.294-3.285-0.268-0.226 0.005-0.47 0.018-0.648 0.157-0.147 0.115-0.222 0.298-0.336 0.446-0.311 0.405-0.876 0.524-1.248 0.875-0.354 0.335-0.491 0.85-0.473 1.337s0.174 0.957 0.328 1.42c0.070 0.21 0.155 0.439 0.347 0.549z"></path>
<path d="M12.449 15.015c-0.099-0.158-0.157-0.347-0.293-0.475-0.164-0.156-0.406-0.191-0.631-0.218-1.066-0.127-2.171-0.229-3.219-0.056-0.047 0.108-0.116 0.205-0.209 0.28-0.105 0.203-0.209 0.406-0.314 0.608-0.145 0.281-0.291 0.565-0.379 0.869-0.162 0.559-0.11 1.195 0.217 1.678 0.198 0.293 0.482 0.516 0.768 0.724 0.496 0.361 1.027 0.702 1.626 0.831 0.355 0.076 0.721 0.076 1.083 0.076 0.539-0.001 1.078-0.002 1.618-0.002 0.129-0 0.262-0.001 0.379-0.054 0.202-0.091 0.308-0.311 0.397-0.514 0.197-0.446 0.396-0.899 0.461-1.382s-0.024-1.009-0.345-1.376c-0.337-0.384-0.888-0.556-1.16-0.988z"></path>
<path d="M28.266 13.236c-0.026-0.204-0.134-0.375-0.185-0.569-0.054-0.209-0.081-0.401-0.115-0.613-0.032-0.201-0.117-0.391-0.155-0.589-0.066-0.344-0.142-0.67-0.326-0.953-0.093-0.143-0.192-0.283-0.283-0.425-0.086-0.133-0.134-0.3-0.216-0.43-0.090-0.144-0.264-0.164-0.46-0.128l-1.342-1.426c0.154 0.016 0.295-0.076 0.399-0.356 0.347-0.934-0.549-1.281-1.015-1.717-0.172-0.161-0.298-0.373-0.437-0.57-0.836-1.182-2.141-1.796-3.422-2.231-0.041-0.014-0.085-0.027-0.124-0.009-0.043 0.021-0.066 0.074-0.085 0.122-0.058 0.15-0.116 0.299-0.175 0.449l-2.114-0.579c-0.016-0.044-0.031-0.081-0.054-0.121-0.084-0.147-0.129-0.262-0.152-0.437-0.028-0.212 0.040-0.476-0.020-0.676-0.555-0.113-1.125-0.074-1.692-0.074h-3.152c-0.228 0-0.462-0.016-0.689-0.003-0.15 0.008-0.374 0.023-0.48 0.148-0.072 0.084-0.072 0.157-0.075 0.27-0.005 0.189 0.004 0.379 0.003 0.568 0 0.027-0.002 0.056-0.004 0.087l-1.99 1.128c-0.098-0.132-0.23-0.318-0.342-0.491-0.115-0.178-0.191-0.219-0.367-0.13-0.118 0.060-0.222 0.119-0.346 0.165-0.477 0.176-0.898 0.4-1.32 0.69-0.194 0.133-0.414 0.216-0.612 0.345-0.169 0.11-0.326 0.236-0.508 0.312-0.292 0.122-0.467 0.403-0.665 0.656-0.242 0.308-0.52 0.617-0.733 0.949-0.072 0.113-0.122 0.247-0.184 0.368-0.043 0.084-0.119 0.218-0.124 0.312 0.204 0.134 0.404 0.26 0.55 0.475 0.043 0.064 0.089 0.132 0.129 0.194 0 0-1.089 3.227-1.090 3.223-0.236 0-0.472 0.004-0.707 0-0.062-0.001-0.173-0.029-0.226 0.010-0.12 0.088-0.136 0.53-0.177 0.682-0.049 0.181-0.099 0.38-0.138 0.554-0.022 0.098-0.021 0.193-0.033 0.302-0.017 0.155-0.091 0.288-0.113 0.436-0.083 0.542-0.057 1.104-0.057 1.66 0 0.6-0.050 1.226 0.070 1.81 0.030 0.146 0.106 0.266 0.164 0.398 0.043 0.098 0.081 0.21 0.128 0.309 0.11 0.235 0.234 0.471 0.359 0.7 0.056 0.102 0.18 0.454 0.329 0.376 0.143-0.074 0.054-0.828 0.054-0.987 0-0.182-0.002-0.365-0.001-0.547 0-0.056-0.011-0.115 0.004-0.17 0.017-0.063 0.058-0.093 0.079-0.152 0.052-0.146 0.034-0.296 0.034-0.456 0-0.101-0.020-0.228-0.003-0.327 0.016-0.095 0.056-0.162 0.062-0.262 0.016-0.259-0.001-0.528-0.001-0.788-0-0.115-0.011-0.232 0.012-0.345 0.028-0.139 0.117-0.246 0.151-0.378 0.028-0.106 0.015-0.217 0.040-0.328 0.065-0.283 0.126-0.565 0.154-0.855 0.006-0.068 0.012-0.138 0.029-0.205 0.032-0.121 0.104-0.199 0.21-0.257 0.179-0.098 0.428-0.049 0.626-0.049 0.226 0 0.497-0.051 0.7 0.067 0.218 0.126 0.365-0.003 0.454-0.216 0.287-0.686 0.656-1.336 1.099-1.927 0.13-0.173 0.29-0.356 0.331-0.579 0.029-0.158-0.029-0.3-0.106-0.434-0.104-0.181-0.219-0.351-0.307-0.541-0.055-0.119-0.117-0.233-0.174-0.351-0.029-0.061-0.058-0.122-0.090-0.182-0.014-0.027-0.051-0.126-0.078-0.138-0.015-0.006-0.027-0.016-0.038-0.029-0.006-0.031-0.010-0.062-0.014-0.094-0.047-0.218-0.152-0.402-0.217-0.608-0.034-0.108-0.106-0.2-0.123-0.316-0.013-0.086-0.037-0.239-0.009-0.322 0.015-0.044 0.055-0.076 0.087-0.107 0.23-0.224 0.479-0.426 0.71-0.647 0.316-0.302 0.722-0.425 1.071-0.668 0.056-0.039 0.12-0.121 0.193-0.122 0.090-0.002 0.16 0.117 0.219 0.173 0.081 0.077 0.166 0.146 0.236 0.234 0.045 0.057 0.086 0.121 0.142 0.173 0.042 0.039 0.085 0.056 0.128 0.088 0.012 0.011 0.020 0.024 0.025 0.039 0.018 0.006 0.037 0.010 0.057 0.012 0.112 0.083 0.228 0.176 0.333 0.263 0.066 0.056 0.144 0.104 0.208 0.164 0.026 0.024 0.045 0.068 0.071 0.093 0.041 0.041 0.089 0.064 0.13 0.107 0.049 0.051 0.109 0.104 0.14 0.17 0.035 0.075 0.046 0.112 0.131 0.143 0.083 0.030 0.174 0.019 0.261 0.006 0.638-0.092 1.273-0.207 1.903-0.346 0.152-0.033 0.303-0.068 0.455-0.104 0.026-0.006 0.172-0.016 0.195-0.042 0.033-0.040 0.035-0.167 0.046-0.22 0.045-0.214 0.072-0.44 0.122-0.657 0.010-0.046 0.016-0.097 0.030-0.142 0.015-0.047 0.043-0.085 0.059-0.132 0.038-0.112 0.016-0.228 0.040-0.34 0.013-0.061 0.048-0.11 0.060-0.172 0.015-0.077 0.025-0.141 0.049-0.216 0.020-0.064 0.017-0.12 0.022-0.187 0.006-0.090 0.031-0.174 0.047-0.262 0.032-0.173-0.045-0.481 0.108-0.609 0.052-0.043 0.126-0.039 0.189-0.040 0.123-0.002 0.246 0 0.368 0 0.202 0 0.424-0.029 0.624 0.013 0.139 0.029 0.273 0.084 0.414 0.105 0.149 0.023 0.296 0.005 0.445 0.010 0.105 0.004 0.178 0.051 0.276 0.072 0.083 0.018 0.235-0.045 0.292 0.028 0.025 0.032 0.020 0.116 0.027 0.155 0.022 0.124 0.055 0.245 0.074 0.369 0.013 0.086 0.031 0.182 0.064 0.264 0.071 0.178 0.113 0.351 0.163 0.536 0.033 0.123 0.058 0.261 0.112 0.38 0.055 0.122 0.048 0.258 0.081 0.387 0.030 0.116 0.060 0.231 0.064 0.352 0.003 0.077-0.005 0.163 0.028 0.235 0.094 0.206 0.327 0.203 0.514 0.228 0.52 0.070 1.038 0.159 1.553 0.267 0.19 0.040 0.38 0.083 0.569 0.129 0.105 0.025 0.217 0.064 0.326 0.048 0.124-0.018 0.233-0.105 0.33-0.181 0.131-0.103 0.277-0.15 0.419-0.233 0.078-0.046 0.146-0.097 0.226-0.136 0.191-0.092 0.374-0.213 0.535-0.354 0.137-0.121 0.304-0.256 0.475-0.331 0.186-0.081 0.336 0.038 0.48 0.152 0.186 0.145 0.363 0.301 0.535 0.463 0.148 0.14 0.291 0.285 0.432 0.432 0.087 0.091 0.203 0.184 0.274 0.289 0.052 0.076 0.010 0.090-0.055 0.147-0.047 0.041-0.074 0.093-0.103 0.148-0.072 0.138-0.135 0.279-0.218 0.409-0.087 0.135-0.13 0.296-0.208 0.435-0.078 0.137-0.156 0.276-0.233 0.414-0.046 0.084-0.116 0.155-0.16 0.238-0.024 0.045-0.029 0.099-0.049 0.147-0.021 0.052-0.062 0.097-0.081 0.149-0.043 0.115-0.050 0.244-0.085 0.366-0.015 0.052-0.054 0.083-0.062 0.135-0.014 0.084 0.033 0.112 0.083 0.168 0.034 0.039 0.065 0.081 0.1 0.119 0.039 0.041 0.092 0.063 0.129 0.104 0.060 0.067 0.066 0.147 0.14 0.209 0.194 0.161 0.421 0.274 0.627 0.417 0.272 0.189 0.533 0.462 0.579 0.819 0.014 0.108 0.012 0.232 0.082 0.307 0.033 0.036 0.078 0.054 0.122 0.067 0.149 0.041 0.334 0.008 0.489 0.008 0.148 0 0.295 0.001 0.443-0 0.086-0.001 0.152 0.029 0.234 0.034 0.074 0.004 0.151-0.001 0.226-0.001 0.152 0 0.305-0.003 0.457-0.001 0.123 0.002 0.243 0.032 0.367 0.034 0.075 0.001 0.155 0.002 0.222 0.042 0.219 0.132 0.185 0.412 0.249 0.626 0.032 0.108 0.089 0.197 0.124 0.31 0.039 0.124 0.099 0.233 0.132 0.362 0.124 0.472 0.261 0.953 0.261 1.446 0 0.212 0.011 0.393-0.051 0.591-0.069 0.22-0.156 0.432-0.211 0.656-0.122 0.499 0.058 1.071-0.033 1.578-0.017 0.095-0.117 0.19 0.001 0.236 0.060 0.024 0.237-0.062 0.296-0.087 0.258-0.109 0.158-0.593 0.215-0.836 0.042-0.178 0.056-0.354 0.087-0.532 0.032-0.184 0.1-0.315 0.105-0.506 0.004-0.154-0.006-0.279 0.033-0.428 0.058-0.227 0.083-0.391 0.082-0.62-0.001-0.29 0-0.58 0-0.871 0-0.186 0.020-0.382-0.004-0.564z"></path>
</svg>
