<!-- Generated by IcoMoon.io -->
<svg version="1.1" xmlns="http://www.w3.org/2000/svg" width="32" height="32" viewBox="0 0 32 32">
<path d="M21.101 17.669c-0.032 0.11-0.124 0.185-0.16 0.294-0.012 0.035-0.006 0.081-0.020 0.122-0.023 0.065-0.091 0.118-0.12 0.182-0.062 0.14-0.037 0.276-0.135 0.41-0.079 0.109-0.205 0.18-0.284 0.287-0.058 0.079-0.049 0.171-0.104 0.252-0.075 0.112-0.206 0.133-0.272 0.262-0.030 0.057-0.023 0.126-0.060 0.183-0.033 0.050-0.102 0.099-0.142 0.146-0.141 0.165-0.256 0.35-0.393 0.517-0.158 0.193-0.373 0.347-0.582 0.48-0.161 0.103-0.312 0.105-0.489 0.165-0.138 0.046-0.274 0.094-0.415 0.126-0.476 0.111-0.949 0.098-1.439 0.098-0.423 0-0.942 0.090-1.332-0.076-0.268-0.115-0.554-0.22-0.787-0.399-0.105-0.081-0.257-0.166-0.382-0.212-0.084-0.031-0.19-0.043-0.286-0.078-0.264-0.098-0.53-0.159-0.777-0.292-0.266-0.144-0.49-0.32-0.727-0.5-0.096-0.073-0.184-0.164-0.279-0.236-0.124-0.093-0.163-0.241-0.224-0.38-0.070-0.158-0.122-0.319-0.194-0.476-0.090-0.197-0.086-0.372-0.083-0.582 0.003-0.229-0.102-0.416-0.112-0.639-0.011-0.249-0.015-0.472-0.066-0.712-0.026-0.121-0.091-0.224-0.102-0.35-0.010-0.11-0.012-0.255-0.001-0.364 0.010-0.104 0.039-0.229 0.069-0.33 0.024-0.082 0.079-0.144 0.098-0.226 0.017-0.073-0.006-0.147 0.007-0.221 0.045-0.244 0.161-0.405 0.286-0.621 0.041-0.071 0.092-0.163 0.124-0.239 0.016-0.038 0.020-0.114 0.040-0.145 0.027-0.040 0.070-0.030 0.102-0.059 0.083-0.077 0.072-0.186 0.124-0.277 0.122-0.213 0.299-0.386 0.391-0.62 0.097-0.247 0.212-0.514 0.438-0.666 0.114-0.077 0.22-0.156 0.33-0.238 0.097-0.072 0.196-0.104 0.299-0.159 0.096-0.051 0.188-0.128 0.285-0.185 0.116-0.069 0.206-0.152 0.341-0.184 0.18-0.043 0.304-0.081 0.471-0.174 0.492-0.271 0.948-0.333 1.499-0.333h0.85c0.125 0 0.25 0.002 0.376 0 0.213-0.002 0.413 0.052 0.623 0.059 0.028 0.001 0.121-0.018 0.158-0.009 0.087 0.021 0.147 0.097 0.225 0.135 0.106 0.052 0.233 0.075 0.346 0.109 0.146 0.043 0.21 0.059 0.33 0.15 0.307 0.232 0.635 0.429 0.881 0.615-0.016 0.152 0.036 0.171 0.101 0.293 0.040 0.075 0.072 0.18 0.108 0.26 0.066 0.144 0.125 0.307 0.181 0.456 0.034 0.091 0.045 0.188 0.11 0.266 0.041 0.048 0.099 0.075 0.141 0.122 0.12 0.13 0.115 0.271 0.191 0.418 0.062 0.12 0.147 0.213 0.203 0.34 0.035 0.079 0.079 0.153 0.104 0.237 0.022 0.074 0.007 0.165 0.028 0.232 0.040 0.13 0.113 0.185 0.116 0.333 0.006 0.408-0.001 0.816-0.001 1.224v0.568c0 0.194 0.044 0.456-0.010 0.643zM28.898 23.182c-0.052-0.095-0.144-0.165-0.212-0.246-0.123-0.149-0.153-0.334-0.234-0.505-0.046-0.096-0.113-0.172-0.144-0.277-0.033-0.11-0.047-0.212-0.101-0.314-0.092-0.174-0.042-0.334-0.116-0.511-0.032-0.076-0.082-0.117-0.126-0.185-0.082-0.123-0.132-0.28-0.198-0.412-0.095-0.19-0.089-0.418-0.219-0.582s-0.197-0.376-0.338-0.533c-0.293-0.323-0.538-0.659-0.68-1.069-0.054-0.155-0.083-0.309-0.141-0.459-0.066-0.169-0.064-0.375-0.149-0.534-0.053-0.1-0.089-0.135-0.114-0.247-0.027-0.116-0.044-0.132-0.113-0.224-0.131-0.172-0.153-0.404-0.275-0.588-0.127-0.192-0.249-0.386-0.376-0.578-0.071-0.109-0.146-0.196-0.228-0.295-0.088-0.107-0.115-0.249-0.176-0.371-0.054-0.109-0.135-0.184-0.201-0.284-0.046-0.071-0.065-0.156-0.115-0.22-0.082-0.106-0.215-0.166-0.291-0.283-0.053-0.082-0.086-0.17-0.152-0.247-0.155-0.183-0.296-0.366-0.441-0.558-0.073-0.097-0.156-0.188-0.223-0.288-0.084-0.126-0.138-0.284-0.253-0.388-0.065-0.058-0.109-0.087-0.164-0.158s-0.092-0.109-0.168-0.166c-0.096-0.072-0.128-0.116-0.167-0.228-0.051-0.147-0.118-0.258-0.198-0.392-0.080-0.133-0.191-0.274-0.237-0.425-0.030-0.1-0.015-0.185-0.064-0.283-0.053-0.107-0.118-0.203-0.167-0.314-0.080-0.181-0.215-0.303-0.306-0.471-0.124-0.227-0.309-0.405-0.428-0.626-0.116-0.216-0.302-0.409-0.437-0.62-0.068-0.105-0.163-0.193-0.23-0.297-0.051-0.079-0.078-0.167-0.129-0.246-0.060-0.093-0.147-0.14-0.216-0.221s-0.108-0.189-0.178-0.275c-0.080-0.098-0.141-0.181-0.202-0.292-0.072-0.132-0.145-0.197-0.243-0.3-0.163-0.173-0.3-0.44-0.401-0.654-0.051-0.108-0.079-0.223-0.135-0.329s-0.137-0.196-0.178-0.308c-0.044-0.118-0.017-0.255-0.072-0.366-0.045-0.090-0.072-0.136-0.109-0.239-0.090-0.25-0.272-0.52-0.415-0.743-0.146-0.227-0.261-0.472-0.397-0.705-0.117-0.201-0.232-0.378-0.326-0.597-0.092-0.213-0.259-0.393-0.391-0.586-0.13-0.19-0.269-0.367-0.433-0.529-0.321-0.319-0.674-0.594-1.004-0.903-0.045 0.19-0.115 0.38-0.182 0.559-0.080 0.216-0.269 0.363-0.419 0.527-0.124 0.136-0.156 0.301-0.301 0.419-0.033 0.027-0.088 0.047-0.114 0.079-0.051 0.060-0.054 0.138-0.103 0.2-0.093 0.116-0.253 0.134-0.342 0.248-0.095 0.121-0.218 0.188-0.318 0.305-0.096 0.113-0.24 0.231-0.316 0.356-0.085 0.14-0.151 0.332-0.216 0.485-0.12 0.286-0.306 0.575-0.376 0.876-0.032 0.138-0.042 0.248-0.119 0.371-0.145 0.233-0.264 0.468-0.434 0.684-0.211 0.269-0.387 0.562-0.589 0.826-0.048 0.062-0.062 0.070-0.083 0.149-0.019 0.071 0.024 0.086-0.019 0.17-0.032 0.062-0.107 0.109-0.149 0.166-0.070 0.096-0.116 0.206-0.179 0.307-0.165 0.262-0.205 0.547-0.363 0.821-0.090 0.157-0.208 0.286-0.292 0.447-0.1 0.191-0.212 0.371-0.336 0.547-0.097 0.138-0.219 0.26-0.316 0.392-0.221 0.303-0.394 0.652-0.596 0.968-0.083 0.13-0.201 0.232-0.288 0.359-0.070 0.101-0.128 0.212-0.189 0.319-0.068 0.12-0.126 0.236-0.18 0.365-0.092 0.218-0.194 0.384-0.309 0.588-0.186 0.33-0.371 0.662-0.544 0.998-0.121 0.235-0.281 0.45-0.401 0.679-0.043 0.083-0.063 0.178-0.11 0.261-0.056 0.097-0.13 0.173-0.179 0.273-0.055 0.112-0.060 0.234-0.127 0.342-0.088 0.142-0.176 0.237-0.241 0.408-0.094 0.248-0.172 0.481-0.292 0.718-0.102 0.201-0.184 0.414-0.288 0.614-0.078 0.15-0.213 0.255-0.298 0.401-0.111 0.192-0.205 0.399-0.289 0.603-0.102 0.247-0.218 0.486-0.321 0.73-0.114 0.273-0.178 0.561-0.263 0.844-0.079 0.264-0.221 0.49-0.322 0.745-0.109 0.276-0.211 0.528-0.351 0.788-0.074 0.136-0.084 0.212-0.11 0.364-0.021 0.12-0.057 0.16-0.121 0.277-0.106 0.192-0.168 0.401-0.266 0.594-0.085 0.169-0.163 0.344-0.267 0.502-0.063 0.096-0.107 0.197-0.168 0.294-0.062 0.101-0.331 0.3-0.307 0.409 0.701 0.079 1.437 0.019 2.144 0.019h1.109c0.793 0 1.617-0.056 2.399 0.043 0.428 0.054 0.848-0.003 1.276 0.098 0.171 0.040 0.334 0.019 0.51 0.024 0.289 0.008 0.584 0.047 0.874 0.072 0.347 0.029 0.677 0.123 1.022 0.149 0.29 0.022 0.587 0.004 0.878 0.004h3.569c1.089 0 2.162-0.198 3.24-0.342 0.649-0.086 1.31-0.168 1.969-0.161 0.562 0.006 1.125 0.001 1.687 0.001 0.459 0 0.939 0.035 1.397-0.012s0.908-0.046 1.369-0.043c0.39 0.002 0.774-0.076 1.16-0.127 0.273-0.036 0.521-0.064 0.788-0.127 0.141-0.033 0.27-0.025 0.474 0.198-0.133-0.13-0.237-0.273-0.336-0.43-0.055-0.087-0.075-0.182-0.123-0.269z"></path>
<path d="M17.657 15.941c-0.003-0.156-0.058-0.292-0.055-0.449 0.003-0.216 0.041-0.478-0.056-0.666-0.053-0.103-0.039-0.058-0.053-0.173-0.021-0.174-0.092-0.306-0.173-0.458-0.071-0.133-0.167-0.283-0.209-0.428-0.027-0.094-0.016-0.14-0.064-0.231s-0.085-0.175-0.126-0.268c-0.056-0.125-0.135-0.228-0.152-0.367-0.012-0.094-0.019-0.155-0.045-0.243-0.041-0.14-0.070-0.387-0.292-0.338-0.207 0.221-0.326 0.414-0.451 0.602-0.152 0.23-0.383 0.398-0.513 0.638-0.094 0.174-0.223 0.315-0.319 0.486-0.1 0.179-0.173 0.342-0.254 0.529-0.116 0.269-0.298 0.411-0.306 0.735-0.003 0.116 0.004 0.233 0.004 0.349 0 0.306 0.038 0.592 0.054 0.894 0.008 0.141 0.089 0.255 0.116 0.39 0.030 0.147-0.017 0.285 0.038 0.434 0.124 0.336 0.269 0.696 0.46 0.997 0.102 0.161 0.23 0.292 0.323 0.449 0.078 0.132 0.207 0.226 0.28 0.361 0.035 0.065 0.038 0.147 0.078 0.212 0.054 0.087 0.144 0.148 0.214 0.221 0.141 0.148 0.186 0.355 0.332 0.506 0.167-0.003 0.162-0.375 0.21-0.505 0.058-0.161 0.1-0.291 0.133-0.455 0.023-0.112 0.109-0.182 0.163-0.273 0.050-0.085 0.024-0.134 0.060-0.219 0.029-0.070 0.116-0.096 0.15-0.164 0.032-0.064 0.044-0.182 0.065-0.254 0.096-0.32 0.187-0.638 0.22-0.973 0.019-0.2 0.146-0.371 0.174-0.563 0.017-0.113-0.004-0.248-0.004-0.363 0-0.138 0.002-0.276-0-0.413z"></path>
</svg>
