<!-- Generated by IcoMoon.io -->
<svg version="1.1" xmlns="http://www.w3.org/2000/svg" width="32" height="32" viewBox="0 0 32 32">
<path d="M16.306 5.523c-0.023-0.264-0.293-0.282-0.398-0.469-0.028-0.049-0.009-0.072-0.072-0.087-0.031-0.008-0.076 0.003-0.108 0.003-0.107 0.001-0.187-0.030-0.29-0.044-0.416-0.058-0.853-0.040-1.28-0.040-0.289 0-0.596 0.035-0.882-0.004-0.148-0.019-0.279-0.037-0.428-0.037-0.056 0-0.198-0.031-0.244 0.006-0.028 0.023-0.037 0.087-0.064 0.116-0.022 0.021-0.053 0.024-0.077 0.051-0.076 0.090-0.103 0.249-0.083 0.37 0.017 0.101 0.049 0.191 0.022 0.294-0.028 0.101-0.098 0.182-0.144 0.274-0.086 0.169-0.19 0.344-0.343 0.443-0.1 0.065-0.209 0.112-0.316 0.163-0.101 0.050-0.18 0.118-0.297 0.116-0.103-0.001-0.205 0.001-0.308 0.001-0.118 0-0.248-0.018-0.366-0.003-0.069 0.009-0.127 0.041-0.198 0.045-0.063 0.003-0.127-0.001-0.19-0.001-0.099 0-0.274-0.053-0.268 0.108 0.003 0.068 0.037 0.139 0.077 0.185 0.152 0.173 0.306 0.247 0.519 0.24 0.15-0.004 0.497 0.027 0.519 0.258 0.015 0.148-0.035 0.284-0.037 0.429-0.001 0.116-0.036 0.208-0.035 0.322 0.001 0.099-0.022 0.231-0.001 0.326 0.010 0.053 0.028 0.073 0.039 0.128 0.008 0.053 0.010 0.158 0.001 0.212-0.019 0.11-0.107 0.299-0.175 0.377-0.094 0.109-0.2 0.081-0.33 0.081-0.2 0-0.379-0.072-0.576-0.082-0.076-0.005-0.143-0.040-0.218-0.045-0.094-0.006-0.141 0.001-0.232-0.039-0.123-0.054-0.213-0.089-0.299-0.212-0.055-0.081-0.108-0.173-0.117-0.28-0.005-0.073-0.005-0.107-0.024-0.176-0.018-0.063-0.041-0.134-0.048-0.198-0.014-0.152-0.039-0.299-0.030-0.452 0.005-0.104 0.023-0.209-0.024-0.304-0.033-0.068-0.095-0.11-0.137-0.171-0.149-0.208-0.116-0.524-0.169-0.773-0.094-0.435-0.238-0.889-0.172-1.346 0.017-0.116 0.058-0.231 0.092-0.34 0.037-0.117 0.080-0.23 0.119-0.345 0.056-0.166 0.11-0.336 0.158-0.506 0.026-0.094 0.028-0.19 0.046-0.285 0.017-0.085 0.056-0.131 0.092-0.204 0.031-0.063 0.044-0.132 0.072-0.196 0.037-0.083 0.117-0.158 0.181-0.216 0.143-0.126 0.33-0.284 0.507-0.324 0.146-0.032 0.302 0.001 0.451-0.017 0.193-0.022 0.376-0.023 0.569-0.030 0.176-0.005 0.348-0.046 0.526-0.045 0.137 0.001 0.276 0.003 0.413 0.001 0.054-0.001 0.103-0.003 0.155 0.009 0.095 0.019 0.196 0.018 0.291 0.040 0.113 0.026 0.218 0.087 0.335 0.109 0.072 0.013 0.143 0.009 0.216 0.009 0.123-0.001 0.27-0.024 0.39 0.003 0.042 0.010 0.054 0.036 0.11 0.039 0.054 0.003 0.108 0 0.162 0 0.080 0 0.213 0.030 0.279-0.014 0.012-0.008 0.069-0.132 0.073-0.136 0.017-0.019 0.040-0.027 0.055-0.048 0.039-0.053 0.048-0.092 0.065-0.157 0.033-0.114 0.071-0.209 0.068-0.334-0.004-0.143-0.074-0.248-0.136-0.365-0.054-0.101-0.065-0.209-0.089-0.322-0.022-0.109-0.081-0.202-0.136-0.291-0.121-0.199-0.413-0.212-0.603-0.259-0.037-0.010-0.063-0.033-0.114-0.032-0.062 0.001-0.125 0.009-0.184-0.009-0.094-0.030-0.22-0.060-0.321-0.036-0.095 0.022-0.2 0.168-0.255 0.253-0.031 0.049-0.044 0.105-0.035 0.167 0.017 0.105 0.051 0.085 0.146 0.083 0.226-0.004 0.47-0.030 0.692-0.003 0.253 0.031 0.345 0.491 0.317 0.734-0.017 0.141-0.169 0.154-0.272 0.181-0.114 0.030-0.258 0.004-0.376 0.004h-2.279c-0.299 0-0.582 0.041-0.881 0.041-0.253 0-0.501-0.005-0.745 0.045-0.154 0.032-0.276 0.162-0.397 0.264-0.048 0.041-0.091 0.060-0.134 0.107-0.042 0.045-0.085 0.089-0.127 0.136-0.14 0.159-0.171 0.422-0.144 0.638 0.032 0.24-0.041 0.448-0.085 0.683-0.017 0.091-0.062 0.171-0.091 0.259-0.033 0.104-0.050 0.209-0.083 0.312-0.031 0.094-0.065 0.185-0.098 0.277-0.051-0.036-0.094-0.067-0.11-0.089-0.062-0.082-0.158-0.092-0.231-0.153-0.083-0.069-0.103-0.18-0.101-0.293 0.001-0.126 0.003-0.238-0.028-0.356-0.028-0.11-0.065-0.203-0.083-0.315-0.037-0.226-0.033-0.452-0.077-0.675-0.012-0.059-0.026-0.091-0.028-0.154-0.001-0.048 0.009-0.1 0.003-0.146-0.013-0.089-0.055-0.186-0.077-0.267-0.023-0.085-0.062-0.112-0.122-0.153-0.099-0.068-0.186-0.116-0.308-0.123-0.023-0.001-0.198-0.001-0.324-0.005-0.039 0-0.077 0.001-0.121 0.003-0.104 0.001-0.207 0.004-0.309 0.004h-1.871c-0.069 0-0.205-0.031-0.267 0.003-0.030 0.015-0.060 0.068-0.094 0.092-0.030 0.022-0.060 0.051-0.090 0.072-0.022 0.017-0.072 0.032-0.091 0.050-0.023 0.021-0.024 0.048-0.044 0.067-0.012 0.013-0.042 0.003-0.053 0.014-0.207 0.225-0.313 0.493-0.442 0.777-0.046 0.1-0.099 0.186-0.108 0.299-0.013 0.163-0.085 0.318-0.105 0.481-0.024 0.195-0.003 0.413-0.003 0.612 0 0.114-0.014 0.223 0.042 0.324 0.069 0.122 0.176 0.187 0.289 0.24 0.184 0.085 0.393 0.051 0.587 0.051 0.189 0 0.377-0.003 0.565 0 0.18 0.003 0.42-0.113 0.499-0.311 0.081-0.199-0.033-0.606-0.276-0.473-0.090 0.050-0.173 0.178-0.234 0.266-0.078 0.112-0.128 0.101-0.25 0.101-0.103 0-0.207 0.009-0.306-0.021-0.040-0.013-0.091-0.018-0.126-0.039-0.053-0.032-0.068-0.105-0.139-0.116-0.053-0.181 0.005-0.451 0.067-0.618 0.073-0.202 0.195-0.37 0.261-0.582 0.072-0.229 0.136-0.429 0.35-0.501 0.275-0.094 0.543-0.211 0.828-0.208 0.291 0.001 0.584 0.003 0.876 0 0.214-0.004 0.383 0.168 0.519 0.354 0.074 0.101 0.126 0.19 0.187 0.3 0.044 0.080 0.090 0.128 0.119 0.221 0.023 0.067 0.033 0.136 0.051 0.205 0.022 0.086 0.067 0.167 0.081 0.254 0.008 0.055-0.009 0.11-0.001 0.163 0.013 0.089 0.073 0.15 0.104 0.231 0.028 0.076 0.036 0.148 0.051 0.227 0.031 0.159 0.091 0.313 0.135 0.467 0.036 0.126 0.094 0.234 0.136 0.352-0.008-0.040 0.041 0.11 0.11 0.326 0.019 0.095 0.042 0.19 0.078 0.282 0.060 0.155 0.074 0.309 0.109 0.471 0.012 0.049 0.036 0.090 0.049 0.137 0.028 0.1 0.018 0.181 0.019 0.286 0.003 0.175 0.054 0.318 0.119 0.473 0.062 0.141 0.112 0.289 0.141 0.44 0.026 0.127 0.095 0.248 0.105 0.379 0.004 0.049-0.027 0.096-0.032 0.145-0.004 0.049 0.001 0.1 0.003 0.15 0 0.136-0.063 0.247-0.091 0.379-0.010 0.053-0.042 0.094-0.051 0.146-0.008 0.049-0.012 0.081-0.027 0.128-0.019 0.054-0.021 0.113-0.039 0.167-0.018 0.053-0.053 0.104-0.073 0.158-0.037 0.095-0.076 0.202-0.13 0.288-0.048 0.077-0.105 0.155-0.169 0.218-0.053 0.051-0.095 0.11-0.148 0.161-0.035 0.035-0.045 0.065-0.076 0.1-0.056 0.069-0.134 0.113-0.189 0.187-0.050 0.068-0.101 0.136-0.152 0.204-0.090 0.119-0.176 0.231-0.253 0.356-0.091 0.146-0.2 0.284-0.291 0.429-0.039 0.060-0.045 0.145-0.072 0.212-0.019 0.048-0.040 0.089-0.054 0.139-0.031 0.11-0.090 0.205-0.127 0.313-0.069 0.204-0.042 0.439-0.042 0.654 0 0.103 0.003 0.194 0.023 0.293 0.021 0.103-0.009 0.203 0.027 0.303 0.035 0.096 0.051 0.191 0.083 0.289 0.041 0.125 0.051 0.254 0.096 0.379 0.040 0.112 0.114 0.187 0.18 0.28 0.046 0.065 0.118 0.091 0.177 0.143 0.064 0.055 0.152 0.1 0.221 0.144 0.069 0.046 0.14 0.090 0.213 0.13 0.186 0.104 0.399 0.235 0.619 0.245 0.081 0.004 0.176 0.008 0.257 0 0.042-0.004 0.073-0.019 0.114-0.027 0.048-0.010 0.096 0.004 0.144-0.001 0.105-0.012 0.204-0.042 0.303-0.074 0.085-0.027 0.173-0.037 0.258-0.067 0.078-0.028 0.13-0.068 0.2-0.112 0.032-0.019 0.068-0.033 0.1-0.051 0.060-0.035 0.069-0.076 0.116-0.123 0.060-0.060 0.135-0.105 0.195-0.169 0.062-0.063 0.116-0.182 0.122-0.267 0.012-0.143-0.015-0.271-0.1-0.384-0.104-0.137-0.348-0.285-0.52-0.196 0.080 0.019 0.098 0.035 0.158 0.086 0.048 0.039 0.056 0.027 0.059 0.094 0.001 0.017 0.001 0.040 0 0.056-0.009 0.136-0.077 0.23-0.166 0.325-0.104 0.112-0.194 0.164-0.345 0.164-0.153-0.001-0.306 0-0.46 0-0.146 0-0.272-0.005-0.415-0.036-0.126-0.027-0.254-0.081-0.369-0.137-0.182-0.089-0.298-0.253-0.379-0.43-0.036-0.078-0.078-0.105-0.080-0.195-0.001-0.059 0-0.119 0-0.178 0-0.076-0.004-0.152 0-0.226 0.004-0.073 0.027-0.135 0.028-0.212 0.004-0.164 0.063-0.357 0.123-0.51 0.027-0.068 0.037-0.132 0.056-0.203 0.018-0.063 0.054-0.113 0.081-0.172 0.058-0.128 0.11-0.262 0.171-0.394 0.035-0.073 0.065-0.095 0.117-0.157 0.062-0.076 0.107-0.163 0.171-0.239 0.163-0.189 0.347-0.358 0.544-0.508 0.131-0.099 0.307-0.145 0.461-0.189 0.127-0.036 0.299-0.006 0.431-0.006 0.203 0 0.397-0.014 0.588 0.064 0.257 0.107 0.51 0.225 0.76 0.343 0.076 0.035 0.247 0.082 0.3 0.164 0.053 0.080 0.001 0.334-0.039 0.41-0.058 0.109-0.13 0.2-0.208 0.29-0.199 0.231-0.444 0.381-0.696 0.528-0.222 0.13-0.446 0.299-0.682 0.392-0.158 0.063-0.368 0.067-0.514 0.166 0.365 0 0.747-0.024 1.102-0.135 0.243-0.076 0.483-0.166 0.723-0.249 0.154-0.053 0.299-0.131 0.453-0.18 0.182-0.058 0.309-0.169 0.456-0.298 0.136-0.119 0.311-0.14 0.448-0.266 0.035-0.033 0.068-0.095 0.11-0.118 0.064-0.033 0.171-0.006 0.24-0.006 0.187 0.001 0.406-0.037 0.591 0.008 0.083 0.021 0.14 0.071 0.212 0.118 0.099 0.065 0.207 0.092 0.311 0.144 0.185 0.092 0.38 0.171 0.561 0.27 0.168 0.092 0.342 0.158 0.524 0.199 0.119 0.027 0.203 0.099 0.315 0.15 0.096 0.045 0.202 0.078 0.302 0.113 0.225 0.078 0.564 0.243 0.761 0.041 0.132-0.135 0.272-0.254 0.362-0.437 0.1-0.203 0.223-0.428 0.286-0.648 0.033-0.113 0.077-0.231 0.074-0.352-0.006-0.268-0.235-0.383-0.29 0.062-0.046 0.008-0.067-0.021-0.107-0.033-0.049-0.014-0.098-0.004-0.148-0.018-0.086-0.026-0.184-0.062-0.268-0.094-0.208-0.080-0.429-0.089-0.647-0.103-0.076-0.005-0.143-0.042-0.217-0.046-0.049-0.003-0.098 0.010-0.146 0-0.118-0.027-0.227-0.122-0.34-0.166-0.173-0.067-0.322-0.171-0.485-0.266-0.040-0.024-0.082-0.026-0.126-0.044-0.051-0.022-0.054-0.048-0.092-0.081-0.074-0.065-0.18-0.116-0.266-0.162-0.076-0.041-0.163-0.065-0.209-0.155-0.017-0.031-0.014-0.063-0.033-0.095-0.015-0.027-0.049-0.042-0.064-0.071-0.069-0.123-0.126-0.29-0.125-0.437 0.001-0.212-0.030-0.451 0.008-0.657 0.037-0.204 0.064-0.383 0.064-0.594 0-0.178 0.032-0.399-0.027-0.564-0.051-0.139-0.072-0.34-0.048-0.498 0.013-0.082 0.040-0.181 0.073-0.25 0.045-0.091 0.112-0.166 0.159-0.254 0.051-0.096 0.089-0.178 0.149-0.271 0.030-0.045 0.045-0.101 0.074-0.146 0.032-0.051 0.071-0.096 0.096-0.154 0.045-0.094 0.101-0.178 0.158-0.264 0.024-0.039 0.063-0.127 0.103-0.152 0.026-0.014 0.059-0.005 0.086-0.013 0.078-0.024 0.136-0.099 0.182-0.171 0.065-0.101 0.148-0.209 0.234-0.286 0.073-0.064 0.169-0.039 0.262-0.039h0.962c0.125 0 0.318-0.041 0.422 0.030 0.068 0.045 0.073 0.139 0.091 0.221 0.021 0.091 0.008 0.196 0.008 0.291 0.001 0.112 0.010 0.178-0.077 0.25-0.098 0.081-0.22 0.126-0.336 0.125-0.083-0.001-0.186-0.018-0.27-0.003-0.041 0.008-0.065 0.035-0.1 0.055-0.031 0.019-0.063 0.017-0.095 0.035-0.046 0.024-0.085 0.085-0.094 0.14-0.005 0.030-0.006 0.1 0 0.128 0.014 0.068 0.012 0.053 0.072 0.062 0.137 0.021 0.268-0.040 0.403-0.044 0.162-0.005 0.307 0.006 0.462-0.050 0.167-0.062 0.354-0.044 0.521-0.11 0.144-0.058 0.347-0.158 0.375-0.353 0.008-0.058-0.003-0.116 0.005-0.172 0.009-0.058 0.030-0.108 0.035-0.166 0.013-0.13 0.013-0.297 0.001-0.428z"></path>
<path d="M18.435 7.791c0.005 0.044 0.021 0.082 0.027 0.126s-0.001 0.087 0.005 0.131c0.022 0.15 0.185 0.226 0.299 0.271 0.132 0.051 0.282 0.037 0.416 0.083 0.125 0.044 0.24 0.035 0.369 0.039 0.108 0.003 0.212 0.050 0.322 0.033 0.048-0.006 0.046 0.005 0.056-0.046 0.005-0.022 0.004-0.076 0-0.099-0.008-0.042-0.037-0.089-0.074-0.108-0.026-0.012-0.051-0.010-0.076-0.026-0.028-0.015-0.048-0.036-0.080-0.041-0.067-0.012-0.149 0.001-0.216 0.001-0.094 0.001-0.191-0.033-0.268-0.095-0.069-0.055-0.063-0.107-0.062-0.191 0-0.073-0.010-0.153 0.006-0.223 0.014-0.063 0.018-0.134 0.072-0.168 0.083-0.054 0.239-0.022 0.338-0.022h0.516c0.083 0 0.167-0.001 0.25 0 0.074 0 0.151-0.021 0.209 0.028 0.069 0.060 0.135 0.141 0.186 0.218 0.039 0.055 0.083 0.113 0.146 0.131 0.022 0.006 0.049-0.001 0.068 0.010 0.033 0.018 0.063 0.086 0.083 0.116 0.044 0.065 0.090 0.131 0.125 0.203 0.022 0.044 0.053 0.077 0.077 0.117 0.023 0.035 0.036 0.077 0.060 0.112 0.048 0.071 0.077 0.134 0.118 0.208 0.037 0.067 0.091 0.125 0.127 0.194 0.027 0.053 0.048 0.128 0.058 0.19 0.019 0.122 0.004 0.275-0.037 0.381-0.048 0.126-0.022 0.294-0.022 0.43 0 0.162-0.11 0.253-0.073 0.457 0.037 0.207 0.006 0.446 0.008 0.657 0.001 0.145-0.055 0.313-0.125 0.437-0.015 0.028-0.048 0.044-0.064 0.071-0.019 0.032-0.017 0.064-0.032 0.095-0.048 0.090-0.135 0.114-0.211 0.155-0.086 0.046-0.191 0.096-0.266 0.162-0.039 0.033-0.041 0.059-0.092 0.081-0.044 0.018-0.086 0.019-0.126 0.044-0.163 0.095-0.312 0.198-0.485 0.266-0.113 0.044-0.222 0.139-0.34 0.166-0.049 0.010-0.098-0.003-0.146 0-0.074 0.004-0.143 0.041-0.217 0.046-0.218 0.014-0.439 0.023-0.647 0.103-0.085 0.032-0.182 0.068-0.268 0.094-0.049 0.014-0.098 0.004-0.148 0.018-0.040 0.013-0.060 0.041-0.107 0.033-0.055-0.444-0.284-0.33-0.289-0.062-0.004 0.121 0.040 0.239 0.073 0.352 0.063 0.221 0.186 0.446 0.286 0.648 0.090 0.182 0.23 0.302 0.362 0.437 0.198 0.202 0.537 0.037 0.761-0.041 0.1-0.035 0.205-0.068 0.302-0.113 0.112-0.051 0.195-0.123 0.315-0.15 0.182-0.041 0.356-0.107 0.524-0.199 0.181-0.099 0.376-0.178 0.561-0.27 0.104-0.051 0.212-0.078 0.311-0.144 0.072-0.048 0.128-0.098 0.212-0.118 0.185-0.045 0.403-0.006 0.591-0.008 0.069 0 0.176-0.028 0.24 0.006 0.041 0.023 0.076 0.085 0.11 0.118 0.137 0.126 0.312 0.146 0.448 0.266 0.148 0.128 0.273 0.239 0.456 0.298 0.154 0.049 0.299 0.127 0.453 0.18 0.24 0.083 0.48 0.173 0.723 0.249 0.354 0.11 0.737 0.135 1.102 0.135-0.145-0.099-0.356-0.103-0.514-0.166-0.236-0.092-0.46-0.262-0.682-0.392-0.252-0.146-0.497-0.297-0.696-0.528-0.078-0.091-0.15-0.181-0.208-0.29-0.040-0.077-0.091-0.33-0.039-0.41 0.054-0.082 0.225-0.13 0.3-0.164 0.151-0.072 0.295-0.161 0.451-0.208 0.119-0.037 0.254-0.064 0.343-0.157 0.091-0.096 0.15-0.090 0.285-0.090 0.078 0 0.139 0.005 0.214 0.022 0.168 0.037 0.286 0.141 0.395 0.27 0.071 0.082 0.123 0.168 0.186 0.255 0.046 0.062 0.077 0.135 0.122 0.194 0.083 0.107 0.158 0.226 0.259 0.315 0.094 0.081 0.195 0.149 0.281 0.239 0.048 0.049 0.077 0.073 0.143 0.091 0.048 0.014 0.090 0.039 0.136 0.059 0.041 0.018 0.058 0.017 0.1 0.021 0.035 0.003 0.063 0.018 0.086 0.022 0.128 0.022 0.27 0.006 0.402 0.006h0.539c0.162 0 0.33 0.005 0.482-0.048 0.128-0.044 0.268-0.126 0.381-0.203 0.087-0.062 0.222-0.11 0.28-0.207 0.017-0.028 0.014-0.049 0.037-0.074s0.059-0.045 0.085-0.071c0.055-0.054 0.11-0.126 0.154-0.189 0.037-0.055 0.065-0.123 0.099-0.182 0.027-0.046 0.028-0.032 0.063-0.065 0.040-0.037 0.065-0.116 0.080-0.167 0.031-0.107 0.019-0.293 0.006-0.403-0.006-0.055-0.030-0.082-0.028-0.143 0-0.051 0.003-0.1-0.008-0.15-0.010-0.058-0.019-0.125-0.042-0.172-0.036-0.074-0.096-0.159-0.146-0.222-0.051-0.063-0.163-0.128-0.234-0.181-0.087-0.064-0.185-0.136-0.288-0.167-0.127-0.037-0.267-0.027-0.403-0.027-0.048 0-0.335-0.030-0.313 0.053 0.040 0.014 0.099 0.017 0.141 0.027 0.041 0.010 0.076 0.028 0.113 0.036 0.049 0.012 0.072 0.001 0.117 0.028 0.033 0.019 0.078 0.039 0.109 0.064 0.137 0.114 0.238 0.266 0.235 0.453-0.001 0.099-0.003 0.184-0.022 0.28-0.019 0.089-0.006 0.152-0.044 0.236-0.095 0.214-0.187 0.384-0.366 0.546-0.13 0.118-0.289 0.241-0.465 0.281-0.155 0.035-0.363 0.013-0.511-0.022-0.15-0.036-0.34-0.117-0.431-0.247-0.028-0.041-0.031-0.091-0.049-0.136-0.018-0.042-0.046-0.077-0.063-0.121-0.030-0.076-0.059-0.155-0.091-0.23-0.033-0.077-0.099-0.148-0.113-0.229-0.023-0.122-0.076-0.255-0.126-0.368-0.041-0.094-0.11-0.175-0.15-0.272-0.030-0.072-0.042-0.149-0.054-0.226-0.012-0.073-0.024-0.148-0.031-0.221-0.030-0.334 0.086-0.659 0.081-0.991-0.004-0.249 0.074-0.511 0.171-0.734 0.065-0.154 0.117-0.298 0.119-0.473 0.001-0.105-0.009-0.187 0.019-0.286 0.013-0.048-0.056-0.345-0.050-0.384 0.024-0.126 0.033-0.245 0.073-0.366 0.024-0.072 0.040-0.146 0.053-0.221 0.046-0.168 0.080-0.285 0.074-0.254 0.028-0.091 0.067-0.176 0.091-0.274 0.030-0.119 0.069-0.24 0.090-0.365 0.010-0.062 0.015-0.118 0.035-0.177 0.021-0.063 0.062-0.112 0.069-0.18 0.005-0.041-0.006-0.085 0-0.127 0.008-0.068 0.039-0.131 0.054-0.199 0.012-0.053 0.018-0.107 0.033-0.159 0.021-0.072 0.051-0.109 0.081-0.172 0.040-0.086 0.074-0.155 0.125-0.235 0.091-0.144 0.204-0.277 0.348-0.276 0.195 0.004 0.39 0.001 0.587 0 0.19-0.001 0.37 0.090 0.553 0.163 0.144 0.056 0.187 0.212 0.235 0.39 0.044 0.164 0.126 0.295 0.175 0.453 0.041 0.13 0.080 0.339 0.044 0.48-0.046 0.009-0.056 0.065-0.092 0.090-0.023 0.017-0.058 0.022-0.083 0.031-0.067 0.023-0.136 0.017-0.205 0.015-0.081 0-0.114 0.009-0.167-0.080-0.041-0.067-0.096-0.167-0.157-0.205-0.163-0.104-0.239 0.213-0.185 0.369 0.054 0.153 0.214 0.244 0.335 0.241 0.126-0.001 0.252 0 0.378 0 0.13 0 0.271 0.026 0.393-0.040 0.076-0.041 0.146-0.092 0.193-0.187 0.039-0.077 0.030-0.163 0.030-0.252 0-0.155 0.014-0.325-0.003-0.478-0.013-0.126-0.062-0.248-0.069-0.375-0.006-0.089-0.042-0.155-0.073-0.234-0.086-0.221-0.157-0.43-0.295-0.605-0.008-0.009-0.027-0.001-0.036-0.012-0.013-0.014-0.013-0.035-0.028-0.051-0.022-0.023-0.063-0.028-0.080-0.055-0.012-0.015-0.009-0.037-0.015-0.055-0.015-0.044-0.053-0.076-0.076-0.114-0.031-0.053-0.045-0.080-0.112-0.086-0.063-0.006-0.131 0-0.195 0-0.076 0-0.15 0-0.226 0-0.122 0-0.256 0.017-0.376-0.005-0.134-0.023-0.272-0.064-0.41-0.027-0.036 0.009-0.062 0.005-0.098 0.010-0.031 0.003-0.059 0.018-0.090 0.022-0.077 0.012-0.16 0.013-0.234 0.032-0.122 0.033-0.247 0.032-0.376 0.032-0.046 0-0.127-0.015-0.168 0.005-0.036 0.018-0.062 0.069-0.074 0.103-0.045 0.121-0.037 0.241-0.037 0.371 0 0.065 0.005 0.135 0 0.2-0.006 0.076-0.040 0.155-0.065 0.226-0.012 0.032-0.023 0.056-0.042 0.086-0.022 0.033-0.028 0.065-0.045 0.098-0.012 0.022-0.030 0.036-0.046 0.053-0.035 0.036-0.056 0.076-0.082 0.116-0.074 0.114-0.187 0.121-0.313 0.122-0.116 0.001-0.268-0.114-0.268-0.236 0.001-0.067-0.022-0.127-0.021-0.194 0-0.053 0.009-0.118-0.005-0.168-0.008-0.027-0.018-0.032-0.017-0.069 0-0.023 0.004-0.050-0.003-0.073-0.009-0.032-0.015-0.044-0.019-0.086-0.001-0.039-0.015-0.083-0.027-0.121-0.019-0.062-0.036-0.14-0.039-0.204-0.001-0.044-0.008-0.073-0.015-0.114-0.008-0.039 0.003-0.076-0.004-0.113-0.021-0.117-0.073-0.273-0.144-0.366-0.028-0.036-0.069-0.078-0.116-0.087-0.063-0.012-0.144 0.001-0.205 0.001h-0.84c-0.064 0-0.145-0.014-0.205 0.004-0.053 0.017-0.116 0.048-0.151 0.092-0.010 0.014-0.031 0.041-0.036 0.058-0.006 0.015-0.003 0.044-0.010 0.058-0.010 0.017-0.031 0.032-0.044 0.046-0.076 0.081-0.167 0.065-0.273 0.065-0.148-0.001-0.295 0-0.443 0-0.055 0-0.125-0.012-0.178-0.001-0.035 0.006-0.056 0.022-0.091 0.023-0.037 0.001-0.062 0.001-0.098 0.010-0.048 0.012-0.116 0.022-0.167 0.012-0.064-0.012-0.112-0.053-0.162-0.092-0.009-0.008-0.012-0.024-0.023-0.032-0.021-0.015-0.056-0.013-0.080-0.026-0.037-0.021-0.059-0.058-0.074-0.092-0.027-0.063-0.054-0.116-0.045-0.189 0.010-0.080 0.101-0.144 0.154-0.203 0.041-0.049 0.087-0.091 0.122-0.143 0.041-0.060 0.077-0.073 0.146-0.089 0.082-0.018 0.155-0.041 0.243-0.040 0.064 0 0.117-0.001 0.176-0.017 0.037-0.010 0.073 0.001 0.108-0.009 0.040-0.012 0.074-0.041 0.1-0.071 0.123-0.137 0.163-0.357 0.139-0.539-0.019-0.144-0.15-0.203-0.28-0.204-0.083-0.001-0.162-0.023-0.245-0.023-0.107 0-0.213 0-0.32 0h-2.461c-0.101 0-0.145 0.004-0.227 0.060-0.114 0.077-0.164 0.212-0.19 0.344-0.012 0.064-0.017 0.121 0.051 0.146 0.058 0.022 0.163 0.017 0.225 0.010 0.059-0.005 0.103-0.041 0.14-0.086 0.045-0.054 0.040-0.087 0.118-0.087 0.208 0.003 0.43 0.022 0.634-0.010 0.11-0.018 0.223-0.012 0.335-0.010 0.13 0 0.257-0.023 0.388-0.022 0.107 0 0.212 0 0.318 0 0.086 0 0.2-0.022 0.282 0.001 0.033 0.116-0.055 0.208-0.131 0.277-0.083 0.077-0.177 0.135-0.271 0.2-0.080 0.055-0.205 0.164-0.243 0.253-0.046 0.113-0.073 0.231-0.123 0.342-0.037 0.080-0.042 0.177-0.065 0.261-0.023 0.089-0.005 0.198 0.022 0.281 0.017 0.051 0.042 0.083 0.080 0.119 0.026 0.026 0.037 0.056 0.063 0.080 0.032 0.030 0.11 0.051 0.154 0.062 0.059 0.012 0.108-0.012 0.157-0.039 0.094-0.053 0.211-0.119 0.317-0.135 0.13-0.021 0.259-0.045 0.392-0.044 0.202 0.001 0.403 0 0.605 0 0.226 0 0.454-0.012 0.679-0.001 0.050 0.003 0.094 0.022 0.144 0.023 0.062 0 0.119 0.013 0.18 0.021 0.123 0.015 0.231 0.069 0.34 0.125 0.031 0.015 0.050 0.036 0.074 0.059 0.032 0.031 0.067 0.048 0.103 0.074 0.081 0.062 0.16 0.114 0.226 0.19 0.026 0.028 0.055 0.059 0.076 0.091 0.032 0.049 0.036 0.103 0.069 0.152 0.060 0.089 0.105 0.203 0.091 0.309-0.015 0.126 0.033 0.248 0.067 0.367 0.026 0.094 0.054 0.185 0.080 0.28 0.023 0.089-0.017 0.226 0 0.342 0.065 0.457-0.078 0.91-0.172 1.346-0.053 0.249-0.021 0.564-0.169 0.773-0.042 0.060-0.104 0.103-0.137 0.171-0.048 0.095-0.030 0.2-0.023 0.304 0.008 0.153-0.017 0.3-0.031 0.451-0.006 0.065-0.030 0.136-0.048 0.199-0.019 0.069-0.019 0.103-0.024 0.176-0.009 0.107-0.062 0.199-0.117 0.28-0.085 0.123-0.176 0.158-0.299 0.212-0.091 0.040-0.139 0.032-0.232 0.039-0.076 0.005-0.143 0.040-0.218 0.045-0.198 0.010-0.376 0.082-0.576 0.082-0.13 0-0.236 0.028-0.33-0.081-0.068-0.078-0.157-0.267-0.175-0.377-0.009-0.054-0.144-0.067-0.136-0.108 0.006-0.042 0.022-0.058 0.031-0.098 0.015-0.073-0.003-0.175-0.003-0.249 0.001-0.087-0.026-0.158-0.027-0.247-0.003-0.112-0.042-0.214-0.031-0.327 0.018-0.176 0.295-0.2 0.415-0.196 0.169 0.004 0.293-0.051 0.413-0.185 0.032-0.035 0.059-0.089 0.062-0.141 0.004-0.122-0.135-0.082-0.214-0.082-0.050 0-0.101 0.004-0.15 0.001-0.056-0.003-0.104-0.027-0.159-0.035-0.094-0.012-0.196 0.003-0.291 0.003-0.082 0-0.164-0.001-0.247-0.001-0.092 0.001-0.155-0.050-0.236-0.087-0.085-0.040-0.172-0.076-0.252-0.126-0.122-0.074-0.205-0.208-0.273-0.338-0.037-0.069-0.092-0.132-0.114-0.209-0.022-0.078 0.004-0.148 0.017-0.225 0.015-0.092-0.005-0.213-0.067-0.282-0.019-0.021-0.044-0.023-0.060-0.040-0.022-0.021-0.030-0.069-0.053-0.087-0.036-0.028-0.149-0.005-0.194-0.005-0.119 0-0.223 0.014-0.342 0.030-0.227 0.028-0.473 0.003-0.704 0.003-0.342 0-0.689-0.014-1.021 0.030-0.082 0.012-0.148 0.035-0.232 0.033-0.024 0-0.062-0.008-0.086-0.001-0.049 0.012-0.035 0.028-0.056 0.067-0.085 0.141-0.299 0.155-0.318 0.357-0.009 0.101-0.009 0.229 0.001 0.327z"></path>
<path d="M26.264 18.489c-0.004-0.026-0.017-0.040-0.026-0.067s-0.008-0.058-0.022-0.085c-0.023-0.046-0.037-0.094-0.059-0.139-0.023-0.045-0.046-0.11-0.053-0.16-0.005-0.036-0.017-0.060-0.026-0.095-0.006-0.022 0.001-0.045-0.005-0.065-0.008-0.023-0.022-0.042-0.028-0.067-0.009-0.035-0.023-0.065-0.040-0.096-0.028-0.056-0.054-0.114-0.073-0.173-0.013-0.040-0.036-0.077-0.050-0.117-0.008-0.021-0.006-0.039-0.015-0.058s-0.024-0.037-0.033-0.056c-0.024-0.049-0.062-0.090-0.089-0.137-0.022-0.039-0.048-0.072-0.072-0.112-0.022-0.039-0.040-0.080-0.060-0.119-0.012-0.022-0.028-0.042-0.037-0.064-0.032-0.077-0.085-0.136-0.121-0.211-0.028-0.060-0.068-0.119-0.104-0.176-0.040-0.063-0.076-0.122-0.122-0.18-0.062-0.077-0.125-0.139-0.194-0.208-0.033-0.035-0.071-0.064-0.109-0.092-0.033-0.024-0.065-0.053-0.101-0.073-0.031-0.018-0.064-0.031-0.095-0.050-0.017-0.010-0.032-0.024-0.049-0.033-0.048-0.022-0.101-0.031-0.149-0.053-0.023-0.012-0.039-0.027-0.064-0.037-0.019-0.006-0.039-0.013-0.058-0.021-0.040-0.015-0.076-0.039-0.116-0.055-0.081-0.032-0.162-0.050-0.248-0.073-0.065-0.018-0.13-0.033-0.19-0.065-0.031-0.018-0.062-0.030-0.095-0.040-0.041-0.012-0.085-0.039-0.127-0.048-0.036-0.008-0.071-0.004-0.104-0.024-0.026-0.015-0.054-0.028-0.082-0.042-0.035-0.018-0.072-0.028-0.108-0.040-0.107-0.037-0.208-0.083-0.312-0.126-0.096-0.039-0.202-0.039-0.299-0.077-0.059-0.023-0.109-0.062-0.163-0.096-0.131-0.083-0.294-0.103-0.439-0.15-0.068-0.021-0.104-0.023-0.173-0.031-0.022-0.003-0.036-0.008-0.049-0.014-0.081-0.13-0.186-0.241-0.338-0.333-0.164-0.1-0.345-0.186-0.532-0.258-0.101-0.225-0.168-0.476-0.351-0.628-0.169-0.14-0.344-0.252-0.541-0.352-0.018-0.009-0.11-0.055-0.236-0.117l-0.526-0.587c0.044-0.036 0.081-0.076 0.123-0.126 0.275-0.33 0.562-0.654 0.899-0.924 0.014-0.012 0.028-0.024 0.044-0.036 0.158-0.131 0.315-0.274 0.433-0.443 0.046-0.065 0.095-0.143 0.116-0.222 0.010-0.036 0.001-0.067 0.019-0.101 0.024-0.046 0.021-0.076 0.021-0.126 0-0.054 0-0.107 0-0.161 0-0.004 0-0.009 0-0.013-0.001-0.027-0.012-0.045-0.015-0.071-0.005-0.024 0.005-0.049-0.003-0.072-0.008-0.026-0.019-0.045-0.026-0.072-0.006-0.031-0.015-0.062-0.028-0.090-0.014-0.033-0.035-0.062-0.048-0.098-0.012-0.036-0.014-0.050-0.054-0.040-0.041 0.012-0.081 0.031-0.122 0.039-0.027 0.005-0.048 0-0.073 0.010-0.028 0.012-0.049 0.015-0.077 0.023-0.024 0.006-0.044 0.006-0.068 0.010-0.044 0.008-0.071 0.031-0.119 0.031-0.046 0-0.098 0.013-0.143 0.024-0.028 0.008-0.058 0.001-0.087 0.003-0.030 0.003-0.063 0.013-0.092 0.018-0.078 0.015-0.15 0.053-0.227 0.073-0.063 0.018-0.127 0.030-0.185 0.054-0.035 0.014-0.055 0.010-0.094 0.015-0.048 0.005-0.096 0.024-0.141 0.039-0.041 0.014-0.081 0.023-0.121 0.037-0.048 0.017-0.091 0.024-0.137 0.045-0.036 0.017-0.074 0.027-0.112 0.036-0.085 0.021-0.159 0.065-0.243 0.089-0.064 0.018-0.127 0.059-0.185 0.091-0.037 0.019-0.076 0.028-0.107 0.056-0.022 0.019-0.039 0.039-0.062 0.055-0.035 0.023-0.074 0.040-0.112 0.062-0.037 0.023-0.077 0.045-0.113 0.072-0.035 0.027-0.059 0.067-0.096 0.090-0.026 0.017-0.053 0.013-0.082 0.017-0.073 0.010-0.14 0.074-0.191 0.121-0.032 0.031-0.062 0.064-0.090 0.098-0.050 0.059-0.098 0.105-0.175 0.119-0.105 0.021-0.23 0.003-0.336-0.004-0.13-0.009-0.258-0.033-0.379-0.081-0.162-0.062-0.313-0.136-0.46-0.229-0.074-0.046-0.143-0.107-0.217-0.154-0.031-0.021-0.053-0.049-0.086-0.067-0.039-0.022-0.069-0.044-0.108-0.069-0.053-0.037-0.1-0.077-0.15-0.113-0.069-0.051-0.148-0.094-0.212-0.152-0.055-0.050-0.104-0.078-0.172-0.108-0.058-0.023-0.107-0.069-0.163-0.096-0.026-0.013-0.054-0.013-0.080-0.027-0.019-0.010-0.032-0.030-0.049-0.039-0.031-0.019-0.056-0.021-0.091-0.031-0.087-0.028-0.168-0.1-0.258-0.121-0.033-0.008-0.064 0.003-0.096-0.003-0.031-0.006-0.054-0.019-0.086-0.023-0.046-0.005-0.083-0.019-0.13-0.033-0.018-0.005-0.039-0.005-0.055-0.009-0.010-0.004-0.028-0.015-0.035-0.018-0.035-0.006-0.068-0.005-0.103-0.004-0.050 0-0.085-0.015-0.131-0.023-0.045-0.008-0.092 0.006-0.137-0.001-0.042-0.006-0.081-0.026-0.121-0.036-0.107-0.027-0.222-0.032-0.333-0.026-0.072 0.004-0.14 0.026-0.212 0.032-0.046 0.005-0.157-0.019-0.193 0.023-0.042 0.051 0.044 0.14 0.073 0.175 0.453 0.528 0.903 1.061 1.409 1.658-0.761 0.295-1.569 0.431-2.133 1.031-0.136 0.144-0.325 0.248-0.428 0.41-0.398 0.624-0.767 1.265-1.153 1.896-0.297 0.484-0.58 0.978-0.91 1.438-0.425 0.593-0.89 1.158-1.342 1.732-0.081 0.103-0.166 0.217-0.275 0.28-0.402 0.226-0.797 0.482-1.226 0.637-0.358 0.13-0.722 0.24-1.088 0.344-0.299 0.085-0.607 0.19-0.914 0.244-0.117 0.021-0.199 0.039-0.264 0.149-0.045 0.076-0.065 0.185-0.107 0.267-0.044 0.086-0.049 0.175-0.069 0.267-0.030 0.136-0.077 0.275-0.108 0.407-0.033 0.148-0.009 0.317-0.010 0.469 0 0.146 0.042 0.267 0.049 0.408 0.006 0.132-0.023 0.275 0.009 0.404 0.067 0.263 0.176 0.494 0.333 0.71 0.125 0.172 0.281 0.363 0.463 0.474 0.187 0.114 0.356 0.259 0.539 0.38 0.069 0.045 0.132 0.096 0.198 0.141 0.099 0.067 0.184 0.137 0.293 0.177 0.14 0.053 0.247 0.13 0.378 0.191 0.081 0.039 0.163 0.065 0.244 0.108 0.109 0.058 0.231 0.074 0.345 0.128 0.114 0.053 0.207 0.136 0.315 0.202 0.101 0.062 0.223 0.099 0.318 0.169 0.181 0.134 0.297 0.311 0.393 0.505 0.049 0.099 0.089 0.194 0.128 0.297 0.041 0.11 0.123 0.185 0.155 0.298 0.027 0.092 0.092 0.159 0.108 0.256 0.013 0.078-0.012 0.154 0.009 0.232 0.013 0.053 0.045 0.109 0.060 0.162 0.071 0.243 0.071 0.502 0.071 0.759 0 0.194 0.023 0.402 0.001 0.593-0.010 0.095-0.046 0.144-0.048 0.248-0.001 0.131-0.054 0.244-0.085 0.369-0.027 0.105-0.014 0.232-0.012 0.343 0.001 0.073 0.022 0.113 0.037 0.178 0.013 0.054-0.001 0.112 0.014 0.162 0.032 0.101 0.13 0.199 0.164 0.312 0.036 0.116 0.071 0.259 0.069 0.379-0.001 0.11 0.008 0.222 0.001 0.331-0.006 0.117-0.050 0.211-0.049 0.333 0.001 0.121-0.012 0.225 0.056 0.331 0.214 0.329 0.351-0.19 0.458-0.347 0.125-0.181 0.267-0.267 0.463-0.351 0.263-0.113 0.489-0.298 0.728-0.452 0.293-0.189 0.591-0.369 0.891-0.543 0.442-0.254 0.897-0.543 1.226-0.922 1.012-1.159 1.818-2.46 2.482-3.856 0.027-0.058 0.054-0.116 0.081-0.173 0.101-0.213 0.202-0.426 0.303-0.638 0.014-0.031 0.030-0.060 0.044-0.091l-0.035 0.028c-0.012 0.014-0.024 0.026-0.039 0.030l0.039-0.030c0.068-0.089 0.089-0.34 0.091-0.424 0.003-0.076-0.005-0.151-0.001-0.226 0.004-0.077 0.032-0.131 0.045-0.204 0.010-0.051-0.008-0.081 0.023-0.128 0.030-0.048 0.074-0.064 0.098-0.118 0.026-0.059 0.048-0.182 0.053-0.247 0.017-0.169-0.001-0.351-0.001-0.52 0-0.143 0.031-0.276-0.086-0.378-0.045-0.040-0.139-0.044-0.168-0.094-0.041-0.072 0.017-0.185 0.028-0.252 0.036-0.199 0.131-0.369 0.208-0.552 0.065-0.154 0.099-0.297-0.089-0.168-0.148 0.1-0.232 0.222-0.334 0.367-0.053 0.074-0.116 0.144-0.171 0.217-0.072 0.095-0.155 0.225-0.25 0.302-0.191 0.157-0.357 0.333-0.534 0.511-0.041 0.041-0.085 0.074-0.114 0.127-0.028 0.049-0.072 0.16-0.042 0.218 0.032 0.062 0.021 0.031 0.086 0.048 0.176 0.044 0.417-0.103 0.471 0.149 0.013 0.058 0.021 0.171-0.003 0.227-0.028 0.067-0.126 0.104-0.168 0.15-0.026 0.027-0.046 0.101-0.082 0.114-0.045 0.017-0.071-0.028-0.11-0.035-0.062-0.012-0.128-0.003-0.193-0.004-0.128-0.003-0.204 0.071-0.289 0.167-0.271 0.309-0.526 0.638-0.781 0.964-0.033 0.042-0.035 0.080-0.080 0.118-0.041 0.035-0.095 0.051-0.136 0.087-0.058 0.049-0.112 0.117-0.163 0.175-0.118 0.134-0.229 0.271-0.353 0.397-0.13 0.131-0.255 0.252-0.388 0.375-0.078 0.074-0.169 0.153-0.239 0.234-0.077 0.087-0.148 0.149-0.238 0.231-0.158 0.146-0.29 0.326-0.438 0.483-0.099 0.104-0.18 0.321-0.311 0.381-0.072 0.032-0.166-0.021-0.238-0.036-0.087-0.019-0.184-0.019-0.221-0.118-0.062-0.157 0.044-0.277 0.114-0.399 0.022-0.036 0.031-0.064 0.051-0.095 0.021-0.033 0.048-0.064 0.071-0.098 0.044-0.063 0.091-0.114 0.136-0.173 0.040-0.054 0.076-0.121 0.113-0.177 0.082-0.122 0.184-0.241 0.253-0.37 0.309-0.576 0.696-1.094 1.141-1.573 0.074-0.080 0.121-0.18 0.194-0.262 0.044-0.049 0.083-0.095 0.119-0.15 0.1-0.157 0.168-0.334 0.3-0.462 0.113-0.11 0.222-0.225 0.326-0.344 0.067-0.076 0.146-0.13 0.19-0.222 0.056-0.117 0.085-0.222 0.177-0.318 0.067-0.069 0.121-0.123 0.177-0.202 0.154-0.213 0.286-0.44 0.465-0.636 0.117-0.128 0.175-0.308 0.112-0.478-0.064-0.172-0.231-0.026-0.338 0.035-0.141 0.078-0.275 0.166-0.42 0.236-0.154 0.076-0.288 0.194-0.421 0.302-0.157 0.127-0.262 0.276-0.399 0.421-0.064 0.068-0.105 0.145-0.169 0.214-0.063 0.065-0.135 0.123-0.191 0.194-0.090 0.112-0.198 0.207-0.309 0.297-0.096 0.077-0.176 0.048-0.285 0.076-0.1 0.026-0.193 0.104-0.295 0.136-0.090 0.028-0.205 0.051-0.302 0.031-0.081-0.017-0.071-0.003-0.085-0.086-0.019-0.123 0.077-0.194 0.162-0.271 0.137-0.122 0.281-0.225 0.43-0.334 0.162-0.117 0.329-0.207 0.469-0.344 0.162-0.158 0.353-0.289 0.512-0.453 0.099-0.099 0.218-0.225 0.325-0.315 0.104-0.085 0.158-0.204 0.257-0.3 0.037-0.036 0.065-0.050 0.098-0.094 0.024-0.035 0.048-0.077 0.074-0.109 0.048-0.059 0.113-0.101 0.163-0.16 0.092-0.109 0.207-0.191 0.312-0.293 0.059-0.056 0.137-0.089 0.164-0.171 0.019-0.060 0.008-0.131 0.008-0.194 0.001-0.055 0.030-0.177-0.039-0.202-0.051-0.019-0.245 0.090-0.282 0.109-0.3 0.164-0.555 0.467-0.885 0.543-0.1 0.023-0.366 0.107-0.227-0.096 0.022-0.032 0.064-0.064 0.095-0.086 0.063-0.041 0.127-0.078 0.185-0.119 0.094-0.067 0.199-0.123 0.291-0.187 0.099-0.068 0.158-0.122 0.225-0.22 0.058-0.086 0.135-0.132 0.199-0.204 0.015-0.017 0.003-0.063 0.015-0.078 0.022-0.026 0.050-0.030 0.068-0.051 0.042-0.048 0.063-0.126 0.095-0.172 0.037-0.055 0.085-0.091 0.13-0.139 0.086-0.087 0.13-0.213 0.216-0.3 0.069-0.069 0.146-0.121 0.208-0.202 0.073-0.095 0.18-0.159 0.255-0.253 0.113-0.139 0.23-0.28 0.357-0.407 0.074-0.073 0.166-0.2 0.279-0.203 0.146-0.001 0.195 0.194 0.194 0.307-0.001 0.063 0.015 0.153 0.004 0.214-0.014 0.068-0.072 0.112-0.103 0.173-0.039 0.076-0.026 0.132-0.030 0.214-0.004 0.117-0.073 0.145-0.112 0.249-0.041 0.112-0.099 0.277-0.105 0.398-0.004 0.069-0.008 0.148 0.010 0.214 0.019 0.072 0.022 0.119 0.032 0.194 0.009 0.064 0.054 0.185 0.089 0.241 0.032 0.056 0.095 0.077 0.15 0.126 0.082 0.071 0.148 0.069 0.238 0.116 0.065 0.035 0.11 0.083 0.182 0.112 0.098 0.039 0.193 0.087 0.291 0.118 0.069 0.022 0.144 0.033 0.214 0.053 0.202 0.056 0.389 0.083 0.596 0.118 0.178 0.028 0.348 0.108 0.528 0.132 0.162 0.022 0.351-0.003 0.515-0.003h1.466c0.086 0 0.172-0.001 0.258 0 0.089 0.001 0.13 0.031 0.214 0.045 0.055 0.010 0.117-0.013 0.172-0.004 0.078 0.013 0.136 0.080 0.216 0.089l-0.004 0.003c0.244 0.051 0.462 0.137 0.7 0.262 0.113 0.059 0.217 0.172 0.293 0.27 0.092 0.121 0.226 0.29 0.36 0.366 0.023 0.006 0.046 0.010 0.069 0.017l-0.014 0.005c0.024 0.006 0.049 0.010 0.077 0.015 0.267 0.058 0.528 0.153 0.782 0.252 0.928 0.365 1.846 0.32 1.968-0.718 0.389-0.266 0.818-0.407 0.967-0.693 0.059-0.116 0.135-0.297 0.15-0.462 0.121-0.113 0.256-0.217 0.253-0.393-0.001-0.073 0.012-0.149 0.001-0.221z"></path>
</svg>
