<!-- Generated by IcoMoon.io -->
<svg version="1.1" xmlns="http://www.w3.org/2000/svg" width="32" height="32" viewBox="0 0 32 32">
<path d="M9.281 29.243c-0.089-0.416-0.162-1.419-0.162-2.227 0-2.677 0.651-5.352 1.954-8.022 0.72-1.477 1.947-3.102 2.174-2.881 0.272 0.265-0.531 5.3-1.36 8.523-0.205 0.797-0.373 1.501-0.373 1.564 0 0.393 3.223-3.604 3.488-4.325 0.046-0.126 0.121-0.137 0.23-0.036 0.255 0.237-0.996 2.702-2.181 4.299-1.139 1.535-2.546 3.108-3.19 3.566l-0.417 0.297zM21.464 29.081c-1.768-1.118-4.128-3.927-5.367-6.388-0.97-1.925-1.902-5.272-1.469-5.272 0.451 0 3.677 4.033 5.523 6.904 0.468 0.729 0.866 1.309 0.885 1.29 0.159-0.166-0.603-4.804-0.909-5.537-0.075-0.178-0.041-0.262 0.103-0.262 0.429 0 1.302 2.349 1.764 4.746 0.36 1.865 0.548 4.39 0.352 4.738-0.125 0.224-0.218 0.2-0.882-0.22zM13.76 25.823c0-0.216 1.14-1.858 1.572-2.263 0.395-0.371 0.401-0.372 0.622-0.075 0.272 0.364 1.25 2.011 1.25 2.104 0 0.219-0.437-0.007-0.913-0.472l-0.552-0.539-0.877 0.688c-0.88 0.691-1.101 0.803-1.101 0.556zM15.307 25.721c-0.117-0.305 0.162-0.579 0.47-0.461 0.191 0.073 0.208 0.155 0.080 0.394-0.193 0.361-0.426 0.389-0.55 0.067zM21.894 21.052c-0.724-0.904-1.274-1.847-1.196-2.051 0.040-0.104 0.513-0.3 1.052-0.435 1.736-0.436 2.091-0.266 0.852 0.409l-0.74 0.403 0.366 0.972c0.201 0.535 0.366 1.038 0.366 1.118 0 0.289-0.257 0.136-0.699-0.415zM13.603 21.23c-0.308-0.371-0.008-1.028 0.495-1.086 0.312-0.036 0.447 0.038 0.574 0.318 0.34 0.746-0.555 1.389-1.070 0.768zM18.434 20.482c-0.671-0.47-0.246-1.478 0.482-1.146 0.49 0.223 0.627 0.726 0.298 1.090-0.316 0.349-0.358 0.352-0.78 0.056zM9.322 19.517c0.050-0.371 0.128-0.808 0.173-0.973 0.069-0.254-0.076-0.363-0.971-0.723-0.579-0.233-1.053-0.486-1.053-0.561 0-0.272 2.866-0.027 3.163 0.271 0.129 0.129-0.813 2.081-1.175 2.436-0.205 0.201-0.219 0.154-0.137-0.449zM22.46 19.911c-0.129-0.156-0.114-0.251 0.063-0.398 0.286-0.237 0.605 0.012 0.469 0.368-0.111 0.289-0.308 0.3-0.532 0.030zM8.37 18.619c0-0.247 0.078-0.309 0.337-0.272 0.185 0.026 0.337 0.149 0.337 0.272s-0.152 0.246-0.337 0.272c-0.259 0.037-0.337-0.026-0.337-0.272zM17.353 18.443c0-0.367 3.329-2.44 6.154-3.831 1.461-0.719 2.661-1.369 2.668-1.443 0.010-0.111-4.098-0.032-5.303 0.102-0.165 0.018-0.322-0.034-0.349-0.117-0.085-0.257 1.982-0.805 3.727-0.987 1.713-0.179 4.966-0.11 5.74 0.122l0.434 0.13-0.659 0.748c-2.533 2.878-7.122 5.111-11.102 5.401-1.099 0.080-1.31 0.060-1.31-0.126zM15.097 17.357c-0.503-0.283-0.957-1.285-0.824-1.817 0.305-1.214 1.79-1.678 2.643-0.825 0.356 0.356 0.438 0.565 0.438 1.121 0 1.244-1.251 2.088-2.256 1.522zM9.343 16.689c-1.935-0.564-5.365-2.341-6.652-3.447l-0.663-0.57 0.861-0.322c2.398-0.897 6.664-1.011 9.599-0.255 1.524 0.392 3.968 1.45 3.968 1.717 0 0.081-0.32 0.202-0.711 0.269-0.867 0.148-7.876 0.143-9.021-0.005l-0.823-0.107 0.674 0.463c0.817 0.561 3.305 1.832 4.080 2.084 0.309 0.1 0.561 0.244 0.561 0.32 0 0.213-0.877 0.145-1.871-0.145zM11.394 16.044c-0.43-0.43-0.082-1.018 0.602-1.018 0.526 0 0.878 0.597 0.569 0.969-0.226 0.273-0.919 0.302-1.171 0.049zM18.169 16.062c-0.441-0.713-1.296-4.733-1.973-9.271l-0.123-0.823-0.389 1.048c-0.214 0.576-0.573 1.789-0.798 2.695-0.563 2.264-0.518 2.148-0.704 1.818-0.257-0.457 0.123-3.332 0.711-5.381 0.466-1.625 1.488-4.148 1.681-4.148 0.267 0 1.284 1.919 1.762 3.324 0.684 2.011 0.882 3.34 0.885 5.958 0.003 2.166-0.041 2.623-0.355 3.706-0.346 1.195-0.488 1.413-0.698 1.074zM19.755 15.108c-0.231-0.279-0.071-0.785 0.314-0.991 0.228-0.122 0.386-0.104 0.664 0.079 0.435 0.285 0.461 0.547 0.090 0.882-0.338 0.306-0.828 0.32-1.068 0.030zM15.293 12.756c-0.453-0.453-0.073-1.41 0.515-1.297 0.355 0.068 0.613 0.804 0.401 1.142-0.2 0.319-0.673 0.399-0.916 0.155zM19.809 11.479c0.057-0.577 0.159-1.244 0.227-1.483l0.124-0.435 0.169 0.421c0.093 0.232 0.169 0.653 0.169 0.936v0.514h1.21c0.9 0 1.195 0.048 1.15 0.187-0.076 0.237-1.46 0.707-2.42 0.821l-0.733 0.087zM12.637 11.653c-0.082-0.030-0.538-0.165-1.013-0.299s-0.824-0.306-0.777-0.382 0.486-0.138 0.975-0.138c0.885 0 0.889-0.002 0.889-0.442 0-0.243 0.078-0.799 0.173-1.235l0.173-0.793 0.197 0.474c0.108 0.261 0.242 1.019 0.298 1.684l0.101 1.21-0.433-0.012c-0.238-0.007-0.501-0.037-0.583-0.067zM21.051 11.038c-0.236-0.236-0.096-0.524 0.232-0.477 0.185 0.026 0.337 0.148 0.337 0.27 0 0.238-0.394 0.381-0.569 0.207zM11.839 10.061c0.027-0.193 0.151-0.35 0.274-0.35 0.325 0 0.28 0.584-0.050 0.648-0.213 0.041-0.263-0.026-0.225-0.297z"></path>
</svg>
