<!-- Generated by IcoMoon.io -->
<svg version="1.1" xmlns="http://www.w3.org/2000/svg" width="32" height="32" viewBox="0 0 32 32">
<path d="M26.226 26.663c-0.009-0.062-0.061-0.148-0.118-0.18-0.084-0.049-0.19 0.006-0.282-0.016-0.033-0.008-0.043-0.036-0.076-0.044-0.040-0.010-0.101 0.002-0.141 0.002-0.093 0-0.186 0-0.279 0-0.045 0-0.096-0.006-0.14-0.001-0.042 0.005-0.056 0.023-0.088 0.032-0.045 0.013-0.083 0.007-0.131 0.008-0.054 0.002-0.067 0.019-0.108 0.032-0.036 0.011-0.078 0.021-0.111 0.029-0.036 0.008-0.083 0.009-0.122 0.018-0.033 0.008-0.043 0.036-0.075 0.044-0.050 0.012-0.101-0.014-0.152 0.006-0.149 0.058-0.255 0.211-0.427 0.232-0.046 0.006-0.094-0.008-0.14-0.002-0.041 0.005-0.057 0.023-0.088 0.032-0.044 0.012-0.089-0.003-0.132 0.007s-0.075 0.027-0.116 0.041c-0.087 0.029-0.166 0.041-0.26 0.040-0.103-0.001-0.181 0.035-0.279 0.041-0.085 0.005-0.173-0.001-0.259-0.001-0.105 0-0.18-0.030-0.278-0.041-0.18-0.021-0.376 0.002-0.557 0.002s-0.364 0-0.546 0c-0.114-0-0.185-0.014-0.29-0.036-0.096-0.021-0.202 0.016-0.298-0.001-0.18-0.032-0.356-0.1-0.537-0.123-0.089-0.011-0.171-0.028-0.259-0.038-0.051-0.006-0.090-0.027-0.139-0.036-0.046-0.009-0.097 0.009-0.141-0.001-0.039-0.009-0.054-0.036-0.096-0.043-0.044-0.008-0.087 0.005-0.132-0.007-0.065-0.018-0.138-0.051-0.206-0.072-0.176-0.054-0.36-0.119-0.539-0.162-0.080-0.019-0.146-0.050-0.218-0.077-0.086-0.033-0.166-0.022-0.26-0.042-0.092-0.020-0.159-0.036-0.259-0.036-0.090 0-0.19-0.013-0.28-0.001-0.046 0.006-0.063 0.028-0.102 0.037s-0.079-0.005-0.118 0.002c-0.042 0.008-0.057 0.034-0.096 0.043-0.052 0.012-0.107-0.008-0.161 0.007-0.314 0.083-0.637 0.215-0.953 0.311-0.087 0.026-0.184 0.024-0.272 0.048-0.028 0.008-0.051 0.024-0.088 0.031-0.056 0.010-0.103 0.027-0.16 0.041-0.165 0.040-0.327 0.107-0.498 0.118-0.084 0.006-0.131 0.041-0.219 0.040-0.099-0.001-0.199 0-0.298 0-0.179 0-0.358-0.001-0.537 0-0.185 0.001-0.367-0.081-0.557-0.031-0.085 0.022-0.163 0.049-0.255 0.028-0.028-0.006-0.049-0.030-0.082-0.038-0.047-0.012-0.111 0.002-0.161 0.002-0.36-0-0.718-0.128-1.055-0.208-0.199-0.047-0.378-0.178-0.577-0.23-0.154-0.040-0.324-0.089-0.458-0.159-0.072-0.038-0.156-0.060-0.239-0.081-0.088-0.022-0.187-0.066-0.278-0.081-0.039-0.006-0.072 0.004-0.111-0.007-0.041-0.011-0.055-0.029-0.108-0.031-0.045-0.002-0.095 0.010-0.14 0.002-0.050-0.009-0.088-0.038-0.139-0.044-0.046-0.005-0.086 0.002-0.13-0.007-0.027-0.006-0.049-0.028-0.087-0.032-0.096-0.010-0.161-0.043-0.26-0.039-0.090 0.003-0.17 0.030-0.26 0.039-0.042 0.004-0.056 0.023-0.088 0.032-0.052 0.014-0.098 0.002-0.151 0.008-0.072 0.008-0.145 0.039-0.218 0.060-0.036 0.010-0.078 0.043-0.108 0.051-0.051 0.014-0.099-0.002-0.15 0.007-0.094 0.016-0.157 0.043-0.259 0.042-0.103-0.001-0.181 0.030-0.278 0.041-0.084 0.010-0.174-0.007-0.259-0.002-0.097 0.005-0.176 0.041-0.279 0.041-0.093-0.001-0.186 0-0.279 0-0.040 0-0.080-0.003-0.119-0.001-0.060 0.003-0.102 0.033-0.159 0.043-0.039 0.007-0.081-0.011-0.119-0.004-0.051 0.009-0.088 0.038-0.139 0.043-0.049 0.005-0.090-0.006-0.139 0.007-0.053 0.014-0.081 0.030-0.139 0.031-0.109 0.002-0.201 0.039-0.309 0.040-0.1 0.002-0.231-0.023-0.329-0.002-0.034 0.007-0.053 0.032-0.082 0.038-0.045 0.010-0.090 0-0.136 0.012-0.064 0.016-0.185 0.017-0.225 0.073 0.355-0.020 0.726-0.017 1.081-0.002 0.049 0.002 0.070 0.021 0.108 0.031 0.039 0.011 0.072 0 0.111 0.007 0.084 0.014 0.178 0.061 0.255 0.086 0.055 0.018 0.119 0.059 0.173 0.086 0.078 0.039 0.124 0.058 0.209 0.078 0.164 0.039 0.312 0.143 0.478 0.181 0.088 0.020 0.171 0.046 0.259 0.069 0.090 0.024 0.204 0.031 0.29 0.067 0.141 0.059 0.255 0.189 0.383 0.271 0.083 0.053 0.153 0.128 0.223 0.199 0.094 0.096 0.182 0.139 0.299 0.199 0.157 0.081 0.298 0.2 0.455 0.278 0.174 0.087 0.377 0.131 0.559 0.199 0.17 0.064 0.35 0.099 0.517 0.14 0.142 0.034 0.282 0.118 0.421 0.174 0.328 0.134 0.614 0.294 0.932 0.453 0.335 0.167 0.654 0.291 1.012 0.392 0.060 0.017 0.133 0.051 0.191 0.067 0.086 0.023 0.2 0.045 0.29 0.049 0.092 0.004 0.165 0.041 0.259 0.040s0.186 0 0.279 0h0.557c0.086 0 0.172-0.002 0.259-0 0.099 0.002 0.177 0.041 0.279 0.040 0.186-0.002 0.371 0 0.557 0 0.19 0 0.348 0.040 0.537 0.040 0.199 0 0.398 0.001 0.597 0 0.043-0 0.1-0.010 0.141-0.002 0.034 0.007 0.052 0.031 0.082 0.038 0.084 0.020 0.207 0.009 0.295 0.004 0.091-0.005 0.163-0.042 0.259-0.041 0.104 0.001 0.181-0.028 0.279-0.041 0.084-0.011 0.174 0.007 0.259 0.002 0.104-0.006 0.188-0.041 0.298-0.041 0.191 0 0.356-0.006 0.537-0.049 0.093-0.022 0.186-0.057 0.279-0.080s0.186-0.048 0.279-0.070c0.181-0.043 0.358-0.12 0.537-0.164 0.192-0.047 0.378-0.093 0.559-0.191 0.144-0.078 0.29-0.163 0.456-0.202 0.087-0.020 0.201-0.041 0.281-0.081 0.078-0.039 0.153-0.094 0.236-0.13 0.167-0.072 0.343-0.112 0.518-0.178 0.163-0.061 0.324-0.144 0.497-0.189 0.187-0.049 0.336-0.127 0.518-0.2 0.18-0.072 0.365-0.11 0.537-0.207 0.158-0.089 0.308-0.187 0.478-0.26 0.084-0.036 0.174-0.055 0.259-0.088 0.088-0.034 0.156-0.097 0.239-0.14 0.138-0.072 0.268-0.175 0.397-0.258 0.174-0.112 0.364-0.196 0.538-0.309 0.117-0.076 0.239-0.131 0.37-0.178 0.136-0.049 0.247-0.147 0.228-0.011z"></path>
<path d="M20.574 27.857c0.098-0.080-0.010-0.218 0.046-0.31 0.024-0.039 0.093-0.074 0.124-0.12 0.038-0.054 0.073-0.111 0.109-0.168 0.127-0.2 0.221-0.425 0.328-0.637 0.064-0.127 0.113-0.264 0.16-0.399 0.049-0.14 0.054-0.294 0.109-0.437 0.045-0.116 0.054-0.238 0.090-0.359 0.038-0.126 0.085-0.242 0.106-0.374 0.042-0.261 0.051-0.526 0.114-0.779 0.026-0.106 0.051-0.206 0.049-0.318-0.003-0.132 0.040-0.246 0.040-0.379-0-0.119-0.001-0.239 0-0.358s-0.041-0.217-0.040-0.338c0.002-0.213-0.040-0.408-0.040-0.617 0-0.115-0.038-0.208-0.040-0.318-0.002-0.116-0.034-0.19-0.038-0.299-0.005-0.105-0.059-0.216-0.091-0.318-0.016-0.052-0.048-0.106-0.061-0.159-0.007-0.030-0.003-0.052-0.009-0.080-0.006-0.029-0.026-0.066-0.031-0.088-0.010-0.048-0.005-0.094-0.018-0.142-0.005-0.018-0.027-0.019-0.033-0.046-0.006-0.026 0.010-0.058 0.004-0.084-0.018-0.082-0.085-0.181-0.117-0.26-0.082-0.205-0.142-0.408-0.233-0.614s-0.135-0.413-0.205-0.617c-0.071-0.208-0.194-0.404-0.203-0.617-0.010-0.223-0.131-0.436-0.161-0.656-0.008-0.060-0.022-0.1-0.035-0.159-0.012-0.053 0.004-0.106-0.002-0.159-0.006-0.057-0.036-0.102-0.043-0.159-0.007-0.062 0.008-0.118-0.007-0.179-0.055-0.212-0.031-0.453-0.031-0.676 0-0.094-0.014-0.204 0.003-0.295 0.009-0.048 0.034-0.061 0.037-0.122 0.002-0.056-0.015-0.128-0.002-0.182 0.009-0.036 0.029-0.080 0.041-0.116 0.017-0.054 0.024-0.112 0.040-0.162 0.031-0.1 0.069-0.204 0.081-0.316 0.023-0.216 0.185-0.403 0.235-0.617 0.025-0.106 0.035-0.218 0.079-0.32 0.015-0.035 0.030-0.062 0.045-0.096 0.030-0.071 0.082-0.133 0.112-0.201 0.094-0.215 0.192-0.44 0.306-0.657s0.237-0.421 0.309-0.657c0.034-0.112 0.102-0.209 0.14-0.318 0.040-0.115 0.090-0.227 0.148-0.338 0.054-0.104 0.076-0.21 0.12-0.318s0.070-0.227 0.097-0.338c0.057-0.236 0.122-0.469 0.121-0.716-0.001-0.115 0.041-0.206 0.040-0.318-0.001-0.098-0.019-0.222-0.002-0.318 0.010-0.058 0.044-0.097 0.044-0.159s-0.033-0.1-0.044-0.159c-0.019-0.11 0.001-0.246 0.002-0.358s-0.040-0.203-0.040-0.318c0-0.052 0.007-0.109 0.001-0.16-0.006-0.056-0.031-0.084-0.042-0.137-0.011-0.051 0.010-0.11 0.003-0.161-0.008-0.057-0.036-0.102-0.043-0.159-0.013-0.11 0.022-0.23 0.004-0.338-0.018-0.107-0.079-0.215-0.112-0.318-0.035-0.114-0.073-0.226-0.11-0.339-0.026-0.081-0.063-0.164-0.103-0.237-0.060-0.109-0.103-0.218-0.147-0.34-0.067-0.184-0.138-0.362-0.236-0.526-0.052-0.088-0.178-0.156-0.208-0.253-0.014-0.046-0.001-0.108-0.003-0.156-0.003-0.070-0.029-0.079-0.042-0.137-0.006-0.026 0.010-0.058 0.004-0.084-0.006-0.028-0.028-0.028-0.033-0.046-0.014-0.050-0.009-0.098-0.009-0.15 0.001-0.119 0-0.239 0-0.358 0-0.21 0.033-0.385 0.083-0.577 0.027-0.103 0.071-0.165 0.126-0.248s0.11-0.145 0.108-0.25c-0.001-0.106 0-0.212 0-0.318 0-0.052 0.007-0.109 0.001-0.16-0.006-0.056-0.030-0.085-0.042-0.137-0.023-0.096-0.020-0.212-0.057-0.3-0.039-0.093-0.104-0.186-0.142-0.278-0.023-0.056-0.005-0.060-0.049-0.11-0.024-0.028-0.053-0.054-0.080-0.080-0.056-0.056-0.11-0.116-0.169-0.169-0.067-0.061-0.145-0.128-0.218-0.18-0.043-0.030-0.173-0.106-0.225-0.101 0.062 0.051 0.117 0.139 0.135 0.211 0.012 0.047 0.008 0.094 0.018 0.141 0.008 0.041 0.032 0.071 0.031 0.128-0.001 0.101 0.020 0.22 0.002 0.318-0.018 0.103-0.071 0.208-0.044 0.32 0.011 0.047 0.041 0.062 0.044 0.116 0.004 0.065-0.033 0.1-0.044 0.16-0.021 0.122 0.006 0.201-0.049 0.318-0.042 0.092-0.024 0.182-0.078 0.269-0.064 0.105-0.113 0.14-0.11 0.269 0.002 0.099-0.021 0.196-0.049 0.29-0.015 0.051-0.036 0.060-0.032 0.128 0.004 0.065 0.034 0.115 0.042 0.179 0.013 0.097-0.008 0.201-0.002 0.298 0.003 0.059 0.019 0.104 0.041 0.159 0.025 0.064 0.024 0.118 0.039 0.181 0.009 0.039 0.034 0.059 0.043 0.096 0.012 0.050-0.014 0.11-0.004 0.161 0.009 0.050 0.035 0.102 0.052 0.15 0.017 0.051 0.022 0.089 0.034 0.148 0.021 0.106 0.084 0.2 0.127 0.298s0.073 0.201 0.113 0.297c0.037 0.089 0.066 0.172 0.104 0.26 0.044 0.105 0.119 0.18 0.132 0.298 0.010 0.094 0.018 0.161 0.047 0.25 0.024 0.073 0.095 0.138 0.13 0.208 0.181 0.352 0.298 0.755 0.299 1.154 0 0.1-0 0.199 0 0.298 0 0.121-0.041 0.221-0.040 0.338 0.001 0.099 0.002 0.199 0 0.298-0.001 0.068-0.022 0.096-0.037 0.159-0.013 0.058 0.001 0.12-0.002 0.179-0.011 0.201-0.112 0.459-0.21 0.638-0.082 0.149-0.18 0.332-0.22 0.486-0.025 0.096-0.037 0.191-0.068 0.29-0.032 0.102-0.096 0.188-0.101 0.298-0.009 0.215-0.085 0.432-0.148 0.637-0.031 0.1-0.071 0.199-0.118 0.287-0.052 0.098-0.081 0.205-0.12 0.31-0.073 0.193-0.166 0.399-0.258 0.587-0.021 0.044-0.052 0.078-0.070 0.128-0.019 0.052-0.032 0.106-0.050 0.159-0.034 0.104-0.044 0.212-0.069 0.318-0.050 0.211-0.185 0.388-0.25 0.597-0.034 0.108-0.050 0.208-0.068 0.318-0.015 0.097-0.068 0.185-0.091 0.279-0.027 0.11-0.024 0.202-0.030 0.318-0.003 0.061-0.033 0.101-0.043 0.159-0.009 0.049 0.002 0.109 0.002 0.159 0 0.106 0 0.212 0 0.318 0 0.122 0.033 0.221 0.040 0.338 0.006 0.105 0.042 0.19 0.040 0.299-0.002 0.118 0.041 0.216 0.040 0.338-0.002 0.205 0.091 0.37 0.154 0.557 0.072 0.213 0.156 0.424 0.224 0.637 0.026 0.081 0.069 0.154 0.091 0.227 0.032 0.109 0.039 0.224 0.083 0.331 0.069 0.165 0.156 0.357 0.2 0.519 0.026 0.095 0.061 0.197 0.084 0.295 0.012 0.050 0.032 0.108 0.041 0.159 0.004 0.025-0.010 0.057-0.004 0.082 0.007 0.033 0.030 0.034 0.038 0.062 0.011 0.039 0.031 0.084 0.040 0.119 0.009 0.036 0.035 0.089 0.040 0.119 0.008 0.044-0.006 0.092 0.001 0.136 0.013 0.074 0.043 0.12 0.042 0.199-0.004 0.221 0.108 0.416 0.118 0.635 0.007 0.138 0.049 0.256 0.042 0.4-0.008 0.171-0.075 0.332-0.032 0.509 0.11 0.462-0.034 0.97 0.030 1.442 0.013 0.092 0.041 0.154 0.041 0.258-0 0.053-0.001 0.106 0 0.159 0.001 0.069-0.029 0.119-0.033 0.179-0.004 0.055 0.030 0.102 0.034 0.159 0.003 0.046-0.001 0.093-0.001 0.139 0 0.113-0.001 0.226 0 0.338 0.001 0.124-0.031 0.236-0.040 0.358-0.008 0.118-0.024 0.241-0.049 0.356-0.054 0.254-0.106 0.518-0.219 0.76-0.152 0.325-0.245 0.674-0.090 0.954z"></path>
<path d="M16.156 24.713c0.128-0.029 0.169-0.287 0.209-0.389 0.059-0.152 0.136-0.31 0.194-0.467 0.032-0.088 0.061-0.147 0.074-0.239 0.006-0.044 0.028-0.077 0.038-0.12 0.012-0.052-0.010-0.11 0.002-0.161 0.018-0.074 0.040-0.112 0.041-0.198 0.001-0.093 0.041-0.164 0.040-0.259-0.002-0.181-0.040-0.336-0.040-0.517 0-0.075 0.015-0.166 0.002-0.239-0.014-0.077-0.064-0.154-0.078-0.222-0.034-0.159-0.024-0.341-0.063-0.494-0.037-0.142-0.063-0.287-0.098-0.438-0.040-0.168-0.104-0.359-0.169-0.518-0.024-0.060-0.071-0.112-0.1-0.167-0.043-0.081-0.071-0.123-0.094-0.206-0.035-0.127-0.106-0.271-0.16-0.4-0.063-0.151-0.106-0.304-0.163-0.459-0.065-0.177-0.177-0.332-0.221-0.518-0.039-0.166-0.069-0.328-0.087-0.498-0.009-0.085-0.042-0.148-0.041-0.239 0.001-0.092-0.002-0.177 0.020-0.259 0.040-0.15 0.030-0.323 0.069-0.478 0.040-0.16 0.15-0.266 0.221-0.407s0.111-0.313 0.208-0.446c0.161-0.222 0.323-0.457 0.468-0.701 0.149-0.251 0.267-0.536 0.363-0.815 0.067-0.195 0.098-0.393 0.145-0.595 0.019-0.080 0.006-0.161 0.023-0.241 0.020-0.093 0.036-0.159 0.036-0.259 0-0.161-0.032-0.362 0.009-0.517s0.050-0.338 0.011-0.496c-0.043-0.173-0.020-0.376-0.020-0.557 0-0.090 0.013-0.191 0.002-0.28-0.012-0.091-0.036-0.163-0.040-0.259-0.008-0.176-0.101-0.343-0.12-0.518-0.018-0.162-0.069-0.342-0.124-0.497-0.060-0.17-0.093-0.325-0.19-0.483-0.086-0.14-0.148-0.3-0.214-0.453-0.117-0.269-0.276-0.493-0.367-0.777-0.021-0.066-0.073-0.127-0.090-0.188-0.022-0.077-0.022-0.134-0.054-0.208-0.029-0.068-0.052-0.134-0.080-0.199-0.017-0.040-0.022-0.083-0.035-0.122-0.011-0.033-0.034-0.063-0.042-0.096-0.018-0.075 0.003-0.182 0.002-0.261-0.001-0.091 0.032-0.137 0.041-0.218 0.008-0.078 0.031-0.126 0.040-0.199 0.010-0.084-0.001-0.175-0.001-0.26 0-0.086 0.012-0.159-0.029-0.23-0.030-0.052-0.074-0.097-0.11-0.147-0.054-0.074-0.087-0.12-0.159-0.181-0.059-0.049-0.115-0.095-0.169-0.149-0.102-0.102-0.233-0.156-0.333-0.253 0.061 0.061 0.081 0.072 0.085 0.163 0.003 0.085-0.011 0.175-0.001 0.26 0.009 0.081 0.041 0.128 0.041 0.218-0 0.038 0.008 0.084 0.002 0.121-0.007 0.039-0.040 0.061-0.044 0.097-0.006 0.049 0.029 0.058 0.035 0.090 0.011 0.059-0.017 0.074-0.028 0.13-0.008 0.040 0.002 0.080-0.007 0.119-0.011 0.050-0.046 0.084-0.040 0.139 0.006 0.050 0.039 0.088 0.044 0.139 0.004 0.039-0.007 0.077 0.002 0.116 0.007 0.029 0.031 0.048 0.038 0.082 0.009 0.041-0.001 0.098-0.001 0.141-0.001 0.082 0.023 0.143 0.043 0.219 0.026 0.094 0.049 0.184 0.072 0.279 0.037 0.152 0.090 0.293 0.124 0.436 0.040 0.17 0.076 0.332 0.138 0.499 0.026 0.069 0.080 0.145 0.096 0.219 0.019 0.084 0.027 0.156 0.042 0.238 0.013 0.077 0.027 0.16 0.044 0.236 0.008 0.037 0.033 0.056 0.037 0.102 0.005 0.053 0.005 0.089 0.019 0.14 0.021 0.078 0.040 0.16 0.056 0.239 0.010 0.047 0 0.092 0.012 0.139 0.013 0.053 0.030 0.082 0.031 0.139 0.003 0.166-0.031 0.357-0.002 0.519 0.013 0.073 0.064 0.139 0.082 0.218 0.020 0.083 0.023 0.173 0.042 0.255 0.012 0.051 0.061 0.132 0.085 0.183 0.037 0.078 0.084 0.132 0.107 0.219s0.039 0.168 0.043 0.259c0.004 0.091 0.042 0.163 0.041 0.259-0.001 0.076-0.020 0.187-0.002 0.261 0.008 0.032 0.036 0.043 0.044 0.075 0.011 0.046-0.003 0.114-0.002 0.161 0.002 0.18-0.099 0.341-0.119 0.517-0.019 0.172-0.080 0.35-0.118 0.518-0.035 0.153-0.133 0.281-0.169 0.429-0.014 0.058-0.046 0.143-0.071 0.208-0.030 0.078-0.052 0.155-0.090 0.229-0.066 0.131-0.128 0.278-0.197 0.407-0.041 0.077-0.083 0.139-0.116 0.218-0.036 0.084-0.075 0.174-0.106 0.26-0.053 0.147-0.143 0.262-0.218 0.396-0.093 0.167-0.141 0.348-0.218 0.52-0.037 0.083-0.068 0.17-0.087 0.259-0.018 0.084 0.014 0.175-0.001 0.259-0.017 0.095-0.042 0.158-0.042 0.259 0 0.086 0 0.172 0 0.259 0 0.085-0 0.163 0.020 0.239 0.021 0.081 0 0.175 0.018 0.26 0.031 0.143 0.113 0.296 0.157 0.44 0.052 0.168 0.045 0.352 0.123 0.514 0.085 0.176 0.152 0.342 0.239 0.517 0.083 0.167 0.189 0.306 0.258 0.478 0.065 0.163 0.12 0.315 0.175 0.478 0.059 0.173 0.099 0.346 0.144 0.517 0.042 0.16 0.020 0.349 0.020 0.517 0 0.162 0.020 0.348-0.020 0.498s-0.040 0.329-0.080 0.478c-0.020 0.074-0.031 0.16-0.051 0.239-0.021 0.084-0.050 0.151-0.048 0.239 0.002 0.158-0.034 0.359 0.009 0.508 0.009 0.032 0.027 0.046 0.032 0.088 0.004 0.039-0.012 0.085-0.003 0.122 0.008 0.032 0.033 0.044 0.043 0.076 0.016 0.051 0.018 0.107 0.039 0.161 0.112 0.294 0.219 0.575 0.398 0.836 0.083 0.121 0.186 0.24 0.279 0.358z"></path>
<path d="M11.459 25.708c0.097-0.022 0.092-0.162 0.111-0.239 0.027-0.11 0.043-0.208 0.079-0.318 0.084-0.261 0.133-0.518 0.168-0.786 0.023-0.179 0.080-0.348 0.112-0.526 0.018-0.104 0.042-0.216 0.050-0.321 0.009-0.121 0.042-0.236 0.040-0.358-0.004-0.188 0.038-0.366 0.039-0.556 0-0.091-0.008-0.186-0.002-0.277 0.007-0.117 0.044-0.22 0.042-0.339-0.001-0.091 0.010-0.189-0.004-0.279-0.015-0.095-0.038-0.165-0.037-0.263 0.002-0.096 0.001-0.175-0.019-0.269-0.022-0.101-0.005-0.193-0.018-0.294-0.020-0.154-0.057-0.304-0.083-0.457-0.025-0.147-0.076-0.287-0.113-0.432-0.069-0.272-0.092-0.61-0.252-0.852-0.037-0.056-0.085-0.102-0.121-0.158-0.043-0.066-0.071-0.133-0.11-0.202-0.074-0.134-0.157-0.262-0.23-0.398-0.107-0.2-0.238-0.365-0.382-0.539-0.176-0.212-0.3-0.462-0.502-0.654-0.187-0.178-0.377-0.332-0.542-0.533-0.135-0.164-0.302-0.319-0.423-0.499-0.14-0.208-0.171-0.458-0.269-0.681-0.031-0.071-0.075-0.138-0.11-0.207-0.046-0.089-0.058-0.178-0.081-0.278-0.048-0.21-0.088-0.486-0.050-0.708 0.016-0.098 0.067-0.185 0.090-0.279 0.028-0.112 0.048-0.225 0.075-0.338 0.053-0.224 0.224-0.391 0.276-0.617 0.024-0.106 0.039-0.214 0.078-0.318 0.020-0.052 0.030-0.107 0.049-0.159 0.024-0.068 0.079-0.116 0.107-0.179 0.088-0.202 0.126-0.418 0.212-0.616 0.096-0.224 0.253-0.395 0.31-0.638 0.053-0.224 0.126-0.436 0.203-0.657 0.032-0.093 0.070-0.2 0.076-0.299 0.003-0.051-0.012-0.109-0.003-0.159 0.013-0.074 0.044-0.12 0.042-0.199-0.003-0.11 0.034-0.207 0.039-0.318 0.003-0.061 0.030-0.099 0.043-0.157 0.014-0.066-0.002-0.153-0.002-0.221 0-0.222 0.005-0.444 0.001-0.665-0.002-0.119-0.044-0.237-0.072-0.349-0.030-0.12-0.043-0.241-0.088-0.358-0.084-0.216-0.119-0.453-0.189-0.676-0.136-0.43-0.348-0.823-0.492-1.254-0.067-0.2-0.166-0.344-0.322-0.486-0.148-0.134-0.225-0.3-0.329-0.47-0.044-0.073-0.084-0.136-0.135-0.202-0.059-0.076-0.089-0.165-0.134-0.254-0.025-0.050-0.057-0.1-0.080-0.15-0.019-0.040-0.020-0.075-0.037-0.12-0.015-0.040-0.064-0.083-0.083-0.128-0.024-0.056-0.042-0.107-0.069-0.159-0.043-0.083-0.058-0.176-0.089-0.27-0.029-0.085-0.061-0.174-0.070-0.268-0.009-0.092-0.057-0.133-0.081-0.217-0.020-0.069-0.051-0.237-0.158-0.245-0.045-0.003-0.054 0.043-0.11 0.036-0.036-0.005-0.076-0.061-0.132-0.034-0.085 0.041-0.027 0.196 0.003 0.261 0.072 0.159 0.090 0.335 0.16 0.496 0.035 0.081 0.042 0.157 0.088 0.238 0.060 0.105 0.113 0.244 0.14 0.36 0.024 0.102 0.043 0.2 0.084 0.3 0.038 0.094 0.091 0.195 0.116 0.297 0.053 0.224 0.152 0.417 0.218 0.637 0.029 0.098 0.080 0.18 0.111 0.28 0.027 0.089 0.057 0.187 0.098 0.278 0.084 0.184 0.136 0.37 0.219 0.559 0.079 0.18 0.192 0.359 0.274 0.54 0.084 0.186 0.154 0.364 0.163 0.572 0.005 0.111 0.077 0.207 0.082 0.318 0.005 0.124 0.039 0.23 0.039 0.358 0 0.053-0.004 0.107-0.001 0.159 0.003 0.061 0.032 0.101 0.043 0.159 0.009 0.049-0.003 0.109-0.002 0.159 0.001 0.059-0.018 0.082-0.031 0.128-0.027 0.093-0.009 0.211-0.009 0.31 0 0.050 0.011 0.111 0.002 0.159-0.006 0.033-0.026 0.050-0.033 0.080-0.011 0.043 0.002 0.081-0.007 0.122-0.010 0.045-0.032 0.068-0.042 0.116-0.011 0.053-0.032 0.106-0.042 0.16-0.021 0.12 0.003 0.223-0.056 0.34-0.086 0.168-0.196 0.365-0.251 0.544-0.029 0.094-0.050 0.167-0.048 0.27 0.001 0.116-0.020 0.194-0.039 0.298-0.036 0.208-0.163 0.398-0.16 0.617 0.001 0.117 0 0.209-0.040 0.318-0.042 0.114-0.119 0.202-0.169 0.309-0.095 0.203-0.2 0.412-0.274 0.627-0.036 0.106-0.060 0.211-0.095 0.319-0.033 0.102-0.083 0.19-0.102 0.298-0.009 0.051 0.008 0.099-0.007 0.15-0.014 0.048-0.032 0.066-0.031 0.128 0.002 0.058-0.022 0.086-0.031 0.128-0.013 0.058-0.013 0.112-0.029 0.17-0.027 0.104-0.020 0.209-0.020 0.318s-0.017 0.234 0.009 0.338c0.026 0.104 0.072 0.217 0.11 0.318 0.020 0.052 0.032 0.106 0.050 0.159 0.023 0.070 0.021 0.129 0.039 0.199 0.054 0.211 0.105 0.4 0.23 0.597 0.115 0.18 0.17 0.384 0.268 0.566 0.099 0.184 0.228 0.357 0.344 0.528 0.114 0.168 0.252 0.302 0.381 0.457 0.157 0.188 0.373 0.312 0.52 0.502 0.108 0.14 0.218 0.264 0.355 0.382 0.322 0.277 0.542 0.625 0.697 1.006 0.042 0.102 0.068 0.2 0.1 0.301 0.014 0.046 0.032 0.066 0.041 0.116 0.012 0.066 0.023 0.135 0.039 0.2 0.027 0.114 0.041 0.198 0.041 0.318 0 0.113 0 0.226 0 0.338 0 0.051-0.006 0.107 0.004 0.156 0.011 0.056 0.047 0.048 0.033 0.122-0.011 0.062-0.036 0.093-0.037 0.16-0.001 0.060 0 0.12 0 0.179 0 0.053 0.004 0.107 0.001 0.159-0.003 0.062-0.032 0.1-0.043 0.159-0.019 0.11 0.002 0.246 0.002 0.358 0 0.1 0 0.199 0 0.299 0 0.051 0.007 0.109 0.002 0.159-0.008 0.064-0.039 0.114-0.042 0.179-0.006 0.118 0.004 0.206-0.039 0.318-0.021 0.055-0.033 0.102-0.040 0.159-0.008 0.070-0.037 0.128-0.041 0.199-0.006 0.104 0.018 0.217-0.008 0.318-0.030 0.114-0.031 0.216-0.031 0.338 0 0.048-0.011 0.115-0.002 0.161s0.033 0.071 0.043 0.116c0.022 0.101-0.002 0.236-0.002 0.34 0 0.051-0.007 0.109-0.001 0.16 0.006 0.052 0.032 0.070 0.043 0.116 0.026 0.105-0.020 0.23 0.001 0.337 0.011 0.056 0.045 0.048 0.033 0.122-0.014 0.092-0.019 0.066-0 0.16 0.010 0.051 0.002 0.106 0.003 0.159 0.001 0.072 0.031 0.112 0.042 0.179 0.017 0.1 0.015 0.184 0.036 0.281 0.007 0.032 0.037 0.076 0.052 0.107 0.026 0.054 0.050 0.114 0.080 0.17 0.107 0.198 0.253 0.386 0.372 0.577 0.024 0.039 0.058 0.074 0.085 0.11 0.025 0.033 0.036 0.068 0.059 0.1 0.044 0.061 0.126 0.137 0.188 0.178 0.045 0.030 0.11 0.062 0.161 0.081 0.076 0.029 0.085-0.001 0.159-0.014 0.098-0.017 0.176-0.015 0.2-0.136 0.038-0.189-0.158-0.449-0.27-0.59-0.135-0.171-0.236-0.365-0.329-0.566-0.047-0.103-0.075-0.168-0.079-0.279-0.003-0.088-0.039-0.175-0.060-0.258s-0.057-0.17-0.060-0.258c-0.005-0.134-0.040-0.245-0.278 0.020z"></path>
<path d="M21.648 23.28c0.101-0.050 0.148-0.108 0.237-0.179 0.088-0.070 0.188-0.119 0.27-0.189 0.092-0.078 0.154-0.176 0.229-0.269 0.067-0.084 0.156-0.154 0.227-0.237 0.168-0.193 0.333-0.388 0.461-0.609 0.061-0.105 0.104-0.236 0.191-0.328 0.080-0.084 0.195-0.123 0.265-0.208 0.085-0.102 0.143-0.188 0.249-0.27 0.022-0.017 0.1-0.096 0.124-0.098 0.053-0.005 0.077 0.070 0.105 0.117 0.040 0.068 0.081 0.108 0.115 0.176 0.020 0.042 0.051 0.084 0.069 0.127 0.007 0.016 0.038 0.086 0.038 0.098-0.001 0.038-0.028 0.031-0.029 0.061-0.004 0.075-0.031 0.11-0.046 0.174-0.020 0.085-0.015 0.136-0.058 0.221-0.030 0.060-0.061 0.109-0.098 0.163-0.087 0.124-0.167 0.259-0.26 0.376-0.066 0.083-0.159 0.151-0.239 0.218-0.098 0.082-0.181 0.175-0.278 0.259-0.094 0.080-0.203 0.132-0.308 0.188-0.121 0.065-0.229 0.134-0.348 0.2-0.082 0.046-0.157 0.043-0.24 0.079-0.073 0.032-0.133 0.080-0.2 0.12-0.097 0.058-0.242 0.197-0.476-0.189z"></path>
<path d="M20.693 21.33c-0.030 0.003-0.042-0.008-0.035-0.033 0.114-0 0.124 0.211 0.226 0.228 0.025-0.084-0.006-0.161-0.031-0.234-0.029-0.082-0.067-0.164-0.11-0.242-0.063-0.113-0.149-0.224-0.257-0.306-0.232-0.178-0.494-0.286-0.728-0.467-0.109-0.084-0.203-0.198-0.318-0.279-0.131-0.093-0.175-0.222-0.279-0.338-0.107-0.121-0.174-0.253-0.239-0.398-0.025-0.057-0.056-0.117-0.088-0.17-0.035-0.058-0.094-0.106-0.1-0.183-0.163 0.022-0.15 0.276-0.15 0.393 0 0.169-0.020 0.351-0.001 0.518 0.014 0.129 0.124 0.246 0.152 0.366 0.038 0.163 0.102 0.251 0.249 0.339 0.106 0.064 0.225 0.108 0.337 0.169s0.245 0.102 0.363 0.154c0.257 0.114 0.531 0.207 0.752 0.403 0.102 0.090 0.203 0.192 0.298 0.287 0.060 0.060 0.108 0.132 0.169 0.19 0.040 0.038 0.068 0.083 0.107 0.12 0.043 0.042 0.126 0.042 0.122 0.118z"></path>
<path d="M20.852 19.221c0-0.151-0.027-0.332 0.009-0.478 0.035-0.141 0.122-0.287 0.19-0.418 0.069-0.134 0.211-0.228 0.326-0.327 0.126-0.108 0.261-0.182 0.392-0.28 0.105-0.079 0.213-0.143 0.296-0.247 0.046-0.057 0.094-0.115 0.139-0.168 0.030-0.036 0.042-0.076 0.069-0.113 0.023-0.032 0.059-0.043 0.082-0.075 0.084-0.119 0.226-0.294 0.25-0.44 0.006-0.039-0.013-0.083-0.004-0.121 0.008-0.034 0.036-0.041 0.044-0.076 0.015-0.065-0.025-0.178 0.069-0.198 0.022 0.074 0.019 0.2-0.001 0.275-0.026 0.099-0.031 0.173-0.031 0.279 0 0.084 0.023 0.201 0.002 0.281-0.016 0.060-0.079 0.114-0.111 0.166-0.088 0.142-0.176 0.283-0.249 0.429-0.074 0.147-0.125 0.306-0.194 0.459-0.027 0.059-0.059 0.116-0.084 0.176-0.037 0.087-0.060 0.202-0.108 0.283-0.084 0.141-0.234 0.245-0.35 0.356-0.123 0.119-0.285 0.168-0.419 0.27-0.082 0.062-0.153 0.143-0.237 0.2-0.024 0.016-0.088 0.052-0.119 0.052-0.060-0.001-0.093-0.058 0.040-0.283z"></path>
<path d="M19.857 16.634c-0-0.154 0.040-0.284 0.040-0.438 0-0.164-0.009-0.286-0.070-0.439-0.045-0.114-0.098-0.217-0.177-0.316-0.065-0.080-0.144-0.144-0.212-0.221-0.057-0.064-0.092-0.146-0.149-0.211-0.168-0.192-0.328-0.515-0.386-0.764-0.018-0.075-0.037-0.12-0.040-0.199s-0.050-0.138-0.043-0.219c0.007-0.078 0.043-0.136 0.042-0.219-0.002-0.078 0.003-0.125 0.034-0.189-0.016-0.024-0.038-0.041-0.064-0.046-0.088 0.133-0.113 0.289-0.159 0.434-0.045 0.142-0.082 0.291-0.088 0.438-0.003 0.072-0.038 0.127-0.042 0.199s-0.001 0.147 0.001 0.219c0.003 0.147 0.064 0.293 0.081 0.438 0.016 0.132 0.007 0.243 0.107 0.349 0.097 0.103 0.23 0.173 0.34 0.258 0.116 0.089 0.242 0.205 0.316 0.326 0.058 0.095 0.129 0.177 0.191 0.27 0.084 0.125 0.13 0.274 0.278 0.329z"></path>
<path d="M21.051 13.688c-0.022-0.043-0.033-0.148-0.073-0.17 0.061-0.132 0.12-0.183 0.263-0.238 0.154-0.060 0.296-0.168 0.447-0.241 0.070-0.034 0.14-0.064 0.208-0.099 0.039-0.020 0.073-0.020 0.111-0.046 0.046-0.032 0.076-0.089 0.12-0.124 0.142-0.115 0.245-0.272 0.357-0.415 0.22-0.283 0.318-0.627 0.433-0.956 0.055-0.158 0.095-0.325 0.164-0.478 0.041-0.091 0.108-0.361 0.23-0.373 0.005 0.082 0.073 0.157 0.090 0.232 0.024 0.101-0.018 0.227-0.041 0.32-0.010 0.042-0.035 0.076-0.043 0.12-0.009 0.051 0.010 0.108 0.003 0.16-0.012 0.090-0.061 0.184-0.090 0.278-0.025 0.079-0.036 0.158-0.079 0.229-0.050 0.084-0.119 0.15-0.142 0.249-0.040 0.174-0.072 0.342-0.137 0.517-0.141 0.382-0.412 0.668-0.746 0.886-0.195 0.127-0.412 0.214-0.629 0.299-0.109 0.043-0.208 0.101-0.318 0.139-0.046 0.016-0.067 0.044-0.128 0.032-0.057-0.011-0.097-0.055 0-0.32z"></path>
<path d="M21.489 11.499c-0.029-0.053-0.053-0.115-0.070-0.168-0.021-0.065-0.065-0.141-0.080-0.199-0.019-0.071-0.010-0.155-0.009-0.23 0-0.088-0.020-0.137-0.036-0.219-0.016-0.080-0.005-0.159-0.023-0.239-0.017-0.074-0.034-0.145-0.060-0.218-0.064-0.176-0.12-0.354-0.209-0.519-0.147-0.276-0.406-0.447-0.665-0.606-0.136-0.084-0.284-0.153-0.392-0.27-0.050-0.054-0.081-0.085-0.088-0.157-0.007-0.063-0.016-0.184 0.032-0.228 0.060 0.122-0.010 0.331 0.008 0.466 0.010 0.078 0.042 0.112 0.040 0.198-0.001 0.073 0.001 0.146 0 0.219-0.002 0.176 0.111 0.292 0.15 0.458 0.032 0.132 0.084 0.257 0.138 0.389 0.1 0.243 0.382 0.27 0.537 0.455 0.061 0.074 0.119 0.15 0.17 0.231s0.085 0.177 0.159 0.241c0.082 0.070 0.128 0.106 0.23 0.147 0.088 0.035 0.216 0.073 0.168 0.249z"></path>
<path d="M22.046 8.236c0.077-0.068 0.022-0.173 0.043-0.259 0.020-0.082 0.102-0.158 0.146-0.227 0.050-0.078 0.097-0.137 0.154-0.208 0.070-0.086 0.117-0.215 0.156-0.32 0.064-0.172 0.081-0.41 0.060-0.597-0.020-0.172-0.155-0.32-0.197-0.481-0.037-0.141 0.073-0.405 0.246-0.267 0.056 0.045 0.1 0.181 0.111 0.25 0.013 0.083 0.050 0.199 0.029 0.279-0.025 0.091-0.018 0.165-0.029 0.259-0.006 0.051-0.035 0.089-0.043 0.139-0.009 0.052 0.008 0.099-0.007 0.15-0.009 0.031-0.027 0.046-0.032 0.088-0.005 0.046 0.008 0.094 0.002 0.14-0.012 0.092-0.040 0.188-0.061 0.278-0.024 0.102-0.040 0.221-0.078 0.318-0.046 0.12-0.115 0.162-0.221 0.208s-0.216 0.1-0.327 0.13c-0.108 0.030-0.279 0.1 0.049 0.12z"></path>
<path d="M20.892 5.728c-0.004-0.35-0.31-0.629-0.588-0.806-0.156-0.1-0.314-0.221-0.446-0.35-0.059-0.057-0.14-0.104-0.19-0.167-0.052-0.065-0.065-0.156-0.097-0.229-0.072-0.163-0.103-0.341-0.185-0.5-0.060-0.118-0.087-0.031-0.085 0.062 0.002 0.086 0.001 0.173 0 0.259-0.001 0.095 0.036 0.168 0.041 0.259 0.005 0.095 0.010 0.171 0.039 0.26 0.050 0.153 0.117 0.32 0.178 0.476 0.066 0.167 0.221 0.275 0.378 0.348 0.114 0.053 0.211 0.114 0.317 0.178 0.158 0.096 0.356 0.225 0.639 0.21z"></path>
<path d="M15.957 23.4c0-0.15-0.007-0.306-0.080-0.44-0.050-0.092-0.15-0.166-0.229-0.237-0.095-0.086-0.176-0.218-0.286-0.28-0.132-0.074-0.27-0.135-0.4-0.218-0.114-0.073-0.248-0.094-0.348-0.189-0.104-0.099-0.186-0.207-0.264-0.328-0.078-0.122-0.166-0.234-0.254-0.346-0.061-0.078-0.131-0.291-0.24-0.307-0.024 0.14-0.070 0.275-0.090 0.414-0.019 0.138-0.054 0.249-0.001 0.377 0.121 0.291 0.41 0.393 0.655 0.558 0.23 0.155 0.447 0.288 0.702 0.398 0.111 0.048 0.217 0.126 0.308 0.21 0.11 0.1 0.169 0.258 0.525 0.387z"></path>
<path d="M16.315 22.444c0.008-0.048 0.149-0.164 0.189-0.21 0.046-0.052 0.108-0.093 0.15-0.147s0.059-0.135 0.087-0.2c0.042-0.098 0.082-0.196 0.111-0.298 0.025-0.089 0.056-0.186 0.060-0.278 0.004-0.099-0.007-0.2-0.001-0.299 0.005-0.098 0.041-0.176 0.041-0.278-0-0.040-0.003-0.080-0.001-0.12 0.003-0.062 0.032-0.1 0.043-0.159 0.031-0.178-0.052-0.376 0.041-0.536 0.048-0.083 0.146-0.152 0.237-0.079 0.053 0.042 0.092 0.151 0.127 0.207 0.058 0.094 0.147 0.132 0.151 0.248 0.003 0.091 0.005 0.188 0 0.279s-0.034 0.186-0.050 0.277c-0.019 0.114-0.048 0.229-0.074 0.34-0.047 0.2-0.18 0.376-0.275 0.557-0.056 0.106-0.109 0.218-0.163 0.319-0.049 0.091-0.12 0.204-0.673 0.378z"></path>
<path d="M15.559 19.38c0.012-0.056 0.112-0.095 0.159-0.139 0.066-0.062 0.142-0.109 0.21-0.169 0.061-0.054 0.095-0.126 0.148-0.186 0.064-0.071 0.139-0.129 0.2-0.201 0.271-0.32 0.341-0.764 0.437-1.156 0.009-0.036 0.034-0.084 0.038-0.119 0.005-0.054-0.031-0.087-0.040-0.139-0.016-0.093-0.015-0.186-0.037-0.278-0.017-0.071-0.040-0.177-0.119-0.201-0.018-0.006-0.107-0.009-0.124-0.001-0.054 0.025-0.038 0.064-0.037 0.122 0.004 0.168-0.065 0.306-0.15 0.448-0.040 0.066-0.092 0.139-0.13 0.209-0.048 0.089-0.062 0.188-0.118 0.275-0.061 0.096-0.151 0.171-0.219 0.262-0.069 0.094-0.137 0.19-0.21 0.28-0.11 0.136-0.251 0.338-0.447 0.316z"></path>
<path d="M15.041 16.713c0.026-0.005 0.047-0.019 0.064-0.040-0.151-0.108-0.23-0.394-0.312-0.557-0.107-0.214-0.247-0.4-0.349-0.617-0.044-0.095-0.083-0.17-0.139-0.259-0.065-0.103-0.092-0.215-0.12-0.334s-0.016-0.239-0.019-0.362c-0.002-0.072-0.019-0.239-0.080-0.284-0.035 0.063-0.029 0.101-0.039 0.165-0.009 0.063-0.034 0.116-0.041 0.179-0.014 0.122-0.067 0.238-0.080 0.357-0.011 0.101-0.017 0.254 0.010 0.35 0.015 0.054 0.032 0.077 0.031 0.148-0.001 0.060 0 0.119 0 0.179 0 0.141 0.008 0.226 0.1 0.339 0.080 0.098 0.19 0.201 0.24 0.318 0.104 0.244 0.283 0.414 0.735 0.418z"></path>
<path d="M16.355 15.081l0.033-0.007c0.006-0.048-0.001-0.088 0.035-0.124 0.046-0.047 0.079-0.010 0.133-0.026 0.080-0.024 0.142-0.141 0.188-0.203 0.119-0.16 0.302-0.246 0.377-0.435 0.041-0.103 0.053-0.212 0.079-0.319s0.086-0.21 0.112-0.318c0.024-0.102 0.054-0.21 0.040-0.319-0.011-0.081-0.048-0.157-0.075-0.232 0.046 0.017 0.115 0.037 0.155 0.072 0.058 0.050 0.056 0.101 0.076 0.16 0.045 0.129 0.058 0.279 0.042 0.419-0.007 0.065-0.043 0.12-0.062 0.179s-0.020 0.112-0.020 0.179c0 0.066 0.017 0.157 0.002 0.221-0.010 0.044-0.050 0.088-0.071 0.126-0.064 0.12-0.146 0.223-0.201 0.35-0.045 0.103-0.089 0.186-0.157 0.279-0.083 0.113-0.258 0.16-0.389 0.194-0.156 0.041-0.333 0.086-0.298-0.195z"></path>
<path d="M16.315 13.688c0.041 0.020 0.148 0.082 0.193 0.034s-0.030-0.16-0.035-0.213c-0.016-0.153-0.022-0.323-0.108-0.46s-0.199-0.258-0.28-0.397c-0.033-0.057-0.066-0.127-0.098-0.189-0.030-0.058-0.063-0.096-0.108-0.147-0.207-0.234-0.282-0.575-0.527-0.767-0.064-0.050-0.13-0.098-0.191-0.15s-0.059-0.071-0.078-0.139c-0.019-0.070-0.039-0.122-0.040-0.199-0.001-0.089-0.032-0.15-0.050-0.236-0.068 0.012 0.001 0.095 0.011 0.135 0.022 0.087-0.030 0.142-0.043 0.22-0.024 0.135 0.002 0.3 0.002 0.438 0 0.069-0.014 0.153-0.001 0.22 0.011 0.059 0.056 0.117 0.091 0.169 0.085 0.128 0.161 0.232 0.229 0.369 0.059 0.119 0.14 0.223 0.247 0.306 0.048 0.037 0.097 0.057 0.141 0.099 0.047 0.044 0.091 0.098 0.138 0.14 0.065 0.056 0.13 0.106 0.191 0.169 0.067 0.070 0.095 0.15 0.178 0.2 0.149 0.092 0.29 0.078 0.14 0.397z"></path>
<path d="M16.355 11.619c0.163-0.032 0.245-0.352 0.308-0.478 0.045-0.089 0.116-0.221 0.131-0.318-0.001-0.027-0.003-0.055-0.004-0.082 0.003-0.022 0.014-0.037 0.033-0.046 0.009-0.038 0.009-0.071 0.009-0.111-0.002-0.115 0.008-0.214-0.040-0.32-0.039-0.086-0.087-0.181-0.11-0.276-0.046-0.184 0.053-0.418 0.134-0.577 0.125-0.245 0.299 0.018 0.366 0.148 0.101 0.196-0.002 0.408 0.047 0.61 0.021 0.088 0.056 0.154 0.042 0.258-0.011 0.083-0.046 0.159-0.081 0.236-0.041 0.092-0.065 0.18-0.088 0.272-0.020 0.009-0.031 0.025-0.033 0.046 0.002 0.028 0.003 0.056 0.004 0.084-0.012 0.050-0.060 0.055-0.042 0.117z"></path>
<path d="M15.638 9.27c-0.085-0.009-0.116-0.232-0.159-0.296-0.054-0.081-0.158-0.164-0.24-0.213-0.063-0.038-0.137-0.057-0.201-0.088-0.053-0.026-0.101-0.062-0.157-0.090-0.126-0.060-0.237-0.16-0.337-0.252-0.19-0.176-0.388-0.327-0.524-0.554-0.058-0.098-0.098-0.195-0.143-0.298-0.032-0.073-0.068-0.119-0.072-0.2-0.002-0.050 0.028-0.146-0.030-0.156-0.035 0.089-0.015 0.259-0.010 0.355 0.004 0.066 0.035 0.115 0.042 0.179 0.007 0.061-0.008 0.118 0.008 0.179 0.034 0.136 0.107 0.244 0.161 0.367 0.059 0.134 0.107 0.27 0.196 0.387 0.088 0.116 0.209 0.152 0.329 0.226 0.156 0.096 0.313 0.189 0.48 0.27 0.077 0.037 0.154 0.069 0.227 0.112 0.082 0.048 0.145 0.111 0.23 0.15 0.098 0.045 0.149 0.118 0.228 0.19 0.096 0.087 0.197 0.154 0.29 0.248z"></path>
<path d="M11.34 24.514c0.003 0.011 0.005 0.021 0.008 0.032 0.096 0.007 0.127 0.074 0.231 0.029 0.032-0.014 0.085-0.047 0.112-0.071 0.042-0.037 0.031-0.066 0.056-0.108 0.107-0.184 0.248-0.34 0.371-0.518 0.050-0.073 0.1-0.159 0.139-0.237 0.049-0.096 0.050-0.201 0.1-0.3 0.046-0.090 0.096-0.173 0.148-0.259 0.045-0.076 0.134-0.15 0.152-0.237 0.010-0.043 0.005-0.080 0.017-0.122 0.011-0.036 0.033-0.081 0.049-0.12 0.039-0.090 0.084-0.184 0.159-0.248 0.078-0.067 0.124-0.091 0.2-0.020 0.062 0.058 0.107 0.149 0.13 0.227 0.062 0.207 0.029 0.4-0.021 0.599-0.047 0.186-0.091 0.374-0.219 0.537-0.073 0.093-0.152 0.183-0.226 0.275-0.046 0.057-0.084 0.122-0.139 0.171-0.048 0.042-0.109 0.069-0.152 0.114-0.074 0.078-0.142 0.2-0.199 0.292-0.040 0.065-0.056 0.138-0.103 0.2-0.148 0.194-0.383 0.243-0.812-0.237z"></path>
<path d="M11.061 22.484c-0.108-0.093-0.019-0.368-0.043-0.494-0.007-0.038-0.032-0.064-0.039-0.102-0.004-0.026 0.010-0.056 0.004-0.082-0.006-0.029-0.042-0.094-0.061-0.118-0.149-0.19-0.33-0.329-0.499-0.5-0.097-0.098-0.186-0.228-0.298-0.312-0.064-0.048-0.118-0.094-0.18-0.145-0.060-0.050-0.099-0.108-0.158-0.159-0.096-0.083-0.164-0.177-0.23-0.286-0.056-0.093-0.115-0.193-0.137-0.297-0.066 0.052-0.016 0.157-0.029 0.227-0.015 0.085-0.048 0.147-0.043 0.239 0.005 0.084 0.036 0.152 0.040 0.239 0.003 0.068 0.026 0.154 0.044 0.219 0.049 0.174 0.195 0.269 0.285 0.416 0.046 0.076 0.072 0.165 0.118 0.241 0.053 0.086 0.12 0.162 0.182 0.241 0.094 0.119 0.18 0.229 0.267 0.356s0.147 0.184 0.298 0.229c0.169 0.051 0.263 0.148 0.408 0.24 0.048 0.030 0.133 0.067 0.189 0.080 0.062 0.014 0.181 0.061-0.12-0.23z"></path>
<path d="M11.818 20.335c-0.017-0.104 0.088-0.198 0.11-0.288 0.029-0.114 0.042-0.23 0.048-0.349 0.003-0.062 0.032-0.099 0.043-0.158 0.012-0.064-0.018-0.138-0.004-0.202 0.012-0.058 0.040-0.096 0.043-0.157 0.004-0.066-0.001-0.133-0.001-0.199-0-0.050 0.010-0.11 0.002-0.159-0.010-0.058-0.039-0.098-0.043-0.158-0.004-0.065 0.015-0.139 0.003-0.202s-0.031-0.113-0.041-0.177c-0.009-0.064-0.038-0.113-0.042-0.179-0.003-0.052 0.001-0.106 0.001-0.159 0-0.106-0.022-0.237-0.001-0.34 0.018-0.092 0.089-0.139 0.18-0.139 0.090 0 0.205 0.076 0.251 0.158 0.025 0.045 0.048 0.13 0.069 0.181s0.036 0.107 0.054 0.159c0.018 0.051 0.040 0.106 0.046 0.159 0.009 0.074-0.013 0.147 0.007 0.221 0.016 0.061 0.032 0.090 0.031 0.157-0.001 0.048-0.013 0.116-0.002 0.161s0.037 0.064 0.043 0.116c0.007 0.064-0.001 0.135-0.001 0.2 0 0.117 0.002 0.209 0.031 0.318 0.034 0.129-0.017 0.236-0.031 0.358s-0.061 0.237-0.082 0.358c-0.004 0.026 0.004 0.054 0.003 0.080-0.002 0.056-0.019 0.067-0.032 0.12-0.016 0.063-0.023 0.115-0.044 0.178-0.055 0.165-0.091 0.331-0.213 0.461-0.039 0.042-0.133 0.097-0.19 0.11-0.070 0.017-0.122-0.028-0.192-0.040-0.002-0.011-0.005-0.021-0.047-0.589z"></path>
<path d="M10.504 18.584c-0.055-0.17-0.217-0.282-0.358-0.379-0.129-0.088-0.27-0.181-0.408-0.248-0.132-0.064-0.276-0.162-0.428-0.17-0.079-0.004-0.16 0.006-0.239 0.002-0.062-0.003-0.1-0.033-0.159-0.043-0.039-0.007-0.081 0.011-0.119 0.004-0.044-0.008-0.075-0.036-0.12-0.044s-0.091 0.007-0.136-0.001c-0.057-0.010-0.136-0.054-0.191-0.067-0.174-0.042-0.323-0.118-0.478-0.197-0.142-0.073-0.261-0.203-0.36-0.322-0.052-0.061-0.084-0.087-0.119-0.157-0.020-0.041-0.069-0.159-0.1-0.166-0.049 0.148-0.011 0.374 0.040 0.514 0.048 0.134 0.175 0.258 0.281 0.348 0.136 0.116 0.262 0.214 0.428 0.279 0.143 0.056 0.308 0.138 0.437 0.228 0.064 0.045 0.135 0.112 0.208 0.131s0.154 0.009 0.23 0.009c0.075 0 0.158-0.012 0.23 0.009 0.030 0.009 0.049 0.027 0.088 0.032 0.046 0.006 0.095-0.009 0.14-0.002 0.095 0.014 0.157 0.043 0.259 0.041 0.079-0.002 0.163 0.015 0.237 0.048 0.115 0.051 0.218 0.127 0.33 0.182 0.135 0.067 0.272 0.104 0.308-0.031z"></path>
<path d="M9.39 16.872c0.054-0.011 0.104-0.094 0.116-0.143 0.011-0.044 0-0.090 0.012-0.136 0.014-0.053 0.030-0.082 0.031-0.139 0.002-0.086-0-0.172-0-0.259 0-0.112-0.026-0.193-0.041-0.298-0.027-0.19-0.079-0.361-0.168-0.537-0.041-0.081-0.090-0.17-0.106-0.259s-0.002-0.188-0.003-0.279c-0.001-0.091 0.020-0.172 0.039-0.258 0.025-0.111 0.057-0.136 0.13-0.051 0.106 0.124 0.219 0.274 0.26 0.418 0.049 0.172 0.087 0.362 0.172 0.525 0.083 0.158 0.197 0.269 0.194 0.461-0.003 0.242-0.034 0.45-0.119 0.677-0.040 0.107-0.069 0.218-0.119 0.32-0.016 0.033-0.036 0.068-0.059 0.098-0.041 0.052-0.099 0.085-0.339-0.139z"></path>
<path d="M8.275 14.803c0.011-0.003 0.021-0.005 0.032-0.008 0.006-0.077 0.072-0.104 0.050-0.193-0.011-0.044-0.033-0.104-0.050-0.148-0.048-0.127-0.183-0.226-0.223-0.367-0.039-0.136-0.052-0.272-0.137-0.387s-0.193-0.187-0.264-0.314c-0.070-0.126-0.139-0.262-0.208-0.39-0.031-0.058-0.087-0.115-0.107-0.182-0.012-0.042 0.001-0.079-0.006-0.12-0.006-0.036-0.030-0.064-0.038-0.099-0.022-0.096 0.020-0.176 0.038-0.268 0.018-0.093 0.035-0.194 0.039-0.29 0.003-0.075 0.044-0.141 0.032-0.209-0.007-0.037-0.062-0.118-0.102-0.124-0.003 0.040-0.032 0.054-0.040 0.084s-0.002 0.060-0.008 0.090c-0.015 0.080-0.036 0.136-0.040 0.219-0.004 0.085-0.041 0.171-0.061 0.255-0.019 0.077-0.018 0.142-0.019 0.222-0.002 0.131 0.061 0.271 0.109 0.399 0.025 0.065 0.031 0.116 0.049 0.179 0.019 0.067 0.042 0.101 0.041 0.178-0.002 0.138-0.025 0.303-0.002 0.438 0.021 0.125 0.107 0.25 0.161 0.36 0.025 0.052 0.059 0.106 0.090 0.158 0.046 0.077 0.105 0.113 0.169 0.178 0.033 0.033 0.064 0.070 0.098 0.101 0.052 0.047 0.094 0.055 0.151 0.087 0.086 0.048 0.141 0.138 0.248 0.15z"></path>
<path d="M9.031 12.295c0.089-0.001 0.147-0.005 0.222-0.034 0.085-0.034 0.16-0.083 0.239-0.124 0.159-0.083 0.299-0.194 0.433-0.304 0.174-0.143 0.285-0.308 0.409-0.494 0.038-0.057 0.082-0.094 0.11-0.157 0.039-0.088 0.061-0.16 0.060-0.259-0.001-0.084-0.010-0.176-0.001-0.26 0.006-0.048-0.011-0.064 0.039-0.082 0.062-0.023 0.073 0.020 0.083 0.062 0.019 0.078-0.007 0.18-0.003 0.26 0.003 0.049 0.020 0.074 0.032 0.12 0.014 0.054-0.005 0.109 0.007 0.161 0.018 0.075 0.065 0.124 0.043 0.218-0.022 0.096-0.103 0.155-0.178 0.219-0.038 0.032-0.096 0.074-0.124 0.116-0.046 0.072-0.067 0.166-0.118 0.24-0.055 0.081-0.137 0.148-0.19 0.228-0.041 0.062-0.064 0.132-0.107 0.194-0.049 0.071-0.144 0.152-0.211 0.207-0.072 0.059-0.179 0.047-0.746-0.31z"></path>
<path d="M9.629 10.544c-0.115-0.149-0.288-0.26-0.437-0.368-0.156-0.113-0.306-0.235-0.32-0.436-0.015-0.204 0.082-0.389 0.080-0.589-0.001-0.189-0.063-0.378-0.128-0.557-0.050-0.137-0.165-0.402-0.319-0.43-0.135-0.024-0.082 0.075-0.068 0.151 0.007 0.038-0.011 0.081-0.004 0.119 0.009 0.051 0.029 0.11 0.041 0.159 0.043 0.182 0.106 0.344 0.152 0.517 0.024 0.094 0.006 0.169-0.021 0.248-0.033 0.096-0.062 0.151-0.020 0.24 0.092 0.191 0.14 0.391 0.218 0.588 0.092 0.235 0.345 0.246 0.827 0.357z"></path>
<path d="M9.987 8.315c-0.007-0.026-0.005-0.050 0.006-0.074 0.103-0.009 0.175-0.037 0.233-0.124 0.034-0.051 0.066-0.103 0.091-0.16s0.030-0.125 0.067-0.176c0.029-0.040 0.065-0.057 0.092-0.102 0.030-0.050 0.047-0.11 0.078-0.16 0.079-0.128 0.111-0.185 0.111-0.338-0.001-0.109 0.007-0.215-0.020-0.318-0.032-0.12-0.020-0.251-0.020-0.378 0-0.118 0.009-0.24 0.001-0.358-0.004-0.055-0.026-0.087-0.037-0.14-0.013-0.059 0.009-0.12-0.001-0.179-0.018-0.107-0.090-0.168-0.082-0.279 0.006-0.091 0.026-0.289 0.14-0.277 0.074 0.008 0.223 0.093 0.29 0.127 0.093 0.047 0.193 0.179 0.17 0.291-0.012 0.058-0.026 0.062-0.023 0.116 0.002 0.039 0.025 0.106 0.040 0.141 0.046 0.111 0.128 0.182 0.103 0.318-0.011 0.059-0.040 0.097-0.043 0.159-0.002 0.053-0.007 0.090-0.019 0.139-0.026 0.111-0.051 0.233-0.099 0.34-0.096 0.213-0.090 0.474-0.229 0.675-0.080 0.116-0.159 0.214-0.268 0.299-0.084 0.065-0.186 0.167-0.577 0.457z"></path>
<path d="M9.549 6.365c-0.014-0.053 0.027-0.064 0.036-0.103 0.010-0.043 0.003-0.091 0.003-0.136 0.001-0.1-0.041-0.178-0.039-0.278 0.002-0.185 0.023-0.384-0.040-0.557-0.067-0.183-0.231-0.275-0.277-0.476-0.026-0.116-0.041-0.203-0.041-0.32 0-0.040 0.003-0.080 0.001-0.119-0.003-0.062-0.033-0.1-0.043-0.159-0.015-0.093-0.021-0.185-0.035-0.278-0.015-0.096-0.071-0.181-0.082-0.279s-0.047-0.175-0.041-0.279c0.004-0.067 0.023-0.192 0.088-0.231 0.135-0.078 0.297 0.234 0.342 0.319 0.041 0.078 0.059 0.187 0.080 0.27 0.010 0.042-0 0.079 0.007 0.12 0.012 0.070 0.042 0.115 0.043 0.19 0.007 0.344-0.034 0.702-0.12 1.034-0.056 0.214-0.072 0.434-0.199 0.606z"></path>
<path d="M7.997 4.494c-0.344-0.169-0.77-0.276-0.966-0.637-0.022-0.041-0.045-0.074-0.070-0.111s-0.035-0.066-0.058-0.11c-0.039-0.075-0.079-0.149-0.131-0.219-0.024-0.033-0.106-0.152-0.154-0.157-0.088-0.009-0.055 0.134-0.055 0.198 0 0.162-0.026 0.342 0.090 0.468 0.118 0.128 0.293 0.218 0.426 0.325 0.242 0.196 0.426 0.458 0.678 0.64 0.11 0.079 0.215 0.164 0.328 0.239 0.057 0.038 0.13 0.071 0.181 0.117 0.066 0.060 0.097 0.144 0.167 0.201z"></path>
</svg>
