<!-- Generated by IcoMoon.io -->
<svg version="1.1" xmlns="http://www.w3.org/2000/svg" width="32" height="32" viewBox="0 0 32 32">
<path d="M14.428 30.408c-0.049-0.326-0.165-1.196-0.256-1.934s-0.346-2.61-0.566-4.161-0.375-2.844-0.344-2.874c0.031-0.031 0.387 0.063 0.791 0.209s0.766 0.231 0.804 0.19 0.117-0.612 0.178-1.27l0.109-1.195-0.61-0.183c-1.307-0.392-2.474-1.816-2.672-3.261-0.252-1.838 1.137-3.95 2.826-4.299 0.239-0.049 0.434-0.174 0.434-0.277s-0.142-1.209-0.316-2.457c-0.174-1.249-0.316-2.47-0.316-2.714v-0.444l0.777 0.434c0.427 0.239 0.823 0.387 0.88 0.33s0.144-1.318 0.195-2.802c0.090-2.655 0.097-2.699 0.442-2.699 0.313 0 0.362 0.105 0.457 0.987 0.059 0.543 0.321 2.468 0.583 4.279s0.452 3.317 0.422 3.348c-0.031 0.030-0.386-0.064-0.791-0.209s-0.769-0.231-0.81-0.19c-0.041 0.041-0.098 0.564-0.127 1.163l-0.052 1.088 0.503 0.175c0.941 0.328 1.881 1.127 2.27 1.931 0.572 1.181 0.536 2.706-0.089 3.838-0.493 0.893-1.483 1.682-2.329 1.856-0.523 0.108-0.52 0.011-0.12 2.993 0.173 1.29 0.315 2.51 0.316 2.71l0.001 0.364-0.781-0.439c-0.429-0.241-0.823-0.397-0.874-0.345s-0.129 1.080-0.173 2.285c-0.118 3.284-0.216 4.165-0.46 4.165-0.122 0-0.248-0.249-0.3-0.592zM15.584 16.671c0.013-0.57 0.326-0.721 0.329-0.158 0.004 0.639 0.188 1.066 0.459 1.066 0.385 0 1.255-0.958 1.433-1.576 0.275-0.957-0.198-2.088-1.042-2.49-0.651-0.311-0.845-0.15-0.85 0.701-0.004 0.821-0.28 0.745-0.397-0.109-0.060-0.434-0.147-0.79-0.194-0.79-0.279 0-1.192 0.732-1.389 1.113-0.527 1.020-0.033 2.668 0.921 3.070 0.579 0.245 0.71 0.097 0.73-0.828zM17.332 21.287c0-0.045 0.381-0.325 0.847-0.623 2.022-1.294 3.041-3.494 2.641-5.706-0.247-1.366-1.178-3.103-2.115-3.946-0.432-0.388-0.758-0.732-0.724-0.765s0.431 0.080 0.882 0.249c3.406 1.277 4.784 6.492 2.425 9.179-0.628 0.715-1.33 1.155-2.321 1.456-0.756 0.229-1.635 0.313-1.635 0.155zM12.516 20.442c-1.723-0.823-2.731-2.199-3.184-4.343-0.549-2.601 0.467-4.878 2.603-5.837 0.889-0.399 2.396-0.73 2.396-0.526 0 0.052-0.418 0.378-0.929 0.726-1.013 0.688-1.881 1.75-2.334 2.857-0.371 0.905-0.364 2.772 0.013 3.865 0.356 1.033 1.4 2.582 2.074 3.079 0.51 0.376 0.682 0.632 0.425 0.631-0.065-0-0.545-0.204-1.066-0.453zM22.567 19.592c0.728-1.232 0.923-1.923 0.921-3.257-0.002-1.386-0.248-2.435-0.845-3.612-0.232-0.456-0.362-0.829-0.289-0.829 0.356 0 1.447 1.18 1.782 1.927 0.308 0.687 0.375 1.103 0.378 2.336 0.004 1.734-0.27 2.443-1.385 3.592-0.906 0.933-1.163 0.861-0.561-0.158zM8.699 18.917c-1.337-1.054-1.975-3.455-1.414-5.319 0.267-0.886 1.049-2.044 1.689-2.5 0.646-0.46 0.728-0.313 0.249 0.446-1.44 2.282-1.386 4.591 0.181 7.653 0.122 0.239-0.216 0.104-0.704-0.281z"></path>
</svg>
