<!-- Generated by IcoMoon.io -->
<svg version="1.1" xmlns="http://www.w3.org/2000/svg" width="33" height="32" viewBox="0 0 33 32">
<path d="M19.844 28.225c0.023-0.7-0.028-0.878-0.555-1.934-0.578-1.159-0.677-1.497-0.473-1.623 0.307-0.19 1.164 1.136 1.528 2.365 0.352 1.185 0.228 1.963-0.311 1.963-0.185 0-0.211-0.107-0.189-0.771zM21.093 28.877c-0.040-0.065-0.126-0.585-0.191-1.154s-0.172-1.179-0.239-1.355c-0.172-0.452-0.153-0.548 0.108-0.548 0.331 0 0.479 0.233 0.663 1.042l0.163 0.716 0.3-0.543c0.344-0.624 0.721-0.729 0.857-0.238 0.047 0.168 0.090 0.676 0.097 1.13 0.011 0.745-0.011 0.825-0.23 0.825-0.158 0-0.269-0.109-0.32-0.312l-0.078-0.312-0.295 0.434c-0.284 0.417-0.678 0.567-0.834 0.315zM23.882 28.563c-0.133-0.347 0.191-2.967 0.567-4.576 0.196-0.84 0.445-2.022 0.553-2.626s0.328-1.622 0.489-2.26c0.301-1.195 1.017-5.010 1.124-5.988 0.058-0.53 0.043-0.563-0.409-0.855-0.541-0.35-0.694-0.731-0.294-0.731 0.142 0 0.385 0.084 0.541 0.186 0.283 0.185 0.284 0.184 0.353-0.483 0.080-0.779-0.152-2.030-0.506-2.724-0.331-0.65-1.62-1.822-2.186-1.991-0.633-0.188-2.781-0.397-4.244-0.412l-1.222-0.013-0.039 0.336c-0.049 0.421-0.222 0.425-0.652 0.013l-0.337-0.323-1.835 0.263c-2.551 0.365-3.215 0.635-4.43 1.8-0.582 0.558-1.052 1.334-0.9 1.486 0.037 0.037 0.411-0.079 0.832-0.258 0.799-0.339 1.367-0.413 1.501-0.196 0.121 0.196-0.158 0.456-0.654 0.61-0.83 0.257-1.791 0.653-1.968 0.811-0.248 0.221-0.081 0.333 0.24 0.161 0.348-0.187 0.601 0.021 0.368 0.302-0.086 0.104-0.226 0.188-0.311 0.188-0.369 0-0.68 0.428-0.706 0.97l-0.026 0.543 0.58-0.033c0.457-0.026 0.58 0.007 0.58 0.157 0 0.233-0.42 0.511-0.937 0.618-0.371 0.077-0.392 0.114-0.512 0.898-0.3 1.969-0.301 1.896 0.010 1.798 1.453-0.457 1.759 0.059 0.397 0.67-0.715 0.321-0.765 0.37-0.821 0.811-0.033 0.258-0.021 0.513 0.026 0.566s0.482-0.047 0.967-0.221c0.886-0.32 1.484-0.359 1.568-0.103 0.088 0.268-0.339 0.515-1.552 0.899-1.294 0.41-1.246 0.366-1.385 1.264-0.050 0.322-0.030 0.342 0.267 0.267 0.87-0.217 0.989-0.217 1.073 0 0.105 0.273-0.212 0.513-0.908 0.689-0.576 0.145-0.713 0.319-0.83 1.050l-0.079 0.491 0.836-0.232c0.891-0.247 1.82-0.304 1.934-0.119 0.143 0.231-0.557 0.585-1.582 0.8-1.184 0.248-1.159 0.222-1.392 1.469-0.075 0.403-0.17 0.87-0.21 1.038-0.057 0.24 0.081 0.143 0.65-0.458 0.693-0.732 1.131-0.943 1.321-0.637 0.043 0.070 0.014 0.616-0.063 1.215-0.205 1.573-0.075 1.696 0.688 0.652 0.634-0.868 1.397-1.422 1.633-1.187 0.136 0.136 0.108 0.181-1.13 1.802-0.972 1.274-1.335 1.506-1.733 1.108-0.146-0.146-0.192-0.455-0.192-1.29 0-0.71-0.044-1.071-0.124-1.021-0.068 0.042-0.458 0.581-0.867 1.198-1.234 1.862-1.719 2.030-2.003 0.694-0.050-0.235-0.145-0.565-0.211-0.733-0.112-0.284-0.139-0.249-0.381 0.489-0.169 0.513-0.334 0.808-0.468 0.832-0.221 0.041-0.224 0.033-0.725-1.968-0.171-0.684-0.305-1.017-0.369-0.916-0.055 0.087-0.101 0.277-0.102 0.423-0.003 0.419-0.373 1.784-0.565 2.087-0.219 0.344-0.536 0.358-0.536 0.025 0-0.137 0.079-0.591 0.176-1.008s0.295-1.263 0.439-1.879c0.393-1.678 0.738-1.632 1.309 0.174 0.196 0.621 0.393 1.094 0.436 1.050s0.115-0.345 0.158-0.669c0.101-0.763 0.318-1.072 0.62-0.887 0.199 0.122 0.354 0.537 0.582 1.559 0.043 0.193 0.101 0.327 0.13 0.299s0.11-0.567 0.181-1.198c0.071-0.631 0.324-2.002 0.561-3.048s0.508-2.56 0.602-3.366c0.094-0.806 0.282-2.153 0.418-2.993s0.3-2.104 0.364-2.81c0.196-2.16 1.054-4.58 2.027-5.713 0.964-1.122 1.949-1.554 4.701-2.063 1.61-0.298 2.054-0.329 4.886-0.338 2.771-0.009 3.195 0.016 3.839 0.227 1.018 0.334 1.715 0.842 2.606 1.901 1.294 1.537 1.278 1.494 1.423 3.653 0.070 1.048 0.122 2.757 0.113 3.798-0.014 1.827-0.035 1.972-0.586 4.153-0.314 1.243-0.727 3.057-0.917 4.031-0.295 1.507-0.523 2.288-1.043 3.573-0.142 0.352 0.179 0.251 1.097-0.343 0.469-0.304 0.963-0.536 1.099-0.517 0.348 0.050 0.374 0.533 0.070 1.331-0.138 0.363-0.251 0.698-0.251 0.745s0.354-0.081 0.787-0.283c0.805-0.377 1.528-0.438 1.626-0.138 0.081 0.246-2.729 1.345-3.088 1.207-0.234-0.090-0.229-0.44 0.013-1.045 0.106-0.266 0.175-0.567 0.153-0.668-0.040-0.181-0.135-0.111-2.081 1.529-0.656 0.553-1.046 0.691-1.155 0.407zM16.876 27.832v-0.43l-0.306 0.2c-0.451 0.296-0.719 0.041-0.632-0.603l0.064-0.479-0.514 0.505c-0.575 0.564-0.819 0.618-1.177 0.26-0.19-0.19-0.244-0.407-0.244-0.977 0-0.403-0.045-0.733-0.1-0.733s-0.229 0.234-0.387 0.519c-0.564 1.019-0.989 1.558-1.23 1.558-0.402 0-0.284-0.496 0.383-1.598 0.92-1.523 1.534-2.112 1.891-1.816 0.131 0.109 0.175 0.456 0.175 1.378v1.233l0.58-0.563c0.485-0.471 1.428-1.077 1.675-1.077 0.148 0 0.051 0.528-0.181 0.982-0.201 0.393-0.213 0.484-0.068 0.484 0.098 0 0.212-0.055 0.254-0.122 0.113-0.184 0.636-0.147 0.712 0.050 0.065 0.17-0.178 1.268-0.339 1.527-0.045 0.073-0.189 0.133-0.319 0.133-0.19 0-0.237-0.086-0.237-0.43zM20.124 22.429c-0.050-0.050-0.556-0.095-1.124-0.1-0.79-0.007-1.080-0.056-1.235-0.211-0.111-0.111-0.166-0.239-0.121-0.284 0.103-0.103 2.234 0.168 2.683 0.342 0.185 0.071 0.336 0.178 0.336 0.237 0 0.131-0.412 0.143-0.54 0.016zM14.311 22.021c-0.768-0.15-1.222-0.355-1.222-0.553 0-0.206 0.448-0.208 1.709-0.008 0.67 0.106 0.925 0.198 0.953 0.343 0.064 0.332-0.452 0.41-1.44 0.218zM23.43 21.949c-0.1-0.1 0.586-0.405 0.912-0.405 0.264 0 0.296 0.13 0.084 0.342-0.157 0.157-0.857 0.201-0.996 0.063zM17.722 20.372c-0.503-0.538-0.709-0.595-1.1-0.306-0.499 0.369-0.899 0.33-1.217-0.117-0.255-0.358-0.276-0.365-0.5-0.162-0.179 0.162-0.268 0.178-0.377 0.068-0.206-0.206 0.266-0.805 0.673-0.854 0.25-0.030 0.358 0.042 0.513 0.342l0.197 0.38 0.405-0.25c0.572-0.353 1.080-0.321 1.563 0.099 0.378 0.328 0.427 0.34 0.829 0.193 0.853-0.312 1.466-0.171 1.466 0.338 0 0.18-0.105 0.221-0.58 0.224-0.319 0.002-0.718 0.083-0.886 0.179-0.441 0.252-0.653 0.224-0.986-0.133zM22.948 18.046c-0.192-0.192-0.070-0.411 0.229-0.411 0.233 0 0.304 0.055 0.273 0.212-0.043 0.222-0.355 0.346-0.502 0.199zM17.68 17.299c-0.050-0.050-0.556-0.095-1.124-0.1-0.79-0.007-1.080-0.056-1.235-0.211-0.111-0.111-0.166-0.239-0.121-0.284 0.103-0.103 2.234 0.168 2.683 0.342 0.185 0.071 0.336 0.178 0.336 0.237 0 0.131-0.412 0.143-0.54 0.016zM19.622 15.152c-0.136-0.079-0.419-0.267-0.629-0.418-0.348-0.25-0.412-0.259-0.714-0.102-0.423 0.22-1.13 0.12-1.495-0.211-0.239-0.217-0.275-0.223-0.275-0.045 0 0.224-0.186 0.275-0.304 0.085-0.122-0.198 0.155-0.58 0.464-0.639 0.37-0.071 0.857 0.106 0.754 0.274-0.080 0.13 0.324 0.067 0.875-0.136 0.306-0.113 0.691-0.030 1.211 0.26 0.27 0.15 0.507 0.185 0.855 0.126 0.668-0.114 1.24 0.076 1.332 0.442 0.129 0.513-0.194 0.719-0.491 0.313-0.139-0.19-0.202-0.196-0.563-0.051-0.612 0.245-0.751 0.259-1.020 0.103zM15.847 11.744c-0.109-0.061-0.302-0.077-0.429-0.037s-0.266 0.018-0.308-0.050c-0.042-0.068-0.294-0.182-0.56-0.254-0.616-0.166-0.657-0.458-0.055-0.388 0.236 0.028 0.459 0.099 0.496 0.159s0.229 0.109 0.426 0.109c0.198 0 0.359 0.055 0.359 0.122s0.215 0.122 0.479 0.122c0.528 0 0.865 0.096 0.865 0.246 0 0.133-1.027 0.11-1.274-0.029zM19.572 8.968c-0.266-0.167-0.006-0.408 0.855-0.794 0.591-0.265 0.773-0.302 0.916-0.183 0.241 0.2 0.030 0.448-0.617 0.725-0.762 0.326-0.965 0.37-1.154 0.252zM22.557 8.474c-0.119-0.193 0.507-0.734 0.849-0.734 0.407 0 0.402 0.277-0.011 0.602-0.344 0.271-0.716 0.329-0.838 0.132z"></path>
</svg>
