<!-- Generated by IcoMoon.io -->
<svg version="1.1" xmlns="http://www.w3.org/2000/svg" width="32" height="32" viewBox="0 0 32 32">
<path d="M13.092 29.717c-6.615-1.459-11.085-7.007-11.090-13.766-0.004-5.959 3.906-11.379 9.485-13.149 2.356-0.747 4.25-0.964 5.992-0.684 6.514 1.044 10.815 5.040 12.209 11.343 0.458 2.070 0.46 2.92 0.013 5.083-0.94 4.555-3.611 8.038-7.697 10.039-2.724 1.334-6.073 1.76-8.911 1.134zM19.254 28.204c2.12-0.572 5.111-2.422 6.030-3.731 0.225-0.32 0.196-0.353-0.321-0.353-0.692 0-0.846-0.215-0.684-0.953 0.161-0.732 0.473-0.729 0.473 0.005 0 0.599 0.263 0.766 0.448 0.284 0.060-0.156 0.197-0.284 0.305-0.284s0.196 0.128 0.196 0.284c0 0.522 0.278 0.291 0.974-0.807 0.591-0.934 1.49-2.995 1.491-3.418 0-0.074-0.44-0.135-0.978-0.135-1.1 0-1.423-0.339-0.656-0.688 0.377-0.172 0.443-0.29 0.306-0.547-0.337-0.63 0.078-0.569 0.779 0.115l0.706 0.69 0.137-1.096c0.47-3.758-0.905-7.719-3.62-10.435-1.014-1.014-2.618-2.165-2.3-1.65 0.191 0.308-0.209 0.68-0.801 0.745-0.323 0.035-0.587 0.017-0.587-0.041 0-0.357 0.453-0.839 0.788-0.839 0.662 0 0.073-0.503-1.105-0.944l-1.040-0.389-0.358 0.429c-0.413 0.495-0.446 0.645-0.178 0.811 0.106 0.065 0.144 0.199 0.084 0.296-0.151 0.245-1.035 0.223-1.035-0.026 0-0.347 0.407-1.017 0.813-1.34 0.378-0.301 0.365-0.313-0.449-0.44-0.461-0.072-0.988-0.173-1.17-0.225-0.375-0.106-0.422 0.081-0.125 0.501 0.151 0.214 0.225 0.226 0.297 0.047 0.133-0.329 0.823-0.299 0.823 0.036 0 0.15-0.088 0.327-0.195 0.394s-0.172 0.221-0.143 0.343c0.028 0.122-0.034 0.265-0.137 0.317s-0.216-0.097-0.249-0.332c-0.033-0.235-0.098-0.427-0.145-0.427-0.166 0-0.935 0.478-1.069 0.664-0.090 0.125-0.252 0.118-0.474-0.021-0.238-0.149-0.465-0.153-0.772-0.013-0.356 0.162-0.509 0.123-0.846-0.214-0.333-0.333-0.365-0.457-0.17-0.65s0.281-0.169 0.446 0.124c0.202 0.358 0.209 0.358 0.484 0 0.195-0.254 0.306-0.292 0.368-0.126 0.145 0.388 0.386 0.27 0.483-0.237 0.087-0.453 0.051-0.473-0.784-0.452-1.214 0.031-1.822 0.213-1.822 0.544 0 0.391-1.016 0.864-1.282 0.598-0.143-0.143-0.040-0.266 0.35-0.421 0.304-0.121 0.452-0.257 0.329-0.303-0.297-0.111-2.613 0.821-3.568 1.435-0.681 0.438-0.715 0.494-0.332 0.552 0.403 0.061 0.621 0.417 0.256 0.417-0.094 0-0.26 0.256-0.369 0.569-0.282 0.808-0.646 0.738-0.49-0.095 0.174-0.928-0.102-0.85-1.326 0.374-1.153 1.153-1.95 2.337-0.929 1.38 0.546-0.512 1.010-0.678 1.010-0.361 0 0.088-0.167 0.311-0.37 0.495-0.27 0.244-0.341 0.483-0.261 0.883 0.13 0.652 0.017 0.676-0.717 0.154l-0.553-0.394-0.662 1.395c-1.637 3.447-1.591 7.357 0.129 10.938 1.334 2.777 4.363 5.426 7.283 6.368 2.197 0.709 5.105 0.789 7.285 0.201zM17.804 28.102c-0.548-0.22-0.67-0.46-0.526-1.035 0.154-0.615 0.459-0.628 0.459-0.020 0 0.551 0.334 0.823 0.496 0.402 0.186-0.485 0.482-0.336 0.418 0.21-0.068 0.575-0.262 0.677-0.846 0.442zM14.523 27.448c-0.251-0.268-0.388-0.589-0.323-0.758 0.159-0.415 0.441-0.365 0.563 0.099 0.062 0.238 0.24 0.379 0.449 0.357 0.587-0.061 0.651-0.006 0.441 0.387-0.269 0.503-0.599 0.478-1.129-0.085zM16.41 27.625c0-0.158-0.103-0.453-0.23-0.655-0.265-0.424-0.11-0.673 0.316-0.509 0.327 0.126 0.422 1.451 0.103 1.451-0.104 0-0.19-0.129-0.19-0.287zM12.76 27.592c-0.407-0.106-0.408-0.145-0.026-0.729 0.168-0.257 0.469-0.467 0.667-0.467 0.298 0 0.339 0.092 0.236 0.521-0.204 0.855-0.201 0.852-0.878 0.675zM19.203 27.318c-0.18-0.101-0.328-0.392-0.328-0.648 0-0.369 0.097-0.465 0.474-0.465 0.492 0 0.652 0.288 0.237 0.427-0.188 0.063-0.186 0.142 0.009 0.378 0.301 0.365 0.055 0.558-0.392 0.307zM10.648 27.044c-0.181-0.471-0.146-0.507 0.367-0.379 0.468 0.118 0.474 0.108 0.189-0.326-0.365-0.557-0.207-0.741 0.398-0.465 0.278 0.127 0.422 0.317 0.36 0.477-0.056 0.146-0.102 0.43-0.102 0.63 0 0.465-1.037 0.52-1.212 0.064zM20.508 26.497c-0.553-0.845-0.309-1.376 0.535-1.164 0.506 0.127 0.742 0.773 0.469 1.283-0.258 0.481-0.641 0.436-1.005-0.119zM21.15 26.122c0-0.046-0.085-0.136-0.19-0.201s-0.19-0.027-0.19 0.084c0 0.11 0.085 0.201 0.19 0.201s0.19-0.038 0.19-0.084zM9.724 26.642c-0.473-0.122-0.212-0.436 0.361-0.436 0.285 0 0.448 0.091 0.404 0.225-0.089 0.267-0.31 0.328-0.765 0.211zM22.198 26.024c-0.163-0.263 0.589-0.956 1.038-0.956 0.512 0 0.485 0.064-0.273 0.642-0.364 0.278-0.702 0.416-0.765 0.314zM8.295 25.22c-0.371-0.371-0.278-0.778 0.152-0.666 0.246 0.064 0.379 0.006 0.379-0.167 0-0.147 0.085-0.267 0.19-0.267 0.266 0 0.237 0.825-0.038 1.1-0.125 0.125-0.279 0.228-0.341 0.228s-0.216-0.102-0.341-0.228zM9.621 25.244c0.037-0.112 0.149-0.204 0.248-0.204s0.211 0.092 0.248 0.204c0.037 0.112-0.074 0.204-0.248 0.204s-0.285-0.092-0.248-0.204zM12.73 24.977c-0.408-0.145-0.887-0.419-1.065-0.608-0.44-0.467-0.68-1.662-0.564-2.809 0.092-0.906 0.121-0.948 0.665-0.948 0.52 0 0.574 0.061 0.628 0.711 0.032 0.391 0.145 0.711 0.25 0.711 0.106 0 0.136-0.172 0.068-0.388-0.126-0.396 0.334-1.318 0.657-1.318 0.381 0 0.769 0.636 0.789 1.293l0.022 0.697 0.14-0.724c0.077-0.398 0.286-0.867 0.464-1.043 0.304-0.299 0.347-0.291 0.691 0.129 0.202 0.246 0.367 0.651 0.367 0.901s0.085 0.453 0.19 0.453c0.104 0 0.19-0.204 0.19-0.453s0.165-0.654 0.367-0.901c0.344-0.42 0.387-0.428 0.691-0.129 0.178 0.175 0.387 0.645 0.464 1.043l0.14 0.724 0.022-0.697c0.021-0.658 0.409-1.293 0.789-1.293 0.324 0 0.783 0.921 0.657 1.318-0.069 0.216-0.039 0.388 0.068 0.388 0.105 0 0.217-0.32 0.25-0.711 0.054-0.651 0.107-0.711 0.628-0.711 0.543 0 0.573 0.042 0.665 0.948 0.198 1.963-0.4 3.095-1.85 3.498-1.058 0.294-5.487 0.238-6.381-0.081zM21.529 25.088c0-0.213 0.493-0.412 0.645-0.26 0.228 0.228 0.104 0.429-0.266 0.429-0.209 0-0.379-0.076-0.379-0.169zM23.188 24.364c-0.552-0.084-0.671-0.397-0.294-0.774 0.308-0.308 0.72-0.288 0.72 0.037 0 0.145 0.128 0.313 0.284 0.373s0.284 0.197 0.284 0.305c0 0.198-0.060 0.201-0.995 0.060zM6.867 24.183c-0.251-0.251-0.118-0.971 0.272-1.467 0.316-0.401 0.454-0.461 0.664-0.287 0.303 0.251 0.361 1.122 0.075 1.122-0.104 0-0.19-0.085-0.19-0.19s-0.085-0.19-0.19-0.19c-0.104 0-0.19 0.256-0.19 0.569 0 0.544-0.171 0.714-0.442 0.442zM5.83 22.566c-0.348-0.348-0.281-0.763 0.104-0.643 0.399 0.124 0.694-0.052 0.866-0.516 0.070-0.189 0.213-0.291 0.318-0.226 0.362 0.224 0.189 0.784-0.37 1.198-0.657 0.486-0.626 0.479-0.918 0.187zM24.933 22.255c-0.244-0.197-0.371-0.444-0.294-0.569 0.2-0.323 0.872-0.269 0.872 0.070 0 0.16 0.128 0.339 0.284 0.399s0.284 0.185 0.284 0.278c0 0.293-0.698 0.184-1.147-0.179zM26.366 21.265c0.111-0.504 0.083-0.595-0.152-0.505-0.158 0.061-0.338 0.059-0.401-0.004-0.187-0.187 0.486-0.808 0.875-0.808 0.311 0 0.352 0.122 0.302 0.899-0.045 0.697-0.136 0.914-0.408 0.966-0.304 0.058-0.333-0.016-0.216-0.548zM9.016 20.291c0-1.282-0.127-1.569-1.262-2.85-0.808-0.912-1.203-1.877-1.203-2.935 0-1.233 0.45-0.957 0.569 0.349 0.099 1.085 0.161 1.204 1.462 2.801 0.439 0.539 0.851 1.258 0.914 1.597 0.166 0.887 0.033 2.074-0.244 2.165-0.173 0.057-0.237-0.248-0.237-1.128zM22.604 21.339c-0.225-0.225-0.134-1.954 0.137-2.581 0.145-0.336 0.657-1.065 1.138-1.621 0.905-1.046 1.023-1.32 1.108-2.576 0.073-1.082 0.525-1.128 0.525-0.054 0 1.058-0.396 2.022-1.203 2.935-1.132 1.278-1.262 1.57-1.262 2.835 0 1.099-0.12 1.387-0.442 1.064zM5.413 20.731c0-0.196 0.128-0.462 0.284-0.592 0.508-0.422 0.301-0.556-0.404-0.262-0.431 0.18-0.755 0.221-0.867 0.109-0.229-0.229 1.455-1.064 1.844-0.915 0.405 0.155 0.345 0.806-0.134 1.454-0.477 0.645-0.723 0.715-0.723 0.205zM11.329 19.722c-0.125-0.125-0.228-0.52-0.228-0.877 0-0.527-0.153-0.784-0.812-1.364-2.217-1.952-2.659-4.986-1.073-7.363 2.367-3.545 8.046-4.403 11.885-1.796 1.237 0.84 2.44 2.576 2.621 3.782 0.305 2.031-0.421 4.030-1.95 5.376-0.666 0.586-0.812 0.835-0.812 1.379 0 1.291-1.165 1.444-1.292 0.17-0.033-0.328-0.148-0.597-0.257-0.597s-0.148 0.129-0.088 0.286c0.171 0.445-0.209 1.231-0.595 1.231-0.521 0-0.799-0.38-0.823-1.128l-0.022-0.673-0.131 0.67c-0.174 0.886-0.342 1.131-0.778 1.131-0.424 0-0.754-0.534-0.754-1.22 0-0.268-0.085-0.486-0.19-0.486s-0.19 0.219-0.19 0.486c0 0.686-0.33 1.22-0.754 1.22-0.435 0-0.604-0.246-0.778-1.131l-0.131-0.67-0.022 0.673c-0.024 0.748-0.301 1.128-0.823 1.128-0.386 0-0.766-0.785-0.595-1.231 0.060-0.157 0.015-0.286-0.1-0.286s-0.21 0.239-0.21 0.531c0 0.546-0.296 0.986-0.664 0.986-0.115 0-0.311-0.102-0.436-0.228zM17.043 16.108c0.302-0.221 0.282-0.3-0.265-1.043-0.325-0.442-0.662-0.804-0.748-0.804s-0.423 0.362-0.748 0.804c-0.546 0.743-0.566 0.822-0.265 1.043 0.18 0.131 0.635 0.239 1.013 0.239s0.833-0.107 1.013-0.239zM13.572 13.784c0.599-0.31 1.131-1.156 1.131-1.798 0-0.585-0.481-1.416-1.026-1.773-1.085-0.711-2.783-0.114-3.117 1.095-0.529 1.917 1.255 3.384 3.012 2.476zM20.55 13.803c0.482-0.249 0.8-0.697 1.045-1.471 0.197-0.621-0.257-1.679-0.884-2.061-1.14-0.695-2.491-0.35-3.079 0.786-0.938 1.814 1.068 3.703 2.917 2.747zM4.271 18.515c-0.102-0.267-0.185-0.566-0.185-0.664 0-0.295 0.348-0.199 0.544 0.151 0.174 0.311 0.202 0.311 0.546 0 0.467-0.423 0.617-0.414 0.617 0.037 0 0.22-0.237 0.484-0.598 0.664-0.754 0.376-0.705 0.386-0.924-0.188zM4.086 16.157c0-0.417 0.085-0.758 0.19-0.758s0.19 0.341 0.19 0.758c0 0.417-0.085 0.758-0.19 0.758s-0.19-0.341-0.19-0.758zM5.034 16.726c0-0.104 0.080-0.19 0.178-0.19s0.231 0.085 0.296 0.19c0.064 0.104-0.016 0.19-0.178 0.19s-0.296-0.085-0.296-0.19zM26.728 16.702c-0.148-0.24 0.085-0.545 0.418-0.545 0.2 0 0.25-0.114 0.166-0.379s-0.034-0.379 0.164-0.379c0.341 0 0.569 0.619 0.412 1.114-0.117 0.367-0.964 0.506-1.16 0.19zM4.845 15.399c0-0.209 0.085-0.379 0.19-0.379s0.19 0.171 0.19 0.379c0 0.209-0.085 0.379-0.19 0.379s-0.19-0.171-0.19-0.379zM26.493 14.783c0.039-0.274 0.213-0.448 0.487-0.487 0.434-0.062 0.585 0.225 0.234 0.442-0.106 0.065-0.144 0.198-0.084 0.296s-0.073 0.177-0.294 0.177c-0.31 0-0.39-0.099-0.343-0.427zM3.897 14.287c0-0.104 0.171-0.244 0.379-0.31 0.449-0.143 0.483-0.398 0.103-0.777-0.348-0.348-0.177-0.834 0.293-0.834 0.444 0 0.653 0.738 0.414 1.461-0.124 0.376-0.322 0.547-0.682 0.59-0.279 0.033-0.507-0.025-0.507-0.129zM27.314 13.695c-0.065-0.106-0.334-0.193-0.598-0.193-0.744 0-0.427-0.448 0.372-0.526 0.595-0.058 0.698-0.012 0.698 0.313 0 0.437-0.296 0.692-0.472 0.406zM26.269 12.196c0-0.093 0.128-0.218 0.284-0.278s0.284-0.194 0.284-0.299c0-0.104-0.132-0.139-0.294-0.077-0.331 0.127-1.223-0.614-1.223-1.017 0-0.142 0.128-0.306 0.284-0.366 0.424-0.163 0.344-0.428-0.095-0.313-0.498 0.13-0.489-0.252 0.012-0.52 0.686-0.367 1.284 0.531 0.725 1.090-0.301 0.301-0.021 0.705 0.303 0.436 0.182-0.151 0.328-0.125 0.552 0.099 0.356 0.356 0.376 0.548 0.108 1.048-0.195 0.365-0.941 0.521-0.941 0.197zM5.076 11.021c0.017-0.613 0.414-0.93 0.747-0.597 0.133 0.133 0.092 0.351-0.129 0.689-0.429 0.655-0.638 0.624-0.617-0.092zM7.025 9.711c0.064-0.104 0.155-0.19 0.201-0.19s0.084 0.085 0.084 0.19c0 0.104-0.090 0.19-0.201 0.19s-0.148-0.085-0.084-0.19zM24.128 8.834c-0.247-0.247-0.155-1.626 0.103-1.54 0.13 0.044 0.237 0.243 0.237 0.442s0.128 0.363 0.284 0.363c0.444 0 0.349 0.749-0.103 0.814-0.213 0.030-0.447-0.005-0.521-0.079zM7.499 8.399c0-0.2-0.052-0.499-0.115-0.664-0.073-0.191-0.012-0.3 0.167-0.3 0.155 0 0.334 0.192 0.397 0.427 0.181 0.677 0.14 0.901-0.165 0.901-0.156 0-0.284-0.164-0.284-0.364zM8.937 8.219c-0.082-0.132-0.097-0.292-0.035-0.354 0.17-0.17 0.355 0.080 0.263 0.355-0.064 0.193-0.109 0.193-0.228-0.001zM22.356 7.152c-0.066-0.171-0.012-0.411 0.119-0.535 0.184-0.173 0.258-0.17 0.325 0.013 0.048 0.13 0.215 0.237 0.371 0.237 0.433 0 0.186 0.466-0.284 0.535-0.249 0.037-0.46-0.062-0.532-0.25zM9.395 7.056c0-0.104 0.080-0.19 0.178-0.19s0.231 0.085 0.296 0.19c0.064 0.104-0.016 0.19-0.178 0.19s-0.296-0.085-0.296-0.19zM10.381 6.26c-0.278-0.278-0.301-0.91-0.033-0.91 0.16 0 0.564 0.756 0.564 1.055 0 0.162-0.307 0.078-0.531-0.145zM20.084 6.212c-0.131-0.341 0.081-0.718 0.32-0.57 0.24 0.149 0.225 0.845-0.019 0.845-0.108 0-0.243-0.124-0.301-0.275zM11.426 5.35c-0.135-0.516 0.178-0.669 0.425-0.208 0.262 0.489 0.251 0.587-0.063 0.587-0.144 0-0.307-0.171-0.361-0.379zM20.326 5.383c-0.305-0.337-0.423-0.791-0.207-0.791 0.349 0 0.841 0.447 0.841 0.765 0 0.466-0.228 0.475-0.634 0.026zM12.997 5.052c0-0.198 0.138-0.277 0.412-0.237 0.607 0.089 0.672 0.535 0.078 0.535-0.319 0-0.49-0.104-0.49-0.298z"></path>
</svg>
