<!-- Generated by IcoMoon.io -->
<svg version="1.1" xmlns="http://www.w3.org/2000/svg" width="32" height="32" viewBox="0 0 32 32">
<path d="M8.178 29.978c-0.092-0.023-0.137-0.066-0.228-0.22-0.064-0.11-0.073-0.149-0.045-0.202 0.059-0.11 0.154-0.143 0.243-0.084 0.117 0.077 0.238 0.288 0.238 0.416 0 0.118-0.033 0.132-0.208 0.089zM23.125 29.82c-0.456-0.074-0.979-0.252-1.674-0.569-0.574-0.262-0.49-0.251-2.002-0.275-1.491-0.024-1.569-0.033-2.11-0.248-0.339-0.135-0.676-0.184-0.933-0.135-0.329 0.062-0.819 0.087-1.177 0.061-0.397-0.029-0.455-0.039-0.623-0.103-0.15-0.058-0.356-0.071-0.264-0.017 0.085 0.050 0.068 0.084-0.064 0.13-0.173 0.060-1.805 0.060-2.074 0-0.281-0.062-0.604-0.227-0.604-0.308 0-0.069-0.009-0.068 0.448-0.048 0.105 0.005 0.302-0.018 0.436-0.050l0.244-0.058-0.274-0.138c-0.151-0.076-0.303-0.138-0.337-0.138s-0.086-0.020-0.113-0.044c-0.028-0.024-0.127-0.069-0.221-0.099-0.165-0.054-0.172-0.053-0.213 0.005-0.023 0.033-0.116 0.095-0.205 0.137-0.183 0.086-0.203 0.12-0.077 0.135 0.242 0.029 0.012 0.183-0.284 0.19l-0.169 0.004 0.168 0.032c0.092 0.018 0.168 0.044 0.168 0.059 0 0.067-0.2 0.124-0.433 0.124-0.217 0-0.246-0.007-0.261-0.064-0.009-0.035-0.031-0.064-0.049-0.064-0.057 0-0.409-0.228-0.393-0.254 0.009-0.014 0.063-0.037 0.12-0.051 0.098-0.024 0.092-0.027-0.087-0.049-0.311-0.038-1.504-0.033-1.805 0.007-0.335 0.045-0.441 0.025-0.469-0.089-0.014-0.055-0.006-0.093 0.023-0.112 0.149-0.097 1.121-0.313 1.729-0.385 0.332-0.039 0.339-0.042 0.24-0.084-0.063-0.027-0.333-0.055-0.71-0.073-0.726-0.035-0.835-0.050-0.887-0.124-0.022-0.031-0.072-0.067-0.112-0.079-0.058-0.018-0.078-0.007-0.104 0.061-0.018 0.046-0.032 0.088-0.032 0.094s0.064 0.018 0.143 0.029c0.162 0.022 0.368 0.1 0.368 0.14 0 0.056-0.134 0.104-0.377 0.135-0.222 0.028-0.268 0.045-0.356 0.133-0.090 0.090-0.117 0.1-0.239 0.086-0.082-0.009-0.166-0.043-0.206-0.084-0.038-0.038-0.103-0.068-0.146-0.068-0.179 0-0.343-0.13-0.242-0.191 0.022-0.014-0.182-0.036-0.455-0.048-0.384-0.018-0.524-0.013-0.62 0.020-0.085 0.030-0.286 0.043-0.651 0.042-0.844-0.002-0.999-0.011-0.98-0.060 0.009-0.023-0.001-0.060-0.021-0.081-0.029-0.029-0.023-0.049 0.026-0.086 0.051-0.038 0.119-0.043 0.335-0.025 0.234 0.019 0.266 0.016 0.233-0.024-0.021-0.025-0.111-0.065-0.199-0.087-0.136-0.035-0.161-0.053-0.161-0.116 0-0.056 0.026-0.083 0.104-0.108 0.152-0.049 0.47-0.091 0.887-0.119l0.368-0.024-0.307-0.034c-0.175-0.019-0.331-0.054-0.363-0.081-0.031-0.026-0.099-0.043-0.152-0.039-0.116 0.009-0.109-0.068 0.007-0.085 0.042-0.006 0.093-0.034 0.113-0.061 0.030-0.041 0.078-0.046 0.273-0.028 0.579 0.054 0.7 0.059 0.839 0.038 0.12-0.018 0.14-0.030 0.108-0.064-0.022-0.023-0.054-0.036-0.072-0.029-0.049 0.019-0.152-0.175-0.133-0.248 0.014-0.052 0.008-0.057-0.029-0.026s-0.045 0.021-0.045-0.056c0-0.073-0.052-0.148-0.241-0.344-0.133-0.138-0.234-0.269-0.226-0.292s0.006-0.046-0.007-0.051c-0.012-0.006-0.078-0.086-0.145-0.178s-0.139-0.168-0.159-0.168c-0.020-0-0.071-0.050-0.112-0.11s-0.093-0.103-0.116-0.094c-0.023 0.009-0.050-0.007-0.060-0.034s-0.041-0.050-0.067-0.050c-0.026 0-0.063-0.029-0.082-0.065s-0.047-0.057-0.062-0.048c-0.015 0.009-0.071-0.019-0.123-0.063s-0.111-0.080-0.131-0.080c-0.044 0-0.046-0.053-0.003-0.080 0.060-0.037-0.004-0.080-0.087-0.059-0.061 0.015-0.076 0.010-0.058-0.019 0.014-0.023 0.064-0.034 0.117-0.026 0.076 0.011 0.092 0.002 0.093-0.053 0.001-0.062 0.004-0.062 0.043 0.010 0.025 0.044 0.051 0.062 0.063 0.043 0.028-0.046 0.23-0.026 0.297 0.028 0.047 0.038 0.051 0.038 0.027-0.001-0.021-0.036-0.014-0.040 0.034-0.020 0.034 0.014 0.119 0.036 0.189 0.049 0.211 0.038 0.535 0.101 0.669 0.129 0.225 0.048 0.97 0.011 1.21-0.060 0.119-0.035 0.252-0.058 0.296-0.050s0.080 0.002 0.080-0.012c0-0.015 0.068-0.030 0.151-0.034s0.169-0.023 0.19-0.041c0.022-0.018 0.055-0.024 0.073-0.012s0.033 0.004 0.033-0.017c0-0.020 0.022-0.029 0.048-0.019s0.048 0.007 0.048-0.008c0-0.014 0.056-0.043 0.124-0.063 0.193-0.058 0.219-0.112 0.108-0.22-0.051-0.050-0.173-0.131-0.272-0.181-0.108-0.055-0.173-0.107-0.164-0.131 0.023-0.061 0.242-0.084 0.483-0.050 0.119 0.017 0.238 0.029 0.264 0.029s0.072 0.008 0.102 0.021c0.039 0.016 0.093-0.017 0.193-0.12s0.19-0.159 0.324-0.201c0.138-0.044 0.196-0.081 0.231-0.148 0.054-0.105 0.096-0.114 0.124-0.025 0.022 0.069 0.050 0.075 0.201 0.045 0.095-0.019 0.098-0.026 0.212-0.481l0.116-0.462-0.079-0.262c-0.044-0.144-0.096-0.37-0.117-0.502-0.046-0.296-0.019-1.065 0.050-1.423 0.027-0.141 0.049-0.321 0.049-0.401 0-0.14 0.056-0.263 0.155-0.337 0.037-0.028 0.043-0.137 0.031-0.607-0.014-0.558-0.017-0.576-0.1-0.697-0.109-0.159-0.11-0.295-0.001-0.454 0.083-0.122 0.084-0.135 0.088-0.684l0.004-0.56-0.088-0.124c-0.113-0.16-0.113-0.294-0-0.455 0.088-0.124 0.088-0.125 0.088-0.684v-0.559l-0.091-0.128c-0.108-0.153-0.103-0.318 0.017-0.476 0.071-0.095 0.074-0.122 0.074-0.664 0-0.559-0.001-0.566-0.080-0.65-0.11-0.117-0.111-0.34-0.002-0.492 0.072-0.101 0.079-0.142 0.092-0.617l0.015-0.508-0.104-0.206c-0.117-0.231-0.116-0.332 0.007-0.499 0.108-0.147 0.101-0.607-0.017-1.004-0.174-0.588-0.233-1.247-0.173-1.91 0.017-0.189 0.015-0.28-0.008-0.28-0.018 0-0.099 0.13-0.179 0.29-0.108 0.215-0.16 0.287-0.2 0.279-0.125-0.024-0.061-0.367 0.122-0.656 0.088-0.138 0.287-0.608 0.287-0.676 0-0.016-0.156-0.080-0.348-0.142s-0.404-0.149-0.474-0.193c-0.079-0.050-0.155-0.074-0.205-0.065-0.066 0.013-0.085-0.002-0.118-0.094-0.033-0.090-0.143-0.183-0.218-0.183-0.009 0-0.007 0.063 0.005 0.14 0.039 0.26-0.087 0.202-0.204-0.094-0.035-0.089-0.074-0.229-0.086-0.311-0.019-0.123-0.041-0.161-0.129-0.215-0.12-0.074-0.301-0.328-0.306-0.428-0.024-0.508-0.017-0.654 0.042-0.834 0.071-0.217 0.23-0.439 0.497-0.693 0.247-0.235 0.407-0.323 0.86-0.472 1.414-0.464 4.012-0.678 7.060-0.581 2.308 0.074 4.156 0.381 4.802 0.799 0.222 0.144 0.707 0.653 0.733 0.768 0.010 0.045 0.038 0.137 0.063 0.203 0.028 0.076 0.045 0.244 0.045 0.453v0.332l-0.16 0.315c-0.088 0.173-0.16 0.339-0.16 0.369-0.001 0.13-0.201 0.473-0.276 0.473-0.043 0-0.049-0.031-0.038-0.189l0.014-0.189-0.154 0.13c-0.085 0.071-0.154 0.133-0.154 0.138s-0.057 0.221-0.128 0.481c-0.237 0.876-0.32 1.332-0.32 1.751 0 0.357 0.005 0.384 0.080 0.473 0.101 0.121 0.104 0.274 0.008 0.397-0.067 0.086-0.073 0.127-0.082 0.657l-0.010 0.566 0.086 0.13c0.104 0.158 0.107 0.242 0.015 0.431-0.066 0.137-0.070 0.18-0.059 0.714s0.017 0.576 0.090 0.704l0.079 0.136-0.088 0.159c-0.087 0.157-0.088 0.167-0.087 0.727 0.001 0.546 0.004 0.572 0.080 0.695 0.098 0.16 0.098 0.194-0.001 0.381-0.077 0.144-0.080 0.174-0.080 0.72 0 0.467 0.009 0.577 0.048 0.61 0.026 0.022 0.064 0.095 0.085 0.163 0.033 0.111 0.029 0.14-0.048 0.287-0.082 0.158-0.085 0.182-0.085 0.703 0 0.522 0.002 0.543 0.080 0.657 0.1 0.148 0.1 0.248-0 0.424-0.076 0.133-0.080 0.164-0.080 0.662 0 0.496 0.004 0.53 0.080 0.673 0.044 0.083 0.080 0.189 0.080 0.237s-0.036 0.14-0.080 0.204c-0.077 0.114-0.080 0.134-0.080 0.658s0.002 0.544 0.080 0.658c0.050 0.073 0.080 0.163 0.080 0.237s-0.030 0.163-0.080 0.237c-0.088 0.129-0.1 0.266-0.048 0.52 0.145 0.704 0.127 0.651 0.213 0.63 0.16-0.040 0.387 0.269 0.487 0.663l0.060 0.237 0.023-0.152c0.018-0.119 0.036-0.152 0.082-0.152 0.070 0 0.121 0.092 0.221 0.398 0.080 0.243 0.096 0.578 0.035 0.732-0.031 0.079-0.026 0.103 0.044 0.186 0.115 0.137 0.128 0.212 0.128 0.746 0 0.447-0.005 0.486-0.073 0.581-0.040 0.056-0.124 0.133-0.186 0.172l-0.113 0.070 0.090 0.056c0.142 0.088 0.231 0.186 0.254 0.277 0.025 0.101-0.059 0.274-0.168 0.345-0.114 0.075-0.153 0.168-0.096 0.226 0.055 0.055 0.068 0.050 1.231-0.438 0.583-0.244 0.691-0.28 0.729-0.243 0.046 0.046 0.202 0.474 0.202 0.554 0 0.032 0.041 0.045 0.14 0.045 0.11 0 0.144 0.013 0.156 0.059 0.022 0.083 0.149 0.098 1.155 0.133 0.477 0.017 1.010 0.052 1.184 0.079s0.32 0.049 0.323 0.049c0.003 0-0.001-0.036-0.009-0.080-0.024-0.123 0.072-0.139 0.186-0.031 0.052 0.050 0.094 0.107 0.094 0.129 0 0.115 0.283 0.1 0.593-0.030 0.304-0.128 0.462-0.168 0.462-0.118 0 0.020-0.032 0.047-0.071 0.062-0.062 0.023-0.056 0.029 0.056 0.050 0.070 0.013 0.182 0.030 0.25 0.037s0.262 0.055 0.432 0.107c0.521 0.159 0.693 0.195 1.099 0.226 0.216 0.017 0.44 0.031 0.498 0.031 0.146 0.001 0.125 0.083-0.051 0.202-0.269 0.18-0.73 0.291-1.382 0.33-0.323 0.020-0.347 0.025-0.318 0.079 0.017 0.032 0.122 0.101 0.232 0.154 0.222 0.106 0.565 0.434 0.565 0.54 0 0.081-0.069 0.138-0.125 0.104-0.026-0.016-0.082-0.003-0.145 0.034-0.056 0.033-0.194 0.070-0.306 0.082-0.177 0.019-0.194 0.026-0.125 0.053 0.302 0.122 0.445 0.194 0.459 0.233 0.025 0.064-0.094 0.13-0.332 0.186-0.173 0.040-0.384 0.045-1.282 0.028-1.231-0.023-1.25-0.020-1.66 0.215-0.248 0.143-0.298 0.159-0.576 0.189-0.731 0.077-1.853 0.118-2.11 0.076zM7.614 27.231l0.197-0.021v-0.107c0-0.059-0.004-0.107-0.008-0.107-0.046 0-0.832-0.099-0.908-0.114-0.085-0.017-0.1-0.011-0.096 0.039 0.004 0.042-0.014 0.057-0.059 0.051-0.323-0.040-0.603-0.044-0.746-0.009-0.091 0.022-0.165 0.050-0.165 0.062 0 0.022 1.292 0.215 1.49 0.223 0.055 0.002 0.188-0.006 0.296-0.017zM5.021 27.168c-0.011-0.011-0.038-0.012-0.061-0.003-0.026 0.010-0.018 0.018 0.019 0.019 0.034 0.001 0.053-0.006 0.042-0.017zM5.965 26.685c-0.040-0.008-0.104-0.008-0.144 0s-0.007 0.014 0.072 0.014c0.079 0 0.112-0.006 0.072-0.014zM19.27 22.88c0.012-0.048 0.029-0.117 0.039-0.152 0.015-0.052-0-0.046-0.084 0.032-0.056 0.053-0.116 0.121-0.133 0.152-0.026 0.047-0.016 0.056 0.063 0.056 0.076 0 0.098-0.017 0.115-0.088zM18.706 22.026c0.383-0.305 0.389-0.312 0.459-0.667 0.053-0.268 0.061-0.397 0.046-0.726-0.011-0.22-0.040-0.501-0.064-0.626-0.087-0.438-0.354-1.028-0.655-1.447-0.179-0.25-0.665-0.709-0.883-0.835-0.19-0.11-0.596-0.411-0.616-0.457-0.006-0.013-0.023-0.024-0.037-0.024s-0.101-0.072-0.193-0.161c-0.092-0.089-0.172-0.156-0.179-0.149s0.038 0.134 0.098 0.283c0.115 0.285 0.253 0.778 0.234 0.835-0.006 0.018-0.053-0.095-0.104-0.251-0.182-0.561-1.158-2.418-1.324-2.521-0.038-0.023-0.131 0.104-0.131 0.179 0 0.102-0.056 0.090-0.138-0.030-0.061-0.089-0.077-0.144-0.063-0.215 0.017-0.088 0.014-0.092-0.037-0.050-0.036 0.030-0.063 0.034-0.077 0.013-0.012-0.018-0.174 0.127-0.368 0.329-0.337 0.352-0.345 0.363-0.296 0.434 0.076 0.108 0.063 0.284-0.029 0.41-0.076 0.104-0.080 0.128-0.080 0.567 0 0.447 0.002 0.462 0.093 0.621 0.101 0.177 0.095 0.263-0.034 0.447-0.051 0.073-0.059 0.15-0.059 0.55 0 0.444 0.004 0.471 0.080 0.583 0.044 0.065 0.080 0.164 0.080 0.221s-0.036 0.155-0.080 0.221c-0.076 0.112-0.080 0.14-0.080 0.574 0 0.436 0.003 0.461 0.080 0.564 0.090 0.121 0.102 0.271 0.031 0.366-0.063 0.083-0.058 0.304 0.012 0.577l0.057 0.224 0.382 0.028c0.262 0.020 0.512 0.016 0.797-0.010 0.495-0.046 0.559-0.060 0.559-0.116 0-0.023 0.016-0.052 0.035-0.064 0.024-0.015 0.028 0 0.014 0.046-0.021 0.067-0.015 0.068 0.375 0.068 0.274 0 0.49 0.020 0.698 0.063 0.165 0.035 0.358 0.065 0.428 0.066s0.257 0.043 0.416 0.093c0.158 0.050 0.317 0.092 0.352 0.094s0.126-0.046 0.201-0.106zM16.251 21.63c0-0.039 0.061-0.084 0.083-0.061 0.008 0.008-0.007 0.033-0.034 0.055-0.030 0.025-0.049 0.028-0.049 0.006zM16.333 21.487c0.012-0.032 0.030-0.049 0.040-0.039s0 0.036-0.022 0.057c-0.032 0.031-0.035 0.028-0.018-0.018zM16.555 20.945c0.063-0.204 0.112-0.322 0.128-0.306 0.020 0.020-0.12 0.442-0.147 0.442-0.012 0-0.004-0.061 0.019-0.136zM16.925 19.4c0.002-0.037 0.009-0.045 0.019-0.019 0.009 0.023 0.008 0.051-0.003 0.061s-0.018-0.008-0.017-0.042zM16.923 18.667c0-0.026 0.014-0.048 0.032-0.048s0.032 0.022 0.032 0.048c0 0.026-0.014 0.048-0.032 0.048s-0.032-0.022-0.032-0.048zM16.946 18.44c-0.013-0.013-0.022-0.089-0.020-0.17l0.003-0.147 0.028 0.144c0.030 0.153 0.026 0.211-0.012 0.173zM12.182 21.989c-0.011-0.011-0.038-0.012-0.061-0.003-0.026 0.010-0.018 0.018 0.019 0.019 0.034 0.001 0.053-0.006 0.042-0.017zM12.475 21.943c0.058-0.002-0.304-0.199-0.474-0.257-0.061-0.021-0.139-0.065-0.174-0.097-0.084-0.078-0.127-0.076-0.083 0.005 0.019 0.036 0.048 0.056 0.065 0.046s0.030 0.004 0.030 0.031c0 0.027 0.018 0.046 0.040 0.042s0.036 0.017 0.031 0.048c-0.006 0.033 0.011 0.056 0.040 0.056 0.027 0 0.049 0.014 0.049 0.032s0.022 0.032 0.048 0.032c0.026 0 0.048 0.016 0.048 0.036s0.028 0.028 0.064 0.019c0.035-0.009 0.064-0.002 0.064 0.016 0 0.020 0.040 0.025 0.1 0.013 0.055-0.011 0.123-0.021 0.152-0.022zM13.078 21.893c0.094-0.014 0.108-0.032 0.153-0.188 0.084-0.288 0.115-0.496 0.133-0.883 0.015-0.333 0.010-0.384-0.050-0.502-0.083-0.163-0.083-0.201-0.003-0.358 0.056-0.11 0.064-0.188 0.064-0.646-0-0.466-0.007-0.531-0.064-0.617-0.035-0.053-0.064-0.132-0.064-0.176s0.029-0.123 0.064-0.176c0.057-0.086 0.064-0.151 0.064-0.607 0-0.463-0.006-0.522-0.067-0.622l-0.067-0.11-0.447 0.459 0.069 0.089c0.153 0.196 0.321 0.469 0.321 0.521 0 0.030-0.058 0.178-0.128 0.328-0.133 0.285-0.414 1.085-0.415 1.182-0 0.031-0.015 0.056-0.032 0.056s-0.032-0.006-0.032-0.012c0-0.095 0.378-1.224 0.47-1.405 0.060-0.118 0.039-0.134-0.089-0.067-0.095 0.049-0.1 0.058-0.050 0.095 0.049 0.036 0.040 0.046-0.087 0.089-0.079 0.027-0.151 0.040-0.161 0.030s-0.019 0.002-0.019 0.028c0 0.026-0.044 0.072-0.097 0.104-0.123 0.073-0.226 0.182-0.204 0.217 0.009 0.015-0.006 0.027-0.034 0.027s-0.059 0.022-0.070 0.050c-0.011 0.028-0.040 0.042-0.066 0.032-0.031-0.012-0.042-0.003-0.031 0.025 0.009 0.024 0.004 0.064-0.012 0.088-0.025 0.038-0.034 0.038-0.060-0.003-0.029-0.044-0.047-0.023-0.036 0.042 0.002 0.014-0.017 0.057-0.044 0.095-0.033 0.048-0.049 0.055-0.050 0.022-0.001-0.026-0.023 0.003-0.049 0.064s-0.064 0.121-0.083 0.133c-0.019 0.012-0.027 0.053-0.017 0.091 0.014 0.054 0.007 0.065-0.032 0.051-0.040-0.016-0.043-0.010-0.012 0.027 0.026 0.031 0.027 0.052 0.005 0.067-0.018 0.011-0.034 0.002-0.034-0.021-0.002-0.084-0.056 0.053-0.094 0.238-0.021 0.101-0.049 0.184-0.064 0.184-0.040 0-0.067 0.139-0.033 0.173 0.019 0.019 0.018 0.045-0.003 0.070-0.018 0.022 0.13-0.029 0.328-0.113 0.516-0.218 0.755-0.303 0.697-0.249-0.026 0.025-0.221 0.118-0.432 0.208-0.828 0.351-0.807 0.339-0.895 0.537l-0.079 0.178 0.099 0.237c0.116 0.276 0.112 0.273 0.905 0.696 0.55 0.294 0.526 0.288 0.936 0.226zM19.481 18.467c-0.132-0.199-0.123-0.299 0.039-0.477 0.060-0.066 0.063-0.104 0.050-0.623-0.014-0.536-0.017-0.557-0.1-0.677-0.109-0.158-0.108-0.266 0.002-0.423 0.087-0.124 0.088-0.127 0.088-0.668v-0.544l-0.091-0.128c-0.106-0.15-0.103-0.303 0.009-0.46 0.060-0.084 0.070-0.155 0.088-0.601l0.020-0.506-0.1-0.158c-0.124-0.195-0.128-0.321-0.015-0.485 0.081-0.119 0.086-0.147 0.1-0.626l0.015-0.502-0.103-0.154c-0.127-0.191-0.123-0.364 0.014-0.527l0.088-0.104-0.013-0.497c-0.009-0.326-0.028-0.523-0.055-0.573-0.041-0.075-0.044-0.072-0.16 0.148-0.171 0.326-0.463 0.721-0.738 0.999-0.132 0.134-0.635 0.558-1.119 0.943-1.109 0.884-1.84 1.592-2.024 1.963-0.107 0.214-0.118 0.26-0.118 0.499 0 0.237 0.011 0.285 0.113 0.489 0.196 0.392 0.726 0.93 2.141 2.172 0.609 0.534 0.93 0.862 1.185 1.208 0.232 0.314 0.513 0.797 0.657 1.127l0.108 0.248 0.018-0.918zM11.184 17.565c0.011-0.017 0.446-0.372 0.967-0.788 1.297-1.036 1.293-1.032 1.159-1.282-0.078-0.146-0.078-0.182 0-0.344 0.053-0.109 0.062-0.201 0.063-0.624 0.001-0.436-0.007-0.51-0.063-0.615-0.079-0.147-0.079-0.197 0-0.359 0.047-0.097 0.062-0.198 0.063-0.417l0.001-0.289-0.136-0.133c-0.162-0.159-2.113-1.731-2.13-1.717-0.006 0.006 0.022 0.058 0.063 0.115 0.095 0.134 0.096 0.321 0 0.422-0.064 0.069-0.068 0.104-0.068 0.674 0 0.555 0.005 0.61 0.067 0.71 0.090 0.145 0.091 0.306 0.003 0.425-0.066 0.090-0.070 0.127-0.070 0.691 0 0.556 0.005 0.602 0.068 0.691 0.086 0.121 0.086 0.314-0.002 0.455-0.060 0.098-0.066 0.157-0.066 0.689 0 0.534 0.005 0.589 0.064 0.664 0.086 0.109 0.086 0.343 0 0.472-0.050 0.075-0.064 0.15-0.064 0.344-0 0.225 0.027 0.3 0.079 0.216zM14.854 15.076c-0.069-0.165-0.039-0.335 0.118-0.676 0.075-0.163 0.136-0.329 0.136-0.368s-0.054-0.254-0.121-0.476c-0.083-0.279-0.135-0.403-0.168-0.403s-0.041 0.021-0.029 0.067c0.015 0.056 0.006 0.064-0.052 0.050-0.060-0.015-0.079 0.007-0.14 0.165-0.063 0.163-0.071 0.254-0.080 0.862-0.005 0.374-0.001 0.679 0.010 0.679 0.037-0 0.052 0.118 0.022 0.171-0.022 0.039-0.016 0.053 0.020 0.053 0.027 0 0.050 0.022 0.050 0.050 0 0.030 0.015 0.041 0.037 0.027 0.025-0.015 0.031-0.006 0.018 0.027-0.036 0.094 0.020 0.089 0.123-0.010 0.102-0.099 0.102-0.101 0.055-0.215zM15.142 14.653c-0.020-0.256-0.023-0.265-0.062-0.174-0.023 0.053-0.041 0.218-0.042 0.368l-0.001 0.272 0.063-0.098c0.055-0.086 0.060-0.132 0.042-0.368zM14.31 14.119c-0.026-0.166-0.041-0.171-0.041-0.013 0 0.073 0.013 0.133 0.030 0.133s0.022-0.053 0.011-0.12zM15.132 13.614c-0.053-0.16-0.077-0.114-0.027 0.051 0.022 0.075 0.046 0.119 0.053 0.099s-0.005-0.088-0.026-0.151zM14.467 10.858c-0.080-0.027-0.034-0.065 0.073-0.062 0.062 0.002 0.112 0.015 0.112 0.029 0 0.047 0.184 0.027 0.203-0.022 0.010-0.026 0.044-0.047 0.075-0.047 0.055 0.001 0.055 0.003 0 0.044-0.050 0.038-0.038 0.042 0.096 0.035 0.202-0.011 0.328-0.046 0.33-0.091 0.001-0.021 0.017-0.017 0.040 0.011 0.021 0.026 0.064 0.050 0.094 0.052 0.044 0.003 0.049-0.007 0.023-0.056-0.036-0.067-0.050-0.063 0.263-0.071 0.1-0.003 0.192-0.016 0.205-0.029s0.050-0.024 0.083-0.024c0.032 0 0.059-0.016 0.059-0.035s0.020-0.028 0.045-0.018c0.025 0.009 0.071-0.003 0.104-0.028s0.092-0.045 0.132-0.046c0.040-0.001 0.081-0.023 0.091-0.049 0.011-0.028 0.058-0.048 0.113-0.048s0.086-0.013 0.075-0.032c-0.011-0.018 0.008-0.032 0.041-0.032 0.116 0 0.199-0.108 0.199-0.26-0-0.54-0.281-1.405-0.66-2.032-0.143-0.237-0.162-0.256-0.197-0.2-0.021 0.034-0.051 0.062-0.067 0.062s-0.111-0.143-0.212-0.317l-0.184-0.317-0.059 0.070c-0.050 0.060-0.063 0.063-0.091 0.022-0.018-0.026-0.041-0.117-0.053-0.201-0.024-0.179-0.043-0.197-0.155-0.146-0.064 0.029-0.092 0.029-0.121 0-0.059-0.059-0.16-0.044-0.287 0.042-0.173 0.118-0.195 0.107-0.177-0.088 0.009-0.092 0.021-0.188 0.028-0.212s-0.004-0.050-0.024-0.057c-0.052-0.019-0.324 1.113-0.363 1.508-0.017 0.176-0.031 0.522-0.032 0.769-0.001 0.43 0.003 0.454 0.079 0.558 0.044 0.060 0.080 0.151 0.080 0.203s-0.036 0.142-0.080 0.199c-0.073 0.096-0.080 0.132-0.080 0.429 0 0.182 0.012 0.316 0.029 0.306 0.039-0.024 0.070 0.066 0.045 0.131-0.014 0.036-0.008 0.046 0.017 0.030 0.021-0.013 0.046-0.002 0.057 0.027s0.035 0.040 0.054 0.028c0.025-0.015 0.024-0.025-0.003-0.034zM13.374 9.745c0-0.4-0.009-0.48-0.064-0.588-0.082-0.161-0.081-0.289 0.004-0.455 0.055-0.108 0.065-0.172 0.053-0.343-0.018-0.245-0.187-1.056-0.221-1.056-0.032 0-0.434 0.451-0.559 0.627-0.315 0.443-0.674 1.496-0.544 1.594 0.023 0.018 0.052 0.068 0.064 0.112 0.027 0.102 0.152 0.242 0.24 0.27 0.038 0.012 0.069 0.043 0.069 0.069s0.012 0.040 0.027 0.031c0.015-0.009 0.046 0.019 0.069 0.062s0.067 0.079 0.097 0.079c0.030 0 0.078 0.036 0.107 0.080s0.081 0.080 0.116 0.080c0.035 0 0.063 0.018 0.064 0.040 0 0.029 0.008 0.027 0.029-0.004 0.023-0.036 0.042-0.031 0.103 0.027 0.144 0.137 0.19 0.133 0.273-0.022 0.068-0.128 0.075-0.18 0.075-0.603zM17.229 9.947c0.049 0.030 0.104 0.001 0.086-0.046-0.015-0.040-0.007-0.048 0.030-0.034 0.032 0.012 0.056-0.001 0.065-0.036 0.008-0.030 0.061-0.078 0.118-0.106s0.089-0.059 0.072-0.070c-0.021-0.013-0.020-0.048 0.005-0.101 0.027-0.060 0.056-0.078 0.109-0.068 0.052 0.009 0.064 0.003 0.042-0.023-0.041-0.050 0.011-0.13 0.064-0.097 0.029 0.018 0.035 0.010 0.021-0.028-0.011-0.029-0.006-0.053 0.011-0.053s0.031-0.035 0.031-0.078c0-0.050 0.023-0.085 0.064-0.098 0.062-0.020 0.079-0.066 0.069-0.184-0.003-0.031 0.016-0.056 0.042-0.056s0.039-0.019 0.030-0.044c-0.009-0.024 0.006-0.066 0.033-0.094s0.049-0.069 0.047-0.092c-0.002-0.032-0.006-0.033-0.019-0.002-0.019 0.046-0.075 0.054-0.075 0.010 0-0.016 0.027-0.038 0.060-0.049 0.072-0.023 0.119-0.305 0.057-0.345-0.024-0.016-0.019-0.024 0.015-0.024 0.061-0.001 0.102-0.157 0.055-0.213-0.020-0.024-0.018-0.041 0.005-0.049 0.025-0.008 0.024-0.039-0.004-0.107-0.022-0.052-0.036-0.184-0.033-0.292 0.004-0.115-0.008-0.206-0.028-0.219-0.019-0.012-0.027-0.047-0.017-0.078 0.023-0.071-0.066-0.287-0.128-0.311-0.026-0.010-0.047-0.038-0.047-0.062 0-0.028-0.020-0.036-0.056-0.024-0.045 0.016-0.048 0.012-0.016-0.023 0.054-0.058-0.044-0.176-0.104-0.126-0.057 0.047-0.139 0.005-0.194-0.101-0.028-0.054-0.063-0.084-0.084-0.071-0.024 0.015-0.030-0.001-0.018-0.047 0.012-0.047 0.006-0.062-0.019-0.046-0.020 0.013-0.126 0.019-0.235 0.013s-0.242-0-0.295 0.011l-0.097 0.021 0.096 0.191c0.103 0.204 0.098 0.266-0.017 0.244l-0.072-0.014 0.060 0.136c0.071 0.161 0.111 0.413 0.069 0.439-0.016 0.010-0.14-0.055-0.275-0.144l-0.246-0.162-0.068 0.087c-0.050 0.064-0.087 0.082-0.14 0.069-0.063-0.016-0.076-0.001-0.108 0.124-0.020 0.078-0.036 0.165-0.036 0.193s0.094 0.205 0.208 0.393c0.309 0.506 0.57 1.216 0.657 1.789l0.039 0.257 0.078-0.084c0.043-0.046 0.084-0.081 0.091-0.076zM11.951 9.036c0.11-0.353 0.349-0.864 0.53-1.13 0.076-0.113 0.255-0.322 0.396-0.465l0.257-0.26-0.050-0.216c-0.049-0.21-0.053-0.217-0.176-0.253-0.069-0.021-0.158-0.054-0.196-0.075-0.067-0.036-0.071-0.031-0.080 0.114-0.009 0.136-0.018 0.153-0.092 0.162-0.101 0.012-0.19 0.151-0.19 0.299-0.001 0.152-0.032 0.251-0.080 0.251-0.023 0-0.111-0.068-0.196-0.151s-0.172-0.147-0.193-0.143c-0.035 0.008-0.105-0.175-0.105-0.275-0-0.023-0.015-0.033-0.032-0.022s-0.032 0.004-0.032-0.015c0-0.023-0.016-0.020-0.045 0.006-0.025 0.023-0.038 0.052-0.030 0.065 0.022 0.036-0.052 0.157-0.084 0.137-0.015-0.010-0.037-0.003-0.048 0.015s-0.003 0.032 0.019 0.032c0.024 0 0.016 0.026-0.021 0.066-0.033 0.036-0.062 0.104-0.065 0.152s-0.007 0.119-0.009 0.158c-0.002 0.043-0.025 0.072-0.056 0.072-0.041 0-0.044 0.009-0.014 0.046 0.021 0.025 0.041 0.080 0.046 0.121s0.018 0.091 0.030 0.111c0.012 0.019 0 0.053-0.026 0.075-0.036 0.030-0.039 0.050-0.012 0.083 0.020 0.024 0.027 0.080 0.015 0.126-0.015 0.061-0.010 0.077 0.018 0.059s0.032-0.007 0.017 0.033c-0.014 0.037-0.002 0.073 0.035 0.101 0.041 0.031 0.046 0.050 0.019 0.068s-0.022 0.058 0.022 0.152c0.033 0.070 0.046 0.132 0.029 0.138-0.041 0.015-0.038 0.093 0.005 0.108 0.019 0.006 0.037 0.050 0.040 0.096s0.011 0.078 0.018 0.071c0.007-0.007 0.047 0.033 0.088 0.089s0.061 0.11 0.045 0.12c-0.019 0.012-0.019 0.037-0 0.066 0.020 0.032 0.030 0.034 0.030 0.007 0-0.022 0.026-0.039 0.056-0.037s0.039 0.009 0.018 0.018c-0.031 0.013-0.026 0.107 0.006 0.107 0.005 0 0.048-0.126 0.096-0.28zM11.703 29.775c-0.071-0.041-0.070-0.139 0.004-0.301 0.103-0.227 0.108-0.228 0.632-0.163 0.616 0.077 0.635 0.082 0.635 0.194 0 0.124-0.112 0.199-0.384 0.256-0.255 0.054-0.804 0.063-0.887 0.014zM4.688 29.465c-0.021-0.013-0.047-0.063-0.059-0.111-0.019-0.074-0.012-0.088 0.044-0.088 0.036 0 0.074 0.014 0.085 0.032s0.004 0.032-0.016 0.032c-0.064 0-0.003 0.056 0.079 0.072 0.103 0.020 0.127-0.006 0.057-0.059-0.051-0.039-0.049-0.042 0.021-0.043 0.119-0.002 0.326 0.070 0.314 0.108-0.021 0.062-0.443 0.109-0.523 0.058zM15.701 29.409c-0.171-0.023-0.335-0.056-0.365-0.073-0.049-0.028-0.046-0.039 0.034-0.113 0.049-0.046 0.243-0.161 0.431-0.257l0.341-0.175 0.2 0.050c0.231 0.058 0.279 0.12 0.312 0.402l0.020 0.174-0.124 0.020c-0.183 0.030-0.5 0.020-0.85-0.028zM6.794 28.667c-0.041-0.008-0.082-0.036-0.092-0.062-0.031-0.082 0.064-0.138 0.271-0.159 0.109-0.011 0.199-0.034 0.199-0.050s0.075-0.064 0.168-0.107l0.168-0.078-0.198-0c-0.109-0-0.206-0.013-0.216-0.029s0.026-0.066 0.080-0.112c0.13-0.109 0.409-0.119 0.51-0.018 0.036 0.036 0.058 0.077 0.048 0.092s0.066 0.037 0.167 0.050c0.222 0.028 0.391 0.094 0.391 0.153 0 0.058-0.292 0.148-0.558 0.173-0.171 0.016-0.21 0.030-0.21 0.075 0 0.031-0.023 0.065-0.051 0.075-0.056 0.021-0.562 0.019-0.679-0.003zM6.082 28.294c-0.007-0.007-0.25-0.044-0.539-0.082s-0.552-0.083-0.583-0.1c-0.117-0.063-0.057-0.282 0.099-0.363 0.3-0.155 1.924-0.217 2.174-0.083 0.103 0.055 0.045 0.125-0.152 0.182-0.232 0.067-0.383 0.144-0.623 0.319-0.168 0.122-0.326 0.176-0.375 0.128zM2.057 27.859c-0.052-0.032-0.067-0.024 0.187-0.112 0.158-0.055 0.196-0.059 0.196-0.023 0 0.073-0.308 0.182-0.383 0.135zM4.406 24.086c-0.011-0.018-0.005-0.032 0.012-0.032s0.041 0.014 0.052 0.032c0.011 0.018 0.005 0.032-0.012 0.032s-0.041-0.014-0.052-0.032z"></path>
</svg>
