<!-- Generated by IcoMoon.io -->
<svg version="1.1" xmlns="http://www.w3.org/2000/svg" width="33" height="32" viewBox="0 0 33 32">
<path d="M25.401 30.395c-0.823-0.413-0.899-0.419-1.261-0.091-0.279 0.253-0.763 0.349-1.754 0.349-1.169 0-1.461-0.078-2.007-0.537-0.476-0.4-0.638-0.712-0.638-1.223 0-0.779-0.25-0.937-1.477-0.937-0.756 0-0.803-0.032-0.598-0.415 0.27-0.505 1.479-0.572 1.867-0.104 0.142 0.171 0.397 0.311 0.567 0.311 0.241 0 0.279-0.16 0.173-0.726-0.166-0.882 0.119-0.959 0.436-0.117 0.177 0.47 0.327 0.584 0.654 0.498 0.233-0.061 0.474-0.242 0.535-0.402 0.177-0.462 0.575-0.337 0.502 0.158-0.046 0.314-0.333 0.545-0.956 0.772-1.171 0.426-1.395 1.125-0.583 1.824 0.775 0.666 1.411 0.627 1.736-0.107 0.144-0.325 0.5-0.7 0.793-0.833 0.453-0.207 0.511-0.333 0.395-0.862-0.159-0.722 0.206-0.861 0.386-0.147 0.155 0.619-0.054 1.394-0.377 1.394s-0.985 0.718-0.818 0.885c0.218 0.218 1.065-0.29 1.341-0.804 0.316-0.59 0.906-0.686 0.726-0.117-0.095 0.298 0.101 0.482 0.919 0.865 0.572 0.268 1.095 0.431 1.163 0.363 0.225-0.225-0.427-1.67-0.797-1.767-0.481-0.126-0.466-0.462 0.020-0.462 0.409 0 1.070 0.61 1.070 0.987 0 0.491 0.674 0.88 1.519 0.877 1.768-0.006 2.554-0.99 1.473-1.84-0.307-0.241-0.76-0.439-1.007-0.439-0.391 0-0.438 0.094-0.364 0.726 0.052 0.445-0.005 0.726-0.145 0.726-0.127 0-0.234-0.21-0.238-0.467-0.009-0.539-0.674-1.39-1.497-1.915-0.314-0.2-0.571-0.497-0.571-0.66s-0.239-0.536-0.531-0.828c-0.292-0.292-0.486-0.577-0.431-0.632 0.223-0.223 0.913 0.184 1.133 0.667 0.306 0.672 0.955 0.714 0.751 0.048-0.216-0.704-0.445-0.917-1.603-1.494-1.234-0.615-1.918-0.694-1.728-0.201 0.069 0.181 0.126 0.642 0.126 1.026 0 0.553 0.127 0.773 0.616 1.061 0.589 0.348 0.952 0.858 0.752 1.058-0.052 0.052-0.521-0.2-1.042-0.558-0.909-0.625-0.948-0.695-0.948-1.671 0-0.898-0.095-1.118-0.798-1.857-1.058-1.113-1.72-1.149-0.952-0.052 0.179 0.255 0.296 0.673 0.259 0.928-0.056 0.395-0.135 0.332-0.533-0.425-0.257-0.488-0.467-1.107-0.467-1.374 0-0.551-0.973-2.406-1.263-2.406-0.354 0-0.192 0.971 0.225 1.349 0.228 0.207 0.415 0.52 0.415 0.696 0 0.249-0.055 0.265-0.249 0.072-0.821-0.821-0.785 0.682 0.041 1.722 0.342 0.431 0.622 1.005 0.622 1.276s0.113 0.674 0.251 0.896c0.138 0.221 0.187 0.467 0.109 0.545-0.247 0.247-0.775-0.359-0.775-0.889 0-0.595-0.344-1.31-0.63-1.31-0.11 0-0.2 0.316-0.2 0.703 0 0.601-0.107 0.753-0.738 1.053-0.584 0.277-0.801 0.298-1.040 0.1-0.375-0.311-0.029-0.818 0.559-0.818 0.316 0 0.39-0.156 0.39-0.83 0-0.815-0.014-0.83-0.749-0.83h-0.749l0.219 2.697h-0.595c-0.347 0-0.684 0.151-0.809 0.363-0.187 0.317-0.241 0.323-0.422 0.052-0.126-0.189-0.209-0.214-0.211-0.064-0.005 0.429 0.424 0.532 0.799 0.193 0.213-0.193 0.824-0.35 1.491-0.383 1.034-0.052 1.136-0.017 1.196 0.41 0.058 0.408-0.025 0.467-0.663 0.467-0.591 0-0.781 0.108-1.003 0.571-0.15 0.314-0.342 0.547-0.426 0.519s-0.713-0.052-1.398-0.052h-1.245v-6.847h-3.527v6.812l-1.361 0.070c-0.749 0.038-1.916 0.038-2.594-0.001l-1.232-0.070v-4.131c0-2.272-0.065-4.131-0.144-4.131s-0.406 0.25-0.725 0.556l-0.581 0.556-1.039-0.976 4.72-4.788c2.596-2.634 4.832-4.818 4.97-4.854s0.418 0.143 0.622 0.397c0.205 0.254 0.673 0.797 1.041 1.206 0.562 0.625 0.67 0.678 0.674 0.329 0.003-0.228-0.194-0.975-0.439-1.66l-0.445-1.245 0.497-1.024c0.658-1.356 1.041-1.579 1.775-1.031 0.312 0.233 0.635 0.68 0.719 0.993 0.237 0.887 0.581 1.166 1.437 1.166 0.648 0 0.873-0.117 1.25-0.646 1.154-1.62 3.856-1.624 5.217-0.007 0.729 0.866 0.98 2.684 0.509 3.673-0.316 0.662-1.229 1.125-2.225 1.128-0.177 0.001-0.434 0.113-0.571 0.25-0.347 0.347-0.312 1.342 0.053 1.482 0.422 0.162 1.151 1.661 1.151 2.369 0 0.324-0.112 0.701-0.249 0.838-0.377 0.377-1.292 0.298-1.877-0.162-0.287-0.226-0.772-0.506-1.078-0.622s-0.503-0.296-0.439-0.4c0.166-0.268 0.921-0.035 1.838 0.568 0.678 0.446 0.828 0.477 1.074 0.224 0.713-0.731-0.5-2.612-1.819-2.82-0.633-0.1-0.882-0.034-1.275 0.335-0.575 0.54-0.862 0.28-0.408-0.368 0.242-0.346 0.526-0.449 1.236-0.449 0.751 0 0.922-0.070 0.922-0.375 0-0.206 0.129-0.551 0.286-0.767 0.183-0.25 0.248-0.695 0.181-1.233-0.107-0.861 0.243-0.871 0.396-0.011 0.109 0.614 1.455 0.69 2.030 0.116 0.525-0.525 0.586-2.215 0.112-3.131-0.584-1.129-2.689-1.701-3.888-1.057-0.723 0.388-1.373 1.522-1.248 2.176 0.070 0.364-0.019 0.701-0.25 0.957-0.196 0.217-0.296 0.494-0.221 0.615s0.035 0.221-0.090 0.221c-0.399 0-0.482-0.626-0.135-1.010 0.443-0.49 0.425-0.796-0.065-1.058-0.611-0.327-0.816-0.259-0.689 0.228 0.153 0.584-0.376 0.429-0.694-0.203-0.126-0.25-0.287-0.512-0.358-0.584-0.209-0.209-0.762 0.36-0.762 0.785 0 0.214-0.093 0.39-0.208 0.39-0.323 0-0.244-0.957 0.104-1.245 0.612-0.508 0.238-2.075-0.494-2.075-0.239 0-0.515 0.308-0.758 0.846-0.337 0.747-0.35 0.946-0.109 1.712 0.15 0.476 0.312 1.426 0.361 2.111 0.086 1.194 0.066 1.255-0.482 1.504-0.314 0.143-0.632 0.259-0.706 0.259-0.213 0-0.858-1.555-0.892-2.154-0.017-0.299-0.109-0.543-0.204-0.543s-0.113 0.267-0.041 0.594c0.118 0.539 0.070 0.607-0.516 0.724-0.396 0.079-0.592 0.218-0.506 0.357 0.101 0.164 0.204 0.165 0.367 0.002 0.389-0.389 0.716-0.25 1.18 0.501 0.287 0.464 0.609 0.726 0.893 0.726h0.444l-0.461 0.323c-0.263 0.184-0.461 0.541-0.461 0.83 0 0.514-0.284 0.678-0.519 0.299-0.071-0.114-0.269-0.208-0.441-0.208-0.219 0-0.293 0.171-0.247 0.571 0.051 0.441 0.19 0.585 0.611 0.634 0.445 0.052 0.575-0.044 0.708-0.519 0.090-0.32 0.14-0.712 0.113-0.871-0.058-0.337 0.346-0.637 0.864-0.641 0.236-0.002 0.363 0.155 0.363 0.449 0 0.249 0.111 0.76 0.248 1.137 0.221 0.611 0.199 0.737-0.208 1.169-0.25 0.266-0.455 0.572-0.455 0.679s0.234-0.077 0.519-0.409c0.529-0.616 0.684-1.449 0.311-1.679-0.463-0.286-0.199-1.126 0.528-1.681 0.626-0.478 0.716-0.648 0.607-1.147-0.153-0.698 0.068-1.202 0.34-0.773 0.247 0.389 0.23 1.785-0.023 1.941-0.274 0.169-0.263 0.946 0.031 2.112 0.23 0.912 0.248 0.929 0.496 0.465 0.142-0.265 0.206-0.616 0.143-0.78-0.074-0.193-0.011-0.263 0.178-0.198 0.198 0.068 0.271 0.344 0.224 0.858-0.074 0.829 0.118 0.927 1.092 0.556 0.58-0.22 0.75 0.109 0.293 0.566-0.181 0.181-0.076 0.392 0.429 0.864 0.48 0.449 0.649 0.524 0.601 0.269-0.037-0.196-0.276-0.448-0.532-0.56-0.501-0.22-0.625-0.521-0.214-0.521 0.321 0 2.031 1.669 2.031 1.982 0 0.13-0.18 0.399-0.401 0.598-0.393 0.355-0.388 0.373 0.259 0.933 0.818 0.708 2.465 1.673 2.854 1.673 0.16 0 0.766 0.241 1.347 0.535 1.283 0.649 1.846 1.49 1.681 2.509-0.108 0.667-0.064 0.743 0.592 1.017 0.39 0.163 0.922 0.297 1.182 0.297 0.639 0.001 1.541 0.801 1.702 1.508 0.101 0.444 0.013 0.692-0.384 1.089-0.442 0.442-0.704 0.514-1.86 0.514-0.74 0-1.404 0.093-1.474 0.208-0.211 0.342-1.394 0.211-2.328-0.258zM7.603 24.014c0-0.668-0.054-0.731-0.674-0.791-0.662-0.064-0.674-0.050-0.674 0.791s0.012 0.855 0.674 0.791c0.62-0.060 0.674-0.124 0.674-0.791zM9.989 24.014c0-0.81-0.017-0.83-0.726-0.83s-0.726 0.020-0.726 0.83c0 0.81 0.017 0.83 0.726 0.83s0.726-0.020 0.726-0.83zM16.589 24.066c-0.059-0.712-0.117-0.778-0.687-0.778s-0.628 0.066-0.687 0.778c-0.064 0.768-0.054 0.778 0.687 0.778s0.75-0.010 0.687-0.778zM9.989 21.835c0-0.692-0.035-0.726-0.726-0.726-0.665 0-0.726 0.052-0.726 0.608 0 0.466 0.109 0.629 0.467 0.698 0.944 0.182 0.986 0.158 0.986-0.58zM18.911 21.827c0-0.526-0.091-0.718-0.339-0.718-0.342 0-1.321-0.912-1.321-1.23 0-0.23 1.149-0.448 1.606-0.304 0.329 0.104 0.333 0.088 0.036-0.161-0.181-0.152-0.292-0.387-0.247-0.522s-0.106-0.346-0.337-0.47c-0.241-0.129-0.371-0.352-0.305-0.523 0.088-0.228-0.085-0.202-0.734 0.112-0.467 0.225-0.848 0.494-0.848 0.597s-0.163 0.23-0.363 0.282c-0.273 0.071-0.248 0.101 0.104 0.119 0.278 0.014 0.467-0.096 0.467-0.273 0-0.163 0.183-0.355 0.407-0.427 0.413-0.131 1.253 0.192 1.253 0.482 0 0.287-0.491 0.657-0.871 0.657-0.464 0-0.511 0.79-0.057 0.964 0.236 0.091 0.283 0.299 0.185 0.822-0.181 0.962-0.037 1.215 0.718 1.266 0.609 0.041 0.648 0.001 0.648-0.674zM7.707 21.732c0-0.573-0.058-0.622-0.726-0.622s-0.726 0.049-0.726 0.622c0 0.573 0.058 0.622 0.726 0.622s0.726-0.049 0.726-0.622zM16.629 21.732c0-0.573-0.058-0.622-0.726-0.622s-0.726 0.049-0.726 0.622c0 0.573 0.058 0.622 0.726 0.622s0.726-0.049 0.726-0.622zM12.064 17.893c0-0.439-0.096-0.519-0.63-0.519-0.556 0-0.605 0.047-0.417 0.397 0.196 0.366 0.506 0.584 0.892 0.624 0.086 0.009 0.156-0.217 0.156-0.502zM13.88 17.841c0.299-0.451 0.287-0.467-0.338-0.467-0.558 0-0.648 0.074-0.648 0.534 0 0.658 0.529 0.622 0.986-0.067zM12.026 15.87c0.078-0.677-0.216-0.731-0.799-0.148-0.493 0.493-0.353 0.874 0.287 0.782 0.314-0.045 0.467-0.234 0.513-0.634zM18.548 13.536c0.046-0.557 0.125-0.622 0.743-0.622 0.823 0 1.695-0.87 1.695-1.691 0-0.737 0.632-1.727 1.192-1.867 0.548-0.138 1.505 0.413 1.505 0.866 0 0.424-0.257 0.383-0.678-0.109-0.195-0.228-0.443-0.415-0.55-0.415-0.394 0-1.055 1.113-1.055 1.776 0 0.433-0.205 0.935-0.56 1.373-0.308 0.38-0.588 0.729-0.622 0.776s-0.287-0.017-0.564-0.143c-0.428-0.195-0.551-0.162-0.831 0.226-0.326 0.452-0.328 0.451-0.277-0.168z"></path>
</svg>
