<!-- Generated by IcoMoon.io -->
<svg version="1.1" xmlns="http://www.w3.org/2000/svg" width="32" height="32" viewBox="0 0 32 32">
<path d="M0 15.4h7.3l3.7 6.6h-7.6l-3.4-6.6z"></path>
<path d="M24.7 15.4h7.3l-3.4 6.7h-7.6l3.7-6.7z"></path>
<path d="M26.5 8.7l2-3.5h-25l0.4 0.5 22.6 3z"></path>
<path d="M12.8 21.3l3.2 5.5 2.8-4.7-6-0.8z"></path>
<path d="M21 18.2l-10.7-1.4 1.8 3.1 7.4 1 1.5-2.7z"></path>
<path d="M4.6 7.1l2 3.4 17.6 2.3 1.6-2.9-21.2-2.8z"></path>
<path d="M7.4 11.8l2.1 3.7 12.2 1.6 1.8-3.1-16.1-2.2z"></path>
</svg>
