<!-- Generated by IcoMoon.io -->
<svg version="1.1" xmlns="http://www.w3.org/2000/svg" width="33" height="32" viewBox="0 0 33 32">
<path d="M11.085 29.699c-0.769-0.158-2.222-0.706-3.228-1.217-1.794-0.912-1.868-0.929-3.82-0.894-1.226 0.022-1.991-0.048-1.991-0.182 0-0.12 0.718-1.31 1.595-2.644s1.787-2.802 2.022-3.262c0.645-1.264 1.043-1.488 3.163-1.778 2.398-0.329 3.537-0.61 4.072-1.005 0.352-0.26 0.376-0.386 0.161-0.857-0.138-0.303-0.251-0.884-0.251-1.289v-0.737l-6.134-0.119 5.678-3.192 0.646-1.444c0.355-0.794 1.257-3.195 2.003-5.335s1.416-3.823 1.489-3.74c0.072 0.083 0.633 1.604 1.247 3.38s1.463 4.102 1.886 5.17l0.771 1.942 5.755 3.219-6.41 0.119-0.091 0.909c-0.050 0.5-0.132 1.045-0.183 1.211-0.2 0.656 1.224 1.259 3.909 1.656 2.301 0.34 2.647 0.446 3.024 0.935 0.419 0.542 2.331 3.682 2.898 4.759 0.159 0.302 0.534 0.779 0.833 1.060s0.544 0.684 0.544 0.897c0 0.349-0.16 0.374-1.679 0.257-1.667-0.129-1.697-0.122-4.145 0.962-1.896 0.839-2.887 1.144-4.288 1.32-2.465 0.309-7.756 0.254-9.474-0.099zM17.252 21.39c0.159-0.132 0.29-0.446 0.291-0.698s0.197-0.748 0.436-1.104c0.601-0.893 1.284-2.449 1.284-2.928 0-0.332-0.116-0.376-0.699-0.269-0.736 0.135-1.238 0.589-1.238 1.119 0 0.251 0.087 0.236 0.432-0.076 0.635-0.574 0.74-0.267 0.309 0.903-0.43 1.168-1.292 2.219-1.82 2.219-0.513 0-1.174-0.807-1.726-2.105-0.529-1.247-0.448-1.622 0.22-1.017 0.345 0.312 0.432 0.327 0.432 0.076 0-0.546-0.513-1.032-1.238-1.175-0.602-0.118-0.699-0.077-0.699 0.293 0 0.506 0.667 2.044 1.284 2.96 0.239 0.355 0.436 0.832 0.436 1.059 0.002 0.716 0.666 1.251 1.375 1.109 0.347-0.069 0.76-0.234 0.92-0.366zM16.8 18.068c0.139-0.584 0.322-1.224 0.406-1.422 0.186-0.438-0.551-0.614-1.411-0.338-0.547 0.176-0.555 0.203-0.278 0.977 0.156 0.438 0.289 0.998 0.294 1.245s0.076 0.515 0.157 0.596c0.313 0.313 0.589-0.036 0.832-1.058zM19.479 12.162c-0.213-0.398-0.451-0.43-3.121-0.43s-2.908 0.033-3.121 0.43c-0.226 0.422-0.164 0.43 3.121 0.43s3.347-0.009 3.121-0.43z"></path>
</svg>
