<!-- Generated by IcoMoon.io -->
<svg version="1.1" xmlns="http://www.w3.org/2000/svg" width="31" height="32" viewBox="0 0 31 32">
<path d="M18.616 25.966c-0.19 0-0.419 0.033-0.603-0.004-0.141-0.029-0.257-0.045-0.404-0.044-0.205 0.001-0.396-0.051-0.601-0.048-0.313 0.003-0.608-0.048-0.92-0.048-0.298 0-0.597 0-0.895 0-0.135 0-0.225 0.020-0.353 0.049-0.052 0.011-0.124 0.038-0.178 0.044-0.105 0.011-0.107-0.001-0.101-0.085 0.005-0.12 0.066-0.245 0.077-0.368 0.010-0.1 0.042-0.216 0.087-0.312 0.046-0.098 0.075-0.197 0.113-0.288 0.014-0.036 0.045-0.055 0.055-0.092 0.015-0.061-0.018-0.133-0.005-0.194 0.037-0.194 0.154-0.193 0.335-0.191 0.262 0.001 0.548 0.023 0.803-0.025 0.153-0.027 0.317-0.001 0.473-0.027 0.201-0.034 0.38-0.046 0.586-0.044 0.22 0.003 0.434-0.074 0.648-0.116 0.149-0.029 0.305-0.051 0.454-0.071 0.083-0.012 0.167 0.019 0.128-0.1 0.168 0.005 0.242 0.090 0.292 0.246 0.053 0.171 0.092 0.344 0.15 0.514 0.060 0.169 0.108 0.283 0.111 0.46 0.003 0.159 0.102 0.249 0.178 0.383 0.034 0.061 0.049 0.127 0.081 0.187 0.029 0.059 0.092 0.093 0.098 0.165-0.193 0.033-0.413 0.007-0.609 0.007zM14.717 23.195c0.077-0.068 0.15-0.209 0.169-0.273 0.014-0.048 0.003-0.093 0.029-0.141 0.018-0.037 0.060-0.061 0.074-0.098 0.016-0.051 0-0.111 0.001-0.164 0.004-0.057 0.027-0.090 0.041-0.143 0.011-0.044-0.005-0.109 0.015-0.146 0.044-0.078 0.193-0.046 0.261-0.046 0.273 0.004 0.573 0.033 0.844 0.003 0.094-0.011 0.149-0.044 0.25-0.048 0.123-0.005 0.224-0.046 0.504-0.001 0.178 0.027 0.239 0.23 0.328 0.361 0.070 0.104 0.123 0.206 0.189 0.309 0.029 0.044 0.105 0.117 0.083 0.164-0.025 0.055-0.169 0.029-0.223 0.029-0.23-0.003-0.458 0-0.686 0-0.154 0-0.348-0.027-0.497 0.011-0.161 0.040-0.306 0.037-0.48 0.037-0.154 0-0.329-0.025-0.477 0.011-0.079 0.018-0.168 0.051-0.241 0.085-0.042 0.019-0.126 0.031-0.186 0.053-0.022 0.019-0.044 0.034-0.064 0.038 0.012-0.016 0.036-0.027 0.064-0.038zM24.648 29.94c-0.142-0.119-0.23-0.277-0.362-0.406-0.22-0.215-0.372-0.466-0.62-0.649-0.094-0.068-0.134-0.142-0.208-0.227-0.087-0.098-0.212-0.163-0.312-0.253-0.219-0.198-0.429-0.43-0.6-0.67-0.105-0.145-0.301-0.245-0.454-0.348-0.123-0.083-0.25-0.172-0.377-0.251-0.127-0.078-0.283-0.13-0.366-0.257 0.093-0.022 0.195 0.010 0.29-0.001 0.109-0.014 0.232-0.055 0.337-0.086 0.351-0.104 0.691-0.102 1.056-0.107 0.266-0.004 0.525-0.048 0.787-0.085 0.124-0.018 0.219-0.049 0.335-0.082 0.081-0.020 0.176-0.004 0.25-0.025 0.079-0.023 0.339-0.092 0.348-0.18-0.082-0.045-0.022-0.139-0.038-0.208-0.016-0.067-0.055-0.102-0.060-0.182-0.131-0.045-0.306 0.008-0.444-0.010-0.111-0.014-0.209-0.066-0.318-0.085-0.113-0.020-0.224 0-0.337-0.019-0.325-0.055-0.639-0.066-0.959-0.146-0.15-0.037-0.29-0.020-0.44-0.045-0.137-0.022-0.258-0.052-0.388-0.081-0.116-0.027-0.216 0.001-0.331-0.041-0.090-0.033-0.16-0.057-0.227-0.134-0.068-0.077-0.126-0.182-0.176-0.262-0.040-0.063-0.096-0.123-0.138-0.19-0.1-0.157-0.212-0.317-0.302-0.477-0.083-0.152-0.184-0.294-0.322-0.404-0.094-0.075-0.18-0.161-0.283-0.22-0.070-0.041-0.030-0.018-0.111-0.048-0.048-0.016-0.077 0.025-0.101-0.033 0.215-0.108 0.428-0.102 0.653-0.148 0.101-0.020 0.206 0.010 0.306-0.008 0.122-0.022 0.212-0.051 0.34-0.051 0.077 0.001 0.348 0.041 0.404-0.007 0.030-0.026 0.011-0.148 0.010-0.183-0.005-0.107-0.038-0.149-0.090-0.239-0.038-0.068-0.055-0.146-0.12-0.197-0.092-0.070-0.23-0.045-0.336-0.044-0.163 0.001-0.325 0-0.486 0-0.16 0-0.32-0.003-0.48 0-0.128 0.001-0.249-0.044-0.376-0.072-0.085-0.019-0.205-0.011-0.276-0.052-0.060-0.034-0.115-0.096-0.178-0.134-0.094-0.055-0.199-0.089-0.291-0.146-0.123-0.078-0.224-0.189-0.342-0.271-0.061-0.041-0.301-0.179-0.295-0.265 0.007-0.096 0.551-0.161 0.631-0.164 0.124-0.005 0.327 0.045 0.436-0.015 0.175-0.097 0.090-0.471-0.082-0.515-0.113-0.027-0.269 0.005-0.387 0.005h-0.264c-0.189 0-0.377 0-0.564 0-0.168 0.001-0.198 0.007-0.329-0.089-0.090-0.066-0.127-0.116-0.202-0.189-0.077-0.074-0.146-0.107-0.215-0.199-0.061-0.082-0.101-0.159-0.187-0.217-0.231-0.157-0.484-0.436-0.799-0.354-0.061 0.223 0.019 0.491 0.117 0.69 0.037 0.075 0.119 0.141 0.131 0.224 0.026 0.16-0.116 0.22-0.254 0.231-0.122 0.010-0.23 0.045-0.351 0.046-0.131 0.003-0.261 0-0.392 0-0.234 0-0.409-0.034-0.63-0.085-0.134-0.030-0.213 0.027-0.242-0.128-0.019-0.096 0.003-0.212 0.001-0.31-0.001-0.13 0.036-0.238 0.052-0.363 0.023-0.171-0.038-0.169-0.204-0.167-0.097 0.001-0.26-0.030-0.348 0.004-0.159 0.059-0.202 0.294-0.239 0.425-0.044 0.153-0.123 0.297-0.18 0.444-0.044 0.111-0.012 0.21-0.041 0.317-0.186 0.052-0.454 0.008-0.65 0.008h-0.984c-0.23 0-0.458 0.001-0.686 0-0.145-0.001-0.234-0.041-0.298 0.1-0.044 0.096-0.089 0.332-0.041 0.441 0.055 0.127 0.253 0.128 0.376 0.13 0.139 0.001 0.262 0.044 0.402 0.049 0.097 0.003 0.204-0.016 0.299 0.001 0.082 0.015 0.138 0.042 0.225 0.044 0.268 0.005 0.536 0 0.802 0 0.117 0 0.249-0.019 0.361 0.011 0.034 0.008 0.059 0.034 0.096 0.040 0.066 0.011 0.126-0.018 0.194-0.003-0.003 0.167-0.209 0.277-0.291 0.414-0.077 0.127-0.148 0.253-0.228 0.378-0.063 0.097-0.064 0.161-0.187 0.167-0.182 0.007-0.368-0.001-0.549-0.001h-2.073c-0.199 0-0.41-0.018-0.609-0.001-0.089 0.008-0.113-0.015-0.135 0.083-0.011 0.042-0.007 0.139 0.001 0.183 0.033 0.172 0.165 0.159 0.327 0.176 0.172 0.019 0.338 0.074 0.507 0.105 0.165 0.030 0.335 0.033 0.501 0.063 0.486 0.085 0.981 0.042 1.465 0.112 0.232 0.034 0.473 0.082 0.709 0.094 0.137 0.008 0.368-0.038 0.277 0.148-0.113 0.23-0.328 0.394-0.422 0.627-0.055 0.135-0.113 0.268-0.189 0.395-0.046 0.081-0.071 0.146-0.101 0.231-0.036 0.096-0.1 0.182-0.153 0.275-0.049 0.087-0.097 0.138-0.101 0.238-0.004 0.077 0.014 0.157 0 0.232-0.182 0.045-0.406 0.007-0.594 0.007h-3.132c-0.275 0-0.589-0.046-0.855 0.007-0.025 0.111 0.011 0.22-0.027 0.335-0.027 0.083-0.186 0.291-0.131 0.383 0.059 0.098 0.368 0.042 0.462 0.042 0.209 0 0.419-0.011 0.627 0.010 0.727 0.070 1.448 0.165 2.163 0.299 0.193 0.036 0.38 0.014 0.573 0.036 0.175 0.020 0.348 0.044 0.523 0.061 0.090 0.010 0.275-0.007 0.327 0.079-0.152 0.221-0.193 0.426-0.292 0.674-0.113 0.277-0.276 0.537-0.4 0.81-0.083 0.184-0.12 0.348-0.171 0.542-0.033 0.124-0.108 0.209-0.174 0.321-0.098 0.167-0.213 0.329-0.305 0.496-0.067 0.12-0.109 0.25-0.193 0.363-0.036 0.049-0.137 0.12-0.105 0.189 0.053 0.117 0.653 0.045 0.761 0.045 0.159 0 0.317 0.001 0.474 0 0.053 0 0.119-0.012 0.171-0.003 0.064 0.011 0.122 0.064 0.19 0.057 0.205-0.020 0.388-0.624 0.44-0.768 0.085-0.234 0.176-0.469 0.254-0.705 0.068-0.205 0.086-0.424 0.135-0.634 0.053-0.232 0.187-0.469 0.303-0.678 0.123-0.223 0.189-0.333 0.482-0.335 1.321-0.011 2.643 0 3.964 0 0.585 0 1.193 0.040 1.767-0.056 0.258-0.042 0.596-0.216 0.846-0.092 0.149 0.074 0.199 0.241 0.261 0.394 0.172 0.428 0.361 0.835 0.592 1.235 0.115 0.198 0.189 0.384 0.355 0.553 0.127 0.128 0.261 0.264 0.413 0.362 0.098 0.063 0.194 0.092 0.266 0.191 0.031 0.042 0.041 0.111 0.078 0.145 0.082 0.079 0.219 0.105 0.307 0.191 0.055 0.052 0.094 0.115 0.16 0.154 0.123 0.077 0.276 0.025 0.414-0.014 0.102-0.029 0.169-0.042 0.272-0.048 0.213-0.014 0.418-0.061 0.63-0.086 0.149-0.016 0.273-0.022 0.417-0.059 0.104-0.026 0.186-0.052 0.395 0.145 0.034-0.202-0.172-0.478-0.261-0.646-0.079-0.148-0.127-0.204-0.256-0.31z"></path>
<path d="M30.899 21.397c-0.033-0.16 0.037-0.313-0.124-0.46-0.033-0.030-0.082-0.051-0.101-0.087-0.018-0.034-0.003-0.070-0.004-0.104-0.004-0.093-0.108-0.12-0.224-0.168-0.13-0.053-0.251-0.122-0.381-0.178-0.057-0.026-0.128-0.046-0.174-0.082-0.057-0.045-0.112-0.119-0.116-0.178 0 0 0 0 0 0 0.28 0.008 0.611-0.010 0.605-0.183-0.169-0.142-0.389-0.154-0.601-0.212-0.275-0.075-0.544-0.172-0.818-0.249-0.145-0.041-0.272-0.031-0.415-0.052-0.179-0.026-0.343-0.037-0.527-0.037-0.157 0-0.361 0.031-0.517-0.003-0.123-0.027-0.303-0.12-0.409-0.187-0.059-0.036-0.23-0.112-0.275-0.159-0.052-0.055-0.025-0.064-0.051-0.13-0.027-0.070-0.090-0.097-0.131-0.154-0.042-0.060-0.044-0.128-0.111-0.175-0.064-0.045-0.223-0.153-0.297-0.159-0.044-0.092-0.033-0.359-0.011-0.462 0.026-0.12 0.133-0.202 0.232-0.279 0.19-0.146 0.404-0.269 0.592-0.422 0.142-0.116 0.275-0.241 0.411-0.361 0.131-0.113 0.618-0.183 0.583-0.38-0.277-0.012-0.545-0.049-0.816-0.089-0.179-0.025-0.34 0.033-0.521 0.040-0.097 0.004-0.254 0.022-0.333-0.029-0.059-0.037-0.075-0.097-0.149-0.115-0.079-0.020-0.161 0.016-0.242-0.007-0.025-0.134-0.057-0.242-0.056-0.379 0.001-0.15 0.094-0.243 0.101-0.392 0.007-0.137-0.016-0.277-0.004-0.414 0.016-0.195 0.149-0.264 0.153-0.439 0.004-0.154 0.139-0.232 0.271-0.31 0.241-0.142 0.541-0.193 0.783-0.324 0.217-0.117 0.429-0.273 0.627-0.439 0.001-0.001 0.005 0 0.007-0.001 0.071-0.016 0.078-0.046 0.12-0.097 0.057-0.068 0.082-0.012 0.090 0.048 0-0.037 0-0.086 0-0.142 0.018-0.016 0.037-0.033 0.055-0.049-0.012-0.031-0.030-0.060-0.053-0.085 0-0.165-0.001-0.336-0.008-0.361-0.030-0.131-0.157-0.202-0.21-0.318-0.042-0.093-0.020-0.277-0.016-0.374 0.004-0.116 0.040-0.227 0.034-0.346-0.003-0.066-0.005-0.13-0.007-0.195-0.004-0.124 0.005-0.221 0.048-0.344 0.089-0.254 0.008-0.499 0.055-0.752 0.026-0.131 0.111-0.223 0.108-0.358-0.007-0.205-0.014-0.409-0.019-0.612-0.003-0.089 0.033-0.253-0.012-0.335-0.061-0.116-0.305-0.022-0.387 0.027-0.141 0.086-0.284 0.199-0.351 0.333-0.067 0.128-0.014 0.265-0.079 0.391-0.090 0.174-0.075 0.318-0.070 0.507 0.004 0.134 0.010 0.268 0.011 0.402 0.003 0.124 0.077 0.214 0.096 0.329 0.008 0.048 0.030 0.078 0.046 0.124 0.015 0.041 0 0.116 0.010 0.153 0.012 0.042 0.037 0.082 0.059 0.12 0.107 0.193 0.25 0.34 0.251 0.556 0 0.159 0.023 0.313-0.018 0.469-0.036 0.135-0.056 0.273-0.067 0.413-0.081-0.007-0.157-0.010-0.219-0.011-0.216-0.008-0.37 0.004-0.57 0.062-0.212 0.060-0.432 0.107-0.637 0.18-0.019 0.007-0.161 0.037-0.187 0.056-0.060 0.045-0.030 0.059-0.111 0.089-0.025 0.010-0.085 0.025-0.112 0.034-0.040 0.012-0.111 0.053-0.15 0.055-0.224 0.003-0.22-0.292-0.269-0.426-0.051-0.141-0.146-0.243-0.176-0.392-0.033-0.157 0.049-0.344-0.007-0.499-0.038-0.105-0.131-0.172-0.143-0.295-0.012-0.115-0.010-0.257 0.014-0.369 0.029-0.143 0.051-0.291 0.089-0.432 0.020-0.075 0.044-0.142 0.075-0.217 0.061-0.141 0.075-0.288 0.137-0.429 0.135-0.312 0.29-0.605 0.406-0.924 0.046-0.123 0.085-0.261 0.133-0.392 0.271 0.087 0.206-0.060 0.227-0.152 0.011-0.051 0.075-0.107 0.093-0.165 0.008-0.025 0.030-0.049 0.036-0.074 0.019-0.089 0.018-0.178 0.025-0.265 0.102-0.183 0.258-0.374 0.31-0.57-0.030 0.016-0.061 0.036-0.092 0.053 0.067-0.123 0.184-0.21 0.204-0.353 0.016-0.117-0.031-0.238-0.059-0.351-0.090-0.389-0.179-0.779-0.272-1.168-0.059-0.246-0.008-0.383 0.023-0.635 0.019-0.152 0.010-0.302 0.033-0.454 0.019-0.122-0.027-0.225-0.018-0.342 0.007-0.089 0.056-0.184 0.081-0.271 0.044-0.154 0.053-0.292 0.051-0.445-0.003-0.25 0.057-0.496 0.098-0.745 0.018-0.111 0.082-0.212 0.070-0.325-0.015-0.138-0.068-0.279-0.1-0.414-0.025-0.101-0.034-0.395-0.115-0.455-0.066-0.049-0.183 0.057-0.228 0.098-0.074 0.068-0.157 0.175-0.199 0.265-0.042 0.089-0.011 0.154 0.012 0.251 0.066 0.277 0.059 0.467-0.038 0.735-0.034 0.093-0.111 0.496-0.295 0.409-0.064-0.030-0.067-0.205-0.082-0.265-0.036-0.157-0.063-0.32-0.108-0.476-0.038-0.13-0.078-0.124-0.206-0.101-0.107 0.019-0.228 0.030-0.316 0.093-0.202 0.148-0.22 0.38-0.169 0.594 0.057 0.235 0.111 0.471 0.165 0.706 0.022 0.093 0.044 0.186 0.064 0.279 0.026 0.117 0.007 0.227 0.029 0.347 0.033 0.184 0.018 0.329 0.027 0.514 0.007 0.127 0.049 0.256 0.079 0.38 0.070 0.284 0.037 0.574 0.094 0.859 0.041 0.204 0.111 0.399 0.133 0.605 0.036 0.34 0.113 0.659 0.191 0.995 0.018 0.077 0.036 0.154 0.055 0.231-0.056 0.056-0.109 0.122-0.149 0.182-0.030 0.045-0.053 0.094-0.082 0.139-0.044 0.070-0.046 0.105-0.078 0.179s-0.097 0.127-0.131 0.204c-0.042 0.097-0.055 0.163-0.137 0.242-0.109 0.107-0.182 0.213-0.273 0.329-0.126 0.16-0.245 0.454-0.488 0.317-0.159-0.089-0.29-0.179-0.474-0.241-0.108-0.037-0.208-0.104-0.314-0.137-0.085-0.025-0.179-0.025-0.266-0.049-0.126-0.036-0.266-0.094-0.376-0.161-0.128-0.075-0.292-0.146-0.399-0.247-0.101-0.097-0.105-0.195-0.104-0.328 0.001-0.175-0.001-0.348 0-0.523 0-0.081 0.014-0.169 0.005-0.25-0.015-0.127-0.083-0.249-0.122-0.37-0.046-0.146-0.094-0.312-0.287-0.277-0.124 0.022-0.322 0.175-0.357 0.283-0.016 0.055 0.018 0.096-0.036 0.149-0.086 0.085-0.299 0.045-0.409 0.044-0.049 0-0.134 0.016-0.182 0.001-0.126-0.040-0.128-0.165-0.146-0.284-0.094-0.624-0.079-1.248-0.079-1.876-0.001-0.389-0.001-0.779 0-1.168 0-0.187-0.011-0.377-0.003-0.564 0.007-0.187 0.048-0.369 0.052-0.556 0.010-0.333 0.045-0.665 0.051-0.999 0.001-0.090 0.010-0.172-0.022-0.26-0.022-0.059-0.053-0.105-0.068-0.167-0.014-0.055 0.003-0.152-0.030-0.198-0.064-0.090-0.266-0.078-0.328 0.015-0.056 0.082-0.034 0.291-0.046 0.388-0.026 0.205-0.094 0.399-0.111 0.605-0.029 0.342-0.126 0.672-0.149 1.014-0.010 0.161-0.020 0.322-0.101 0.469-0.046 0.083-0.097 0.143-0.127 0.232-0.172 0.522-0.206 1.078-0.279 1.618-0.020 0.154-0.027 0.377-0.127 0.511-0.1 0.135-0.283 0.223-0.402 0.347-0.268 0.277-0.634 0.433-0.981 0.605-0.191 0.093-0.434 0.113-0.646 0.067-0.164-0.036-0.295-0.128-0.462-0.137-0.224-0.010-0.294 0.169-0.455 0.294-0.172 0.131-0.275 0.231-0.511 0.296-0.235 0.064-0.486 0.056-0.72 0.107-0.13 0.027-0.251 0.025-0.385-0.012-0.138-0.037-0.157-0.062-0.133-0.199 0.018-0.1 0.057-0.216 0.044-0.318-0.014-0.093-0.149-0.275-0.266-0.279-0.046-0.001-0.123 0.049-0.164 0.079-0.164 0.119-0.366 0.305-0.465 0.48-0.053 0.092-0.022 0.273-0.113 0.336-0.089-0.010-0.102-0.098-0.133-0.167-0.062-0.134-0.104-0.277-0.168-0.41-0.086-0.18-0.209-0.339-0.286-0.523-0.036-0.085-0.066-0.164-0.108-0.245-0.021-0.038-0.041-0.078-0.062-0.117 0.109-0.104 0.208-0.225 0.261-0.361 0.072-0.189 0.005-0.385 0.078-0.567 0.101-0.253-0.199-0.463-0.214-0.737-0.010-0.194 0.256-0.388 0.247-0.582-0.007-0.179-0.1-0.309-0.127-0.474-0.011-0.070-0.038-0.113-0.060-0.18-0.021-0.059-0.004-0.168-0.018-0.221-0.015-0.062-0.048-0.118-0.075-0.174-0.135-0.276-0.314-0.488-0.322-0.801-0.007-0.23-0.041-0.452 0.001-0.679 0.067-0.357 0.081-0.728 0.057-1.089-0.231-0.228-0.328-0.242-0.391-0.223-0.085 0.025-0.092 0.067-0.141 0.142-0.141 0.213-0.105 0.4-0.094 0.639 0.003 0.074 0.003 0.145 0.018 0.216 0.041 0.19 0.197 0.29 0.265 0.456 0.055 0.135 0.037 0.402 0.036 0.542-0.001 0.168-0.038 0.329-0.027 0.501 0.005 0.094 0.011 0.189 0.015 0.283 0.010 0.182 0.004 0.321-0.042 0.5-0.096 0.369 0.011 0.723-0.037 1.090-0.015 0.124-0.063 0.227-0.092 0.338-0.214-0.396-0.548-0.753-0.825-1.099-0.134-0.165-0.281-0.317-0.444-0.454-0.165-0.139-0.273-0.343-0.436-0.478-0.070 0.029-0.089 0.113-0.113 0.175-0.045 0.107-0.112 0.272-0.134 0.395-0.046 0.262 0.016 0.555 0.086 0.805 0.081 0.286 0.18 0.549 0.314 0.817 0.072 0.145 0.165 0.271 0.23 0.418 0.096 0.221 0.221 0.421 0.266 0.654 0.033 0.168 0.092 0.325 0.117 0.495 0.016 0.111 0.026 0.228 0.057 0.335 0.052 0.187 0.154 0.357 0.202 0.544 0.060 0.231 0.072 0.407-0.108 0.589-0.183 0.184-0.361 0.257-0.609 0.31-0.131 0.030-0.235 0.097-0.325 0.191-0.108 0.115-0.126 0.236-0.198 0.365-0.064 0.116-0.146 0.119-0.286 0.113-0.205-0.008-0.601-0.124-0.723-0.301-0.064-0.094-0.033-0.171-0.172-0.184-0.201-0.019-0.305 0.134-0.324 0.301-0.010 0.086-0.034 0.377 0 0.465 0.037 0.097 0.148 0.178 0.198 0.276 0.044 0.086 0.096 0.213 0.066 0.312-0.041 0.133-0.279 0.238-0.404 0.32-0.134 0.087-0.268 0.148-0.426 0.179-0.083 0.016-0.175 0.005-0.254 0.033-0.098 0.036-0.182 0.108-0.282 0.148-0.15 0.060-0.291 0.087-0.45 0.12-0.124 0.026-0.223 0.111-0.351 0.134-0.139 0.025-0.179 0.012-0.302 0.078-0.18 0.097-0.523 0.111-0.7 0.126-0.351 0.029-0.7 0.031-1.051 0.044 0.001-0.014 0.001-0.026 0.004-0.040 0.025-0.172 0.014-0.354 0.018-0.527 0.004-0.193 0.008-0.387 0.012-0.581 0.005-0.221 0.014-0.444 0.015-0.665 0-0.156-0.045-0.307-0.051-0.463-0.004-0.12-0.011-0.217-0.027-0.338-0.022-0.153-0.014-0.316-0.041-0.466-0.018-0.096-0.046-0.186-0.055-0.284-0.004-0.057 0.018-0.13 0.007-0.184-0.010-0.042-0.042-0.063-0.053-0.107-0.012-0.049 0-0.098-0.007-0.15-0.014-0.090-0.049-0.19-0.068-0.283-0.021-0.1-0.046-0.204-0.068-0.303-0.011-0.044-0.022-0.1-0.056-0.126-0.194-0.15-0.165 0.391-0.18 0.493-0.025 0.171-0.126 0.097-0.21 0.040-0.115-0.078-0.108-0.143-0.161-0.292-0.027-0.078-0.060-0.152-0.092-0.227-0.025-0.063-0.074-0.112-0.086-0.18 0.007-0.023 0.007-0.046 0.001-0.071-0.025-0.030-0.049-0.057-0.078-0.082-0.044-0.053-0.062-0.171-0.123-0.197-0.057 0.085-0.034 0.258-0.036 0.365 0 0.098 0.027 0.187 0.023 0.288-0.001 0.092 0.022 0.152-0.062 0.161-0.102 0.011-0.146-0.025-0.152 0.13-0.003 0.117-0.004 0.235-0.007 0.353-0.001 0.097 0.012 0.204-0.036 0.286-0.040 0.070-0.082 0.089-0.149 0.090-0.093 0.003-0.171-0.074-0.179 0.068-0.010 0.137 0.051 0.202 0.123 0.303s0.204 0.142 0.302 0.198c0.165 0.093 0.362 0.12 0.47 0.325 0.071 0.134 0.154 0.251 0.219 0.391 0.083 0.18 0.215 0.275 0.234 0.489 0.008 0.092 0.005 0.178 0.019 0.271 0.010 0.067 0.011 0.137-0.003 0.205-0.019 0.094-0.057 0.161-0.061 0.261-0.004 0.111-0.003 0.221-0.005 0.332-0.003 0.105-0.010 0.213-0.008 0.318 0.001 0.078 0.030 0.109 0.051 0.18 0.033 0.113 0.008 0.234 0.029 0.346 0.010 0.048 0.041 0.107 0.061 0.15 0.030 0.060 0.038 0.090 0.048 0.154 0.022 0.142 0.093 0.149 0.245 0.010 0.027 0.027 0.053 0.052 0.078 0.072 0.154 0.126 0.277 0.183 0.482 0.239 0.16 0.044 0.34 0.059 0.488 0.141 0.107 0.057 0.159 0.15 0.266 0.208 0.21 0.112 0.54 0.133 0.773 0.184 0.208 0.045 0.456 0.094 0.665 0.171 0.066 0.023 0.124 0.057 0.187 0.087 0.044 0.021 0.493 0.148 0.533 0.221 0.026 0.048 0.022 0.176 0.012 0.232-0.034 0.201-0.245 0.392-0.335 0.575-0.101 0.205-0.085 0.35-0.019 0.571 0.055 0.183 0.116 0.363 0.201 0.536 0.045 0.090 0.184 0.249 0.148 0.355-0.023 0.070-0.057 0.075-0.109 0.111-0.064 0.007-0.119 0.033-0.165 0.078-0.040 0.034-0.079 0.068-0.117 0.102-0.010 0.007-0.148 0.087-0.171 0.12-0.034 0.049-0.010 0.094-0.036 0.133-0.029 0.042-0.117 0.104-0.194 0.152-0.097 0-0.194-0.020-0.287-0.027-0.12-0.010-0.231-0.034-0.353 0.025-0.104 0.049-0.19 0.165-0.288 0.245-0.113 0.092-0.225 0.051-0.34 0.044-0.092-0.005-0.156-0.012-0.236-0.087-0.13-0.124-0.219-0.172-0.38-0.178-0.079-0.003-0.312 0.055-0.387-0.018-0.057-0.053-0.087-0.219-0.133-0.314-0.056-0.122-0.109-0.256-0.168-0.369-0.019-0.040-0.055-0.049-0.075-0.094-0.029-0.064-0.025-0.127-0.060-0.179-0.083-0.119-0.18-0.036-0.276-0.011-0.085 0.022-0.178-0.026-0.236 0.149-0.012 0.037-0.018 0.133-0.025 0.164-0.027 0.13-0.078 0.25-0.108 0.378-0.016 0.067-0.055 0.195-0.051 0.279-0.102 0.235-0.112 0.627-0.135 0.906-0.015 0.178-0.056 0.306-0.090 0.47-0.025 0.112-0.023 0.232-0.045 0.336-0.029 0.146-0.111 0.243-0.164 0.368-0.063 0.153-0.116 0.231-0.199 0.337-0.119 0.148-0.223 0.179-0.347 0.254-0.077 0.046-0.142 0.117-0.221 0.156-0.118 0.056-0.399 0.204-0.439 0.459 0.096-0.018 0.19-0.004 0.284 0.004 0.119 0.011 0.242-0.041 0.359-0.108 0.153-0.086 0.275-0.161 0.415-0.316 0.111-0.124 0.262-0.34 0.383-0.395 0.167-0.074 0.35 0.037 0.518 0.005 0.123-0.025 0.257-0.097 0.37-0.001 0.081 0.068 0.101 0.154 0.202 0.117 0.167-0.063 0.205-0.243 0.279-0.484 0.026-0.085 0.049-0.104 0.064-0.194 0.010-0.060-0.001-0.131 0.010-0.191 0.029-0.157 0.098-0.149 0.172-0.194 0.152-0.093 0.288-0.246 0.448-0.309 0.053-0.022 0.108-0.026 0.16-0.044 0.064-0.020 0.104-0.081 0.163-0.127 0.131-0.1 0.262-0.056 0.394-0.139 0.042-0.027 0.085-0.055 0.126-0.082 0.094 0.066 0.239 0.075 0.333 0.116 0.077 0.033 0.339 0.133 0.339 0.199-0.266 0.168-0.19 0.459-0.19 0.721 0 0.157 0.029 0.277-0.059 0.41-0.142 0.212-0.357 0.373-0.582 0.496-0.18 0.098-0.332 0.22-0.507 0.324-0.115 0.070-0.25 0.139-0.357 0.216-0.033 0.023-0.057 0.068-0.087 0.093-0.064 0.052-0.148 0.071-0.217 0.109-0.127 0.067-0.202 0.186-0.302 0.279 0.045 0.048 0.090 0.031 0.169 0.034 0.257 0.004 0.514-0.010 0.771-0.004 0.236 0.004 0.465 0.019 0.7 0.045 0.025 0.003 0.090-0.007 0.111 0.012 0.112 0.105-0.109 0.346-0.167 0.402-0.13 0.13-0.242 0.235-0.409 0.314-0.108 0.051-0.322 0.134-0.391 0.234-0.090 0.131-0.034 0.191 0.111 0.194 0.305 0.007 0.609-0.001 1.064-0.145 0.19-0.004 0.327 0.004 0.503-0.072 0.217-0.094 0.478-0.098 0.706-0.168 0.425-0.128 0.849-0.202 1.257-0.381 0.281-0.123 0.454-0.141 0.605-0.425 0.063-0.117 0.101-0.246 0.156-0.366 0.056-0.12 0.154-0.234 0.193-0.358 0.026-0.085-0.005-0.071 0.063-0.145 0.041-0.045 0.135-0.098 0.193-0.133 0.153-0.093 0.275-0.085 0.44-0.104 0.141-0.016 0.261-0.052 0.409-0.051 0.204 0.001 0.407-0.003 0.611 0 0.157 0.001 0.317-0.022 0.47-0.046 0.107-0.018 0.186-0.077 0.288-0.098 0.083-0.019 0.172-0.041 0.26-0.046 0.219-0.016 0.422-0.075 0.631-0.143 0.256-0.085 0.527-0.090 0.788-0.157 0.101-0.026 0.179-0.029 0.283-0.034 0.128-0.005 0.23-0.064 0.355-0.087 0.113-0.020 0.234-0.008 0.348-0.010 0.081 0 0.163-0.007 0.242-0.003 0.122 0.005 0.165 0.056 0.273 0.1 0.21 0.085 0.432 0.161 0.646 0.238 0.331 0.119 0.639 0.303 0.967 0.43 0.359 0.139 0.689 0.287 1.059 0.398 0.152 0.045 0.348 0.126 0.504 0.133 0.153 0.008 0.29 0.051 0.44 0.045 0.176-0.004 0.32 0.059 0.489 0.090 0.165 0.030 0.309 0.046 0.476 0.089 0.178 0.045 0.198 0.077 0.339 0.146 0.172 0.085 0.385 0.082 0.562 0.153 0.112 0.044 0.213 0.115 0.312 0.18 0.059 0.037 0.1 0.071 0.152 0.119 0.059 0.055 0.134 0.090 0.19 0.138 0.085 0.072 0.116 0.193 0.19 0.276 0.081 0.090 0.148 0.107 0.25 0.16 0.108 0.057 0.232 0.179 0.306 0.242 0.251 0.204 0.489 0.419 0.716 0.646 0.070 0.086 0.152 0.157 0.247 0.215 0.12 0.064 0.261 0.036 0.396 0.036 0.197 0.001 0.344-0.051 0.537-0.089 0.176-0.036 0.284 0.020 0.447 0.077 0.23 0.079 0.448 0.111 0.694 0.112 0.257 0.001 0.441-0.004 0.678 0.078 0.128 0.045 0.253 0.087 0.377 0.143 0.183 0.082 0.476 0.115 0.62 0.253-0.038-0.109-0.205-0.097-0.28-0.143-0.037-0.025-0.049-0.057-0.089-0.085-0.128-0.089-0.254-0.143-0.403-0.199-0.133-0.051-0.262-0.109-0.395-0.159-0.126-0.048-0.279-0.072-0.387-0.154-0.051-0.038-0.141-0.090-0.182-0.131-0.051-0.049-0.026-0.068-0.059-0.122-0.056-0.094-0.153-0.215-0.145-0.335 0.004-0.060 0.046-0.097 0.059-0.153 0.014-0.064-0.003-0.148-0.003-0.213v-0.471c0-0.143-0.038-0.368-0.004-0.506 0.038-0.154 0.186-0.16 0.306-0.247 0.059-0.042 0.087-0.082 0.16-0.111 0.092-0.036 0.187-0.029 0.283-0.045 0.161-0.029 0.313-0.067 0.474-0.096 0.251-0.046 0.495-0.037 0.753-0.037h1.302c0.003 0.004 0.005 0.005 0.010 0.010 0.056 0.061 0.109 0.1 0.107 0.176-0.003 0.048 0 0.096 0 0.145 0 0.093-0.011 0.186 0.027 0.276 0.041 0.096 0.104 0.126 0.243 0.165 0.1 0.027 0.169 0.048 0.236 0.104 0.115 0.094 0.202 0.194 0.279 0.302 0.048 0.067 0.064 0.1 0.067 0.174 0.001 0.051 0.034 0.090 0.041 0.139 0.010 0.072-0.005 0.146-0.001 0.22 0.004 0.052 0.023 0.092 0.049 0.143 0.055 0.109 0.134 0.217 0.145 0.332 0.005 0.042 0.020 0.079 0.030 0.12s-0.001 0.083 0.015 0.122c0.018 0.038 0.063 0.063 0.075 0.104 0.005 0.022-0.004 0.049-0.004 0.071 0.038-0.354 0.112-0.44 0.115-0.53s0.086-0.215 0.157-0.292c0.083-0.092 0.176-0.16 0.193-0.271 0.014-0.089-0.060-0.153-0.078-0.238z"></path>
<path d="M28.068 13.648c0.001 0.087 0.011 0.012 0-0.056 0 0.027 0 0.049 0 0.056z"></path>
</svg>
