<!-- Generated by IcoMoon.io -->
<svg version="1.1" xmlns="http://www.w3.org/2000/svg" width="32" height="32" viewBox="0 0 32 32">
<path d="M31.901 1.357h-0.766c-0.075 0-0.431 0.212-0.52 0.274-0.554 0.397-1.173 1.491-1.395 2.15-0.827 2.438-0.8 5.945-0.537 8.499 0.024 0.222 0.209 0.82 0.127 0.985-0.202 0.403-1.063-0.376-1.285-0.462-0.304-0.12-0.974-0.229-1.097-0.229-0.133 0-0.588 0-0.728 0.014-0.171 0.014-0.82 0.215-0.896 0.232-0.438 0.089-0.848 0.27-1.248 0.462-0.075 0.246-0.219 0.499-0.308 0.725-0.875 2.28-1.624 4.591-2.489 6.879-0.116 0.311-0.263 0.626-0.397 0.93 0.003 0.239 0.762 0.209 0.968 0.25 2.523 0.506 6.677 1.706 7.675 4.338 0.509 1.344 0.862 2.95 1.323 4.342 0.14 0.421 0.359 0.824 0.462 1.258h-29.795l0.096-0.058c0.010-0.014-0.038-0.096-0.017-0.15 0.444-1.323 1.005-2.742 1.378-4.075 0.25-0.889 0.164-1.35 0.745-2.164 1.439-2.021 4.933-2.998 7.258-3.484 0.263-0.055 0.862 0.034 0.865-0.304-0.096-0.304-0.294-0.632-0.403-0.927-0.103-0.28-0.181-0.646-0.287-0.93-0.817-2.226-1.668-4.386-2.451-6.626-0.297-0.147-0.65-0.362-0.978-0.424-0.15-0.027-0.998-0.253-1.108-0.263-0.103-0.010-0.598-0.017-0.732-0.017-0.137 0-0.896 0.168-1.046 0.226-0.352 0.144-0.653 0.485-1.032 0.561-0.574 0.113-0.212-0.632-0.178-0.92 0.332-2.629 0.489-7.624-0.923-9.915-0.034-0.055-0.308-0.4-0.369-0.479-0.147-0.185-0.732-0.691-0.95-0.691h-0.766c-0.007-0.345 0.513-0.54 0.766-0.742 0.297-0.243 0.492-0.609 0.903-0.591 0.578 0.024 1.593 0.359 2.017 0.762 2.003 1.887 2.489 5.409 2.557 8.106 0.003 0.161-0.034 0.913 0.058 0.971 0.226-0.068 0.475 0.021 0.656 0.010 0.137-0.007 0.544 0.017 0.646 0.038 0.157 0.034 1.159 0.133 1.35 0.181 0.215 0.055 0.615 0.226 0.803 0.198 0.253-0.041 1.060-0.626 1.395-0.78 3.282-1.508 7.634-1.214 10.622 0.838 0.315-0.062 0.605-0.181 0.913-0.256 0.198-0.048 0.745-0.209 0.892-0.222 0.174-0.014 0.667-0.103 0.79-0.109 0.13-0.007 0.756 0.031 0.968 0.099 0.106-0.068 0.092-1.583 0.113-1.819 0.133-1.644 0.489-3.665 1.186-5.162 0.441-0.947 1.292-2.195 2.321-2.602 0.144-0.058 1.203-0.301 1.306-0.287 0.072 0.010 0.096 0.027 0.154 0.062 0.12 0.068 1.303 1.019 1.344 1.097 0.034 0.062 0.048 0.127 0.038 0.198z"></path>
</svg>
