<!-- Generated by IcoMoon.io -->
<svg version="1.1" xmlns="http://www.w3.org/2000/svg" width="32" height="32" viewBox="0 0 32 32">
<path d="M17.766 17.125c0.048 0.039 0.841 0.464 0.889 0.474 0.064 0.013 0.603-0.026 0.696-0.042 0.554-0.103 1.837-0.793 2.178-1.237 0.255-0.329 0.442-1.112 0.48-1.531 0.058-0.58 0.222-2.178 0.248-2.311 0.032-0.164 0.177-0.744 0.229-0.87 0.093-0.229 0.071-0.493 0.309-0.715-0.119-0.251-0.309-0.087-0.48-0.116-0.419-0.068-1.202-0.3-1.631-0.441-0.706-0.232-1.643-1.031-2.327-1.212-0.967-0.258-1.76-0.116-2.533 0.519-0.809 0.664-1.199 1.718-0.754 2.707 0.097 0.219 0.538 0.87 0.725 0.98 0.023 0.013 0.445 0.193 0.471 0.2 0.245 0.061 0.583-0.097 0.703 0.155l-0.010 0.135c-0.461 0.238-0.848 0.416-1.379 0.454-0.596 0.045-1.015-0.093-1.576-0.251l-0.738-0.844-0.158 0.271 2.378 4.457h0.187l0.119-0.187c-0.151-0.367-0.361-0.683-0.371-1.099-0.006-0.387 0.419-1.102 0.567-1.479l1.063-0.677 0.135 0.093c0.068 0.222-0.277 0.677-0.213 1.060 0.055 0.335 0.516 1.295 0.786 1.505zM13.383 23.141c-0.019 0.010-0.039 0.077-0.103 0.113-0.145 0.084-0.641 0.335-0.783 0.319-0.377-0.042-0.812-0.371-1.018-0.68-1.869-2.8-3.206-6.058-5.095-8.868-0.155-0.367-0.129-0.735 0.074-1.073 0.264-0.441 0.815-0.493 1.234-0.715 4.541-2.414 9.149-5.253 13.615-7.85 0.377-0.219 0.545-0.332 0.941-0.525 0.409-0.197 0.796-0.751 1.312-0.67 0.49 0.074 0.709 0.309 0.96 0.686 0.87 1.305 1.634 2.907 2.427 4.28 0.877 1.515 1.769 3.023 2.678 4.515 0.161 0.361 0.068 0.944-0.206 1.231-0.18 0.19-0.396 0.206-0.593 0.322-5.143 2.981-10.309 5.923-15.443 8.917z"></path>
<path d="M5.91 2.517c0.203 0.332-0.068 0.574-0.142 0.844-1.347 4.837-2.594 9.719-3.838 14.576-0.255 0.999-0.732 1.534-0.19 2.562 0.2 0.377 0.364 0.551 0.767 0.696 0.348 0.126 0.599 0.103 0.918 0.18 0.209 0.048 0.419 0.232 0.59 0.264 0.18 0.035 0.322-0.035 0.451-0.016 0.168 0.026 0.451 0.277 0.648 0.319 1.289 0.28 2.585 0.661 3.873 0.88 0.2 0.035 0.429 0.209 0.635 0.209s0.251-0.11 0.403-0.090c0.174 0.023 0.683 0.371 0.445 0.541-0.164 0.119-1.634-0.035-1.966-0.042-1.656-0.035-3.351 0.016-5.018 0.019-0.438 0-1.022 0.048-1.434 0.023-0.651-0.042-1.063-0.699-1.057-1.308 0.068-6.055 0.145-12.039 0.045-18.111-0.010-0.703 0.148-1.444 0.964-1.54 0.532-0.064 1.479 0.048 2.056 0.052 0.615 0 1.237-0.013 1.853-0.058z"></path>
<path d="M1.131 30.618c-0.206-0.129-0.319 0.222-0.319 0.222-0.048 0.361 0.045 0.635 0.319 0.719 0.409-0.013 0.197-0.819 0-0.941zM3.951 30.408c0.129-0.177 0.222-0.851 0-0.899-0.313 0.090-2.336 0.751-2.433 0.906-0.113 0.18 0.177 0.838 0.371 0.809l2.062-0.819zM30.502 18.607l-0.348 0.171c-0.119 0.026-1.009 0.29-1.389 0.545-0.38 0.251-0.026 0.777 0.322 0.732 0.203-0.029 1.37-0.458 1.518-0.525 0.416-0.197 0.232-0.989-0.1-0.918v0zM31.143 18.195c0.18 0.209 0.367 0.851 0.387 0.896 0.122 0.322 0.026 0.435 0.026 0.435-0.274 0.496-1.102 0.545-1.611 0.754-9.349 3.883-18.704 7.741-28.146 11.427-0.309 0.119-0.599 0.438-0.986 0.203-0.303-0.184-0.545-1.237-0.316-1.505 0.251-0.296 0.48-0.242 0.741-0.354 9.339-3.983 18.746-7.612 28.13-11.447 0.471-0.193 0.947-0.406 1.402-0.638 0.006 0 0.023-0.010 0.035-0.010 0.023 0 0.045 0.019 0.097 0.055 0.097 0.064 0.219 0.158 0.238 0.18z"></path>
<path d="M6.893 12.201l0.032-0.242c1.373-1.208 2.61-2.559 3.899-3.845 1.663-1.656 3.342-3.287 5.005-4.937 0.49-0.487 0.96-1.022 1.431-1.498 0.267-0.271 0.603-0.554 0.873-0.835 0.277-0.2 0.951-0.097 1.199 0.106 0.139 0.113 0.158 0.274 0.274 0.396 0.619 0.651 1.273 1.228 1.888 1.892 0.151 0.164 0.338 0.129 0.277 0.454-0.035 0.197-0.59 0.329-0.786 0.435-4.115 2.198-8.334 4.766-12.365 7.148-0.39 0.229-1.009 0.735-1.379 0.877-0.119 0.045-0.222 0.061-0.348 0.048z"></path>
<path d="M15.588 2.846c-3.741 3.583-7.341 7.36-10.982 11.063-0.529 0.293-0.087-0.406 0.042-0.628 2.265-3.948 4.615-7.889 6.932-11.788 0.293-0.493 0.509-1.382 1.141-1.479 0.493-0.077 1.366 0.48 1.818 0.738 0.438 0.248 0.831 0.564 1.276 0.796 0.18 0.093 0.558 0.139 0.593 0.387 0.048 0.335-0.287 0.361-0.461 0.516-0.142 0.126-0.242 0.287-0.361 0.403z"></path>
<path d="M3.052 15.188c-0.11-0.126 0.393-1.47 0.458-1.705 1.034-3.687 1.914-7.425 2.991-11.095 0.2-0.686 0.193-1.595 1.099-1.705 0.422-0.052 0.522 0.155 0.864 0.226 0.168 0.035 0.329 0 0.506 0.042 0.467 0.119 0.393 0.235 1.038 0.303 0.097 0.010 0.744 0.235 0.815 0.284 0.296 0.213-0.303 0.835-0.441 1.073-1.708 2.929-3.419 5.865-5.095 8.807-0.603 1.057-1.16 2.333-1.795 3.329-0.039 0.061-0.354 0.541-0.438 0.445z"></path>
<path d="M8.034 19.538l0.097 0.209c0.441 0.271 0.838 0.912 1.199 1.212 0.142 0.119 0.345 0.126 0.487 0.245 0.119 0.097 0.222 0.329 0.338 0.454 0.248 0.261 0.989 0.748 0.548 1.096-0.061 0-0.335-0.338-0.4-0.39-1.421-1.105-3.509-2.091-5.101-3.010-0.738-0.425-1.592-0.864-2.294-1.302-0.848-0.532 0-1.666 0.319-2.227 0.203-0.361 0.361-0.793 0.651-1.118 0.206-0.052 0.142 0.496 0.187 0.667 0.135 0.506 0.529 0.77 0.851 1.102 1.022 1.047 2.021 2.111 3.123 3.068z"></path>
<path d="M2.501 17.995c0.010 0.006 0.035 0.168 0.097 0.238 0.358 0.432 1.795 1.083 2.365 1.415 1.073 0.628 2.133 1.295 3.216 1.905 0.458 0.258 1.173 0.525 1.573 0.806 0.084 0.058 0.29 0.203 0.226 0.329-0.18 0.354-0.686-0.142-0.899-0.203-1.295-0.371-2.717-0.638-4.015-1.047-0.2-0.064-0.435-0.245-0.596-0.264-0.145-0.016-0.255 0.064-0.396 0.042-0.151-0.023-0.374-0.226-0.532-0.267-0.403-0.1-0.696-0.016-1.121-0.28-0.335-0.206-0.612-0.606-0.59-0.999 0.010-0.18 0.413-1.598 0.487-1.647 0.045-0.029 0.151-0.048 0.184-0.026z"></path>
<path d="M5.917 13.177c-0.016 0.342-0.058 0.641 0.113 0.957 1.096 2.017 2.491 3.999 3.558 6.017 0.074 0.142 0.354 0.558 0.142 0.651-0.068 0.029-0.29-0.3-0.4-0.332-1.376-1.624-2.968-3.097-4.489-4.566-0.98-0.947-0.322-1.498 0.409-2.204 0.193-0.187 0.325-0.528 0.67-0.519z"></path>
</svg>
