<!-- Generated by IcoMoon.io -->
<svg version="1.1" xmlns="http://www.w3.org/2000/svg" width="32" height="32" viewBox="0 0 32 32">
<path d="M20.525 29.653c-0.071-0.084-0.304-0.252-0.417-0.259h-3.811c0 0.003-0.317 0.278-0.317 0.278-0.036 0.142 0.165 0.246 0.165 0.398 0 0.175-0.194 0.259-0.223 0.365-0.084 0.314 0.301 0.456 0.546 0.485 0.637 0.071 3.032 0.094 3.617-0.013 0.621-0.113 0.844-0.782 0.433-1.254zM7.46 25.028c-0.365-0.317-0.414 0.049-0.685 0.239-0.175 0.123-0.546 0.191-0.582 0.417-0.045 0.23 0.152 0.417 0.291 0.585 0.556 0.653 1.367 1.322 1.994 1.93 0.129 0.126 0.488 0.601 0.617 0.617 0.617-0.029 0.317-1.089 1.080-0.882 0.003-0.301-0.323-0.462-0.501-0.643-0.682-0.695-1.51-1.648-2.214-2.266zM18.279 19.517c-0.019 0.023-0.23 0.514-0.239 0.553-0.084 0.391 0.071 0.562 0.398 0.75l3.549 0.905c0.268-0.049 0.705-0.152 0.776-0.453 0.058-0.233-0.181-0.278-0.217-0.465-0.045-0.249 0.22-0.394-0.184-0.572l-3.61-0.908c-0.116-0.029-0.414 0.11-0.472 0.191zM2.017 15.114c-0.165 0.049-0.352 0.53-0.323 0.708 0.417 1.060 0.543 2.366 0.924 3.417 0.249 0.679 0.495 0.252 0.999 0.058 0.152-0.058 0.317-0.061 0.469-0.116l0.058-0.23-0.979-3.594c-0.042-0.094-0.136-0.155-0.233-0.178-0.074-0.016-0.869-0.074-0.912-0.061zM29.669 12.955c-0.129 0.006-0.792 0.304-0.837 0.394-0.123 0.627-0.255 1.257-0.407 1.878-0.081 0.33-0.152 0.663-0.233 0.996-0.065 0.268-0.375 0.727-0.152 0.97 0.090 0.1 0.249 0.097 0.356 0.175 0.139 0.1 0.184 0.356 0.385 0.381 0.32 0.045 0.556-0.291 0.714-0.514l0.831-3.51c0-0.381-0.223-0.792-0.653-0.766zM13.501 11.31c-0.087 0.016-0.349 0.171-0.417 0.233-0.242 0.223-0.575 1.535-0.711 1.923-0.165 0.472-0.637 1.419-0.643 1.868-0.003 0.242 0.226 0.643 0.478 0.698 0.459 0.103 0.495-0.284 0.747-0.459 0.11-0.074 0.275-0.081 0.349-0.178 0.275-0.97 0.634-1.91 0.941-2.867 0.026-0.081 0.113-0.145 0.133-0.22 0.133-0.501-0.359-1.099-0.879-0.999zM5.537 4.457c-0.21 0.029-0.414 0.175-0.54 0.343-0.449 0.996-1.212 1.923-1.684 2.886-0.165 0.336-0.268 0.591-0.052 0.95 0.178 0.061 0.365 0 0.546 0.039 0.178 0.036 0.288 0.223 0.527 0.152 0.165-0.049 0.365-0.44 0.462-0.595 0.54-0.873 0.963-1.826 1.539-2.676 0.191-0.453-0.33-1.164-0.802-1.099zM24.036 4.529c-0.288-0.213-0.721-0.676-1.076-0.507-0.178 0.084-0.595 1.002-0.453 1.244 0.792 0.659 1.648 1.241 2.457 1.878 0.162 0.126 0.472 0.546 0.676 0.44 0.12-0.061 0.152-0.297 0.262-0.388 0.223-0.181 0.873-0.207 0.646-0.698-0.061-0.136-0.685-0.601-0.853-0.731-0.533-0.42-1.112-0.834-1.661-1.238zM12.564 0.944c-0.229 0.155-0.514 0.187-0.456 0.54 0.023 0.123 0.191 0.242 0.268 0.381 0.094 0.175 0.103 0.398 0.175 0.527 0.136 0.242 0.582 0.065 0.815 0.058 0.721-0.016 1.451-0.010 2.172 0 0.281 0.003 0.546 0.184 0.756-0.178 0.090-0.158 0.065-0.398 0.145-0.501 0.084-0.103 0.281-0.078 0.381-0.145 0.339-0.23-0.213-0.653-0.469-0.695-1.080-0.181-2.657 0.116-3.791 0.010zM21.97 3.177c0.336-0.281 0.937-0.255 1.354-0.191 0.226 0.036 1.073 0.669 1.319 0.85 0.679 0.498 1.72 1.238 2.318 1.784 0.297 0.271 0.624 0.915 0.621 1.319 0 0.488-0.459 0.766-0.149 1.371 0.194 0.378 0.566 0.85 0.795 1.254 0.359 0.621 0.74 1.464 1.135 2.030 0.271 0.388 0.579 0.242 0.947 0.401 0.773 0.333 1.131 1.222 0.999 2.017-0.2 1.209-0.701 2.534-0.931 3.756-0.33 0.821-1.050 1.29-1.952 1.147-0.149-0.023-0.262-0.145-0.369-0.162-0.239-0.036-2.628 1.497-3.042 1.739-0.32 0.187-0.934 0.372-1.125 0.692-0.107 0.178-0.12 0.423-0.217 0.601-0.362 0.659-1.118 1.012-1.852 0.924-0.931-0.11-2.424-0.585-3.371-0.847-0.33-0.094-0.718-0.129-1.028-0.365-0.443-0.336-0.475-0.73-0.585-1.189-0.068-0.294-0.598-0.698-0.847-0.912-0.873-0.75-1.829-1.406-2.693-2.169-0.246-0.129-0.65 0.071-0.989 0.052-0.614-0.036-1.257-0.595-1.474-1.16-0.301-0.785 0.126-1.354 0.362-2.065 0.252-0.747 0.721-2.566 1.177-3.1 0.572-0.666 1.532-0.866 2.279-0.356 0.65 0.446 0.847 1.16 0.695 1.923-0.171 0.87-0.821 2.402-1.144 3.307-0.058 0.162-0.207 0.288-0.21 0.472l3.032 2.586c0.339 0.158 0.417-0.129 0.627-0.255 0.31-0.184 0.672-0.297 1.038-0.236 1.215 0.462 2.983 0.524 4.137 1.018 0.297 0.126 0.472 0.588 0.785 0.556 0.782-0.511 1.629-0.912 2.431-1.38 0.071-0.042 0.113-0.123 0.184-0.165 0.22-0.129 0.886-0.352 0.921-0.604 0.019-0.136-0.087-0.265-0.103-0.401-0.071-0.663 0.381-2.017 0.556-2.715 0.139-0.553 0.262-1.623 0.585-2.053 0.090-0.12 0.284-0.162 0.297-0.381l-2.185-3.724c-0.604 0.184-0.973 0.078-1.49-0.252-0.63-0.401-2.864-2.027-3.271-2.528-0.336-0.41-0.204-0.569-0.346-0.941-0.149-0.381-0.44-0.294-0.705-0.41-0.857-0.372-1.771-0.734-2.625-1.125-0.123-0.058-0.204-0.207-0.352-0.236-0.291-0.061-0.339 0.165-0.579 0.275-0.954 0.449-3.265-0.126-4.383 0.184-0.517 0.029-1.018-0.556-1.464-0.469-0.133 0.026-0.249 0.191-0.388 0.255-0.931 0.446-1.888 0.918-2.812 1.348-0.2 0.094-0.449 0.026-0.511 0.31-0.042 0.187 0.023 0.401-0.013 0.627-0.065 0.427-1.652 3.151-1.991 3.636-0.233 0.333-0.556 0.672-0.941 0.818-0.175 0.065-0.449 0.016-0.543 0.22-0.149 1.057-0.265 2.114-0.401 3.171-0.045 0.356-0.22 0.443 0.016 0.818 0.149 0.239 0.343 0.317 0.475 0.637 0.488 1.183 0.614 2.838 1.093 4.066 0.026 0.249-0.129 0.692-0.226 0.934-0.097 0.239-0.336 0.323-0.226 0.689 0.029 0.094 0.145 0.139 0.187 0.223 0.44 0.831 0.882 1.648 1.332 2.476 0.061 0.113 0.090 0.317 0.162 0.407 0.139 0.178 0.915 0.162 1.177 0.242 0.090 0.029 0.417 0.33 0.517 0.42 0.73 0.656 2.133 1.952 2.702 2.689 0.084 0.11 0.255 0.394 0.297 0.524 0.061 0.2 0.026 0.663 0.152 0.74 0.071 0.045 0.591 0.22 0.721 0.262 0.701 0.233 1.455 0.365 2.159 0.591 0.184 0.058 0.359 0.242 0.572 0.252 0.314 0.010 0.433-0.346 0.637-0.524 0.294-0.255 0.611-0.326 0.992-0.352 1.083-0.078 2.725-0.068 3.814 0 0.747 0.049 1.416 0.498 1.636 1.235 0.1 0.339 0.12 0.598 0 0.937-0.249 0.705-0.821 1.173-1.581 1.232-1.041 0.081-2.893 0.087-3.93 0-0.527-0.045-0.937-0.252-1.248-0.685-0.158-0.22-0.171-0.44-0.278-0.601-0.165-0.259-1.138-0.404-1.435-0.498-0.676-0.213-1.425-0.533-2.088-0.721-0.604-0.171-0.74 0.236-1.235 0.381-0.411 0.123-0.844 0.11-1.228-0.087-0.527-0.268-2.812-2.557-3.229-3.1-0.372-0.482-0.459-0.947-0.349-1.558 0.068-0.369 0.472-0.465 0.233-0.963-0.045-0.094-0.139-0.149-0.181-0.23-0.501-0.96-1.018-1.91-1.532-2.864-0.272-0.33-0.524-0.136-0.837-0.22-0.113-0.029-0.682-0.469-0.773-0.575-0.469-0.54-0.608-1.716-0.798-2.424-0.365-1.367-1.244-3.038 0.501-3.843 0.255-0.12 0.591-0.061 0.663-0.391 0.042-0.187-0.010-0.385 0.013-0.572 0.123-0.996 0.294-1.988 0.41-2.987-0.013-0.414-0.55-0.666-0.634-1.128-0.061-0.336-0.032-0.792 0.094-1.109 0.472-1.177 1.59-2.479 2.127-3.672 0.498-0.501 1.261-0.76 1.952-0.504 0.242 0.091 0.291 0.352 0.634 0.281 0.145-0.029 0.226-0.171 0.352-0.236 1.021-0.514 2.114-0.918 3.126-1.442 0.524-0.272 0.343-0.572 0.517-1.067 0.178-0.507 0.688-0.895 1.199-1.028 1.377 0.029 2.886-0.129 4.254-0.029 0.685 0.049 1.419 0.695 1.561 1.374 0.045 0.21-0.036 0.339-0.010 0.527 0.052 0.372 0.349 0.262 0.585 0.356 0.394 0.158 0.808 0.423 1.241 0.517l1.613 0.734c0.304 0.032 0.417-0.255 0.562-0.381z"></path>
</svg>
