<!-- Generated by IcoMoon.io -->
<svg version="1.1" xmlns="http://www.w3.org/2000/svg" width="32" height="32" viewBox="0 0 32 32">
<path d="M20.906 14.589c-0.171-0.099-0.615 0.298-0.395 0.528 0.255 0.264 0.842 0.252 1.156 0.106 0.106-0.143-0.541-0.379-0.64-0.457-0.071-0.053-0.103-0.165-0.118-0.174zM10.461 15.22c0.416 0.332 1.777-0.115 0.994-0.59-0.27-0.165-0.217 0.031-0.354 0.134-0.103 0.078-0.749 0.314-0.64 0.457zM21.369 14.257c0.258 0.040 0.683 0 0.966 0s0.081-0.068 0.134-0.053c0.131-0.193-0.475-0.373-0.615-0.376-0.168 0-0.612 0.14-0.618 0.348 0.012 0.028 0.121 0.078 0.134 0.081zM9.793 14.257c0.249 0.040 0.69 0 0.966 0s0.121-0.056 0.134-0.081c-0.006-0.208-0.45-0.351-0.618-0.348-0.143 0-0.749 0.18-0.615 0.376 0.056-0.012 0.106 0.050 0.134 0.053zM25.308 11.523c0.354 0.134 0.683 0.121 1.038 0.168 0.165 0.022 0.323 0.084 0.491 0.099s1.131 0.081 1.181 0.003c0.025-0.854 0.367-0.311 0.739-0.329 0.208-0.009 1.376-0.277 1.373-0.506-0.236-0.227-0.6-0.050-0.935-0.081-0.929-0.087-1.159-0.385-1.92-0.708-0.382-0.162-0.867-0.261-1.271-0.444-0.621-0.286-1.146-0.792-1.877-0.749l-1.948-0.771c-0.304 0.056-0.009 0.624 0.152 0.743 0.205 0.152 0.805 0.006 1.156 0.13 0.208 0.075 0.777 0.541 0.506 0.78-0.28 0.249-0.516-0.221-0.764-0.308-0.149-0.050-0.82-0.134-0.901-0.019-0.103 0.255 0.131 0.553 0.382 0.59 0.183 0.028 0.541-0.065 0.606 0.202 0.103 0.419-0.733 0.087-0.354 0.78 0.267 0.488 0.665-0.028 0.929-0.068 0.162-0.025 0.36 0.068 0.578 0.050 0.432-0.040 0.916-0.32 1.373-0.317 0.093-0.329-0.646-0.398-0.404-0.752 0.202-0.298 0.618 0.168 0.755 0.27 0.208 0.152 0.833 0.488 0.829 0.721-0.009 0.472-0.755 0.19-0.991 0.19s-0.715 0.062-0.724 0.326zM2.986 10.88c-0.249 0.025-0.525-0.019-0.777 0 0.068 0.382 1.025 0.637 1.311 0.587 0.292-0.050 0.531-0.466 0.59 0.273l0.065 0.043c0.351-0.003 0.715 0.034 1.066 0.006 0.261-0.019 0.867-0.109 1.112-0.174 0.053-0.016 0.301-0.118 0.329-0.143 0.245-0.193-0.454-0.277-0.584-0.277-0.242 0-1.050 0.286-0.991-0.236 0.019-0.177 0.652-0.544 0.83-0.674 0.137-0.103 0.553-0.569 0.755-0.27 0.242 0.357-0.497 0.423-0.404 0.752 0.503-0.006 1.069 0.332 1.544 0.364 0.155 0.009 0.224-0.118 0.401-0.087 0.205 0.034 0.488 0.336 0.752 0.249 0.143-0.034 0.317-0.444 0.298-0.547-0.037-0.199-0.547-0.087-0.463-0.426 0.065-0.267 0.423-0.174 0.606-0.202 0.252-0.037 0.485-0.336 0.382-0.59-0.081-0.115-0.752-0.034-0.901 0.019-0.249 0.087-0.488 0.559-0.764 0.308-0.267-0.239 0.301-0.708 0.506-0.78 0.351-0.124 0.951 0.022 1.156-0.13 0.162-0.118 0.457-0.687 0.152-0.743l-1.948 0.771c-0.73-0.043-1.255 0.463-1.877 0.749-0.404 0.183-0.889 0.283-1.271 0.444-0.724 0.304-0.991 0.621-1.864 0.708zM18.756 7.139c-0.183-0.165-0.615-0.081-0.444 0.258 0.093 0.13 0.407 0.012 0.488-0.109 0.019-0.040-0.016-0.124-0.044-0.149zM13.369 7.139c-0.028 0.025-0.062 0.109-0.043 0.149 0.081 0.121 0.398 0.242 0.488 0.109 0.171-0.339-0.264-0.426-0.444-0.258zM17.177 7.003c-0.047-0.037-0.044-0.165-0.149-0.143-0.186 0.040 0.099 0.662-0.363 0.525-0.239-0.071-0.205-0.382-0.267-0.537-0.093-0.233-0.395-0.295-0.621-0.249-0.165 0.354 0.332 0.503 0.317 0.876-0.012 0.289-0.323 0.516-0.578 0.332-0.295-0.211-0.158-0.687-0.687-0.733-1.081-0.093-0.155 0.87-0.584 1.128-0.534 0.32-0.966-0.826-1.479-0.565-0.186 0.093-0.012 0.466-0.401 0.46-0.457-0.009-0.69-0.935-1.202-0.454-0.13 0.121-0.454 0.882-0.482 1.075-0.025 0.168 0.025 0.357-0.019 0.519-0.034 0.13-0.264 0.357-0.336 0.522-0.106 0.236-0.099 0.469-0.174 0.684-0.071 0.199-0.292 0.354-0.407 0.556-0.177 0.304-0.249 0.867-0.407 1.081-0.118 0.158-0.385 0.277-0.488 0.544-0.059 0.155-0.208 0.923-0.208 1.084s0.099 0.252 0.233 0.283c0.078-0.012 0.252-0.286 0.36-0.342 0.127-0.068 0.904-0.304 1.038-0.301 0.823 0.025 1.507 0.811 1.839 1.488 0.034 0.071 0.121 0.127 0.143 0.177 0.196 0.472-0.556 0.752-0.913 0.795-0.277 0.034-1.177-0.028-1.426-0.118-0.245-0.090-0.435-0.466-0.659-0.624-0.043 0.022-0.062 0.13-0.062 0.177 0.022 0.656 1.361 2.684 1.718 3.421 0.277 0.569 0.454 1.153 0.702 1.709 0.286 0.634 0.746 1.277 0.935 1.96 0.053 0.193 0.075 0.73 0.137 0.829 0.031 0.053 0.075 0.062 0.134 0.053 0.009-0.124 0.134-0.239 0.252-0.255 0.301-0.040 0.261 0.556 0.311 0.739 0.165 0.612 0.221 0.497 0.27 1.23 0.012 0.162 0.124 0.687 0.217 0.802 0.099 0.121 0.239 0 0.364 0.009 0.267 0.031 0.615 0.531 0.746 0.758 0.078 0.137 0.084 0.314 0.174 0.416 0.127 0.146 0.426 0.112 0.587 0.27 0.18 0.171 0.043 0.438 0.395 0.276 0.134-0.062 0.158-0.193 0.261-0.273 0.158-0.121 0.441-0.14 0.559-0.242 0.112-0.099 0.118-0.301 0.199-0.444 0.127-0.221 0.488-0.721 0.746-0.758 0.093-0.012 0.177 0.050 0.258 0.047 0.168-0.009 0.314-0.687 0.323-0.857 0.040-0.743 0.106-0.618 0.27-1.23 0.050-0.183 0.009-0.78 0.311-0.739 0.118 0.016 0.242 0.131 0.252 0.255 0.059 0.009 0.103 0 0.134-0.053 0.062-0.099 0.090-0.668 0.149-0.87 0.186-0.646 0.643-1.355 0.923-1.973 0.245-0.544 0.438-1.112 0.702-1.656 0.357-0.73 1.696-2.771 1.718-3.421 0-0.047-0.016-0.155-0.062-0.177-0.245 0.177-0.416 0.55-0.699 0.64-0.273 0.084-1.143 0.14-1.429 0.096-0.351-0.053-1.063-0.329-0.87-0.789 0.022-0.050 0.109-0.106 0.143-0.177 0.336-0.677 1.016-1.46 1.839-1.488 0.134-0.003 0.91 0.233 1.038 0.301 0.124 0.065 0.227 0.267 0.36 0.342 0.081 0.016 0.227-0.155 0.233-0.239 0.009-0.112-0.162-1-0.211-1.128-0.103-0.267-0.37-0.385-0.488-0.544-0.158-0.214-0.23-0.774-0.407-1.081-0.118-0.202-0.339-0.357-0.407-0.556-0.078-0.214-0.071-0.447-0.174-0.684-0.071-0.165-0.301-0.391-0.336-0.522-0.047-0.174 0-0.398-0.037-0.606-0.019-0.109-0.367-0.935-0.419-1-0.423-0.513-0.836 0.46-1.243 0.469-0.451 0.009-0.121-0.553-0.64-0.485-0.41 0.056-0.829 0.935-1.268 0.565-0.289-0.242 0.099-0.693-0.022-0.941-0.143-0.236-0.488-0.096-0.656-0.23zM17.752 6.055c-0.6-0.115-0.665 0.478-0.050 0.351l0.050-0.351zM15.18 5.465c-0.009 0.149 0.078 0.593 0.295 0.534 0.224-0.059-0.165-0.662-0.295-0.534zM18.159 4.185c-0.106 0.031-0.208 0.301-0.059 0.37 0.239 0.068 0.348-0.457 0.059-0.37zM13.017 2.535c0.087 0.115 0.423 0.758 0.469 0.792 0.103 0.075 0.239 0.028 0.354 0.075 0.056 0.025 0.118 0.131 0.199 0.177 0.581 0.339 0.395-0.239 0.715-0.609 0.494-0.569 0.767 0.432 1.109 0.665 0.329 0.084 0.339-0.861 0.739-0.857 0.28 0 0.332 0.301 0.454 0.351 0.071 0.031 0.227-0.071 0.379 0 0.127 0.062 0.171 0.413 0.339 0.395 0.050-0.006 0.115-0.071 0.183-0.084 0.23-0.043 0.466-0.071 0.702-0.075 0.028-0.267 0.196-0.379 0.32-0.565 1.861-2.787 5.35-3.178 8.435-2.52 0.522 0.112 1.059 0.37 1.594 0.469 0.124 0.131-0.351 0.202-0.41 0.208-0.547 0.059-1.165 0.016-1.709 0.062-2.886 0.239-4.542 1.606-5.428 4.328-0.025 0.081-0.115 0.478-0.109 0.525 0.044 0.286 0.652-0.367 0.82-0.028 0.199 0.407-0.649 0.497-0.621 0.826 0.019 0.199 0.295 0.202 0.351 0.295 0.075 0.118-0.006 0.323 0.025 0.444 0.053 0.202 1.106 0.416 1.339 0.494 1.314 0.454 2.398 1.103 3.647 1.606 0.137 0.056 0.326 0.050 0.482 0.109 0.802 0.304 1.131 0.687 2.119 0.777 0.423 0.037 0.842-0.043 1.261-0.028 0.596 0.236 0.491 0.733 0.36 1.249-0.239 0.146-0.578-0.019-0.802 0.081-0.27 0.121-0.506 0.634-0.823 0.68-0.118 0.019-0.264-0.022-0.363 0-0.047 0.012-0.075 0.137-0.143 0.19-0.224 0.168-0.55-0.009-0.829-0.028-0.401-0.028-0.861 0.124-1.168 0.096-0.146-0.012-0.326-0.158-0.491-0.149-0.199 0.012-0.255 0.249-0.482 0.214-0.115-0.016-0.27-0.236-0.457-0.298-0.106-0.034-0.224-0.016-0.326-0.050-0.559-0.183-1.122-0.494-1.715-0.457-0.028 0.32 0.239 0.5 0.339 0.814 0.075 0.242 0.146 0.652 0.050 0.885-0.031 0.075-0.146 0.137-0.152 0.199-0.009 0.071 0.047 0.193 0.031 0.32-0.022 0.168-0.183 0.37-0.208 0.544-0.037 0.249 0.034 0.541-0.016 0.789-0.053 0.264-0.357 0.404-0.395 0.68-0.025 0.171 0.121 0.236 0.112 0.382-0.006 0.106-0.283 0.895-0.348 0.935-0.131 0.081-0.28-0.056-0.348 0.022-0.258 0.556-0.55 1.097-0.826 1.643-0.118 0.236-0.177 0.525-0.317 0.755-0.084 0.137-0.27 0.261-0.308 0.388-0.099 0.32-0.019 0.923-0.348 1.153-0.081 0.056-0.304 0.093-0.32 0.165 0.174 0.292 0.112 0.559-0.084 0.823-0.205 0.273-0.447 0.211-0.395 0.668 0.012 0.121 0.115 0.236 0.081 0.357-0.031 0.115-0.177 0.189-0.233 0.308-0.106 0.221-0.14 0.593-0.239 0.833-0.118 0.283-0.311 0.749-0.441 1.007-0.143 0.28-0.46 0.572-0.569 0.879-0.071 0.202 0.016 0.388-0.078 0.671-0.249 0.752-0.705 0.951-0.615 1.852 0.022 0.208 0.267 0.715-0.090 0.82-0.454 0.137-0.457-0.699-0.73-0.628-0.193 0.115-0.134 0.351-0.249 0.559-0.071 0.131-0.174 0.162-0.233 0.255-0.323 0.519-0.336 1.193-0.298 1.786l-0.112 0.103 0.162 0.134h-0.696c0.171-0.165 0.016-0.168 0-0.295-0.016-0.121 0.019-0.249-0.012-0.363-0.047-0.165-0.37-0.221-0.41-0.454-0.025-0.152 0.071-0.395 0.040-0.624-0.031-0.245-0.227-0.444-0.261-0.652-0.047-0.304 0.19-0.649-0.093-0.82l-0.152 0.047c-0.096 0.255-0.022 0.876-0.472 0.739-0.357-0.109-0.106-0.77-0.155-1.025-0.071-0.348-0.603-0.873-0.702-1.336-0.146-0.699 0.062-0.752-0.342-1.476-0.202-0.363-0.429-0.78-0.597-1.177-0.099-0.239-0.134-0.612-0.239-0.833-0.056-0.118-0.202-0.193-0.233-0.308-0.034-0.118 0.068-0.236 0.081-0.357 0.050-0.457-0.19-0.395-0.395-0.668-0.196-0.264-0.258-0.531-0.084-0.823-0.016-0.071-0.239-0.109-0.32-0.165-0.32-0.224-0.252-0.839-0.348-1.153-0.040-0.127-0.224-0.255-0.308-0.388-0.143-0.23-0.199-0.516-0.317-0.755-0.273-0.547-0.569-1.087-0.826-1.643-0.068-0.078-0.217 0.059-0.348-0.022-0.065-0.040-0.345-0.829-0.348-0.935-0.006-0.146 0.137-0.211 0.112-0.382-0.037-0.277-0.342-0.416-0.395-0.68-0.050-0.249 0.022-0.541-0.016-0.789-0.025-0.174-0.186-0.376-0.208-0.544-0.016-0.127 0.040-0.249 0.031-0.32-0.009-0.062-0.162-0.149-0.19-0.323-0.034-0.208 0.019-0.516 0.075-0.721 0.106-0.373 0.736-0.954-0.047-0.851-0.277 0.037-0.718 0.273-1.028 0.317-0.329 0.043-0.857-0.016-1.218 0.065-0.143 0.031-0.472 0.326-0.668 0.404-0.556 0.217-0.472-0.165-0.854-0.242-0.174-0.034-0.758-0.037-0.913 0.028-0.186 0.081-0.628 0.634-0.861 0.19-0.127-0.245 0.078-0.373-0.196-0.662-0.068-0.071-0.708-0.565-0.764-0.578-0.301-0.062-0.475 0.242-0.73 0.090-0.193-0.112-0.276-0.752-0.062-0.907 0.031-0.022 0.519-0.255 0.55-0.258 0.217-0.040 0.839 0.075 1.165 0.043 0.988-0.090 1.317-0.472 2.119-0.777 0.155-0.059 0.345-0.053 0.482-0.109 1.022-0.41 1.929-0.982 2.973-1.367 0.413-0.155 0.845-0.286 1.277-0.385 0.205-0.090 0.137-0.41 0.308-0.55 0.127-0.103 0.28-0.050 0.404-0.13 0.090-0.118-0.155-0.342 0.099-0.596 0.183-0.183 0.435-0.087 0.559-0.301-0.106-0.245-0.112-0.522-0.18-0.767-0.758-2.756-2.585-4.157-5.415-4.393-0.544-0.047-1.159 0-1.709-0.062-0.059-0.006-0.534-0.075-0.41-0.208 0.534-0.099 1.072-0.357 1.594-0.469 2.933-0.618 6.375-0.28 8.311 2.262z"></path>
<path d="M14.462 23.593c0.143-0.012 0.6 0.273 0.733 0.373 0.261 0.199 0.528 0.671 0.814 0.69 0.407 0.028 0.544-0.379 0.829-0.621 0.245-0.205 0.839-0.649 1.069-0.258 0.149 0.255-0.155 0.457-0.249 0.649-0.099 0.202-0.143 0.429-0.27 0.64-0.149 0.252-0.423 0.482-0.556 0.73-0.18 0.332-0.199 0.913-0.715 0.954-0.606 0.044-0.621-0.587-0.82-0.954-0.127-0.239-0.391-0.46-0.537-0.696-0.137-0.224-0.186-0.46-0.289-0.674-0.093-0.193-0.398-0.391-0.249-0.649 0.043-0.075 0.162-0.177 0.245-0.183z"></path>
<path d="M14.092 22.391c-0.137 0.137-0.407 0.050-0.46-0.134-0.078-0.27 0-1.451 0.121-1.734 0.071-0.162 0.239-0.298 0.301-0.451 0.196-0.482 0.767-2.579 0.802-3.057 0.040-0.55-0.056-1.174 0-1.718 0.028-0.286 0.158-0.609 0.205-0.92 0.050-0.332 0.031-1.087 0.221-1.32 0.115-0.143 0.342-0.134 0.407 0.065 0.146 0.45-0.255 1.777-0.295 2.336-0.050 0.64 0.056 1.398-0.062 2.029-0.053 0.283-0.18 0.432-0.245 0.665-0.18 0.618-0.292 1.351-0.482 1.985-0.096 0.323-0.385 0.575-0.432 0.802-0.059 0.295 0.068 1.302-0.078 1.448z"></path>
<path d="M18.032 22.391c-0.149-0.149-0.019-1.153-0.078-1.448-0.044-0.208-0.23-0.317-0.311-0.491-0.118-0.245-0.115-0.565-0.196-0.823-0.196-0.631-0.537-1.504-0.652-2.134-0.118-0.634-0.012-1.389-0.062-2.029-0.050-0.637-0.308-1.351-0.323-1.982 0-0.155-0.025-0.478 0.193-0.513 0.522-0.084 0.413 1.14 0.46 1.47 0.044 0.308 0.18 0.612 0.208 0.92 0.050 0.531-0.037 1.128 0 1.662 0.034 0.503 0.596 2.541 0.802 3.057 0.065 0.158 0.252 0.295 0.317 0.432 0.065 0.131 0.109 0.758 0.118 0.954 0.006 0.186 0.031 0.643-0.012 0.795-0.053 0.18-0.323 0.27-0.46 0.134z"></path>
<path d="M13.744 12.688c0.075 0.065 0.32 0.047 0.429 0.081 0.236 0.075 1.007 0.423 0.631 0.708-0.348 0.261-0.522-0.277-0.823-0.18-0.149 0.047-0.096 0.466-0.037 0.603 0.267 0.121 0.761 0.249 0.693 0.637-0.081 0.46-0.429 0.062-0.562-0.006-0.221-0.115-0.497-0.137-0.621-0.398-0.068-0.416-0.059-0.854-0.186-1.261-0.158-0.506-0.932-1.047 0.090-1.137 0.037-0.186-0.059-0.273-0.158-0.401-0.336-0.429-0.901-0.845-1.286-1.243-0.168-0.242 0.183-0.37 0.099-0.621-0.071-0.217-0.743-0.084-0.73-0.482 0.025-0.823 1.46 0.277 1.609 0.621 0.090 0.211-0.059 0.289-0.152 0.463-0.031 0.14 0.739 0.755 0.885 0.944 0.249 0.32 0.457 0.814 0.239 1.199-0.062 0.109-0.332 0.286-0.115 0.472z"></path>
<path d="M20.197 10.11c-0.379 0.388-0.938 0.802-1.268 1.224-0.099 0.127-0.193 0.214-0.158 0.401 1 0.127 0.314 0.485 0.224 0.848-0.034 0.14 0.047 0.233 0.034 0.351-0.019 0.168-0.242 0.326-0.289 0.516-0.087 0.36 0.217 0.68-0.208 0.916-0.090 0.050-0.578 0.264-0.671 0.295-0.165 0.053-0.351 0.031-0.379-0.168-0.062-0.469 0.696-0.388 0.743-0.867 0.031-0.345-0.367-0.224-0.37-0.522 0-0.379 0.506-0.385 0.584-0.603 0.075-0.208-0.081-0.165-0.143-0.261-0.264-0.419-0.047-0.907 0.233-1.255 0.146-0.18 0.892-0.777 0.861-0.916-0.093-0.174-0.242-0.249-0.152-0.463 0.149-0.348 1.584-1.445 1.609-0.621 0.012 0.398-0.659 0.264-0.73 0.482-0.084 0.255 0.292 0.401 0.081 0.64z"></path>
<path d="M16.32 21.723c-0.255 0.304 0.261 0.559 0.193 0.805-0.071 0.258-0.829 0.258-0.907-0.044-0.019-0.205 0.342-0.292 0.168-0.59-0.053-0.090-0.345-0.311-0.447-0.357-0.196-0.087-0.864-0.112-0.578-0.503 0.202-0.276 0.531 0.009 0.739 0.022 0.379 0.025-0.127-0.565-0.127-0.609 0-0.205 0.348-0.217 0.401-0.385 0.121-0.407-0.134-1.727 0.093-1.998 0.118-0.143 0.289-0.115 0.401 0.022 0.177 0.217 0.053 0.5 0.050 0.749 0 0.385-0.019 0.774 0.028 1.156 0.18 0.267 0.472-0.593 0.78-0.298 0.339 0.5-0.609 0.746-0.637 1.031-0.019 0.221 0.444 0.196 0.503 0.283 0.239 0.336-0.534 0.569-0.659 0.715z"></path>
<path d="M14.304 15.882c0.115 0.118 0.252 0.488 0.037 0.565-0.304 0.109-0.491-0.398-1.050-0.14-0.199 0.090-0.162 0.494-0.084 0.618 0.062 0.096 0.811 0.177 0.584 0.522-0.221 0.336-0.64-0.056-0.929 0.022-0.186 0.053-0.18 0.792-0.106 0.954 0.099 0.214 0.938 0.413 0.724 0.91-0.214 0.5-0.466-0.298-0.783-0.196-0.19 0.059 0.059 0.758-0.407 0.615l-0.162-0.323c0.099-1.137-0.162-1.904 0.565-2.868 0.065-0.084 0.205-0.118 0.233-0.199 0.053-0.155-0.084-0.348-0.022-0.447 0.426-0.158 1.031-0.419 1.407-0.034z"></path>
<path d="M18.784 18.504c-0.103 0.099-0.14 0.534-0.317 0.569-0.478-0.090-0.308-0.851 0.006-1.066 0.348-0.233 1.264 0.261 0.833-0.618-0.432-0.882-0.544 0-0.997 0.081-0.593 0.103-0.255-0.603 0.174-0.795 0.208-0.093 0.261 0.012 0.357-0.012 0.112-0.031 0.099-0.304 0.379-0.264 0.189 0.028 0.628 0.854 0.715 1.059-0.103 0.624 0.18 1.547 0.056 2.119-0.068 0.314-0.382 0.252-0.618 0.348-0.143 0.059-0.205 0.283-0.419 0.124-0.115-0.087-0.146-0.233-0.090-0.363 0.18-0.426 0.926-0.168 0.578-1.035-0.103-0.255-0.494-0.301-0.659-0.146z"></path>
<path d="M17.575 8.267c0.174 0.152-0.037 0.382-0.028 0.488 0.012 0.152 0.255 0.255 0.258 0.382-0.177 0.267-0.643 1.246-0.435 1.507 0.103 0.127 0.401 0.065 0.317 0.463-0.034 0.165-0.5 0.612-0.631 0.777-0.155 0.196-0.233 0.618-0.609 0.488-0.519-0.183 0.469-1.066 0.478-1.249 0.006-0.106-0.106-0.233-0.127-0.336-0.081-0.407 0.121-0.823 0.189-1.181 0.081-0.423-0.146-0.364-0.193-0.534-0.075-0.267 0.419-1.118 0.783-0.805z"></path>
<path d="M15.049 11.865c-0.143-0.18-0.603-0.606-0.621-0.802-0.037-0.367 0.227-0.295 0.326-0.419 0.208-0.261-0.255-1.24-0.435-1.507 0.003-0.121 0.211-0.211 0.245-0.345 0.037-0.14-0.208-0.37 0.003-0.541 0.398-0.205 0.836 0.553 0.761 0.82-0.047 0.171-0.277 0.115-0.193 0.534 0.068 0.354 0.267 0.771 0.19 1.181-0.019 0.103-0.134 0.23-0.127 0.336 0.009 0.214 0.944 0.976 0.516 1.233-0.36 0.217-0.516-0.301-0.665-0.491z"></path>
<path d="M11.998 12.505c0.277 0.332 0.292 1.019 0.457 1.445 0.249 0.637 0.715 0.916 0.457 1.712-0.056 0.168-0.115 0.264-0.304 0.177-0.261-0.118-0.13-0.621-0.186-0.889-0.053-0.258-0.252-0.398-0.354-0.612-0.193-0.398-0.255-1.063-0.432-1.389-0.043-0.081-0.59-0.569-0.693-0.646-0.252-0.19-0.55-0.211-0.739-0.444l0.019-0.177c0.301-0.301 0.618-0.168 0.91 0.056 0.177 0.134 0.746 0.615 0.87 0.764z"></path>
<path d="M20.126 12.505c0.124-0.149 0.693-0.634 0.87-0.764 0.295-0.224 0.609-0.354 0.91-0.056l0.019 0.177c-0.189 0.233-0.485 0.255-0.739 0.444-0.106 0.078-0.649 0.565-0.693 0.646-0.18 0.326-0.239 0.991-0.432 1.389-0.103 0.211-0.301 0.354-0.354 0.612-0.047 0.221 0.050 0.836-0.168 0.907-0.472 0.155-0.385-0.752-0.317-1.013 0.084-0.32 0.326-0.584 0.447-0.892 0.168-0.429 0.18-1.112 0.457-1.445z"></path>
<path d="M18.383 15.124c0.196-0.016 0.64 0.103 0.522 0.364-0.121 0.27-0.382 0.165-0.562 0.242-0.295 0.127-0.311 0.873-0.696 0.696-0.314-0.143 0.009-0.711 0.149-0.923 0.143-0.217 0.32-0.357 0.59-0.379z"></path>
<path d="M10.501 16.249c0.497-0.071 0.811 0.687 1.112 0.957 0.115 0.245-0.068 0.401-0.317 0.376-0.286-0.028-0.429-0.435-0.6-0.637-0.090-0.106-0.345-0.224-0.385-0.367-0.050-0.165 0.019-0.301 0.19-0.326z"></path>
<path d="M21.543 16.249c0.186-0.016 0.311 0.093 0.283 0.283-0.028 0.183-0.292 0.289-0.398 0.41-0.189 0.221-0.317 0.64-0.649 0.64s-0.373-0.155-0.267-0.376c0.336-0.292 0.519-0.91 1.031-0.954z"></path>
<path d="M12.16 20.051c0.115-0.028 0.876 0.398 0.982 0.5 0.28 0.264 0.19 0.674-0.221 0.541-0.040-0.012-0.631-0.429-0.693-0.485-0.162-0.143-0.379-0.482-0.068-0.556z"></path>
<path d="M18.889 21.266c-0.242-0.348 0.311-0.845 0.603-0.519 0.258 0.286-0.286 0.774-0.603 0.519z"></path>
</svg>
