<!-- Generated by IcoMoon.io -->
<svg version="1.1" xmlns="http://www.w3.org/2000/svg" width="32" height="32" viewBox="0 0 32 32">
<path d="M15.94 25.516c-0.107-0.017-0.181 0.050-0.261 0.104-0.13 0.087-0.712 0.508-0.779 0.585-0.197 0.221-0.244 0.505 0.14 0.445 0.207-0.033 1.017-1.017 0.903-1.134zM20.223 22.009c-1.307 1.123-1.906 2.729-2.759 4.196-0.090 0.157-0.451 0.391-0.191 0.609 0.371 0.311 2.043 0.271 2.565 0.231 0.174-0.013 0.615-0.060 0.695-0.171v-4.792c-0.023-0.204-0.171-0.197-0.308-0.077zM22.193 21.531c-0.187-0.067-0.284 0.047-0.425 0.11-0.090 0.040-0.214 0.064-0.234 0.12-0.060 0.167 0.020 0.361 0.080 0.515 0.1 0.254 0.124 0.538 0.288 0.779l1.227 3.832 0.074 0.097 0.147-0.013c0.425-0.174 0.876-0.298 1.314-0.425 0.555-0.16 1.314-0.114 1.167-0.963l-3.638-4.056zM31.575 11.613l0.15 0.849s0.050 0.518 0.033 0.535c-1.451 1.428-9.329 7.39-9.329 7.39-0.114 0.338 0.522 0.806 0.739 1.067 1.15 1.378 2.28 2.775 3.484 4.106 0.358 0.665 0 1.077-0.555 1.424-1.2 0.759-4.394 1.147-5.862 1.2-1.675 0.060-4.166-0.181-5.788-0.609-0.314-0.084-0.508-0.324-0.859-0.247-0.167 0.037-0.699 0.622-0.889 0.772-1.344 1.077-2.702 2.147-4.056 3.207-0.599 0.468-0.819 0.782-1.649 0.652-1.123-0.177-2.595-0.702-3.762-0.966-0.508-0.114-1.194-0.328-1.665-0.401-0.308-0.047-0.879 0.090-1.047-0.154-0.13-0.187-0.391-1.257-0.237-1.431 0.064-0.074 0.515-0.244 0.662-0.338 5.36-3.364 10.65-6.818 15.967-10.209 1.856-1.184 3.715-2.291 5.571-3.471 1.796-1.144 3.578-2.387 5.353-3.521 0.221-0.14 0.395-0.214 0.545-0.304 0.084-0.050 0.221-0.217 0.344-0.274 0.16-0.074 0.779 0.221 0.993 0.274 0.502 0.127 1.050 0.207 1.555 0.311 0.097 0.020 0.207 0.090 0.298 0.134z"></path>
<path d="M16.267 15.187c0.157-0.224-0.304-0.455-0.428-0.592-1.080-1.19-2.023-2.732-2.762-4.163-1.281-2.468-2.458-7.085-2.123-9.851 0.067-0.548 0.485-0.823 0.789-0.274-0.020 0.692 0 1.374 0 2.066 0.040 3.541 1.404 7.059 3.274 10.041 0.391 0.622 1.348 1.916 1.886 2.377 0.344 0.298 0.799 0.294 1.167 0.829 0.244 0.358-0.040 0.408-0.267 0.665-2.839 0.649-5.741 1.090-8.604 1.652-0.572 0.11-1.177 0.542-1.618-0.080-0.094-0.13-0.214-0.435-0.214-0.582s0.177-0.264 0.084-0.418l-1.277-1.291c-2.364-3.046-3.775-6.4-4.598-10.152-0.324-1.478-0.378-3.133-0.338-4.641 0.017-0.595 0.468-1.12 0.836-0.451-0.070 1.401-0.12 2.775 0.104 4.16 0.652 4.049 2.739 8.991 5.705 11.877 0.194 0.191 0.408 0.358 0.696 0.294 2.12-0.391 4.23-0.863 6.35-1.244 0.231-0.040 1.247-0.090 1.341-0.224z"></path>
</svg>
