<!-- Generated by IcoMoon.io -->
<svg version="1.1" xmlns="http://www.w3.org/2000/svg" width="32" height="32" viewBox="0 0 32 32">
<path d="M28.179 15.888c0.176-0.23-0.035-0.285-0.134-0.445-1.888-3.114-3.616-6.333-5.475-9.466-0.112-0.189-0.106-0.461-0.4-0.486-5.664 3.293-11.354 6.541-17.002 9.846-0.419 0.246-0.941 0.47-1.341 0.733-0.086 0.054-0.355 0.24-0.346 0.33l5.891 10.208 0.179 0.083 18.63-10.8zM28.874 6.134c0.298 0.643-0.448 0.63-0.138 1.28 0.125 0.266 0.339 0.493 0.656 0.493 0.157 0 0.278-0.186 0.454-0.006 0.416 0.422-0.49 0.685-0.048 1.376 0.179 0.282 0.378 0.336 0.701 0.336 0.163 0 0.304-0.176 0.394 0.061 0.17 0.448-0.218 0.499-0.25 0.842-0.035 0.381 0.358 0.829 0.723 0.858 0.144 0.013 0.358-0.259 0.55 0.090 0.234 0.419-0.192 0.41-0.426 0.589-0.995 0.755-1.424 2.438-0.998 3.6 0.077 0.208 0.333 0.342 0.147 0.598-2.938 1.632-5.818 3.366-8.726 5.046-4.154 2.4-8.384 4.758-12.541 7.187-0.16 0.096-0.483 0.416-0.666 0.397-0.189-0.019-0.214-0.288-0.32-0.429-0.79-1.072-2.531-1.398-3.718-0.896-0.176 0.074-0.339 0.307-0.541 0.157-0.406-0.304 0.042-0.547 0.134-0.832 0.118-0.362-0.211-0.934-0.608-0.931-0.227 0-0.378 0.138-0.608-0.077-0.31-0.288 0.218-0.496 0.253-0.861 0.026-0.259-0.282-0.704-0.531-0.778-0.202-0.061-0.63 0.115-0.736-0.074-0.23-0.419 0.454-0.598 0.224-1.171-0.035-0.086-0.307-0.413-0.4-0.451-0.256-0.106-0.714 0.122-0.851-0.16-0.182-0.371 0.381-0.454 0.269-1.011-0.035-0.17-0.355-0.554-0.518-0.602-0.256-0.077-0.707 0.314-0.746-0.288v-0.054c-0.019-0.243 0.259-0.262 0.422-0.403 1.066-0.928 1.466-2.426 0.938-3.744-0.080-0.198-0.317-0.278-0.122-0.573l21.853-12.579c0.253-0.061 0.323 0.362 0.493 0.55 0.87 0.97 2.381 1.366 3.606 0.89 0.147-0.058 0.394-0.272 0.48-0.25 0.096 0.080 0.288 0.221 0.304 0.342 0.035 0.243-0.394 0.47-0.31 0.89 0.013 0.070 0.112 0.259 0.157 0.323 0.336 0.493 0.947 0.141 1.043 0.259z"></path>
<path d="M10.682 17.002c-0.432 0.464-1.155 1.296-1.286 1.93-0.074 0.352 0.013 0.851 0.352 1.037 0.042 0.022 0.579 0.24 0.611 0.243 2.33 0.218 5.958-1.629 7.92-2.925 1.187-0.784 3.616-2.707 3.99-4.093 0.125-0.461 0.106-0.88-0.32-1.171-0.41-0.282-1.155-0.24-1.651-0.214-0.755 0.042-1.952 0.422-2.698 0.704-2.39 0.899-5.178 2.621-6.915 4.49zM22.179 6.128c0.026 0.016 0.093 0.259 0.128 0.323 1.578 2.819 3.219 5.613 4.832 8.406 0.115 0.198 0.547 0.659 0.394 0.886-0.358 0.186-0.736 0.358-1.088 0.56-5.549 3.197-11.085 6.422-16.611 9.658l-0.25 0.013-5.453-9.491 17.792-10.333c0.067-0.032 0.195-0.058 0.256-0.019z"></path>
</svg>
