<!-- Generated by IcoMoon.io -->
<svg version="1.1" xmlns="http://www.w3.org/2000/svg" width="32" height="32" viewBox="0 0 32 32">
<path d="M10.499 12.317s-0.061 0.272 0 0.304c0.749 0.392 2.693 0.693 3.541 0.672 0.549-0.013 0.629-0.016 1.483-0.139 0.107-0.016 0.264-0.115 0.291-0.277 0.056-0.341-0.627-0.003-0.715 0.016-0.936 0.213-2.605 0.021-3.536-0.229-0.077-0.021-0.976-0.4-1.067-0.349h0.003zM25.675 12.141c-0.117 0.021-0.205 0.165-0.325 0.224-0.552 0.259-2.189 0.333-2.768 0.168-0.227-0.064-0.747-0.427-0.851 0.032 0.112 0.152 0.368 0.165 0.512 0.176 0.101 0.008 0.323 0.107 0.464 0.139 0.952 0.2 1.725 0.112 2.64-0.139 0.139-0.037 0.531-0.267 0.563-0.363 0.027-0.165-0.072-0.267-0.235-0.237zM14.568 8.181c-0.080-0.008-0.571 0.541-0.683 0.635-1.701 1.421-4.365 2.413-6.549 2.771-0.2 0.032-0.891 0.019-1.019 0.117l-0.029 0.117c0.144 0.501 1.816 0.488 2.232 0.451 0.387-0.035 0.536-0.2 0.843-0.293 0.776-0.243 1.523-0.211 2.259-0.515 0.899-0.373 2.453-2.091 2.915-2.952 0.029-0.053 0.184-0.317 0.032-0.331zM17.107 9.483c-0.368-0.403-0.515-0.957-0.811-1.392-0.037 0.037-0.088 0.067-0.104 0.123-0.059 0.195 0.075 0.851 0.083 1.125 0.027 0.909-0.048 1.827-0.027 2.731 0 0.088 0.019 0.363 0.072 0.411 1.099 0.312 2.117 0.379 3.237 0.144 0.325-0.069 0.755-0.168 1.037-0.328 0.037-0.165-0.907-0.416-1.077-0.512-0.456-0.256-1.584-1.301-1.915-1.723-0.208-0.264-0.277-0.339-0.493-0.576zM17.563 7.8c1.696 1.779 4.563 2.736 6.931 3.187 0.392 0.075 0.824 0.091 1.203 0.16 0.8 0.147 0.691 0.448 0.717 1.147 0.080 2 0.341 3.965 0.517 5.957 0.107 1.197 0.301 2.363 0.52 3.552 0.371 2.032 0.723 4.075 1.816 5.869 0.109 0.179 0.44 0.509 0.485 0.605 0.179 0.381-0.485 0.227-0.635 0.224-1.6-0.013-3.496 0.136-5.051 0-0.075-0.005-0.149-0.005-0.216-0.045-0.448-1.061-1.080-2.147-1.461-3.232-0.24-0.683-0.459-1.403-0.683-2.091-0.28-0.856-0.16-1.395-0.203-2.251-0.072-1.416-0.096-2.808-0.136-4.227-0.032-1.16-0.131-2.333-0.093-3.504 0.005-0.155 0.155-0.541-0.067-0.568-0.139-0.019-0.355 0.221-0.523 0.296-0.925 0.408-2.301 0.571-3.296 0.432-0.251-0.035-0.853-0.277-1.003-0.269-0.253 0.013-0.112 0.331-0.109 0.472 0.045 2.269-0.048 4.541 0.011 6.811 0.435 1.547 0.755 3.067 1.36 4.552 0.408 1.005 0.827 2.205 1.493 3.053 0.141 0.181 0.603 0.44 0.227 0.637l-0.181-0.021c-0.491-0.064-0.869-0.664-1.080-1.080-0.747-1.475-1.413-3.331-1.864-4.912-0.064-0.224-0.115-1.389-0.4-1.373-0.264 0.384-0.205 0.885-0.317 1.32-0.275 1.064-0.613 2.019-1 3.045-0.291 0.771-0.773 2.408-1.456 2.864-0.336 0.224-0.539 0.091-0.864 0.088-1.584-0.008-3.171 0.029-4.755-0.021-0.072-0.043-0.091-0.101-0.093-0.179-0.008-0.328 0.456-0.96 0.616-1.296 0.861-1.803 1.493-3.699 1.659-5.709 0.213-2.584-0.005-5.16 0.315-7.733 0.037-0.291-0.035-0.605 0.048-0.901-0.136-0.485-0.624-0.035-0.875 0.072-0.533 0.224-2.061 0.2-2.587-0.067-0.133-0.067-0.664-0.565-0.664-0.147s0.064 0.909 0.037 1.365c-0.067 1.093-0.368 2.224-0.453 3.32-0.077 0.995-0.115 1.741-0.261 2.741-0.352 2.427-0.752 5.413-1.931 7.573-0.181 0.331-0.491 0.995-0.885 1.029-0.752 0.067-0.069-0.56 0.037-0.739 1.176-1.933 1.517-3.955 1.907-6.141 0.296-1.659 0.472-3.155 0.629-4.827 0.112-1.179 0.333-2.363 0.411-3.547 0.029-0.429-0.096-1.637 0.115-1.931 0.083-0.115 0.408-0.189 0.555-0.219 0.376-0.072 0.811-0.085 1.205-0.16 3.083-0.587 5.627-1.659 7.811-3.965 0.565-0.597 0.587-1.317 0.547-2.093-0.016-0.341-0.301-1.312 0.213-1.467 0.44-0.131 0.653 0.304 0.976 0.507 1.221 0.771 2.291-0.011 3.472-0.107 0.725-0.059 1.315-0.011 1.989 0.237 0.448 0.165 0.605 0.344 1.144 0.355 0.461 0.008 0.949-0.056 1.408-0.043 0.123 0 0.344 0.080 0.384 0.211 0.109 0.381-0.595 0.392-0.675 0.717 0 0.245 1 0.491 0.568 0.931-0.235 0.237-1.477-0.019-1.851 0.037-0.92-0.448-1.784-0.68-2.827-0.531-1.085 0.155-1.856 0.872-3.021 0.288-0.24-0.12-0.875-0.659-1.112-0.603-0.219 0.051-0.109 0.581-0.027 0.739 0.163 0.312 1.048 1.309 1.328 1.605z"></path>
</svg>
