<!-- Generated by IcoMoon.io -->
<svg version="1.1" xmlns="http://www.w3.org/2000/svg" width="32" height="32" viewBox="0 0 32 32">
<path d="M18.818 10.292l-1.52 1.128c-0.137 0.233-0.105 0.437 0.035 0.657 0.459 0.72 0.771 0.768 1.552 0.953 0.207 0.048 0.363 0.214 0.66 0.134 0.092-0.166 0.076-0.363 0.153-0.539 0.163-0.376 1.106-1.020 1.281-0.433 0.156 0.523-0.966 0.698-0.688 1.256 0.061 0.124 0.832 0.421 1.017 0.523 0.147 0.080 0.548 0.424 0.644 0.433 0.22 0.022 0.268-0.261 0.389-0.386 0.494-0.507 1.6-0.143 1.779-0.354 0.185-0.708-0.354-1.116-0.271-1.893 0.099-0.94 1.288-1.049 1.931-0.564 0.408 0.309 0.79 0.845 0.947 1.332 0.083 0.265 0.418 1.399-0.159 1.3-0.548-0.092-0.37-1.256-0.81-1.645-0.204-0.182-0.628-0.182-0.653 0.15-0.032 0.408 0.682 1.065 0.736 1.648 0.067 0.717-0.271 0.969-0.947 1.045-0.402 0.045-0.803-0.096-1.125 0.242-0.277 0.293-0.016 0.548 0.22 0.79 0.491 0.504 0.478 0.169 0.927 0.016 0.351-0.118 1.437-0.229 1.367 0.341-0.054 0.446-1.412 0.169-1.16 0.953 0.026 0.083 0.424 0.8 0.488 0.883 0.242 0.322 0.408 0.048 0.615-0.013 0.714-0.22 1.326 0.229 1.922 0.271 0.905 0.064 0.475-0.899 0.427-1.399-0.022-0.245-0.057-0.953 0.013-1.176 0.226-0.717 1.214-1.042 1.294-1.727 0.041-0.347-0.214-1.214 0.258-1.281 0.258-0.038 0.338 0.188 0.398 0.398 0.121 0.424 0.102 1.998-0.061 2.394-0.143 0.347-0.402 0.472-0.43 0.883-0.061 0.912 0.618 1.6 0.446 2.435-0.032 0.15-0.389 0.8-0.5 0.924-0.379 0.421-1.090 0.44-1.616 0.367-0.309-0.045-0.526-0.351-0.915-0.338-0.287 0.010-0.816 0.414-0.813 0.704 0 0.076 0.15 0.806 0.182 0.838 0.14 0.137 0.507-0.032 0.739 0 0.351 0.051 1.434 0.88 1.001 1.221-0.494 0.386-0.79-0.545-1.221-0.484-0.108 0.029-0.258 0.169-0.309 0.265-0.118 0.229 0 0.867-0.003 1.192-0.003 0.194-0.096 0.367-0.035 0.542 0.051 0.070 0.896 0.086 1.080 0.115 1.080 0.172 2.174 0.446 3.257 0.615 0.182 0.029 0.465 0.038 0.647 0.006v0.341l-31.267-0.080-0.051-0.172c0.064-0.207 1.619-0.287 1.9-0.325 0.688-0.096 1.358-0.207 2.024-0.367 0.156-0.038 0.459 0.003 0.558-0.096 0.064-0.064 0.035-0.803 0.013-0.924-0.057-0.303-0.268-0.134-0.453-0.169-0.252-0.048-0.561-0.354-0.774-0.373-0.338-0.035-0.653 0.43-0.937 0.086-0.446-0.542 0.695-1.036 1.294-0.781 0.351 0.147 0.73 0.762 0.959 0.070 0.064-0.191 0.252-1.224 0.245-1.399-0.010-0.233-0.504-0.631-0.73-0.685-0.335-0.076-0.969-0.026-1.339-0.013-0.781 0.032-1.253 0.245-2.021-0.105-1.154-0.526-1.565-1.533-1.361-2.77 0.067-0.405 0.752-1.265 1.198-0.998 0.462 0.274-0.188 0.826-0.331 1.125-0.185 0.386-0.242 0.65 0.010 1.023 0.271 0.405 0.714 0.58 1.189 0.599 1.243 0.051 2.543-0.622 3.697-0.478 0.182 0.022 0.36 0.229 0.574 0.054 0.089-0.076 0.571-0.915 0.535-1.042-0.019-0.067-0.861-0.682-1.029-0.969-0.338-0.574-0.019-1.103-0.303-1.575-0.118-0.194-0.774-0.743-0.309-0.94 0.484-0.204 1.109 0.685 1.182 1.093 0.032 0.178-0.026 0.462 0.067 0.602 0.064 0.099 1.259 0.542 1.377 0.523 0.207-0.035 0.609-0.51 0.727-0.695 0.022-0.163-0.29-0.446-0.354-0.65-0.198-0.647 0.070-1.641 0.134-2.298 0.070-0.739-0.303-1.335-0.95-1.67-0.739-0.382-1.112-0.159-1.728-0.322-0.469-0.124-1.141-0.867-1.195-1.367-0.038-0.36-0.108-1.635 0.328-1.728 0.892-0.188 0.061 1.546 0.647 1.893 0.402 0.239 1.316 0.108 1.791 0.143 1.007 0.080 2.448 0.966 2.789 1.938 0.293 0.835-0.057 1.421 0.561 2.228 0.351 0.456 0.491 0.105 0.819-0.051 0.229-0.112 1.198-0.408 1.272-0.507 0.108-0.147-0.127-0.621-0.115-0.892 0.016-0.293 0.249-1.186 0.676-0.861 0.303 0.233-0.112 1.275 0.229 1.479 0.182 0.108 0.959-0.054 1.087-0.226 0.080-0.108 0.268-0.854 0.354-1.071 0.083-0.21 0.175-0.484 0.303-0.666 0.609-0.867 2.069-1.055 2.072-2.317 0-0.204-0.328-0.806-0.551-0.861-0.889-0.207-1.026 1.272-1.383 1.437-0.319 0.147-0.526-0.21-0.5-0.494 0.051-0.545 0.81-1.399 1.24-1.728 0.405-0.309 1.109-0.379 1.6-0.287 0.449 0.086 1.24 0.81 1.304 1.259 0.092 0.692 0.182 1.763-0.242 2.339z"></path>
</svg>
